<?xml version="1.0" standalone="no"?><!DOCTYPE svg PUBLIC "-//W3C//DTD SVG 1.1//EN" "http://www.w3.org/Graphics/SVG/1.1/DTD/svg11.dtd"><svg height="1024" node-id="1" sillyvg="true" template-height="1024" template-width="1024" version="1.1" viewBox="0 0 1024 1024" width="1024" xmlns="http://www.w3.org/2000/svg" xmlns:xlink="http://www.w3.org/1999/xlink"><defs node-id="49"></defs><path d="M 442.41 375.86 L 442.41 454.29 C 409.36 466.01 379.78 485.85 356.41 512.00 L 355.79 512.70 C 321.88 550.85 303.18 600.14 303.25 651.18 L 303.25 373.51 L 442.35 373.51 C 442.35 374.30 442.37 375.08 442.41 375.86 Z" fill="#ffa836" fill-rule="nonzero" node-id="51" stroke="none" target-height="277.66998" target-width="139.23135" target-x="303.17865" target-y="373.51"></path><path d="M 303.23 653.43 C 302.63 653.43 302.06 653.20 301.64 652.77 C 301.21 652.35 300.98 651.78 300.98 651.18 L 300.98 373.51 C 300.98 372.27 301.99 371.26 303.23 371.26 L 442.35 371.26 C 443.59 371.27 444.59 372.26 444.60 373.50 C 444.60 374.26 444.60 375.01 444.66 375.76 L 444.66 454.29 C 444.66 455.24 444.06 456.09 443.16 456.41 C 410.46 468.01 381.20 487.64 358.07 513.50 L 357.45 514.19 C 323.93 551.95 305.43 600.70 305.45 651.19 C 305.44 652.42 304.46 653.41 303.23 653.43 Z M 305.48 375.76 L 305.48 607.76 C 313.00 571.89 329.75 538.60 354.08 511.19 L 354.73 510.47 C 378.01 484.46 407.36 464.61 440.16 452.69 L 440.16 375.91 C 440.16 375.86 440.16 375.81 440.16 375.76 Z" fill="#262d33" fill-rule="nonzero" node-id="53" stroke="none" target-height="282.17267" target-width="143.68268" target-x="300.97733" target-y="371.26"></path><path d="M 720.77 372.82 L 720.77 651.18 C 720.74 562.70 664.99 483.83 581.59 454.29 L 581.59 375.86 C 581.59 374.86 581.66 373.86 581.66 372.86 Z" fill="#0078ff" fill-rule="nonzero" node-id="55" stroke="none" target-height="278.36" target-width="139.18" target-x="581.59" target-y="372.82"></path><path d="M 720.77 653.43 C 719.53 653.43 718.52 652.42 718.52 651.18 C 718.49 563.66 663.34 485.64 580.84 456.41 C 579.94 456.09 579.34 455.24 579.34 454.29 L 579.34 375.86 C 579.34 374.78 579.41 373.80 579.41 372.86 C 579.41 371.62 580.42 370.61 581.66 370.61 L 720.77 370.61 C 721.37 370.61 721.94 370.84 722.36 371.27 C 722.79 371.69 723.02 372.26 723.02 372.86 L 723.02 651.18 C 723.02 651.78 722.79 652.35 722.36 652.77 C 721.94 653.20 721.37 653.43 720.77 653.43 Z M 583.84 452.70 C 652.52 477.63 703.45 536.27 718.52 607.76 L 718.52 375.07 L 583.88 375.07 C 583.88 375.37 583.88 375.67 583.88 375.97 Z" fill="#262d33" fill-rule="nonzero" node-id="57" stroke="none" target-height="282.82535" target-width="143.68262" target-x="579.34" target-y="370.60733"></path><path d="M 720.77 372.82 L 581.59 372.82 C 581.13 334.69 550.10 304.02 511.96 304.02 C 473.83 304.02 442.80 334.69 442.34 372.82 C 442.34 373.05 442.34 373.28 442.34 373.51 L 303.23 373.51 L 303.23 372.82 C 303.23 257.51 396.69 164.00 512.00 164.00 C 627.31 164.00 720.77 257.51 720.77 372.82 Z" fill="#02c3ff" fill-rule="nonzero" node-id="59" stroke="none" target-height="209.51001" target-width="417.54" target-x="303.23" target-y="164"></path><path d="M 442.35 375.76 L 303.23 375.76 C 302.01 375.76 301.02 374.80 300.98 373.58 L 300.98 372.82 C 300.98 256.46 395.64 161.82 511.98 161.82 C 628.32 161.82 722.98 256.49 722.98 372.82 C 722.98 374.06 721.97 375.07 720.73 375.07 L 581.59 375.07 C 580.35 375.07 579.34 374.06 579.34 372.82 C 578.89 335.93 548.86 306.26 511.96 306.26 C 475.07 306.26 445.04 335.93 444.59 372.82 C 444.59 373.02 444.59 373.23 444.59 373.44 C 444.60 374.05 444.37 374.64 443.95 375.08 C 443.53 375.52 442.95 375.76 442.35 375.76 Z M 305.48 371.26 L 440.11 371.26 C 441.03 332.37 472.72 301.27 511.62 301.08 C 550.53 300.90 582.52 331.69 583.81 370.57 L 718.51 370.57 C 717.30 257.72 625.13 166.29 512.00 166.29 C 398.64 166.29 306.32 258.10 305.48 371.26 Z" fill="#262d33" fill-rule="nonzero" node-id="61" stroke="none" target-height="213.94144" target-width="421.99997" target-x="300.98" target-y="161.82"></path><path d="M 512.00 723.00 C 472.34 722.98 440.17 690.87 440.09 651.21 C 440.09 651.02 440.11 650.84 440.16 650.66 L 440.16 375.86 L 444.66 375.86 L 444.66 651.18 C 444.66 651.37 444.63 651.55 444.59 651.73 C 444.59 688.96 474.77 719.14 512.00 719.14 C 549.23 719.14 579.41 688.96 579.41 651.73 C 579.37 651.56 579.34 651.38 579.34 651.20 L 579.34 372.82 C 578.89 335.93 548.86 306.26 511.96 306.26 C 475.07 306.26 445.04 335.93 444.59 372.82 C 444.59 373.02 444.59 373.23 444.59 373.44 L 440.09 373.58 C 440.09 373.33 440.09 373.07 440.09 372.82 C 440.55 333.46 472.60 301.79 511.96 301.79 C 551.33 301.79 583.38 333.46 583.84 372.82 L 583.84 650.65 C 583.89 650.82 583.91 651.00 583.91 651.18 C 583.84 690.85 551.67 722.98 512.00 723.00 Z" fill="#262d33" fill-rule="nonzero" node-id="63" stroke="none" target-height="421.2122" target-width="143.82437" target-x="440.08768" target-y="301.7878"></path><path d="M 355.77 512.70 C 321.86 550.85 303.16 600.14 303.23 651.18 C 303.23 766.49 396.69 860.00 512.00 860.00 C 627.31 860.00 720.77 766.53 720.77 651.22 C 720.76 562.73 665.00 483.84 581.59 454.29 L 581.59 648.14 C 581.59 649.14 581.66 650.14 581.66 651.14 C 581.66 689.61 550.47 720.80 512.00 720.80 C 473.53 720.80 442.34 689.61 442.34 651.14 C 442.34 650.14 442.34 649.14 442.41 648.14 L 442.41 454.29 C 409.36 466.01 379.78 485.85 356.41 512.00" fill="#02c3ff" fill-rule="nonzero" node-id="65" stroke="none" target-height="405.71" target-width="417.6114" target-x="303.15863" target-y="454.29"></path><path d="M 512.00 862.21 C 395.64 862.21 301.00 767.54 301.00 651.21 C 300.97 599.62 319.86 549.80 354.10 511.21 L 357.47 514.21 C 323.95 551.97 305.45 600.72 305.47 651.21 C 305.47 765.09 398.11 857.74 511.99 857.74 C 625.87 857.74 718.51 765.09 718.51 651.21 C 718.49 564.85 664.79 487.60 583.84 457.50 L 583.84 648.14 C 583.84 649.08 583.91 650.14 583.91 651.14 C 583.91 690.85 551.71 723.05 512.00 723.05 C 472.29 723.05 440.09 690.85 440.09 651.14 C 440.09 650.08 440.09 649.04 440.16 647.99 L 440.16 457.50 C 408.66 469.23 380.49 488.45 358.07 513.50 L 354.72 510.50 C 378.35 484.08 408.25 464.02 441.66 452.17 C 442.33 451.94 443.08 452.04 443.66 452.45 C 444.27 452.86 444.65 453.55 444.66 454.29 L 444.66 648.14 C 444.61 649.22 444.59 650.20 444.59 651.14 C 444.59 688.37 474.77 718.55 512.00 718.55 C 549.23 718.55 579.41 688.37 579.41 651.14 C 579.41 650.14 579.41 649.14 579.34 648.21 L 579.34 454.21 C 579.34 453.48 579.70 452.79 580.29 452.37 C 580.89 451.95 581.65 451.84 582.34 452.09 C 666.65 481.97 723.00 561.73 723.00 651.18 C 723.00 767.54 628.36 862.21 512.00 862.21 Z" fill="#262d33" fill-rule="nonzero" node-id="67" stroke="none" target-height="410.36676" target-width="422.0331" target-x="300.96866" target-y="451.84326"></path><path d="M 355.77 512.70 C 321.86 550.85 303.16 600.14 303.23 651.18 C 303.23 766.49 396.69 860.00 512.00 860.00 C 627.31 860.00 720.77 766.53 720.77 651.22 C 720.76 562.73 665.00 483.84 581.59 454.29 L 581.59 648.14 C 581.59 649.14 581.66 650.14 581.66 651.14 C 581.66 689.61 550.47 720.80 512.00 720.80 C 473.53 720.80 442.34 689.61 442.34 651.14 C 442.34 650.14 442.34 649.14 442.41 648.14 L 442.41 454.29 C 409.36 466.01 379.78 485.85 356.41 512.00 Z" fill="#02c3ff" fill-rule="nonzero" node-id="69" stroke="none" target-height="405.71" target-width="417.6114" target-x="303.15863" target-y="454.29"></path><path d="M 512.00 862.21 C 395.64 862.21 301.00 767.54 301.00 651.21 C 300.97 599.62 319.86 549.80 354.10 511.21 L 354.10 511.21 L 354.72 510.51 C 378.36 484.10 408.25 464.04 441.66 452.19 C 442.33 451.96 443.08 452.06 443.66 452.47 C 444.27 452.88 444.65 453.57 444.66 454.31 L 444.66 648.14 C 444.61 649.22 444.59 650.20 444.59 651.14 C 444.59 688.37 474.77 718.55 512.00 718.55 C 549.23 718.55 579.41 688.37 579.41 651.14 C 579.41 650.14 579.41 649.14 579.34 648.21 L 579.34 454.21 C 579.34 453.48 579.70 452.79 580.29 452.37 C 580.89 451.95 581.65 451.84 582.34 452.09 C 666.65 481.97 723.00 561.73 723.00 651.18 C 723.00 767.54 628.36 862.21 512.00 862.21 Z M 357.45 514.21 C 323.93 551.97 305.43 600.72 305.45 651.21 C 305.45 765.09 398.09 857.74 511.97 857.74 C 625.85 857.74 718.49 765.09 718.49 651.21 C 718.48 564.85 664.78 487.60 583.84 457.50 L 583.84 648.14 C 583.84 649.08 583.91 650.14 583.91 651.14 C 583.91 690.85 551.71 723.05 512.00 723.05 C 472.29 723.05 440.09 690.85 440.09 651.14 C 440.09 650.08 440.09 649.04 440.16 647.99 L 440.16 457.50 C 408.66 469.23 380.49 488.45 358.07 513.50 L 357.45 514.19 Z" fill="#262d33" fill-rule="nonzero" node-id="71" stroke="none" target-height="410.36676" target-width="422.0331" target-x="300.96866" target-y="451.84326"></path><path d="M 511.56 577.75 C 510.73 578.49 509.95 579.29 509.23 580.14 C 504.78 571.05 488.31 536.82 490.23 529.83 C 490.54 528.67 491.32 528.69 492.42 529.54 L 492.42 529.54 L 496.15 541.04 L 497.95 536.42 C 498.07 536.60 498.21 536.78 498.33 536.98 C 498.60 534.73 499.18 532.55 500.43 533.83 C 501.93 535.34 501.43 538.83 500.92 541.04 C 504.31 546.52 507.92 552.95 510.92 558.49 C 508.71 561.49 506.71 567.33 511.56 577.75 Z" fill="#fbf5f0" fill-rule="nonzero" node-id="73" stroke="none" target-height="51.47003" target-width="23.25" target-x="488.31" target-y="528.67"></path><path d="M 509.23 581.64 L 509.05 581.64 C 508.55 581.57 508.11 581.26 507.89 580.81 C 499.94 564.59 486.89 536.36 488.75 529.45 C 488.91 528.58 489.53 527.86 490.36 527.55 C 491.42 527.32 492.52 527.63 493.31 528.37 C 493.58 528.58 493.77 528.88 493.85 529.21 L 496.25 536.61 L 496.53 535.91 C 496.64 535.63 496.83 535.39 497.07 535.22 C 497.46 533.38 498.07 532.42 499.07 532.09 C 499.94 531.81 500.90 532.10 501.48 532.81 C 503.29 534.64 503.08 538.05 502.48 540.81 C 505.28 545.35 508.55 551.07 512.22 557.81 C 512.50 558.32 512.46 558.95 512.11 559.42 C 510.03 562.24 508.47 567.60 512.91 577.14 C 513.19 577.74 513.04 578.45 512.55 578.89 C 511.77 579.59 511.05 580.33 510.37 581.13 C 510.08 581.46 509.67 581.64 509.23 581.64 Z M 491.60 532.00 C 492.15 538.42 498.90 555.47 509.60 577.53 L 509.73 577.40 C 505.58 567.90 506.94 561.94 509.14 558.40 C 505.53 551.81 502.32 546.24 499.60 541.83 C 499.39 541.49 499.32 541.09 499.41 540.70 C 499.77 539.33 499.92 537.91 499.86 536.50 C 499.86 536.70 499.83 536.92 499.77 537.16 C 499.70 537.73 499.31 538.22 498.77 538.41 L 497.53 541.59 C 497.29 542.17 496.72 542.55 496.09 542.54 C 495.47 542.53 494.92 542.13 494.71 541.54 Z" fill="#262d33" fill-rule="nonzero" node-id="75" stroke="none" target-height="54.322998" target-width="26.29834" target-x="486.89" target-y="527.31946"></path><path d="M 544.84 596.23 C 540.09 590.23 525.09 574.80 525.09 574.80 L 525.75 567.90 C 518.38 563.64 518.02 558.36 518.02 558.36 L 514.02 558.87 C 513.48 559.76 513.02 560.69 512.66 561.66 C 511.66 564.34 511.05 568.29 515.01 570.12 L 515.16 575.12 C 513.89 575.88 512.70 576.76 511.61 577.77 C 506.76 567.35 508.76 561.51 510.96 558.53 C 511.56 557.70 512.26 556.96 513.06 556.32 C 515.16 554.64 516.42 555.84 516.42 555.84 C 516.42 555.84 518.75 551.64 522.74 553.10 C 526.73 554.56 530.36 567.10 536.21 568.62 C 542.06 570.14 551.00 564.37 558.00 575.80 C 565.00 587.23 552.79 596.77 544.84 596.23 Z" fill="#ffa836" fill-rule="nonzero" node-id="77" stroke="none" target-height="45.130005" target-width="58.23999" target-x="506.76" target-y="551.64"></path><path d="M 545.52 597.75 C 545.26 597.75 545.00 597.75 544.74 597.75 C 544.32 597.72 543.93 597.52 543.67 597.19 C 539.00 591.32 524.16 576.00 524.00 575.84 C 523.69 575.53 523.54 575.09 523.58 574.65 L 524.15 568.65 C 519.22 565.54 517.46 561.97 516.85 559.98 L 514.85 560.22 C 514.51 560.84 514.21 561.49 513.96 562.15 C 512.10 567.15 514.69 568.32 515.54 568.71 C 516.06 568.95 516.39 569.46 516.41 570.03 L 516.56 575.03 C 516.58 575.59 516.28 576.12 515.79 576.39 C 514.62 577.09 513.52 577.91 512.52 578.84 C 512.17 579.16 511.68 579.30 511.21 579.20 C 510.74 579.11 510.35 578.80 510.15 578.37 C 505.09 567.49 507.09 561.07 509.66 557.60 C 510.33 556.67 511.13 555.83 512.02 555.11 C 513.04 554.18 514.42 553.76 515.78 553.96 C 517.46 551.65 520.45 550.71 523.15 551.65 C 525.42 552.47 527.15 555.41 529.24 558.82 C 531.39 562.39 533.82 566.44 536.48 567.13 C 538.22 567.41 540.00 567.41 541.74 567.13 C 546.84 566.68 553.80 566.07 559.26 574.97 C 562.20 579.77 562.32 584.89 559.60 589.39 C 556.72 594.29 550.76 597.75 545.52 597.75 Z M 526.65 574.25 C 529.21 576.91 540.91 589.06 545.58 594.75 C 550.29 594.44 554.57 591.89 557.08 587.89 C 558.58 585.42 559.73 581.45 556.75 576.59 C 552.26 569.27 547.08 569.73 542.06 570.17 C 539.98 570.48 537.85 570.44 535.78 570.06 C 531.93 569.06 529.16 564.45 526.72 560.39 C 525.18 557.84 523.44 554.95 522.18 554.49 C 519.50 553.49 517.86 556.24 517.68 556.56 C 517.60 556.70 517.50 556.82 517.39 556.93 L 517.83 556.87 C 518.24 556.82 518.66 556.94 518.98 557.20 C 519.28 557.45 519.48 557.81 519.52 558.20 C 519.52 558.37 520.01 562.80 526.52 566.55 C 527.03 566.84 527.32 567.41 527.26 567.99 Z M 511.58 560.25 C 509.93 563.04 509.02 567.74 512.13 575.35 C 512.70 574.90 513.20 574.56 513.59 574.35 L 513.49 571.10 C 510.38 569.20 509.54 565.65 511.20 561.20 C 511.32 560.81 511.45 560.50 511.58 560.22 Z M 515.20 556.92 C 514.81 556.96 514.44 557.11 514.13 557.36 L 515.66 557.17 C 515.54 557.11 515.44 557.03 515.34 556.94 Z" fill="#262d33" fill-rule="nonzero" node-id="79" stroke="none" target-height="47.041565" target-width="57.23001" target-x="505.09" target-y="550.70844"></path><path d="M 544.84 597.73 L 544.78 597.73 C 543.95 597.73 543.28 597.06 543.28 596.23 C 543.28 595.40 543.95 594.73 544.78 594.73 C 545.62 594.72 546.30 595.39 546.31 596.23 C 546.32 596.63 546.17 597.01 545.89 597.29 C 545.61 597.57 545.24 597.73 544.84 597.73 Z" fill="#262d33" fill-rule="nonzero" node-id="81" stroke="none" target-height="3.0056763" target-width="3.038025" target-x="543.28" target-y="594.7244"></path><path d="M 558.43 625.54 C 558.16 628.81 556.00 629.65 553.87 629.65 C 552.51 629.61 551.16 629.36 549.87 628.90 L 549.39 628.72 C 549.39 628.72 547.95 619.72 540.31 608.72 C 537.57 604.75 534.43 601.06 530.95 597.72 C 529.80 610.82 527.14 641.84 527.53 646.46 C 528.03 652.34 546.53 711.75 546.53 711.75 L 533.81 716.18 C 533.81 716.18 513.96 658.89 510.51 649.35 C 508.89 644.82 508.37 636.63 508.28 629.27 L 489.59 622.70 L 514.00 665.08 L 502.20 671.62 C 476.13 636.09 465.97 613.86 470.85 609.43 C 475.73 605.00 505.75 608.98 505.75 608.98 C 505.75 608.98 503.44 591.31 506.25 584.88 C 507.02 583.17 508.03 581.57 509.25 580.14 C 509.97 579.29 510.75 578.49 511.58 577.75 C 512.67 576.74 513.86 575.86 515.13 575.10 L 514.98 570.10 C 510.98 568.27 511.62 564.32 512.63 561.64 C 512.99 560.67 513.45 559.74 513.99 558.85 L 517.99 558.34 C 517.99 558.34 518.35 563.62 525.72 567.88 L 525.06 574.78 C 525.06 574.78 540.06 590.24 544.81 596.21 C 545.30 596.79 545.75 597.41 546.13 598.07 C 546.61 599.00 547.87 601.07 549.40 603.77 C 552.90 609.89 557.85 619.00 558.40 624.17 L 558.40 624.17 C 558.45 624.62 558.46 625.08 558.43 625.54 Z" fill="#fbf5f0" fill-rule="nonzero" node-id="83" stroke="none" target-height="157.83997" target-width="92.49161" target-x="465.97" target-y="558.34"></path><path d="M 533.79 717.75 C 533.56 717.75 533.34 717.70 533.13 717.60 C 532.77 717.42 532.50 717.11 532.37 716.74 C 532.23 716.32 521.85 686.38 514.85 666.34 L 514.76 666.40 L 503.00 672.94 C 502.34 673.30 501.51 673.12 501.07 672.51 C 488.82 655.82 461.28 616.16 469.92 608.32 C 474.59 604.09 496.32 606.32 504.12 607.25 C 503.60 602.40 502.55 589.78 504.95 584.25 C 505.76 582.41 506.83 580.70 508.12 579.16 C 508.89 578.25 509.72 577.40 510.61 576.61 C 511.55 575.75 512.55 574.96 513.61 574.25 L 513.51 571.00 C 510.40 569.10 509.56 565.55 511.22 561.10 C 511.63 560.03 512.13 559.01 512.73 558.03 C 512.96 557.65 513.36 557.40 513.80 557.35 L 517.85 556.84 C 518.26 556.79 518.68 556.91 519.00 557.17 C 519.30 557.42 519.50 557.78 519.54 558.17 C 519.54 558.34 520.03 562.77 526.54 566.52 C 527.05 566.81 527.34 567.38 527.28 567.96 L 526.69 574.17 C 529.34 576.91 541.69 589.79 546.06 595.17 C 546.62 595.83 547.12 596.54 547.54 597.29 C 547.83 597.84 548.42 598.86 549.19 600.18 C 549.66 600.99 550.19 601.91 550.77 602.92 C 554.77 609.92 559.39 618.57 559.93 623.92 C 559.93 623.97 559.93 624.02 559.93 624.07 C 559.97 624.56 559.97 625.04 559.93 625.53 L 559.93 625.53 C 559.64 629.01 557.43 631.01 553.87 631.01 C 552.34 630.97 550.82 630.69 549.38 630.18 L 548.91 630.00 C 548.38 629.83 547.99 629.37 547.91 628.82 C 547.91 628.74 546.40 620.03 539.08 609.46 C 537.00 606.46 534.69 603.63 532.17 600.99 C 529.91 626.81 528.77 643.24 529.03 646.26 C 529.42 650.95 542.81 694.76 547.94 711.26 C 548.18 712.03 547.76 712.85 547.00 713.12 L 534.28 717.54 C 534.13 717.64 533.97 717.71 533.79 717.75 Z M 489.57 621.27 C 489.74 621.27 489.91 621.30 490.07 621.35 L 508.76 627.92 C 509.35 628.13 509.75 628.69 509.76 629.32 C 509.87 638.52 510.61 645.32 511.90 648.92 C 515.01 657.51 531.63 705.43 534.71 714.34 L 544.65 710.88 C 541.79 701.69 526.50 652.19 526.04 646.65 C 525.66 642.13 528.04 614.01 529.46 597.65 C 529.51 597.08 529.89 596.58 530.43 596.38 C 530.97 596.18 531.57 596.30 531.99 596.70 C 535.54 600.10 538.74 603.84 541.55 607.88 C 547.99 617.19 550.12 625.01 550.69 627.59 C 551.72 627.93 552.79 628.11 553.87 628.14 C 555.87 628.14 556.78 627.33 556.94 625.42 C 556.97 625.06 556.97 624.70 556.94 624.34 L 556.94 624.29 C 556.37 618.88 550.20 608.08 548.17 604.53 C 547.60 603.53 547.07 602.61 546.60 601.81 C 545.79 600.43 545.18 599.36 544.87 598.81 C 544.53 598.24 544.14 597.70 543.71 597.20 C 539.00 591.32 524.16 576.00 524.00 575.84 C 523.69 575.53 523.54 575.09 523.58 574.65 L 524.15 568.65 C 519.22 565.54 517.46 561.97 516.85 559.98 L 514.85 560.22 C 514.51 560.84 514.21 561.49 513.96 562.15 C 512.10 567.15 514.69 568.32 515.54 568.71 C 516.06 568.95 516.39 569.46 516.41 570.03 L 516.56 575.03 C 516.58 575.59 516.28 576.12 515.79 576.39 C 514.62 577.09 513.52 577.91 512.52 578.84 C 511.74 579.54 511.01 580.29 510.33 581.09 C 509.22 582.41 508.30 583.88 507.60 585.46 C 505.44 590.46 506.60 603.97 507.22 608.77 C 507.28 609.23 507.12 609.69 506.79 610.02 C 506.46 610.35 506.00 610.50 505.54 610.45 C 494.20 608.95 475.02 607.64 471.83 610.53 C 469.24 612.88 472.39 628.27 502.61 669.65 L 511.92 664.49 L 488.22 623.49 C 487.95 623.03 487.94 622.45 488.21 621.98 C 488.48 621.52 488.98 621.23 489.52 621.24 Z M 492.90 625.53 L 512.35 659.18 C 510.86 654.94 509.70 651.65 509.08 649.93 C 507.71 646.09 506.93 639.53 506.77 630.41 Z M 558.43 625.53 L 558.43 625.53 Z" fill="#262d33" fill-rule="nonzero" node-id="85" stroke="none" target-height="160.95972" target-width="98.68997" target-x="461.28" target-y="556.7905"></path><path d="M 531.00 597.79 C 529.49 596.32 527.84 594.87 526.07 593.43" fill="#fbf5f0" fill-rule="nonzero" node-id="87" stroke="none" target-height="4.3599854" target-width="4.9299927" target-x="526.07" target-y="593.43"></path><path d="M 531.00 599.29 C 530.63 599.28 530.27 599.13 530.00 598.87 C 528.54 597.45 526.91 596.01 525.16 594.59 C 524.52 594.07 524.42 593.12 524.94 592.48 C 525.46 591.84 526.41 591.74 527.05 592.26 C 528.87 593.74 530.56 595.26 532.05 596.72 C 532.63 597.31 532.63 598.25 532.05 598.84 C 531.77 599.12 531.40 599.28 531.00 599.29 Z" fill="#262d33" fill-rule="nonzero" node-id="89" stroke="none" target-height="7.55188" target-width="8.216797" target-x="524.4181" target-y="591.7381"></path><path d="M 508.26 629.34 C 508.15 621.15 508.36 618.52 508.36 618.52" fill="#fbf5f0" fill-rule="nonzero" node-id="91" stroke="none" target-height="10.820007" target-width="0.20999146" target-x="508.15" target-y="618.52"></path><path d="M 508.26 630.84 C 507.44 630.84 506.77 630.18 506.76 629.36 C 506.65 621.19 506.86 618.51 506.87 618.36 C 506.94 617.53 507.66 616.91 508.49 616.98 C 509.32 617.05 509.94 617.77 509.87 618.60 C 509.87 618.60 509.67 621.30 509.77 629.28 C 509.78 629.68 509.62 630.06 509.34 630.35 C 509.07 630.63 508.69 630.79 508.29 630.80 Z" fill="#262d33" fill-rule="nonzero" node-id="93" stroke="none" target-height="13.926392" target-width="3.2862854" target-x="506.65" target-y="616.9137"></path><path d="M 492.39 529.56 C 493.80 530.83 495.06 532.27 496.12 533.85 L 496.12 533.85 C 496.71 534.63 497.29 535.49 497.92 536.42 L 497.92 536.42" fill="#fbf5f0" fill-rule="nonzero" node-id="95" stroke="none" target-height="6.8599854" target-width="5.529999" target-x="492.39" target-y="529.56"></path><path d="M 497.92 537.93 C 497.37 537.93 496.86 537.63 496.60 537.15 C 496.02 536.29 495.47 535.49 494.92 534.76 L 494.82 534.61 C 493.86 533.19 492.73 531.89 491.46 530.73 C 491.01 530.41 490.78 529.86 490.85 529.32 C 490.92 528.77 491.29 528.31 491.81 528.11 C 492.32 527.92 492.90 528.02 493.32 528.38 C 494.84 529.73 496.18 531.27 497.32 532.96 L 497.40 533.08 C 497.97 533.85 498.54 534.68 499.15 535.58 C 499.32 535.83 499.41 536.13 499.41 536.43 C 499.41 537.25 498.74 537.92 497.92 537.93 Z" fill="#262d33" fill-rule="nonzero" node-id="97" stroke="none" target-height="10.018433" target-width="8.631714" target-x="490.7783" target-y="527.9153"></path><path d="M 549.87 628.90 L 541.87 633.30 L 531.34 613.62 L 540.34 608.74 C 547.98 619.74 549.42 628.74 549.42 628.74 Z" fill="#fe7236" fill-rule="nonzero" node-id="99" stroke="none" target-height="24.559998" target-width="18.529968" target-x="531.34" target-y="608.74"></path><path d="M 541.87 634.80 C 541.73 634.80 541.59 634.78 541.45 634.74 C 541.06 634.62 540.74 634.36 540.55 634.00 L 530.00 614.32 C 529.62 613.60 529.89 612.71 530.61 612.32 L 539.61 607.44 C 540.29 607.08 541.12 607.28 541.56 607.91 C 548.05 617.29 550.17 625.17 550.72 627.68 C 551.11 627.94 551.35 628.37 551.37 628.83 C 551.41 629.41 551.11 629.96 550.60 630.24 L 542.60 634.63 C 542.37 634.75 542.12 634.81 541.87 634.80 Z M 533.37 614.22 L 542.48 631.22 L 547.78 628.31 C 546.20 622.01 543.50 616.04 539.83 610.68 Z" fill="#262d33" fill-rule="nonzero" node-id="101" stroke="none" target-height="27.72522" target-width="21.787537" target-x="529.62286" target-y="607.07996"></path><path d="M 572.07 616.66 L 558.40 624.19 C 557.88 619.02 552.93 609.91 549.40 603.79 L 560.86 597.58 L 562.21 599.89 Z" fill="#fe7236" fill-rule="nonzero" node-id="103" stroke="none" target-height="26.609985" target-width="22.669983" target-x="549.4" target-y="597.58"></path><path d="M 558.40 625.69 C 558.16 625.69 557.92 625.63 557.70 625.52 C 557.26 625.28 556.96 624.84 556.91 624.34 C 556.36 618.95 550.17 608.10 548.13 604.54 C 547.93 604.19 547.88 603.77 547.99 603.38 C 548.10 602.99 548.36 602.66 548.72 602.47 L 560.18 596.26 C 560.89 595.89 561.77 596.14 562.18 596.83 L 573.35 615.90 C 573.55 616.25 573.61 616.67 573.50 617.06 C 573.39 617.45 573.13 617.78 572.78 617.98 L 559.12 625.51 C 558.90 625.63 558.65 625.69 558.40 625.69 Z M 551.49 604.38 C 554.77 610.19 558.29 616.92 559.49 621.87 L 570.00 616.09 L 560.34 599.59 Z" fill="#262d33" fill-rule="nonzero" node-id="105" stroke="none" target-height="29.805603" target-width="25.728638" target-x="547.8805" target-y="595.8875"></path><path d="M 572.07 616.66 L 562.24 599.89 L 566.98 597.16 L 572.07 616.66 Z" fill="#0078ff" fill-rule="nonzero" node-id="107" stroke="none" target-height="19.5" target-width="9.830017" target-x="562.24" target-y="597.16"></path><path d="M 572.07 618.16 C 571.54 618.16 571.04 617.88 570.77 617.42 L 561.00 600.65 C 560.80 600.31 560.74 599.90 560.84 599.51 C 560.95 599.12 561.20 598.79 561.54 598.59 L 566.28 595.86 C 566.69 595.63 567.18 595.60 567.61 595.78 C 568.04 595.96 568.36 596.33 568.48 596.78 L 573.57 616.28 C 573.76 617.01 573.38 617.76 572.69 618.05 C 572.49 618.13 572.28 618.17 572.07 618.16 Z M 564.30 600.44 L 567.88 606.55 L 566.00 599.44 Z" fill="#262d33" fill-rule="nonzero" node-id="109" stroke="none" target-height="22.568909" target-width="13.015442" target-x="560.7418" target-y="595.6006"></path><path d="M 512.29 499.14 L 497.92 536.43 L 497.92 536.44" fill="#fbf5f0" fill-rule="nonzero" node-id="111" stroke="none" target-height="37.299988" target-width="14.369965" target-x="497.92" target-y="499.14"></path><path d="M 497.92 537.94 C 497.09 537.94 496.42 537.27 496.42 536.44 C 496.42 536.25 496.46 536.07 496.52 535.89 L 510.89 498.60 C 511.19 497.83 512.06 497.44 512.83 497.74 C 513.60 498.04 513.99 498.91 513.69 499.68 L 499.34 536.92 C 499.13 537.53 498.56 537.94 497.92 537.94 Z" fill="#262d33" fill-rule="nonzero" node-id="113" stroke="none" target-height="40.49823" target-width="17.568207" target-x="496.42" target-y="497.44177"></path><path d="M 496.12 542.56 C 495.29 542.56 494.62 541.89 494.62 541.06 L 494.62 503.43 C 494.62 502.60 495.29 501.93 496.12 501.93 C 496.95 501.93 497.62 502.60 497.62 503.43 L 497.62 541.06 C 497.62 541.89 496.95 542.56 496.12 542.56 Z" fill="#262d33" fill-rule="nonzero" node-id="115" stroke="none" target-height="40.630005" target-width="3" target-x="494.62" target-y="501.93"></path><path d="M 492.39 529.54 L 486.37 511.09" fill="#fbf5f0" fill-rule="nonzero" node-id="117" stroke="none" target-height="18.449982" target-width="6.0200195" target-x="486.37" target-y="511.09"></path><path d="M 492.39 531.00 C 491.75 531.00 491.18 530.60 490.96 530.00 L 484.96 511.55 C 484.77 511.03 484.88 510.46 485.24 510.04 C 485.60 509.63 486.16 509.45 486.70 509.57 C 487.23 509.69 487.66 510.09 487.81 510.62 L 493.81 529.07 C 493.93 529.45 493.89 529.87 493.71 530.22 C 493.52 530.58 493.20 530.84 492.81 530.96 C 492.67 530.99 492.53 531.01 492.39 531.00 Z" fill="#262d33" fill-rule="nonzero" node-id="119" stroke="none" target-height="21.559174" target-width="9.161224" target-x="484.77017" target-y="509.44778"></path><path d="M 515.58 496.57 L 517.02 499.14 L 509.37 499.14 L 510.66 496.54 C 506.87 495.58 503.59 493.20 501.49 489.90 C 509.58 486.75 515.49 476.70 515.49 464.77 C 515.50 461.05 514.91 457.36 513.72 453.84 C 522.27 454.21 529.12 463.69 529.12 475.32 C 529.12 486.09 523.24 495.00 515.58 496.57 Z" fill="#fe7236" fill-rule="nonzero" node-id="121" stroke="none" target-height="45.30002" target-width="27.630005" target-x="501.49" target-y="453.84"></path><path d="M 517.00 500.64 L 509.35 500.64 C 508.83 500.64 508.34 500.37 508.07 499.93 C 507.79 499.49 507.77 498.94 508.00 498.47 L 508.50 497.47 C 505.12 496.13 502.23 493.78 500.24 490.74 C 499.98 490.36 499.91 489.89 500.04 489.45 C 500.17 489.01 500.50 488.66 500.93 488.49 C 508.60 485.49 513.93 475.74 513.93 464.76 C 513.95 461.21 513.38 457.68 512.24 454.31 C 512.08 453.84 512.16 453.32 512.46 452.93 C 512.75 452.53 513.23 452.30 513.72 452.33 C 523.17 452.74 530.56 462.84 530.56 475.33 C 530.56 485.87 525.28 494.82 517.76 497.51 L 518.27 498.41 C 518.54 498.87 518.54 499.45 518.27 499.91 C 518.00 500.36 517.52 500.64 517.00 500.64 Z M 511.77 497.64 L 514.44 497.64 L 514.25 497.31 C 514.01 496.89 513.99 496.39 514.19 495.95 C 514.39 495.51 514.79 495.20 515.26 495.10 C 522.26 493.67 527.60 485.16 527.60 475.32 C 527.60 465.67 522.49 457.42 515.82 455.67 C 516.59 458.64 516.98 461.70 516.97 464.77 C 516.97 476.12 511.64 486.36 503.80 490.48 C 505.61 492.76 508.12 494.38 510.95 495.08 C 511.40 495.18 511.78 495.48 511.97 495.90 C 512.17 496.32 512.16 496.80 511.95 497.21 Z" fill="#262d33" fill-rule="nonzero" node-id="123" stroke="none" target-height="48.339447" target-width="30.654205" target-x="499.9058" target-y="452.3033"></path><path d="M 496.12 493.74 L 496.12 503.43 C 494.07 506.00 491.20 507.80 487.99 508.53 L 489.43 511.09 L 481.80 511.09 L 483.07 508.50 C 475.48 506.86 469.69 497.98 469.69 487.29 C 469.69 479.67 472.62 472.99 477.04 469.17 C 478.42 480.17 484.87 488.82 493.04 490.57 L 491.50 493.74 Z" fill="#ffa836" fill-rule="nonzero" node-id="125" stroke="none" target-height="41.919983" target-width="26.429993" target-x="469.69" target-y="469.17"></path><path d="M 489.43 512.59 L 481.80 512.59 C 481.28 512.60 480.79 512.33 480.52 511.89 C 480.24 511.45 480.22 510.89 480.45 510.43 L 480.94 509.43 C 473.45 506.73 468.19 497.77 468.19 487.28 C 468.19 479.48 471.13 472.28 476.06 468.02 C 476.48 467.66 477.06 467.56 477.58 467.76 C 478.10 467.95 478.46 468.42 478.53 468.97 C 479.84 479.38 485.79 487.47 493.35 489.10 C 493.79 489.20 494.16 489.50 494.35 489.91 C 494.55 490.32 494.55 490.81 494.35 491.22 L 493.86 492.22 L 496.09 492.22 C 496.92 492.22 497.59 492.89 497.59 493.72 L 497.59 503.41 C 497.60 503.78 497.48 504.13 497.24 504.41 C 495.40 506.69 492.98 508.44 490.24 509.48 L 490.74 510.38 C 491.01 510.84 491.00 511.41 490.73 511.87 C 490.46 512.34 489.96 512.62 489.43 512.61 Z M 484.21 509.59 L 486.87 509.59 L 486.68 509.26 C 486.45 508.84 486.43 508.34 486.63 507.90 C 486.83 507.46 487.23 507.15 487.70 507.06 C 490.40 506.45 492.83 504.98 494.62 502.87 L 494.62 495.24 L 491.49 495.24 C 490.97 495.24 490.49 494.97 490.22 494.53 C 489.94 494.09 489.91 493.54 490.14 493.08 L 490.89 491.54 C 483.71 489.11 478.06 481.77 476.06 472.33 C 472.78 476.63 471.06 481.92 471.19 487.33 C 471.19 497.08 476.44 505.57 483.39 507.07 C 483.84 507.17 484.21 507.48 484.41 507.89 C 484.60 508.31 484.59 508.79 484.39 509.20 Z" fill="#262d33" fill-rule="nonzero" node-id="127" stroke="none" target-height="45.056366" target-width="29.410736" target-x="468.19" target-y="467.55966"></path><path d="M 501.42 489.93 C 501.05 494.86 499.20 499.56 496.12 503.43 L 496.12 493.74 L 500.77 493.74 L 499.00 490.62 C 499.82 490.46 500.63 490.23 501.42 489.93 Z" fill="#fbf5f0" fill-rule="nonzero" node-id="129" stroke="none" target-height="13.5" target-width="5.3000183" target-x="496.12" target-y="489.93"></path><path d="M 496.12 504.93 C 495.29 504.93 494.62 504.26 494.62 503.43 L 494.62 493.74 C 494.62 492.91 495.29 492.24 496.12 492.24 L 498.21 492.24 L 497.71 491.35 C 497.47 490.93 497.45 490.43 497.65 489.99 C 497.85 489.56 498.24 489.24 498.71 489.15 C 499.45 489.00 500.17 488.79 500.87 488.53 C 501.35 488.36 501.88 488.44 502.29 488.75 C 502.69 489.06 502.91 489.55 502.87 490.06 C 502.48 495.30 500.51 500.29 497.23 504.39 C 496.96 504.72 496.55 504.92 496.12 504.93 Z M 497.62 495.24 L 497.62 498.32 C 498.10 497.32 498.51 496.29 498.84 495.24 Z" fill="#262d33" fill-rule="nonzero" node-id="131" stroke="none" target-height="16.571106" target-width="8.289825" target-x="494.62" target-y="488.3589"></path><path d="M 515.49 464.77 C 515.49 476.70 509.58 486.77 501.49 489.90 C 501.49 489.90 501.43 489.90 501.42 489.90 C 500.64 490.19 499.84 490.43 499.02 490.59 L 500.77 493.71 L 491.49 493.71 L 493.03 490.54 C 484.87 488.79 478.42 480.13 477.03 469.14 C 476.85 467.68 476.76 466.21 476.76 464.74 C 476.76 450.31 485.43 438.61 496.11 438.61 C 503.91 438.61 510.65 444.84 513.71 453.81 C 514.90 457.34 515.50 461.04 515.49 464.77 Z" fill="#0078ff" fill-rule="nonzero" node-id="133" stroke="none" target-height="55.100006" target-width="38.746765" target-x="476.75812" target-y="438.61"></path><path d="M 500.77 495.24 L 491.49 495.24 C 490.97 495.24 490.49 494.97 490.22 494.53 C 489.94 494.09 489.91 493.54 490.14 493.08 L 490.89 491.54 C 482.98 488.85 476.89 480.21 475.55 469.35 C 475.36 467.83 475.27 466.30 475.27 464.77 C 475.27 449.54 484.62 437.14 496.12 437.14 C 504.31 437.14 511.78 443.51 515.12 453.35 C 516.37 457.03 517.01 460.89 517.00 464.77 C 517.00 476.96 510.85 487.87 502.05 491.30 L 502.05 491.30 L 502.05 491.30 L 501.36 491.54 L 502.17 492.97 C 502.43 493.44 502.43 494.01 502.16 494.47 C 501.89 494.93 501.39 495.21 500.86 495.21 Z M 493.89 492.24 L 498.21 492.24 L 497.71 491.35 C 497.47 490.93 497.45 490.43 497.65 489.99 C 497.85 489.56 498.24 489.24 498.71 489.15 C 499.44 489.01 500.15 488.80 500.84 488.54 C 500.89 488.51 500.95 488.49 501.01 488.48 C 508.69 485.37 514.01 475.67 514.01 464.77 C 514.03 461.22 513.46 457.69 512.32 454.32 C 509.38 445.71 503.03 440.14 496.14 440.14 C 486.30 440.14 478.29 451.19 478.29 464.77 C 478.29 466.18 478.38 467.58 478.55 468.98 C 479.86 479.39 485.81 487.48 493.37 489.11 C 493.81 489.21 494.18 489.51 494.37 489.92 C 494.57 490.33 494.57 490.82 494.37 491.23 Z M 501.46 489.91 L 501.46 489.91 Z" fill="#262d33" fill-rule="nonzero" node-id="135" stroke="none" target-height="58.10016" target-width="41.73886" target-x="475.27" target-y="437.14"></path></svg>