<?xml version="1.0" standalone="no"?><!DOCTYPE svg PUBLIC "-//W3C//DTD SVG 1.1//EN" "http://www.w3.org/Graphics/SVG/1.1/DTD/svg11.dtd"><svg height="1024" node-id="1" sillyvg="true" template-height="1024" template-width="1024" version="1.1" viewBox="0 0 1024 1024" width="1024" xmlns="http://www.w3.org/2000/svg" xmlns:xlink="http://www.w3.org/1999/xlink"><defs node-id="53"></defs><path d="M 394.55 103.71 L 575.90 103.71 L 575.90 285.06 L 394.55 285.06 Z" fill="#02c3ff" fill-rule="nonzero" node-id="55" stroke="none" target-height="181.35" target-width="181.35004" target-x="394.55" target-y="103.71"></path><path d="M 575.90 287.31 L 394.55 287.31 C 393.31 287.31 392.30 286.30 392.30 285.06 L 392.30 103.71 C 392.30 102.47 393.31 101.46 394.55 101.46 L 575.90 101.46 C 577.14 101.46 578.15 102.47 578.15 103.71 L 578.15 285.06 C 578.15 286.30 577.14 287.31 575.90 287.31 Z M 396.80 282.81 L 573.65 282.81 L 573.65 106.00 L 396.80 106.00 Z" fill="#262d33" fill-rule="nonzero" node-id="57" stroke="none" target-height="185.85" target-width="185.85004" target-x="392.3" target-y="101.46"></path><path d="M 394.55 285.06 L 575.90 285.06 L 575.90 466.41 L 394.55 466.41 Z" fill="#02c3ff" fill-rule="nonzero" node-id="59" stroke="none" target-height="181.35" target-width="181.35004" target-x="394.55" target-y="285.06"></path><path d="M 575.90 468.66 L 394.55 468.66 C 393.31 468.66 392.30 467.65 392.30 466.41 L 392.30 285.06 C 392.30 283.82 393.31 282.81 394.55 282.81 L 575.90 282.81 C 577.14 282.81 578.15 283.82 578.15 285.06 L 578.15 466.41 C 578.15 467.65 577.14 468.66 575.90 468.66 Z M 396.80 464.16 L 573.65 464.16 L 573.65 287.31 L 396.80 287.31 Z" fill="#262d33" fill-rule="nonzero" node-id="61" stroke="none" target-height="185.85" target-width="185.85004" target-x="392.3" target-y="282.81"></path><path d="M 394.55 466.41 L 575.90 466.41 L 575.90 647.76 L 394.55 647.76 Z" fill="#02c3ff" fill-rule="nonzero" node-id="63" stroke="none" target-height="181.35" target-width="181.35004" target-x="394.55" target-y="466.41"></path><path d="M 575.90 650.00 L 394.55 650.00 C 393.31 650.00 392.30 648.99 392.30 647.75 L 392.30 466.41 C 392.30 465.17 393.31 464.16 394.55 464.16 L 575.90 464.16 C 577.14 464.16 578.15 465.17 578.15 466.41 L 578.15 647.76 C 578.14 649.00 577.14 650.00 575.90 650.00 Z M 396.80 645.50 L 573.65 645.50 L 573.65 468.66 L 396.80 468.66 Z" fill="#262d33" fill-rule="nonzero" node-id="65" stroke="none" target-height="185.84" target-width="185.85004" target-x="392.3" target-y="464.16"></path><path d="M 439.89 511.75 L 530.56 511.75 L 530.56 602.42 L 439.89 602.42 Z" fill="#0078ff" fill-rule="nonzero" node-id="67" stroke="none" target-height="90.66998" target-width="90.66998" target-x="439.89" target-y="511.75"></path><path d="M 530.56 604.67 L 439.89 604.67 C 438.65 604.67 437.64 603.66 437.64 602.42 L 437.64 511.75 C 437.64 510.51 438.65 509.50 439.89 509.50 L 530.56 509.50 C 531.80 509.50 532.81 510.51 532.81 511.75 L 532.81 602.42 C 532.81 603.66 531.80 604.67 530.56 604.67 Z M 442.14 600.17 L 528.31 600.17 L 528.31 514.00 L 442.14 514.00 Z" fill="#262d33" fill-rule="nonzero" node-id="69" stroke="none" target-height="95.16998" target-width="95.16998" target-x="437.64" target-y="509.5"></path><path d="M 394.55 647.76 L 575.90 647.76 L 575.90 829.11 L 394.55 829.11 Z" fill="#02c3ff" fill-rule="nonzero" node-id="71" stroke="none" target-height="181.34998" target-width="181.35004" target-x="394.55" target-y="647.76"></path><path d="M 575.90 831.36 L 394.55 831.36 C 393.31 831.36 392.30 830.35 392.30 829.11 L 392.30 647.76 C 392.30 646.52 393.31 645.51 394.55 645.51 L 575.90 645.51 C 577.14 645.51 578.15 646.52 578.15 647.76 L 578.15 829.11 C 578.15 830.35 577.14 831.36 575.90 831.36 Z M 396.80 826.86 L 573.65 826.86 L 573.65 650.00 L 396.80 650.00 Z" fill="#262d33" fill-rule="nonzero" node-id="73" stroke="none" target-height="185.84998" target-width="185.85004" target-x="392.3" target-y="645.51"></path><path d="M 213.20 647.76 L 394.55 647.76 L 394.55 829.11 L 213.20 829.11 Z" fill="#02c3ff" fill-rule="nonzero" node-id="75" stroke="none" target-height="181.34998" target-width="181.34999" target-x="213.2" target-y="647.76"></path><path d="M 394.55 831.36 L 213.20 831.36 C 211.96 831.36 210.95 830.35 210.95 829.11 L 210.95 647.76 C 210.95 646.52 211.96 645.51 213.20 645.51 L 394.55 645.51 C 395.79 645.51 396.80 646.52 396.80 647.76 L 396.80 829.11 C 396.80 830.35 395.79 831.36 394.55 831.36 Z M 215.45 826.86 L 392.30 826.86 L 392.30 650.00 L 215.45 650.00 Z" fill="#262d33" fill-rule="nonzero" node-id="77" stroke="none" target-height="185.84998" target-width="185.84999" target-x="210.95" target-y="645.51"></path><path d="M 213.20 647.76 L 394.55 647.76 L 394.55 647.76 L 394.55 738.43 C 394.55 788.51 353.96 829.10 303.88 829.10 L 303.88 829.10 C 253.80 829.10 213.21 788.51 213.21 738.43 L 213.21 647.76 L 213.20 647.76 Z" fill="#fe7236" fill-rule="nonzero" node-id="79" stroke="none" target-height="181.33997" target-width="181.34999" target-x="213.2" target-y="647.76"></path><path d="M 303.87 831.36 C 252.59 831.29 211.04 789.71 211.00 738.43 L 211.00 647.76 C 211.00 646.52 212.01 645.51 213.25 645.51 L 394.55 645.51 C 395.79 645.51 396.80 646.52 396.80 647.76 L 396.80 738.43 C 396.76 789.74 355.18 831.32 303.87 831.36 Z M 215.45 650.00 L 215.45 738.42 C 215.11 770.24 231.89 799.78 259.39 815.79 C 286.89 831.79 320.86 831.79 348.36 815.79 C 375.86 799.78 392.64 770.24 392.30 738.42 L 392.30 650.00 Z" fill="#262d33" fill-rule="nonzero" node-id="81" stroke="none" target-height="186.28186" target-width="185.79999" target-x="211" target-y="645.51"></path><path d="M 575.90 829.11 L 575.90 768.36 L 636.35 768.36 L 636.35 708.21 L 696.79 708.21 L 696.79 647.76 L 757.25 647.76 L 757.25 829.11 L 636.65 829.11 L 575.90 829.11" fill="#02c3ff" fill-rule="nonzero" node-id="83" stroke="none" target-height="181.34998" target-width="181.34998" target-x="575.9" target-y="647.76"></path><path d="M 757.25 831.36 L 575.90 831.36 C 574.66 831.36 573.65 830.35 573.65 829.11 L 573.65 768.36 C 573.65 767.12 574.66 766.11 575.90 766.11 L 634.10 766.11 L 634.10 708.21 C 634.10 706.97 635.11 705.96 636.35 705.96 L 694.55 705.96 L 694.55 647.76 C 694.55 646.52 695.56 645.51 696.80 645.51 L 757.25 645.51 C 758.49 645.51 759.50 646.52 759.50 647.76 L 759.50 829.11 C 759.50 830.35 758.49 831.36 757.25 831.36 Z M 578.15 826.86 L 755.00 826.86 L 755.00 650.00 L 699.00 650.00 L 699.00 708.20 C 699.00 709.44 697.99 710.45 696.75 710.45 L 638.60 710.45 L 638.60 768.35 C 638.60 769.59 637.59 770.60 636.35 770.60 L 578.15 770.60 Z" fill="#262d33" fill-rule="nonzero" node-id="85" stroke="none" target-height="185.84998" target-width="185.84998" target-x="573.65" target-y="645.51"></path><path d="M 394.55 103.71 L 394.55 285.06 L 213.20 285.06 C 213.20 218.87 280.96 222.13 280.96 222.13 C 280.96 222.13 343.85 227.94 343.85 162.99 C 343.85 112.53 374.47 104.70 388.12 103.71 Z" fill="#ffa836" fill-rule="nonzero" node-id="87" stroke="none" target-height="181.35" target-width="181.34999" target-x="213.2" target-y="103.71"></path><path d="M 394.55 287.31 L 213.20 287.31 C 211.96 287.31 210.95 286.30 210.95 285.06 C 210.95 265.18 216.95 249.40 228.73 238.16 C 249.26 218.59 279.73 219.81 281.07 219.89 C 281.43 219.89 307.89 222.11 325.53 205.99 C 336.20 196.25 341.60 181.78 341.60 162.99 C 341.60 110.49 374.02 102.48 387.96 101.47 L 394.55 101.47 C 395.79 101.47 396.80 102.48 396.80 103.72 L 396.80 285.06 C 396.80 286.30 395.79 287.31 394.55 287.31 Z M 215.48 282.81 L 392.30 282.81 L 392.30 106.00 L 388.20 106.00 C 350.20 108.81 346.10 146.82 346.10 163.00 C 346.10 183.13 340.19 198.72 328.54 209.35 C 309.40 226.81 281.91 224.49 280.75 224.35 C 280.55 224.35 250.93 223.18 231.81 241.42 C 221.39 251.38 215.91 265.29 215.48 282.81 Z" fill="#262d33" fill-rule="nonzero" node-id="89" stroke="none" target-height="185.84" target-width="185.84999" target-x="210.95" target-y="101.47"></path><path d="M 771.09 546.76 L 766.09 549.05 C 766.36 548.80 770.67 544.54 770.46 541.46 C 770.25 538.38 760.46 550.55 760.46 550.55 L 757.79 552.85 L 742.00 566.44 C 741.49 564.44 740.89 562.58 740.26 560.81 C 737.83 553.68 733.79 547.21 728.44 541.91 C 724.09 537.56 718.70 534.39 712.78 532.69 C 711.42 532.22 712.78 529.04 712.78 529.04 C 722.44 529.31 720.37 520.04 719.55 517.27 C 718.20 519.06 715.69 519.50 713.82 518.27 C 707.73 526.14 706.36 521.76 706.36 521.76 C 706.07 522.40 705.59 522.94 704.98 523.29 C 704.98 523.29 705.10 531.51 703.29 531.51 C 701.48 531.51 692.38 530.51 683.19 535.83 C 674.00 541.15 657.44 553.73 669.00 565.31 L 672.52 567.73 L 682.52 563.11 L 675.69 590.26 L 646.34 707.39 L 667.11 707.39 C 667.11 707.39 694.56 610.73 695.48 605.74 C 695.48 605.74 719.31 605.05 733.62 601.19 L 723.18 647.06 L 741.32 647.06 C 741.32 647.06 758.15 603.23 756.11 591.20 C 755.18 585.65 752.11 582.58 745.70 581.12 C 748.91 579.45 751.84 577.29 754.40 574.73 C 760.53 568.94 768.40 552.37 768.40 552.37 C 768.40 552.37 775.00 551.80 776.47 548.05 C 777.41 545.11 777.99 542.07 778.21 538.99 Z M 714.74 580.88 L 717.80 571.07 L 721.07 560.56 C 721.67 561.97 722.93 564.80 724.58 568.00 C 726.81 572.35 729.78 577.34 732.68 580.07 C 727.70 580.09 721.76 580.39 714.74 580.88 Z" fill="#fbf5f0" fill-rule="nonzero" node-id="91" stroke="none" target-height="190.12" target-width="131.87" target-x="646.34" target-y="517.27"></path><path d="M 667.12 708.89 L 646.34 708.89 C 645.88 708.89 645.44 708.68 645.16 708.32 C 644.87 707.95 644.77 707.48 644.88 707.03 L 680.36 565.78 L 673.17 569.09 C 672.69 569.31 672.14 569.26 671.70 568.97 L 668.17 566.55 C 668.09 566.50 668.02 566.44 667.96 566.37 C 664.58 562.99 663.13 559.25 663.66 555.23 C 664.92 545.61 677.23 537.52 682.46 534.49 C 688.60 531.09 695.60 529.54 702.60 530.00 L 702.84 530.00 C 703.38 527.82 703.60 525.57 703.50 523.32 C 703.49 522.80 703.76 522.30 704.20 522.02 C 704.54 521.83 704.82 521.54 705.00 521.19 C 705.24 520.60 705.82 520.23 706.45 520.26 C 707.08 520.29 707.63 520.71 707.82 521.31 L 707.82 521.31 C 707.82 521.31 707.89 521.46 707.97 521.47 C 708.05 521.48 709.35 521.62 712.65 517.35 C 713.14 516.72 714.04 516.58 714.70 517.04 C 715.93 517.85 717.59 517.54 718.44 516.33 C 718.80 515.91 719.35 515.72 719.89 515.84 C 720.41 515.95 720.84 516.33 721.01 516.84 C 721.79 519.48 722.72 524.40 720.21 527.66 C 718.65 529.53 716.31 530.59 713.87 530.53 C 713.79 530.81 713.73 531.10 713.70 531.39 C 719.65 533.21 725.08 536.45 729.51 540.83 C 735.01 546.30 739.18 552.96 741.70 560.30 C 742.12 561.50 742.50 562.65 742.83 563.76 L 759.34 549.51 C 767.95 538.71 769.72 539.26 770.57 539.51 C 771.36 539.78 771.89 540.52 771.91 541.35 C 771.95 542.35 771.75 543.34 771.34 544.25 L 777.07 537.97 C 777.50 537.49 778.19 537.33 778.78 537.59 C 779.37 537.85 779.73 538.46 779.67 539.10 C 779.44 542.32 778.82 545.50 777.83 548.58 C 776.37 552.31 771.44 553.43 769.36 553.75 C 767.73 557.10 761.01 570.54 755.43 575.81 C 753.58 577.61 751.57 579.24 749.43 580.69 C 754.16 582.56 756.71 585.83 757.57 590.95 C 759.65 603.24 743.39 645.79 742.70 647.59 C 742.49 648.18 741.93 648.58 741.30 648.59 L 723.18 648.59 C 722.72 648.59 722.28 648.37 722.00 648.00 C 721.72 647.64 721.61 647.18 721.71 646.73 L 731.61 603.24 C 718.98 606.17 701.37 607.02 696.67 607.24 C 693.67 619.24 669.67 704.07 668.55 707.84 C 668.35 708.46 667.77 708.89 667.12 708.89 Z M 648.26 705.89 L 666.00 705.89 C 669.00 695.21 693.18 610.05 694.00 605.47 C 694.13 604.77 694.72 604.26 695.43 604.24 C 695.67 604.24 719.26 603.51 733.24 599.74 C 733.75 599.61 734.28 599.75 734.66 600.11 C 735.04 600.48 735.20 601.01 735.09 601.53 L 725.09 645.53 L 740.31 645.53 C 742.75 639.06 756.45 601.95 754.66 591.42 C 753.82 586.42 751.14 583.86 745.40 582.56 C 744.77 582.42 744.30 581.90 744.23 581.26 C 744.16 580.63 744.50 580.01 745.08 579.74 C 748.15 578.14 750.96 576.08 753.40 573.62 C 759.26 568.08 766.96 551.86 767.04 551.70 C 767.26 551.22 767.73 550.89 768.26 550.84 C 769.84 550.70 774.15 549.84 775.07 547.47 C 775.52 546.17 775.85 544.83 776.07 543.47 L 772.22 547.69 C 772.09 547.84 771.92 547.96 771.74 548.04 L 766.74 550.34 C 766.10 550.61 765.36 550.41 764.95 549.85 C 764.54 549.30 764.56 548.53 765.00 548.00 C 766.16 546.88 767.16 545.61 768.00 544.23 C 765.73 546.55 763.59 548.99 761.58 551.53 C 761.52 551.60 761.46 551.67 761.39 551.73 L 743.00 567.57 C 742.61 567.91 742.07 568.03 741.58 567.87 C 741.09 567.71 740.71 567.31 740.58 566.81 C 740.13 565.07 739.58 563.27 738.88 561.32 C 736.52 554.41 732.60 548.14 727.42 543.00 C 723.29 538.90 718.21 535.88 712.64 534.21 L 712.36 534.13 C 711.73 533.92 711.22 533.46 710.95 532.85 C 710.30 531.40 711.07 529.30 711.43 528.46 C 711.67 527.91 712.21 527.55 712.81 527.55 L 712.81 527.55 C 715.17 527.65 716.87 527.05 717.81 525.84 C 719.02 524.28 718.93 521.79 718.62 519.91 C 717.25 520.57 715.67 520.65 714.24 520.12 C 711.54 523.38 709.35 524.74 707.41 524.40 C 707.09 524.34 706.78 524.23 706.49 524.08 C 706.49 526.85 706.22 530.91 704.84 532.31 C 704.44 532.74 703.88 532.98 703.29 532.98 L 702.45 532.98 C 696.03 532.54 689.62 533.96 684.00 537.09 C 680.22 539.28 667.79 547.09 666.67 555.62 C 666.27 558.62 667.37 561.46 670.02 564.16 L 672.73 566.01 L 681.99 561.74 C 682.52 561.50 683.13 561.59 683.58 561.95 C 684.02 562.32 684.21 562.91 684.07 563.47 Z M 771.09 546.76 L 771.09 546.76 Z M 714.74 582.38 C 714.26 582.38 713.81 582.16 713.53 581.77 C 713.25 581.39 713.17 580.89 713.31 580.44 L 719.64 560.11 C 719.82 559.51 720.36 559.09 720.99 559.06 C 721.62 559.04 722.20 559.40 722.45 559.97 C 722.91 561.04 724.15 563.90 725.91 567.31 C 727.91 571.13 730.82 576.31 733.71 578.98 C 734.15 579.40 734.30 580.04 734.08 580.61 C 733.86 581.18 733.32 581.56 732.71 581.57 C 728.15 581.57 722.49 581.84 714.88 582.38 Z M 721.33 564.79 L 716.82 579.24 C 721.77 578.91 725.82 578.70 729.37 578.62 C 727.03 575.50 724.98 572.17 723.24 568.68 C 722.51 567.26 721.87 565.94 721.33 564.79 Z" fill="#262d33" fill-rule="nonzero" node-id="93" stroke="none" target-height="193.16754" target-width="134.9632" target-x="644.76917" target-y="515.72363"></path><path d="M 720.93 515.08 C 720.58 515.86 720.12 516.59 719.57 517.25 L 719.57 517.25 C 718.22 519.04 715.71 519.48 713.84 518.25 C 707.75 526.12 706.38 521.74 706.38 521.74 C 706.09 522.38 705.61 522.92 705.00 523.27 C 704.08 523.92 702.93 524.14 701.84 523.88 C 700.75 523.63 699.82 522.91 699.29 521.92 C 697.29 518.41 700.43 516.51 699.44 513.43 C 698.60 510.79 703.29 510.60 704.99 508.66 C 706.69 506.72 709.29 508.56 711.75 507.15 C 714.00 505.87 716.75 508.80 718.29 509.50 C 719.83 510.20 723.81 508.94 720.93 515.08 Z" fill="#0078ff" fill-rule="nonzero" node-id="95" stroke="none" target-height="20.25" target-width="26.52002" target-x="697.29" target-y="505.87"></path><path d="M 702.65 525.46 C 700.69 525.47 698.89 524.39 697.99 522.65 C 696.92 520.79 696.81 518.52 697.70 516.57 C 698.12 515.73 698.22 514.78 698.01 513.87 C 697.09 510.96 699.90 509.72 701.57 508.97 C 702.41 508.68 703.19 508.23 703.86 507.65 C 705.23 506.09 706.97 506.15 708.38 506.20 C 709.27 506.33 710.19 506.20 711.01 505.83 C 713.50 504.41 716.01 506.19 717.75 507.37 C 718.13 507.64 718.52 507.89 718.93 508.12 C 719.19 508.19 719.45 508.24 719.72 508.27 C 720.72 508.41 722.29 508.62 723.06 510.03 C 723.83 511.44 723.53 513.08 722.29 515.72 L 722.29 515.72 C 721.90 516.58 721.40 517.38 720.81 518.11 C 720.78 518.16 720.74 518.21 720.70 518.25 C 719.19 520.21 716.58 520.96 714.26 520.11 C 711.56 523.37 709.37 524.73 707.43 524.39 C 707.08 524.33 706.74 524.21 706.43 524.04 C 706.22 524.22 706.00 524.38 705.77 524.52 C 704.84 525.12 703.76 525.45 702.65 525.46 Z M 707.58 509.19 C 706.81 509.19 706.43 509.28 706.12 509.63 C 705.17 510.55 704.03 511.26 702.79 511.71 C 702.16 512.00 700.98 512.52 700.84 512.83 C 701.28 514.38 701.18 516.04 700.54 517.52 C 700.09 518.88 699.79 519.78 700.59 521.15 C 700.89 521.76 701.44 522.21 702.09 522.39 C 702.82 522.54 703.58 522.39 704.20 521.99 C 704.54 521.79 704.82 521.50 705.00 521.15 C 705.24 520.56 705.82 520.19 706.45 520.22 C 707.08 520.25 707.63 520.67 707.82 521.27 L 707.82 521.27 C 707.82 521.27 707.89 521.42 707.97 521.43 C 708.05 521.44 709.35 521.58 712.65 517.31 C 713.14 516.68 714.04 516.54 714.70 517.00 C 715.89 517.79 717.49 517.53 718.35 516.39 C 718.37 516.35 718.40 516.30 718.44 516.27 C 718.90 515.71 719.28 515.10 719.58 514.44 C 720.68 512.09 720.43 511.44 720.43 511.44 C 720.07 511.33 719.70 511.25 719.32 511.22 C 718.76 511.17 718.21 511.04 717.68 510.83 C 717.11 510.54 716.56 510.21 716.04 509.83 C 714.90 509.04 713.34 507.95 712.49 508.43 C 711.19 509.10 709.72 509.37 708.27 509.20 Z M 720.93 515.08 L 720.93 515.08 Z" fill="#262d33" fill-rule="nonzero" node-id="97" stroke="none" target-height="21.061066" target-width="27.020996" target-x="696.809" target-y="504.41"></path><path d="M 766.06 550.56 C 765.66 550.56 765.28 550.41 765.00 550.13 C 764.72 549.85 764.56 549.47 764.56 549.07 L 764.56 549.07 C 764.57 548.24 765.24 547.58 766.07 547.58 C 766.89 547.58 767.56 548.26 767.56 549.08 C 767.56 549.91 766.89 550.58 766.06 550.58 Z" fill="#262d33" fill-rule="nonzero" node-id="99" stroke="none" target-height="3.003662" target-width="3.00177" target-x="764.56" target-y="547.57635"></path><path d="M 732.68 580.07 C 737.04 579.92 741.40 580.26 745.68 581.07" fill="#02c3ff" fill-rule="nonzero" node-id="101" stroke="none" target-height="1.1454468" target-width="13" target-x="732.68" target-y="579.92456"></path><path d="M 745.70 582.62 C 745.59 582.63 745.48 582.63 745.37 582.62 C 741.19 581.82 736.94 581.49 732.69 581.62 L 732.69 581.62 C 731.86 581.62 731.19 580.95 731.19 580.12 C 731.19 579.29 731.86 578.62 732.69 578.62 C 737.15 578.47 741.62 578.81 746.00 579.66 C 746.83 579.75 747.43 580.50 747.33 581.33 C 747.24 582.15 746.50 582.75 745.67 582.66 Z" fill="#262d33" fill-rule="nonzero" node-id="103" stroke="none" target-height="4.2858887" target-width="16.236145" target-x="731.19" target-y="578.4652"></path><path d="M 714.74 580.88 C 712.38 581.05 709.89 581.23 707.28 581.44" fill="#02c3ff" fill-rule="nonzero" node-id="105" stroke="none" target-height="0.55999756" target-width="7.459961" target-x="707.28" target-y="580.88"></path><path d="M 707.28 582.94 C 706.45 582.97 705.75 582.33 705.72 581.50 C 705.69 580.67 706.33 579.97 707.16 579.94 C 709.78 579.73 712.27 579.54 714.64 579.39 C 715.46 579.35 716.16 579.96 716.24 580.78 C 716.29 581.61 715.67 582.32 714.84 582.38 C 712.49 582.54 710.01 582.72 707.40 582.93 Z" fill="#262d33" fill-rule="nonzero" node-id="107" stroke="none" target-height="3.6188354" target-width="10.604614" target-x="705.6869" target-y="579.3543"></path><path d="M 685.16 552.82 L 682.58 563.11" fill="#02c3ff" fill-rule="nonzero" node-id="109" stroke="none" target-height="10.289978" target-width="2.579956" target-x="682.58" target-y="552.82"></path><path d="M 682.58 564.61 C 682.46 564.61 682.33 564.59 682.21 564.56 C 681.82 564.46 681.49 564.22 681.29 563.88 C 681.08 563.53 681.02 563.13 681.12 562.74 L 683.70 552.45 C 683.91 551.65 684.72 551.16 685.52 551.36 C 685.91 551.45 686.24 551.70 686.45 552.04 C 686.65 552.38 686.71 552.79 686.61 553.18 L 684.00 563.47 C 683.84 564.13 683.26 564.59 682.58 564.61 Z" fill="#262d33" fill-rule="nonzero" node-id="111" stroke="none" target-height="13.445801" target-width="5.6864624" target-x="681.0232" target-y="551.1642"></path><path d="M 722.49 556.00 L 721.07 560.56" fill="#02c3ff" fill-rule="nonzero" node-id="113" stroke="none" target-height="4.5599976" target-width="1.4199829" target-x="721.07" target-y="556"></path><path d="M 721.07 562.06 C 720.92 562.06 720.77 562.03 720.62 561.99 C 720.24 561.87 719.92 561.61 719.73 561.26 C 719.54 560.91 719.50 560.49 719.62 560.11 L 721.04 555.55 C 721.29 554.76 722.13 554.31 722.92 554.56 C 723.71 554.81 724.16 555.65 723.91 556.44 L 722.50 561.00 C 722.31 561.63 721.73 562.06 721.07 562.06 Z" fill="#262d33" fill-rule="nonzero" node-id="115" stroke="none" target-height="7.7473145" target-width="4.6540527" target-x="719.5017" target-y="554.3142"></path><path d="M 724.58 568.00 L 717.80 571.07 L 721.07 560.56 C 721.67 562.00 722.93 564.80 724.58 568.00 Z" fill="#ffa836" fill-rule="nonzero" node-id="117" stroke="none" target-height="10.51001" target-width="6.7800293" target-x="717.8" target-y="560.56"></path><path d="M 717.80 572.57 C 717.43 572.57 717.08 572.44 716.80 572.20 C 716.35 571.81 716.18 571.19 716.36 570.63 L 719.63 560.11 C 719.81 559.51 720.35 559.09 720.98 559.06 C 721.61 559.04 722.19 559.40 722.44 559.97 C 722.90 561.04 724.14 563.90 725.90 567.31 C 726.09 567.67 726.13 568.10 725.99 568.49 C 725.86 568.88 725.57 569.19 725.19 569.36 L 718.41 572.44 C 718.22 572.53 718.01 572.57 717.80 572.57 Z M 721.33 564.79 L 720.23 568.32 L 722.53 567.32 C 722.09 566.39 721.68 565.55 721.33 564.79 Z" fill="#262d33" fill-rule="nonzero" node-id="119" stroke="none" target-height="13.536377" target-width="9.947632" target-x="716.1792" target-y="559.0351"></path><path d="M 682.58 563.11 L 675.75 590.26 L 669.70 593.02 L 660.70 573.20 L 672.54 567.73 L 682.58 563.11 Z" fill="#ffa836" fill-rule="nonzero" node-id="121" stroke="none" target-height="29.910034" target-width="21.880005" target-x="660.7" target-y="563.11"></path><path d="M 669.69 594.52 C 669.51 594.52 669.34 594.49 669.17 594.42 C 668.80 594.28 668.50 594.00 668.33 593.64 L 659.33 573.82 C 659.16 573.46 659.14 573.04 659.28 572.67 C 659.42 572.29 659.70 571.99 660.06 571.82 L 682.00 561.74 C 682.53 561.50 683.14 561.59 683.59 561.95 C 684.03 562.32 684.22 562.91 684.08 563.47 L 677.26 590.62 C 677.15 591.06 676.85 591.43 676.43 591.62 L 670.37 594.38 C 670.16 594.48 669.92 594.53 669.69 594.52 Z M 662.69 573.94 L 670.44 591.00 L 674.44 589.16 L 680.32 565.75 Z" fill="#262d33" fill-rule="nonzero" node-id="123" stroke="none" target-height="33.022095" target-width="25.078308" target-x="659.1416" target-y="561.50433"></path><path d="M 682.59 563.09 L 682.58 563.11" fill="#02c3ff" fill-rule="nonzero" node-id="125" stroke="none" target-height="0.019958496" target-width="0.010009766" target-x="682.58" target-y="563.09"></path><path d="M 682.58 564.61 C 682.18 564.61 681.80 564.45 681.52 564.17 C 681.09 563.74 680.96 563.09 681.19 562.52 C 681.42 561.96 681.97 561.59 682.59 561.59 C 683.20 561.59 683.75 561.96 683.98 562.52 C 684.21 563.09 684.08 563.74 683.65 564.17 L 683.65 564.17 C 683.37 564.45 682.98 564.61 682.58 564.61 Z" fill="#262d33" fill-rule="nonzero" node-id="127" stroke="none" target-height="3.0216675" target-width="3.2581177" target-x="680.95593" target-y="561.58954"></path><path d="M 669.69 593.00 L 663.14 596.00 C 662.02 596.52 660.74 596.56 659.58 596.13 C 658.42 595.70 657.48 594.83 656.97 593.71 L 651.80 582.41 C 650.73 580.08 651.75 577.32 654.08 576.25 L 660.69 573.25 Z" fill="#0078ff" fill-rule="nonzero" node-id="129" stroke="none" target-height="23.313843" target-width="18.95819" target-x="650.7318" target-y="573.25"></path><path d="M 661.20 597.93 C 658.79 597.92 656.61 596.52 655.61 594.33 L 650.44 583.00 C 649.04 579.92 650.38 576.29 653.44 574.85 L 660.06 571.85 C 660.43 571.69 660.84 571.69 661.21 571.85 C 661.58 571.99 661.88 572.27 662.05 572.63 L 671.05 592.45 C 671.22 592.81 671.24 593.23 671.10 593.60 C 670.96 593.98 670.67 594.28 670.31 594.45 L 663.75 597.45 C 662.94 597.79 662.07 597.95 661.20 597.93 Z M 660.00 575.19 L 654.76 577.61 C 653.19 578.35 652.50 580.21 653.22 581.79 L 658.39 593.08 C 659.12 594.66 660.98 595.36 662.57 594.64 L 667.76 592.27 Z" fill="#262d33" fill-rule="nonzero" node-id="131" stroke="none" target-height="26.256958" target-width="22.195374" target-x="649.04095" target-y="571.695"></path><path d="M 675.77 591.76 L 675.77 591.76 C 674.94 591.75 674.28 591.08 674.28 590.25 C 674.28 589.43 674.96 588.76 675.78 588.76 C 676.61 588.76 677.28 589.43 677.28 590.26 C 677.28 590.66 677.12 591.05 676.83 591.33 C 676.54 591.61 676.15 591.77 675.75 591.76 Z" fill="#262d33" fill-rule="nonzero" node-id="133" stroke="none" target-height="3.0098267" target-width="3.0037231" target-x="674.27637" target-y="588.75824"></path><path d="M 786.90 529.39 L 778.17 538.99 L 771.09 546.76 L 766.09 549.05 C 766.36 548.80 770.67 544.54 770.46 541.46 C 770.25 538.38 760.46 550.55 760.46 550.55 L 757.79 552.85 L 740.31 560.85 C 737.88 553.72 733.84 547.25 728.49 541.95 L 761.70 526.62 L 784.77 524.78 C 784.18 526.64 785.10 528.64 786.90 529.39 Z" fill="#ffa836" fill-rule="nonzero" node-id="135" stroke="none" target-height="36.069946" target-width="58.410034" target-x="728.49" target-y="524.78"></path><path d="M 740.28 562.31 C 740.08 562.31 739.89 562.27 739.70 562.20 C 739.31 562.03 739.01 561.71 738.87 561.32 C 736.52 554.41 732.60 548.14 727.42 543.00 C 727.06 542.66 726.89 542.16 726.98 541.67 C 727.06 541.18 727.39 540.76 727.84 540.56 L 761.05 525.23 C 761.21 525.16 761.38 525.11 761.56 525.10 L 784.62 523.25 C 785.11 523.21 785.59 523.41 785.90 523.79 C 786.22 524.17 786.32 524.68 786.19 525.15 C 785.97 525.70 785.99 526.31 786.23 526.85 C 786.47 527.39 786.92 527.81 787.48 528.01 C 787.93 528.20 788.26 528.59 788.37 529.07 C 788.48 529.55 788.34 530.05 788.01 530.41 L 772.20 547.77 C 772.07 547.92 771.90 548.04 771.72 548.12 L 766.72 550.42 C 766.06 550.76 765.24 550.56 764.81 549.95 C 764.38 549.35 764.46 548.51 765.00 548.00 C 766.15 546.88 767.16 545.61 768.00 544.24 C 765.73 546.55 763.59 548.99 761.58 551.53 C 761.52 551.60 761.46 551.67 761.39 551.73 L 758.72 554.03 C 758.61 554.12 758.49 554.19 758.36 554.25 L 740.89 562.25 C 740.69 562.31 740.49 562.33 740.28 562.31 Z M 731.00 542.38 C 735.39 547.15 738.81 552.72 741.09 558.78 L 756.91 551.57 L 759.31 549.51 C 767.92 538.71 769.69 539.26 770.54 539.51 C 771.33 539.78 771.86 540.52 771.88 541.35 C 771.92 542.35 771.72 543.34 771.31 544.25 L 784.58 529.67 C 783.68 528.80 783.13 527.62 783.06 526.36 L 762.06 528.05 Z" fill="#262d33" fill-rule="nonzero" node-id="137" stroke="none" target-height="39.120544" target-width="61.580933" target-x="726.8945" target-y="523.21136"></path><path d="M 791.66 524.17 L 786.90 529.39 C 785.07 528.65 784.13 526.62 784.74 524.74 L 784.74 524.74 Z" fill="#0078ff" fill-rule="nonzero" node-id="139" stroke="none" target-height="5.2200317" target-width="7.5322876" target-x="784.1277" target-y="524.17"></path><path d="M 786.90 530.89 C 786.70 530.89 786.51 530.85 786.33 530.77 C 783.78 529.76 782.47 526.93 783.33 524.33 C 783.51 523.68 784.10 523.24 784.77 523.24 L 791.57 522.67 C 792.18 522.63 792.76 522.96 793.04 523.51 C 793.31 524.06 793.21 524.72 792.80 525.18 L 788.00 530.40 C 787.72 530.71 787.32 530.89 786.90 530.89 Z M 786.06 526.13 C 786.08 526.63 786.28 527.10 786.63 527.46 L 788.00 526.00 Z" fill="#262d33" fill-rule="nonzero" node-id="141" stroke="none" target-height="8.255981" target-width="10.838928" target-x="782.4685" target-y="522.63403"></path><path d="M 766.06 550.56 C 765.66 550.56 765.28 550.41 765.00 550.13 C 764.72 549.85 764.56 549.47 764.56 549.07 L 764.56 549.07 C 764.57 548.24 765.24 547.58 766.07 547.58 C 766.89 547.58 767.56 548.26 767.56 549.08 C 767.56 549.91 766.89 550.58 766.06 550.58 Z" fill="#262d33" fill-rule="nonzero" node-id="143" stroke="none" target-height="3.003662" target-width="3.00177" target-x="764.56" target-y="547.57635"></path><path d="M 660.69 574.70 C 659.86 574.70 659.19 574.03 659.19 573.20 L 659.19 573.20 C 659.20 572.37 659.87 571.71 660.70 571.71 C 661.52 571.71 662.19 572.39 662.19 573.21 C 662.19 574.04 661.52 574.71 660.69 574.71 Z" fill="#262d33" fill-rule="nonzero" node-id="145" stroke="none" target-height="3.003662" target-width="3.00177" target-x="659.19" target-y="571.70636"></path><path d="M 784.76 526.23 C 784.36 526.23 783.98 526.08 783.70 525.80 C 783.42 525.52 783.26 525.14 783.26 524.74 L 783.26 524.74 C 783.27 523.91 783.94 523.25 784.77 523.25 C 785.59 523.25 786.26 523.93 786.26 524.75 C 786.26 525.58 785.59 526.25 784.76 526.25 Z" fill="#262d33" fill-rule="nonzero" node-id="147" stroke="none" target-height="3.003662" target-width="3.00177" target-x="783.26" target-y="523.24634"></path></svg>