<?xml version="1.0" standalone="no"?><!DOCTYPE svg PUBLIC "-//W3C//DTD SVG 1.1//EN" "http://www.w3.org/Graphics/SVG/1.1/DTD/svg11.dtd"><svg height="1024" node-id="1" sillyvg="true" template-height="1024" template-width="1024" version="1.1" viewBox="0 0 1024 1024" width="1024" xmlns="http://www.w3.org/2000/svg" xmlns:xlink="http://www.w3.org/1999/xlink"><defs node-id="74"></defs><g node-id="239"><path d="M 404.10 149.20 L 585.50 149.20 L 585.50 330.60 L 404.10 330.60 Z" fill="#b6e3e9" fill-rule="nonzero" group-id="1" node-id="80" stroke="none" target-height="181.40001" target-width="181.4" target-x="404.1" target-y="149.2"></path><path d="M 587.70 332.80 L 401.80 332.80 L 401.80 146.90 L 587.70 146.90 L 587.70 332.80 Z M 406.30 328.30 L 583.20 328.30 L 583.20 151.40 L 406.30 151.40 L 406.30 328.30 Z" fill="#330f0f" fill-rule="nonzero" group-id="1" node-id="82" stroke="none" target-height="185.9" target-width="185.90002" target-x="401.8" target-y="146.9"></path></g><g node-id="240"><path d="M 404.10 330.60 L 585.50 330.60 L 585.50 512.00 L 404.10 512.00 Z" fill="#b6e3e9" fill-rule="nonzero" group-id="2" node-id="87" stroke="none" target-height="181.4" target-width="181.4" target-x="404.1" target-y="330.6"></path><path d="M 587.70 514.30 L 401.80 514.30 L 401.80 328.30 L 587.70 328.30 L 587.70 514.30 Z M 406.30 509.70 L 583.20 509.70 L 583.20 332.80 L 406.30 332.80 L 406.30 509.70 Z" fill="#330f0f" fill-rule="nonzero" group-id="2" node-id="89" stroke="none" target-height="186" target-width="185.90002" target-x="401.8" target-y="328.3"></path></g><g node-id="241"><path d="M 404.10 512.00 L 585.50 512.00 L 585.50 693.40 L 404.10 693.40 Z" fill="#b6e3e9" fill-rule="nonzero" group-id="3" node-id="94" stroke="none" target-height="181.40002" target-width="181.4" target-x="404.1" target-y="512"></path><path d="M 587.70 695.70 L 401.80 695.70 L 401.80 509.70 L 587.70 509.70 L 587.70 695.70 Z M 406.30 691.20 L 583.20 691.20 L 583.20 514.30 L 406.30 514.30 L 406.30 691.20 Z" fill="#330f0f" fill-rule="nonzero" group-id="3" node-id="96" stroke="none" target-height="186" target-width="185.90002" target-x="401.8" target-y="509.7"></path></g><g node-id="242"><path d="M 449.40 557.40 L 540.10 557.40 L 540.10 648.10 L 449.40 648.10 Z" fill="#fad4ae" fill-rule="nonzero" group-id="4" node-id="101" stroke="none" target-height="90.69995" target-width="90.69998" target-x="449.4" target-y="557.4"></path><path d="M 542.40 650.30 L 447.20 650.30 L 447.20 555.10 L 542.40 555.10 L 542.40 650.30 Z M 451.70 645.80 L 537.90 645.80 L 537.90 559.60 L 451.70 559.60 L 451.70 645.80 Z" fill="#330f0f" fill-rule="nonzero" group-id="4" node-id="103" stroke="none" target-height="95.20001" target-width="95.20001" target-x="447.2" target-y="555.1"></path></g><g node-id="243"><path d="M 404.10 693.40 L 585.50 693.40 L 585.50 874.80 L 404.10 874.80 Z" fill="#b6e3e9" fill-rule="nonzero" group-id="5" node-id="108" stroke="none" target-height="181.39996" target-width="181.4" target-x="404.1" target-y="693.4"></path><path d="M 587.70 877.10 L 401.80 877.10 L 401.80 691.20 L 587.70 691.20 L 587.70 877.10 Z M 406.30 872.60 L 583.20 872.60 L 583.20 695.70 L 406.30 695.70 L 406.30 872.60 Z" fill="#330f0f" fill-rule="nonzero" group-id="5" node-id="110" stroke="none" target-height="185.89996" target-width="185.90002" target-x="401.8" target-y="691.2"></path></g><g node-id="244"><path d="M 222.70 693.40 L 404.10 693.40 L 404.10 874.80 L 222.70 874.80 Z" fill="#d9f1f1" fill-rule="nonzero" group-id="6" node-id="115" stroke="none" target-height="181.39996" target-width="181.40001" target-x="222.7" target-y="693.4"></path><path d="M 406.30 877.10 L 220.40 877.10 L 220.40 691.20 L 406.30 691.20 L 406.30 877.10 Z M 224.90 872.60 L 401.80 872.60 L 401.80 695.70 L 224.90 695.70 L 224.90 872.60 Z" fill="#330f0f" fill-rule="nonzero" group-id="6" node-id="117" stroke="none" target-height="185.89996" target-width="185.9" target-x="220.4" target-y="691.2"></path></g><g node-id="245"><path d="M 320.20 874.80 L 306.40 874.80 C 260.10 874.80 222.60 837.30 222.60 791.00 L 222.60 693.40 L 404.00 693.40 L 404.00 791.00 C 404.10 837.30 366.50 874.80 320.20 874.80 Z" fill="#fdafab" fill-rule="nonzero" group-id="7" node-id="122" stroke="none" target-height="181.39996" target-width="181.5" target-x="222.6" target-y="693.4"></path><path d="M 320.20 877.10 L 306.40 877.10 C 258.90 877.10 220.30 838.50 220.30 791.00 L 220.30 691.20 L 406.20 691.20 L 406.20 791.00 C 406.30 838.50 367.70 877.10 320.20 877.10 Z M 224.90 695.70 L 224.90 791.00 C 224.90 836.00 261.50 872.60 306.50 872.60 L 320.30 872.60 C 365.30 872.60 401.90 836.00 401.90 791.00 L 401.90 695.70 L 224.90 695.70 Z" fill="#330f0f" fill-rule="nonzero" group-id="7" node-id="124" stroke="none" target-height="185.89996" target-width="185.99998" target-x="220.3" target-y="691.2"></path></g><g node-id="246"><path d="M 585.50 874.80 L 585.50 814.10 L 646.00 814.10 L 646.00 753.90 L 706.40 753.90 L 706.40 693.40 L 766.90 693.40 L 766.90 874.80 L 646.30 874.80 L 585.50 874.80" fill="#b6e3e9" fill-rule="nonzero" group-id="8" node-id="129" stroke="none" target-height="181.39996" target-width="181.40002" target-x="585.5" target-y="693.4"></path><path d="M 769.20 877.10 L 583.20 877.10 L 583.20 811.80 L 643.70 811.80 L 643.70 751.60 L 704.20 751.60 L 704.20 691.10 L 769.20 691.10 L 769.20 877.10 Z M 587.70 872.60 L 764.60 872.60 L 764.60 695.70 L 708.60 695.70 L 708.60 756.20 L 648.10 756.20 L 648.10 816.40 L 587.60 816.40 L 587.60 872.60 Z" fill="#330f0f" fill-rule="nonzero" group-id="8" node-id="131" stroke="none" target-height="186" target-width="186" target-x="583.2" target-y="691.1"></path></g><g node-id="247"><path d="M 404.10 149.20 L 404.10 330.60 L 222.70 330.60 C 222.70 264.40 290.50 267.60 290.50 267.60 C 290.50 267.60 353.40 273.40 353.40 208.40 C 353.40 157.90 384.00 150.10 397.70 149.10 L 404.10 149.10 Z" fill="#ee816a" fill-rule="nonzero" group-id="9" node-id="136" stroke="none" target-height="181.5" target-width="181.40001" target-x="222.7" target-y="149.1"></path><path d="M 406.30 332.80 L 220.40 332.80 L 220.40 330.50 C 220.40 310.60 226.40 294.80 238.20 283.60 C 258.70 264.00 289.30 265.30 290.60 265.30 C 291.00 265.30 317.40 267.50 335.10 251.40 C 345.80 241.70 351.20 227.20 351.20 208.40 C 351.20 155.90 383.60 147.90 397.60 146.80 L 397.80 146.80 L 406.50 146.80 L 406.50 332.80 Z M 224.90 328.30 L 401.80 328.30 L 401.80 151.40 L 397.70 151.40 C 359.70 154.20 355.60 192.20 355.60 208.50 C 355.60 228.60 349.70 244.20 338.00 254.90 C 319.10 272.10 292.10 270.10 290.30 269.90 C 289.00 269.90 260.10 269.00 241.30 287.00 C 230.90 296.90 225.40 310.80 224.90 328.30 Z" fill="#330f0f" fill-rule="nonzero" group-id="9" node-id="138" stroke="none" target-height="185.99998" target-width="186.1" target-x="220.4" target-y="146.8"></path></g><g node-id="248"><g node-id="249"><path d="M 730.60 560.70 C 730.20 561.60 729.70 562.30 729.20 562.90 L 729.20 562.90 C 726.50 566.00 723.50 563.90 723.50 563.90 C 717.40 571.80 716.00 567.40 716.00 567.40 C 715.80 568.00 715.30 568.50 714.60 568.90 C 712.90 570.00 710.30 570.10 708.90 567.50 C 706.90 564.00 710.00 562.10 709.10 559.00 C 708.30 556.40 713.00 556.20 714.70 554.20 C 716.40 552.30 719.00 554.10 721.50 552.70 C 723.80 551.40 726.50 554.40 728.00 555.10 C 729.50 555.80 733.50 554.50 730.60 560.70 Z" fill="#fcd352" fill-rule="nonzero" group-id="10,11" node-id="145" stroke="none" target-height="20.399963" target-width="26.599976" target-x="706.9" target-y="551.4"></path><path d="M 712.30 571.10 C 711.90 571.10 711.40 571.10 711.00 570.90 C 709.60 570.60 708.40 569.60 707.60 568.20 C 706.10 565.70 706.80 563.60 707.30 562.10 C 707.70 560.90 707.90 560.30 707.60 559.40 C 706.70 556.50 709.50 555.20 711.20 554.50 C 712.10 554.10 713.10 553.70 713.50 553.20 C 714.90 551.60 716.60 551.70 718.00 551.70 C 719.00 551.70 719.90 551.80 720.60 551.30 C 723.10 549.90 725.70 551.70 727.30 552.80 C 727.70 553.10 728.20 553.40 728.50 553.60 C 728.60 553.70 729.00 553.70 729.30 553.70 C 730.30 553.80 731.90 554.10 732.60 555.50 C 733.30 556.80 733.10 558.50 731.80 561.20 C 731.80 561.20 731.80 561.20 731.80 561.20 C 731.30 562.20 730.90 562.90 730.30 563.60 C 730.30 563.70 730.20 563.70 730.20 563.70 C 728.00 566.20 725.50 566.20 723.80 565.60 C 721.10 568.90 718.90 570.20 717.00 569.90 C 716.60 569.80 716.30 569.70 716.00 569.60 C 715.80 569.80 715.60 569.90 715.30 570.10 C 714.50 570.80 713.40 571.10 712.30 571.10 Z M 710.50 558.40 C 710.50 558.40 710.50 558.40 710.50 558.50 C 711.10 560.30 710.60 561.80 710.20 563.10 C 709.70 564.50 709.40 565.40 710.20 566.70 C 710.60 567.40 711.10 567.80 711.70 567.90 C 712.40 568.10 713.20 567.90 713.80 567.50 C 714.20 567.30 714.50 566.90 714.60 566.70 C 714.80 566.10 715.40 565.70 716.10 565.80 C 716.70 565.80 717.30 566.20 717.50 566.80 C 717.50 566.80 717.50 566.80 717.50 566.80 C 717.50 566.80 717.60 567.00 717.70 567.00 C 717.70 567.00 719.10 567.10 722.40 562.90 C 722.90 562.30 723.80 562.10 724.50 562.60 C 724.80 562.80 726.50 563.80 728.10 562.00 C 728.10 562.00 728.20 561.90 728.20 561.90 C 728.60 561.40 729.00 560.80 729.30 560.10 C 730.40 557.80 730.20 557.10 730.10 557.10 C 730.00 557.00 729.30 556.90 729.00 556.90 C 728.50 556.80 727.90 556.70 727.40 556.50 C 726.90 556.30 726.30 555.90 725.80 555.50 C 724.70 554.70 723.10 553.60 722.30 554.10 C 720.80 555.00 719.30 554.90 718.10 554.90 C 716.90 554.90 716.30 554.90 715.90 555.30 C 715.00 556.30 713.70 556.90 712.60 557.40 C 711.80 557.60 710.60 558.10 710.50 558.40 Z M 730.60 560.70 L 730.60 560.70 L 730.60 560.70 Z" fill="#330f0f" fill-rule="nonzero" group-id="10,11" node-id="147" stroke="none" target-height="21.199951" target-width="27.200012" target-x="706.1" target-y="549.9"></path></g><g node-id="250"><path d="M 780.80 592.40 L 775.80 594.70 C 776.10 594.40 780.40 590.20 780.20 587.10 C 780.00 583.90 770.20 596.20 770.20 596.20 L 767.50 598.50 L 751.80 612.10 C 751.30 610.10 750.70 608.20 750.10 606.50 C 747.00 597.80 742.60 591.80 738.30 587.60 C 730.80 580.40 723.40 578.60 722.60 578.40 C 721.20 577.90 722.60 574.80 722.60 574.80 C 732.30 575.10 730.20 565.80 729.40 563.00 C 726.70 566.10 723.70 564.00 723.70 564.00 C 717.60 571.90 716.20 567.50 716.20 567.50 C 716.00 568.10 715.50 568.60 714.80 569.00 C 714.80 569.00 714.90 577.20 713.10 577.20 C 711.30 577.20 702.20 576.20 693.00 581.50 C 683.80 586.80 667.20 599.40 678.80 611.00 L 682.30 613.40 L 692.30 608.80 L 685.50 636.00 L 656.00 753.10 L 676.80 753.10 C 676.80 753.10 704.30 656.40 705.20 651.40 C 705.20 651.40 729.00 650.70 743.40 646.90 L 733.00 692.80 L 751.00 692.80 C 751.00 692.80 767.80 649.00 765.80 636.90 C 764.90 631.30 761.80 628.30 755.40 626.80 C 758.40 625.40 761.30 623.10 764.10 620.40 C 770.20 614.60 778.10 598.00 778.10 598.00 C 778.10 598.00 784.70 597.40 786.20 593.70 C 787.00 591.70 787.70 587.80 787.90 584.60 L 780.80 592.40 Z M 724.40 626.50 L 727.50 616.70 L 730.80 606.20 C 731.40 607.60 732.70 610.40 734.30 613.60 C 736.50 618.00 739.50 622.90 742.40 625.70 C 737.40 625.70 731.40 626.00 724.40 626.50 Z" fill="#ffffff" fill-rule="nonzero" group-id="10,12" node-id="152" stroke="none" target-height="190.09998" target-width="131.90002" target-x="656" target-y="563"></path><path d="M 676.80 754.60 L 656.00 754.60 C 655.50 754.60 655.10 754.40 654.80 754.00 C 654.50 753.60 654.40 753.20 654.50 752.70 L 690.00 611.40 L 682.80 614.70 C 682.30 614.90 681.80 614.90 681.30 614.60 L 677.80 612.20 C 677.70 612.10 677.70 612.10 677.60 612.00 C 674.20 608.60 672.80 604.90 673.30 600.90 C 674.60 591.30 686.90 583.20 692.10 580.20 C 700.70 575.20 709.40 575.50 712.20 575.70 C 712.30 575.70 712.40 575.70 712.40 575.70 C 712.80 574.70 713.10 571.80 713.10 569.00 C 713.10 568.50 713.40 568.00 713.80 567.70 C 714.20 567.50 714.50 567.20 714.60 566.90 C 714.80 566.30 715.40 565.90 716.10 566.00 C 716.70 566.00 717.30 566.40 717.50 567.00 C 717.50 567.00 717.50 567.00 717.50 567.00 C 717.50 567.00 717.60 567.20 717.70 567.20 C 717.70 567.20 719.10 567.30 722.40 563.10 C 722.90 562.50 723.80 562.30 724.50 562.80 C 724.80 563.00 726.60 564.00 728.20 562.10 C 728.60 561.70 729.10 561.50 729.70 561.60 C 730.20 561.70 730.70 562.10 730.80 562.60 C 731.60 565.20 732.50 570.20 730.00 573.40 C 728.60 575.20 726.50 576.10 723.70 576.30 C 723.60 576.60 723.50 576.90 723.50 577.20 C 729.20 578.90 734.60 582.10 739.30 586.70 C 744.60 591.80 748.70 598.30 751.50 606.20 C 751.90 607.40 752.30 608.50 752.60 609.70 L 769.10 595.40 C 777.70 584.60 779.50 585.10 780.30 585.40 C 781.10 585.60 781.60 586.30 781.60 587.20 C 781.70 588.10 781.40 589.10 781.00 590.10 L 786.70 583.80 C 787.10 583.30 787.80 583.20 788.40 583.40 C 789.00 583.70 789.30 584.30 789.30 584.90 C 789.10 587.80 788.40 592.10 787.50 594.40 C 786.00 598.10 781.10 599.20 779.00 599.60 C 777.40 603.00 770.60 616.40 765.10 621.70 C 763.00 623.70 761.00 625.30 759.10 626.60 C 763.80 628.50 766.40 631.70 767.20 636.90 C 769.30 649.20 753.00 691.80 752.30 693.60 C 752.10 694.20 751.50 694.60 750.90 694.60 L 732.80 694.60 C 732.30 694.60 731.90 694.40 731.60 694.00 C 731.30 693.60 731.20 693.20 731.30 692.70 L 741.20 649.20 C 728.60 652.10 710.90 653.00 706.20 653.20 C 703.20 665.20 679.10 750.10 678.10 753.80 C 678.00 754.10 677.40 754.60 676.80 754.60 Z M 657.90 751.60 L 675.60 751.60 C 678.60 740.90 702.80 655.70 703.60 651.10 C 703.70 650.40 704.30 649.90 705.00 649.90 C 705.20 649.90 728.80 649.20 742.80 645.40 C 743.30 645.30 743.90 645.40 744.20 645.80 C 744.60 646.20 744.70 646.70 744.60 647.20 L 734.60 691.30 L 750.00 691.30 C 752.40 684.80 766.10 647.70 764.40 637.20 C 763.60 632.20 760.90 629.60 755.10 628.30 C 754.50 628.20 754.00 627.60 753.90 627.00 C 753.80 626.40 754.20 625.80 754.70 625.50 C 757.20 624.30 760.00 622.30 763.00 619.40 C 768.90 613.90 776.60 597.60 776.60 597.50 C 776.80 597.00 777.30 596.70 777.80 596.60 C 779.40 596.50 783.70 595.60 784.60 593.20 C 785.00 592.30 785.30 590.90 785.60 589.20 L 781.80 593.40 C 781.70 593.50 781.50 593.70 781.30 593.80 L 776.30 596.10 C 775.60 596.40 774.80 596.20 774.40 595.60 C 774.00 595.00 774.10 594.20 774.60 593.70 C 775.40 593.00 776.70 591.40 777.60 589.90 C 775.80 591.70 773.30 594.60 771.20 597.20 C 771.10 597.30 771.10 597.30 771.00 597.40 L 752.60 613.30 C 752.20 613.60 751.70 613.80 751.20 613.60 C 750.70 613.40 750.30 613.00 750.20 612.50 C 749.80 610.80 749.20 609.00 748.50 607.00 C 745.80 599.60 742.00 593.40 737.00 588.70 C 732.60 584.40 727.50 581.40 722.20 579.90 L 721.90 579.80 C 721.30 579.60 720.80 579.10 720.50 578.50 C 719.90 577.00 720.60 574.90 721.00 574.10 C 721.20 573.50 721.80 573.20 722.40 573.20 C 724.80 573.30 726.50 572.70 727.40 571.50 C 728.60 569.90 728.50 567.40 728.20 565.60 C 726.60 566.40 725.00 566.20 723.80 565.80 C 721.10 569.10 718.90 570.40 717.00 570.10 C 716.60 570.00 716.30 569.90 716.10 569.80 C 716.10 572.60 715.80 576.60 714.50 578.00 C 714.00 578.60 713.40 578.70 712.90 578.70 C 712.70 578.70 712.40 578.70 712.10 578.70 C 709.20 578.60 701.50 578.30 693.60 582.80 C 689.80 585.00 677.40 592.80 676.30 601.30 C 675.90 604.40 677.00 607.10 679.70 609.80 L 682.40 611.70 L 691.70 607.40 C 692.20 607.20 692.80 607.20 693.30 607.60 C 693.70 608.00 693.90 608.60 693.80 609.10 L 657.90 751.60 Z M 780.80 592.40 L 780.80 592.40 L 780.80 592.40 Z M 724.40 628.00 C 723.90 628.00 723.50 627.80 723.20 627.40 C 722.90 627.00 722.80 626.50 722.90 626.00 L 729.20 605.70 C 729.40 605.10 729.90 604.70 730.60 604.60 C 731.30 604.60 731.80 604.90 732.10 605.50 C 732.60 606.60 733.80 609.50 735.60 612.80 C 737.60 616.60 740.50 621.80 743.40 624.50 C 743.80 624.90 744.00 625.60 743.80 626.10 C 743.60 626.60 743.00 627.00 742.40 627.00 C 737.80 627.00 732.20 627.30 724.60 627.80 C 724.50 628.00 724.40 628.00 724.40 628.00 Z M 731.00 610.40 L 726.50 624.90 C 731.40 624.60 735.50 624.40 739.00 624.30 C 736.60 621.30 734.50 617.40 732.90 614.40 C 732.20 612.90 731.50 611.60 731.00 610.40 Z" fill="#330f0f" fill-rule="nonzero" group-id="10,12" node-id="154" stroke="none" target-height="193.09998" target-width="134.89996" target-x="654.4" target-y="561.5"></path></g><g node-id="251"><path d="M 775.70 596.20 C 774.90 596.20 774.20 595.50 774.20 594.70 L 774.20 594.70 C 774.20 593.90 774.90 593.20 775.70 593.20 C 776.50 593.20 777.20 593.90 777.20 594.70 C 777.20 595.50 776.60 596.20 775.70 596.20 Z" fill="#330f0f" fill-rule="nonzero" group-id="10,13" node-id="159" stroke="none" target-height="3" target-width="3" target-x="774.2" target-y="593.2"></path></g><g node-id="252"><path d="M 755.40 628.30 C 755.30 628.30 755.20 628.30 755.10 628.30 C 752.00 627.60 747.80 627.30 742.40 627.30 C 742.40 627.30 742.40 627.30 742.40 627.30 C 741.60 627.30 740.90 626.60 740.90 625.80 C 740.90 625.00 741.60 624.30 742.40 624.30 C 748.10 624.30 752.40 624.60 755.80 625.40 C 756.60 625.60 757.10 626.40 756.90 627.20 C 756.70 627.80 756.10 628.30 755.40 628.30 Z" fill="#330f0f" fill-rule="nonzero" group-id="10,14" node-id="164" stroke="none" target-height="4" target-width="16.199951" target-x="740.9" target-y="624.3"></path></g><g node-id="253"><path d="M 716.90 628.60 C 716.10 628.60 715.50 628.00 715.40 627.20 C 715.30 626.40 715.90 625.70 716.80 625.60 C 719.40 625.40 721.90 625.20 724.30 625.00 C 725.10 624.90 725.80 625.60 725.90 626.40 C 726.00 627.20 725.30 627.90 724.50 628.00 C 722.10 628.20 719.70 628.30 717.10 628.60 C 717.00 628.60 717.00 628.60 716.90 628.60 Z" fill="#330f0f" fill-rule="nonzero" group-id="10,15" node-id="169" stroke="none" target-height="3.6999512" target-width="10.700012" target-x="715.3" target-y="624.9"></path></g><g node-id="254"><path d="M 692.20 610.20 C 692.10 610.20 692.00 610.20 691.80 610.20 C 691.00 610.00 690.50 609.20 690.70 608.40 L 693.30 598.10 C 693.50 597.30 694.30 596.80 695.10 597.00 C 695.90 597.20 696.40 598.00 696.20 598.80 L 693.60 609.10 C 693.50 609.80 692.90 610.20 692.20 610.20 Z" fill="#330f0f" fill-rule="nonzero" group-id="10,16" node-id="174" stroke="none" target-height="13.400024" target-width="5.9000244" target-x="690.5" target-y="596.8"></path></g><g node-id="255"><path d="M 730.70 607.70 C 730.60 607.70 730.40 607.70 730.30 607.60 C 729.50 607.40 729.10 606.50 729.30 605.70 L 730.70 601.10 C 730.90 600.30 731.80 599.90 732.60 600.10 C 733.40 600.30 733.80 601.20 733.60 602.00 L 732.20 606.60 C 732.00 607.30 731.40 607.70 730.70 607.70 Z" fill="#330f0f" fill-rule="nonzero" group-id="10,17" node-id="179" stroke="none" target-height="7.799988" target-width="4.700012" target-x="729.1" target-y="599.9"></path></g><g node-id="256"><path d="M 727.50 618.20 C 727.10 618.20 726.80 618.10 726.50 617.80 C 726.10 617.40 725.90 616.80 726.10 616.20 L 729.40 605.70 C 729.60 605.10 730.10 604.70 730.80 604.60 C 731.50 604.60 732.00 604.90 732.30 605.50 C 732.80 606.60 734.00 609.50 735.80 612.80 C 736.00 613.20 736.00 613.60 735.90 614.00 C 735.80 614.40 735.50 614.70 735.10 614.90 L 728.30 618.00 C 727.90 618.20 727.70 618.20 727.50 618.20 Z M 731.00 610.40 L 729.90 613.90 L 732.20 612.90 C 731.70 612.00 731.30 611.20 731.00 610.40 Z" fill="#330f0f" fill-rule="nonzero" group-id="10,18" node-id="184" stroke="none" target-height="13.600037" target-width="10.099976" target-x="725.9" target-y="604.6"></path></g><g node-id="257"><path d="M 692.20 608.70 L 685.40 635.90 L 679.30 638.70 L 670.30 618.80 L 682.20 613.40 Z" fill="#e1f7e7" fill-rule="nonzero" group-id="10,19" node-id="189" stroke="none" target-height="30" target-width="21.900024" target-x="670.3" target-y="608.7"></path><path d="M 679.30 640.20 C 679.10 640.20 678.90 640.20 678.80 640.10 C 678.40 640.00 678.10 639.70 678.00 639.30 L 669.00 619.50 C 668.70 618.70 669.00 617.90 669.70 617.50 L 691.60 607.40 C 692.10 607.20 692.70 607.20 693.20 607.60 C 693.60 608.00 693.80 608.60 693.70 609.10 L 686.90 636.30 C 686.80 636.70 686.50 637.10 686.10 637.30 L 680.00 640.00 C 679.80 640.10 679.50 640.20 679.30 640.20 Z M 672.30 619.60 L 680.10 636.70 L 684.10 634.90 L 690.00 611.50 L 672.30 619.60 Z" fill="#330f0f" fill-rule="nonzero" group-id="10,19" node-id="191" stroke="none" target-height="33" target-width="25.099976" target-x="668.7" target-y="607.2"></path></g><g node-id="258"><path d="M 692.20 610.20 C 691.80 610.20 691.40 610.00 691.10 609.70 C 690.50 609.10 690.50 608.20 691.10 607.60 C 691.70 607.00 692.70 607.00 693.20 607.60 C 693.80 608.20 693.80 609.10 693.20 609.70 L 693.20 609.70 C 693.00 610.10 692.60 610.20 692.20 610.20 Z" fill="#330f0f" fill-rule="nonzero" group-id="10,20" node-id="196" stroke="none" target-height="3.2000122" target-width="3.2999878" target-x="690.5" target-y="607"></path></g><g node-id="259"><path d="M 679.30 638.70 L 672.70 641.70 C 670.40 642.80 667.60 641.70 666.50 639.40 L 661.30 628.10 C 660.20 625.80 661.30 623.00 663.60 621.90 L 670.20 618.90 L 679.30 638.70 Z" fill="#768cce" fill-rule="nonzero" group-id="10,21" node-id="201" stroke="none" target-height="23.899963" target-width="19.099976" target-x="660.2" target-y="618.9"></path><path d="M 670.80 643.60 C 668.50 643.60 666.20 642.30 665.20 640.00 L 660.00 628.70 C 658.60 625.60 660.00 622.00 663.00 620.50 L 669.60 617.50 C 670.00 617.30 670.40 617.30 670.80 617.50 C 671.20 617.60 671.50 617.90 671.60 618.30 L 680.60 638.10 C 680.90 638.90 680.60 639.70 679.90 640.10 L 673.30 643.10 C 672.60 643.40 671.70 643.60 670.80 643.60 Z M 669.60 620.80 L 664.40 623.20 C 662.80 623.90 662.10 625.80 662.90 627.40 L 668.10 638.70 C 668.80 640.30 670.70 641.00 672.30 640.30 L 677.50 637.90 L 669.60 620.80 Z" fill="#330f0f" fill-rule="nonzero" group-id="10,21" node-id="203" stroke="none" target-height="26.299988" target-width="22.300049" target-x="658.6" target-y="617.3"></path></g><g node-id="260"><path d="M 685.40 637.40 L 685.40 637.40 C 684.60 637.40 683.90 636.70 683.90 635.90 C 683.90 635.10 684.60 634.40 685.40 634.40 C 686.20 634.40 686.90 635.10 686.90 635.90 C 686.90 636.70 686.20 637.40 685.40 637.40 Z" fill="#330f0f" fill-rule="nonzero" group-id="10,22" node-id="208" stroke="none" target-height="3" target-width="3" target-x="683.9" target-y="634.4"></path></g><g node-id="261"><path d="M 796.60 575.00 L 787.90 584.60 L 780.80 592.40 L 775.80 594.70 C 776.10 594.40 780.40 590.20 780.20 587.10 C 780.00 583.90 770.20 596.20 770.20 596.20 L 767.50 598.50 L 750.00 606.50 C 746.90 597.80 742.50 591.80 738.20 587.60 L 771.40 572.30 L 794.50 570.50 C 794.40 570.60 793.50 573.70 796.60 575.00 Z" fill="#e1f7e7" fill-rule="nonzero" group-id="10,23" node-id="213" stroke="none" target-height="36" target-width="58.399963" target-x="738.2" target-y="570.5"></path><path d="M 750.00 607.90 C 749.80 607.90 749.60 607.90 749.40 607.80 C 749.00 607.60 748.70 607.30 748.60 606.90 C 745.90 599.50 742.10 593.30 737.10 588.60 C 736.70 588.30 736.60 587.80 736.70 587.30 C 736.80 586.80 737.10 586.40 737.60 586.20 L 770.80 570.90 C 771.00 570.80 771.10 570.80 771.30 570.80 L 794.40 569.00 C 794.90 569.00 795.40 569.20 795.70 569.50 C 796.00 569.90 796.10 570.40 796.00 570.90 C 795.80 571.70 795.70 573.10 797.30 573.80 C 797.80 574.00 798.10 574.40 798.20 574.90 C 798.30 575.40 798.20 575.90 797.80 576.20 L 782.00 593.60 C 781.90 593.70 781.70 593.90 781.50 594.00 L 776.50 596.30 C 775.80 596.60 775.00 596.40 774.60 595.80 C 774.20 595.20 774.30 594.40 774.80 593.90 C 775.60 593.20 776.90 591.60 777.80 590.10 C 776.00 591.90 773.50 594.80 771.40 597.40 C 771.30 597.50 771.30 597.50 771.20 597.60 L 768.50 599.90 C 768.40 600.00 768.30 600.10 768.10 600.10 L 750.60 608.10 C 750.40 607.90 750.20 607.90 750.00 607.90 Z M 740.70 588.00 C 744.90 592.50 748.30 598.00 750.80 604.40 L 766.60 597.20 L 769.00 595.10 C 777.60 584.30 779.40 584.80 780.20 585.10 C 781.00 585.30 781.50 586.00 781.50 586.90 C 781.60 587.80 781.30 588.80 780.90 589.80 L 794.20 575.20 C 793.20 574.30 792.80 573.10 792.70 571.90 L 771.70 573.60 L 740.70 588.00 Z" fill="#330f0f" fill-rule="nonzero" group-id="10,23" node-id="215" stroke="none" target-height="39.099976" target-width="61.700012" target-x="736.6" target-y="569"></path></g><g node-id="262"><path d="M 801.30 569.80 L 796.50 575.00 C 793.40 573.70 794.30 570.60 794.30 570.30 L 794.30 570.30 L 801.30 569.80 Z" fill="#768cce" fill-rule="nonzero" group-id="10,24" node-id="220" stroke="none" target-height="5.200012" target-width="7.8999634" target-x="793.4" target-y="569.8"></path><path d="M 796.60 576.50 C 796.40 576.50 796.20 576.50 796.00 576.40 C 792.80 575.10 792.40 572.10 793.00 570.00 C 793.20 569.40 793.70 568.90 794.40 568.90 L 801.30 568.30 C 801.90 568.30 802.50 568.60 802.80 569.10 C 803.10 569.70 803.00 570.30 802.60 570.80 L 797.80 576.00 C 797.40 576.30 797.00 576.50 796.60 576.50 Z M 795.80 571.70 C 795.80 572.10 796.00 572.60 796.40 573.00 L 797.80 571.50 L 795.80 571.70 Z" fill="#330f0f" fill-rule="nonzero" group-id="10,24" node-id="222" stroke="none" target-height="8.200012" target-width="10.699951" target-x="792.4" target-y="568.3"></path></g><g node-id="263"><path d="M 775.70 596.20 C 774.90 596.20 774.20 595.50 774.20 594.70 L 774.20 594.70 C 774.20 593.90 774.90 593.20 775.70 593.20 C 776.50 593.20 777.20 593.90 777.20 594.70 C 777.20 595.50 776.60 596.20 775.70 596.20 Z" fill="#330f0f" fill-rule="nonzero" group-id="10,25" node-id="227" stroke="none" target-height="3" target-width="3" target-x="774.2" target-y="593.2"></path></g><g node-id="264"><path d="M 670.30 620.30 C 669.50 620.30 668.80 619.60 668.80 618.80 L 668.80 618.80 C 668.80 618.00 669.50 617.30 670.30 617.30 C 671.10 617.30 671.80 618.00 671.80 618.80 C 671.80 619.60 671.20 620.30 670.30 620.30 Z" fill="#330f0f" fill-rule="nonzero" group-id="10,26" node-id="232" stroke="none" target-height="3" target-width="3" target-x="668.8" target-y="617.3"></path></g><path d="M 794.40 571.80 C 793.60 571.80 792.90 571.10 792.90 570.30 L 792.90 570.30 C 792.90 569.50 793.60 568.80 794.40 568.80 C 795.20 568.80 795.90 569.50 795.90 570.30 C 795.90 571.10 795.30 571.80 794.40 571.80 Z" fill="#330f0f" fill-rule="nonzero" group-id="10,27" node-id="237" stroke="none" target-height="3" target-width="3" target-x="792.9" target-y="568.8"></path></g></svg>