<?xml version="1.0" standalone="no"?><!DOCTYPE svg PUBLIC "-//W3C//DTD SVG 1.1//EN" "http://www.w3.org/Graphics/SVG/1.1/DTD/svg11.dtd"><svg height="1024" node-id="1" sillyvg="true" template-height="1024" template-width="1024" version="1.1" viewBox="0 0 1024 1024" width="1024" xmlns="http://www.w3.org/2000/svg" xmlns:xlink="http://www.w3.org/1999/xlink"><defs node-id="50"></defs><path d="M 784.82 701.78 L 784.82 874.70 L 429.42 874.70 L 438.98 861.53 L 555.04 701.78 L 784.82 701.78 Z" fill="#02c3ff" fill-rule="nonzero" node-id="52" stroke="none" target-height="172.91998" target-width="355.4" target-x="429.42" target-y="701.78"></path><path d="M 784.82 877.00 L 429.42 877.00 C 428.57 877.00 427.80 876.52 427.42 875.77 C 427.03 875.02 427.10 874.11 427.60 873.43 L 553.22 700.46 C 553.64 699.88 554.32 699.53 555.04 699.53 L 784.82 699.53 C 786.06 699.53 787.07 700.54 787.07 701.78 L 787.07 874.70 C 787.08 875.31 786.85 875.89 786.43 876.32 C 786.01 876.76 785.43 877.00 784.82 877.00 Z M 433.82 872.50 L 782.57 872.50 L 782.57 704.00 L 556.19 704.00 Z" fill="#262d33" fill-rule="nonzero" node-id="54" stroke="none" target-height="177.46997" target-width="360.05002" target-x="427.03" target-y="699.53"></path><path d="M 698.36 701.78 L 698.36 701.78 C 746.11 701.78 784.82 740.49 784.82 788.24 L 784.82 788.24 C 784.82 835.99 746.11 874.70 698.36 874.70 L 698.36 874.70 C 650.61 874.70 611.90 835.99 611.90 788.24 L 611.90 788.24 C 611.90 740.49 650.61 701.78 698.36 701.78 Z" fill="#ffa836" fill-rule="nonzero" node-id="56" stroke="none" target-height="172.91998" target-width="172.91998" target-x="611.9" target-y="701.78"></path><path d="M 698.36 877.00 C 649.37 877.00 609.65 837.28 609.65 788.29 C 609.65 739.30 649.37 699.58 698.36 699.58 C 747.35 699.58 787.07 739.30 787.07 788.29 C 787.01 837.26 747.33 876.94 698.36 877.00 Z M 698.36 704.08 C 651.85 704.08 614.15 741.78 614.15 788.29 C 614.15 834.80 651.85 872.50 698.36 872.50 L 698.36 872.50 C 744.87 872.50 782.57 834.80 782.57 788.29 C 782.57 741.78 744.87 704.08 698.36 704.08 Z" fill="#262d33" fill-rule="nonzero" node-id="58" stroke="none" target-height="177.41998" target-width="177.41998" target-x="609.65" target-y="699.58"></path><path d="M 705.00 495.42 C 701.14 501.30 697.01 506.98 692.61 512.47 Z" fill="#02c3ff" fill-rule="nonzero" node-id="60" stroke="none" target-height="17.049957" target-width="12.390015" target-x="692.61" target-y="495.42"></path><path d="M 692.59 514.72 C 691.74 514.71 690.97 514.24 690.59 513.48 C 690.21 512.73 690.28 511.83 690.77 511.14 L 703.16 494.09 C 703.88 493.09 705.26 492.85 706.27 493.55 C 707.28 494.25 707.54 495.63 706.86 496.65 C 702.97 502.57 698.76 508.36 694.35 513.87 C 693.93 514.41 693.28 514.72 692.59 514.72 Z" fill="#262d33" fill-rule="nonzero" node-id="62" stroke="none" target-height="21.869965" target-width="17.329956" target-x="690.21" target-y="492.85"></path><path d="M 741.59 372.80 C 741.66 416.23 729.01 458.74 705.21 495.07 C 705.14 495.18 705.07 495.29 704.99 495.40 L 704.99 495.40 L 692.60 512.45 L 692.60 512.45 C 681.58 526.19 668.98 538.59 655.07 549.40 C 596.64 594.64 519.65 608.14 449.31 585.48 L 579.90 403.86 C 593.42 376.99 588.03 344.47 566.57 323.40 C 545.10 302.33 512.48 297.55 485.87 311.57 C 459.26 325.59 444.76 355.19 450.00 384.81 L 298.00 411.62 C 295.75 398.80 294.62 385.81 294.63 372.80 C 294.63 249.36 394.69 149.30 518.13 149.30 C 628.29 149.30 719.85 229.00 738.23 334.00 C 740.47 346.81 741.60 359.79 741.59 372.80 Z" fill="#02c3ff" fill-rule="nonzero" node-id="64" stroke="none" target-height="458.84003" target-width="447.03998" target-x="294.62" target-y="149.3"></path><path d="M 518.09 598.55 C 494.50 598.57 471.04 594.89 448.59 587.65 C 447.91 587.42 447.37 586.89 447.15 586.21 C 446.93 585.52 447.04 584.77 447.46 584.19 L 578.00 402.70 C 588.36 381.95 587.23 357.33 575.04 337.60 C 562.84 317.88 541.31 305.88 518.12 305.88 C 498.34 305.89 479.58 314.64 466.87 329.79 C 454.16 344.94 448.79 364.93 452.21 384.41 C 452.32 385.00 452.19 385.60 451.84 386.09 C 451.50 386.58 450.98 386.92 450.39 387.02 L 298.39 413.84 C 297.80 413.94 297.20 413.80 296.71 413.46 C 296.22 413.12 295.88 412.60 295.78 412.01 C 293.51 399.06 292.37 385.94 292.38 372.80 C 292.38 248.32 393.65 147.05 518.13 147.05 C 601.01 147.06 677.22 192.48 716.67 265.37 C 756.12 338.26 752.45 426.91 707.13 496.30 C 707.08 496.39 707.00 496.51 706.91 496.64 C 706.89 496.68 706.87 496.71 706.84 496.74 L 694.45 513.74 L 694.34 513.89 C 683.22 527.75 670.51 540.25 656.47 551.15 C 616.97 582.02 568.23 598.72 518.09 598.55 Z M 452.93 584.30 C 539.74 611.00 634.05 581.97 690.82 511.08 L 703.11 494.17 L 703.19 494.05 L 703.29 493.90 C 726.87 457.92 739.40 415.82 739.34 372.80 C 739.35 314.12 716.04 257.84 674.55 216.34 C 633.05 174.85 576.77 151.54 518.09 151.55 C 396.09 151.55 296.84 250.80 296.84 372.80 C 296.86 384.93 297.86 397.04 299.84 409.01 L 447.40 383.00 C 443.59 356.54 454.87 330.16 476.65 314.65 C 498.42 299.14 527.04 297.08 550.80 309.33 C 574.57 321.57 589.50 346.06 589.51 372.80 C 589.54 383.94 586.94 394.93 581.91 404.88 C 581.86 404.98 581.80 405.08 581.73 405.18 Z" fill="#262d33" fill-rule="nonzero" node-id="66" stroke="none" target-height="463.95" target-width="463.75" target-x="292.37" target-y="147.05"></path><path d="M 705.22 495.08 L 704.99 495.40 C 705.07 495.29 705.14 495.18 705.21 495.07 Z" fill="#02c3ff" fill-rule="nonzero" node-id="68" stroke="none" target-height="0.32998657" target-width="0.22998047" target-x="704.99" target-y="495.07"></path><path d="M 705.00 497.65 C 704.52 497.65 704.05 497.50 703.67 497.21 C 703.19 496.86 702.87 496.33 702.78 495.75 C 702.68 495.16 702.83 494.56 703.18 494.08 L 703.30 493.90 C 703.78 493.13 704.67 492.72 705.57 492.86 C 706.46 493.00 707.19 493.66 707.41 494.54 C 707.57 495.18 707.44 495.86 707.06 496.40 L 706.86 496.68 C 706.84 496.70 706.82 496.72 706.81 496.75 C 706.38 497.32 705.71 497.65 705.00 497.65 Z" fill="#262d33" fill-rule="nonzero" node-id="70" stroke="none" target-height="4.9299927" target-width="4.8900146" target-x="702.68" target-y="492.72"></path><path d="M 555.04 701.78 L 438.98 861.53 L 429.42 874.70 L 239.18 874.70 L 364.81 701.78 L 555.04 701.78 Z" fill="#02c3ff" fill-rule="nonzero" node-id="72" stroke="none" target-height="172.91998" target-width="315.86" target-x="239.18" target-y="701.78"></path><path d="M 429.42 877.00 L 239.18 877.00 C 238.33 877.00 237.56 876.52 237.18 875.77 C 236.79 875.02 236.86 874.11 237.36 873.43 L 363.00 700.46 C 363.42 699.87 364.11 699.53 364.83 699.53 L 555.00 699.53 C 555.85 699.53 556.62 700.00 557.01 700.75 C 557.40 701.51 557.33 702.41 556.83 703.10 L 431.24 876.00 C 430.83 876.61 430.15 876.98 429.42 877.00 Z M 243.60 872.50 L 428.27 872.50 L 550.63 704.00 L 366.00 704.00 Z" fill="#262d33" fill-rule="nonzero" node-id="74" stroke="none" target-height="177.46997" target-width="320.61005" target-x="236.79" target-y="699.53"></path><path d="M 454.44 756.85 L 412.31 814.85 L 408.84 819.63 L 339.78 819.63 L 385.39 756.85 L 454.44 756.85 Z" fill="#fe7236" fill-rule="nonzero" node-id="76" stroke="none" target-height="62.78003" target-width="114.66" target-x="339.78" target-y="756.85"></path><path d="M 408.84 821.88 L 339.78 821.88 C 338.94 821.87 338.17 821.39 337.80 820.63 C 337.43 819.88 337.50 818.98 338.00 818.30 L 383.61 755.53 C 384.03 754.95 384.71 754.60 385.43 754.60 L 454.48 754.60 C 455.32 754.60 456.10 755.08 456.48 755.83 C 456.86 756.59 456.79 757.49 456.30 758.18 L 410.66 821.00 C 410.23 821.56 409.55 821.89 408.84 821.88 Z M 344.20 817.38 L 407.69 817.38 L 450.00 759.10 L 386.50 759.10 Z" fill="#262d33" fill-rule="nonzero" node-id="78" stroke="none" target-height="67.29004" target-width="119.42999" target-x="337.43" target-y="754.6"></path><path d="M 692.58 512.48 L 555.00 701.78 L 364.82 701.78 L 449.29 585.51 C 537.68 614.07 634.51 585.01 692.58 512.51 Z" fill="#0078ff" fill-rule="nonzero" node-id="80" stroke="none" target-height="189.30005" target-width="327.76" target-x="364.82" target-y="512.48"></path><path d="M 555.00 704.00 L 364.82 704.00 C 363.97 704.00 363.20 703.53 362.81 702.78 C 362.42 702.02 362.49 701.12 362.99 700.43 L 447.46 584.16 C 448.03 583.37 449.05 583.04 449.98 583.34 C 471.99 590.43 494.97 594.04 518.09 594.02 C 567.21 594.19 614.95 577.84 653.67 547.62 C 667.45 536.92 679.92 524.65 690.83 511.04 C 691.58 510.05 693.00 509.86 693.98 510.62 C 694.97 511.37 695.16 512.78 694.41 513.77 L 556.87 703.10 C 556.43 703.68 555.73 704.02 555.00 704.00 Z M 369.19 699.50 L 553.90 699.50 L 669.90 539.88 C 665.57 543.82 661.09 547.58 656.46 551.17 C 616.96 582.02 568.24 598.69 518.12 598.52 C 495.08 598.54 472.16 595.03 450.18 588.12 Z" fill="#262d33" fill-rule="nonzero" node-id="82" stroke="none" target-height="194.16003" target-width="332.73996" target-x="362.42" target-y="509.86"></path><path d="M 772.87 677.88 L 753.18 637.00 C 759.81 637.91 759.97 639.38 759.97 639.38 C 764.37 649.18 766.84 650.72 768.03 650.60 C 769.14 653.35 770.40 655.48 771.51 654.70 C 774.16 652.81 767.80 637.94 767.80 637.94 C 765.42 628.75 755.98 627.94 755.98 627.94 C 725.98 624.71 688.51 624.71 688.51 624.71 C 688.51 624.71 688.96 619.71 690.40 618.14 C 691.07 617.28 692.06 616.72 693.15 616.58 C 695.15 609.40 688.87 603.77 688.51 603.44 C 688.51 604.25 688.00 605.59 686.34 607.69 C 682.96 611.96 681.87 611.98 681.85 611.98 C 681.83 611.98 681.25 610.73 680.44 611.36 C 679.63 611.99 679.35 616.28 683.02 616.64 C 684.10 616.73 686.70 634.57 681.40 636.17 C 679.17 636.80 678.18 634.48 678.01 630.62 C 677.84 626.76 672.36 621.85 672.36 621.85 L 672.36 621.85 C 672.36 621.85 661.72 622.09 660.78 634.29 C 659.84 646.49 656.71 692.29 656.71 692.29 C 656.71 692.29 635.80 694.79 635.80 698.38 C 635.80 701.03 642.12 700.09 645.43 699.38 L 645.43 699.38 C 647.02 700.84 651.91 701.92 664.94 697.99 C 666.20 697.22 673.22 675.99 675.64 658.99 C 676.15 666.54 680.00 703.12 706.04 701.76 C 727.49 700.65 739.46 677.13 744.25 664.90 L 757.51 701.83 L 786.17 701.83 Z M 711.78 660.88 L 702.28 637.96 C 702.28 637.96 721.28 636.48 736.56 636.31 C 727.83 642.88 711.78 660.85 711.78 660.85 Z" fill="#fbf5f0" fill-rule="nonzero" node-id="84" stroke="#262d33" stroke-linecap="round" stroke-width="3" target-height="99.67999" target-width="150.37" target-x="635.8" target-y="603.44"></path><path d="M 680.44 611.32 C 679.62 611.95 679.35 616.24 683.02 616.60 C 684.10 616.69 686.70 634.53 681.40 636.13 C 679.17 636.76 678.18 634.44 678.01 630.58 C 677.84 626.72 672.36 621.81 672.36 621.81 L 672.36 621.81 C 676.47 614.48 670.57 612.51 675.22 606.59 C 679.87 600.67 688.12 602.30 688.12 602.30 C 688.43 602.58 688.58 603.00 688.51 603.42 C 688.51 604.23 688.00 605.57 686.34 607.67 C 682.96 611.94 681.87 611.96 681.85 611.96 C 681.83 611.96 681.25 610.69 680.44 611.32 Z" fill="#0078ff" fill-rule="nonzero" node-id="86" stroke="none" target-height="36.090027" target-width="18.01001" target-x="670.57" target-y="600.67"></path><path d="M 680.71 637.73 C 680.02 637.74 679.34 637.52 678.78 637.11 C 677.38 636.11 676.66 634.05 676.51 630.65 C 676.39 628.02 672.66 624.09 671.36 622.92 C 670.84 622.45 670.71 621.68 671.05 621.06 C 672.37 618.96 672.76 616.40 672.13 614.00 C 671.31 611.07 672.03 607.92 674.04 605.64 C 679.22 599.08 688.04 600.73 688.41 600.81 C 688.61 600.84 688.80 600.92 688.96 601.04 C 689.69 601.62 690.06 602.54 689.96 603.46 C 689.88 604.89 689.07 606.55 687.46 608.58 C 683.63 613.44 682.25 613.44 681.80 613.44 C 681.66 613.44 681.53 613.42 681.40 613.38 C 681.43 613.68 681.51 613.97 681.65 614.24 C 681.95 614.77 682.51 615.11 683.12 615.11 C 683.94 615.18 685.12 615.27 685.81 622.11 C 686.25 626.25 686.74 636.05 681.81 637.55 C 681.45 637.66 681.08 637.72 680.71 637.73 Z M 674.20 621.49 C 675.88 623.16 679.35 627.02 679.51 630.49 C 679.67 633.96 680.45 634.60 680.51 634.66 C 680.57 634.72 680.66 634.76 680.98 634.66 C 681.54 634.49 681.98 633.73 682.21 633.13 C 683.89 629.03 682.79 620.19 682.07 617.93 C 680.39 617.56 679.05 616.27 678.63 614.60 C 678.19 613.06 678.40 610.96 679.51 610.10 C 680.03 609.68 680.72 609.52 681.37 609.67 C 681.64 609.74 681.89 609.85 682.12 610.00 C 683.22 608.99 684.23 607.89 685.12 606.69 C 685.93 605.80 686.54 604.75 686.92 603.61 C 684.85 603.42 679.56 603.42 676.36 607.47 C 674.42 609.94 674.67 611.33 675.04 613.47 C 675.71 616.16 675.42 619.00 674.20 621.49 Z M 682.84 618.09 L 682.84 618.09 Z M 680.44 611.32 L 680.44 611.32 Z M 681.44 610.49 Z" fill="#262d33" fill-rule="nonzero" node-id="88" stroke="none" target-height="38.659973" target-width="19.349976" target-x="670.71" target-y="599.08"></path><path d="M 768.00 650.59 C 766.88 647.65 765.95 644.64 765.21 641.59" fill="#fbf5f0" fill-rule="nonzero" node-id="90" stroke="none" target-height="9" target-width="2.789978" target-x="765.21" target-y="641.59"></path><path d="M 768.00 652.09 C 767.39 652.09 766.84 651.73 766.61 651.16 C 765.46 648.17 764.51 645.10 763.75 641.99 C 763.56 641.18 764.05 640.37 764.86 640.18 C 765.67 639.99 766.48 640.48 766.67 641.29 C 767.40 644.26 768.30 647.18 769.39 650.03 C 769.55 650.40 769.56 650.83 769.40 651.21 C 769.24 651.58 768.94 651.88 768.56 652.03 C 768.38 652.09 768.19 652.11 768.00 652.09 Z" fill="#262d33" fill-rule="nonzero" node-id="92" stroke="none" target-height="12.119995" target-width="6" target-x="763.56" target-y="639.99"></path><path d="M 688.51 604.90 L 688.51 604.90 C 687.68 604.90 687.01 604.23 687.01 603.40 C 687.01 602.57 687.68 601.90 688.51 601.90 C 689.34 601.90 690.01 602.57 690.01 603.40 C 690.01 603.80 689.85 604.18 689.57 604.46 C 689.28 604.75 688.90 604.90 688.50 604.90 Z" fill="#262d33" fill-rule="nonzero" node-id="94" stroke="none" target-height="3" target-width="3" target-x="687.01" target-y="601.9"></path><path d="M 744.27 664.90 L 744.24 664.81" fill="#fbf5f0" fill-rule="nonzero" node-id="96" stroke="none" target-height="0.090026855" target-width="0.030029297" target-x="744.24" target-y="664.81"></path><path d="M 744.23 666.36 C 743.60 666.37 743.04 665.96 742.85 665.36 L 742.85 665.27 C 742.57 664.49 742.99 663.63 743.77 663.35 C 744.55 663.07 745.41 663.49 745.69 664.27 C 745.96 665.06 745.55 665.93 744.76 666.22 C 744.59 666.30 744.41 666.35 744.23 666.36 Z" fill="#262d33" fill-rule="nonzero" node-id="98" stroke="none" target-height="3.2999878" target-width="3.3900146" target-x="742.57" target-y="663.07"></path><path d="M 736.56 636.28 C 739.17 636.28 741.69 636.28 743.97 636.28 C 747.05 636.33 750.13 636.56 753.18 636.96" fill="#fbf5f0" fill-rule="nonzero" node-id="100" stroke="none" target-height="0.6799927" target-width="16.619995" target-x="736.56" target-y="636.28"></path><path d="M 753.18 638.49 L 752.97 638.49 C 749.98 638.11 746.98 637.89 743.97 637.83 C 741.59 637.77 739.12 637.76 736.62 637.83 C 735.80 637.83 735.13 637.18 735.10 636.36 C 735.09 635.96 735.24 635.58 735.52 635.29 C 735.79 635.00 736.17 634.84 736.57 634.83 C 739.11 634.83 741.63 634.83 744.05 634.83 C 747.19 634.89 750.32 635.12 753.43 635.52 C 754.26 635.58 754.88 636.30 754.82 637.12 C 754.77 637.95 754.05 638.58 753.22 638.52 Z" fill="#262d33" fill-rule="nonzero" node-id="102" stroke="none" target-height="3.75" target-width="19.789978" target-x="735.09" target-y="634.83"></path><path d="M 744.27 664.90 C 745.98 660.55 746.79 657.64 746.79 657.64" fill="#fbf5f0" fill-rule="nonzero" node-id="104" stroke="none" target-height="7.26001" target-width="2.5199585" target-x="744.27" target-y="657.64"></path><path d="M 744.27 666.40 C 744.08 666.40 743.90 666.37 743.72 666.30 C 742.95 665.99 742.57 665.12 742.87 664.35 C 744.53 660.14 745.34 657.27 745.34 657.24 C 745.56 656.44 746.39 655.98 747.19 656.20 C 747.99 656.42 748.45 657.25 748.23 658.05 C 748.23 658.17 747.38 661.05 745.66 665.45 C 745.44 666.02 744.88 666.40 744.27 666.40 Z" fill="#262d33" fill-rule="nonzero" node-id="106" stroke="none" target-height="10.420044" target-width="5.880005" target-x="742.57" target-y="655.98"></path><path d="M 645.45 700.90 L 645.45 700.90 C 644.62 700.89 643.96 700.22 643.96 699.39 C 643.96 698.57 644.64 697.90 645.46 697.90 C 646.29 697.90 646.96 698.57 646.96 699.40 C 646.96 699.80 646.80 700.19 646.51 700.47 C 646.22 700.75 645.83 700.91 645.43 700.90 Z" fill="#262d33" fill-rule="nonzero" node-id="108" stroke="none" target-height="3.0099487" target-width="3" target-x="643.96" target-y="697.9"></path><path d="M 676.48 648.49 C 676.46 652.01 676.19 655.51 675.66 658.99" fill="#fbf5f0" fill-rule="nonzero" node-id="110" stroke="none" target-height="10.5" target-width="0.8200073" target-x="675.66" target-y="648.49"></path><path d="M 675.66 660.49 L 675.45 660.49 C 674.63 660.37 674.06 659.61 674.17 658.79 C 674.69 655.39 674.96 651.96 674.98 648.52 C 674.97 647.69 675.64 647.01 676.47 647.00 C 676.87 646.98 677.26 647.13 677.55 647.42 C 677.84 647.70 677.99 648.09 677.98 648.49 C 677.96 652.08 677.68 655.66 677.14 659.21 C 677.04 659.95 676.40 660.49 675.66 660.49 Z" fill="#262d33" fill-rule="nonzero" node-id="112" stroke="none" target-height="13.51001" target-width="3.9299927" target-x="674.06" target-y="646.98"></path><path d="M 645.43 699.40 C 645.01 699.06 644.77 698.55 644.77 698.01 C 644.86 696.46 654.93 695.62 654.93 695.62" fill="#fbf5f0" fill-rule="nonzero" node-id="114" stroke="none" target-height="3.7800293" target-width="10.159973" target-x="644.77" target-y="695.62"></path><path d="M 645.43 700.90 C 645.06 700.90 644.70 700.76 644.43 700.51 C 643.66 699.86 643.24 698.89 643.29 697.89 C 643.34 696.89 643.45 695.08 654.81 694.13 C 655.21 694.09 655.61 694.21 655.91 694.47 C 656.22 694.73 656.40 695.10 656.43 695.50 C 656.46 695.90 656.34 696.29 656.08 696.59 C 655.82 696.90 655.46 697.09 655.06 697.12 C 652.21 697.31 649.39 697.77 646.62 698.48 C 646.98 698.93 647.05 699.55 646.80 700.06 C 646.54 700.58 646.02 700.91 645.44 700.90 Z" fill="#262d33" fill-rule="nonzero" node-id="116" stroke="none" target-height="6.8199463" target-width="13.220032" target-x="643.24" target-y="694.09"></path><path d="M 702.76 670.54 L 711.78 660.86" fill="#fbf5f0" fill-rule="nonzero" node-id="118" stroke="none" target-height="9.679993" target-width="9.02002" target-x="702.76" target-y="660.86"></path><path d="M 702.76 672.00 C 702.39 671.99 702.03 671.85 701.76 671.60 C 701.47 671.33 701.29 670.95 701.28 670.55 C 701.27 670.16 701.42 669.77 701.69 669.48 L 710.69 659.80 C 711.02 659.32 711.60 659.07 712.18 659.17 C 712.75 659.27 713.22 659.70 713.37 660.26 C 713.53 660.82 713.34 661.42 712.89 661.80 L 703.89 671.48 C 703.61 671.81 703.19 672.00 702.76 672.00 Z" fill="#262d33" fill-rule="nonzero" node-id="120" stroke="none" target-height="12.929993" target-width="12.26001" target-x="701.27" target-y="659.07"></path><path d="M 720.78 602.78 C 720.28 602.69 719.78 602.69 719.28 602.78 L 719.28 602.78 C 718.67 602.89 718.04 602.95 717.42 602.97 L 717.00 602.97 C 716.16 603.00 715.32 602.83 714.56 602.48 C 714.24 602.32 713.96 602.09 713.74 601.81 C 713.26 601.26 713.01 600.54 713.06 599.81 L 713.06 596.44 C 713.04 595.95 712.94 595.47 712.75 595.02 C 712.26 593.84 711.44 592.83 710.39 592.10 L 710.39 592.10 C 709.06 591.05 707.97 589.71 707.21 588.19 C 704.82 583.37 706.11 577.55 710.30 574.18 C 714.49 570.82 720.45 570.82 724.64 574.18 C 728.83 577.55 730.12 583.37 727.73 588.19 C 726.96 589.72 725.86 591.06 724.51 592.11 L 724.51 592.11 L 724.51 592.11 C 721.51 594.11 721.31 595.96 721.30 596.04 L 721.30 596.77 C 721.30 596.98 721.30 597.09 721.30 597.69 C 721.35 598.64 720.83 599.53 719.98 599.95 C 719.32 600.26 718.60 600.40 717.88 600.37 L 717.71 600.37 C 717.08 600.40 716.45 600.34 715.84 600.21 Z" fill="#ffa836" fill-rule="nonzero" node-id="122" stroke="none" target-height="32.179993" target-width="25.299988" target-x="704.82" target-y="570.82"></path><path d="M 717.00 604.46 C 715.92 604.49 714.85 604.27 713.88 603.80 C 713.37 603.55 712.92 603.19 712.57 602.74 C 711.89 601.93 711.53 600.90 711.57 599.84 L 711.57 596.47 L 711.57 596.47 C 711.55 596.17 711.48 595.87 711.36 595.59 C 710.97 594.68 710.33 593.90 709.52 593.34 C 707.99 592.14 706.74 590.62 705.87 588.88 C 703.17 583.43 704.62 576.84 709.36 573.03 C 714.09 569.22 720.85 569.22 725.58 573.03 C 730.32 576.84 731.77 583.43 729.07 588.88 C 728.20 590.61 726.96 592.13 725.43 593.32 L 725.30 593.41 C 723.21 594.79 722.82 595.98 722.76 596.20 L 722.76 597.75 C 722.80 599.12 722.11 600.41 720.95 601.15 L 721.42 601.38 C 722.13 601.72 722.46 602.56 722.17 603.29 C 721.87 604.02 721.06 604.40 720.31 604.16 C 720.04 604.13 719.78 604.13 719.51 604.16 C 718.79 604.27 718.06 604.34 717.33 604.37 Z M 717.47 573.19 C 714.04 573.22 710.86 575.00 709.05 577.91 C 707.25 580.83 707.05 584.46 708.55 587.55 C 709.21 588.87 710.15 590.03 711.31 590.95 C 712.57 591.84 713.56 593.07 714.15 594.50 C 714.40 595.14 714.54 595.81 714.56 596.50 L 714.56 599.50 C 714.92 598.98 715.57 598.74 716.18 598.91 C 716.66 599.01 717.15 599.05 717.64 599.02 L 717.83 599.02 C 718.32 599.05 718.80 598.96 719.25 598.77 C 719.60 598.60 719.80 598.23 719.75 597.84 L 719.75 596.19 C 719.75 595.66 720.09 593.35 723.63 591.01 C 726.90 588.36 728.16 583.94 726.78 579.96 C 725.41 575.98 721.68 573.30 717.47 573.24 Z" fill="#262d33" fill-rule="nonzero" node-id="124" stroke="none" target-height="35.27002" target-width="28.600037" target-x="703.17" target-y="569.22"></path><path d="M 720.78 602.78 C 720.28 602.69 719.78 602.69 719.28 602.78 L 719.28 602.78 C 718.67 602.89 718.04 602.95 717.42 602.97 L 717.00 602.97 C 716.16 603.00 715.32 602.83 714.56 602.48 C 714.24 602.32 713.96 602.09 713.74 601.81 C 713.26 601.26 713.01 600.54 713.06 599.81 L 713.06 596.44 C 713.04 595.95 712.94 595.47 712.75 595.02 C 712.26 593.84 711.44 592.83 710.39 592.10 L 710.39 592.10 C 709.06 591.05 707.97 589.71 707.21 588.19 C 704.82 583.37 706.11 577.55 710.30 574.18 C 714.49 570.82 720.45 570.82 724.64 574.18 C 728.83 577.55 730.12 583.37 727.73 588.19 C 726.96 589.72 725.86 591.06 724.51 592.11 L 724.51 592.11 L 724.51 592.11 C 721.51 594.11 721.31 595.96 721.30 596.04 L 721.30 596.77 C 721.30 596.98 721.30 597.09 721.30 597.69 C 721.35 598.64 720.83 599.53 719.98 599.95 C 719.32 600.26 718.60 600.40 717.88 600.37 L 717.71 600.37 C 717.08 600.40 716.45 600.34 715.84 600.21" fill="#ffa836" fill-rule="nonzero" node-id="126" stroke="none" target-height="32.179993" target-width="25.299988" target-x="704.82" target-y="570.82"></path><path d="M 717.00 604.46 C 715.92 604.49 714.85 604.27 713.88 603.80 C 713.37 603.55 712.92 603.19 712.57 602.74 C 711.89 601.93 711.53 600.90 711.57 599.84 L 711.57 596.47 L 711.57 596.47 C 711.55 596.17 711.48 595.87 711.36 595.59 C 710.97 594.68 710.33 593.90 709.52 593.34 C 707.99 592.14 706.74 590.62 705.87 588.88 C 703.17 583.43 704.62 576.84 709.36 573.03 C 714.09 569.22 720.85 569.22 725.58 573.03 C 730.32 576.84 731.77 583.43 729.07 588.88 C 728.20 590.61 726.96 592.13 725.43 593.32 L 725.30 593.41 C 723.21 594.79 722.82 595.98 722.76 596.20 L 722.76 597.75 C 722.80 599.16 722.07 600.49 720.86 601.21 C 720.98 601.23 721.10 601.26 721.21 601.30 C 721.97 601.57 722.38 602.39 722.14 603.16 C 721.90 603.94 721.09 604.38 720.31 604.16 C 720.04 604.13 719.78 604.13 719.51 604.16 C 718.79 604.27 718.06 604.34 717.33 604.37 Z M 717.47 573.19 C 714.04 573.22 710.86 575.00 709.05 577.91 C 707.25 580.83 707.05 584.46 708.55 587.55 C 709.21 588.87 710.15 590.03 711.31 590.95 C 712.57 591.84 713.56 593.07 714.15 594.50 C 714.40 595.14 714.54 595.81 714.56 596.50 L 714.56 599.50 C 714.92 598.98 715.57 598.75 716.18 598.91 C 716.66 599.01 717.15 599.05 717.64 599.02 L 717.83 599.02 C 718.32 599.05 718.80 598.96 719.25 598.77 C 719.60 598.60 719.80 598.23 719.75 597.84 L 719.75 596.19 C 719.75 595.66 720.09 593.35 723.63 591.01 C 726.90 588.36 728.16 583.94 726.78 579.96 C 725.41 575.98 721.68 573.30 717.47 573.24 Z" fill="#262d33" fill-rule="nonzero" node-id="128" stroke="none" target-height="35.27002" target-width="28.600037" target-x="703.17" target-y="569.22"></path><path d="M 717.51 567.40 C 716.68 567.40 716.01 566.73 716.01 565.90 L 716.01 558.11 C 716.01 557.28 716.68 556.61 717.51 556.61 C 718.34 556.61 719.01 557.28 719.01 558.11 L 719.01 565.90 C 719.01 566.73 718.34 567.40 717.51 567.40 Z" fill="#262d33" fill-rule="nonzero" node-id="130" stroke="none" target-height="10.790039" target-width="3" target-x="716.01" target-y="556.61"></path><path d="M 705.42 562.23 L 708.91 567.51" fill="#ffa836" fill-rule="nonzero" node-id="132" stroke="none" target-height="5.2800293" target-width="3.4899902" target-x="705.42" target-y="562.23"></path><path d="M 708.91 569.00 C 708.41 569.00 707.94 568.75 707.66 568.33 L 704.17 563.04 C 703.77 562.35 703.97 561.47 704.64 561.03 C 705.30 560.59 706.20 560.75 706.67 561.39 L 710.16 566.67 C 710.38 567.00 710.46 567.41 710.38 567.80 C 710.30 568.19 710.07 568.53 709.74 568.75 C 709.49 568.91 709.21 569.00 708.91 569.00 Z" fill="#262d33" fill-rule="nonzero" node-id="134" stroke="none" target-height="8.409973" target-width="6.6900024" target-x="703.77" target-y="560.59"></path><path d="M 731.49 563.03 L 727.19 568.32" fill="#ffa836" fill-rule="nonzero" node-id="136" stroke="none" target-height="5.289978" target-width="4.299988" target-x="727.19" target-y="563.03"></path><path d="M 727.19 569.82 C 726.61 569.82 726.08 569.49 725.84 568.96 C 725.59 568.44 725.66 567.82 726.03 567.37 L 730.33 562.09 C 730.65 561.63 731.20 561.39 731.76 561.47 C 732.32 561.54 732.78 561.92 732.97 562.45 C 733.16 562.98 733.03 563.57 732.65 563.98 L 728.35 569.27 C 728.07 569.62 727.64 569.82 727.19 569.82 Z" fill="#262d33" fill-rule="nonzero" node-id="138" stroke="none" target-height="8.429993" target-width="7.5699463" target-x="725.59" target-y="561.39"></path></svg>