<?xml version="1.0" standalone="no"?><!DOCTYPE svg PUBLIC "-//W3C//DTD SVG 1.1//EN" "http://www.w3.org/Graphics/SVG/1.1/DTD/svg11.dtd"><svg height="699" node-id="1" sillyvg="true" template-height="699" template-width="855" version="1.1" viewBox="0 0 855 699" width="855" xmlns="http://www.w3.org/2000/svg" xmlns:xlink="http://www.w3.org/1999/xlink"><defs node-id="90"><linearGradient gradientUnits="userSpaceOnUse" id="未命名的渐变_25" node-id="5" spreadMethod="pad" x1="-1357.03" x2="-1058.3" y1="346.94" y2="346.94"><stop offset="0" stop-color="#fcbd60"></stop><stop offset="1" stop-color="#ff2a9d"></stop></linearGradient><linearGradient gradientUnits="userSpaceOnUse" id="未命名的渐变_25-2" node-id="8" spreadMethod="pad" x1="-8575.83" x2="-8940.87" y1="352.8" y2="352.8"><stop offset="0" stop-color="#fcbd60"></stop><stop offset="1" stop-color="#ff2a9d"></stop></linearGradient><linearGradient gradientUnits="userSpaceOnUse" id="未命名的渐变_22" node-id="9" spreadMethod="pad" x1="-8686.62" x2="-9017.6" y1="460.53" y2="460.53"><stop offset="0" stop-color="#ffe496"></stop><stop offset="1" stop-color="#ff446f"></stop></linearGradient><linearGradient gradientUnits="userSpaceOnUse" id="未命名的渐变_22-2" node-id="12" spreadMethod="pad" x1="-8608.43" x2="-8900.2" y1="453.69" y2="453.69"><stop offset="0" stop-color="#ffe496"></stop><stop offset="1" stop-color="#ff446f"></stop></linearGradient><linearGradient gradientUnits="userSpaceOnUse" id="未命名的渐变_25-3" node-id="13" spreadMethod="pad" x1="-8548.16" x2="-8873.24" y1="556.55" y2="556.55"><stop offset="0" stop-color="#fcbd60"></stop><stop offset="1" stop-color="#ff2a9d"></stop></linearGradient><linearGradient gradientUnits="userSpaceOnUse" id="未命名的渐变_7" node-id="20" spreadMethod="pad" x1="536.84" x2="207.35" y1="389.02" y2="389.02"><stop offset="0" stop-color="#f5222d"></stop><stop offset="1" stop-color="#cf1322"></stop></linearGradient><clipPath id="clip-path" node-id="14"><path d="M 414.44 283.70 L 555.40 201.78 L 554.23 614.21 L 413.27 696.13 L 414.44 283.70 Z" fill="#000000" fill-rule="nonzero" node-id="129" stroke="none" target-height="494.35" target-width="142.13004" target-x="413.27" target-y="201.78"></path></clipPath><clipPath id="clip-path-2" node-id="16"><path d="M 536.84 272.01 L 677.80 190.10 L 677.57 272.32 L 536.61 354.23 L 536.84 272.01 Z" fill="#000000" fill-rule="nonzero" node-id="133" stroke="none" target-height="164.13" target-width="141.19" target-x="536.61" target-y="190.1"></path></clipPath><clipPath id="clip-path-3" node-id="18"><path d="M 207.58 81.92 L 348.54 0.00 L 677.80 190.10 L 536.84 272.01 L 207.58 81.92 Z" fill="#000000" fill-rule="nonzero" node-id="137" stroke="none" target-height="272.01" target-width="470.21997" target-x="207.58" target-y="0"></path></clipPath></defs><g node-id="282"><path d="M 737.70 189.00 C 737.69 182.65 732.73 177.41 726.39 177.04 C 720.05 176.68 714.52 181.32 713.78 187.63 C 713.04 193.94 717.35 199.73 723.60 200.84 C 716.46 267.24 684.18 300.01 657.68 315.89 C 646.55 322.52 634.54 327.54 622.00 330.80 C 621.82 329.51 620.70 328.08 618.85 326.73 C 682.00 287.72 689.00 210.00 689.58 184.21 C 696.02 184.20 701.33 179.15 701.64 172.71 C 701.96 166.28 697.17 160.73 690.77 160.09 C 684.36 159.45 678.57 163.95 677.61 170.32 C 676.65 176.69 680.86 182.69 687.17 183.97 C 686.68 209.23 679.82 286.97 616.57 325.30 C 613.39 323.65 609.96 322.53 606.42 322.00 C 642.50 280.43 649.42 199.34 650.71 176.87 C 656.41 176.23 660.61 171.26 660.29 165.54 C 659.97 159.81 655.24 155.34 649.51 155.34 C 643.78 155.34 639.05 159.81 638.73 165.54 C 638.41 171.26 642.61 176.23 648.31 176.87 C 647.00 199.42 640.00 281.18 603.50 321.67 C 602.50 321.59 601.50 321.53 600.38 321.53 C 599.54 321.53 598.71 321.56 597.89 321.62 L 586.62 184.14 C 593.00 183.75 597.96 178.44 597.90 172.05 C 597.83 165.66 592.77 160.43 586.39 160.17 C 580.00 159.91 574.53 164.70 573.95 171.06 C 573.36 177.42 577.86 183.13 584.19 184.04 L 595.49 321.85 C 593.20 322.15 590.94 322.66 588.74 323.37 C 554.16 305.18 543.87 227.52 541.09 196.16 C 547.46 195.65 552.31 190.25 552.13 183.87 C 551.96 177.48 546.81 172.36 540.43 172.20 C 534.04 172.05 528.66 176.92 528.17 183.29 C 527.69 189.65 532.28 195.29 538.61 196.10 C 541.21 227.18 551.08 303.85 585.83 324.50 C 583.98 325.29 582.26 326.36 580.74 327.68 C 519.26 310.26 502.37 239.80 498.12 212.79 C 503.62 211.39 507.08 205.95 506.02 200.37 C 504.95 194.80 499.72 191.02 494.09 191.75 C 488.46 192.49 484.38 197.48 484.77 203.14 C 485.17 208.81 489.91 213.18 495.59 213.12 L 495.73 213.12 C 500.03 240.40 517.09 311.46 579.10 329.71 C 578.86 330.16 578.72 330.66 578.70 331.17 C 578.81 332.35 579.47 333.40 580.47 334.03 C 522.22 335.54 491.00 306.54 475.00 281.21 C 462.88 262.12 457.38 242.35 455.00 231.00 C 459.72 228.34 461.72 222.58 459.67 217.57 C 457.63 212.55 452.17 209.84 446.94 211.23 C 441.70 212.63 438.32 217.70 439.05 223.07 C 439.77 228.44 444.37 232.43 449.79 232.39 C 450.79 232.37 451.78 232.22 452.73 231.94 C 455.18 243.54 460.73 263.32 472.86 282.42 C 488.86 307.67 519.46 336.51 576.00 336.51 C 578.90 336.51 581.91 336.41 585.00 336.25 C 589.77 337.69 594.72 338.41 599.70 338.38 C 614.84 498.22 581.37 533.00 581.00 533.32 L 583.50 535.94 L 585.97 538.58 C 587.48 537.17 622.43 502.43 606.89 338.06 C 613.35 337.38 618.47 335.72 620.75 333.60 C 634.14 330.30 646.97 325.05 658.82 318.00 C 685.82 301.84 718.82 268.50 726.01 201.00 C 732.52 200.83 737.70 195.51 737.70 189.00 Z" fill="url(#未命名的渐变_25)" fill-rule="nonzero" group-id="1" node-id="143" stroke="none" target-height="383.24316" target-width="299.37997" target-x="438.32217" target-y="155.33687"></path><path d="M 578.00 438.67 C 575.59 431.44 541.83 306.13 621.36 385.67 C 621.36 385.67 645.45 419.40 631.00 486.85 C 626.18 520.58 708.09 462.76 667.14 366.40 C 626.19 270.04 712.90 176.08 739.40 221.85 C 765.90 267.62 724.94 359.17 712.90 388.08 C 700.86 416.99 712.90 457.94 741.81 419.40 C 770.72 380.86 794.81 301.40 787.58 219.40 C 780.35 137.40 818.90 79.71 830.94 79.71 C 842.98 79.71 855.00 86.94 855.00 118.26 C 855.00 118.26 862.05 601.88 521.54 625.88 C 519.33 626.04 517.23 624.93 516.11 623.02 C 514.99 621.11 515.06 618.73 516.28 616.88 C 523.74 605.53 526.83 591.86 525.00 578.40 C 520.18 539.85 508.14 530.21 493.68 513.40 C 479.22 496.59 510.55 441.13 534.68 496.54 C 558.81 551.95 551.54 568.81 582.86 563.99 C 614.18 559.17 580.45 445.99 578.04 438.72 C 575.63 431.45 539.49 308.63 621.40 385.72" fill="url(#未命名的渐变_25-2)" fill-rule="nonzero" group-id="1" node-id="145" stroke="none" target-height="546.32764" target-width="382.83" target-x="479.22" target-y="79.71"></path><path d="M 529.26 508.54 C 530.76 511.24 533.90 512.58 536.88 511.79 C 539.88 510.89 542.88 507.88 542.88 499.45 C 542.88 484.55 529.73 366.32 526.65 338.89 C 526.17 334.55 526.40 330.16 527.35 325.89 C 530.44 311.89 539.43 284.52 559.74 306.68 C 583.41 332.50 566.74 467.85 562.89 496.49 C 562.54 498.79 563.18 501.14 564.64 502.95 C 566.11 504.76 568.27 505.87 570.60 506.00 C 575.15 506.17 581.79 504.26 591.08 497.00 C 609.28 482.84 641.08 419.48 650.80 399.48 C 653.86 392.99 658.90 387.64 665.19 384.20 C 672.82 380.15 682.70 379.10 689.86 393.41 C 697.02 407.72 701.86 419.91 680.22 444.00 C 662.79 463.37 622.40 487.36 612.76 513.86 C 603.12 540.36 636.86 526.00 636.86 526.00 C 636.86 526.00 726.00 465.72 740.45 487.40 C 747.67 498.24 743.45 507.88 737.45 514.81 C 731.54 521.42 723.63 525.92 714.92 527.61 C 695.35 531.67 648.74 543.16 639.28 562.08 C 625.66 589.34 574.28 634.36 530.88 619.90 C 487.48 605.44 526.06 564.49 475.47 533.17 C 424.88 501.85 379.10 434.40 448.97 453.67 C 502.00 468.31 523.61 498.92 529.26 508.54 Z" fill="url(#未命名的渐变_22)" fill-rule="nonzero" group-id="1" node-id="147" stroke="none" target-height="349.84" target-width="368.56998" target-x="379.1" target-y="284.52"></path><path d="M 286.85 624.83 C 286.85 624.83 130.47 492.12 59.70 341.38 C 57.71 337.09 54.74 333.32 51.04 330.38 C 36.19 318.68 -1.21 296.18 0.00 367.84 C 1.71 378.60 15.08 517.08 286.85 624.83 Z" fill="#f5222d" fill-rule="nonzero" group-id="1" node-id="149" stroke="none" target-height="328.65002" target-width="288.06" target-x="-1.21" target-y="296.18"></path><path d="M 364.87 522.32 C 366.80 516.54 393.78 416.39 330.21 479.96 C 330.21 479.96 310.95 506.96 322.51 560.83 C 326.36 587.83 260.89 541.58 293.63 464.55 C 326.37 387.52 257.00 312.44 235.86 349.00 C 214.72 385.56 247.41 458.78 257.00 481.88 C 266.59 504.98 257.00 537.72 233.89 506.88 C 210.78 476.04 191.53 412.53 197.31 347.06 C 203.09 281.59 172.31 235.38 162.65 235.38 C 152.99 235.38 143.39 241.15 143.39 266.19 C 143.39 266.19 137.76 652.73 409.92 671.91 C 411.68 672.03 413.35 671.14 414.24 669.62 C 415.13 668.11 415.09 666.22 414.13 664.74 C 408.20 655.66 405.75 644.74 407.23 634.00 C 411.08 603.19 420.71 595.49 432.23 582.00 C 443.75 568.51 418.75 524.24 399.50 568.52 C 380.25 612.80 386.05 626.30 361.00 622.45 C 335.95 618.60 362.92 528.10 364.85 522.32 C 366.78 516.54 395.66 418.32 330.19 479.96" fill="url(#未命名的渐变_22-2)" fill-rule="nonzero" group-id="1" node-id="151" stroke="none" target-height="436.6468" target-width="305.99" target-x="137.76" target-y="235.38"></path><path d="M 312.00 641.89 C 312.00 641.89 275.42 620.71 240.76 624.56 C 206.10 628.41 154.12 609.16 175.30 588.00 C 196.03 567.27 251.79 574.20 274.01 596.16 C 275.18 597.40 277.02 597.71 278.53 596.92 C 279.75 596.20 280.26 594.76 277.35 591.85 C 271.58 586.07 213.81 549.49 254.25 528.31 C 289.95 509.60 310.64 573.47 315.00 588.67 C 315.63 591.11 317.92 592.76 320.44 592.57 C 322.60 592.33 324.53 590.89 323.57 586.07 C 320.90 572.72 312.01 541.78 302.38 524.45 C 295.64 512.32 302.38 462.84 327.38 472.45 C 352.38 482.06 364.00 528.29 364.00 557.17 C 364.00 568.72 373.63 549.47 373.63 549.47 C 373.63 549.47 406.36 458.97 421.77 491.70 C 437.18 524.43 412.26 580.15 396.77 595.70 C 390.99 601.48 406.39 597.62 406.39 597.62 C 406.39 597.62 485.34 578.37 494.97 613.03 C 504.60 647.69 379.44 605.33 325.52 641.91 Z" fill="url(#未命名的渐变_25-3)" fill-rule="nonzero" group-id="1" node-id="153" stroke="none" target-height="188.72" target-width="350.48" target-x="154.12" target-y="458.97"></path><g node-id="283"><path d="M 414.44 283.70 L 555.40 201.78 L 554.23 614.21 L 413.27 696.13 L 414.44 283.70 Z" fill="#c5c5c5" fill-rule="nonzero" group-id="1,2" node-id="157" stroke="none" target-height="494.35" target-width="142.13004" target-x="413.27" target-y="201.78"></path><g node-id="287"><g clip-path="url(#clip-path)" group-id="1,2,6" node-id="161"><path d="M 554.23 614.21 L 555.40 201.79 L 541.31 209.98 L 540.14 622.40 L 554.23 614.21" fill="#ff4d4f" fill-rule="nonzero" group-id="1,2,6,9" node-id="163" stroke="none" target-height="420.61005" target-width="15.26001" target-x="540.14" target-y="201.79"></path><path d="M 540.14 622.40 L 541.31 209.98 L 527.21 218.17 L 526.04 630.59 L 540.14 622.40" fill="#ffffff" fill-rule="nonzero" group-id="1,2,6,9" node-id="165" stroke="none" target-height="420.61005" target-width="15.27002" target-x="526.04" target-y="209.98"></path><path d="M 526.04 630.59 L 527.21 218.17 L 513.12 226.36 L 511.94 638.78 L 526.04 630.59" fill="#ff4d4f" fill-rule="nonzero" group-id="1,2,6,9" node-id="167" stroke="none" target-height="420.61005" target-width="15.27002" target-x="511.94" target-y="218.17"></path><path d="M 511.94 638.78 L 513.12 226.36 L 499.02 234.56 L 497.85 646.98 L 511.94 638.78" fill="#ffffff" fill-rule="nonzero" group-id="1,2,6,9" node-id="169" stroke="none" target-height="420.62" target-width="15.269989" target-x="497.85" target-y="226.36"></path><path d="M 497.85 646.98 L 499.02 234.56 L 484.92 242.75 L 483.75 655.17 L 497.85 646.98" fill="#ff4d4f" fill-rule="nonzero" group-id="1,2,6,9" node-id="171" stroke="none" target-height="420.61" target-width="15.269989" target-x="483.75" target-y="234.56"></path><path d="M 483.75 655.17 L 484.92 242.75 L 470.83 250.94 L 469.66 663.36 L 483.75 655.17" fill="#ffffff" fill-rule="nonzero" group-id="1,2,6,9" node-id="173" stroke="none" target-height="420.61" target-width="15.26001" target-x="469.66" target-y="242.75"></path><path d="M 469.66 663.36 L 470.83 250.94 L 456.73 259.13 L 455.56 671.55 L 469.66 663.36" fill="#ff4d4f" fill-rule="nonzero" group-id="1,2,6,9" node-id="175" stroke="none" target-height="420.61" target-width="15.269989" target-x="455.56" target-y="250.94"></path><path d="M 455.56 671.55 L 456.73 259.13 L 442.64 267.32 L 441.47 679.74 L 455.56 671.55" fill="#ffffff" fill-rule="nonzero" group-id="1,2,6,9" node-id="177" stroke="none" target-height="420.61" target-width="15.26001" target-x="441.47" target-y="259.13"></path><path d="M 441.47 679.74 L 442.64 267.32 L 428.54 275.51 L 427.37 687.93 L 441.47 679.74" fill="#ff4d4f" fill-rule="nonzero" group-id="1,2,6,9" node-id="179" stroke="none" target-height="420.61" target-width="15.27002" target-x="427.37" target-y="267.32"></path><path d="M 427.37 687.93 L 428.54 275.51 L 414.44 283.70 L 413.27 696.13 L 427.37 687.93" fill="#ffffff" fill-rule="nonzero" group-id="1,2,6,9" node-id="181" stroke="none" target-height="420.62" target-width="15.27002" target-x="413.27" target-y="275.51"></path></g></g><path d="M 536.84 272.01 L 677.80 190.10 L 677.57 272.32 L 536.61 354.23 L 536.84 272.01 Z" fill="#c5c5c5" fill-rule="nonzero" group-id="1,2" node-id="185" stroke="none" target-height="164.13" target-width="141.19" target-x="536.61" target-y="190.1"></path><g clip-path="url(#clip-path-2)" group-id="1,2,7" node-id="189"><path d="M 677.57 272.32 L 677.80 190.10 L 663.70 198.29 L 663.47 280.51 L 677.57 272.32" fill="#ff4d4f" fill-rule="nonzero" group-id="1,2,7,10" node-id="191" stroke="none" target-height="90.41" target-width="14.330017" target-x="663.47" target-y="190.1"></path><path d="M 663.47 280.51 L 663.70 198.29 L 649.61 206.48 L 649.37 288.70 L 663.47 280.51" fill="#ffffff" fill-rule="nonzero" group-id="1,2,7,10" node-id="193" stroke="none" target-height="90.41002" target-width="14.330017" target-x="649.37" target-y="198.29"></path><path d="M 649.37 288.70 L 649.61 206.48 L 635.51 214.67 L 635.28 296.89 L 649.37 288.70" fill="#ff4d4f" fill-rule="nonzero" group-id="1,2,7,10" node-id="195" stroke="none" target-height="90.41002" target-width="14.329956" target-x="635.28" target-y="206.48"></path><path d="M 635.28 296.89 L 635.51 214.67 L 621.41 222.86 L 621.18 305.08 L 635.28 296.89" fill="#ffffff" fill-rule="nonzero" group-id="1,2,7,10" node-id="197" stroke="none" target-height="90.40999" target-width="14.330017" target-x="621.18" target-y="214.67"></path><path d="M 621.18 305.08 L 621.41 222.86 L 607.32 231.06 L 607.09 313.27 L 621.18 305.08" fill="#ff4d4f" fill-rule="nonzero" group-id="1,2,7,10" node-id="199" stroke="none" target-height="90.40999" target-width="14.319946" target-x="607.09" target-y="222.86"></path><path d="M 607.09 313.27 L 607.32 231.06 L 593.23 239.25 L 592.99 321.46 L 607.09 313.27" fill="#ffffff" fill-rule="nonzero" group-id="1,2,7,10" node-id="201" stroke="none" target-height="90.399994" target-width="14.330017" target-x="592.99" target-y="231.06"></path><path d="M 592.99 321.46 L 593.23 239.25 L 579.13 247.44 L 578.89 329.66 L 592.99 321.46" fill="#ff4d4f" fill-rule="nonzero" group-id="1,2,7,10" node-id="203" stroke="none" target-height="90.41" target-width="14.339966" target-x="578.89" target-y="239.25"></path><path d="M 578.89 329.66 L 579.13 247.44 L 565.03 255.63 L 564.80 337.85 L 578.89 329.66" fill="#ffffff" fill-rule="nonzero" group-id="1,2,7,10" node-id="205" stroke="none" target-height="90.41" target-width="14.330017" target-x="564.8" target-y="247.44"></path><path d="M 564.80 337.85 L 565.03 255.63 L 550.93 263.82 L 550.70 346.04 L 564.80 337.85" fill="#ff4d4f" fill-rule="nonzero" group-id="1,2,7,10" node-id="207" stroke="none" target-height="90.41" target-width="14.330017" target-x="550.7" target-y="255.63"></path><path d="M 550.70 346.04 L 550.93 263.82 L 536.84 272.01 L 536.61 354.23 L 550.70 346.04" fill="#ffffff" fill-rule="nonzero" group-id="1,2,7,10" node-id="209" stroke="none" target-height="90.41" target-width="14.320007" target-x="536.61" target-y="263.82"></path></g><path d="M 207.58 81.92 L 348.54 0.00 L 677.80 190.10 L 536.84 272.01 L 207.58 81.92 Z" fill="#dcdcdc" fill-rule="nonzero" group-id="1,2" node-id="213" stroke="none" target-height="272.01" target-width="470.21997" target-x="207.58" target-y="0"></path><g clip-path="url(#clip-path-3)" group-id="1,2,8" node-id="217"><path d="M 677.80 190.10 L 348.54 0.00 L 334.45 8.19 L 663.70 198.29 L 677.80 190.10" fill="#cf1322" fill-rule="nonzero" group-id="1,2,8,11" node-id="219" stroke="none" target-height="198.29" target-width="343.34998" target-x="334.45" target-y="0"></path><path d="M 663.70 198.29 L 334.45 8.19 L 320.35 16.39 L 649.61 206.48 L 663.70 198.29" fill="#ffccc7" fill-rule="nonzero" group-id="1,2,8,11" node-id="221" stroke="none" target-height="198.29" target-width="343.35" target-x="320.35" target-y="8.19"></path><path d="M 649.61 206.48 L 320.35 16.39 L 306.26 24.58 L 635.51 214.67 L 649.61 206.48" fill="#cf1322" fill-rule="nonzero" group-id="1,2,8,11" node-id="223" stroke="none" target-height="198.28" target-width="343.34998" target-x="306.26" target-y="16.39"></path><path d="M 635.51 214.67 L 306.26 24.58 L 292.16 32.77 L 621.41 222.86 L 635.51 214.67" fill="#ffccc7" fill-rule="nonzero" group-id="1,2,8,11" node-id="225" stroke="none" target-height="198.28" target-width="343.35" target-x="292.16" target-y="24.58"></path><path d="M 621.41 222.86 L 292.16 32.77 L 278.06 40.96 L 607.32 231.05 L 621.41 222.86" fill="#cf1322" fill-rule="nonzero" group-id="1,2,8,11" node-id="227" stroke="none" target-height="198.28" target-width="343.34998" target-x="278.06" target-y="32.77"></path><path d="M 607.32 231.05 L 278.06 40.96 L 263.97 49.15 L 593.22 239.25 L 607.32 231.05" fill="#ffccc7" fill-rule="nonzero" group-id="1,2,8,11" node-id="229" stroke="none" target-height="198.29001" target-width="343.35" target-x="263.97" target-y="40.96"></path><path d="M 593.22 239.25 L 263.97 49.15 L 249.87 57.34 L 579.13 247.44 L 593.22 239.25" fill="#cf1322" fill-rule="nonzero" group-id="1,2,8,11" node-id="231" stroke="none" target-height="198.29001" target-width="343.34998" target-x="249.87" target-y="49.15"></path><path d="M 579.13 247.44 L 249.87 57.34 L 235.78 65.53 L 565.03 255.63 L 579.13 247.44" fill="#ffccc7" fill-rule="nonzero" group-id="1,2,8,11" node-id="233" stroke="none" target-height="198.29001" target-width="343.35" target-x="235.78" target-y="57.34"></path><path d="M 565.03 255.63 L 235.78 65.53 L 221.68 73.73 L 550.93 263.82 L 565.03 255.63" fill="#cf1322" fill-rule="nonzero" group-id="1,2,8,11" node-id="235" stroke="none" target-height="198.29001" target-width="343.35004" target-x="221.68" target-y="65.53"></path><path d="M 550.93 263.82 L 221.68 73.73 L 207.59 81.92 L 536.84 272.01 L 550.93 263.82" fill="#ffccc7" fill-rule="nonzero" group-id="1,2,8,11" node-id="237" stroke="none" target-height="198.28" target-width="343.34" target-x="207.59" target-y="73.73"></path></g><path d="M 536.84 272.01 L 536.61 354.23 L 414.44 283.70 L 413.27 696.13 L 327.18 646.42 L 328.35 234.00 L 207.35 164.14 L 207.58 81.92 L 536.84 272.01 Z" fill="url(#未命名的渐变_7)" fill-rule="nonzero" group-id="1,2" node-id="241" stroke="none" target-height="614.21" target-width="329.49002" target-x="207.35" target-y="81.92"></path></g><path d="M 521.43 138.20 C 521.43 138.20 514.43 138.65 519.43 128.73 C 524.43 118.81 527.31 115.44 525.06 106.21 C 522.81 96.98 530.69 81.43 540.38 83.91 C 550.07 86.39 558.17 96.52 558.17 100.80 C 558.17 105.08 561.33 124.68 553.44 132.80 C 545.55 140.92 521.43 138.20 521.43 138.20 Z" fill="#2b304f" fill-rule="nonzero" group-id="1" node-id="244" stroke="none" target-height="59.489998" target-width="46.900024" target-x="514.43" target-y="81.43"></path><path d="M 516.25 156.89 C 516.25 156.89 518.73 125.02 533.82 119.27 C 547.82 119.27 556.46 121.86 564.12 154.53 C 520.87 159.71 516.25 156.89 516.25 156.89 Z" fill="#da4147" fill-rule="nonzero" group-id="1" node-id="246" stroke="none" target-height="40.44001" target-width="47.869995" target-x="516.25" target-y="119.27"></path><path d="M 511.90 153.36 L 566.56 153.36 L 561.61 188.50 L 539.23 193.01 L 516.25 189.41 L 511.90 153.36 Z" fill="#fcee21" fill-rule="nonzero" group-id="1" node-id="248" stroke="none" target-height="39.649994" target-width="54.660004" target-x="511.9" target-y="153.36"></path><path d="M 534.05 102.00 C 534.05 102.00 526.95 101.00 531.34 107.41 C 535.73 113.82 536.84 114.89 536.19 119.23 C 535.29 125.23 541.82 130.38 544.52 123.74 C 544.86 117.09 545.87 114.74 546.66 113.49 C 547.45 112.24 552.86 107.07 552.86 107.07 C 552.86 107.07 554.27 99.92 549.86 103.80 C 547.46 105.90 538.00 110.15 534.05 102.00 Z" fill="#ffccc7" fill-rule="nonzero" group-id="1" node-id="250" stroke="none" target-height="30.460007" target-width="27.320007" target-x="526.95" target-y="99.92"></path><path d="M 560.49 168.83 L 564.82 168.83 C 565.46 168.85 565.97 169.36 566.00 170.00 L 566.00 177.00 C 566.00 177.85 565.31 178.54 564.46 178.54 L 560.46 178.54 C 559.79 178.54 559.24 177.99 559.24 177.32 L 559.24 170.00 C 559.27 169.33 559.82 168.81 560.49 168.83 Z" fill="#ffccc7" fill-rule="nonzero" group-id="1" node-id="252" stroke="none" target-height="9.726929" target-width="6.76001" target-x="559.24" target-y="168.81306"></path><path d="M 516.39 177.17 L 512.39 177.17 L 511.79 177.05 L 511.31 176.73 L 510.98 176.25 L 510.85 175.65 L 510.85 168.65 L 510.95 168.17 L 511.21 167.79 L 511.59 167.53 L 512.07 167.43 L 516.40 167.43 L 516.88 167.53 L 517.26 167.79 L 517.52 168.17 L 517.62 168.65 L 517.62 175.95 L 517.53 176.42 L 517.26 176.82 L 516.86 177.08 L 516.39 177.17 Z" fill="#ffccc7" fill-rule="nonzero" group-id="1,3" node-id="256" stroke="none" target-height="9.7400055" target-width="6.7700195" target-x="510.84998" target-y="167.43"></path><path d="M 518.50 186.55 L 492.37 181.00 C 492.37 181.00 477.21 182.80 484.71 193.76 C 494.93 200.52 529.32 222.60 529.32 222.60 L 549.74 214.19 C 549.74 214.19 588.34 188.96 588.49 188.51 C 588.64 188.06 597.65 172.66 580.98 173.68 C 580.98 173.49 550.49 186.25 550.49 186.25 Z" fill="#2c3154" fill-rule="nonzero" group-id="1" node-id="259" stroke="none" target-height="49.940002" target-width="120.44003" target-x="477.21" target-y="172.66"></path><path d="M 529.77 223.30 C 529.77 223.30 529.09 218.80 531.91 218.46 C 534.73 218.12 545.00 212.71 545.00 212.71 C 545.00 212.71 548.83 212.38 546.81 218.01 C 545.95 220.34 544.89 222.58 543.64 224.72 C 542.51 226.66 540.12 227.47 538.04 226.63 Z" fill="#ffa34e" fill-rule="nonzero" group-id="1" node-id="261" stroke="none" target-height="15.093246" target-width="19.73999" target-x="529.09" target-y="212.38"></path><path d="M 512.53 211.41 C 512.53 211.41 505.53 217.41 508.71 219.18 C 511.89 220.95 523.80 218.50 523.80 218.50 Z" fill="#ffa34e" fill-rule="nonzero" group-id="1" node-id="263" stroke="none" target-height="9.539993" target-width="18.269989" target-x="505.53" target-y="211.41"></path><path d="M 313.01 71.01 L 312.94 96.28 L 288.93 110.23 L 289.00 84.96 L 313.01 71.01 Z" fill="#ffffff" fill-rule="nonzero" group-id="1,4" node-id="267" stroke="none" target-height="39.22" target-width="24.080017" target-x="288.93" target-y="71.01"></path><path d="M 289.00 84.96 L 288.93 110.23 L 264.76 96.28 L 264.83 71.01 L 289.00 84.96 Z" fill="#cccccc" fill-rule="nonzero" group-id="1,4" node-id="269" stroke="none" target-height="39.22" target-width="24.23999" target-x="264.76" target-y="71.01"></path><path d="M 313.01 71.01 L 289.00 84.96 L 264.83 71.01 L 288.84 57.05 L 313.01 71.01 Z" fill="#e6e6e6" fill-rule="nonzero" group-id="1,4" node-id="271" stroke="none" target-height="27.91" target-width="48.180023" target-x="264.83" target-y="57.05"></path><path d="M 564.79 659.33 L 564.71 684.60 L 540.71 698.55 L 540.78 673.28 L 564.79 659.33 Z" fill="#fcee21" fill-rule="nonzero" group-id="1,5" node-id="276" stroke="none" target-height="39.21997" target-width="24.079956" target-x="540.71" target-y="659.33"></path><path d="M 540.78 673.28 L 540.71 698.55 L 516.54 684.60 L 516.61 659.33 L 540.78 673.28 Z" fill="#f7931e" fill-rule="nonzero" group-id="1,5" node-id="278" stroke="none" target-height="39.21997" target-width="24.240051" target-x="516.54" target-y="659.33"></path><path d="M 564.79 659.33 L 540.78 673.28 L 516.61 659.33 L 540.62 645.38 L 564.79 659.33 Z" fill="#fbb03b" fill-rule="nonzero" group-id="1,5" node-id="280" stroke="none" target-height="27.900024" target-width="48.179993" target-x="516.61" target-y="645.38"></path></g></svg>