<?xml version="1.0" standalone="no"?><!DOCTYPE svg PUBLIC "-//W3C//DTD SVG 1.1//EN" "http://www.w3.org/Graphics/SVG/1.1/DTD/svg11.dtd"><svg height="802" node-id="1" sillyvg="true" template-height="802" template-width="1051" version="1.1" viewBox="0 0 1051 802" width="1051" xmlns="http://www.w3.org/2000/svg" xmlns:xlink="http://www.w3.org/1999/xlink"><defs node-id="187"><linearGradient gradientUnits="userSpaceOnUse" id="未命名的渐变_25" node-id="5" spreadMethod="pad" x1="-1161.27" x2="-862.55" y1="469.71" y2="469.71"><stop offset="0" stop-color="#fcbd60"></stop><stop offset="1" stop-color="#ff2a9d"></stop></linearGradient><linearGradient gradientUnits="userSpaceOnUse" id="未命名的渐变_25-2" node-id="8" spreadMethod="pad" x1="-8565.28" x2="-8930.32" y1="475.57" y2="475.57"><stop offset="0" stop-color="#fcbd60"></stop><stop offset="1" stop-color="#ff2a9d"></stop></linearGradient><linearGradient gradientUnits="userSpaceOnUse" id="未命名的渐变_22" node-id="9" spreadMethod="pad" x1="-8710.11" x2="-9041.09" y1="589.35" y2="589.35"><stop offset="0" stop-color="#ffe496"></stop><stop offset="1" stop-color="#ff446f"></stop></linearGradient><linearGradient gradientUnits="userSpaceOnUse" id="未命名的渐变_22-2" node-id="12" spreadMethod="pad" x1="-8793.63" x2="-9085.4" y1="400.42" y2="400.42"><stop offset="0" stop-color="#ffe496"></stop><stop offset="1" stop-color="#ff446f"></stop></linearGradient><linearGradient gradientUnits="userSpaceOnUse" id="未命名的渐变_25-3" node-id="13" spreadMethod="pad" x1="-8733.36" x2="-9058.44" y1="503.28" y2="503.28"><stop offset="0" stop-color="#fcbd60"></stop><stop offset="1" stop-color="#ff2a9d"></stop></linearGradient><linearGradient gradientUnits="userSpaceOnUse" id="未命名的渐变_7" node-id="28" spreadMethod="pad" x1="679.88" x2="287.56" y1="442.09" y2="442.09"><stop offset="0" stop-color="#f5222d"></stop><stop offset="1" stop-color="#cf1322"></stop></linearGradient><clipPath id="clip-path" node-id="14"><path d="M 365.51 414.69 L 506.47 332.77 L 505.89 539.31 L 364.93 621.23 L 365.51 414.69 Z" fill="#000000" fill-rule="nonzero" node-id="226" stroke="none" target-height="288.46" target-width="141.54001" target-x="364.93" target-y="332.77"></path></clipPath><clipPath id="clip-path-2" node-id="16"><path d="M 354.92 245.87 L 495.92 163.95 C 499.86 213.09 506.64 285.95 506.51 332.77 L 365.51 414.69 C 365.65 367.89 358.86 295.00 354.92 245.87 Z" fill="#000000" fill-rule="nonzero" node-id="230" stroke="none" target-height="250.74" target-width="151.72" target-x="354.92" target-y="163.95"></path></clipPath><clipPath id="clip-path-3" node-id="18"><path d="M 457.00 410.60 L 598.00 328.68 C 607.22 364.80 615.27 402.26 623.90 439.38 L 482.90 521.30 C 474.28 484.17 466.23 446.72 457.00 410.60 Z" fill="#000000" fill-rule="nonzero" node-id="234" stroke="none" target-height="192.62" target-width="166.90002" target-x="457" target-y="328.68"></path></clipPath><clipPath id="clip-path-4" node-id="20"><path d="M 573.90 488.80 L 714.86 406.88 L 647.96 576.48 L 507.00 658.40 L 573.90 488.80 Z" fill="#000000" fill-rule="nonzero" node-id="238" stroke="none" target-height="251.52002" target-width="207.85999" target-x="507" target-y="406.88"></path></clipPath><clipPath id="clip-path-5" node-id="22"><path d="M 288.97 81.92 L 429.93 0.00 L 525.33 55.08 L 384.37 137.00 L 288.97 81.92 Z" fill="#000000" fill-rule="nonzero" node-id="242" stroke="none" target-height="137" target-width="236.36002" target-x="288.97" target-y="0"></path></clipPath><clipPath id="clip-path-6" node-id="24"><path d="M 384.37 137.00 L 525.33 55.08 L 597.97 328.68 L 457.01 410.60 L 384.37 137.00 Z" fill="#000000" fill-rule="nonzero" node-id="246" stroke="none" target-height="355.52002" target-width="213.59998" target-x="384.37" target-y="55.08"></path></clipPath><clipPath id="clip-path-7" node-id="26"><path d="M 609.13 392.64 L 750.09 310.72 L 714.86 406.88 L 573.90 488.80 L 609.13 392.64 Z" fill="#000000" fill-rule="nonzero" node-id="250" stroke="none" target-height="178.07999" target-width="176.19" target-x="573.9" target-y="310.72"></path></clipPath><clipPath id="clip-path-8" node-id="31"><path d="M 679.88 307.61 L 820.84 225.69 L 819.44 720.34 L 678.48 802.26 L 679.88 307.61 Z" fill="#000000" fill-rule="nonzero" node-id="254" stroke="none" target-height="576.57" target-width="142.36005" target-x="678.48" target-y="225.69"></path></clipPath><clipPath id="clip-path-9" node-id="33"><path d="M 584.47 252.53 L 725.43 170.61 L 820.84 225.69 L 679.88 307.61 L 584.47 252.53 Z" fill="#000000" fill-rule="nonzero" node-id="258" stroke="none" target-height="136.99998" target-width="236.37006" target-x="584.47" target-y="170.61"></path></clipPath></defs><g node-id="585"><path d="M 933.45 311.79 C 933.44 305.44 928.48 300.20 922.14 299.83 C 915.80 299.47 910.27 304.11 909.53 310.42 C 908.79 316.73 913.10 322.52 919.35 323.63 C 912.22 390.04 879.93 422.81 853.43 438.69 C 842.30 445.30 830.30 450.31 817.77 453.57 C 817.59 452.28 816.46 450.84 814.61 449.49 C 877.73 410.49 884.79 332.72 885.33 306.97 C 891.72 306.94 896.97 301.90 897.26 295.51 C 897.55 289.13 892.78 283.63 886.41 283.02 C 880.05 282.42 874.33 286.90 873.40 293.23 C 872.47 299.55 876.66 305.49 882.93 306.74 C 882.43 332.00 875.57 409.74 812.32 448.07 C 809.14 446.42 805.71 445.31 802.17 444.78 C 838.25 403.22 845.17 322.13 846.47 299.65 C 852.17 299.01 856.38 294.03 856.06 288.30 C 855.74 282.58 851.00 278.10 845.26 278.10 C 839.53 278.10 834.79 282.58 834.47 288.30 C 834.15 294.03 838.36 299.01 844.06 299.65 C 842.80 322.24 835.76 404.00 799.25 444.49 C 798.25 444.40 797.25 444.34 796.14 444.34 C 795.29 444.34 794.46 444.34 793.64 444.43 L 782.37 306.91 C 788.79 306.56 793.81 301.23 793.78 294.80 C 793.74 288.37 788.68 283.09 782.25 282.80 C 775.83 282.51 770.30 287.30 769.69 293.71 C 769.08 300.11 773.59 305.86 779.95 306.80 L 791.24 444.62 C 788.95 444.91 786.69 445.42 784.49 446.14 C 749.92 427.95 739.62 350.29 736.85 318.93 C 743.21 318.42 748.07 313.02 747.89 306.63 C 747.71 300.25 742.56 295.13 736.18 294.97 C 729.80 294.82 724.41 299.69 723.93 306.06 C 723.44 312.42 728.03 318.05 734.36 318.87 C 736.96 349.94 746.83 426.62 781.58 447.27 C 779.73 448.06 778.01 449.12 776.49 450.44 C 715.00 433.00 698.12 362.56 693.87 335.56 C 699.37 334.16 702.83 328.72 701.77 323.14 C 700.70 317.57 695.47 313.79 689.84 314.52 C 684.21 315.26 680.13 320.25 680.52 325.91 C 680.92 331.58 685.66 335.95 691.34 335.89 L 691.48 335.89 C 695.79 363.18 712.84 434.23 774.86 452.49 C 774.61 452.94 774.47 453.44 774.45 453.95 C 774.56 455.13 775.22 456.18 776.22 456.81 C 718.00 458.31 686.78 429.31 670.72 404.00 C 658.63 384.92 653.13 365.14 650.78 353.80 C 656.18 350.88 658.35 344.24 655.71 338.69 C 653.08 333.14 646.56 330.63 640.88 332.96 C 635.21 335.30 632.35 341.67 634.38 347.47 C 636.41 353.26 642.63 356.45 648.52 354.73 C 650.96 366.34 656.52 386.12 668.64 405.22 C 684.64 430.47 715.24 459.31 771.78 459.31 C 774.69 459.31 777.69 459.20 780.78 459.05 C 785.55 460.49 790.50 461.21 795.48 461.18 C 810.63 621.02 777.16 655.78 776.82 656.12 L 779.31 658.73 L 781.78 661.38 C 783.29 659.96 818.25 625.23 802.70 460.85 C 809.16 460.17 814.29 458.51 816.56 456.40 C 829.94 453.11 842.76 447.87 854.61 440.84 C 881.61 424.68 914.61 391.34 921.80 323.84 C 928.31 323.65 933.48 318.30 933.45 311.79 Z" fill="url(#未命名的渐变_25)" fill-rule="nonzero" group-id="1" node-id="264" stroke="none" target-height="383.28262" target-width="301.13226" target-x="632.34766" target-y="278.09738"></path><path d="M 773.74 561.43 C 771.33 554.21 737.57 428.90 817.11 508.43 C 817.11 508.43 841.20 542.16 826.74 609.62 C 821.92 643.34 903.83 585.53 862.88 489.16 C 821.93 392.79 908.65 298.84 935.15 344.62 C 961.65 390.40 920.70 481.93 908.65 510.84 C 896.60 539.75 908.65 580.71 937.56 542.16 C 966.47 503.61 990.56 424.16 983.33 342.21 C 976.10 260.26 1014.65 202.48 1026.70 202.48 C 1038.75 202.48 1050.79 209.71 1050.79 241.03 C 1050.79 241.03 1057.79 724.65 717.33 748.64 C 715.12 748.80 713.01 747.69 711.89 745.78 C 710.77 743.87 710.84 741.49 712.06 739.64 C 719.51 728.27 722.60 714.59 720.74 701.12 C 715.92 662.58 703.88 652.94 689.42 636.12 C 674.96 619.30 706.29 563.84 730.42 619.25 C 754.55 674.66 747.28 691.53 778.60 686.71 C 809.92 681.89 776.19 568.66 773.78 561.43 C 771.37 554.20 735.24 431.34 817.15 508.43" fill="url(#未命名的渐变_25-2)" fill-rule="nonzero" group-id="1" node-id="266" stroke="none" target-height="546.3218" target-width="382.83002" target-x="674.96" target-y="202.48"></path><path d="M 691.00 637.36 C 692.50 640.06 695.63 641.40 698.62 640.62 C 701.62 639.71 704.62 636.70 704.62 628.27 C 704.62 613.38 691.46 495.14 688.39 467.71 C 687.91 463.38 688.14 459.01 689.09 454.76 C 692.18 440.76 701.17 413.38 721.48 435.54 C 745.15 461.36 728.48 596.71 724.62 625.35 C 724.28 627.65 724.92 629.98 726.39 631.79 C 727.85 633.59 730.00 634.70 732.32 634.84 C 736.87 635.00 743.51 633.09 752.80 625.84 C 770.99 611.69 802.80 548.32 812.51 528.32 C 815.58 521.84 820.62 516.49 826.91 513.04 C 834.53 509.04 844.42 507.94 851.57 522.25 C 858.72 536.56 863.57 548.75 841.93 572.84 C 824.50 592.21 784.12 616.20 774.48 642.70 C 764.84 669.20 798.57 654.70 798.57 654.70 C 798.57 654.70 887.71 594.47 902.16 616.15 C 909.39 626.99 905.16 636.63 899.16 643.56 C 893.25 650.17 885.34 654.67 876.63 656.36 C 857.00 660.50 810.44 672.00 801.00 690.91 C 787.37 718.16 735.95 763.18 692.59 748.72 C 649.23 734.26 687.77 693.31 637.18 662.00 C 586.59 630.69 540.82 563.22 610.68 582.50 C 663.72 597.13 685.33 627.74 691.00 637.36 Z" fill="url(#未命名的渐变_22)" fill-rule="nonzero" group-id="1" node-id="268" stroke="none" target-height="349.8" target-width="368.57" target-x="540.82" target-y="413.38"></path><path d="M 286.85 571.56 C 286.85 571.56 130.47 438.86 59.70 288.12 C 57.71 283.83 54.74 280.06 51.04 277.12 C 36.19 265.41 -1.21 242.92 0.04 314.57 C 1.71 325.33 15.08 463.81 286.85 571.56 Z" fill="#f5222d" fill-rule="nonzero" group-id="1" node-id="270" stroke="none" target-height="328.64" target-width="288.06" target-x="-1.21" target-y="242.92"></path><path d="M 364.87 469.05 C 366.80 463.27 393.78 363.12 330.21 426.69 C 330.21 426.69 310.95 453.69 322.51 507.56 C 326.36 534.56 260.89 488.31 293.63 411.29 C 326.37 334.27 257.00 259.17 235.86 295.75 C 214.72 332.33 247.41 405.51 257.00 428.62 C 266.59 451.73 257.00 484.46 233.89 453.62 C 210.78 422.78 191.53 359.27 197.31 293.80 C 203.09 228.33 172.31 182.12 162.65 182.12 C 152.99 182.12 143.39 187.89 143.39 212.93 C 143.39 212.93 137.76 599.48 409.92 618.65 C 411.68 618.77 413.35 617.89 414.24 616.37 C 415.13 614.86 415.09 612.96 414.13 611.49 C 408.18 602.40 405.71 591.46 407.19 580.70 C 411.04 549.89 420.67 542.19 432.19 528.70 C 443.71 515.21 418.78 471.00 399.53 515.26 C 380.28 559.52 386.05 573.00 361.00 569.18 C 335.95 565.36 362.92 474.83 364.85 469.05 C 366.78 463.27 395.66 365.05 330.19 426.69" fill="url(#未命名的渐变_22-2)" fill-rule="nonzero" group-id="1" node-id="272" stroke="none" target-height="436.6518" target-width="305.95" target-x="137.76" target-y="182.12"></path><path d="M 312.00 588.62 C 312.00 588.62 275.42 567.44 240.76 571.29 C 206.10 575.14 154.11 555.89 175.29 534.71 C 196.00 514.00 251.79 520.91 274.00 542.87 C 275.16 544.11 277.01 544.42 278.52 543.63 C 279.74 542.91 280.25 541.47 277.34 538.56 C 271.57 532.78 213.80 496.20 254.24 475.02 C 289.94 456.31 310.63 520.18 314.99 535.38 C 315.62 537.82 317.91 539.47 320.43 539.28 C 322.59 539.04 324.52 537.60 323.56 532.78 C 320.89 519.43 312.00 488.50 302.37 471.17 C 295.63 459.03 302.37 409.55 327.37 419.17 C 352.37 428.79 364.00 475.00 364.00 503.90 C 364.00 515.45 373.63 496.20 373.63 496.20 C 373.63 496.20 406.36 405.70 421.77 438.43 C 437.18 471.16 412.26 526.89 396.77 542.43 C 390.99 548.21 406.39 544.36 406.39 544.36 C 406.39 544.36 485.34 525.10 494.97 559.76 C 504.60 594.42 379.41 552.00 325.49 588.62 Z" fill="url(#未命名的渐变_25-3)" fill-rule="nonzero" group-id="1" node-id="274" stroke="none" target-height="188.71997" target-width="350.49" target-x="154.11" target-y="405.7"></path><g node-id="586"><path d="M 365.51 414.69 L 506.47 332.77 L 505.89 539.31 L 364.93 621.23 L 365.51 414.69 Z" fill="#c5c5c5" fill-rule="nonzero" group-id="1,2" node-id="278" stroke="none" target-height="288.46" target-width="141.54001" target-x="364.93" target-y="332.77"></path><g node-id="589"><g clip-path="url(#clip-path)" group-id="1,2,5" node-id="282"><path d="M 505.89 539.31 L 506.47 332.77 L 492.38 340.96 L 491.79 547.50 L 505.89 539.31" fill="#cf1322" fill-rule="nonzero" group-id="1,2,5,14" node-id="284" stroke="none" target-height="214.73001" target-width="14.679993" target-x="491.79" target-y="332.77"></path><path d="M 491.79 547.50 L 492.38 340.96 L 478.28 349.15 L 477.69 555.70 L 491.79 547.50" fill="#ffffff" fill-rule="nonzero" group-id="1,2,5,14" node-id="286" stroke="none" target-height="214.74002" target-width="14.690002" target-x="477.69" target-y="340.96"></path><path d="M 477.69 555.70 L 478.28 349.15 L 464.19 357.35 L 463.60 563.89 L 477.69 555.70" fill="#cf1322" fill-rule="nonzero" group-id="1,2,5,14" node-id="288" stroke="none" target-height="214.74002" target-width="14.679993" target-x="463.6" target-y="349.15"></path><path d="M 463.60 563.89 L 464.19 357.35 L 450.09 365.54 L 449.50 572.08 L 463.60 563.89" fill="#ffffff" fill-rule="nonzero" group-id="1,2,5,14" node-id="290" stroke="none" target-height="214.73001" target-width="14.690002" target-x="449.5" target-y="357.35"></path><path d="M 449.50 572.08 L 450.09 365.54 L 435.99 373.73 L 435.41 580.27 L 449.50 572.08" fill="#ff4d4f" fill-rule="nonzero" group-id="1,2,5,14" node-id="292" stroke="none" target-height="214.73001" target-width="14.679993" target-x="435.41" target-y="365.54"></path><path d="M 435.41 580.27 L 435.99 373.73 L 421.90 381.92 L 421.31 588.46 L 435.41 580.27" fill="#ffffff" fill-rule="nonzero" group-id="1,2,5,14" node-id="294" stroke="none" target-height="214.73001" target-width="14.679993" target-x="421.31" target-y="373.73"></path><path d="M 421.31 588.46 L 421.90 381.92 L 407.80 390.11 L 407.21 596.65 L 421.31 588.46" fill="#ff4d4f" fill-rule="nonzero" group-id="1,2,5,14" node-id="296" stroke="none" target-height="214.73001" target-width="14.690002" target-x="407.21" target-y="381.92"></path><path d="M 407.21 596.65 L 407.80 390.11 L 393.71 398.30 L 393.12 604.84 L 407.21 596.65" fill="#ffffff" fill-rule="nonzero" group-id="1,2,5,14" node-id="298" stroke="none" target-height="214.73004" target-width="14.679993" target-x="393.12" target-y="390.11"></path><path d="M 393.12 604.84 L 393.71 398.30 L 379.61 406.50 L 379.02 613.04 L 393.12 604.84" fill="#ff4d4f" fill-rule="nonzero" group-id="1,2,5,14" node-id="300" stroke="none" target-height="214.73999" target-width="14.690002" target-x="379.02" target-y="398.3"></path><path d="M 379.02 613.04 L 379.61 406.50 L 365.51 414.69 L 364.93 621.23 L 379.02 613.04" fill="#ffffff" fill-rule="nonzero" group-id="1,2,5,14" node-id="302" stroke="none" target-height="214.72998" target-width="14.679993" target-x="364.93" target-y="406.5"></path></g></g><path d="M 482.91 521.29 L 623.87 439.38 L 626.78 441.06 L 485.82 522.98 L 482.91 521.29 Z" fill="#dcdcdc" fill-rule="nonzero" group-id="1,2" node-id="306" stroke="none" target-height="83.599976" target-width="143.87003" target-x="482.91" target-y="439.38"></path><g clip-path="url(#clip-path-2)" group-id="1,2,6" node-id="310"><path d="M 354.92 245.87 L 495.92 163.95 C 498.33 193.95 501.79 232.77 504.09 269.11 L 363.09 351.00 C 360.79 314.65 357.33 275.83 354.92 245.84" fill="#c2c2c2" fill-rule="nonzero" group-id="1,2,6,15,23" node-id="314" stroke="none" target-height="187.05" target-width="149.16998" target-x="354.92" target-y="163.95"></path><path d="M 363.09 351.00 L 504.09 269.08 C 505.04 284.03 505.79 298.56 506.19 311.89 L 365.20 393.84 C 364.79 380.51 364.00 366.00 363.09 351.00" fill="#bdbdbd" fill-rule="nonzero" group-id="1,2,6,15,23" node-id="316" stroke="none" target-height="124.76001" target-width="143.1" target-x="363.09" target-y="269.08"></path><path d="M 365.20 393.84 L 506.20 311.92 C 506.43 319.28 506.54 326.28 506.52 332.77 L 365.52 414.69 C 365.52 408.19 365.43 401.20 365.21 393.84" fill="#b8b8b8" fill-rule="nonzero" group-id="1,2,6,15,23" node-id="318" stroke="none" target-height="102.76999" target-width="141.34" target-x="365.2" target-y="311.92"></path><path d="M 506.47 332.77 C 506.60 286.00 499.82 213.10 495.88 164.00 L 481.79 172.19 C 485.73 221.34 492.51 294.19 492.38 341.01 L 506.47 332.82" fill="#cf1322" fill-rule="nonzero" group-id="1,2,6,15" node-id="321" stroke="none" target-height="177.01001" target-width="24.809998" target-x="481.79" target-y="164"></path><path d="M 492.38 341.00 C 492.51 294.21 485.73 221.33 481.79 172.18 L 467.69 180.38 C 471.63 229.52 478.41 302.38 478.28 349.19 L 492.38 341.00" fill="#ffffff" fill-rule="nonzero" group-id="1,2,6,15" node-id="323" stroke="none" target-height="177.01001" target-width="24.820007" target-x="467.69" target-y="172.18"></path><path d="M 478.28 349.15 C 478.41 302.36 471.63 229.48 467.69 180.34 L 453.59 188.53 C 457.53 237.67 464.32 310.53 464.18 357.34 L 478.28 349.15" fill="#cf1322" fill-rule="nonzero" group-id="1,2,6,15" node-id="325" stroke="none" target-height="177" target-width="24.820007" target-x="453.59" target-y="180.34"></path><path d="M 464.18 357.34 C 464.32 310.55 457.53 237.67 453.59 188.53 L 439.50 196.72 C 443.44 245.86 450.22 318.72 450.09 365.54 L 464.18 357.34" fill="#ffffff" fill-rule="nonzero" group-id="1,2,6,15" node-id="327" stroke="none" target-height="177.01001" target-width="24.820007" target-x="439.5" target-y="188.53"></path><path d="M 450.09 365.54 C 450.22 318.74 443.44 245.86 439.50 196.72 L 425.40 204.91 C 429.34 254.05 436.13 326.91 435.99 373.73 L 450.09 365.54" fill="#cf1322" fill-rule="nonzero" group-id="1,2,6,15" node-id="329" stroke="none" target-height="177.01001" target-width="24.820007" target-x="425.4" target-y="196.72"></path><path d="M 436.00 373.73 C 436.14 326.93 429.35 254.05 425.41 204.91 L 411.32 213.10 C 415.26 262.24 422.04 335.10 421.91 381.92 L 436.00 373.73" fill="#ffffff" fill-rule="nonzero" group-id="1,2,6,15" node-id="331" stroke="none" target-height="177.01001" target-width="24.820007" target-x="411.32" target-y="204.91"></path><path d="M 421.90 381.92 C 422.03 335.13 415.25 262.24 411.31 213.10 L 397.21 221.29 C 401.15 270.44 407.93 343.29 407.80 390.11 L 421.90 381.92" fill="#cf1322" fill-rule="nonzero" group-id="1,2,6,15" node-id="333" stroke="none" target-height="177.00998" target-width="24.820007" target-x="397.21" target-y="213.1"></path><path d="M 407.80 390.11 C 407.93 343.32 401.15 270.44 397.21 221.29 L 383.11 229.48 C 387.06 278.63 393.84 351.48 393.71 398.30 L 407.80 390.11" fill="#ffffff" fill-rule="nonzero" group-id="1,2,6,15" node-id="335" stroke="none" target-height="177.01" target-width="24.820007" target-x="383.11" target-y="221.29"></path><path d="M 393.71 398.30 C 393.84 351.51 387.06 278.63 383.11 229.48 L 369.00 237.68 C 372.94 286.82 379.72 359.68 379.59 406.49 L 393.69 398.30" fill="#ff4d4f" fill-rule="nonzero" group-id="1,2,6,15" node-id="337" stroke="none" target-height="177.01" target-width="24.839996" target-x="369" target-y="229.48"></path><path d="M 379.61 406.49 C 379.74 359.70 373.00 286.82 369.00 237.68 L 354.90 245.87 C 358.84 295.01 365.63 367.87 365.49 414.68 L 379.59 406.49" fill="#ffffff" fill-rule="nonzero" group-id="1,2,6,15" node-id="339" stroke="none" target-height="177" target-width="24.839996" target-x="354.9" target-y="237.68"></path></g><g clip-path="url(#clip-path-3)" group-id="1,2,7" node-id="345"><path d="M 457.00 410.60 L 598.00 328.68 C 598.88 332.14 599.75 335.61 600.61 339.08 L 459.62 421.00 C 458.76 417.52 457.89 414.05 457.01 410.60" fill="#e0e0e0" fill-rule="nonzero" group-id="1,2,7,16,24" node-id="349" stroke="none" target-height="92.32001" target-width="143.60999" target-x="457" target-y="328.68"></path><path d="M 459.62 421.00 L 600.62 339.08 C 608.77 371.97 616.10 405.81 623.91 439.38 L 482.91 521.30 C 475.10 487.73 467.77 453.88 459.62 421.00" fill="#dbdbdb" fill-rule="nonzero" group-id="1,2,7,16,24" node-id="351" stroke="none" target-height="182.22" target-width="164.28998" target-x="459.62" target-y="339.08"></path><path d="M 623.87 439.38 C 615.23 402.26 607.19 364.80 597.97 328.68 L 583.87 336.87 C 593.09 372.99 601.14 410.45 609.78 447.57 L 623.87 439.38" fill="#cf1322" fill-rule="nonzero" group-id="1,2,7,16" node-id="354" stroke="none" target-height="118.890015" target-width="40" target-x="583.87" target-y="328.68"></path><path d="M 609.78 447.57 C 601.14 410.45 593.09 372.99 583.87 336.87 L 569.77 345.06 C 578.99 381.18 587.04 418.64 595.68 455.76 L 609.78 447.57" fill="#ffffff" fill-rule="nonzero" group-id="1,2,7,16" node-id="356" stroke="none" target-height="118.890015" target-width="40.01001" target-x="569.77" target-y="336.87"></path><path d="M 595.68 455.76 C 587.00 418.64 579.00 381.18 569.77 345.06 L 555.68 353.25 C 564.90 389.37 572.95 426.83 581.58 463.95 L 595.68 455.76" fill="#cf1322" fill-rule="nonzero" group-id="1,2,7,16" node-id="358" stroke="none" target-height="118.890015" target-width="40" target-x="555.68" target-y="345.06"></path><path d="M 581.58 464.00 C 572.95 426.88 564.90 389.42 555.68 353.30 L 541.58 361.50 C 550.80 397.62 558.85 435.07 567.49 472.20 L 581.58 464.00" fill="#ffffff" fill-rule="nonzero" group-id="1,2,7,16" node-id="360" stroke="none" target-height="118.900024" target-width="40" target-x="541.58" target-y="353.3"></path><path d="M 567.49 472.15 C 558.85 435.02 550.80 397.57 541.58 361.45 L 527.49 369.64 C 536.71 405.76 544.76 443.22 553.39 480.34 L 567.49 472.15" fill="#ff4d4f" fill-rule="nonzero" group-id="1,2,7,16" node-id="362" stroke="none" target-height="118.889984" target-width="40" target-x="527.49" target-y="361.45"></path><path d="M 553.39 480.34 C 544.76 443.22 536.71 405.76 527.49 369.64 L 513.39 377.83 C 522.61 413.95 530.66 451.41 539.30 488.53 L 553.39 480.34" fill="#ffffff" fill-rule="nonzero" group-id="1,2,7,16" node-id="364" stroke="none" target-height="118.889984" target-width="40" target-x="513.39" target-y="369.64"></path><path d="M 539.30 488.53 C 530.66 451.41 522.61 413.95 513.39 377.83 L 499.29 386.00 C 508.52 422.12 516.56 459.58 525.20 496.70 L 539.30 488.51" fill="#ff4d4f" fill-rule="nonzero" group-id="1,2,7,16" node-id="366" stroke="none" target-height="118.870026" target-width="40.00998" target-x="499.29" target-y="377.83"></path><path d="M 525.20 496.72 C 516.56 459.60 508.52 422.14 499.29 386.02 L 485.20 394.21 C 494.42 430.33 502.47 467.79 511.11 504.91 L 525.20 496.72" fill="#ffffff" fill-rule="nonzero" group-id="1,2,7,16" node-id="368" stroke="none" target-height="118.890015" target-width="40" target-x="485.2" target-y="386.02"></path><path d="M 511.11 504.91 C 502.47 467.79 494.42 430.33 485.20 394.21 L 471.10 402.40 C 480.32 438.53 488.37 476.00 497.00 513.10 L 511.10 504.91" fill="#ff4d4f" fill-rule="nonzero" group-id="1,2,7,16" node-id="370" stroke="none" target-height="118.889984" target-width="40.00998" target-x="471.1" target-y="394.21"></path><path d="M 497.00 513.10 C 488.36 475.98 480.31 438.53 471.09 402.40 L 457.00 410.60 C 466.22 446.72 474.27 484.17 482.90 521.29 L 497.00 513.10" fill="#ffffff" fill-rule="nonzero" group-id="1,2,7,16" node-id="372" stroke="none" target-height="118.889984" target-width="40" target-x="457" target-y="402.4"></path></g><path d="M 573.90 488.80 L 714.86 406.88 L 647.96 576.48 L 507.00 658.40 L 573.90 488.80 Z" fill="#989898" fill-rule="nonzero" group-id="1,2" node-id="376" stroke="none" target-height="251.52002" target-width="207.85999" target-x="507" target-y="406.88"></path><g clip-path="url(#clip-path-4)" group-id="1,2,8" node-id="380"><path d="M 647.96 576.48 L 714.86 406.88 L 700.76 415.07 L 633.86 584.67 L 647.96 576.48" fill="#cf1322" fill-rule="nonzero" group-id="1,2,8,17" node-id="382" stroke="none" target-height="177.78998" target-width="81" target-x="633.86" target-y="406.88"></path><path d="M 633.86 584.67 L 700.76 415.07 L 686.66 423.26 L 619.76 592.86 L 633.86 584.67" fill="#ffffff" fill-rule="nonzero" group-id="1,2,8,17" node-id="384" stroke="none" target-height="177.78998" target-width="81" target-x="619.76" target-y="415.07"></path><path d="M 619.76 592.86 L 686.66 423.26 L 672.57 431.46 L 605.67 601.05 L 619.76 592.86" fill="#cf1322" fill-rule="nonzero" group-id="1,2,8,17" node-id="386" stroke="none" target-height="177.78998" target-width="80.98999" target-x="605.67" target-y="423.26"></path><path d="M 605.67 601.05 L 672.57 431.46 L 658.47 439.65 L 591.57 609.25 L 605.67 601.05" fill="#ffffff" fill-rule="nonzero" group-id="1,2,8,17" node-id="388" stroke="none" target-height="177.79001" target-width="81" target-x="591.57" target-y="431.46"></path><path d="M 591.57 609.25 L 658.47 439.65 L 644.38 447.84 L 577.48 617.44 L 591.57 609.25" fill="#cf1322" fill-rule="nonzero" group-id="1,2,8,17" node-id="390" stroke="none" target-height="177.79001" target-width="80.98999" target-x="577.48" target-y="439.65"></path><path d="M 577.48 617.44 L 644.38 447.84 L 630.28 456.03 L 563.38 625.63 L 577.48 617.44" fill="#ffccc7" fill-rule="nonzero" group-id="1,2,8,17" node-id="392" stroke="none" target-height="177.79001" target-width="81" target-x="563.38" target-y="447.84"></path><path d="M 563.38 625.63 L 630.28 456.03 L 616.19 464.22 L 549.29 633.82 L 563.38 625.63" fill="#cf1322" fill-rule="nonzero" group-id="1,2,8,17" node-id="394" stroke="none" target-height="177.79001" target-width="80.99005" target-x="549.29" target-y="456.03"></path><path d="M 549.29 633.82 L 616.19 464.22 L 602.09 472.41 L 535.19 642.01 L 549.29 633.82" fill="#ffccc7" fill-rule="nonzero" group-id="1,2,8,17" node-id="396" stroke="none" target-height="177.79001" target-width="81" target-x="535.19" target-y="464.22"></path><path d="M 535.19 642.01 L 602.09 472.41 L 587.99 480.61 L 521.09 650.21 L 535.19 642.01" fill="#cf1322" fill-rule="nonzero" group-id="1,2,8,17" node-id="398" stroke="none" target-height="177.80002" target-width="81" target-x="521.09" target-y="472.41"></path><path d="M 521.09 650.21 L 587.99 480.61 L 573.90 488.80 L 507.00 658.40 L 521.09 650.21" fill="#ffccc7" fill-rule="nonzero" group-id="1,2,8,17" node-id="400" stroke="none" target-height="177.79004" target-width="80.98999" target-x="507" target-y="480.61"></path></g><path d="M 288.97 81.92 L 429.93 0.00 L 525.33 55.08 L 384.37 137.00 L 288.97 81.92 Z" fill="#dcdcdc" fill-rule="nonzero" group-id="1,2" node-id="404" stroke="none" target-height="137" target-width="236.36002" target-x="288.97" target-y="0"></path><g clip-path="url(#clip-path-5)" group-id="1,2,9" node-id="408"><path d="M 525.32 55.08 L 429.93 0.00 L 415.83 8.19 L 511.23 63.27 L 525.32 55.08" fill="#cf1322" fill-rule="nonzero" group-id="1,2,9,18" node-id="410" stroke="none" target-height="63.27" target-width="109.49002" target-x="415.83" target-y="0"></path><path d="M 511.23 63.27 L 415.83 8.19 L 401.73 16.38 L 497.13 71.46 L 511.23 63.27" fill="#ffccc7" fill-rule="nonzero" group-id="1,2,9,18" node-id="412" stroke="none" target-height="63.27" target-width="109.5" target-x="401.73" target-y="8.19"></path><path d="M 497.13 71.46 L 401.73 16.38 L 387.64 24.57 L 483.04 79.65 L 497.13 71.46" fill="#cf1322" fill-rule="nonzero" group-id="1,2,9,18" node-id="414" stroke="none" target-height="63.270004" target-width="109.48999" target-x="387.64" target-y="16.38"></path><path d="M 483.04 79.65 L 387.64 24.57 L 373.54 32.77 L 468.94 87.85 L 483.04 79.65" fill="#ffccc7" fill-rule="nonzero" group-id="1,2,9,18" node-id="416" stroke="none" target-height="63.28" target-width="109.5" target-x="373.54" target-y="24.57"></path><path d="M 468.94 87.85 L 373.54 32.77 L 359.45 40.96 L 454.85 96.04 L 468.94 87.85" fill="#cf1322" fill-rule="nonzero" group-id="1,2,9,18" node-id="418" stroke="none" target-height="63.27" target-width="109.48999" target-x="359.45" target-y="32.77"></path><path d="M 454.85 96.04 L 359.45 40.96 L 345.35 49.15 L 440.75 104.23 L 454.85 96.04" fill="#ffccc7" fill-rule="nonzero" group-id="1,2,9,18" node-id="420" stroke="none" target-height="63.270004" target-width="109.5" target-x="345.35" target-y="40.96"></path><path d="M 440.75 104.23 L 345.35 49.15 L 331.25 57.34 L 426.65 112.42 L 440.75 104.23" fill="#cf1322" fill-rule="nonzero" group-id="1,2,9,18" node-id="422" stroke="none" target-height="63.269997" target-width="109.5" target-x="331.25" target-y="49.15"></path><path d="M 426.65 112.42 L 331.25 57.34 L 317.16 65.53 L 412.56 120.61 L 426.65 112.42" fill="#ffccc7" fill-rule="nonzero" group-id="1,2,9,18" node-id="424" stroke="none" target-height="63.27" target-width="109.48999" target-x="317.16" target-y="57.34"></path><path d="M 412.56 120.61 L 317.16 65.53 L 303.06 73.73 L 398.46 128.80 L 412.56 120.61" fill="#cf1322" fill-rule="nonzero" group-id="1,2,9,18" node-id="426" stroke="none" target-height="63.270004" target-width="109.5" target-x="303.06" target-y="65.53"></path><path d="M 398.46 128.80 L 303.06 73.73 L 288.97 81.92 L 384.37 137.00 L 398.46 128.80" fill="#ffccc7" fill-rule="nonzero" group-id="1,2,9,18" node-id="428" stroke="none" target-height="63.269997" target-width="109.48999" target-x="288.97" target-y="73.73"></path></g><path d="M 384.37 137.00 L 525.33 55.08 L 597.97 328.68 L 457.01 410.60 L 384.37 137.00 Z" fill="#e8e8e8" fill-rule="nonzero" group-id="1,2" node-id="432" stroke="none" target-height="355.52002" target-width="213.59998" target-x="384.37" target-y="55.08"></path><g clip-path="url(#clip-path-6)" group-id="1,2,10" node-id="436"><path d="M 597.97 328.68 L 525.33 55.08 L 511.23 63.27 L 583.87 336.87 L 597.97 328.68" fill="#ff4d4f" fill-rule="nonzero" group-id="1,2,10,19" node-id="438" stroke="none" target-height="281.78998" target-width="86.73996" target-x="511.23" target-y="55.08"></path><path d="M 583.87 336.87 L 511.23 63.27 L 497.13 71.47 L 569.77 345.06 L 583.87 336.87" fill="#ffffff" fill-rule="nonzero" group-id="1,2,10,19" node-id="440" stroke="none" target-height="281.79" target-width="86.73999" target-x="497.13" target-y="63.27"></path><path d="M 569.77 345.06 L 497.13 71.47 L 483.04 79.66 L 555.68 353.25 L 569.77 345.06" fill="#ff4d4f" fill-rule="nonzero" group-id="1,2,10,19" node-id="442" stroke="none" target-height="281.78" target-width="86.73001" target-x="483.04" target-y="71.47"></path><path d="M 555.68 353.25 L 483.04 79.66 L 468.94 87.85 L 541.58 361.44 L 555.68 353.25" fill="#ffffff" fill-rule="nonzero" group-id="1,2,10,19" node-id="444" stroke="none" target-height="281.78" target-width="86.73999" target-x="468.94" target-y="79.66"></path><path d="M 541.58 361.44 L 468.94 87.85 L 454.85 96.04 L 527.49 369.63 L 541.58 361.44" fill="#ff4d4f" fill-rule="nonzero" group-id="1,2,10,19" node-id="446" stroke="none" target-height="281.78" target-width="86.73001" target-x="454.85" target-y="87.85"></path><path d="M 527.49 369.63 L 454.85 96.04 L 440.75 104.23 L 513.39 377.83 L 527.49 369.63" fill="#ffffff" fill-rule="nonzero" group-id="1,2,10,19" node-id="448" stroke="none" target-height="281.78998" target-width="86.73999" target-x="440.75" target-y="96.04"></path><path d="M 513.39 377.83 L 440.75 104.23 L 426.65 112.42 L 499.29 386.02 L 513.39 377.83" fill="#ff4d4f" fill-rule="nonzero" group-id="1,2,10,19" node-id="450" stroke="none" target-height="281.78998" target-width="86.74002" target-x="426.65" target-y="104.23"></path><path d="M 499.29 386.02 L 426.65 112.42 L 412.56 120.61 L 485.20 394.21 L 499.29 386.02" fill="#ffffff" fill-rule="nonzero" group-id="1,2,10,19" node-id="452" stroke="none" target-height="281.78998" target-width="86.73001" target-x="412.56" target-y="112.42"></path><path d="M 485.20 394.21 L 412.56 120.61 L 398.46 128.81 L 471.10 402.40 L 485.20 394.21" fill="#ff4d4f" fill-rule="nonzero" group-id="1,2,10,19" node-id="454" stroke="none" target-height="281.78998" target-width="86.74002" target-x="398.46" target-y="120.61"></path><path d="M 471.10 402.40 L 398.46 128.81 L 384.37 137.00 L 457.01 410.59 L 471.10 402.40" fill="#ffffff" fill-rule="nonzero" group-id="1,2,10,19" node-id="456" stroke="none" target-height="281.78" target-width="86.73001" target-x="384.37" target-y="128.81"></path></g><path d="M 609.13 392.64 L 750.09 310.72 L 714.86 406.88 L 573.90 488.80 L 609.13 392.64 Z" fill="#9b9b9b" fill-rule="nonzero" group-id="1,2" node-id="460" stroke="none" target-height="178.07999" target-width="176.19" target-x="573.9" target-y="310.72"></path><g clip-path="url(#clip-path-7)" group-id="1,2,11" node-id="464"><path d="M 714.86 406.88 L 750.09 310.72 L 736.00 318.91 L 700.76 415.07 L 714.86 406.88" fill="#cf1322" fill-rule="nonzero" group-id="1,2,11,20" node-id="466" stroke="none" target-height="104.350006" target-width="49.330017" target-x="700.76" target-y="310.72"></path><path d="M 700.76 415.07 L 736.00 318.91 L 721.90 327.11 L 686.66 423.26 L 700.76 415.07" fill="#ffffff" fill-rule="nonzero" group-id="1,2,11,20" node-id="468" stroke="none" target-height="104.350006" target-width="49.340027" target-x="686.66" target-y="318.91"></path><path d="M 686.66 423.26 L 721.90 327.11 L 707.80 335.30 L 672.57 431.45 L 686.66 423.26" fill="#cf1322" fill-rule="nonzero" group-id="1,2,11,20" node-id="470" stroke="none" target-height="104.34003" target-width="49.330017" target-x="672.57" target-y="327.11"></path><path d="M 672.57 431.45 L 707.80 335.30 L 693.71 343.49 L 658.47 439.65 L 672.57 431.45" fill="#ffffff" fill-rule="nonzero" group-id="1,2,11,20" node-id="472" stroke="none" target-height="104.350006" target-width="49.330017" target-x="658.47" target-y="335.3"></path><path d="M 658.47 439.65 L 693.71 343.49 L 679.61 351.68 L 644.38 447.84 L 658.47 439.65" fill="#cf1322" fill-rule="nonzero" group-id="1,2,11,20" node-id="474" stroke="none" target-height="104.350006" target-width="49.330017" target-x="644.38" target-y="343.49"></path><path d="M 644.38 447.84 L 679.61 351.68 L 665.52 359.87 L 630.28 456.03 L 644.38 447.84" fill="#ffffff" fill-rule="nonzero" group-id="1,2,11,20" node-id="476" stroke="none" target-height="104.350006" target-width="49.329956" target-x="630.28" target-y="351.68"></path><path d="M 630.28 456.03 L 665.52 359.87 L 651.42 368.06 L 616.19 464.22 L 630.28 456.03" fill="#cf1322" fill-rule="nonzero" group-id="1,2,11,20" node-id="478" stroke="none" target-height="104.350006" target-width="49.330017" target-x="616.19" target-y="359.87"></path><path d="M 616.19 464.22 L 651.42 368.06 L 637.33 376.25 L 602.09 472.41 L 616.19 464.22" fill="#ffffff" fill-rule="nonzero" group-id="1,2,11,20" node-id="480" stroke="none" target-height="104.350006" target-width="49.329956" target-x="602.09" target-y="368.06"></path><path d="M 602.09 472.41 L 637.33 376.25 L 623.23 384.45 L 587.99 480.61 L 602.09 472.41" fill="#cf1322" fill-rule="nonzero" group-id="1,2,11,20" node-id="482" stroke="none" target-height="104.359985" target-width="49.340027" target-x="587.99" target-y="376.25"></path><path d="M 587.99 480.61 L 623.23 384.45 L 609.13 392.64 L 573.90 488.80 L 587.99 480.61" fill="#ffccc7" fill-rule="nonzero" group-id="1,2,11,20" node-id="484" stroke="none" target-height="104.349976" target-width="49.329956" target-x="573.9" target-y="384.45"></path></g><path d="M 679.88 307.61 L 678.48 802.26 L 600.00 756.92 L 600.58 550.37 C 600.72 503.58 607.31 438.42 611.51 393.98 L 609.18 392.64 L 573.90 488.80 L 507.00 658.40 L 457.55 629.85 L 391.24 383.34 L 357.24 247.21 L 354.91 245.87 C 358.85 295.01 365.64 367.87 365.50 414.69 L 364.92 621.23 L 287.55 576.56 L 289.00 81.92 L 384.37 137.00 L 457.00 410.60 C 466.22 446.72 474.27 484.17 482.90 521.30 L 485.81 522.98 C 495.21 496.26 502.87 467.88 512.26 442.50 L 584.46 252.50 Z" fill="url(#未命名的渐变_7)" fill-rule="nonzero" group-id="1,2" node-id="488" stroke="none" target-height="720.34" target-width="392.33002" target-x="287.55" target-y="81.92"></path><path d="M 679.88 307.61 L 820.84 225.69 L 819.44 720.34 L 678.48 802.26 L 679.88 307.61 Z" fill="#c5c5c5" fill-rule="nonzero" group-id="1,2" node-id="490" stroke="none" target-height="576.57" target-width="142.36005" target-x="678.48" target-y="225.69"></path><g clip-path="url(#clip-path-8)" group-id="1,2,12" node-id="494"><path d="M 819.44 720.34 L 820.84 225.70 L 806.74 233.89 L 805.34 728.53 L 819.44 720.34" fill="#ff4d4f" fill-rule="nonzero" group-id="1,2,12,21" node-id="496" stroke="none" target-height="502.83002" target-width="15.5" target-x="805.34" target-y="225.7"></path><path d="M 805.34 728.53 L 806.74 233.89 L 792.65 242.08 L 791.24 736.72 L 805.34 728.53" fill="#ffffff" fill-rule="nonzero" group-id="1,2,12,21" node-id="498" stroke="none" target-height="502.82996" target-width="15.5" target-x="791.24" target-y="233.89"></path><path d="M 791.24 736.72 L 792.65 242.08 L 778.55 250.27 L 777.15 744.91 L 791.24 736.72" fill="#ff4d4f" fill-rule="nonzero" group-id="1,2,12,21" node-id="500" stroke="none" target-height="502.82996" target-width="15.5" target-x="777.15" target-y="242.08"></path><path d="M 777.15 744.91 L 778.55 250.27 L 764.45 258.46 L 763.05 753.11 L 777.15 744.91" fill="#ffffff" fill-rule="nonzero" group-id="1,2,12,21" node-id="502" stroke="none" target-height="502.83997" target-width="15.5" target-x="763.05" target-y="250.27"></path><path d="M 763.05 753.11 L 764.45 258.46 L 750.36 266.65 L 748.96 761.30 L 763.05 753.11" fill="#ff4d4f" fill-rule="nonzero" group-id="1,2,12,21" node-id="504" stroke="none" target-height="502.84" target-width="15.48999" target-x="748.96" target-y="258.46"></path><path d="M 748.96 761.30 L 750.36 266.65 L 736.26 274.85 L 734.86 769.49 L 748.96 761.30" fill="#ffffff" fill-rule="nonzero" group-id="1,2,12,21" node-id="506" stroke="none" target-height="502.84" target-width="15.5" target-x="734.86" target-y="266.65"></path><path d="M 734.86 769.49 L 736.26 274.85 L 722.17 283.04 L 720.76 777.68 L 734.86 769.49" fill="#ff4d4f" fill-rule="nonzero" group-id="1,2,12,21" node-id="508" stroke="none" target-height="502.83" target-width="15.5" target-x="720.76" target-y="274.85"></path><path d="M 720.76 777.68 L 722.17 283.04 L 708.07 291.23 L 706.67 785.87 L 720.76 777.68" fill="#ffffff" fill-rule="nonzero" group-id="1,2,12,21" node-id="510" stroke="none" target-height="502.83" target-width="15.5" target-x="706.67" target-y="283.04"></path><path d="M 706.67 785.87 L 708.07 291.23 L 693.98 299.42 L 692.57 794.06 L 706.67 785.87" fill="#ff4d4f" fill-rule="nonzero" group-id="1,2,12,21" node-id="512" stroke="none" target-height="502.83" target-width="15.5" target-x="692.57" target-y="291.23"></path><path d="M 692.57 794.06 L 693.98 299.42 L 679.88 307.61 L 678.48 802.25 L 692.57 794.06" fill="#ffffff" fill-rule="nonzero" group-id="1,2,12,21" node-id="514" stroke="none" target-height="502.83" target-width="15.5" target-x="678.48" target-y="299.42"></path></g><path d="M 584.47 252.53 L 725.43 170.61 L 820.84 225.69 L 679.88 307.61 L 584.47 252.53 Z" fill="#dcdcdc" fill-rule="nonzero" group-id="1,2" node-id="518" stroke="none" target-height="136.99998" target-width="236.37006" target-x="584.47" target-y="170.61"></path><g clip-path="url(#clip-path-9)" group-id="1,2,13" node-id="522"><path d="M 820.84 225.69 L 725.43 170.61 L 711.34 178.80 L 806.74 233.88 L 820.84 225.69" fill="#cf1322" fill-rule="nonzero" group-id="1,2,13,22" node-id="524" stroke="none" target-height="63.270004" target-width="109.5" target-x="711.34" target-y="170.61"></path><path d="M 806.74 233.88 L 711.34 178.80 L 697.24 187.00 L 792.65 242.08 L 806.74 233.88" fill="#ffccc7" fill-rule="nonzero" group-id="1,2,13,22" node-id="526" stroke="none" target-height="63.28" target-width="109.5" target-x="697.24" target-y="178.8"></path><path d="M 792.65 242.08 L 697.24 187.00 L 683.15 195.19 L 778.55 250.27 L 792.65 242.08" fill="#cf1322" fill-rule="nonzero" group-id="1,2,13,22" node-id="528" stroke="none" target-height="63.270004" target-width="109.5" target-x="683.15" target-y="187"></path><path d="M 778.55 250.27 L 683.15 195.19 L 669.05 203.38 L 764.45 258.46 L 778.55 250.27" fill="#ffccc7" fill-rule="nonzero" group-id="1,2,13,22" node-id="530" stroke="none" target-height="63.26999" target-width="109.5" target-x="669.05" target-y="195.19"></path><path d="M 764.45 258.46 L 669.05 203.38 L 654.96 211.57 L 750.36 266.65 L 764.45 258.46" fill="#cf1322" fill-rule="nonzero" group-id="1,2,13,22" node-id="532" stroke="none" target-height="63.26999" target-width="109.48999" target-x="654.96" target-y="203.38"></path><path d="M 750.36 266.65 L 654.96 211.57 L 640.86 219.76 L 736.26 274.84 L 750.36 266.65" fill="#ffccc7" fill-rule="nonzero" group-id="1,2,13,22" node-id="534" stroke="none" target-height="63.26999" target-width="109.5" target-x="640.86" target-y="211.57"></path><path d="M 736.26 274.84 L 640.86 219.76 L 626.76 227.95 L 722.17 283.04 L 736.26 274.84" fill="#cf1322" fill-rule="nonzero" group-id="1,2,13,22" node-id="536" stroke="none" target-height="63.280014" target-width="109.5" target-x="626.76" target-y="219.76"></path><path d="M 722.17 283.04 L 626.76 227.95 L 612.67 236.14 L 708.07 291.23 L 722.17 283.04" fill="#ffccc7" fill-rule="nonzero" group-id="1,2,13,22" node-id="538" stroke="none" target-height="63.280014" target-width="109.5" target-x="612.67" target-y="227.95"></path><path d="M 708.07 291.23 L 612.67 236.14 L 598.57 244.34 L 693.98 299.42 L 708.07 291.23" fill="#cf1322" fill-rule="nonzero" group-id="1,2,13,22" node-id="540" stroke="none" target-height="63.280014" target-width="109.5" target-x="598.57" target-y="236.14"></path><path d="M 693.98 299.42 L 598.57 244.34 L 584.48 252.53 L 679.88 307.61 L 693.98 299.42" fill="#ffccc7" fill-rule="nonzero" group-id="1,2,13,22" node-id="542" stroke="none" target-height="63.26999" target-width="109.5" target-x="584.48" target-y="244.34"></path></g></g><g node-id="587"><path d="M 379.05 67.96 L 378.97 93.23 L 354.96 107.19 L 355.04 81.92 L 379.05 67.96 Z" fill="#ffffff" fill-rule="nonzero" group-id="1,3" node-id="549" stroke="none" target-height="39.230003" target-width="24.089996" target-x="354.96" target-y="67.96"></path><path d="M 355.04 81.92 L 354.96 107.19 L 330.80 93.23 L 330.87 67.96 L 355.04 81.92 Z" fill="#cccccc" fill-rule="nonzero" group-id="1,3" node-id="551" stroke="none" target-height="39.230003" target-width="24.24002" target-x="330.8" target-y="67.96"></path><path d="M 379.05 67.96 L 355.04 81.92 L 330.87 67.96 L 354.88 54.01 L 379.05 67.96 Z" fill="#e6e6e6" fill-rule="nonzero" group-id="1,3" node-id="553" stroke="none" target-height="27.91" target-width="48.179993" target-x="330.87" target-y="54.01"></path></g><g node-id="588"><path d="M 738.98 203.25 L 738.91 228.52 L 714.90 242.47 L 714.97 217.20 L 738.98 203.25 Z" fill="#fcee21" fill-rule="nonzero" group-id="1,4" node-id="558" stroke="none" target-height="39.22" target-width="24.079956" target-x="714.9" target-y="203.25"></path><path d="M 714.97 217.20 L 714.90 242.47 L 690.74 228.52 L 690.81 203.25 L 714.97 217.20 Z" fill="#f7931e" fill-rule="nonzero" group-id="1,4" node-id="560" stroke="none" target-height="39.22" target-width="24.22998" target-x="690.74" target-y="203.25"></path><path d="M 738.98 203.25 L 714.97 217.20 L 690.81 203.25 L 714.82 189.30 L 738.98 203.25 Z" fill="#fbb03b" fill-rule="nonzero" group-id="1,4" node-id="562" stroke="none" target-height="27.899994" target-width="48.169983" target-x="690.81" target-y="189.3"></path></g><path d="M 564.68 590.08 C 564.68 590.08 562.18 603.34 560.18 604.68 C 558.18 606.02 569.76 608.27 569.64 605.93 C 569.52 603.59 569.11 586.33 569.11 586.33 Z" fill="#ebbbb7" fill-rule="nonzero" group-id="1" node-id="565" stroke="none" target-height="21.940002" target-width="11.580017" target-x="558.18" target-y="586.33"></path><path d="M 576.28 582.80 C 576.28 582.80 578.28 596.48 574.39 599.92 C 570.50 603.36 562.49 590.47 562.49 590.47 Z" fill="#ffccc7" fill-rule="nonzero" group-id="1" node-id="567" stroke="none" target-height="20.559998" target-width="15.790039" target-x="562.49" target-y="582.8"></path><path d="M 576.84 586.47 C 576.84 586.47 587.62 575.01 575.17 574.90 C 562.72 574.79 561.93 582.46 561.60 582.90 C 561.27 583.34 561.49 591.57 561.60 592.02 C 561.71 592.47 574.22 589.08 576.84 586.47 Z" fill="#2b304f" fill-rule="nonzero" group-id="1" node-id="569" stroke="none" target-height="17.679993" target-width="26.349976" target-x="561.27" target-y="574.79"></path><path d="M 594.63 734.72 L 594.63 733.89 L 589.29 732.89 L 576.79 655.10 L 548.25 656.31 C 548.25 656.31 546.75 679.50 548.25 683.51 C 549.75 687.52 553.09 718.37 545.92 736.06 C 545.09 737.28 544.47 738.63 544.08 740.06 L 544.08 741.90 L 554.42 741.90 L 549.61 737.39 L 550.14 732.89 C 550.14 732.89 558.93 715.04 560.26 696.35 C 561.59 677.66 563.60 670.16 563.60 670.16 L 564.94 670.83 L 576.82 710.20 L 587.82 739.40 Z" fill="#2b304f" fill-rule="nonzero" group-id="1" node-id="571" stroke="none" target-height="86.80005" target-width="50.549988" target-x="544.08" target-y="655.1"></path><path d="M 576.79 656.15 C 577.28 655.48 571.30 604.60 571.30 604.60 L 560.00 603.43 L 555.81 606.94 L 548.30 657.48 Z" fill="#fcee21" fill-rule="nonzero" group-id="1" node-id="573" stroke="none" target-height="54.049988" target-width="28.980042" target-x="548.3" target-y="603.43"></path><path d="M 570.16 606.94 L 581.16 622.84 C 581.16 622.84 584.39 625.39 587.95 624.17 C 591.33 622.78 594.60 621.15 597.74 619.28 L 601.63 619.83 L 587.00 630.45 C 587.00 630.45 578.43 637.63 572.54 625.95 C 566.65 614.27 570.16 606.94 570.16 606.94 Z" fill="#fcee21" fill-rule="nonzero" group-id="1" node-id="575" stroke="none" target-height="30.690002" target-width="34.97998" target-x="566.65" target-y="606.94"></path><path d="M 546.69 651.06 L 549.43 647.85 C 549.43 647.85 550.17 651.14 551.84 652.31 C 553.51 653.48 553.59 657.98 553.59 657.98 C 553.59 657.98 552.33 660.19 550.67 658.82 C 549.44 657.71 548.32 656.48 547.33 655.15 Z" fill="#ffccc7" fill-rule="nonzero" group-id="1" node-id="577" stroke="none" target-height="12.340027" target-width="6.9000244" target-x="546.69" target-y="647.85"></path><path d="M 556.39 606.42 L 545.58 622.50 C 545.58 622.50 538.69 638.63 546.69 652.31 L 549.57 648.59 C 549.57 648.59 547.07 636.98 549.57 632.59 C 552.07 628.20 554.44 624.80 554.44 624.80 Z" fill="#fcee21" fill-rule="nonzero" group-id="1" node-id="579" stroke="none" target-height="45.890015" target-width="17.700012" target-x="538.69" target-y="606.42"></path><path d="M 602.70 607.93 L 596.74 618.39 L 597.75 619.50 L 604.98 609.10 L 602.70 607.93 Z" fill="#2b304f" fill-rule="nonzero" group-id="1" node-id="581" stroke="none" target-height="11.570007" target-width="8.23999" target-x="596.74" target-y="607.93"></path><path d="M 603.31 611.71 L 603.31 618.94 L 599.73 621.21 L 597.21 619.59 L 603.31 611.71 Z" fill="#ffccc7" fill-rule="nonzero" group-id="1" node-id="583" stroke="none" target-height="9.5" target-width="6.0999756" target-x="597.21" target-y="611.71"></path></g></svg>