<?xml version="1.0" standalone="no"?><!DOCTYPE svg PUBLIC "-//W3C//DTD SVG 1.1//EN" "http://www.w3.org/Graphics/SVG/1.1/DTD/svg11.dtd"><svg height="705" node-id="1" sillyvg="true" template-height="705" template-width="827" version="1.1" viewBox="0 0 827 705" width="827" xmlns="http://www.w3.org/2000/svg" xmlns:xlink="http://www.w3.org/1999/xlink"><defs node-id="318"><linearGradient gradientUnits="userSpaceOnUse" id="未命名的渐变_25" node-id="5" spreadMethod="pad" x1="-1385.52" x2="-1086.8" y1="300.47" y2="300.47"><stop offset="0" stop-color="#fcbd60"></stop><stop offset="1" stop-color="#ff2a9d"></stop></linearGradient><linearGradient gradientUnits="userSpaceOnUse" id="未命名的渐变_25-2" node-id="8" spreadMethod="pad" x1="-8622.34" x2="-8987.38" y1="306.34" y2="306.34"><stop offset="0" stop-color="#fcbd60"></stop><stop offset="1" stop-color="#ff2a9d"></stop></linearGradient><linearGradient gradientUnits="userSpaceOnUse" id="未命名的渐变_22" node-id="9" spreadMethod="pad" x1="-8767.16" x2="-9098.15" y1="420.12" y2="420.12"><stop offset="0" stop-color="#ffe496"></stop><stop offset="1" stop-color="#ff446f"></stop></linearGradient><linearGradient gradientUnits="userSpaceOnUse" id="未命名的渐变_22-2" node-id="12" spreadMethod="pad" x1="-8626.43" x2="-8918.2" y1="373.29" y2="373.29"><stop offset="0" stop-color="#ffe496"></stop><stop offset="1" stop-color="#ff446f"></stop></linearGradient><linearGradient gradientUnits="userSpaceOnUse" id="未命名的渐变_25-3" node-id="13" spreadMethod="pad" x1="-8566.17" x2="-8891.25" y1="476.15" y2="476.15"><stop offset="0" stop-color="#fcbd60"></stop><stop offset="1" stop-color="#ff2a9d"></stop></linearGradient><linearGradient gradientUnits="userSpaceOnUse" id="未命名的渐变_40" node-id="16" spreadMethod="pad" x1="304.17" x2="483.92" y1="433.86" y2="433.86"><stop offset="0" stop-color="#ff4d4f"></stop><stop offset="1" stop-color="#cf1322"></stop></linearGradient><linearGradient gradientUnits="userSpaceOnUse" id="未命名的渐变_34" node-id="19" spreadMethod="pad" x1="290.08" x2="469.83" y1="442.34" y2="442.34"><stop offset="0" stop-color="#ffffff"></stop><stop offset="1" stop-color="#ffccc7"></stop></linearGradient><linearGradient gradientUnits="userSpaceOnUse" id="未命名的渐变_40-2" node-id="22" spreadMethod="pad" x1="275.98" x2="455.73" y1="450.53" y2="450.53"><stop offset="0" stop-color="#ff4d4f"></stop><stop offset="1" stop-color="#cf1322"></stop></linearGradient><linearGradient gradientUnits="userSpaceOnUse" id="未命名的渐变_34-2" node-id="23" spreadMethod="pad" x1="261.89" x2="441.63" y1="458.73" y2="458.73"><stop offset="0" stop-color="#ffffff"></stop><stop offset="1" stop-color="#ffccc7"></stop></linearGradient><linearGradient gradientUnits="userSpaceOnUse" id="未命名的渐变_40-3" node-id="24" spreadMethod="pad" x1="247.79" x2="427.54" y1="466.92" y2="466.92"><stop offset="0" stop-color="#ff4d4f"></stop><stop offset="1" stop-color="#cf1322"></stop></linearGradient><linearGradient gradientUnits="userSpaceOnUse" id="未命名的渐变_34-3" node-id="25" spreadMethod="pad" x1="233.7" x2="413.44" y1="475.11" y2="475.11"><stop offset="0" stop-color="#ffffff"></stop><stop offset="1" stop-color="#ffccc7"></stop></linearGradient><linearGradient gradientUnits="userSpaceOnUse" id="未命名的渐变_40-4" node-id="28" spreadMethod="pad" x1="441.5" x2="360.11" y1="202.29" y2="202.29"><stop offset="0" stop-color="#ff4d4f"></stop><stop offset="1" stop-color="#cf1322"></stop></linearGradient><linearGradient gradientUnits="userSpaceOnUse" id="未命名的渐变_40-5" node-id="29" spreadMethod="pad" x1="413.31" x2="331.92" y1="218.67" y2="218.67"><stop offset="0" stop-color="#ff4d4f"></stop><stop offset="1" stop-color="#cf1322"></stop></linearGradient><linearGradient gradientUnits="userSpaceOnUse" id="未命名的渐变_40-6" node-id="30" spreadMethod="pad" x1="385.12" x2="303.72" y1="235.05" y2="235.05"><stop offset="0" stop-color="#ff4d4f"></stop><stop offset="1" stop-color="#cf1322"></stop></linearGradient><linearGradient gradientUnits="userSpaceOnUse" id="未命名的渐变_40-7" node-id="33" spreadMethod="pad" x1="554.23" x2="483.79" y1="264.58" y2="264.58"><stop offset="0" stop-color="#ff4d4f"></stop><stop offset="1" stop-color="#cf1322"></stop></linearGradient><linearGradient gradientUnits="userSpaceOnUse" id="未命名的渐变_40-8" node-id="34" spreadMethod="pad" x1="526.04" x2="455.6" y1="280.96" y2="280.96"><stop offset="0" stop-color="#ff4d4f"></stop><stop offset="1" stop-color="#cf1322"></stop></linearGradient><linearGradient gradientUnits="userSpaceOnUse" id="未命名的渐变_40-9" node-id="37" spreadMethod="pad" x1="540.14" x2="641.17" y1="425.62" y2="425.62"><stop offset="0" stop-color="#ff4d4f"></stop><stop offset="1" stop-color="#cf1322"></stop></linearGradient><linearGradient gradientUnits="userSpaceOnUse" id="未命名的渐变_40-10" node-id="38" spreadMethod="pad" x1="511.95" x2="612.34" y1="442" y2="442"><stop offset="0" stop-color="#ff4d4f"></stop><stop offset="1" stop-color="#cf1322"></stop></linearGradient><linearGradient gradientUnits="userSpaceOnUse" id="未命名的渐变_40-11" node-id="39" spreadMethod="pad" x1="483.76" x2="584.15" y1="458.39" y2="458.39"><stop offset="0" stop-color="#ff4d4f"></stop><stop offset="1" stop-color="#cf1322"></stop></linearGradient><linearGradient gradientUnits="userSpaceOnUse" id="未命名的渐变_40-12" node-id="40" spreadMethod="pad" x1="455.56" x2="556.59" y1="474.77" y2="474.77"><stop offset="0" stop-color="#ff4d4f"></stop><stop offset="1" stop-color="#cf1322"></stop></linearGradient><linearGradient gradientUnits="userSpaceOnUse" id="未命名的渐变_40-13" node-id="41" spreadMethod="pad" x1="427.37" x2="527.76" y1="491.15" y2="491.15"><stop offset="0" stop-color="#ff4d4f"></stop><stop offset="1" stop-color="#cf1322"></stop></linearGradient><linearGradient gradientUnits="userSpaceOnUse" id="未命名的渐变_40-14" node-id="48" spreadMethod="pad" x1="628" x2="479.13" y1="100.4" y2="100.4"><stop offset="0" stop-color="#ff4d4f"></stop><stop offset="1" stop-color="#cf1322"></stop></linearGradient><linearGradient gradientUnits="userSpaceOnUse" id="未命名的渐变_34-4" node-id="49" spreadMethod="pad" x1="613.9" x2="465.03" y1="108.59" y2="108.59"><stop offset="0" stop-color="#ffffff"></stop><stop offset="1" stop-color="#ffccc7"></stop></linearGradient><linearGradient gradientUnits="userSpaceOnUse" id="未命名的渐变_40-15" node-id="50" spreadMethod="pad" x1="599.81" x2="450.93" y1="116.79" y2="116.79"><stop offset="0" stop-color="#ff4d4f"></stop><stop offset="1" stop-color="#cf1322"></stop></linearGradient><linearGradient gradientUnits="userSpaceOnUse" id="未命名的渐变_34-5" node-id="51" spreadMethod="pad" x1="585.71" x2="436.84" y1="124.98" y2="124.98"><stop offset="0" stop-color="#ffffff"></stop><stop offset="1" stop-color="#ffccc7"></stop></linearGradient><linearGradient gradientUnits="userSpaceOnUse" id="未命名的渐变_40-16" node-id="52" spreadMethod="pad" x1="571.61" x2="422.74" y1="133.17" y2="133.17"><stop offset="0" stop-color="#ff4d4f"></stop><stop offset="1" stop-color="#cf1322"></stop></linearGradient><linearGradient gradientUnits="userSpaceOnUse" id="未命名的渐变_34-6" node-id="53" spreadMethod="pad" x1="557.52" x2="408.65" y1="141.36" y2="141.36"><stop offset="0" stop-color="#ffffff"></stop><stop offset="1" stop-color="#ffccc7"></stop></linearGradient><linearGradient gradientUnits="userSpaceOnUse" id="未命名的渐变_40-17" node-id="54" spreadMethod="pad" x1="543.42" x2="394.55" y1="149.55" y2="149.55"><stop offset="0" stop-color="#ff4d4f"></stop><stop offset="1" stop-color="#cf1322"></stop></linearGradient><linearGradient gradientUnits="userSpaceOnUse" id="未命名的渐变_34-7" node-id="55" spreadMethod="pad" x1="529.33" x2="380.45" y1="157.74" y2="157.74"><stop offset="0" stop-color="#ffffff"></stop><stop offset="1" stop-color="#ffccc7"></stop></linearGradient><linearGradient gradientUnits="userSpaceOnUse" id="未命名的渐变_40-18" node-id="56" spreadMethod="pad" x1="515.23" x2="366.36" y1="165.94" y2="165.94"><stop offset="0" stop-color="#ff4d4f"></stop><stop offset="1" stop-color="#cf1322"></stop></linearGradient><linearGradient gradientUnits="userSpaceOnUse" id="未命名的渐变_34-8" node-id="57" spreadMethod="pad" x1="501.13" x2="352.26" y1="174.13" y2="174.13"><stop offset="0" stop-color="#ffffff"></stop><stop offset="1" stop-color="#ffccc7"></stop></linearGradient><linearGradient gradientUnits="userSpaceOnUse" id="未命名的渐变_7" node-id="58" spreadMethod="pad" x1="499.57" x2="184.06" y1="362.73" y2="362.73"><stop offset="0" stop-color="#f5222d"></stop><stop offset="1" stop-color="#cf1322"></stop></linearGradient><clipPath id="clip-path" node-id="14"><path d="M 540.31 460.65 L 399.31 542.56 C 388.00 549.15 369.00 545.68 342.90 530.61 C 305.09 508.78 264.43 463.21 233.69 412.66 L 374.69 330.74 C 405.43 381.30 446.09 426.87 483.90 448.74 C 510.00 463.76 529.00 467.24 540.31 460.65 Z" fill="#000000" fill-rule="nonzero" node-id="513" stroke="none" target-height="218.41003" target-width="306.62" target-x="233.69" target-y="330.74"></path></clipPath><clipPath id="clip-path-2" node-id="26"><path d="M 301.06 182.28 L 442.06 100.36 C 434.72 104.63 430.67 113.36 430.63 126.69 C 430.53 162.12 461.32 192.62 497.92 230.49 L 356.92 312.41 C 320.32 274.53 289.53 244.03 289.63 208.61 C 289.67 195.31 293.72 186.54 301.06 182.28 Z" fill="#000000" fill-rule="nonzero" node-id="517" stroke="none" target-height="212.05" target-width="208.39001" target-x="289.53" target-y="100.36"></path></clipPath><clipPath id="clip-path-3" node-id="31"><path d="M 356.92 312.40 L 497.88 230.49 L 554.23 290.48 L 413.27 372.39 L 356.92 312.40 Z" fill="#000000" fill-rule="nonzero" node-id="521" stroke="none" target-height="141.90001" target-width="197.30997" target-x="356.92" target-y="230.49"></path></clipPath><clipPath id="clip-path-4" node-id="35"><path d="M 605.11 552.57 L 464.11 634.49 C 487.04 621.16 499.43 593.78 499.53 556.79 C 499.73 485.27 465.53 427.35 413.23 372.39 L 554.23 290.48 C 606.52 345.43 640.73 403.35 640.53 474.87 C 640.43 511.87 628.00 539.25 605.11 552.57 Z" fill="#000000" fill-rule="nonzero" node-id="525" stroke="none" target-height="344.00998" target-width="227.49997" target-x="413.23" target-y="290.48"></path></clipPath><clipPath id="clip-path-5" node-id="42"><path d="M 236.83 90.76 L 377.83 8.85 C 404.37 -6.60 444.90 -2.30 493.22 25.60 L 352.22 107.51 C 303.94 79.61 263.41 75.31 236.83 90.76 Z" fill="#000000" fill-rule="nonzero" node-id="529" stroke="none" target-height="114.11" target-width="256.39" target-x="236.83" target-y="-6.6"></path></clipPath><clipPath id="clip-path-6" node-id="44"><path d="M 487.04 248.94 L 628.00 167.02 L 584.20 203.99 L 443.24 285.91 L 487.04 248.94 Z" fill="#000000" fill-rule="nonzero" node-id="533" stroke="none" target-height="118.89" target-width="184.76001" target-x="443.24" target-y="167.02"></path></clipPath><clipPath id="clip-path-7" node-id="46"><path d="M 352.26 107.51 L 493.26 25.60 C 543.26 54.48 593.26 106.09 628.04 167.02 L 487.00 248.94 C 452.25 188.00 402.29 136.40 352.26 107.51 Z" fill="#000000" fill-rule="nonzero" node-id="537" stroke="none" target-height="223.34" target-width="275.77997" target-x="352.26" target-y="25.6"></path></clipPath></defs><g node-id="1076"><path d="M 709.20 142.56 C 709.19 136.21 704.23 130.97 697.89 130.60 C 691.55 130.24 686.02 134.88 685.28 141.19 C 684.54 147.50 688.85 153.29 695.10 154.40 C 687.96 220.81 655.68 253.58 629.18 269.46 C 618.05 276.07 606.04 281.08 593.51 284.34 C 593.34 283.04 592.21 281.61 590.36 280.26 C 653.48 241.26 660.53 163.49 661.08 137.74 C 667.47 137.71 672.72 132.67 673.01 126.28 C 673.30 119.90 668.53 114.40 662.16 113.79 C 655.80 113.19 650.08 117.67 649.15 124.00 C 648.22 130.32 652.41 136.26 658.68 137.51 C 658.18 162.77 651.32 240.51 588.07 278.84 C 584.89 277.20 581.46 276.08 577.92 275.55 C 614.00 234.00 621.00 152.90 622.22 130.42 C 627.92 129.78 632.13 124.80 631.81 119.07 C 631.49 113.35 626.75 108.87 621.01 108.87 C 615.28 108.87 610.54 113.35 610.22 119.07 C 609.90 124.80 614.11 129.78 619.81 130.42 C 618.55 153.00 611.51 234.72 575.00 275.21 C 574.00 275.12 573.00 275.06 571.89 275.06 C 571.04 275.06 570.21 275.06 569.39 275.15 L 558.12 137.68 C 564.54 137.33 569.56 132.00 569.53 125.57 C 569.49 119.14 564.43 113.86 558.00 113.57 C 551.58 113.28 546.05 118.07 545.44 124.48 C 544.83 130.88 549.34 136.63 555.70 137.57 L 567.00 275.39 C 564.71 275.68 562.45 276.19 560.25 276.91 C 525.68 258.71 515.38 181.05 512.61 149.70 C 519.02 149.22 523.93 143.80 523.78 137.37 C 523.63 130.94 518.47 125.76 512.04 125.58 C 505.62 125.40 500.17 130.28 499.66 136.69 C 499.15 143.10 503.75 148.79 510.12 149.63 C 512.72 180.71 522.59 257.39 557.34 278.04 C 555.49 278.83 553.77 279.89 552.25 281.21 C 490.77 263.80 473.88 193.33 469.63 166.33 C 475.16 164.95 478.65 159.51 477.60 153.91 C 476.55 148.31 471.32 144.50 465.67 145.22 C 460.02 145.93 455.91 150.92 456.29 156.60 C 456.67 162.29 461.41 166.69 467.10 166.65 L 467.24 166.65 C 471.55 193.94 488.60 264.99 550.62 283.24 C 550.37 283.69 550.23 284.19 550.21 284.71 C 550.33 285.89 550.98 286.94 551.98 287.57 C 493.73 289.09 462.54 260.09 446.48 234.75 C 434.39 215.67 428.89 195.89 426.54 184.55 C 431.26 181.89 433.26 176.13 431.21 171.12 C 429.17 166.10 423.71 163.39 418.48 164.78 C 413.24 166.18 409.86 171.25 410.59 176.62 C 411.31 181.99 415.91 185.98 421.33 185.94 C 422.33 185.93 423.32 185.77 424.28 185.48 C 426.72 197.09 432.28 216.86 444.40 235.97 C 460.40 261.22 491.00 290.06 547.54 290.06 C 550.44 290.06 553.45 289.95 556.54 289.79 C 561.31 291.23 566.27 291.95 571.25 291.92 C 586.40 451.77 552.93 486.53 552.59 486.92 L 555.08 489.53 L 557.55 492.17 C 559.00 490.70 594.00 456.00 578.41 291.59 C 584.87 290.91 590.00 289.25 592.27 287.14 C 605.65 283.85 618.47 278.61 630.32 271.58 C 657.32 255.42 690.32 222.08 697.51 154.58 C 704.02 154.41 709.21 149.08 709.20 142.56 Z" fill="url(#未命名的渐变_25)" fill-rule="nonzero" group-id="1" node-id="543" stroke="none" target-height="383.30264" target-width="299.35083" target-x="409.86218" target-y="108.86737"></path><path d="M 549.49 392.20 C 547.08 384.98 513.32 259.67 592.85 339.20 C 592.85 339.20 616.95 372.93 602.49 440.38 C 597.67 474.11 679.58 416.29 638.63 319.93 C 597.68 223.57 684.40 129.61 710.90 175.39 C 737.40 221.17 696.45 312.70 684.40 341.61 C 672.35 370.52 684.40 411.48 713.31 372.93 C 742.22 334.38 766.31 254.93 759.08 172.93 C 751.85 90.93 790.40 33.25 802.45 33.25 C 814.50 33.25 826.54 40.48 826.54 71.79 C 826.54 71.79 833.54 555.42 493.07 579.41 C 490.86 579.57 488.76 578.46 487.64 576.55 C 486.52 574.64 486.59 572.26 487.81 570.41 C 495.26 559.04 498.34 545.36 496.49 531.89 C 491.67 493.34 479.63 483.71 465.17 466.89 C 450.71 450.07 482.04 394.62 506.17 450.03 C 530.30 505.44 523.03 522.30 554.35 517.49 C 585.67 512.68 551.94 399.49 549.53 392.21 C 547.12 384.93 510.99 262.12 592.89 339.21" fill="url(#未命名的渐变_25-2)" fill-rule="nonzero" group-id="1" node-id="545" stroke="none" target-height="546.3176" target-width="382.83" target-x="450.71" target-y="33.25"></path><path d="M 466.72 468.13 C 468.22 470.83 471.36 472.17 474.34 471.38 C 477.34 470.48 480.34 467.47 480.34 459.04 C 480.34 444.14 467.18 325.91 464.11 298.48 C 463.62 294.14 463.86 289.74 464.81 285.48 C 467.90 271.48 476.89 244.11 497.20 266.27 C 520.87 292.09 504.20 427.44 500.34 456.08 C 500.00 458.38 500.64 460.71 502.11 462.51 C 503.57 464.31 505.72 465.42 508.04 465.56 C 512.59 465.73 519.22 463.82 528.52 456.56 C 546.71 442.41 578.52 379.04 588.23 359.04 C 591.29 352.55 596.33 347.20 602.63 343.76 C 610.25 339.71 620.14 338.66 627.29 352.97 C 634.44 367.28 639.29 379.47 617.65 403.56 C 600.25 423.00 559.86 447.00 550.23 473.49 C 540.60 499.98 574.32 485.54 574.32 485.54 C 574.32 485.54 663.46 425.31 677.91 447.00 C 685.14 457.84 680.91 467.48 674.91 474.41 C 669.00 481.02 661.08 485.52 652.37 487.21 C 632.80 491.27 586.20 502.76 576.74 521.68 C 563.10 548.93 511.68 594.00 468.32 579.49 C 424.96 564.98 463.50 524.08 412.91 492.76 C 362.32 461.44 316.55 393.99 386.41 413.26 C 439.47 427.90 461.08 458.51 466.72 468.13 Z" fill="url(#未命名的渐变_22)" fill-rule="nonzero" group-id="1" node-id="547" stroke="none" target-height="349.89" target-width="368.59003" target-x="316.55" target-y="244.11"></path><path d="M 286.85 544.43 C 286.85 544.43 130.47 411.72 59.70 261.00 C 57.70 256.70 54.72 252.94 51.00 250.00 C 36.19 238.28 -1.21 215.78 0.00 287.44 C 1.71 298.20 15.08 436.67 286.85 544.43 Z" fill="#f5222d" fill-rule="nonzero" group-id="1" node-id="549" stroke="none" target-height="328.65" target-width="288.06" target-x="-1.21" target-y="215.78"></path><path d="M 364.87 441.92 C 366.80 436.14 393.78 335.98 330.21 399.56 C 330.21 399.56 310.95 426.51 322.51 480.43 C 326.36 507.43 260.89 461.17 293.63 384.15 C 326.37 307.13 257.00 232.00 235.86 268.62 C 214.72 305.24 247.41 378.38 257.00 401.48 C 266.59 424.58 257.00 457.32 233.89 426.48 C 210.78 395.64 191.53 332.13 197.31 266.66 C 203.09 201.19 172.32 155.00 162.69 155.00 C 153.06 155.00 143.43 160.78 143.43 185.81 C 143.43 185.81 137.80 572.36 409.96 591.54 C 411.72 591.66 413.39 590.77 414.28 589.25 C 415.17 587.74 415.13 585.85 414.17 584.37 C 408.22 575.28 405.75 564.35 407.23 553.59 C 411.08 522.78 420.71 515.08 432.23 501.59 C 443.75 488.10 418.75 443.82 399.50 488.11 C 380.25 532.40 386.05 545.90 361.00 542.00 C 335.95 538.10 362.92 447.65 364.85 441.88 C 366.78 436.11 395.66 337.88 330.19 399.52" fill="url(#未命名的渐变_22-2)" fill-rule="nonzero" group-id="1" node-id="551" stroke="none" target-height="436.6568" target-width="305.95" target-x="137.8" target-y="155"></path><path d="M 312.00 561.49 C 312.00 561.49 275.42 540.31 240.76 544.16 C 206.10 548.01 154.11 528.75 175.29 507.57 C 196.02 486.85 251.78 493.78 274.00 515.74 C 275.17 516.98 277.01 517.29 278.52 516.50 C 279.74 515.78 280.25 514.34 277.34 511.43 C 271.57 505.65 213.80 469.06 254.24 447.88 C 289.94 429.18 310.63 493.05 314.99 508.25 C 315.63 510.69 317.91 512.33 320.43 512.15 C 322.59 511.91 324.52 510.46 323.56 505.65 C 320.90 492.30 312.00 461.36 302.38 444.00 C 295.64 431.86 302.38 382.39 327.38 392.00 C 352.38 401.61 364.00 447.88 364.00 476.77 C 364.00 488.32 373.63 469.06 373.63 469.06 C 373.63 469.06 406.36 378.56 421.77 411.30 C 437.18 444.04 412.26 499.75 396.77 515.30 C 390.99 521.07 406.39 517.22 406.39 517.22 C 406.39 517.22 485.34 497.97 494.97 532.63 C 504.60 567.29 379.44 524.92 325.52 561.51 Z" fill="url(#未命名的渐变_25-3)" fill-rule="nonzero" group-id="1" node-id="553" stroke="none" target-height="188.72998" target-width="350.49" target-x="154.11" target-y="378.56"></path><g node-id="1077"><g node-id="1082"><g clip-path="url(#clip-path)" group-id="1,2,7" node-id="559"><path d="M 233.69 412.66 L 374.69 330.74 C 378.78 337.47 383.04 344.10 387.46 350.62 L 246.46 432.54 C 242.04 426.03 237.78 419.40 233.68 412.66" fill="#ffffff" fill-rule="nonzero" group-id="1,2,7,14,21" node-id="563" stroke="none" target-height="101.80002" target-width="153.78" target-x="233.68" target-y="330.74"></path><path d="M 246.47 432.54 L 387.47 350.62 C 391.14 356.03 394.90 361.33 398.76 366.54 L 257.76 448.46 C 253.91 443.26 250.15 437.95 246.48 432.54" fill="#ffffff" fill-rule="nonzero" group-id="1,2,7,14,21" node-id="565" stroke="none" target-height="97.84" target-width="152.29001" target-x="246.47" target-y="350.62"></path><path d="M 257.75 448.46 L 398.75 366.54 C 401.42 370.14 404.12 373.68 406.86 377.17 L 265.86 459.08 C 263.12 455.60 260.42 452.06 257.75 448.46" fill="#ffffff" fill-rule="nonzero" group-id="1,2,7,14,21" node-id="567" stroke="none" target-height="92.53998" target-width="149.10999" target-x="257.75" target-y="366.54"></path><path d="M 265.86 459.08 L 406.86 377.17 C 409.27 380.22 411.70 383.22 414.15 386.17 L 273.15 468.09 C 270.70 465.14 268.27 462.14 265.86 459.09" fill="#ffffff" fill-rule="nonzero" group-id="1,2,7,14,21" node-id="569" stroke="none" target-height="90.91998" target-width="148.29001" target-x="265.86" target-y="377.17"></path><path d="M 273.15 468.09 L 414.15 386.17 C 416.48 388.97 418.83 391.72 421.20 394.42 L 280.20 476.34 C 277.83 473.64 275.48 470.89 273.15 468.09" fill="#ffffff" fill-rule="nonzero" group-id="1,2,7,14,21" node-id="571" stroke="none" target-height="90.16998" target-width="148.05002" target-x="273.15" target-y="386.17"></path><path d="M 280.20 476.34 L 421.20 394.42 C 423.49 397.03 425.79 399.58 428.12 402.09 L 287.12 484.00 C 284.80 481.50 282.49 478.94 280.20 476.33" fill="#ffffff" fill-rule="nonzero" group-id="1,2,7,14,21" node-id="573" stroke="none" target-height="89.57999" target-width="147.91998" target-x="280.2" target-y="394.42"></path><path d="M 287.12 484.00 L 428.12 402.08 C 430.43 404.57 432.74 407.00 435.07 409.37 L 294.07 491.29 C 291.74 488.92 289.43 486.49 287.12 484.00" fill="#fafafa" fill-rule="nonzero" group-id="1,2,7,14,21" node-id="575" stroke="none" target-height="89.21002" target-width="147.95001" target-x="287.12" target-y="402.08"></path><path d="M 294.07 491.30 L 435.07 409.38 C 437.38 411.73 439.72 414.03 442.07 416.26 L 301.00 498.18 C 298.67 495.95 296.33 493.65 294.00 491.30" fill="#f5f5f5" fill-rule="nonzero" group-id="1,2,7,14,21" node-id="577" stroke="none" target-height="88.79999" target-width="148.07" target-x="294" target-y="409.38"></path><path d="M 301.00 498.18 L 442.00 416.26 C 444.28 418.45 446.56 420.57 448.85 422.64 L 307.85 504.55 C 305.56 502.49 303.27 500.37 301.00 498.18" fill="#f0f0f0" fill-rule="nonzero" group-id="1,2,7,14,21" node-id="579" stroke="none" target-height="88.28998" target-width="147.85" target-x="301" target-y="416.26"></path><path d="M 307.88 504.55 L 448.88 422.64 C 451.08 424.64 453.28 426.56 455.48 428.39 L 314.48 510.31 C 312.28 508.45 310.08 506.53 307.88 504.55" fill="#ebebeb" fill-rule="nonzero" group-id="1,2,7,14,21" node-id="581" stroke="none" target-height="87.66998" target-width="147.6" target-x="307.88" target-y="422.64"></path><path d="M 314.48 510.31 L 455.48 428.39 C 457.55 430.14 459.63 431.84 461.70 433.48 L 320.70 515.39 C 318.63 513.76 316.55 512.06 314.48 510.31" fill="#e6e6e6" fill-rule="nonzero" group-id="1,2,7,14,21" node-id="583" stroke="none" target-height="87" target-width="147.22" target-x="314.48" target-y="428.39"></path><path d="M 320.70 515.39 L 461.70 433.48 C 463.65 435.01 465.60 436.49 467.53 437.92 L 326.53 519.84 C 324.59 518.41 322.65 516.92 320.70 515.39" fill="#e0e0e0" fill-rule="nonzero" group-id="1,2,7,14,21" node-id="585" stroke="none" target-height="86.360016" target-width="146.82999" target-x="320.7" target-y="433.48"></path><path d="M 326.53 519.84 L 467.53 437.92 C 469.35 439.25 471.17 440.54 472.98 441.79 L 332.00 523.71 C 330.19 522.47 328.37 521.18 326.55 519.84" fill="#dbdbdb" fill-rule="nonzero" group-id="1,2,7,14,21" node-id="587" stroke="none" target-height="85.79001" target-width="146.45001" target-x="326.53" target-y="437.92"></path><path d="M 332.00 523.71 L 473.00 441.79 C 474.70 442.96 476.39 444.08 478.09 445.16 L 337.09 527.07 C 335.40 526.00 333.70 524.87 332.00 523.71" fill="#d6d6d6" fill-rule="nonzero" group-id="1,2,7,14,21" node-id="589" stroke="none" target-height="85.28" target-width="146.09" target-x="332" target-y="441.79"></path><path d="M 337.07 527.07 L 478.07 445.16 C 479.65 446.16 481.23 447.13 482.81 448.06 L 341.81 530.00 C 340.24 529.07 338.65 528.10 337.07 527.09" fill="#d1d1d1" fill-rule="nonzero" group-id="1,2,7,14,21" node-id="591" stroke="none" target-height="84.84" target-width="145.73999" target-x="337.07" target-y="445.16"></path><path d="M 341.81 530.00 L 482.81 448.08 L 483.90 448.72 C 485.48 449.63 487.03 450.50 488.56 451.32 L 347.56 533.24 C 346.03 532.41 344.47 531.54 342.90 530.63 L 341.81 530.00" fill="#cccccc" fill-rule="nonzero" group-id="1,2,7,14,21" node-id="593" stroke="none" target-height="85.16" target-width="146.75" target-x="341.81" target-y="448.08"></path><path d="M 347.56 533.22 L 488.56 451.30 C 490.43 452.32 492.27 453.27 494.07 454.16 L 353.07 536.08 C 351.27 535.19 349.43 534.24 347.56 533.22" fill="#c7c7c7" fill-rule="nonzero" group-id="1,2,7,14,21" node-id="595" stroke="none" target-height="84.78003" target-width="146.51001" target-x="347.56" target-y="451.3"></path><path d="M 353.07 536.08 L 494.07 454.16 C 495.75 455.00 497.42 455.78 499.07 456.50 L 358.00 538.42 C 356.38 537.69 354.73 536.91 353.05 536.08" fill="#c2c2c2" fill-rule="nonzero" group-id="1,2,7,14,21" node-id="597" stroke="none" target-height="84.25998" target-width="146.02002" target-x="353.05" target-y="454.16"></path><path d="M 358.00 538.42 L 499.00 456.50 C 500.53 457.19 502.00 457.82 503.50 458.41 L 362.50 540.33 C 361.03 539.74 359.53 539.10 358.00 538.42" fill="#bdbdbd" fill-rule="nonzero" group-id="1,2,7,14,21" node-id="599" stroke="none" target-height="83.83002" target-width="145.5" target-x="358" target-y="456.5"></path><path d="M 362.52 540.33 L 503.52 458.41 C 504.91 458.97 506.28 459.48 507.61 459.95 L 366.61 541.87 C 365.28 541.40 363.91 540.87 362.52 540.33" fill="#b8b8b8" fill-rule="nonzero" group-id="1,2,7,14,21" node-id="601" stroke="none" target-height="83.45999" target-width="145.09" target-x="362.52" target-y="458.41"></path><path d="M 366.61 541.87 L 507.61 459.95 C 508.89 460.41 510.14 460.82 511.37 461.19 L 370.37 543.10 C 369.14 542.73 367.89 542.32 366.61 541.87" fill="#b3b3b3" fill-rule="nonzero" group-id="1,2,7,14,21" node-id="603" stroke="none" target-height="83.14996" target-width="144.76001" target-x="366.61" target-y="459.95"></path><path d="M 370.37 543.10 L 511.37 461.19 C 512.57 461.55 513.74 461.87 514.89 462.19 L 373.89 544.11 C 372.74 543.82 371.57 543.50 370.37 543.11" fill="#adadad" fill-rule="nonzero" group-id="1,2,7,14,21" node-id="605" stroke="none" target-height="82.91998" target-width="144.52002" target-x="370.37" target-y="461.19"></path><path d="M 373.89 544.08 L 514.89 462.16 C 516.01 462.44 517.11 462.69 518.19 462.90 L 377.19 544.82 C 376.11 544.61 375.01 544.36 373.89 544.08" fill="#a8a8a8" fill-rule="nonzero" group-id="1,2,7,14,21" node-id="607" stroke="none" target-height="82.66" target-width="144.29999" target-x="373.89" target-y="462.16"></path><path d="M 377.19 544.82 L 518.19 462.90 C 519.26 463.11 520.30 463.28 521.32 463.42 L 380.32 545.34 C 379.32 545.20 378.26 545.02 377.19 544.82" fill="#a3a3a3" fill-rule="nonzero" group-id="1,2,7,14,21" node-id="609" stroke="none" target-height="82.44003" target-width="144.13" target-x="377.19" target-y="462.9"></path><path d="M 380.32 545.34 L 521.32 463.42 C 522.32 463.56 523.32 463.66 524.32 463.73 L 383.32 545.65 C 382.32 545.58 381.32 545.48 380.32 545.34" fill="#9e9e9e" fill-rule="nonzero" group-id="1,2,7,14,21" node-id="611" stroke="none" target-height="82.23001" target-width="144" target-x="380.32" target-y="463.42"></path><path d="M 383.34 545.65 L 524.34 463.73 C 525.34 463.80 526.34 463.83 527.26 463.83 L 386.26 545.75 C 385.32 545.75 384.34 545.75 383.34 545.65" fill="#999999" fill-rule="nonzero" group-id="1,2,7,14,21" node-id="613" stroke="none" target-height="82.01999" target-width="143.92001" target-x="383.34" target-y="463.73"></path><path d="M 386.26 545.75 L 527.26 463.83 C 528.26 463.83 529.26 463.78 530.26 463.70 L 389.26 545.61 C 388.26 545.70 387.26 545.74 386.26 545.75" fill="#949494" fill-rule="nonzero" group-id="1,2,7,14,21" node-id="615" stroke="none" target-height="82.04999" target-width="144" target-x="386.26" target-y="463.7"></path><path d="M 389.24 545.61 L 530.24 463.70 C 531.27 463.60 532.30 463.45 533.32 463.25 L 392.32 545.17 C 391.31 545.38 390.28 545.52 389.25 545.61" fill="#8f8f8f" fill-rule="nonzero" group-id="1,2,7,14,21" node-id="617" stroke="none" target-height="82.359985" target-width="144.08002" target-x="389.24" target-y="463.25"></path><path d="M 392.31 545.17 L 533.31 463.25 C 534.48 463.02 535.63 462.70 536.76 462.30 L 395.76 544.22 C 394.64 544.62 393.48 544.94 392.31 545.17" fill="#8a8a8a" fill-rule="nonzero" group-id="1,2,7,14,21" node-id="619" stroke="none" target-height="82.869995" target-width="144.45001" target-x="392.31" target-y="462.3"></path><path d="M 395.76 544.22 L 536.76 462.30 C 538.01 461.86 539.21 461.31 540.35 460.65 L 399.35 542.56 C 398.21 543.22 397.01 543.78 395.76 544.22" fill="#858585" fill-rule="nonzero" group-id="1,2,7,14,21" node-id="621" stroke="none" target-height="83.56998" target-width="144.58997" target-x="395.76" target-y="460.65"></path><path d="M 526.21 468.84 C 514.87 475.43 495.86 471.95 469.77 456.89 C 432.00 435.06 391.30 389.49 360.56 338.94 L 374.65 330.75 C 405.39 381.30 446.05 426.87 483.86 448.75 C 509.95 463.81 528.96 467.29 540.31 460.70 L 526.21 468.89" fill="#cf1322" fill-rule="nonzero" group-id="1,2,7,14" node-id="624" stroke="none" target-height="144.68" target-width="179.75" target-x="360.56" target-y="330.75"></path><path d="M 512.11 477.00 C 500.77 483.59 481.76 480.12 455.67 465.05 C 417.86 443.22 377.20 397.65 346.46 347.10 L 360.56 338.91 C 391.30 389.46 431.96 435.03 469.77 456.91 C 495.86 471.97 514.87 475.45 526.21 468.86 L 512.11 477.00" fill="#ffffff" fill-rule="nonzero" group-id="1,2,7,14" node-id="626" stroke="none" target-height="144.68" target-width="179.75003" target-x="346.46" target-y="338.91"></path><path d="M 498.00 485.22 C 486.66 491.81 467.65 488.34 441.55 473.22 C 403.74 451.39 363.09 405.82 332.35 355.27 L 346.44 347.08 C 377.18 397.63 417.84 443.20 455.65 465.08 C 481.74 480.15 500.75 483.62 512.09 477.03 L 498.00 485.22" fill="#cf1322" fill-rule="nonzero" group-id="1,2,7,14" node-id="628" stroke="none" target-height="144.73001" target-width="179.74002" target-x="332.35" target-y="347.08"></path><path d="M 483.92 493.41 C 472.58 500.01 453.57 496.53 427.48 481.41 C 389.67 459.58 349.01 414.01 318.27 363.46 L 332.37 355.27 C 363.11 405.82 403.76 451.39 441.57 473.27 C 467.67 488.34 486.68 491.81 498.02 485.27 L 483.92 493.46" fill="#ffffff" fill-rule="nonzero" group-id="1,2,7,14" node-id="630" stroke="none" target-height="144.74002" target-width="179.75" target-x="318.27" target-y="355.27"></path><path d="M 469.83 501.60 C 443.16 514.33 372.06 481.84 304.17 371.71 L 318.27 363.51 C 349.01 414.06 389.67 459.63 427.48 481.51 C 453.57 496.58 472.58 500.06 483.92 493.51 L 469.83 501.70" fill="url(#未命名的渐变_40)" fill-rule="nonzero" group-id="1,2,7,14" node-id="632" stroke="none" target-height="150.82" target-width="179.75" target-x="304.17" target-y="363.51"></path><path d="M 455.73 509.80 C 444.39 516.39 425.38 512.91 399.29 497.85 C 361.48 476.02 320.82 430.45 290.08 379.85 L 304.17 371.66 C 373.17 482.80 443.82 514.87 469.83 501.55 L 455.73 509.75" fill="url(#未命名的渐变_34)" fill-rule="nonzero" group-id="1,2,7,14" node-id="634" stroke="none" target-height="144.73001" target-width="179.75" target-x="290.08" target-y="371.66"></path><path d="M 441.63 518.00 C 430.29 524.59 411.28 521.11 385.19 506.05 C 347.38 484.22 306.72 438.65 275.98 388.05 L 290.08 379.86 C 320.82 430.41 361.48 475.98 399.29 497.86 C 425.38 512.92 444.39 516.40 455.73 509.81 L 441.63 518.00" fill="url(#未命名的渐变_40-2)" fill-rule="nonzero" group-id="1,2,7,14" node-id="636" stroke="none" target-height="144.73004" target-width="179.75" target-x="275.98" target-y="379.86"></path><path d="M 427.54 526.18 C 416.20 532.77 397.19 529.29 371.09 514.23 C 333.28 492.40 292.63 446.83 261.89 396.23 L 276.00 388.09 C 306.74 438.64 347.40 484.21 385.21 506.09 C 411.30 521.15 430.31 524.63 441.65 518.04 L 427.56 526.23" fill="url(#未命名的渐变_34-2)" fill-rule="nonzero" group-id="1,2,7,14" node-id="638" stroke="none" target-height="144.68002" target-width="179.75998" target-x="261.89" target-y="388.09"></path><path d="M 413.44 534.37 C 402.10 540.96 383.09 537.49 357.00 522.37 C 319.19 500.54 278.53 454.97 247.79 404.42 L 261.89 396.23 C 292.63 446.78 333.28 492.35 371.09 514.23 C 397.19 529.29 416.20 532.77 427.54 526.18 L 413.44 534.37" fill="url(#未命名的渐变_40-3)" fill-rule="nonzero" group-id="1,2,7,14" node-id="640" stroke="none" target-height="144.73001" target-width="179.75002" target-x="247.79" target-y="396.23"></path><path d="M 399.35 542.56 C 388.00 549.15 369.00 545.68 342.90 530.61 C 305.09 508.78 264.43 463.21 233.70 412.66 L 247.79 404.47 C 278.53 455.00 319.19 500.59 357.00 522.42 C 383.09 537.49 402.10 540.96 413.44 534.42 L 399.35 542.61" fill="url(#未命名的渐变_34-3)" fill-rule="nonzero" group-id="1,2,7,14" node-id="642" stroke="none" target-height="144.68002" target-width="179.74" target-x="233.7" target-y="404.47"></path></g></g><g node-id="1083"><g clip-path="url(#clip-path-2)" group-id="1,2,8" node-id="648"><path d="M 301.06 182.28 L 442.06 100.36 C 439.34 101.95 437.04 104.18 435.36 106.85 L 294.36 188.77 C 296.04 186.10 298.34 183.87 301.06 182.28" fill="#858585" fill-rule="nonzero" group-id="1,2,8,15,22" node-id="652" stroke="none" target-height="88.41" target-width="147.70001" target-x="294.36" target-y="100.36"></path><path d="M 294.36 188.77 L 435.36 106.85 C 434.84 107.67 434.37 108.52 433.95 109.39 L 293.00 191.31 C 293.42 190.43 293.89 189.59 294.41 188.77" fill="#8a8a8a" fill-rule="nonzero" group-id="1,2,8,15,22" node-id="654" stroke="none" target-height="84.46" target-width="142.35999" target-x="293" target-y="106.85"></path><path d="M 293.00 191.31 L 434.00 109.39 C 433.66 110.10 433.34 110.85 433.00 111.63 L 292.00 193.55 C 292.29 192.77 292.61 192.02 292.95 191.31" fill="#8f8f8f" fill-rule="nonzero" group-id="1,2,8,15,22" node-id="656" stroke="none" target-height="84.16" target-width="142" target-x="292" target-y="109.39"></path><path d="M 292.00 193.55 L 433.00 111.63 C 432.74 112.33 432.50 113.06 432.28 113.81 L 291.28 195.73 C 291.50 194.98 291.74 194.25 292.00 193.55" fill="#949494" fill-rule="nonzero" group-id="1,2,8,15,22" node-id="658" stroke="none" target-height="84.1" target-width="141.72" target-x="291.28" target-y="111.63"></path><path d="M 291.28 195.73 L 432.28 113.81 C 432.09 114.46 431.92 115.12 431.76 115.81 L 290.76 197.73 C 290.92 197.05 291.09 196.38 291.28 195.73" fill="#999999" fill-rule="nonzero" group-id="1,2,8,15,22" node-id="660" stroke="none" target-height="83.92" target-width="141.51999" target-x="290.76" target-y="113.81"></path><path d="M 290.76 197.72 L 431.76 115.80 C 431.60 116.48 431.46 117.18 431.34 117.89 L 290.34 199.81 C 290.47 199.09 290.60 198.40 290.76 197.72" fill="#9e9e9e" fill-rule="nonzero" group-id="1,2,8,15,22" node-id="662" stroke="none" target-height="84.009995" target-width="141.42001" target-x="290.34" target-y="115.8"></path><path d="M 290.34 199.81 L 431.34 117.89 C 431.23 118.56 431.12 119.24 431.04 119.89 L 290.00 201.85 C 290.08 201.16 290.19 200.47 290.30 199.85" fill="#a3a3a3" fill-rule="nonzero" group-id="1,2,8,15,22" node-id="664" stroke="none" target-height="83.96001" target-width="141.34" target-x="290" target-y="117.89"></path><path d="M 290.00 201.85 L 431.00 119.94 C 430.91 120.63 430.84 121.35 430.78 122.08 L 289.82 204.00 C 289.88 203.27 289.95 202.56 290.04 201.86" fill="#a8a8a8" fill-rule="nonzero" group-id="1,2,8,15,22" node-id="666" stroke="none" target-height="84.06" target-width="141.18" target-x="289.82" target-y="119.94"></path><path d="M 289.82 204.00 L 430.82 122.09 C 430.76 122.80 430.71 123.53 430.68 124.28 L 289.68 206.19 C 289.68 205.45 289.76 204.72 289.82 204.00" fill="#adadad" fill-rule="nonzero" group-id="1,2,8,15,22" node-id="668" stroke="none" target-height="84.100006" target-width="141.14001" target-x="289.68" target-y="122.09"></path><path d="M 289.68 206.18 L 430.68 124.27 C 430.68 125.01 430.63 125.78 430.63 126.55 L 289.63 208.47 C 289.63 207.69 289.63 206.93 289.68 206.18" fill="#b3b3b3" fill-rule="nonzero" group-id="1,2,8,15,22" node-id="670" stroke="none" target-height="84.200005" target-width="141.04999" target-x="289.63" target-y="124.27"></path><path d="M 289.63 208.47 L 430.63 126.55 L 430.63 126.69 C 430.63 127.34 430.63 127.99 430.63 128.63 L 289.63 210.55 C 289.63 209.90 289.63 209.26 289.63 208.61 L 289.63 208.47" fill="#b8b8b8" fill-rule="nonzero" group-id="1,2,8,15,22" node-id="672" stroke="none" target-height="84" target-width="141" target-x="289.63" target-y="126.55"></path><path d="M 289.65 210.55 L 430.65 128.63 C 430.65 129.32 430.70 130.00 430.75 130.68 L 289.75 212.60 C 289.75 211.92 289.67 211.23 289.65 210.60" fill="#bdbdbd" fill-rule="nonzero" group-id="1,2,8,15,22" node-id="674" stroke="none" target-height="83.97" target-width="141.1" target-x="289.65" target-y="128.63"></path><path d="M 289.75 212.60 L 430.75 130.68 C 430.75 131.35 430.84 132.02 430.90 132.68 L 289.91 214.60 C 289.84 213.93 289.79 213.27 289.75 212.60" fill="#c2c2c2" fill-rule="nonzero" group-id="1,2,8,15,22" node-id="676" stroke="none" target-height="83.92001" target-width="141.15" target-x="289.75" target-y="130.68"></path><path d="M 289.91 214.60 L 430.91 132.68 C 430.98 133.32 431.05 133.95 431.13 134.59 L 290.13 216.51 C 290.05 215.87 289.98 215.23 289.92 214.60" fill="#c7c7c7" fill-rule="nonzero" group-id="1,2,8,15,22" node-id="678" stroke="none" target-height="83.83" target-width="141.22" target-x="289.91" target-y="132.68"></path><path d="M 290.12 216.51 L 431.12 134.59 C 431.20 135.22 431.29 135.86 431.39 136.49 L 290.39 218.41 C 290.29 217.77 290.20 217.14 290.12 216.51" fill="#cccccc" fill-rule="nonzero" group-id="1,2,8,15,22" node-id="680" stroke="none" target-height="83.82001" target-width="141.27002" target-x="290.12" target-y="134.59"></path><path d="M 290.39 218.41 L 431.39 136.49 C 431.49 137.12 431.59 137.75 431.71 138.38 L 290.71 220.29 C 290.60 219.67 290.49 219.04 290.39 218.41" fill="#d1d1d1" fill-rule="nonzero" group-id="1,2,8,15,22" node-id="682" stroke="none" target-height="83.79999" target-width="141.31998" target-x="290.39" target-y="136.49"></path><path d="M 290.71 220.29 L 431.71 138.38 C 431.83 139.00 431.96 139.63 432.09 140.25 L 291.09 222.17 C 290.96 221.55 290.83 220.92 290.71 220.29" fill="#d6d6d6" fill-rule="nonzero" group-id="1,2,8,15,22" node-id="684" stroke="none" target-height="83.78999" target-width="141.38" target-x="290.71" target-y="138.38"></path><path d="M 291.09 222.17 L 432.09 140.25 C 432.23 140.88 432.37 141.50 432.53 142.12 L 291.53 224.00 C 291.38 223.38 291.23 222.75 291.09 222.13" fill="#dbdbdb" fill-rule="nonzero" group-id="1,2,8,15,22" node-id="686" stroke="none" target-height="83.75" target-width="141.44" target-x="291.09" target-y="140.25"></path><path d="M 291.53 224.00 L 432.53 142.08 C 432.68 142.70 432.85 143.32 433.02 143.94 L 292.00 225.90 C 291.83 225.28 291.66 224.66 291.51 224.04" fill="#e0e0e0" fill-rule="nonzero" group-id="1,2,8,15,22" node-id="688" stroke="none" target-height="83.81999" target-width="141.50998" target-x="291.51" target-y="142.08"></path><path d="M 292.00 225.90 L 433.00 144.00 C 433.17 144.62 433.35 145.24 433.54 145.85 L 292.54 227.77 C 292.35 227.15 292.17 226.54 292.00 225.92" fill="#e6e6e6" fill-rule="nonzero" group-id="1,2,8,15,22" node-id="690" stroke="none" target-height="83.770004" target-width="141.54001" target-x="292" target-y="144"></path><path d="M 292.56 227.75 L 433.56 145.83 C 433.75 146.45 433.94 147.06 434.15 147.67 L 293.15 229.59 C 292.94 228.98 292.75 228.36 292.56 227.75" fill="#ebebeb" fill-rule="nonzero" group-id="1,2,8,15,22" node-id="692" stroke="none" target-height="83.759995" target-width="141.59" target-x="292.56" target-y="145.83"></path><path d="M 293.15 229.59 L 434.15 147.67 C 434.35 148.27 434.55 148.86 434.77 149.45 L 293.77 231.37 C 293.55 230.78 293.35 230.18 293.15 229.59" fill="#f0f0f0" fill-rule="nonzero" group-id="1,2,8,15,22" node-id="694" stroke="none" target-height="83.7" target-width="141.62" target-x="293.15" target-y="147.67"></path><path d="M 293.77 231.37 L 434.77 149.45 C 434.98 150.05 435.21 150.64 435.44 151.23 L 294.44 233.15 C 294.21 232.56 293.98 231.96 293.77 231.37" fill="#f5f5f5" fill-rule="nonzero" group-id="1,2,8,15,22" node-id="696" stroke="none" target-height="83.7" target-width="141.67001" target-x="293.77" target-y="149.45"></path><path d="M 294.44 233.15 L 435.44 151.23 C 435.67 151.83 435.91 152.43 436.16 153.02 L 295.16 234.94 C 294.91 234.34 294.67 233.75 294.44 233.15" fill="#fafafa" fill-rule="nonzero" group-id="1,2,8,15,22" node-id="698" stroke="none" target-height="83.71001" target-width="141.72" target-x="294.44" target-y="151.23"></path><path d="M 295.16 234.94 L 436.16 153.02 C 436.41 153.64 436.68 154.25 436.95 154.87 L 296.00 236.78 C 295.73 236.17 295.46 235.55 295.21 234.94" fill="#ffffff" fill-rule="nonzero" group-id="1,2,8,15,22" node-id="700" stroke="none" target-height="83.759995" target-width="141.79001" target-x="295.16" target-y="153.02"></path><path d="M 296.00 236.78 L 437.00 154.87 C 437.27 155.48 437.55 156.09 437.84 156.71 L 296.84 238.62 C 296.55 238.01 296.27 237.40 296.00 236.78" fill="#ffffff" fill-rule="nonzero" group-id="1,2,8,15,22" node-id="702" stroke="none" target-height="83.75" target-width="141.84" target-x="296" target-y="154.87"></path><path d="M 296.79 238.62 L 437.79 156.71 C 438.13 157.44 438.49 158.18 438.86 158.91 L 297.86 240.82 C 297.49 240.09 297.13 239.36 296.79 238.62" fill="#ffffff" fill-rule="nonzero" group-id="1,2,8,15,22" node-id="704" stroke="none" target-height="84.11" target-width="142.06998" target-x="296.79" target-y="156.71"></path><path d="M 297.86 240.82 L 438.86 158.91 C 439.28 159.75 439.71 160.59 440.16 161.43 L 299.16 243.34 C 298.71 242.50 298.28 241.67 297.86 240.82" fill="#ffffff" fill-rule="nonzero" group-id="1,2,8,15,22" node-id="706" stroke="none" target-height="84.42999" target-width="142.30002" target-x="297.86" target-y="158.91"></path><path d="M 299.16 243.34 L 440.16 161.43 C 440.95 162.91 441.79 164.39 442.67 165.87 L 301.67 247.79 C 300.79 246.31 299.96 244.79 299.16 243.34" fill="#ffffff" fill-rule="nonzero" group-id="1,2,8,15,22" node-id="708" stroke="none" target-height="86.36" target-width="143.51001" target-x="299.16" target-y="161.43"></path><path d="M 301.67 247.79 L 442.67 165.87 C 444.07 168.22 445.57 170.57 447.16 172.93 L 306.17 254.84 C 304.57 252.49 303.07 250.14 301.67 247.79" fill="#ffffff" fill-rule="nonzero" group-id="1,2,8,15,22" node-id="710" stroke="none" target-height="88.97" target-width="145.48999" target-x="301.67" target-y="165.87"></path><path d="M 306.17 254.84 L 447.17 172.93 C 448.47 174.84 449.84 176.76 451.26 178.68 L 310.26 260.59 C 308.84 258.67 307.48 256.76 306.18 254.84" fill="#ffffff" fill-rule="nonzero" group-id="1,2,8,15,22" node-id="712" stroke="none" target-height="87.66" target-width="145.09" target-x="306.17" target-y="172.93"></path><path d="M 310.25 260.59 L 451.25 178.68 C 452.48 180.33 453.75 182.00 455.06 183.68 L 314.06 265.59 C 312.73 263.93 311.46 262.26 310.25 260.59" fill="#ffffff" fill-rule="nonzero" group-id="1,2,8,15,22" node-id="714" stroke="none" target-height="86.91" target-width="144.81" target-x="310.25" target-y="178.68"></path><path d="M 314.06 265.57 L 455.06 183.66 C 456.47 185.45 457.93 187.24 459.44 189.05 L 318.44 271.00 C 316.93 269.20 315.47 267.40 314.06 265.60" fill="#ffffff" fill-rule="nonzero" group-id="1,2,8,15,22" node-id="716" stroke="none" target-height="87.34" target-width="145.38" target-x="314.06" target-y="183.66"></path><path d="M 318.44 271.00 L 459.44 189.08 C 461.27 191.29 463.18 193.50 465.14 195.73 L 324.14 277.65 C 322.18 275.42 320.28 273.20 318.44 271.00" fill="#ffffff" fill-rule="nonzero" group-id="1,2,8,15,22" node-id="718" stroke="none" target-height="88.56999" target-width="146.70001" target-x="318.44" target-y="189.08"></path><path d="M 324.14 277.62 L 465.14 195.70 C 467.94 198.89 470.85 202.11 473.88 205.37 L 332.89 287.28 C 329.86 284.03 326.95 280.81 324.14 277.62" fill="#ffffff" fill-rule="nonzero" group-id="1,2,8,15,22" node-id="720" stroke="none" target-height="91.58" target-width="149.73999" target-x="324.14" target-y="195.7"></path><path d="M 332.89 287.28 L 473.89 205.37 C 481.40 213.45 489.51 221.77 497.89 230.49 L 356.89 312.41 C 348.47 303.69 340.36 295.41 332.89 287.28" fill="#fafafa" fill-rule="nonzero" group-id="1,2,8,15,22" node-id="722" stroke="none" target-height="107.04001" target-width="165" target-x="332.89" target-y="205.37"></path><path d="M 483.79 238.68 C 447.19 200.81 416.39 170.31 416.49 134.88 C 416.49 121.59 420.59 112.82 427.93 108.55 L 442.00 100.36 C 421.00 114.96 435.49 151.56 435.65 151.93 C 446.65 177.47 464.82 196.30 497.86 230.49 L 483.77 238.68" fill="#cf1322" fill-rule="nonzero" group-id="1,2,8,15" node-id="725" stroke="none" target-height="138.31999" target-width="81.46997" target-x="416.39" target-y="100.36"></path><path d="M 469.69 246.87 C 433.09 209.00 402.29 178.50 402.39 143.07 C 402.39 129.78 406.49 121.01 413.83 116.75 L 427.93 108.55 C 420.59 112.82 416.53 121.55 416.49 134.88 C 416.39 170.31 447.19 200.81 483.79 238.68 L 469.69 246.87" fill="#ffffff" fill-rule="nonzero" group-id="1,2,8,15" node-id="727" stroke="none" target-height="138.31999" target-width="81.5" target-x="402.29" target-y="108.55"></path><path d="M 455.59 255.06 C 418.99 217.19 388.20 186.69 388.30 151.26 C 388.30 137.97 392.40 129.20 399.73 124.94 L 413.83 116.75 C 406.49 121.01 402.43 129.75 402.39 143.07 C 402.29 178.50 433.09 209.00 469.69 246.87 L 455.59 255.06" fill="#cf1322" fill-rule="nonzero" group-id="1,2,8,15" node-id="729" stroke="none" target-height="138.31" target-width="81.48999" target-x="388.2" target-y="116.75"></path><path d="M 441.50 263.25 C 404.90 225.38 374.10 194.88 374.20 159.46 C 374.20 146.16 378.30 137.39 385.64 133.13 L 399.73 124.94 C 392.40 129.20 388.34 137.94 388.30 151.26 C 388.20 186.69 418.99 217.19 455.59 255.06 L 441.50 263.25" fill="#ffffff" fill-rule="nonzero" group-id="1,2,8,15" node-id="731" stroke="none" target-height="138.31" target-width="81.48999" target-x="374.1" target-y="124.94"></path><path d="M 427.40 271.45 C 390.80 233.57 360.01 203.08 360.11 167.65 C 360.11 154.35 364.20 145.59 371.54 141.32 L 385.64 133.13 C 378.30 137.39 374.24 146.13 374.20 159.46 C 374.10 194.88 404.90 225.38 441.50 263.25 L 427.40 271.45" fill="url(#未命名的渐变_40-4)" fill-rule="nonzero" group-id="1,2,8,15" node-id="733" stroke="none" target-height="138.32" target-width="81.48999" target-x="360.01" target-y="133.13"></path><path d="M 413.31 279.64 C 376.71 241.77 345.91 211.27 346.01 175.84 C 346.01 162.54 350.11 153.78 357.45 149.51 L 371.54 141.32 C 364.20 145.59 360.15 154.32 360.11 167.65 C 360.01 203.08 390.80 233.57 427.40 271.45 L 413.31 279.64" fill="#ffffff" fill-rule="nonzero" group-id="1,2,8,15" node-id="735" stroke="none" target-height="138.32" target-width="81.48999" target-x="345.91" target-y="141.32"></path><path d="M 399.21 287.83 C 362.61 250.00 331.82 219.46 331.92 184.00 C 331.92 170.71 336.01 161.94 343.35 157.67 L 357.45 149.48 C 350.11 153.75 346.05 162.48 346.01 175.81 C 345.91 211.24 376.71 241.74 413.31 279.61 L 399.21 287.80" fill="url(#未命名的渐变_40-5)" fill-rule="nonzero" group-id="1,2,8,15" node-id="737" stroke="none" target-height="138.34999" target-width="81.48999" target-x="331.82" target-y="149.48"></path><path d="M 385.12 296.00 C 348.52 258.13 317.72 227.63 317.82 192.20 C 317.82 178.91 321.92 170.14 329.25 165.88 L 343.35 157.68 C 336.00 162.00 332.00 170.74 331.92 184.00 C 331.82 219.43 362.61 249.93 399.21 287.80 L 385.12 296.00" fill="#ffffff" fill-rule="nonzero" group-id="1,2,8,15" node-id="739" stroke="none" target-height="138.32" target-width="81.48999" target-x="317.72" target-y="157.68"></path><path d="M 371.00 304.21 C 334.40 266.34 303.60 235.84 303.70 200.42 C 303.70 187.12 307.80 178.35 315.14 174.09 L 329.23 165.90 C 321.90 170.16 317.84 178.90 317.80 192.22 C 317.70 227.65 348.50 258.15 385.10 296.02 L 371.00 304.21" fill="url(#未命名的渐变_40-6)" fill-rule="nonzero" group-id="1,2,8,15" node-id="741" stroke="none" target-height="138.31" target-width="81.5" target-x="303.6" target-y="165.9"></path><path d="M 356.92 312.40 C 320.32 274.53 289.53 244.03 289.63 208.61 C 289.63 195.31 293.73 186.54 301.06 182.28 L 315.16 174.09 C 307.82 178.35 303.76 187.09 303.72 200.42 C 303.62 235.84 334.42 266.34 371.02 304.21 L 356.92 312.40" fill="#ffffff" fill-rule="nonzero" group-id="1,2,8,15" node-id="743" stroke="none" target-height="138.31" target-width="81.48999" target-x="289.53" target-y="174.09"></path></g></g><path d="M 356.92 312.40 L 497.88 230.49 L 554.23 290.48 L 413.27 372.39 L 356.92 312.40 Z" fill="#f9f9f9" fill-rule="nonzero" group-id="1,2" node-id="747" stroke="none" target-height="141.90001" target-width="197.30997" target-x="356.92" target-y="230.49"></path><g clip-path="url(#clip-path-3)" group-id="1,2,9" node-id="751"><path d="M 554.23 290.48 L 497.88 230.49 L 483.79 238.68 L 540.14 298.67 L 554.23 290.48" fill="url(#未命名的渐变_40-7)" fill-rule="nonzero" group-id="1,2,9,16" node-id="753" stroke="none" target-height="68.18001" target-width="70.43997" target-x="483.79" target-y="230.49"></path><path d="M 540.14 298.67 L 483.79 238.68 L 469.69 246.87 L 526.04 306.86 L 540.14 298.67" fill="#ffffff" fill-rule="nonzero" group-id="1,2,9,16" node-id="755" stroke="none" target-height="68.17999" target-width="70.45001" target-x="469.69" target-y="238.68"></path><path d="M 526.04 306.86 L 469.69 246.87 L 455.60 255.06 L 511.94 315.05 L 526.04 306.86" fill="url(#未命名的渐变_40-8)" fill-rule="nonzero" group-id="1,2,9,16" node-id="757" stroke="none" target-height="68.17999" target-width="70.43997" target-x="455.6" target-y="246.87"></path><path d="M 511.94 315.05 L 455.60 255.06 L 441.50 263.26 L 497.85 323.24 L 511.94 315.05" fill="#ffffff" fill-rule="nonzero" group-id="1,2,9,16" node-id="759" stroke="none" target-height="68.17999" target-width="70.44" target-x="441.5" target-y="255.06"></path><path d="M 497.85 323.24 L 441.50 263.26 L 427.40 271.45 L 483.75 331.43 L 497.85 323.24" fill="#ff4d4f" fill-rule="nonzero" group-id="1,2,9,16" node-id="761" stroke="none" target-height="68.16998" target-width="70.45001" target-x="427.4" target-y="263.26"></path><path d="M 483.75 331.43 L 427.40 271.45 L 413.31 279.64 L 469.66 339.63 L 483.75 331.43" fill="#ffffff" fill-rule="nonzero" group-id="1,2,9,16" node-id="763" stroke="none" target-height="68.17999" target-width="70.44" target-x="413.31" target-y="271.45"></path><path d="M 469.66 339.63 L 413.31 279.64 L 399.21 287.83 L 455.56 347.82 L 469.66 339.63" fill="#ff4d4f" fill-rule="nonzero" group-id="1,2,9,16" node-id="765" stroke="none" target-height="68.17999" target-width="70.45001" target-x="399.21" target-y="279.64"></path><path d="M 455.56 347.82 L 399.21 287.83 L 385.12 296.02 L 441.47 356.01 L 455.56 347.82" fill="#ffffff" fill-rule="nonzero" group-id="1,2,9,16" node-id="767" stroke="none" target-height="68.18002" target-width="70.44" target-x="385.12" target-y="287.83"></path><path d="M 441.47 356.01 L 385.12 296.02 L 371.02 304.21 L 427.37 364.20 L 441.47 356.01" fill="#ff4d4f" fill-rule="nonzero" group-id="1,2,9,16" node-id="769" stroke="none" target-height="68.18002" target-width="70.45001" target-x="371.02" target-y="296.02"></path><path d="M 427.37 364.20 L 371.02 304.21 L 356.93 312.40 L 413.27 372.39 L 427.37 364.20" fill="#ffffff" fill-rule="nonzero" group-id="1,2,9,16" node-id="771" stroke="none" target-height="68.18002" target-width="70.44" target-x="356.93" target-y="304.21"></path></g><g clip-path="url(#clip-path-4)" group-id="1,2,10" node-id="777"><path d="M 413.27 372.39 L 554.27 290.48 C 555.87 292.15 557.45 293.81 559.01 295.48 L 418.00 377.43 C 416.44 375.75 414.86 374.08 413.26 372.43" fill="#fafafa" fill-rule="nonzero" group-id="1,2,10,17,23" node-id="781" stroke="none" target-height="86.94998" target-width="145.75" target-x="413.26" target-y="290.48"></path><path d="M 418.00 377.43 L 559.00 295.52 C 562.13 298.89 565.18 302.28 568.17 305.67 L 427.19 387.59 C 424.20 384.19 421.14 380.80 418.01 377.43" fill="#ffffff" fill-rule="nonzero" group-id="1,2,10,17,23" node-id="783" stroke="none" target-height="92.07001" target-width="150.16998" target-x="418" target-y="295.52"></path><path d="M 427.19 387.59 L 568.19 305.67 C 570.86 308.70 573.46 311.74 575.99 314.79 L 435.00 396.70 C 432.46 393.65 429.86 390.62 427.21 387.59" fill="#ffffff" fill-rule="nonzero" group-id="1,2,10,17,23" node-id="785" stroke="none" target-height="91.03" target-width="148.79999" target-x="427.19" target-y="305.67"></path><path d="M 435.00 396.70 L 576.00 314.79 C 578.36 317.62 580.66 320.46 582.91 323.31 L 441.91 405.23 C 439.66 402.37 437.36 399.53 435.00 396.70" fill="#ffffff" fill-rule="nonzero" group-id="1,2,10,17,23" node-id="787" stroke="none" target-height="90.44" target-width="147.90997" target-x="435" target-y="314.79"></path><path d="M 441.89 405.23 L 582.89 323.31 C 585.20 326.24 587.45 329.19 589.64 332.15 L 448.64 414.06 C 446.45 411.10 444.20 408.16 441.89 405.23" fill="#ffffff" fill-rule="nonzero" group-id="1,2,10,17,23" node-id="789" stroke="none" target-height="90.75" target-width="147.75" target-x="441.89" target-y="323.31"></path><path d="M 448.64 414.06 L 589.64 332.15 C 592.62 336.15 595.49 340.20 598.25 344.31 L 457.25 426.22 C 454.50 422.14 451.63 418.09 448.64 414.06" fill="#ffffff" fill-rule="nonzero" group-id="1,2,10,17,23" node-id="791" stroke="none" target-height="94.07001" target-width="149.60999" target-x="448.64" target-y="332.15"></path><path d="M 457.25 426.22 L 598.25 344.31 C 601.82 349.59 605.19 354.92 608.36 360.31 L 467.36 442.23 C 464.20 436.83 460.83 431.50 457.25 426.23" fill="#ffffff" fill-rule="nonzero" group-id="1,2,10,17,23" node-id="793" stroke="none" target-height="97.92001" target-width="151.10999" target-x="457.25" target-y="344.31"></path><path d="M 467.36 442.25 L 608.36 360.33 C 610.23 363.51 612.02 366.71 613.74 369.93 L 472.74 451.85 C 471.02 448.63 469.23 445.43 467.36 442.25" fill="#ffffff" fill-rule="nonzero" group-id="1,2,10,17,23" node-id="795" stroke="none" target-height="91.52002" target-width="146.38" target-x="467.36" target-y="360.33"></path><path d="M 472.74 451.85 L 613.74 369.93 C 614.89 372.08 616.00 374.24 617.08 376.41 L 476.08 458.33 C 475.00 456.16 473.89 454.00 472.74 451.85" fill="#ffffff" fill-rule="nonzero" group-id="1,2,10,17,23" node-id="797" stroke="none" target-height="88.399994" target-width="144.34003" target-x="472.74" target-y="369.93"></path><path d="M 476.08 458.33 L 617.08 376.41 C 617.92 378.11 618.75 379.81 619.55 381.52 L 478.55 463.43 C 477.75 461.72 476.92 460.02 476.08 458.33" fill="#ffffff" fill-rule="nonzero" group-id="1,2,10,17,23" node-id="799" stroke="none" target-height="87.01999" target-width="143.47" target-x="476.08" target-y="376.41"></path><path d="M 478.55 463.43 L 619.55 381.52 C 620.34 383.20 621.10 384.88 621.85 386.57 L 480.85 468.49 C 480.10 466.80 479.34 465.11 478.55 463.43" fill="#ffffff" fill-rule="nonzero" group-id="1,2,10,17,23" node-id="801" stroke="none" target-height="86.97" target-width="143.29999" target-x="478.55" target-y="381.52"></path><path d="M 480.85 468.49 L 621.85 386.57 C 622.56 388.17 623.24 389.76 623.91 391.37 L 482.91 473.29 C 482.24 471.68 481.56 470.08 480.85 468.49" fill="#ffffff" fill-rule="nonzero" group-id="1,2,10,17,23" node-id="803" stroke="none" target-height="86.72" target-width="143.05997" target-x="480.85" target-y="386.57"></path><path d="M 482.91 473.29 L 623.91 391.37 C 624.58 392.99 625.24 394.61 625.91 396.24 L 484.91 478.15 C 484.24 476.52 483.58 474.90 482.91 473.29" fill="#fafafa" fill-rule="nonzero" group-id="1,2,10,17,23" node-id="805" stroke="none" target-height="86.78" target-width="142.99997" target-x="482.91" target-y="391.37"></path><path d="M 484.87 478.15 L 625.87 396.24 C 626.51 397.89 627.14 399.56 627.74 401.24 L 486.74 483.15 C 486.14 481.48 485.51 479.82 484.87 478.15" fill="#f5f5f5" fill-rule="nonzero" group-id="1,2,10,17,23" node-id="807" stroke="none" target-height="86.91" target-width="142.87" target-x="484.87" target-y="396.24"></path><path d="M 486.74 483.14 L 627.74 401.23 C 628.36 402.94 628.96 404.65 629.53 406.37 L 488.54 488.29 C 487.96 486.57 487.36 484.85 486.74 483.14" fill="#f0f0f0" fill-rule="nonzero" group-id="1,2,10,17,23" node-id="809" stroke="none" target-height="87.06" target-width="142.79004" target-x="486.74" target-y="401.23"></path><path d="M 488.54 488.29 L 629.54 406.37 C 630.14 408.15 630.71 409.94 631.26 411.73 L 490.26 493.65 C 489.71 491.86 489.14 490.08 488.55 488.29" fill="#ebebeb" fill-rule="nonzero" group-id="1,2,10,17,23" node-id="811" stroke="none" target-height="87.28" target-width="142.72" target-x="488.54" target-y="406.37"></path><path d="M 490.25 493.65 L 631.25 411.73 C 631.82 413.57 632.36 415.42 632.87 417.28 L 491.87 499.19 C 491.36 497.34 490.82 495.49 490.25 493.65" fill="#e6e6e6" fill-rule="nonzero" group-id="1,2,10,17,23" node-id="813" stroke="none" target-height="87.45999" target-width="142.62" target-x="490.25" target-y="411.73"></path><path d="M 491.87 499.19 L 632.87 417.28 C 633.39 419.16 633.87 421.06 634.36 422.96 L 493.36 504.88 C 492.89 502.97 492.36 501.08 491.87 499.19" fill="#e0e0e0" fill-rule="nonzero" group-id="1,2,10,17,23" node-id="815" stroke="none" target-height="87.600006" target-width="142.48999" target-x="491.87" target-y="417.28"></path><path d="M 493.36 504.88 L 634.36 422.96 C 634.84 424.90 635.30 426.85 635.73 428.82 L 494.73 510.73 C 494.30 508.73 493.85 506.82 493.36 504.88" fill="#dbdbdb" fill-rule="nonzero" group-id="1,2,10,17,23" node-id="817" stroke="none" target-height="87.77002" target-width="142.37" target-x="493.36" target-y="422.96"></path><path d="M 494.73 510.73 L 635.73 428.82 C 636.16 430.82 636.56 432.80 636.93 434.77 L 495.93 516.69 C 495.56 514.69 495.16 512.69 494.73 510.69" fill="#d6d6d6" fill-rule="nonzero" group-id="1,2,10,17,23" node-id="819" stroke="none" target-height="87.869995" target-width="142.19998" target-x="494.73" target-y="428.82"></path><path d="M 495.93 516.69 L 636.93 434.77 C 637.31 436.77 637.67 438.83 637.99 440.88 L 497.00 522.80 C 496.68 520.80 496.32 518.71 495.94 516.69" fill="#d1d1d1" fill-rule="nonzero" group-id="1,2,10,17,23" node-id="821" stroke="none" target-height="88.03" target-width="142.06" target-x="495.93" target-y="434.77"></path><path d="M 497.00 522.80 L 638.00 440.88 C 638.33 442.97 638.62 445.06 638.89 447.17 L 497.89 529.09 C 497.62 526.98 497.33 524.88 497.00 522.80" fill="#cccccc" fill-rule="nonzero" group-id="1,2,10,17,23" node-id="823" stroke="none" target-height="88.21002" target-width="141.89001" target-x="497" target-y="440.88"></path><path d="M 497.88 529.09 L 638.88 447.17 C 639.15 449.31 639.39 451.46 639.60 453.62 L 498.60 535.54 C 498.39 533.37 498.15 531.22 497.88 529.09" fill="#c7c7c7" fill-rule="nonzero" group-id="1,2,10,17,23" node-id="825" stroke="none" target-height="88.369965" target-width="141.71997" target-x="497.88" target-y="447.17"></path><path d="M 498.60 535.54 L 639.60 453.62 C 639.81 455.90 640.00 458.19 640.14 460.50 L 499.14 542.42 C 499.00 540.11 498.81 537.82 498.60 535.54" fill="#c2c2c2" fill-rule="nonzero" group-id="1,2,10,17,23" node-id="827" stroke="none" target-height="88.79999" target-width="141.54001" target-x="498.6" target-y="453.62"></path><path d="M 499.14 542.42 L 640.14 460.50 C 640.29 462.89 640.40 465.29 640.47 467.72 L 499.48 549.64 C 499.40 547.21 499.29 544.81 499.14 542.42" fill="#bdbdbd" fill-rule="nonzero" group-id="1,2,10,17,23" node-id="829" stroke="none" target-height="89.140015" target-width="141.32996" target-x="499.14" target-y="460.5"></path><path d="M 499.48 549.64 L 640.43 467.72 C 640.51 470.09 640.54 472.47 640.53 474.87 L 640.53 475.23 L 499.53 557.14 L 499.53 556.79 C 499.53 554.39 499.50 552.01 499.44 549.64" fill="#b8b8b8" fill-rule="nonzero" group-id="1,2,10,17,23" node-id="831" stroke="none" target-height="89.42001" target-width="141.10333" target-x="499.44" target-y="467.72"></path><path d="M 499.57 557.14 L 640.57 475.23 C 640.57 477.23 640.52 479.21 640.43 481.18 L 499.43 563.10 C 499.51 561.10 499.56 559.16 499.57 557.10" fill="#b3b3b3" fill-rule="nonzero" group-id="1,2,10,17,23" node-id="833" stroke="none" target-height="87.869965" target-width="141.14001" target-x="499.43" target-y="475.23"></path><path d="M 499.43 563.10 L 640.43 481.18 C 640.35 483.14 640.23 485.07 640.07 486.97 L 499.07 568.89 C 499.23 566.99 499.35 565.06 499.43 563.10" fill="#adadad" fill-rule="nonzero" group-id="1,2,10,17,23" node-id="835" stroke="none" target-height="87.71002" target-width="141.35999" target-x="499.07" target-y="481.18"></path><path d="M 499.07 568.89 L 640.00 487.00 C 639.84 489.00 639.64 490.96 639.39 492.89 L 498.39 574.81 C 498.64 572.88 498.85 570.92 499.00 568.92" fill="#a8a8a8" fill-rule="nonzero" group-id="1,2,10,17,23" node-id="837" stroke="none" target-height="87.81" target-width="141.60999" target-x="498.39" target-y="487"></path><path d="M 498.46 574.78 L 639.46 492.86 C 639.22 494.82 638.93 496.74 638.60 498.63 L 497.60 580.55 C 497.93 578.66 498.22 576.73 498.46 574.78" fill="#a3a3a3" fill-rule="nonzero" group-id="1,2,10,17,23" node-id="839" stroke="none" target-height="87.69" target-width="141.86002" target-x="497.6" target-y="492.86"></path><path d="M 497.60 580.55 L 638.60 498.63 C 638.25 500.63 637.85 502.63 637.40 504.63 L 496.40 586.54 C 496.85 584.59 497.25 582.59 497.60 580.54" fill="#9e9e9e" fill-rule="nonzero" group-id="1,2,10,17,23" node-id="841" stroke="none" target-height="87.90997" target-width="142.19998" target-x="496.4" target-y="498.63"></path><path d="M 496.40 586.53 L 637.40 504.62 C 636.93 506.69 636.40 508.72 635.82 510.69 L 494.82 592.61 C 495.40 590.61 495.93 588.61 496.40 586.53" fill="#999999" fill-rule="nonzero" group-id="1,2,10,17,23" node-id="843" stroke="none" target-height="87.98999" target-width="142.58002" target-x="494.82" target-y="504.62"></path><path d="M 494.82 592.61 L 635.82 510.69 C 635.19 512.84 634.50 514.93 633.75 516.94 L 492.75 598.85 C 493.50 596.85 494.19 594.77 494.82 592.61" fill="#949494" fill-rule="nonzero" group-id="1,2,10,17,23" node-id="845" stroke="none" target-height="88.15997" target-width="143.07" target-x="492.75" target-y="510.69"></path><path d="M 492.75 598.85 L 633.75 516.94 C 632.84 519.38 631.85 521.72 630.75 523.94 L 489.75 605.86 C 490.83 603.60 491.83 601.27 492.75 598.86" fill="#8f8f8f" fill-rule="nonzero" group-id="1,2,10,17,23" node-id="847" stroke="none" target-height="88.91998" target-width="144" target-x="489.75" target-y="516.94"></path><path d="M 489.77 605.90 L 630.77 523.98 C 629.44 526.77 627.94 529.48 626.28 532.08 L 485.28 614.00 C 486.94 611.40 488.44 608.69 489.77 605.90" fill="#8a8a8a" fill-rule="nonzero" group-id="1,2,10,17,23" node-id="849" stroke="none" target-height="90.02002" target-width="145.49002" target-x="485.28" target-y="523.98"></path><path d="M 485.28 614.00 L 626.28 532.08 C 620.98 540.51 613.74 547.54 605.15 552.57 L 464.15 634.49 C 472.73 629.45 479.98 622.42 485.28 614.00" fill="#858585" fill-rule="nonzero" group-id="1,2,10,17,23" node-id="851" stroke="none" target-height="102.40997" target-width="162.13004" target-x="464.15" target-y="532.08"></path><path d="M 591.00 560.76 C 613.93 547.44 626.32 520.06 626.42 483.06 C 626.63 411.54 592.42 353.63 540.13 298.67 L 554.23 290.48 C 686.34 432.23 637.00 533.59 605.10 552.57 L 591.00 560.76" fill="url(#未命名的渐变_40-9)" fill-rule="nonzero" group-id="1,2,10,17" node-id="854" stroke="none" target-height="270.28" target-width="146.21002" target-x="540.13" target-y="290.48"></path><path d="M 576.91 569.00 C 599.84 555.67 612.23 528.29 612.34 491.30 C 612.54 419.77 578.34 361.86 526.04 306.90 L 540.14 298.71 C 592.42 353.71 626.64 411.58 626.43 483.10 C 626.33 520.10 613.94 547.48 591.01 560.80 L 576.91 569.00" fill="#ffffff" fill-rule="nonzero" group-id="1,2,10,17" node-id="856" stroke="none" target-height="270.29" target-width="100.60004" target-x="526.04" target-y="298.71"></path><path d="M 562.82 577.15 C 585.75 563.82 598.14 536.44 598.24 499.45 C 598.45 427.93 564.24 370.01 511.95 315.05 L 526.00 306.86 C 578.29 361.86 612.50 419.73 612.30 491.26 C 612.19 528.26 599.80 555.63 576.87 568.96 L 562.78 577.15" fill="url(#未命名的渐变_40-10)" fill-rule="nonzero" group-id="1,2,10,17" node-id="858" stroke="none" target-height="270.29004" target-width="100.54999" target-x="511.95" target-y="306.86"></path><path d="M 548.72 585.34 C 571.65 572.01 584.04 544.63 584.14 507.64 C 584.35 436.12 550.14 378.20 497.85 323.25 L 511.95 315.05 C 564.23 370.05 598.45 427.93 598.24 499.45 C 598.14 536.45 585.75 563.82 562.82 577.15 L 548.72 585.34" fill="#ffffff" fill-rule="nonzero" group-id="1,2,10,17" node-id="860" stroke="none" target-height="270.29004" target-width="100.600006" target-x="497.85" target-y="315.05"></path><path d="M 534.63 593.53 C 557.56 580.20 569.95 552.82 570.05 515.83 C 570.25 444.31 536.05 386.40 483.76 331.44 L 497.85 323.25 C 550.13 378.20 584.35 436.12 584.14 507.64 C 584.04 544.64 571.65 572.01 548.72 585.34 L 534.63 593.53" fill="url(#未命名的渐变_40-11)" fill-rule="nonzero" group-id="1,2,10,17" node-id="862" stroke="none" target-height="270.28003" target-width="100.589966" target-x="483.76" target-y="323.25"></path><path d="M 520.53 601.72 C 570.87 567.40 581.20 457.22 469.66 339.63 L 483.76 331.44 C 536.04 386.44 570.25 444.31 570.05 515.83 C 569.95 552.83 557.56 580.20 534.63 593.53 L 520.53 601.72" fill="#ffffff" fill-rule="nonzero" group-id="1,2,10,17" node-id="864" stroke="none" target-height="270.27997" target-width="111.54001" target-x="469.66" target-y="331.44"></path><path d="M 506.43 609.91 C 529.36 596.59 541.75 569.21 541.86 532.21 C 542.06 460.69 507.86 402.78 455.56 347.82 L 469.66 339.63 C 601.77 481.38 552.41 582.74 520.53 601.72 L 506.43 609.91" fill="url(#未命名的渐变_40-12)" fill-rule="nonzero" group-id="1,2,10,17" node-id="866" stroke="none" target-height="270.27997" target-width="146.21002" target-x="455.56" target-y="339.63"></path><path d="M 492.34 618.10 C 515.27 604.78 527.66 577.40 527.76 540.41 C 527.97 468.88 493.76 410.97 441.47 356.01 L 455.56 347.82 C 507.85 402.82 542.06 460.69 541.86 532.21 C 541.75 569.21 529.36 596.59 506.43 609.91 L 492.34 618.10" fill="#ffffff" fill-rule="nonzero" group-id="1,2,10,17" node-id="868" stroke="none" target-height="270.27997" target-width="100.59" target-x="441.47" target-y="347.82"></path><path d="M 478.24 626.30 C 528.58 591.97 538.91 481.80 427.37 364.21 L 441.47 356.01 C 493.75 411.01 527.97 468.88 527.76 540.41 C 527.66 577.41 515.27 604.78 492.34 618.10 L 478.24 626.30" fill="url(#未命名的渐变_40-13)" fill-rule="nonzero" group-id="1,2,10,17" node-id="870" stroke="none" target-height="270.28998" target-width="111.53998" target-x="427.37" target-y="356.01"></path><path d="M 464.15 634.49 C 487.08 621.16 499.47 593.78 499.57 556.79 C 499.77 485.27 465.57 427.35 413.28 372.40 L 427.37 364.21 C 559.48 506.00 510.12 607.32 478.24 626.30 L 464.15 634.49" fill="#ffffff" fill-rule="nonzero" group-id="1,2,10,17" node-id="872" stroke="none" target-height="270.28" target-width="146.19998" target-x="413.28" target-y="364.21"></path></g><g clip-path="url(#clip-path-5)" group-id="1,2,11" node-id="878"><path d="M 236.83 90.76 L 377.83 8.85 C 381.12 6.94 384.58 5.34 388.17 4.08 L 247.17 86.00 C 243.58 87.26 240.12 88.86 236.83 90.76" fill="#858585" fill-rule="nonzero" group-id="1,2,11,18,24" node-id="882" stroke="none" target-height="86.68" target-width="151.34001" target-x="236.83" target-y="4.08"></path><path d="M 247.17 86.00 L 388.17 4.08 C 391.22 3.00 394.35 2.15 397.53 1.52 L 256.53 83.44 C 253.35 84.06 250.22 84.92 247.17 86.00" fill="#8a8a8a" fill-rule="nonzero" group-id="1,2,11,18,24" node-id="884" stroke="none" target-height="84.48" target-width="150.36" target-x="247.17" target-y="1.52"></path><path d="M 256.53 83.44 L 397.53 1.52 C 400.20 0.98 402.89 0.59 405.60 0.35 L 264.60 82.27 C 261.88 82.51 259.17 82.90 256.49 83.44" fill="#8f8f8f" fill-rule="nonzero" group-id="1,2,11,18,24" node-id="886" stroke="none" target-height="83.090004" target-width="149.11002" target-x="256.49" target-y="0.35"></path><path d="M 264.64 82.27 L 405.60 0.35 C 408.06 0.13 410.60 0.01 413.17 0.00 L 272.17 81.92 C 269.59 81.92 267.07 82.04 264.60 82.27" fill="#949494" fill-rule="nonzero" group-id="1,2,11,18,24" node-id="888" stroke="none" target-height="82.27" target-width="148.57" target-x="264.6" target-y="0"></path><path d="M 272.21 81.92 L 413.17 0.00 C 415.50 0.00 417.87 0.08 420.30 0.24 L 279.35 82.16 C 276.92 81.99 274.54 81.91 272.21 81.92" fill="#999999" fill-rule="nonzero" group-id="1,2,11,18,24" node-id="890" stroke="none" target-height="82.16" target-width="148.09" target-x="272.21" target-y="0"></path><path d="M 279.35 82.16 L 420.30 0.24 C 422.61 0.40 424.95 0.64 427.30 0.96 L 286.30 82.88 C 283.91 82.56 281.58 82.32 279.30 82.16" fill="#9e9e9e" fill-rule="nonzero" group-id="1,2,11,18,24" node-id="892" stroke="none" target-height="82.64" target-width="148" target-x="279.3" target-y="0.24"></path><path d="M 286.38 82.88 L 427.34 1.00 C 429.65 1.32 432.00 1.70 434.39 2.17 L 293.43 84.00 C 291.04 83.54 288.69 83.15 286.38 82.84" fill="#a3a3a3" fill-rule="nonzero" group-id="1,2,11,18,24" node-id="894" stroke="none" target-height="83" target-width="148.01001" target-x="286.38" target-y="1"></path><path d="M 293.43 84.00 L 434.43 2.09 C 436.73 2.54 439.06 3.06 441.43 3.65 L 300.43 85.60 C 298.06 85.01 295.72 84.49 293.43 84.04" fill="#a8a8a8" fill-rule="nonzero" group-id="1,2,11,18,24" node-id="896" stroke="none" target-height="83.51" target-width="148" target-x="293.43" target-y="2.09"></path><path d="M 300.43 85.60 L 441.43 3.69 C 443.77 4.27 446.14 4.94 448.54 5.69 L 307.54 87.61 C 305.14 86.88 302.77 86.23 300.44 85.61" fill="#adadad" fill-rule="nonzero" group-id="1,2,11,18,24" node-id="898" stroke="none" target-height="83.92" target-width="148.11002" target-x="300.43" target-y="3.69"></path><path d="M 307.53 87.57 L 448.53 5.65 C 450.84 6.37 453.24 7.15 455.71 8.00 L 314.71 89.92 C 312.27 89.06 309.86 88.27 307.49 87.56" fill="#b3b3b3" fill-rule="nonzero" group-id="1,2,11,18,24" node-id="900" stroke="none" target-height="84.27" target-width="148.22" target-x="307.49" target-y="5.65"></path><path d="M 314.75 89.93 L 455.71 8.00 C 458.14 8.86 460.60 9.79 463.09 10.79 L 322.09 92.70 C 319.60 91.70 317.14 90.78 314.71 89.92" fill="#b8b8b8" fill-rule="nonzero" group-id="1,2,11,18,24" node-id="902" stroke="none" target-height="84.7" target-width="148.38" target-x="314.71" target-y="8"></path><path d="M 322.13 92.71 L 463.13 10.80 C 465.64 11.80 468.18 12.87 470.73 14.02 L 329.73 95.94 C 327.17 94.79 324.64 93.72 322.13 92.71" fill="#bdbdbd" fill-rule="nonzero" group-id="1,2,11,18,24" node-id="904" stroke="none" target-height="85.14" target-width="148.6" target-x="322.13" target-y="10.8"></path><path d="M 329.73 95.94 L 470.69 14.00 C 473.28 15.16 475.89 16.39 478.54 17.70 L 337.54 99.62 C 334.87 98.29 332.26 97.05 329.69 95.92" fill="#c2c2c2" fill-rule="nonzero" group-id="1,2,11,18,24" node-id="906" stroke="none" target-height="85.62" target-width="148.85" target-x="329.69" target-y="14"></path><path d="M 337.58 99.64 L 478.58 17.72 C 481.29 19.05 484.02 20.47 486.79 21.97 L 345.79 103.89 C 343.02 102.39 340.28 100.97 337.58 99.64" fill="#c7c7c7" fill-rule="nonzero" group-id="1,2,11,18,24" node-id="908" stroke="none" target-height="86.17" target-width="149.21002" target-x="337.58" target-y="17.72"></path><path d="M 345.79 103.89 L 486.75 22.00 C 488.89 23.16 491.05 24.37 493.22 25.63 L 352.22 107.54 C 350.05 106.29 347.90 105.09 345.75 103.92" fill="#cccccc" fill-rule="nonzero" group-id="1,2,11,18,24" node-id="910" stroke="none" target-height="85.54" target-width="147.47" target-x="345.75" target-y="22"></path><path d="M 479.12 33.79 C 430.80 5.89 390.28 1.59 363.69 17.00 L 377.79 8.81 C 404.37 -6.60 444.90 -2.30 493.22 25.60 L 479.12 33.79" fill="#cf1322" fill-rule="nonzero" group-id="1,2,11,18" node-id="913" stroke="none" target-height="40.39" target-width="129.53" target-x="363.69" target-y="-6.6"></path><path d="M 465.00 42.00 C 416.69 14.10 376.16 9.80 349.58 25.25 L 363.69 17.00 C 390.28 1.59 430.80 5.89 479.12 33.79 L 465.00 42.00" fill="#ffccc7" fill-rule="nonzero" group-id="1,2,11,18" node-id="915" stroke="none" target-height="40.41" target-width="129.54001" target-x="349.58" target-y="1.59"></path><path d="M 450.93 50.17 C 402.61 22.27 362.09 18.00 335.50 33.42 L 349.60 25.23 C 376.18 9.78 416.71 14.08 465.00 42.00 L 450.91 50.19" fill="#cf1322" fill-rule="nonzero" group-id="1,2,11,18" node-id="917" stroke="none" target-height="40.41" target-width="129.5" target-x="335.5" target-y="9.78"></path><path d="M 436.83 58.36 C 388.51 30.47 348.00 26.16 321.40 41.61 L 335.50 33.42 C 362.09 18.00 402.61 22.27 450.93 50.17 L 436.83 58.36" fill="#ffccc7" fill-rule="nonzero" group-id="1,2,11,18" node-id="919" stroke="none" target-height="40.36" target-width="129.53" target-x="321.4" target-y="18"></path><path d="M 422.74 66.55 C 374.42 38.66 333.89 34.35 307.31 49.80 L 321.40 41.61 C 348.00 26.16 388.51 30.47 436.83 58.36 L 422.74 66.55" fill="#cf1322" fill-rule="nonzero" group-id="1,2,11,18" node-id="921" stroke="none" target-height="40.390003" target-width="129.51999" target-x="307.31" target-y="26.16"></path><path d="M 408.64 74.74 C 360.32 46.85 319.80 42.55 293.21 58.00 L 307.31 49.81 C 333.89 34.36 374.42 38.67 422.74 66.56 L 408.64 74.75" fill="#ffccc7" fill-rule="nonzero" group-id="1,2,11,18" node-id="923" stroke="none" target-height="40.39" target-width="129.53" target-x="293.21" target-y="34.36"></path><path d="M 394.55 82.94 C 346.23 55.00 305.70 50.74 279.12 66.19 L 293.21 58.00 C 319.80 42.56 360.32 46.86 408.64 74.75 L 394.55 82.95" fill="#cf1322" fill-rule="nonzero" group-id="1,2,11,18" node-id="925" stroke="none" target-height="40.389996" target-width="129.52002" target-x="279.12" target-y="42.56"></path><path d="M 380.45 91.13 C 332.13 63.23 291.61 58.93 265.00 74.38 L 279.10 66.19 C 305.70 50.74 346.23 55.00 394.55 82.94 L 380.45 91.13" fill="#ffccc7" fill-rule="nonzero" group-id="1,2,11,18" node-id="927" stroke="none" target-height="40.389996" target-width="129.54999" target-x="265" target-y="50.74"></path><path d="M 366.35 99.32 C 318.00 71.42 277.51 67.12 250.92 82.57 L 265.00 74.38 C 291.59 58.93 332.11 63.23 380.43 91.13 L 366.33 99.32" fill="#cf1322" fill-rule="nonzero" group-id="1,2,11,18" node-id="929" stroke="none" target-height="40.39" target-width="129.51" target-x="250.92" target-y="58.93"></path><path d="M 352.26 107.51 C 303.94 79.61 263.41 75.31 236.83 90.76 L 250.92 82.57 C 277.51 67.12 318.00 71.42 366.35 99.32 L 352.26 107.51" fill="#ffccc7" fill-rule="nonzero" group-id="1,2,11,18" node-id="931" stroke="none" target-height="40.39" target-width="129.52" target-x="236.83" target-y="67.12"></path></g><path d="M 487.04 248.94 L 628.00 167.02 L 584.20 203.99 L 443.24 285.91 L 487.04 248.94 Z" fill="#808080" fill-rule="nonzero" group-id="1,2" node-id="935" stroke="none" target-height="118.89" target-width="184.76001" target-x="443.24" target-y="167.02"></path><g clip-path="url(#clip-path-6)" group-id="1,2,12" node-id="939"><path d="M 584.20 203.99 L 628.00 167.02 L 613.90 175.21 L 570.10 212.18 L 584.20 203.99" fill="#cf1322" fill-rule="nonzero" group-id="1,2,12,19" node-id="941" stroke="none" target-height="45.15999" target-width="57.900024" target-x="570.1" target-y="167.02"></path><path d="M 570.10 212.18 L 613.90 175.21 L 599.81 183.40 L 556.00 220.38 L 570.10 212.18" fill="#ffffff" fill-rule="nonzero" group-id="1,2,12,19" node-id="943" stroke="none" target-height="45.17" target-width="57.900024" target-x="556" target-y="175.21"></path><path d="M 556.00 220.38 L 599.81 183.40 L 585.71 191.59 L 541.91 228.57 L 556.00 220.38" fill="#cf1322" fill-rule="nonzero" group-id="1,2,12,19" node-id="945" stroke="none" target-height="45.170013" target-width="57.900024" target-x="541.91" target-y="183.4"></path><path d="M 541.91 228.57 L 585.71 191.59 L 571.61 199.79 L 527.81 236.76 L 541.91 228.57" fill="#ffffff" fill-rule="nonzero" group-id="1,2,12,19" node-id="947" stroke="none" target-height="45.17" target-width="57.900024" target-x="527.81" target-y="191.59"></path><path d="M 527.81 236.76 L 571.61 199.79 L 557.52 207.98 L 513.72 244.95 L 527.81 236.76" fill="#cf1322" fill-rule="nonzero" group-id="1,2,12,19" node-id="949" stroke="none" target-height="45.160004" target-width="57.890015" target-x="513.72" target-y="199.79"></path><path d="M 513.72 244.95 L 557.52 207.98 L 543.42 216.17 L 499.62 253.14 L 513.72 244.95" fill="#ffffff" fill-rule="nonzero" group-id="1,2,12,19" node-id="951" stroke="none" target-height="45.160004" target-width="57.900024" target-x="499.62" target-y="207.98"></path><path d="M 499.62 253.14 L 543.42 216.17 L 529.33 224.36 L 485.52 261.33 L 499.62 253.14" fill="#cf1322" fill-rule="nonzero" group-id="1,2,12,19" node-id="953" stroke="none" target-height="45.15999" target-width="57.899994" target-x="485.52" target-y="216.17"></path><path d="M 485.52 261.33 L 529.33 224.36 L 515.23 232.55 L 471.43 269.53 L 485.52 261.33" fill="#ffffff" fill-rule="nonzero" group-id="1,2,12,19" node-id="955" stroke="none" target-height="45.17" target-width="57.900024" target-x="471.43" target-y="224.36"></path><path d="M 471.43 269.53 L 515.23 232.55 L 501.13 240.75 L 457.33 277.72 L 471.43 269.53" fill="#cf1322" fill-rule="nonzero" group-id="1,2,12,19" node-id="957" stroke="none" target-height="45.17" target-width="57.899994" target-x="457.33" target-y="232.55"></path><path d="M 457.33 277.72 L 501.13 240.75 L 487.04 248.94 L 443.24 285.91 L 457.33 277.72" fill="#ffffff" fill-rule="nonzero" group-id="1,2,12,19" node-id="959" stroke="none" target-height="45.160004" target-width="57.890015" target-x="443.24" target-y="240.75"></path></g><g clip-path="url(#clip-path-7)" group-id="1,2,13" node-id="965"><path d="M 352.26 107.51 L 493.26 25.60 L 495.00 26.66 L 354.00 108.57 L 352.18 107.51" fill="#cccccc" fill-rule="nonzero" group-id="1,2,13,20,25" node-id="969" stroke="none" target-height="82.97" target-width="142.82" target-x="352.18" target-y="25.6"></path><path d="M 354.08 108.57 L 495.00 26.66 C 497.67 28.22 500.33 29.84 503.00 31.52 L 362.00 113.44 C 359.33 111.75 356.69 110.13 354.06 108.57" fill="#d1d1d1" fill-rule="nonzero" group-id="1,2,13,20,25" node-id="971" stroke="none" target-height="86.78" target-width="148.94" target-x="354.06" target-y="26.66"></path><path d="M 362.00 113.44 L 503.00 31.52 C 505.72 33.25 508.43 35.05 511.14 36.90 L 370.17 118.82 C 367.46 116.94 364.73 115.15 362.00 113.44" fill="#d6d6d6" fill-rule="nonzero" group-id="1,2,13,20,25" node-id="973" stroke="none" target-height="87.3" target-width="149.14001" target-x="362" target-y="31.52"></path><path d="M 370.17 118.82 L 511.17 36.90 C 513.98 38.82 516.78 40.82 519.57 42.90 L 378.57 124.82 C 375.78 122.76 372.98 120.76 370.18 118.82" fill="#dbdbdb" fill-rule="nonzero" group-id="1,2,13,20,25" node-id="975" stroke="none" target-height="87.92" target-width="149.4" target-x="370.17" target-y="36.9"></path><path d="M 378.56 124.79 L 519.56 42.87 C 522.45 44.99 525.33 47.18 528.19 49.44 L 387.19 131.36 C 384.33 129.10 381.45 126.91 378.56 124.79" fill="#e0e0e0" fill-rule="nonzero" group-id="1,2,13,20,25" node-id="977" stroke="none" target-height="88.490005" target-width="149.63" target-x="378.56" target-y="42.87"></path><path d="M 387.19 131.36 L 528.19 49.44 C 531.13 51.76 534.06 54.16 536.97 56.61 L 396.00 138.53 C 393.09 136.07 390.16 133.68 387.22 131.36" fill="#e6e6e6" fill-rule="nonzero" group-id="1,2,13,20,25" node-id="979" stroke="none" target-height="89.09" target-width="149.77997" target-x="387.19" target-y="49.44"></path><path d="M 396.00 138.53 L 537.00 56.61 C 539.96 59.11 542.90 61.68 545.83 64.32 L 404.83 146.23 C 401.91 143.60 398.97 141.04 396.00 138.53" fill="#ebebeb" fill-rule="nonzero" group-id="1,2,13,20,25" node-id="981" stroke="none" target-height="89.619995" target-width="149.83002" target-x="396" target-y="56.61"></path><path d="M 404.80 146.23 L 545.80 64.32 C 548.71 66.94 551.60 69.63 554.47 72.38 L 413.47 154.29 C 410.60 151.54 407.71 148.86 404.80 146.23" fill="#f0f0f0" fill-rule="nonzero" group-id="1,2,13,20,25" node-id="983" stroke="none" target-height="89.96999" target-width="149.66998" target-x="404.8" target-y="64.32"></path><path d="M 413.47 154.29 L 554.47 72.38 C 557.27 75.05 560.05 77.80 562.82 80.63 L 421.82 162.55 C 419.06 159.74 416.28 156.98 413.47 154.29" fill="#f5f5f5" fill-rule="nonzero" group-id="1,2,13,20,25" node-id="985" stroke="none" target-height="90.170006" target-width="149.35" target-x="413.47" target-y="72.38"></path><path d="M 421.82 162.55 L 562.82 80.63 C 565.49 83.35 568.13 86.12 570.74 88.94 L 429.74 170.85 C 427.13 168.03 424.48 165.26 421.82 162.55" fill="#fafafa" fill-rule="nonzero" group-id="1,2,13,20,25" node-id="987" stroke="none" target-height="90.22001" target-width="148.91998" target-x="421.82" target-y="80.63"></path><path d="M 429.74 170.85 L 570.74 88.94 C 573.27 91.66 575.77 94.43 578.24 97.25 L 437.24 179.17 C 434.77 176.35 432.27 173.58 429.74 170.85" fill="#ffffff" fill-rule="nonzero" group-id="1,2,13,20,25" node-id="989" stroke="none" target-height="90.229996" target-width="148.5" target-x="429.74" target-y="88.94"></path><path d="M 437.24 179.17 L 578.24 97.25 C 580.69 100.03 583.10 102.86 585.49 105.73 L 444.49 187.64 C 442.10 184.77 439.69 181.95 437.24 179.17" fill="#ffffff" fill-rule="nonzero" group-id="1,2,13,20,25" node-id="991" stroke="none" target-height="90.39" target-width="148.25" target-x="437.24" target-y="97.25"></path><path d="M 444.49 187.64 L 585.49 105.73 C 587.91 108.64 590.30 111.59 592.67 114.59 L 451.67 196.51 C 449.31 193.51 446.92 190.55 444.49 187.64" fill="#ffffff" fill-rule="nonzero" group-id="1,2,13,20,25" node-id="993" stroke="none" target-height="90.77999" target-width="148.18" target-x="444.49" target-y="105.73"></path><path d="M 451.67 196.51 L 592.67 114.59 C 595.34 117.92 597.94 121.33 600.47 124.80 L 459.47 206.72 C 456.92 203.27 454.31 199.86 451.67 196.51" fill="#ffffff" fill-rule="nonzero" group-id="1,2,13,20,25" node-id="995" stroke="none" target-height="92.130005" target-width="148.79996" target-x="451.67" target-y="114.59"></path><path d="M 459.47 206.72 L 600.47 124.80 C 604.01 129.58 607.46 134.45 610.82 139.41 L 469.82 221.32 C 466.49 216.37 463.04 211.51 459.47 206.72" fill="#ffffff" fill-rule="nonzero" group-id="1,2,13,20,25" node-id="997" stroke="none" target-height="96.520004" target-width="151.35" target-x="459.47" target-y="124.8"></path><path d="M 469.82 221.32 L 610.82 139.41 C 616.09 147.17 621.11 155.13 625.88 163.28 L 484.88 245.19 C 480.12 237.05 475.10 229.09 469.82 221.32" fill="#ffffff" fill-rule="nonzero" group-id="1,2,13,20,25" node-id="999" stroke="none" target-height="105.78" target-width="156.06" target-x="469.82" target-y="139.41"></path><path d="M 484.88 245.19 L 625.88 163.28 L 628.00 167.00 L 487.00 248.94 C 486.29 247.68 485.56 246.44 484.84 245.19" fill="#ffffff" fill-rule="nonzero" group-id="1,2,13,20,25" node-id="1001" stroke="none" target-height="85.66" target-width="143.16" target-x="484.84" target-y="163.28"></path><path d="M 628.00 167.00 C 593.21 106.09 543.25 54.48 493.22 25.60 L 479.13 33.79 C 529.13 62.67 579.13 114.28 613.90 175.21 L 628.00 167.00" fill="url(#未命名的渐变_40-14)" fill-rule="nonzero" group-id="1,2,13,20" node-id="1004" stroke="none" target-height="149.61" target-width="148.87" target-x="479.13" target-y="25.6"></path><path d="M 613.90 175.21 C 579.11 114.28 529.16 62.67 479.13 33.79 L 465.00 42.00 C 515.00 70.89 565.00 122.49 599.78 183.42 L 613.87 175.23" fill="url(#未命名的渐变_34-4)" fill-rule="nonzero" group-id="1,2,13,20" node-id="1006" stroke="none" target-height="149.63" target-width="148.90002" target-x="465" target-y="33.79"></path><path d="M 599.81 183.40 C 565.00 122.47 515.06 70.87 465.00 42.00 L 450.90 50.19 C 500.90 79.08 550.90 130.69 585.68 191.61 L 599.78 183.42" fill="url(#未命名的渐变_40-15)" fill-rule="nonzero" group-id="1,2,13,20" node-id="1008" stroke="none" target-height="149.61" target-width="148.91" target-x="450.9" target-y="42"></path><path d="M 585.71 191.59 C 550.92 130.67 501.00 79.06 450.93 50.17 L 436.84 58.36 C 486.84 87.25 536.84 138.86 571.61 199.79 L 585.71 191.59" fill="url(#未命名的渐变_34-5)" fill-rule="nonzero" group-id="1,2,13,20" node-id="1010" stroke="none" target-height="149.62" target-width="148.87003" target-x="436.84" target-y="50.17"></path><path d="M 571.61 199.79 C 536.82 138.86 486.87 87.25 436.84 58.36 L 422.74 66.55 C 472.74 95.44 522.74 147.05 557.52 207.98 L 571.61 199.79" fill="url(#未命名的渐变_40-16)" fill-rule="nonzero" group-id="1,2,13,20" node-id="1012" stroke="none" target-height="149.62" target-width="148.87" target-x="422.74" target-y="58.36"></path><path d="M 557.52 208.00 C 522.73 147.05 472.77 95.44 422.74 66.55 L 408.65 74.75 C 458.65 103.63 508.65 155.24 543.42 216.17 L 557.52 207.98" fill="url(#未命名的渐变_34-6)" fill-rule="nonzero" group-id="1,2,13,20" node-id="1014" stroke="none" target-height="149.62" target-width="148.87003" target-x="408.65" target-y="66.55"></path><path d="M 543.42 216.17 C 508.64 155.24 458.68 103.63 408.65 74.75 L 394.55 82.94 C 444.55 111.82 494.55 163.43 529.33 224.36 L 543.42 216.17" fill="url(#未命名的渐变_40-17)" fill-rule="nonzero" group-id="1,2,13,20" node-id="1016" stroke="none" target-height="149.61" target-width="148.87" target-x="394.55" target-y="74.75"></path><path d="M 529.33 224.36 C 494.54 163.43 444.58 111.82 394.55 82.94 L 380.45 91.13 C 430.45 120.01 480.45 171.62 515.23 232.55 L 529.33 224.36" fill="url(#未命名的渐变_34-7)" fill-rule="nonzero" group-id="1,2,13,20" node-id="1018" stroke="none" target-height="149.61" target-width="148.88" target-x="380.45" target-y="82.94"></path><path d="M 515.23 232.55 C 480.44 171.62 430.48 120.00 380.45 91.13 L 366.36 99.32 C 416.36 128.21 466.36 179.82 501.13 240.74 L 515.23 232.55" fill="url(#未命名的渐变_40-18)" fill-rule="nonzero" group-id="1,2,13,20" node-id="1020" stroke="none" target-height="149.61002" target-width="148.87" target-x="366.36" target-y="91.13"></path><path d="M 501.13 240.74 C 466.35 179.82 416.39 128.21 366.36 99.32 L 352.26 107.51 C 402.26 136.40 452.26 188.01 487.04 248.93 L 501.13 240.74" fill="url(#未命名的渐变_34-8)" fill-rule="nonzero" group-id="1,2,13,20" node-id="1022" stroke="none" target-height="149.60999" target-width="148.87" target-x="352.26" target-y="99.32"></path></g><path d="M 352.26 107.51 C 402.26 136.40 452.26 188.01 487.04 248.94 L 443.24 285.94 C 415.97 244.09 387.51 212.94 352.02 192.44 C 314.21 170.61 289.72 175.89 289.63 208.64 C 289.53 244.06 320.32 274.56 356.92 312.44 L 413.27 372.44 C 465.56 427.44 499.77 485.32 499.57 556.84 C 499.34 637.72 440.39 672.64 340.92 615.21 C 283.33 581.96 225.81 522.65 184.06 452.34 L 233.69 412.71 C 264.43 463.26 305.09 508.83 342.90 530.71 C 387.70 556.58 411.61 548.29 411.71 513.53 C 411.81 476.76 385.71 450.29 347.33 409.40 L 289.82 348.00 C 246.25 302.09 202.73 236.79 202.93 164.60 C 203.16 83.70 265.00 57.13 352.26 107.51 Z" fill="url(#未命名的渐变_7)" fill-rule="nonzero" group-id="1,2" node-id="1026" stroke="none" target-height="615.51" target-width="315.71" target-x="184.06" target-y="57.13"></path></g><path d="M 556.67 616.00 C 556.67 616.00 549.67 616.45 554.67 606.54 C 559.67 596.63 562.55 593.25 560.30 584.01 C 558.05 574.77 565.93 559.24 575.62 561.71 C 585.31 564.18 593.41 574.33 593.41 578.61 C 593.41 582.89 596.57 602.49 588.68 610.61 C 580.79 618.73 556.67 616.00 556.67 616.00 Z" fill="#2b304f" fill-rule="nonzero" group-id="1" node-id="1029" stroke="none" target-height="59.48999" target-width="46.900024" target-x="549.67" target-y="559.24"></path><path d="M 551.49 634.74 C 551.49 634.74 553.97 602.86 569.06 597.12 C 583.06 597.12 591.70 599.71 599.36 632.37 C 556.11 637.56 551.49 634.74 551.49 634.74 Z" fill="#da4147" fill-rule="nonzero" group-id="1" node-id="1031" stroke="none" target-height="40.440002" target-width="47.869995" target-x="551.49" target-y="597.12"></path><path d="M 547.14 631.21 L 601.80 631.21 L 596.85 666.35 L 574.47 670.86 L 551.49 667.25 L 547.14 631.21 Z" fill="#fcee21" fill-rule="nonzero" group-id="1" node-id="1033" stroke="none" target-height="39.649963" target-width="54.659973" target-x="547.14" target-y="631.21"></path><path d="M 569.29 579.89 C 569.29 579.89 562.19 578.89 566.59 585.29 C 570.99 591.69 572.09 592.78 571.43 597.12 C 570.53 603.12 577.06 608.27 579.76 601.63 C 580.10 594.98 581.12 592.63 581.90 591.38 C 582.68 590.13 588.10 584.96 588.10 584.96 C 588.10 584.96 589.51 577.80 585.10 581.69 C 582.70 583.75 573.23 588.00 569.29 579.89 Z" fill="#ffccc7" fill-rule="nonzero" group-id="1" node-id="1035" stroke="none" target-height="30.470032" target-width="27.320007" target-x="562.19" target-y="577.8"></path><path d="M 595.73 646.68 L 600.06 646.68 C 600.73 646.68 601.28 647.23 601.28 647.90 L 601.28 654.83 C 601.28 655.68 600.59 656.37 599.74 656.37 L 595.74 656.37 C 595.07 656.37 594.52 655.82 594.52 655.15 L 594.52 647.89 C 594.52 647.22 595.07 646.67 595.74 646.67 Z" fill="#ffccc7" fill-rule="nonzero" group-id="1" node-id="1037" stroke="none" target-height="9.700012" target-width="6.76001" target-x="594.52" target-y="646.67"></path><path d="M 551.63 655.01 L 547.63 655.01 L 547.03 654.89 L 546.54 654.56 L 546.21 654.07 L 546.09 653.47 L 546.09 646.54 L 546.19 646.06 L 546.45 645.68 L 546.83 645.42 L 547.31 645.32 L 551.63 645.32 L 552.11 645.42 L 552.49 645.68 L 552.75 646.06 L 552.85 646.54 L 552.85 653.80 L 552.75 654.28 L 552.49 654.66 L 552.11 654.91 L 551.63 655.01 Z" fill="#ffccc7" fill-rule="nonzero" group-id="1,3" node-id="1041" stroke="none" target-height="9.690002" target-width="6.76001" target-x="546.09" target-y="645.31995"></path><path d="M 553.75 664.40 L 527.61 658.84 C 527.61 658.84 512.45 660.65 519.96 671.61 C 530.17 678.37 564.56 700.44 564.56 700.44 L 585.00 692.00 C 585.00 692.00 623.60 666.77 623.75 666.32 C 623.90 665.87 632.91 650.48 616.24 651.49 C 616.24 651.30 585.75 664.07 585.75 664.07 Z" fill="#2c3154" fill-rule="nonzero" group-id="1" node-id="1044" stroke="none" target-height="49.960022" target-width="120.45996" target-x="512.45" target-y="650.48"></path><path d="M 565.00 701.15 C 565.00 701.15 564.32 696.64 567.14 696.31 C 569.96 695.98 580.20 690.56 580.20 690.56 C 580.20 690.56 584.03 690.22 582.01 695.86 C 581.15 698.18 580.09 700.43 578.84 702.57 C 577.71 704.51 575.32 705.32 573.24 704.48 Z" fill="#ffa34e" fill-rule="nonzero" group-id="1" node-id="1046" stroke="none" target-height="15.1032715" target-width="19.710022" target-x="564.32" target-y="690.22"></path><path d="M 547.78 689.25 C 547.78 689.25 540.78 695.25 543.95 697.03 C 547.12 698.81 559.04 696.35 559.04 696.35 Z" fill="#ffa34e" fill-rule="nonzero" group-id="1" node-id="1048" stroke="none" target-height="9.559998" target-width="18.259949" target-x="540.78" target-y="689.25"></path><path d="M 299.53 603.84 L 299.46 629.11 L 275.45 643.06 L 275.52 617.79 L 299.53 603.84 Z" fill="#ffffff" fill-rule="nonzero" group-id="1,4" node-id="1052" stroke="none" target-height="39.21997" target-width="24.079987" target-x="275.45" target-y="603.84"></path><path d="M 275.52 617.79 L 275.45 643.06 L 251.28 629.11 L 251.36 603.84 L 275.52 617.79 Z" fill="#cccccc" fill-rule="nonzero" group-id="1,4" node-id="1054" stroke="none" target-height="39.21997" target-width="24.23999" target-x="251.28" target-y="603.84"></path><path d="M 299.53 603.84 L 275.52 617.79 L 251.36 603.84 L 275.37 589.89 L 299.53 603.84 Z" fill="#e6e6e6" fill-rule="nonzero" group-id="1,4" node-id="1056" stroke="none" target-height="27.899963" target-width="48.17" target-x="251.36" target-y="589.89"></path><path d="M 381.05 490.10 L 380.98 515.37 L 356.97 529.32 L 357.04 504.05 L 381.05 490.10 Z" fill="#fcee21" fill-rule="nonzero" group-id="1,5" node-id="1061" stroke="none" target-height="39.22" target-width="24.079987" target-x="356.97" target-y="490.1"></path><path d="M 357.04 504.05 L 356.97 529.32 L 332.80 515.37 L 332.87 490.10 L 357.04 504.05 Z" fill="#f7931e" fill-rule="nonzero" group-id="1,5" node-id="1063" stroke="none" target-height="39.22" target-width="24.24002" target-x="332.8" target-y="490.1"></path><path d="M 381.05 490.10 L 357.04 504.05 L 332.87 490.10 L 356.88 476.15 L 381.05 490.10 Z" fill="#fbb03b" fill-rule="nonzero" group-id="1,5" node-id="1065" stroke="none" target-height="27.899994" target-width="48.179993" target-x="332.87" target-y="476.15"></path><path d="M 692.27 663.32 L 692.20 688.59 L 668.19 702.55 L 668.26 677.28 L 692.27 663.32 Z" fill="#fcee21" fill-rule="nonzero" group-id="1,6" node-id="1070" stroke="none" target-height="39.22998" target-width="24.080017" target-x="668.19" target-y="663.32"></path><path d="M 668.26 677.28 L 668.19 702.55 L 644.03 688.59 L 644.10 663.32 L 668.26 677.28 Z" fill="#f7931e" fill-rule="nonzero" group-id="1,6" node-id="1072" stroke="none" target-height="39.22998" target-width="24.22998" target-x="644.03" target-y="663.32"></path><path d="M 692.27 663.32 L 668.26 677.28 L 644.10 663.32 L 668.11 649.37 L 692.27 663.32 Z" fill="#fbb03b" fill-rule="nonzero" group-id="1,6" node-id="1074" stroke="none" target-height="27.910034" target-width="48.170044" target-x="644.1" target-y="649.37"></path></g></svg>