<?xml version="1.0" standalone="no"?><!DOCTYPE svg PUBLIC "-//W3C//DTD SVG 1.1//EN" "http://www.w3.org/Graphics/SVG/1.1/DTD/svg11.dtd"><svg height="856" node-id="1" sillyvg="true" template-height="856" template-width="936" version="1.1" viewBox="0 0 936 856" width="936" xmlns="http://www.w3.org/2000/svg" xmlns:xlink="http://www.w3.org/1999/xlink"><defs node-id="284"><linearGradient gradientTransform="matrix(0.98413373 -0.17742828 0.17742828 0.98413373 -583.06 627.14)" gradientUnits="userSpaceOnUse" id="未命名的渐变_25" node-id="5" spreadMethod="pad" x1="876.38" x2="1227.33" y1="8.69" y2="8.69"><stop offset="0" stop-color="#fcbd60"></stop><stop offset="1" stop-color="#ff2a9d"></stop></linearGradient><linearGradient gradientTransform="matrix(0.98413373 -0.17742828 0.17742828 0.98413373 -583.06 627.14)" gradientUnits="userSpaceOnUse" id="未命名的渐变_25-2" node-id="8" spreadMethod="pad" x1="633.22" x2="1062.08" y1="59.37" y2="59.37"><stop offset="0" stop-color="#fcbd60"></stop><stop offset="1" stop-color="#ff2a9d"></stop></linearGradient><linearGradient gradientTransform="matrix(0.98413373 -0.17742828 0.17742828 0.98413373 -583.06 627.14)" gradientUnits="userSpaceOnUse" id="未命名的渐变_22" node-id="9" spreadMethod="pad" x1="587.83" x2="976.67" y1="55.72" y2="55.72"><stop offset="0" stop-color="#ffe496"></stop><stop offset="1" stop-color="#ff446f"></stop></linearGradient><linearGradient gradientUnits="userSpaceOnUse" id="未命名的渐变_22-2" node-id="12" spreadMethod="pad" x1="534.15" x2="803.61" y1="511.15" y2="511.15"><stop offset="0" stop-color="#ffe496"></stop><stop offset="1" stop-color="#ff446f"></stop></linearGradient><linearGradient gradientUnits="userSpaceOnUse" id="未命名的渐变_25-3" node-id="13" spreadMethod="pad" x1="478.49" x2="778.71" y1="606.15" y2="606.15"><stop offset="0" stop-color="#fcbd60"></stop><stop offset="1" stop-color="#ff2a9d"></stop></linearGradient><linearGradient gradientUnits="userSpaceOnUse" id="未命名的渐变_34" node-id="22" spreadMethod="pad" x1="346.09" x2="464.39" y1="295.83" y2="295.83"><stop offset="0" stop-color="#ffffff"></stop><stop offset="1" stop-color="#ffccc7"></stop></linearGradient><linearGradient gradientUnits="userSpaceOnUse" id="未命名的渐变_34-2" node-id="25" spreadMethod="pad" x1="317.89" x2="436.2" y1="312.22" y2="312.22"><stop offset="0" stop-color="#ffffff"></stop><stop offset="1" stop-color="#ffccc7"></stop></linearGradient><linearGradient gradientUnits="userSpaceOnUse" id="未命名的渐变_34-3" node-id="26" spreadMethod="pad" x1="289.7" x2="408.01" y1="328.6" y2="328.6"><stop offset="0" stop-color="#ffffff"></stop><stop offset="1" stop-color="#ffccc7"></stop></linearGradient><linearGradient gradientUnits="userSpaceOnUse" id="未命名的渐变_34-4" node-id="27" spreadMethod="pad" x1="261.51" x2="379.82" y1="344.98" y2="344.98"><stop offset="0" stop-color="#ffffff"></stop><stop offset="1" stop-color="#ffccc7"></stop></linearGradient><linearGradient gradientUnits="userSpaceOnUse" id="未命名的渐变_34-5" node-id="28" spreadMethod="pad" x1="233.32" x2="351.62" y1="361.37" y2="361.37"><stop offset="0" stop-color="#ffffff"></stop><stop offset="1" stop-color="#ffccc7"></stop></linearGradient><linearGradient gradientUnits="userSpaceOnUse" id="未命名的渐变_29" node-id="31" spreadMethod="pad" x1="332.41" x2="671.54" y1="282.98" y2="282.98"><stop offset="0" stop-color="#cf1322"></stop><stop offset="1" stop-color="#ff4d4f"></stop></linearGradient><linearGradient gradientUnits="userSpaceOnUse" id="未命名的渐变_29-2" node-id="34" spreadMethod="pad" x1="304.22" x2="643.35" y1="299.37" y2="299.37"><stop offset="0" stop-color="#cf1322"></stop><stop offset="1" stop-color="#ff4d4f"></stop></linearGradient><linearGradient gradientUnits="userSpaceOnUse" id="未命名的渐变_29-3" node-id="35" spreadMethod="pad" x1="276.02" x2="615.16" y1="315.75" y2="315.75"><stop offset="0" stop-color="#cf1322"></stop><stop offset="1" stop-color="#ff4d4f"></stop></linearGradient><linearGradient gradientUnits="userSpaceOnUse" id="未命名的渐变_29-4" node-id="36" spreadMethod="pad" x1="247.83" x2="586.97" y1="332.13" y2="332.13"><stop offset="0" stop-color="#cf1322"></stop><stop offset="1" stop-color="#ff4d4f"></stop></linearGradient><linearGradient gradientUnits="userSpaceOnUse" id="未命名的渐变_29-5" node-id="37" spreadMethod="pad" x1="219.64" x2="558.78" y1="348.52" y2="348.52"><stop offset="0" stop-color="#cf1322"></stop><stop offset="1" stop-color="#ff4d4f"></stop></linearGradient><linearGradient gradientUnits="userSpaceOnUse" id="未命名的渐变_7" node-id="38" spreadMethod="pad" x1="548.15" x2="145.48" y1="468.96" y2="468.96"><stop offset="0" stop-color="#f5222d"></stop><stop offset="1" stop-color="#cf1322"></stop></linearGradient><clipPath id="clip-path" node-id="14"><path d="M 542.78 467.79 L 401.78 549.70 C 384.78 559.61 362.94 557.61 337.49 542.92 L 478.49 461.00 C 503.94 475.70 525.74 477.69 542.78 467.79 Z" fill="#000000" fill-rule="nonzero" node-id="383" stroke="none" target-height="98.609985" target-width="205.29004" target-x="337.49" target-y="461"></path></clipPath><clipPath id="clip-path-2" node-id="16"><path d="M 533.23 774.42 L 674.19 692.50 L 689.11 774.09 L 548.15 856.01 L 533.23 774.42 Z" fill="#000000" fill-rule="nonzero" node-id="387" stroke="none" target-height="163.51001" target-width="155.88" target-x="533.23" target-y="692.5"></path></clipPath><clipPath id="clip-path-3" node-id="18"><path d="M 388.51 646.00 L 529.51 564.08 C 549.18 612.93 588.12 650.81 627.09 673.31 C 645.71 684.06 662.00 690.12 674.23 692.50 L 533.23 774.42 C 521.00 772.00 504.71 766.00 486.09 755.23 C 447.12 732.73 408.18 694.85 388.51 646.00 Z" fill="#000000" fill-rule="nonzero" node-id="391" stroke="none" target-height="210.33997" target-width="285.71997" target-x="388.51" target-y="564.08"></path></clipPath><clipPath id="clip-path-4" node-id="20"><path d="M 272.57 188.00 L 413.57 106.08 C 388.77 120.49 374.50 160.08 374.32 222.73 C 374.00 333.70 414.50 424.06 478.49 461.00 L 337.49 542.92 C 273.54 506.00 233.00 415.62 233.32 304.66 C 233.50 242.00 247.78 202.41 272.57 188.00 Z" fill="#000000" fill-rule="nonzero" node-id="395" stroke="none" target-height="436.83997" target-width="245.48999" target-x="233" target-y="106.08"></path></clipPath><clipPath id="clip-path-5" node-id="29"><path d="M 205.54 93.24 L 346.54 11.32 C 380.08 -8.19 426.00 -2.50 479.72 28.52 C 593.73 94.35 672.00 233.94 671.54 394.36 C 671.30 480.31 648.48 535.36 609.85 557.77 L 468.85 639.69 C 507.48 617.24 530.30 562.23 530.54 476.28 C 531.00 315.86 452.74 176.28 338.72 110.44 C 285.00 79.42 239.12 73.73 205.54 93.24 Z" fill="#000000" fill-rule="nonzero" node-id="399" stroke="none" target-height="647.88" target-width="466.46002" target-x="205.54" target-y="-8.19"></path></clipPath></defs><g node-id="902"><path d="M 593.44 235.41 C 592.14 228.01 585.30 222.92 577.84 223.80 C 570.38 224.68 564.91 231.24 565.38 238.73 C 565.85 246.23 572.09 252.05 579.60 252.00 C 585.19 330.27 554.69 374.88 527.36 398.77 C 515.87 408.73 503.04 417.03 489.23 423.40 C 488.75 421.94 487.15 420.52 484.73 419.35 C 549.58 361.10 541.53 269.72 536.79 239.83 C 544.22 238.47 549.27 231.52 548.28 224.04 C 547.29 216.55 540.61 211.16 533.08 211.77 C 525.56 212.38 519.83 218.79 520.07 226.34 C 520.31 233.88 526.42 239.92 533.97 240.06 C 538.65 269.37 546.97 360.71 481.79 418.18 C 477.77 416.94 473.57 416.37 469.37 416.49 C 502.42 360.92 493.57 265.71 490.37 239.49 C 496.88 237.71 500.86 231.15 499.44 224.55 C 498.03 217.95 491.70 213.61 485.03 214.66 C 478.37 215.70 473.68 221.78 474.35 228.49 C 475.03 235.21 480.83 240.23 487.57 239.93 C 490.82 266.31 499.73 362.30 465.95 416.72 C 464.75 416.84 463.54 416.99 462.32 417.21 C 461.32 417.38 460.39 417.60 459.45 417.83 L 417.77 261.23 C 425.11 259.48 429.79 252.27 428.41 244.85 C 427.02 237.43 420.07 232.40 412.58 233.40 C 405.10 234.41 399.73 241.11 400.36 248.63 C 400.99 256.15 407.41 261.86 414.95 261.61 L 456.73 418.61 C 454.14 419.42 451.63 420.49 449.24 421.78 C 405.44 408.00 377.35 320.30 367.61 284.63 C 374.91 282.73 379.44 275.45 377.92 268.06 C 376.40 260.67 369.36 255.77 361.90 256.91 C 354.45 258.05 349.19 264.83 349.94 272.33 C 350.70 279.84 357.20 285.44 364.73 285.07 C 374.21 320.46 401.60 407.07 446.07 423.69 C 444.10 424.98 442.34 426.58 440.86 428.42 C 366.14 421.10 331.93 343.15 321.39 312.81 C 327.46 310.05 330.32 303.03 327.92 296.81 C 325.53 290.59 318.70 287.32 312.35 289.34 C 305.99 291.36 302.31 297.98 303.95 304.44 C 305.59 310.90 311.98 314.97 318.53 313.72 L 318.69 313.67 C 329.36 344.32 363.88 422.92 439.39 431.10 C 439.19 431.67 439.14 432.28 439.23 432.88 C 439.60 434.21 440.57 435.30 441.86 435.81 C 374.86 449.71 332.72 422.68 308.86 396.73 C 290.91 377.19 280.43 355.47 275.34 342.84 C 280.98 338.32 282.10 330.18 277.88 324.31 C 273.67 318.44 265.60 316.89 259.51 320.79 C 253.43 324.69 251.46 332.67 255.03 338.95 C 258.60 345.23 266.46 347.62 272.92 344.39 C 278.17 357.31 288.76 379.01 306.71 398.57 C 330.44 424.44 371.86 451.40 437.23 439.62 C 440.59 439.01 444.04 438.26 447.53 437.45 C 453.34 438.12 459.22 437.92 464.97 436.85 C 515.82 618.49 484.37 665.67 484.00 666.13 L 487.43 668.63 L 490.83 671.17 C 492.29 669.22 525.46 621.78 473.24 434.97 C 480.56 432.84 486.14 429.85 488.34 426.97 C 503.14 420.37 516.88 411.61 529.12 401.00 C 557.00 376.68 588.12 331.27 582.42 251.72 C 589.90 250.16 594.78 242.93 593.44 235.41 Z" fill="url(#未命名的渐变_25)" fill-rule="nonzero" group-id="1" node-id="405" stroke="none" target-height="460.0144" target-width="343.32468" target-x="251.45572" target-y="211.15556"></path><path d="M 388.87 614.79 C 390.15 605.93 403.08 454.01 327.69 562.55 C 327.69 562.55 306.87 606.55 337.64 681.55 C 350.24 719.55 243.49 669.76 270.75 549.81 C 298.01 429.86 178.17 339.30 157.07 397.74 C 135.97 456.18 202.40 553.50 222.35 584.41 C 242.30 615.32 236.91 665.19 195.45 626.64 C 153.99 588.09 109.58 501.21 100.86 405.00 C 92.14 308.79 35.54 250.00 21.61 252.49 C 7.68 254.98 -4.74 265.86 1.79 302.07 C 1.79 302.07 94.43 862.70 493.11 819.48 C 495.69 819.20 497.89 817.49 498.79 815.05 C 499.68 812.62 499.12 809.88 497.33 808.00 C 486.35 796.40 479.94 781.23 479.27 765.27 C 476.81 719.70 488.73 706.05 501.92 683.54 C 515.11 661.03 467.37 603.54 451.06 672.54 C 434.75 741.54 446.62 759.62 409.41 760.54 C 372.20 761.46 387.59 623.54 388.87 614.70 C 390.15 605.86 406.33 456.26 327.69 562.46" fill="url(#未命名的渐变_25-2)" fill-rule="nonzero" group-id="1" node-id="407" stroke="none" target-height="612.7" target-width="519.85" target-x="-4.74" target-y="250"></path><path d="M 263.91 588.41 C 262.74 591.84 259.39 594.04 255.78 593.76 C 252.11 593.35 248.00 590.49 246.24 580.76 C 243.14 563.55 233.70 424.10 231.54 391.76 C 231.19 386.65 229.99 381.62 228.00 376.90 C 221.51 361.36 205.41 331.58 186.54 361.43 C 164.54 396.21 212.06 549.23 222.46 581.54 C 223.33 584.12 223.08 586.96 221.76 589.35 C 220.45 591.73 218.19 593.46 215.54 594.11 C 210.32 595.25 202.24 594.42 189.99 588.00 C 165.99 575.43 116.06 508.79 100.63 487.69 C 95.75 480.83 88.82 475.69 80.84 473.00 C 71.18 469.91 59.53 470.75 54.25 488.78 C 48.90 507.00 45.84 522.00 75.93 545.30 C 100.12 564.06 151.81 583.39 168.48 612.02 C 185.15 640.65 143.13 631.00 143.13 631.00 C 143.13 631.00 27.53 579.90 15.33 608.00 C 9.24 622.00 16.12 632.31 24.52 639.06 C 32.74 645.48 42.83 649.03 53.25 649.17 C 76.73 649.79 133.00 653.36 147.88 673.27 C 169.32 701.94 238.15 743.27 285.27 717.52 C 332.39 691.77 279.27 652.45 331.27 605.70 C 383.27 558.95 422.10 471.42 345.34 508.26 C 287.00 536.23 268.43 576.12 263.91 588.41 Z" fill="url(#未命名的渐变_22)" fill-rule="nonzero" group-id="1" node-id="409" stroke="none" target-height="411.69003" target-width="412.86002" target-x="9.24" target-y="331.58"></path><path d="M 671.15 669.20 C 671.15 669.20 815.57 546.65 880.93 407.43 C 882.77 403.47 885.51 400.00 888.93 397.28 C 902.65 386.47 937.19 365.69 936.04 431.87 C 934.49 441.80 922.15 569.69 671.15 669.20 Z" fill="#f5222d" fill-rule="nonzero" group-id="1" node-id="411" stroke="none" target-height="303.51" target-width="266.03998" target-x="671.15" target-y="365.69"></path><path d="M 599.10 574.53 C 597.32 569.20 572.40 476.70 631.10 535.41 C 631.10 535.41 648.88 560.31 638.21 610.10 C 634.65 634.99 695.12 592.32 664.89 521.18 C 634.66 450.04 698.67 380.70 718.23 414.49 C 737.79 448.28 707.56 515.85 698.67 537.19 C 689.78 558.53 698.67 588.76 720.01 560.31 C 741.35 531.86 759.13 473.17 753.80 412.71 C 748.47 352.25 776.92 309.57 785.80 309.57 C 794.68 309.57 803.60 314.90 803.60 338.00 C 803.60 338.00 808.80 695.00 557.45 712.70 C 555.83 712.81 554.29 711.99 553.46 710.59 C 552.64 709.19 552.68 707.44 553.57 706.08 C 559.07 697.70 561.35 687.61 560.00 677.67 C 556.44 649.22 547.55 642.11 536.88 629.67 C 526.21 617.23 549.33 576.32 567.11 617.22 C 584.89 658.12 579.56 670.57 602.68 667.01 C 625.80 663.45 600.90 579.88 599.12 574.54 C 597.34 569.20 570.67 478.54 631.12 535.42" fill="url(#未命名的渐变_22-2)" fill-rule="nonzero" group-id="1" node-id="413" stroke="none" target-height="403.23755" target-width="282.58997" target-x="526.21" target-y="309.57"></path><path d="M 647.91 685.00 C 647.91 685.00 681.70 665.44 713.71 669.00 C 745.72 672.56 793.71 654.77 774.17 635.21 C 755.00 616.00 703.54 622.43 683.00 642.71 C 681.93 643.85 680.22 644.14 678.83 643.41 C 677.70 642.75 677.23 641.41 679.91 638.73 C 685.25 633.39 738.60 599.60 701.25 580.04 C 668.25 562.77 649.17 621.75 645.15 635.79 C 644.57 638.04 642.47 639.55 640.15 639.39 C 638.15 639.17 636.38 637.84 637.26 633.39 C 639.73 621.06 647.93 592.49 656.83 576.49 C 663.05 565.28 656.83 519.58 633.71 528.49 C 610.59 537.40 599.90 580.00 599.90 606.72 C 599.90 617.39 591.01 599.60 591.01 599.60 C 591.01 599.60 560.78 516.00 546.55 546.26 C 532.32 576.52 555.33 627.95 569.67 642.26 C 575.00 647.60 560.78 644.04 560.78 644.04 C 560.78 644.04 487.87 626.26 478.98 658.27 C 470.09 690.28 585.67 651.17 635.47 685.00 Z" fill="url(#未命名的渐变_25-3)" fill-rule="nonzero" group-id="1" node-id="415" stroke="none" target-height="174.28003" target-width="323.62003" target-x="470.09" target-y="516"></path><g node-id="903"><g node-id="906"><g clip-path="url(#clip-path)" group-id="1,2,5" node-id="421"><path d="M 337.53 542.92 L 478.53 461.00 C 479.60 461.62 480.66 462.22 481.72 462.79 L 340.72 544.71 C 339.66 544.13 338.60 543.54 337.53 542.92" fill="#cccccc" fill-rule="nonzero" group-id="1,2,5,10,15" node-id="425" stroke="none" target-height="83.71002" target-width="144.19" target-x="337.53" target-y="461"></path><path d="M 340.72 544.71 L 481.72 462.79 C 483.09 463.53 484.45 464.24 485.80 464.91 L 344.80 546.82 C 343.45 546.16 342.09 545.45 340.72 544.71" fill="#c7c7c7" fill-rule="nonzero" group-id="1,2,5,10,15" node-id="427" stroke="none" target-height="84.03" target-width="145.07999" target-x="340.72" target-y="462.79"></path><path d="M 344.80 546.82 L 485.80 464.91 C 487.12 465.56 488.44 466.18 489.74 466.76 L 348.74 548.68 C 347.44 548.10 346.13 547.48 344.80 546.82" fill="#c2c2c2" fill-rule="nonzero" group-id="1,2,5,10,15" node-id="429" stroke="none" target-height="83.76999" target-width="144.94" target-x="344.8" target-y="464.91"></path><path d="M 348.74 548.68 L 489.74 466.76 C 491.01 467.33 492.27 467.87 493.51 468.37 L 352.51 550.28 C 351.27 549.78 350.01 549.28 348.74 548.68" fill="#bdbdbd" fill-rule="nonzero" group-id="1,2,5,10,15" node-id="431" stroke="none" target-height="83.52002" target-width="144.77002" target-x="348.74" target-y="466.76"></path><path d="M 352.51 550.28 L 493.51 468.37 C 494.76 468.87 496.00 469.37 497.23 469.77 L 356.23 551.68 C 355.00 551.25 353.76 550.78 352.51 550.28" fill="#b8b8b8" fill-rule="nonzero" group-id="1,2,5,10,15" node-id="433" stroke="none" target-height="83.31" target-width="144.72" target-x="352.51" target-y="468.37"></path><path d="M 356.23 551.68 L 497.23 469.77 C 498.46 470.20 499.69 470.60 500.90 470.97 L 359.90 552.88 C 358.69 552.52 357.46 552.12 356.23 551.68" fill="#b3b3b3" fill-rule="nonzero" group-id="1,2,5,10,15" node-id="435" stroke="none" target-height="83.110016" target-width="144.66998" target-x="356.23" target-y="469.77"></path><path d="M 359.90 552.88 L 500.90 470.97 C 502.11 471.33 503.32 471.67 504.51 471.97 L 363.51 553.89 C 362.32 553.59 361.12 553.26 359.90 552.89" fill="#adadad" fill-rule="nonzero" group-id="1,2,5,10,15" node-id="437" stroke="none" target-height="82.92001" target-width="144.61002" target-x="359.9" target-y="470.97"></path><path d="M 363.51 553.88 L 504.51 471.96 C 505.75 472.28 506.99 472.55 508.21 472.79 L 367.21 554.70 C 365.99 554.47 364.75 554.19 363.51 553.88" fill="#a8a8a8" fill-rule="nonzero" group-id="1,2,5,10,15" node-id="439" stroke="none" target-height="82.74002" target-width="144.69998" target-x="363.51" target-y="471.96"></path><path d="M 367.21 554.70 L 508.21 472.79 C 509.46 473.03 510.69 473.23 511.91 473.39 L 370.91 555.31 C 369.69 555.15 368.46 554.94 367.21 554.70" fill="#a3a3a3" fill-rule="nonzero" group-id="1,2,5,10,15" node-id="441" stroke="none" target-height="82.51999" target-width="144.70001" target-x="367.21" target-y="472.79"></path><path d="M 370.91 555.31 L 511.91 473.39 C 513.21 473.57 514.49 473.70 515.76 473.78 L 374.76 555.70 C 373.49 555.61 372.21 555.48 370.91 555.31" fill="#9e9e9e" fill-rule="nonzero" group-id="1,2,5,10,15" node-id="443" stroke="none" target-height="82.31" target-width="144.85" target-x="370.91" target-y="473.39"></path><path d="M 374.76 555.70 L 515.76 473.78 C 517.13 473.88 518.48 473.92 519.82 473.91 L 378.82 555.83 C 377.48 555.83 376.13 555.83 374.76 555.70" fill="#999999" fill-rule="nonzero" group-id="1,2,5,10,15" node-id="445" stroke="none" target-height="82.05002" target-width="145.06" target-x="374.76" target-y="473.78"></path><path d="M 378.82 555.83 L 519.82 473.91 C 521.31 473.91 522.78 473.84 524.23 473.70 L 383.23 555.61 C 381.78 555.75 380.31 555.82 378.82 555.83" fill="#949494" fill-rule="nonzero" group-id="1,2,5,10,15" node-id="447" stroke="none" target-height="82.130005" target-width="145.40997" target-x="378.82" target-y="473.7"></path><path d="M 383.23 555.61 L 524.23 473.70 C 525.85 473.54 527.44 473.31 529.01 473.00 L 388.00 554.92 C 386.42 555.23 384.82 555.46 383.22 555.61" fill="#8f8f8f" fill-rule="nonzero" group-id="1,2,5,10,15" node-id="449" stroke="none" target-height="82.609985" target-width="145.79001" target-x="383.22" target-y="473"></path><path d="M 388.00 554.92 L 529.00 473.00 C 531.14 472.58 533.25 472.00 535.30 471.27 L 394.30 553.19 C 392.24 553.92 390.14 554.50 388.00 554.92" fill="#8a8a8a" fill-rule="nonzero" group-id="1,2,5,10,15" node-id="451" stroke="none" target-height="83.649994" target-width="147.29999" target-x="388" target-y="471.27"></path><path d="M 394.31 553.19 L 535.31 471.27 C 537.92 470.35 540.43 469.18 542.82 467.79 L 401.82 549.70 C 399.43 551.09 396.92 552.26 394.31 553.19" fill="#858585" fill-rule="nonzero" group-id="1,2,5,10,15" node-id="453" stroke="none" target-height="85.399994" target-width="148.51001" target-x="394.31" target-y="467.79"></path><path d="M 528.69 476.00 C 511.64 485.90 489.85 483.91 464.40 469.22 L 478.50 461.00 C 503.94 475.69 525.74 477.68 542.78 467.78 L 528.69 476.00" fill="#cf1322" fill-rule="nonzero" group-id="1,2,5,10" node-id="456" stroke="none" target-height="24.899994" target-width="78.380035" target-x="464.4" target-y="461"></path><path d="M 514.59 484.17 C 497.54 494.08 475.75 492.08 450.30 477.39 L 464.40 469.20 C 489.85 483.89 511.64 485.88 528.69 475.98 L 514.59 484.17" fill="#ffffff" fill-rule="nonzero" group-id="1,2,5,10" node-id="458" stroke="none" target-height="24.879974" target-width="78.390015" target-x="450.3" target-y="469.2"></path><path d="M 500.49 492.36 C 483.49 502.27 461.65 500.27 436.21 485.58 L 450.30 477.39 C 475.75 492.08 497.54 494.08 514.59 484.17 L 500.49 492.36" fill="#cf1322" fill-rule="nonzero" group-id="1,2,5,10" node-id="460" stroke="none" target-height="24.879974" target-width="78.380035" target-x="436.21" target-y="477.39"></path><path d="M 486.40 500.55 C 469.40 510.46 447.56 508.46 422.11 493.78 L 436.21 485.58 C 461.65 500.27 483.45 502.27 500.49 492.36 L 486.40 500.55" fill="#ffccc7" fill-rule="nonzero" group-id="1,2,5,10" node-id="462" stroke="none" target-height="24.880005" target-width="78.380005" target-x="422.11" target-y="485.58"></path><path d="M 472.30 508.74 C 455.30 518.65 433.46 516.66 408.02 501.97 L 422.11 493.78 C 447.56 508.46 469.35 510.46 486.40 500.55 L 472.30 508.74" fill="#cf1322" fill-rule="nonzero" group-id="1,2,5,10" node-id="464" stroke="none" target-height="24.870026" target-width="78.380005" target-x="408.02" target-y="493.78"></path><path d="M 458.21 516.94 C 441.21 526.84 419.37 524.85 393.92 510.16 L 408.00 502.00 C 433.44 516.69 455.24 518.68 472.28 508.77 L 458.19 516.97" fill="#ffccc7" fill-rule="nonzero" group-id="1,2,5,10" node-id="466" stroke="none" target-height="24.840027" target-width="78.359985" target-x="393.92" target-y="502"></path><path d="M 444.11 525.13 C 427.11 535.03 405.27 533.04 379.82 518.35 L 393.92 510.16 C 419.37 524.85 441.16 526.84 458.21 516.94 L 444.11 525.13" fill="#cf1322" fill-rule="nonzero" group-id="1,2,5,10" node-id="468" stroke="none" target-height="24.870026" target-width="78.389984" target-x="379.82" target-y="510.16"></path><path d="M 430.00 533.32 C 413.00 543.22 391.16 541.23 365.71 526.54 L 379.80 518.35 C 405.25 533.04 427.05 535.03 444.09 525.13 L 430.00 533.32" fill="#ffccc7" fill-rule="nonzero" group-id="1,2,5,10" node-id="470" stroke="none" target-height="24.869995" target-width="78.380005" target-x="365.71" target-y="518.35"></path><path d="M 415.92 541.51 C 398.87 551.42 377.08 549.42 351.63 534.73 L 365.73 526.54 C 391.18 541.23 412.97 543.22 430.02 533.32 L 415.92 541.51" fill="#cf1322" fill-rule="nonzero" group-id="1,2,5,10" node-id="472" stroke="none" target-height="24.880005" target-width="78.389984" target-x="351.63" target-y="526.54"></path><path d="M 401.82 549.70 C 384.82 559.61 362.98 557.61 337.54 542.92 L 351.63 534.73 C 377.08 549.42 398.87 551.42 415.92 541.51 L 401.82 549.70" fill="#ffccc7" fill-rule="nonzero" group-id="1,2,5,10" node-id="474" stroke="none" target-height="24.880005" target-width="78.380005" target-x="337.54" target-y="534.73"></path></g></g><path d="M 533.23 774.42 L 674.19 692.50 L 689.11 774.09 L 548.15 856.01 L 533.23 774.42 Z" fill="#dedede" fill-rule="nonzero" group-id="1,2" node-id="478" stroke="none" target-height="163.51001" target-width="155.88" target-x="533.23" target-y="692.5"></path><g clip-path="url(#clip-path-2)" group-id="1,2,6" node-id="482"><path d="M 689.11 774.09 L 674.19 692.50 L 660.09 700.69 L 675.01 782.28 L 689.11 774.09" fill="#ff4d4f" fill-rule="nonzero" group-id="1,2,6,11" node-id="484" stroke="none" target-height="89.78003" target-width="29.019958" target-x="660.09" target-y="692.5"></path><path d="M 675.01 782.28 L 660.09 700.69 L 646.00 708.88 L 660.91 790.47 L 675.01 782.28" fill="#ffffff" fill-rule="nonzero" group-id="1,2,6,11" node-id="486" stroke="none" target-height="89.77997" target-width="29.01001" target-x="646" target-y="700.69"></path><path d="M 660.91 790.47 L 646.00 708.88 L 631.90 717.07 L 646.82 798.66 L 660.91 790.47" fill="#ff4d4f" fill-rule="nonzero" group-id="1,2,6,11" node-id="488" stroke="none" target-height="89.77997" target-width="29.009949" target-x="631.9" target-y="708.88"></path><path d="M 646.82 798.66 L 631.90 717.07 L 617.80 725.27 L 632.72 806.86 L 646.82 798.66" fill="#ffffff" fill-rule="nonzero" group-id="1,2,6,11" node-id="490" stroke="none" target-height="89.78998" target-width="29.02002" target-x="617.8" target-y="717.07"></path><path d="M 632.72 806.86 L 617.80 725.27 L 603.71 733.46 L 618.63 815.05 L 632.72 806.86" fill="#ff4d4f" fill-rule="nonzero" group-id="1,2,6,11" node-id="492" stroke="none" target-height="89.77997" target-width="29.009949" target-x="603.71" target-y="725.27"></path><path d="M 618.63 815.05 L 603.71 733.46 L 589.62 741.65 L 604.53 823.24 L 618.63 815.05" fill="#ffffff" fill-rule="nonzero" group-id="1,2,6,11" node-id="494" stroke="none" target-height="89.77997" target-width="29.01001" target-x="589.62" target-y="733.46"></path><path d="M 604.53 823.24 L 589.62 741.65 L 575.52 749.84 L 590.44 831.43 L 604.53 823.24" fill="#ff4d4f" fill-rule="nonzero" group-id="1,2,6,11" node-id="496" stroke="none" target-height="89.77997" target-width="29.01001" target-x="575.52" target-y="741.65"></path><path d="M 590.44 831.43 L 575.52 749.84 L 561.42 758.03 L 576.34 839.62 L 590.44 831.43" fill="#ffffff" fill-rule="nonzero" group-id="1,2,6,11" node-id="498" stroke="none" target-height="89.77997" target-width="29.02002" target-x="561.42" target-y="749.84"></path><path d="M 576.34 839.62 L 561.42 758.03 L 547.33 766.23 L 562.24 847.82 L 576.34 839.62" fill="#ff4d4f" fill-rule="nonzero" group-id="1,2,6,11" node-id="500" stroke="none" target-height="89.78998" target-width="29.01001" target-x="547.33" target-y="758.03"></path><path d="M 562.24 847.82 L 547.33 766.23 L 533.23 774.42 L 548.15 856.00 L 562.24 847.82" fill="#ffffff" fill-rule="nonzero" group-id="1,2,6,11" node-id="502" stroke="none" target-height="89.77002" target-width="29.01001" target-x="533.23" target-y="766.23"></path></g><g clip-path="url(#clip-path-3)" group-id="1,2,7" node-id="508"><path d="M 388.51 646.00 L 529.51 564.08 C 529.77 564.73 530.03 565.37 530.30 566.01 L 389.30 647.93 C 389.03 647.29 388.77 646.64 388.51 646.00" fill="#fafafa" fill-rule="nonzero" group-id="1,2,7,12,16" node-id="512" stroke="none" target-height="83.849976" target-width="141.78998" target-x="388.51" target-y="564.08"></path><path d="M 389.30 647.93 L 530.30 566.01 C 530.84 567.32 531.40 568.62 531.97 569.91 L 391.00 651.83 C 390.43 650.54 389.87 649.24 389.33 647.93" fill="#ffffff" fill-rule="nonzero" group-id="1,2,7,12,16" node-id="514" stroke="none" target-height="85.82001" target-width="142.66998" target-x="389.3" target-y="566.01"></path><path d="M 391.00 651.83 L 532.00 569.91 C 532.60 571.26 533.21 572.61 533.83 573.91 L 392.83 655.83 C 392.21 654.49 391.60 653.15 391.00 651.83" fill="#ffffff" fill-rule="nonzero" group-id="1,2,7,12,16" node-id="516" stroke="none" target-height="85.920044" target-width="142.83002" target-x="391" target-y="569.91"></path><path d="M 392.80 655.86 L 533.80 573.94 C 534.45 575.31 535.10 576.67 535.80 578.01 L 394.80 659.93 C 394.13 658.58 393.48 657.22 392.80 655.86" fill="#ffffff" fill-rule="nonzero" group-id="1,2,7,12,16" node-id="518" stroke="none" target-height="85.98999" target-width="143" target-x="392.8" target-y="573.94"></path><path d="M 394.77 659.93 L 535.77 578.01 C 536.62 579.71 537.48 581.38 538.37 583.01 L 397.37 665.00 C 396.48 663.34 395.62 661.66 394.77 660.00" fill="#ffffff" fill-rule="nonzero" group-id="1,2,7,12,16" node-id="520" stroke="none" target-height="86.98999" target-width="143.6" target-x="394.77" target-y="578.01"></path><path d="M 397.37 665.00 L 538.37 583.08 C 539.70 585.54 541.06 587.97 542.44 590.36 L 401.44 672.27 C 400.04 669.88 398.68 667.45 397.37 665.00" fill="#ffffff" fill-rule="nonzero" group-id="1,2,7,12,16" node-id="522" stroke="none" target-height="89.19" target-width="145.07" target-x="397.37" target-y="583.08"></path><path d="M 401.44 672.23 L 542.44 590.32 C 544.64 594.05 546.94 597.70 549.35 601.27 L 408.35 683.18 C 405.94 679.62 403.63 675.97 401.44 672.23" fill="#ffffff" fill-rule="nonzero" group-id="1,2,7,12,16" node-id="524" stroke="none" target-height="92.859985" target-width="147.90997" target-x="401.44" target-y="590.32"></path><path d="M 408.35 683.18 L 549.35 601.27 C 551.12 603.90 552.95 606.48 554.82 609.02 L 413.82 690.93 C 411.94 688.40 410.12 685.82 408.35 683.18" fill="#ffffff" fill-rule="nonzero" group-id="1,2,7,12,16" node-id="526" stroke="none" target-height="89.65997" target-width="146.47" target-x="408.35" target-y="601.27"></path><path d="M 413.82 690.93 L 554.82 609.02 C 556.16 610.83 557.52 612.61 558.91 614.38 L 417.91 696.29 C 416.52 694.53 415.15 692.74 413.82 690.93" fill="#ffffff" fill-rule="nonzero" group-id="1,2,7,12,16" node-id="528" stroke="none" target-height="87.26996" target-width="145.08997" target-x="413.82" target-y="609.02"></path><path d="M 417.91 696.29 L 558.91 614.38 C 560.19 616.00 561.49 617.61 562.80 619.19 L 421.81 701.11 C 420.49 699.52 419.19 697.92 417.91 696.29" fill="#ffffff" fill-rule="nonzero" group-id="1,2,7,12,16" node-id="530" stroke="none" target-height="86.72998" target-width="144.88998" target-x="417.91" target-y="614.38"></path><path d="M 421.81 701.11 L 562.81 619.19 C 564.12 620.76 565.44 622.30 566.81 623.83 L 425.81 705.75 C 424.48 704.22 423.14 702.68 421.81 701.11" fill="#ffffff" fill-rule="nonzero" group-id="1,2,7,12,16" node-id="532" stroke="none" target-height="86.56" target-width="145" target-x="421.81" target-y="619.19"></path><path d="M 425.77 705.75 L 566.77 623.83 C 568.17 625.42 569.58 626.98 571.01 628.53 L 430.00 710.44 C 428.57 708.90 427.16 707.34 425.76 705.75" fill="#ffffff" fill-rule="nonzero" group-id="1,2,7,12,16" node-id="534" stroke="none" target-height="86.609985" target-width="145.25" target-x="425.76" target-y="623.83"></path><path d="M 430.00 710.44 L 571.00 628.53 C 572.53 630.18 574.09 631.81 575.66 633.41 L 434.66 715.33 C 433.09 713.72 431.54 712.10 430.00 710.44" fill="#fafafa" fill-rule="nonzero" group-id="1,2,7,12,16" node-id="536" stroke="none" target-height="86.79999" target-width="145.65997" target-x="430" target-y="628.53"></path><path d="M 434.67 715.33 L 575.67 633.41 C 577.35 635.13 579.06 636.81 580.78 638.46 L 439.78 720.38 C 438.06 718.73 436.36 717.04 434.67 715.38" fill="#f5f5f5" fill-rule="nonzero" group-id="1,2,7,12,16" node-id="538" stroke="none" target-height="86.97003" target-width="146.11002" target-x="434.67" target-y="633.41"></path><path d="M 439.78 720.38 L 580.78 638.46 C 582.62 640.23 584.48 641.95 586.35 643.64 L 445.35 725.56 C 443.48 723.87 441.62 722.15 439.78 720.38" fill="#f0f0f0" fill-rule="nonzero" group-id="1,2,7,12,16" node-id="540" stroke="none" target-height="87.099976" target-width="146.56998" target-x="439.78" target-y="638.46"></path><path d="M 445.35 725.56 L 586.35 643.64 C 588.35 645.42 590.35 647.15 592.35 648.85 L 451.35 730.76 C 449.35 729.07 447.35 727.33 445.35 725.56" fill="#ebebeb" fill-rule="nonzero" group-id="1,2,7,12,16" node-id="542" stroke="none" target-height="87.119995" target-width="146.99997" target-x="445.35" target-y="643.64"></path><path d="M 451.32 730.76 L 592.32 648.85 C 594.40 650.60 596.49 652.31 598.60 653.97 L 457.60 735.89 C 455.49 734.22 453.39 732.51 451.32 730.76" fill="#e6e6e6" fill-rule="nonzero" group-id="1,2,7,12,16" node-id="544" stroke="none" target-height="87.04004" target-width="147.27997" target-x="451.32" target-y="648.85"></path><path d="M 457.60 735.89 L 598.60 653.97 C 600.76 655.67 602.93 657.34 605.11 658.97 L 464.11 740.88 C 461.93 739.28 459.76 737.61 457.60 735.88" fill="#e0e0e0" fill-rule="nonzero" group-id="1,2,7,12,16" node-id="546" stroke="none" target-height="86.910034" target-width="147.50998" target-x="457.6" target-y="653.97"></path><path d="M 464.11 740.84 L 605.11 658.93 C 607.32 660.56 609.55 662.14 611.78 663.67 L 470.78 745.58 C 468.55 744.05 466.32 742.47 464.11 740.84" fill="#dbdbdb" fill-rule="nonzero" group-id="1,2,7,12,16" node-id="548" stroke="none" target-height="86.650024" target-width="147.67004" target-x="464.11" target-y="658.93"></path><path d="M 470.78 745.58 L 611.78 663.67 C 614.04 665.21 616.30 666.67 618.57 668.15 L 477.58 750.07 C 475.30 748.62 473.04 747.13 470.78 745.58" fill="#d6d6d6" fill-rule="nonzero" group-id="1,2,7,12,16" node-id="550" stroke="none" target-height="86.400024" target-width="147.79001" target-x="470.78" target-y="663.67"></path><path d="M 477.58 750.07 L 618.58 668.15 C 620.88 669.61 623.19 671.02 625.49 672.38 L 484.49 754.30 C 482.19 752.94 479.88 751.53 477.59 750.07" fill="#d1d1d1" fill-rule="nonzero" group-id="1,2,7,12,16" node-id="552" stroke="none" target-height="86.14996" target-width="147.91" target-x="477.58" target-y="668.15"></path><path d="M 484.48 754.30 L 625.48 672.38 C 626.02 672.69 626.55 673.01 627.09 673.31 C 628.96 674.40 630.82 675.43 632.64 676.42 L 491.64 758.34 C 489.81 757.34 487.95 756.34 486.08 755.23 L 484.47 754.30" fill="#cccccc" fill-rule="nonzero" group-id="1,2,7,12,16" node-id="554" stroke="none" target-height="85.96002" target-width="148.17001" target-x="484.47" target-y="672.38"></path><path d="M 491.65 758.34 L 632.65 676.42 C 635.03 677.71 637.36 678.91 639.65 680.04 L 498.63 762.00 C 496.35 760.87 494.02 759.67 491.63 758.38" fill="#c7c7c7" fill-rule="nonzero" group-id="1,2,7,12,16" node-id="556" stroke="none" target-height="85.58002" target-width="148.02002" target-x="491.63" target-y="676.42"></path><path d="M 498.63 762.00 L 639.63 680.08 C 641.91 681.21 644.15 682.26 646.33 683.24 L 505.33 765.16 C 503.15 764.16 500.91 763.16 498.63 762.00" fill="#c2c2c2" fill-rule="nonzero" group-id="1,2,7,12,16" node-id="558" stroke="none" target-height="85.079956" target-width="147.70001" target-x="498.63" target-y="680.08"></path><path d="M 505.33 765.12 L 646.33 683.20 C 648.51 684.18 650.64 685.08 652.71 685.91 L 511.71 767.83 C 509.64 766.99 507.52 766.09 505.33 765.12" fill="#bdbdbd" fill-rule="nonzero" group-id="1,2,7,12,16" node-id="560" stroke="none" target-height="84.630005" target-width="147.38004" target-x="505.33" target-y="683.2"></path><path d="M 511.71 767.83 L 652.71 685.91 C 654.77 686.73 656.77 687.49 658.71 688.18 L 517.71 770.09 C 515.71 769.41 513.71 768.65 511.71 767.83" fill="#b8b8b8" fill-rule="nonzero" group-id="1,2,7,12,16" node-id="562" stroke="none" target-height="84.18005" target-width="147.00003" target-x="511.71" target-y="685.91"></path><path d="M 517.73 770.09 L 658.73 688.18 C 660.66 688.85 662.53 689.47 664.34 690.02 L 523.34 771.93 C 521.53 771.38 519.66 770.77 517.73 770.09" fill="#b3b3b3" fill-rule="nonzero" group-id="1,2,7,12,16" node-id="564" stroke="none" target-height="83.75" target-width="146.61005" target-x="517.73" target-y="688.18"></path><path d="M 523.34 771.93 L 664.30 690.00 C 666.08 690.53 667.80 691.00 669.47 691.43 L 528.47 773.34 C 526.81 772.93 525.08 772.45 523.30 771.91" fill="#adadad" fill-rule="nonzero" group-id="1,2,7,12,16" node-id="566" stroke="none" target-height="83.34003" target-width="146.16998" target-x="523.3" target-y="690"></path><path d="M 528.51 773.36 L 669.51 691.45 C 671.13 691.85 672.69 692.20 674.20 692.45 L 533.20 774.37 C 531.69 774.08 530.13 773.73 528.51 773.37" fill="#a8a8a8" fill-rule="nonzero" group-id="1,2,7,12,16" node-id="568" stroke="none" target-height="82.91998" target-width="145.69" target-x="528.51" target-y="691.45"></path><path d="M 533.20 774.41 L 674.20 692.49 L 674.20 692.49 L 533.20 774.41 L 533.20 774.41" fill="#a3a3a3" fill-rule="nonzero" group-id="1,2,7,12,16" node-id="570" stroke="none" target-height="81.91998" target-width="141" target-x="533.2" target-y="692.49"></path><path d="M 674.19 692.50 C 661.96 690.12 645.66 684.06 627.05 673.32 C 588.05 650.82 549.14 612.93 529.47 564.08 L 515.37 572.27 C 535.05 621.13 574.00 659.00 613.00 681.51 C 631.62 692.26 647.92 698.31 660.14 700.69 L 674.24 692.50" fill="#cf1322" fill-rule="nonzero" group-id="1,2,7,12" node-id="573" stroke="none" target-height="136.60999" target-width="158.87" target-x="515.37" target-y="564.08"></path><path d="M 660.09 700.69 C 647.87 698.31 631.57 692.26 612.95 681.51 C 573.95 659.01 535.05 621.13 515.37 572.27 L 501.27 580.47 C 521.00 629.32 559.88 667.20 598.85 689.70 C 617.47 700.45 633.77 706.50 646.00 708.88 L 660.09 700.69" fill="#ffffff" fill-rule="nonzero" group-id="1,2,7,12" node-id="575" stroke="none" target-height="136.60999" target-width="158.82004" target-x="501.27" target-y="572.27"></path><path d="M 646.00 708.88 C 633.77 706.50 617.47 700.45 598.85 689.70 C 559.85 667.20 520.95 629.32 501.27 580.47 L 487.18 588.66 C 506.85 637.51 545.79 675.39 584.76 697.89 C 603.38 708.64 619.67 714.69 631.90 717.07 L 646.00 708.88" fill="#cf1322" fill-rule="nonzero" group-id="1,2,7,12" node-id="577" stroke="none" target-height="136.60004" target-width="158.82" target-x="487.18" target-y="580.47"></path><path d="M 631.90 717.07 C 619.67 714.69 603.38 708.64 584.76 697.89 C 545.76 675.39 506.85 637.51 487.18 588.66 L 473.08 596.85 C 492.76 645.70 531.69 683.58 570.66 706.08 C 589.28 716.83 605.58 722.89 617.80 725.27 L 631.90 717.07" fill="#ffffff" fill-rule="nonzero" group-id="1,2,7,12" node-id="579" stroke="none" target-height="136.61005" target-width="158.82004" target-x="473.08" target-y="588.66"></path><path d="M 617.80 725.27 C 605.58 722.89 589.28 716.83 570.66 706.08 C 531.66 683.58 492.76 645.70 473.08 596.85 L 459.00 605.00 C 478.67 653.85 517.61 691.73 556.58 714.23 C 575.20 724.98 591.49 731.04 603.72 733.42 L 617.81 725.23" fill="#cf1322" fill-rule="nonzero" group-id="1,2,7,12" node-id="581" stroke="none" target-height="136.57" target-width="158.81" target-x="459" target-y="596.85"></path><path d="M 603.71 733.46 C 591.48 731.08 575.19 725.02 556.57 714.27 C 517.57 691.77 478.66 653.89 458.99 605.04 L 444.89 613.23 C 464.57 662.08 503.50 699.96 542.47 722.46 C 561.09 733.21 577.39 739.27 589.61 741.65 L 603.71 733.46" fill="#ffffff" fill-rule="nonzero" group-id="1,2,7,12" node-id="583" stroke="none" target-height="136.61005" target-width="158.82" target-x="444.89" target-y="605.04"></path><path d="M 589.61 741.65 C 577.39 739.27 561.09 733.21 542.47 722.46 C 503.47 699.96 464.57 662.08 444.89 613.23 L 430.80 621.42 C 450.47 670.28 489.40 708.16 528.38 730.66 C 546.99 741.41 563.29 747.46 575.52 749.84 L 589.61 741.65" fill="#cf1322" fill-rule="nonzero" group-id="1,2,7,12" node-id="585" stroke="none" target-height="136.61005" target-width="158.81" target-x="430.8" target-y="613.23"></path><path d="M 575.52 749.84 C 563.29 747.46 546.99 741.41 528.38 730.66 C 489.38 708.16 450.47 670.28 430.80 621.42 L 416.70 629.62 C 436.38 678.47 475.31 716.35 514.28 738.85 C 532.90 749.60 549.20 755.65 561.42 758.03 L 575.52 749.84" fill="#ffffff" fill-rule="nonzero" group-id="1,2,7,12" node-id="587" stroke="none" target-height="136.61005" target-width="158.82" target-x="416.7" target-y="621.42"></path><path d="M 561.42 758.00 C 549.20 755.62 532.90 749.57 514.28 738.82 C 475.28 716.32 436.38 678.44 416.70 629.59 L 402.60 637.78 C 422.28 686.63 461.21 724.51 500.18 747.01 C 518.80 757.76 535.10 763.82 547.32 766.19 L 561.42 758.00" fill="#cf1322" fill-rule="nonzero" group-id="1,2,7,12" node-id="589" stroke="none" target-height="136.59998" target-width="158.81998" target-x="402.6" target-y="629.59"></path><path d="M 547.32 766.22 C 535.10 763.85 518.80 757.79 500.18 747.04 C 461.18 724.54 422.28 686.66 402.60 637.81 L 388.51 646.00 C 408.18 694.85 447.12 732.73 486.09 755.23 C 504.71 766.00 521.00 772.00 533.23 774.42 L 547.32 766.22" fill="#ffffff" fill-rule="nonzero" group-id="1,2,7,12" node-id="591" stroke="none" target-height="136.60999" target-width="158.81" target-x="388.51" target-y="637.81"></path></g><g clip-path="url(#clip-path-4)" group-id="1,2,8" node-id="597"><path d="M 272.57 188.00 L 413.57 106.08 C 406.40 110.24 400.11 116.52 394.79 124.84 L 253.79 206.76 C 259.11 198.43 265.40 192.16 272.57 188.00" fill="#858585" fill-rule="nonzero" group-id="1,2,8,13,17" node-id="601" stroke="none" target-height="100.67999" target-width="159.78001" target-x="253.79" target-y="106.08"></path><path d="M 253.79 206.77 L 394.79 124.85 C 392.86 127.89 391.12 131.04 389.58 134.30 L 248.58 216.22 C 250.12 212.96 251.86 209.81 253.79 206.77" fill="#8a8a8a" fill-rule="nonzero" group-id="1,2,8,13,17" node-id="603" stroke="none" target-height="91.37" target-width="146.21" target-x="248.58" target-y="124.85"></path><path d="M 248.58 216.22 L 389.58 134.30 C 388.24 137.12 386.97 140.12 385.80 143.30 L 244.80 225.22 C 245.98 222.06 247.24 219.06 248.58 216.22" fill="#8f8f8f" fill-rule="nonzero" group-id="1,2,8,13,17" node-id="605" stroke="none" target-height="90.92" target-width="144.77998" target-x="244.8" target-y="134.3"></path><path d="M 244.80 225.20 L 385.80 143.28 C 384.72 146.19 383.72 149.24 382.80 152.44 L 241.80 234.35 C 242.73 231.16 243.73 228.11 244.80 225.20" fill="#949494" fill-rule="nonzero" group-id="1,2,8,13,17" node-id="607" stroke="none" target-height="91.07001" target-width="143.99998" target-x="241.8" target-y="143.28"></path><path d="M 241.78 234.35 L 382.78 152.44 C 381.88 155.50 381.05 158.69 380.30 162.02 L 239.30 243.94 C 240.06 240.61 240.89 237.41 241.78 234.35" fill="#999999" fill-rule="nonzero" group-id="1,2,8,13,17" node-id="609" stroke="none" target-height="91.5" target-width="143.48" target-x="239.3" target-y="152.44"></path><path d="M 239.30 243.94 L 380.30 162.02 C 379.55 165.29 378.89 168.68 378.30 172.21 L 237.30 254.13 C 237.90 250.61 238.57 247.21 239.30 243.94" fill="#9e9e9e" fill-rule="nonzero" group-id="1,2,8,13,17" node-id="611" stroke="none" target-height="92.11" target-width="142.99998" target-x="237.3" target-y="162.02"></path><path d="M 237.27 254.13 L 378.27 172.21 C 377.67 175.73 377.12 179.38 376.65 183.14 L 235.65 265.06 C 236.12 261.29 236.66 257.65 237.27 254.13" fill="#a3a3a3" fill-rule="nonzero" group-id="1,2,8,13,17" node-id="613" stroke="none" target-height="92.84999" target-width="142.62" target-x="235.65" target-y="172.21"></path><path d="M 235.65 265.06 L 376.65 183.14 C 376.18 186.95 375.77 190.89 375.44 194.95 L 234.44 276.87 C 234.77 272.81 235.17 268.87 235.66 265.06" fill="#a8a8a8" fill-rule="nonzero" group-id="1,2,8,13,17" node-id="615" stroke="none" target-height="93.729996" target-width="142.20999" target-x="234.44" target-y="183.14"></path><path d="M 234.43 276.87 L 375.43 194.95 C 375.09 199.10 374.83 203.38 374.65 207.79 L 233.65 289.71 C 233.83 285.30 234.09 281.02 234.43 276.87" fill="#adadad" fill-rule="nonzero" group-id="1,2,8,13,17" node-id="617" stroke="none" target-height="94.759995" target-width="141.78" target-x="233.65" target-y="194.95"></path><path d="M 233.65 289.71 L 374.65 207.79 C 374.46 212.35 374.35 217.05 374.32 221.89 L 233.32 303.81 C 233.32 298.97 233.43 294.27 233.65 289.71" fill="#b3b3b3" fill-rule="nonzero" group-id="1,2,8,13,17" node-id="619" stroke="none" target-height="96.020004" target-width="141.32999" target-x="233.32" target-y="207.79"></path><path d="M 233.32 303.81 L 374.32 221.89 L 374.32 222.74 C 374.32 227.64 374.39 232.50 374.52 237.31 L 233.52 319.23 C 233.37 314.41 233.31 309.55 233.32 304.66 L 233.32 303.81" fill="#b8b8b8" fill-rule="nonzero" group-id="1,2,8,13,17" node-id="621" stroke="none" target-height="97.34001" target-width="141.21332" target-x="233.30667" target-y="221.89"></path><path d="M 233.52 319.23 L 374.52 237.31 C 374.66 242.12 374.88 246.89 375.18 251.61 L 234.18 333.53 C 233.88 328.80 233.66 324.04 233.52 319.23" fill="#bdbdbd" fill-rule="nonzero" group-id="1,2,8,13,17" node-id="623" stroke="none" target-height="96.22" target-width="141.65999" target-x="233.52" target-y="237.31"></path><path d="M 234.18 333.53 L 375.18 251.61 C 375.46 256.07 375.81 260.49 376.23 264.88 L 235.23 346.79 C 234.81 342.41 234.48 337.99 234.23 333.53" fill="#c2c2c2" fill-rule="nonzero" group-id="1,2,8,13,17" node-id="625" stroke="none" target-height="95.18001" target-width="142.05002" target-x="234.18" target-y="251.61"></path><path d="M 235.23 346.79 L 376.23 264.88 C 376.62 269.04 377.07 273.16 377.60 277.25 L 236.60 359.17 C 236.08 355.08 235.62 350.95 235.23 346.79" fill="#c7c7c7" fill-rule="nonzero" group-id="1,2,8,13,17" node-id="627" stroke="none" target-height="94.29001" target-width="142.37001" target-x="235.23" target-y="264.88"></path><path d="M 236.60 359.17 L 377.60 277.25 C 378.09 281.16 378.64 285.04 379.25 288.87 L 238.25 370.79 C 237.64 366.96 237.09 363.08 236.60 359.17" fill="#cccccc" fill-rule="nonzero" group-id="1,2,8,13,17" node-id="629" stroke="none" target-height="93.54001" target-width="142.65" target-x="236.6" target-y="277.25"></path><path d="M 238.25 370.79 L 379.25 288.87 C 379.83 292.55 380.46 296.19 381.13 299.78 L 240.13 381.70 C 239.46 378.10 238.84 374.46 238.25 370.79" fill="#d1d1d1" fill-rule="nonzero" group-id="1,2,8,13,17" node-id="631" stroke="none" target-height="92.83002" target-width="142.88" target-x="238.25" target-y="288.87"></path><path d="M 240.13 381.70 L 381.13 299.78 C 381.80 303.22 382.48 306.62 383.19 309.98 L 242.20 391.90 C 241.46 388.54 240.77 385.13 240.13 381.70" fill="#d6d6d6" fill-rule="nonzero" group-id="1,2,8,13,17" node-id="633" stroke="none" target-height="92.119995" target-width="143.06" target-x="240.13" target-y="299.78"></path><path d="M 242.20 391.90 L 383.20 309.98 C 383.91 313.24 384.66 316.46 385.45 319.64 L 244.45 401.56 C 243.66 398.37 242.91 395.15 242.21 391.90" fill="#dbdbdb" fill-rule="nonzero" group-id="1,2,8,13,17" node-id="635" stroke="none" target-height="91.57999" target-width="143.25002" target-x="242.2" target-y="309.98"></path><path d="M 244.44 401.56 L 385.44 319.64 C 386.20 322.70 386.99 325.72 387.82 328.71 L 246.82 410.63 C 245.99 407.63 245.20 404.63 244.44 401.56" fill="#e0e0e0" fill-rule="nonzero" group-id="1,2,8,13,17" node-id="637" stroke="none" target-height="90.98999" target-width="143.38" target-x="244.44" target-y="319.64"></path><path d="M 246.82 410.63 L 387.82 328.71 C 388.59 331.48 389.39 334.23 390.22 336.95 L 249.22 418.86 C 248.39 416.15 247.59 413.40 246.82 410.63" fill="#e6e6e6" fill-rule="nonzero" group-id="1,2,8,13,17" node-id="639" stroke="none" target-height="90.149994" target-width="143.4" target-x="246.82" target-y="328.71"></path><path d="M 249.22 418.86 L 390.22 336.95 C 391.02 339.58 391.86 342.19 392.72 344.77 L 251.72 426.68 C 250.86 424.10 250.03 421.50 249.22 418.86" fill="#ebebeb" fill-rule="nonzero" group-id="1,2,8,13,17" node-id="641" stroke="none" target-height="89.72998" target-width="143.5" target-x="249.22" target-y="336.95"></path><path d="M 251.72 426.68 L 392.72 344.77 C 393.50 347.09 394.30 349.39 395.12 351.66 L 254.12 433.58 C 253.30 431.30 252.50 429.00 251.72 426.68" fill="#f0f0f0" fill-rule="nonzero" group-id="1,2,8,13,17" node-id="643" stroke="none" target-height="88.81" target-width="143.4" target-x="251.72" target-y="344.77"></path><path d="M 254.12 433.58 L 395.12 351.66 C 395.93 353.88 396.75 356.08 397.60 358.26 L 256.60 440.18 C 255.75 438.00 254.93 435.80 254.12 433.58" fill="#f5f5f5" fill-rule="nonzero" group-id="1,2,8,13,17" node-id="645" stroke="none" target-height="88.51999" target-width="143.48001" target-x="254.12" target-y="351.66"></path><path d="M 256.60 440.18 L 397.60 358.26 C 398.37 360.26 399.15 362.19 399.96 364.13 L 259.00 446.00 C 258.20 444.07 257.41 442.11 256.64 440.14" fill="#fafafa" fill-rule="nonzero" group-id="1,2,8,13,17" node-id="647" stroke="none" target-height="87.73999" target-width="143.35999" target-x="256.6" target-y="358.26"></path><path d="M 259.00 446.00 L 400.00 364.09 C 400.80 366.02 401.62 367.93 402.46 369.84 L 261.46 451.75 C 260.59 449.92 259.77 448.00 259.00 446.00" fill="#ffffff" fill-rule="nonzero" group-id="1,2,8,13,17" node-id="649" stroke="none" target-height="87.66" target-width="143.45999" target-x="259" target-y="364.09"></path><path d="M 261.42 451.79 L 402.42 369.88 C 403.24 371.74 404.08 373.59 404.94 375.42 L 263.94 457.34 C 263.09 455.51 262.24 453.66 261.42 451.79" fill="#ffffff" fill-rule="nonzero" group-id="1,2,8,13,17" node-id="651" stroke="none" target-height="87.45999" target-width="143.51999" target-x="261.42" target-y="369.88"></path><path d="M 263.94 457.34 L 404.94 375.42 C 405.80 377.25 406.67 379.06 407.56 380.85 L 266.56 462.76 C 265.67 460.97 264.80 459.17 263.94 457.34" fill="#ffffff" fill-rule="nonzero" group-id="1,2,8,13,17" node-id="653" stroke="none" target-height="87.34" target-width="143.62" target-x="263.94" target-y="375.42"></path><path d="M 266.56 462.76 L 407.56 380.85 C 408.69 383.12 409.85 385.35 411.03 387.56 L 270.00 469.48 C 268.82 467.27 267.66 465.03 266.53 462.76" fill="#ffffff" fill-rule="nonzero" group-id="1,2,8,13,17" node-id="655" stroke="none" target-height="88.630005" target-width="144.5" target-x="266.53" target-y="380.85"></path><path d="M 270.00 469.48 L 411.00 387.56 C 412.82 390.96 414.70 394.29 416.65 397.56 L 275.65 479.48 C 273.71 476.24 271.83 472.91 270.00 469.48" fill="#ffffff" fill-rule="nonzero" group-id="1,2,8,13,17" node-id="657" stroke="none" target-height="91.92001" target-width="146.65" target-x="270" target-y="387.56"></path><path d="M 275.68 479.44 L 416.68 397.52 C 418.53 400.61 420.44 403.61 422.39 406.52 L 281.39 488.44 C 279.44 485.50 277.54 482.50 275.68 479.44" fill="#ffffff" fill-rule="nonzero" group-id="1,2,8,13,17" node-id="659" stroke="none" target-height="90.92001" target-width="146.71002" target-x="275.68" target-y="397.52"></path><path d="M 281.39 488.48 L 422.39 406.56 C 424.32 409.45 426.29 412.26 428.32 415.00 L 287.32 496.92 C 285.32 494.18 283.34 491.37 281.39 488.48" fill="#ffffff" fill-rule="nonzero" group-id="1,2,8,13,17" node-id="661" stroke="none" target-height="90.360016" target-width="146.93" target-x="281.39" target-y="406.56"></path><path d="M 287.32 496.92 L 428.32 415.00 C 429.45 416.54 430.61 418.05 431.77 419.54 L 290.77 501.46 C 289.60 499.97 288.44 498.46 287.31 496.92" fill="#ffffff" fill-rule="nonzero" group-id="1,2,8,13,17" node-id="663" stroke="none" target-height="86.45999" target-width="144.45999" target-x="287.31" target-y="415"></path><path d="M 290.78 501.46 L 431.78 419.54 C 432.95 421.03 434.13 422.49 435.32 423.92 L 294.32 505.84 C 293.13 504.40 291.95 502.94 290.79 501.46" fill="#ffffff" fill-rule="nonzero" group-id="1,2,8,13,17" node-id="665" stroke="none" target-height="86.29999" target-width="144.54001" target-x="290.78" target-y="419.54"></path><path d="M 294.31 505.84 L 435.31 423.92 C 436.38 425.21 437.47 426.48 438.57 427.73 L 297.57 509.64 C 296.47 508.39 295.39 507.13 294.31 505.84" fill="#ffffff" fill-rule="nonzero" group-id="1,2,8,13,17" node-id="667" stroke="none" target-height="85.72" target-width="144.26001" target-x="294.31" target-y="423.92"></path><path d="M 297.57 509.64 L 438.57 427.73 C 439.66 428.97 440.77 430.20 441.89 431.41 L 300.89 513.33 C 299.77 512.12 298.66 510.89 297.57 509.64" fill="#ffffff" fill-rule="nonzero" group-id="1,2,8,13,17" node-id="669" stroke="none" target-height="85.600006" target-width="144.32" target-x="297.57" target-y="427.73"></path><path d="M 300.89 513.33 L 441.89 431.41 C 443.05 432.66 444.23 433.89 445.41 435.10 L 304.41 517.00 C 303.23 515.79 302.05 514.56 300.89 513.31" fill="#fafafa" fill-rule="nonzero" group-id="1,2,8,13,17" node-id="671" stroke="none" target-height="85.59" target-width="144.51999" target-x="300.89" target-y="431.41"></path><path d="M 304.41 517.00 L 445.41 435.08 C 446.62 436.31 447.84 437.51 449.08 438.70 L 308.08 520.62 C 306.85 519.44 305.62 518.23 304.41 517.00" fill="#f5f5f5" fill-rule="nonzero" group-id="1,2,8,13,17" node-id="673" stroke="none" target-height="85.54001" target-width="144.66998" target-x="304.41" target-y="435.08"></path><path d="M 308.08 520.64 L 449.08 438.72 C 450.33 439.93 451.60 441.10 452.88 442.26 L 311.88 524.17 C 310.60 523.02 309.33 521.84 308.08 520.64" fill="#f0f0f0" fill-rule="nonzero" group-id="1,2,8,13,17" node-id="675" stroke="none" target-height="85.44998" target-width="144.80002" target-x="308.08" target-y="438.72"></path><path d="M 311.88 524.17 L 452.88 442.26 C 454.21 443.44 455.55 444.59 456.88 445.72 L 315.88 527.63 C 314.54 526.51 313.22 525.35 311.88 524.17" fill="#ebebeb" fill-rule="nonzero" group-id="1,2,8,13,17" node-id="677" stroke="none" target-height="85.369995" target-width="145" target-x="311.88" target-y="442.26"></path><path d="M 315.85 527.63 L 456.85 445.72 C 458.18 446.84 459.52 447.94 460.85 449.01 L 319.85 530.93 C 318.52 529.86 317.18 528.76 315.85 527.63" fill="#e6e6e6" fill-rule="nonzero" group-id="1,2,8,13,17" node-id="679" stroke="none" target-height="85.20999" target-width="145" target-x="315.85" target-y="445.72"></path><path d="M 319.89 530.93 L 460.89 449.01 C 462.22 450.07 463.58 451.11 464.96 452.12 L 324.00 534.00 C 322.63 532.99 321.27 531.96 319.93 530.89" fill="#e0e0e0" fill-rule="nonzero" group-id="1,2,8,13,17" node-id="681" stroke="none" target-height="84.98999" target-width="145.06998" target-x="319.89" target-y="449.01"></path><path d="M 324.00 534.00 L 465.00 452.08 C 466.37 453.08 467.76 454.08 469.15 455.03 L 328.11 537.00 C 326.72 536.00 325.33 535.06 323.96 534.06" fill="#dbdbdb" fill-rule="nonzero" group-id="1,2,8,13,17" node-id="683" stroke="none" target-height="84.92001" target-width="145.19" target-x="323.96" target-y="452.08"></path><path d="M 328.11 537.00 L 469.11 455.09 C 470.49 456.03 471.89 456.95 473.29 457.85 L 332.29 539.76 C 330.89 538.87 329.49 537.95 328.11 537.00" fill="#d6d6d6" fill-rule="nonzero" group-id="1,2,8,13,17" node-id="685" stroke="none" target-height="84.67001" target-width="145.18002" target-x="328.11" target-y="455.09"></path><path d="M 332.29 539.74 L 473.29 457.83 C 474.70 458.72 476.11 459.59 477.54 460.43 L 336.54 542.34 C 335.11 541.50 333.70 540.64 332.29 539.74" fill="#d1d1d1" fill-rule="nonzero" group-id="1,2,8,13,17" node-id="687" stroke="none" target-height="84.51004" target-width="145.25" target-x="332.29" target-y="457.83"></path><path d="M 336.54 542.34 L 477.54 460.43 L 478.54 461.00 L 337.54 542.92 L 336.54 542.34" fill="#cccccc" fill-rule="nonzero" group-id="1,2,8,13,17" node-id="689" stroke="none" target-height="82.48999" target-width="142" target-x="336.54" target-y="460.43"></path><path d="M 464.39 469.19 C 400.39 432.25 359.87 341.89 360.18 230.93 C 360.36 168.30 374.64 128.69 399.43 114.28 L 413.53 106.09 C 388.73 120.50 374.46 160.09 374.28 222.74 C 374.00 333.70 414.49 424.05 478.49 461.00 L 464.39 469.19" fill="#cf1322" fill-rule="nonzero" group-id="1,2,8,13" node-id="692" stroke="none" target-height="363.1" target-width="118.619995" target-x="359.87" target-y="106.09"></path><path d="M 450.29 477.39 C 386.29 440.44 345.77 350.09 346.09 239.12 C 346.26 176.49 360.54 136.88 385.34 122.47 L 399.43 114.28 C 374.64 128.69 360.36 168.28 360.18 230.93 C 359.87 341.93 400.40 432.25 464.39 469.19 L 450.29 477.39" fill="url(#未命名的渐变_34)" fill-rule="nonzero" group-id="1,2,8,13" node-id="694" stroke="none" target-height="363.11002" target-width="118.620026" target-x="345.77" target-y="114.28"></path><path d="M 436.20 485.58 C 372.20 448.63 331.68 358.28 331.99 247.31 C 332.17 184.68 346.45 145.07 371.24 130.66 L 385.34 122.47 C 360.54 136.88 346.26 176.47 346.09 239.12 C 345.77 350.12 386.30 440.44 450.29 477.39 L 436.20 485.58" fill="#cf1322" fill-rule="nonzero" group-id="1,2,8,13" node-id="696" stroke="none" target-height="363.11" target-width="118.610016" target-x="331.68" target-y="122.47"></path><path d="M 422.10 493.77 C 358.10 456.82 317.58 366.47 317.89 255.51 C 318.07 192.87 332.35 153.26 357.14 138.86 L 371.24 130.66 C 346.45 145.07 332.17 184.66 331.99 247.31 C 331.68 358.31 372.21 448.63 436.20 485.58 L 422.10 493.77" fill="url(#未命名的渐变_34-2)" fill-rule="nonzero" group-id="1,2,8,13" node-id="698" stroke="none" target-height="363.11" target-width="118.620026" target-x="317.58" target-y="130.66"></path><path d="M 408.00 502.00 C 344.00 465.00 303.49 374.66 303.80 263.70 C 303.98 201.07 318.26 161.46 343.05 147.05 L 357.14 138.86 C 332.35 153.26 318.07 192.86 317.89 255.51 C 317.58 366.51 358.11 456.82 422.10 493.77 L 408.00 502.00" fill="#cf1322" fill-rule="nonzero" group-id="1,2,8,13" node-id="700" stroke="none" target-height="363.14" target-width="118.610016" target-x="303.49" target-y="138.86"></path><path d="M 393.91 510.15 C 329.91 473.20 289.39 382.85 289.71 271.89 C 289.88 209.26 304.16 169.65 328.95 155.24 L 343.05 147.05 C 318.26 161.46 303.98 201.05 303.80 263.70 C 303.49 374.66 344.00 465.00 408.00 502.00 L 393.90 510.19" fill="url(#未命名的渐变_34-3)" fill-rule="nonzero" group-id="1,2,8,13" node-id="702" stroke="none" target-height="363.14" target-width="118.609985" target-x="289.39" target-y="147.05"></path><path d="M 379.82 518.34 C 315.82 481.40 275.29 391.04 275.61 280.08 C 275.79 217.45 290.06 177.84 314.86 163.43 L 329.00 155.24 C 304.21 169.65 289.93 209.24 289.76 271.89 C 289.44 382.89 329.97 473.20 393.96 510.15 L 379.87 518.34" fill="#cf1322" fill-rule="nonzero" group-id="1,2,8,13" node-id="704" stroke="none" target-height="363.10004" target-width="118.66998" target-x="275.29" target-y="155.24"></path><path d="M 365.72 526.54 C 301.72 489.59 261.20 399.23 261.51 288.27 C 261.69 225.64 276.00 186.00 300.76 171.62 L 314.86 163.43 C 290.06 177.84 275.79 217.43 275.61 280.08 C 275.29 391.08 315.82 481.40 379.82 518.34 L 365.72 526.54" fill="url(#未命名的渐变_34-4)" fill-rule="nonzero" group-id="1,2,8,13" node-id="706" stroke="none" target-height="363.11" target-width="118.619995" target-x="261.2" target-y="163.43"></path><path d="M 351.62 534.73 C 287.62 497.73 247.10 407.43 247.42 296.47 C 247.59 233.83 261.87 194.22 286.66 179.81 L 300.76 171.62 C 275.97 186.03 261.69 225.62 261.51 288.27 C 261.20 399.27 301.73 489.59 365.72 526.54 L 351.62 534.73" fill="#cf1322" fill-rule="nonzero" group-id="1,2,8,13" node-id="708" stroke="none" target-height="363.11" target-width="118.619995" target-x="247.1" target-y="171.62"></path><path d="M 337.53 542.92 C 273.54 506.00 233.00 415.62 233.32 304.66 C 233.50 242.00 247.78 202.41 272.57 188.00 L 286.66 179.81 C 261.87 194.22 247.59 233.81 247.42 296.47 C 247.10 407.47 287.63 497.78 351.62 534.73 L 337.53 542.92" fill="url(#未命名的渐变_34-5)" fill-rule="nonzero" group-id="1,2,8,13" node-id="710" stroke="none" target-height="363.11" target-width="118.619995" target-x="233" target-y="179.81"></path></g><g clip-path="url(#clip-path-5)" group-id="1,2,9" node-id="716"><path d="M 205.54 93.24 L 346.54 11.32 C 350.86 8.80 355.40 6.69 360.10 5.00 L 219.14 87.00 C 214.42 88.67 209.87 90.78 205.54 93.29" fill="#858585" fill-rule="nonzero" group-id="1,2,9,14,18" node-id="720" stroke="none" target-height="88.29" target-width="154.56001" target-x="205.54" target-y="5"></path><path d="M 219.14 87.00 L 360.10 5.00 C 363.91 3.66 367.80 2.59 371.76 1.79 L 230.81 83.74 C 226.85 84.54 222.95 85.63 219.14 87.00" fill="#8a8a8a" fill-rule="nonzero" group-id="1,2,9,14,18" node-id="722" stroke="none" target-height="85.21" target-width="152.62001" target-x="219.14" target-y="1.79"></path><path d="M 230.81 83.74 L 371.81 1.82 C 374.97 1.19 378.16 0.72 381.37 0.43 L 240.37 82.34 C 237.15 82.63 233.94 83.10 230.77 83.74" fill="#8f8f8f" fill-rule="nonzero" group-id="1,2,9,14,18" node-id="724" stroke="none" target-height="83.31" target-width="150.59999" target-x="230.77" target-y="0.43"></path><path d="M 240.41 82.34 L 381.37 0.43 C 384.28 0.16 387.24 0.01 390.25 0.00 L 249.25 81.92 C 246.24 81.92 243.28 82.06 240.37 82.34" fill="#949494" fill-rule="nonzero" group-id="1,2,9,14,18" node-id="726" stroke="none" target-height="82.34" target-width="149.88" target-x="240.37" target-y="0"></path><path d="M 249.29 81.92 L 390.25 0.00 C 392.95 0.00 395.68 0.08 398.46 0.27 L 257.46 82.19 C 254.68 82.00 251.95 81.91 249.25 81.92" fill="#999999" fill-rule="nonzero" group-id="1,2,9,14,18" node-id="728" stroke="none" target-height="82.19" target-width="149.20999" target-x="249.25" target-y="0"></path><path d="M 257.50 82.19 L 398.46 0.27 C 401.07 0.45 403.73 0.72 406.46 1.09 L 265.45 83.00 C 262.78 82.64 260.13 82.37 257.50 82.19" fill="#9e9e9e" fill-rule="nonzero" group-id="1,2,9,14,18" node-id="730" stroke="none" target-height="82.73" target-width="148.95999" target-x="257.5" target-y="0.27"></path><path d="M 265.45 83.00 L 406.45 1.09 C 409.05 1.43 411.67 1.87 414.33 2.39 L 273.33 84.30 C 270.67 83.78 268.05 83.30 265.45 83.00" fill="#a3a3a3" fill-rule="nonzero" group-id="1,2,9,14,18" node-id="732" stroke="none" target-height="83.21001" target-width="148.87997" target-x="265.45" target-y="1.09"></path><path d="M 273.33 84.30 L 414.33 2.39 C 416.89 2.88 419.48 3.46 422.10 4.11 L 281.10 86.00 C 278.48 85.33 275.89 84.76 273.33 84.27" fill="#a8a8a8" fill-rule="nonzero" group-id="1,2,9,14,18" node-id="734" stroke="none" target-height="83.61" target-width="148.77002" target-x="273.33" target-y="2.39"></path><path d="M 281.10 86.00 L 422.10 4.08 C 424.70 4.75 427.32 5.47 429.97 6.26 L 289.00 88.20 C 286.33 87.40 283.70 86.67 281.10 86.00" fill="#adadad" fill-rule="nonzero" group-id="1,2,9,14,18" node-id="736" stroke="none" target-height="84.119995" target-width="148.87" target-x="281.1" target-y="4.08"></path><path d="M 289.00 88.20 L 430.00 6.29 C 432.63 7.08 435.29 7.95 438.00 8.90 L 297.00 90.82 C 294.33 89.87 291.67 89.00 289.00 88.20" fill="#b3b3b3" fill-rule="nonzero" group-id="1,2,9,14,18" node-id="738" stroke="none" target-height="84.53" target-width="149" target-x="289" target-y="6.29"></path><path d="M 297.00 90.82 L 438.00 8.90 C 440.67 9.85 443.38 10.87 446.13 11.96 L 305.13 93.88 C 302.38 92.78 299.67 91.76 297.00 90.82" fill="#b8b8b8" fill-rule="nonzero" group-id="1,2,9,14,18" node-id="740" stroke="none" target-height="84.979996" target-width="149.13" target-x="297" target-y="8.9"></path><path d="M 305.08 93.88 L 446.00 12.00 C 448.80 13.12 451.63 14.32 454.48 15.60 L 313.48 97.52 C 310.63 96.24 307.80 95.04 305.00 93.92" fill="#bdbdbd" fill-rule="nonzero" group-id="1,2,9,14,18" node-id="742" stroke="none" target-height="85.52" target-width="149.48001" target-x="305" target-y="12"></path><path d="M 313.56 97.48 L 454.56 15.56 C 457.42 16.85 460.31 18.22 463.22 19.65 L 322.23 101.57 C 319.31 100.13 316.42 98.77 313.56 97.48" fill="#c2c2c2" fill-rule="nonzero" group-id="1,2,9,14,18" node-id="744" stroke="none" target-height="86.01" target-width="149.66" target-x="313.56" target-y="15.56"></path><path d="M 322.23 101.57 L 463.23 19.65 C 466.30 21.17 469.39 22.77 472.51 24.46 L 331.51 106.38 C 328.38 104.69 325.29 103.09 322.23 101.57" fill="#c7c7c7" fill-rule="nonzero" group-id="1,2,9,14,18" node-id="746" stroke="none" target-height="86.729996" target-width="150.28" target-x="322.23" target-y="19.65"></path><path d="M 331.51 106.38 L 472.51 24.46 C 474.92 25.76 477.33 27.12 479.77 28.52 L 481.99 29.82 L 341.00 111.73 L 338.78 110.44 C 336.34 109.03 333.93 107.68 331.53 106.38" fill="#cccccc" fill-rule="nonzero" group-id="1,2,9,14,18" node-id="748" stroke="none" target-height="87.270004" target-width="150.47998" target-x="331.51" target-y="24.46"></path><path d="M 341.00 111.73 L 482.00 29.82 C 485.21 31.71 488.39 33.66 491.54 35.65 L 350.54 117.57 C 347.39 115.57 344.21 113.62 341.00 111.73" fill="#d1d1d1" fill-rule="nonzero" group-id="1,2,9,14,18" node-id="750" stroke="none" target-height="87.75" target-width="150.54001" target-x="341" target-y="29.82"></path><path d="M 350.52 117.57 L 491.52 35.65 C 494.67 37.65 497.78 39.71 500.87 41.83 L 359.87 123.75 C 356.79 121.63 353.67 119.57 350.52 117.57" fill="#d6d6d6" fill-rule="nonzero" group-id="1,2,9,14,18" node-id="752" stroke="none" target-height="88.1" target-width="150.35" target-x="350.52" target-y="35.65"></path><path d="M 359.87 123.75 L 500.87 41.83 C 503.94 43.94 506.98 46.11 510.00 48.34 L 369.00 130.25 C 365.98 128.03 362.93 125.86 359.84 123.75" fill="#dbdbdb" fill-rule="nonzero" group-id="1,2,9,14,18" node-id="754" stroke="none" target-height="88.42" target-width="150.16" target-x="359.84" target-y="41.83"></path><path d="M 369.00 130.25 L 510.00 48.34 C 513.04 50.57 516.04 52.85 519.00 55.20 L 378.00 137.12 C 375.03 134.78 372.03 132.49 369.00 130.25" fill="#e0e0e0" fill-rule="nonzero" group-id="1,2,9,14,18" node-id="756" stroke="none" target-height="88.78" target-width="150" target-x="369" target-y="48.34"></path><path d="M 378.00 137.12 L 519.00 55.20 C 521.98 57.55 524.92 59.95 527.83 62.41 L 386.83 144.32 C 383.92 141.87 380.97 139.47 378.00 137.12" fill="#e6e6e6" fill-rule="nonzero" group-id="1,2,9,14,18" node-id="758" stroke="none" target-height="89.12001" target-width="149.83002" target-x="378" target-y="55.2"></path><path d="M 386.87 144.32 L 527.87 62.41 C 530.75 64.83 533.59 67.31 536.39 69.84 L 395.39 151.75 C 392.58 149.23 389.73 146.75 386.86 144.32" fill="#ebebeb" fill-rule="nonzero" group-id="1,2,9,14,18" node-id="760" stroke="none" target-height="89.34" target-width="149.53003" target-x="386.86" target-y="62.41"></path><path d="M 395.40 151.75 L 536.40 69.84 C 539.19 72.34 541.93 74.90 544.65 77.50 L 403.65 159.42 C 400.93 156.81 398.18 154.26 395.41 151.75" fill="#f0f0f0" fill-rule="nonzero" group-id="1,2,9,14,18" node-id="762" stroke="none" target-height="89.58" target-width="149.25003" target-x="395.4" target-y="69.84"></path><path d="M 403.64 159.42 L 544.64 77.50 C 547.21 79.97 549.75 82.48 552.28 85.05 L 411.28 167.00 C 408.76 164.44 406.21 161.92 403.64 159.45" fill="#f5f5f5" fill-rule="nonzero" group-id="1,2,9,14,18" node-id="764" stroke="none" target-height="89.5" target-width="148.64001" target-x="403.64" target-y="77.5"></path><path d="M 411.28 167.00 L 552.28 85.08 C 554.75 87.60 557.19 90.16 559.60 92.76 L 418.61 174.64 C 416.19 172.04 413.75 169.48 411.28 166.97" fill="#fafafa" fill-rule="nonzero" group-id="1,2,9,14,18" node-id="766" stroke="none" target-height="89.56" target-width="148.31998" target-x="411.28" target-y="85.08"></path><path d="M 418.61 174.64 L 559.56 92.73 C 561.85 95.19 564.12 97.69 566.35 100.24 L 425.35 182.16 C 423.12 179.62 420.86 177.11 418.57 174.64" fill="#ffffff" fill-rule="nonzero" group-id="1,2,9,14,18" node-id="768" stroke="none" target-height="89.43" target-width="147.77997" target-x="418.57" target-y="92.73"></path><path d="M 425.39 182.16 L 566.39 100.24 C 568.64 102.81 570.87 105.42 573.06 108.05 L 432.06 190.00 C 429.87 187.33 427.64 184.73 425.39 182.20" fill="#ffffff" fill-rule="nonzero" group-id="1,2,9,14,18" node-id="770" stroke="none" target-height="89.76" target-width="147.66998" target-x="425.39" target-y="100.24"></path><path d="M 432.06 190.00 L 573.06 108.09 C 575.32 110.81 577.55 113.57 579.75 116.36 L 438.75 198.28 C 436.56 195.48 434.32 192.72 432.06 190.00" fill="#ffffff" fill-rule="nonzero" group-id="1,2,9,14,18" node-id="772" stroke="none" target-height="90.19" target-width="147.69" target-x="432.06" target-y="108.09"></path><path d="M 438.75 198.24 L 579.75 116.32 C 582.24 119.48 584.68 122.69 587.07 125.94 L 446.07 207.85 C 443.68 204.60 441.24 201.40 438.75 198.24" fill="#ffffff" fill-rule="nonzero" group-id="1,2,9,14,18" node-id="774" stroke="none" target-height="91.53001" target-width="148.32" target-x="438.75" target-y="116.32"></path><path d="M 446.07 207.85 L 587.07 125.94 C 590.20 130.18 593.25 134.50 596.23 138.89 L 455.23 220.81 C 452.26 216.41 449.20 212.08 446.07 207.81" fill="#ffffff" fill-rule="nonzero" group-id="1,2,9,14,18" node-id="776" stroke="none" target-height="94.869995" target-width="150.15997" target-x="446.07" target-y="125.94"></path><path d="M 455.23 220.81 L 596.23 138.89 C 601.01 145.94 605.59 153.18 609.97 160.61 L 469.00 242.53 C 464.62 235.10 460.04 227.86 455.26 220.81" fill="#ffffff" fill-rule="nonzero" group-id="1,2,9,14,18" node-id="778" stroke="none" target-height="103.64" target-width="154.73996" target-x="455.23" target-y="138.89"></path><path d="M 469.00 242.53 L 610.00 160.61 C 613.11 165.88 616.11 171.23 619.00 176.68 L 478.00 258.60 C 475.10 253.15 472.10 247.79 469.00 242.53" fill="#ffffff" fill-rule="nonzero" group-id="1,2,9,14,18" node-id="780" stroke="none" target-height="97.990005" target-width="150" target-x="469" target-y="160.61"></path><path d="M 478.00 258.60 L 619.00 176.68 C 620.70 179.88 622.37 183.11 624.00 186.36 L 483.00 268.27 C 481.37 265.02 479.70 261.80 478.00 258.60" fill="#ffffff" fill-rule="nonzero" group-id="1,2,9,14,18" node-id="782" stroke="none" target-height="91.59" target-width="146" target-x="478" target-y="176.68"></path><path d="M 483.00 268.27 L 624.00 186.36 C 625.60 189.58 627.17 192.82 628.71 196.09 L 487.68 278.00 C 486.15 274.73 484.57 271.48 482.97 268.26" fill="#ffffff" fill-rule="nonzero" group-id="1,2,9,14,18" node-id="784" stroke="none" target-height="91.64" target-width="145.74002" target-x="482.97" target-y="186.36"></path><path d="M 487.68 278.00 L 628.68 196.08 C 630.01 198.99 631.35 201.92 632.68 204.88 L 491.68 286.79 C 490.38 283.84 489.05 280.91 487.68 278.00" fill="#ffffff" fill-rule="nonzero" group-id="1,2,9,14,18" node-id="786" stroke="none" target-height="90.71001" target-width="145" target-x="487.68" target-y="196.08"></path><path d="M 491.68 286.80 L 632.68 204.89 C 634.01 207.84 635.29 210.82 636.50 213.81 L 495.50 295.73 C 494.26 292.73 492.99 289.75 491.68 286.80" fill="#ffffff" fill-rule="nonzero" group-id="1,2,9,14,18" node-id="788" stroke="none" target-height="90.84001" target-width="144.82" target-x="491.68" target-y="204.89"></path><path d="M 495.50 295.73 L 636.50 213.81 C 637.80 216.94 639.07 220.09 640.30 223.26 L 499.30 305.17 C 498.07 302.00 496.80 298.85 495.50 295.73" fill="#fafafa" fill-rule="nonzero" group-id="1,2,9,14,18" node-id="790" stroke="none" target-height="91.360016" target-width="144.79999" target-x="495.5" target-y="213.81"></path><path d="M 499.30 305.17 L 640.30 223.26 C 641.54 226.45 642.75 229.66 643.92 232.91 L 502.92 314.83 C 501.75 311.59 500.54 308.37 499.30 305.17" fill="#f5f5f5" fill-rule="nonzero" group-id="1,2,9,14,18" node-id="792" stroke="none" target-height="91.56999" target-width="144.62" target-x="499.3" target-y="223.26"></path><path d="M 502.92 314.83 L 643.92 232.91 C 645.18 236.39 646.40 239.89 647.58 243.42 L 506.58 325.34 C 505.40 321.81 504.18 318.31 502.92 314.83" fill="#f0f0f0" fill-rule="nonzero" group-id="1,2,9,14,18" node-id="794" stroke="none" target-height="92.42999" target-width="144.66" target-x="502.92" target-y="232.91"></path><path d="M 506.58 325.34 L 647.58 243.42 C 648.80 247.06 649.97 250.73 651.10 254.42 L 510.10 336.34 C 508.97 332.65 507.80 328.98 506.58 325.34" fill="#ebebeb" fill-rule="nonzero" group-id="1,2,9,14,18" node-id="796" stroke="none" target-height="92.92" target-width="144.51999" target-x="506.58" target-y="243.42"></path><path d="M 510.10 336.32 L 651.10 254.40 C 652.30 258.30 653.45 262.23 654.54 266.20 L 513.54 348.12 C 512.44 344.12 511.29 340.19 510.10 336.32" fill="#e6e6e6" fill-rule="nonzero" group-id="1,2,9,14,18" node-id="798" stroke="none" target-height="93.72" target-width="144.43997" target-x="510.1" target-y="254.4"></path><path d="M 513.54 348.12 L 654.54 266.20 C 655.66 270.20 656.73 274.26 657.74 278.37 L 516.74 360.29 C 515.72 356.20 514.65 352.14 513.54 348.12" fill="#e0e0e0" fill-rule="nonzero" group-id="1,2,9,14,18" node-id="800" stroke="none" target-height="94.09" target-width="144.20001" target-x="513.54" target-y="266.2"></path><path d="M 516.74 360.29 L 657.74 278.37 C 658.79 282.64 659.79 286.94 660.74 291.27 L 519.74 373.18 C 518.80 368.86 517.74 364.56 516.74 360.29" fill="#dbdbdb" fill-rule="nonzero" group-id="1,2,9,14,18" node-id="802" stroke="none" target-height="94.81" target-width="144" target-x="516.74" target-y="278.37"></path><path d="M 519.74 373.18 L 660.74 291.27 C 661.69 295.64 662.58 300.04 663.41 304.46 L 522.41 386.38 C 521.58 381.95 520.69 377.55 519.74 373.18" fill="#d6d6d6" fill-rule="nonzero" group-id="1,2,9,14,18" node-id="804" stroke="none" target-height="95.110016" target-width="143.66998" target-x="519.74" target-y="291.27"></path><path d="M 522.41 386.38 L 663.41 304.46 C 664.26 309.00 665.04 313.56 665.77 318.15 L 524.77 400.07 C 524.05 395.48 523.26 390.92 522.41 386.38" fill="#d1d1d1" fill-rule="nonzero" group-id="1,2,9,14,18" node-id="806" stroke="none" target-height="95.610016" target-width="143.36005" target-x="522.41" target-y="304.46"></path><path d="M 524.77 400.07 L 665.77 318.15 C 666.51 322.85 667.18 327.57 667.77 332.32 L 526.77 414.24 C 526.17 409.49 525.50 404.77 524.77 400.07" fill="#cccccc" fill-rule="nonzero" group-id="1,2,9,14,18" node-id="808" stroke="none" target-height="96.09" target-width="143" target-x="524.77" target-y="318.15"></path><path d="M 526.78 414.24 L 667.78 332.32 C 668.39 337.14 668.93 341.99 669.40 346.86 L 528.40 428.78 C 527.93 423.90 527.39 419.05 526.78 414.24" fill="#c7c7c7" fill-rule="nonzero" group-id="1,2,9,14,18" node-id="810" stroke="none" target-height="96.45999" target-width="142.62" target-x="526.78" target-y="332.32"></path><path d="M 528.40 428.78 L 669.40 346.86 C 669.89 352.00 670.30 357.16 670.62 362.35 L 529.62 444.27 C 529.30 439.08 528.89 433.92 528.40 428.78" fill="#c2c2c2" fill-rule="nonzero" group-id="1,2,9,14,18" node-id="812" stroke="none" target-height="97.41" target-width="142.21997" target-x="528.4" target-y="346.86"></path><path d="M 529.62 444.27 L 670.62 362.35 C 670.96 367.68 671.21 373.07 671.37 378.51 L 530.37 460.42 C 530.21 455.01 529.96 449.62 529.62 444.27" fill="#bdbdbd" fill-rule="nonzero" group-id="1,2,9,14,18" node-id="814" stroke="none" target-height="98.07001" target-width="141.75" target-x="529.62" target-y="362.35"></path><path d="M 530.37 460.42 L 671.37 378.51 C 671.53 383.77 671.60 389.05 671.58 394.36 L 671.58 395.36 L 530.58 477.27 L 530.58 476.27 C 530.58 470.94 530.51 465.65 530.37 460.41" fill="#b8b8b8" fill-rule="nonzero" group-id="1,2,9,14,18" node-id="816" stroke="none" target-height="98.75998" target-width="141.22998" target-x="530.37" target-y="378.51"></path><path d="M 530.58 477.29 L 671.58 395.38 C 671.58 401.13 671.45 406.75 671.19 412.22 L 530.19 494.13 C 530.42 488.66 530.55 483.05 530.58 477.29" fill="#b3b3b3" fill-rule="nonzero" group-id="1,2,9,14,18" node-id="818" stroke="none" target-height="98.75" target-width="141.39001" target-x="530.19" target-y="395.38"></path><path d="M 530.19 494.13 L 671.19 412.22 C 670.96 417.63 670.62 422.90 670.19 428.05 L 529.22 510.00 C 529.64 504.86 529.97 499.58 530.22 494.17" fill="#adadad" fill-rule="nonzero" group-id="1,2,9,14,18" node-id="820" stroke="none" target-height="97.78" target-width="141.97003" target-x="529.22" target-y="412.22"></path><path d="M 529.22 510.00 L 670.22 428.09 C 669.80 433.22 669.29 438.22 668.68 443.09 L 527.68 525.00 C 528.29 520.14 528.81 515.14 529.22 510.00" fill="#a8a8a8" fill-rule="nonzero" group-id="1,2,9,14,18" node-id="822" stroke="none" target-height="96.91" target-width="142.53998" target-x="527.68" target-y="428.09"></path><path d="M 527.68 525.00 L 668.68 443.08 C 668.07 447.98 667.36 452.74 666.56 457.37 L 525.56 539.29 C 526.36 534.66 527.07 529.90 527.68 525.00" fill="#a3a3a3" fill-rule="nonzero" group-id="1,2,9,14,18" node-id="824" stroke="none" target-height="96.20999" target-width="143.12" target-x="525.56" target-y="443.08"></path><path d="M 525.56 539.25 L 666.56 457.33 C 665.74 462.06 664.82 466.64 663.81 471.06 L 522.81 553.00 C 523.82 548.57 524.74 543.99 525.56 539.27" fill="#9e9e9e" fill-rule="nonzero" group-id="1,2,9,14,18" node-id="826" stroke="none" target-height="95.67001" target-width="143.75" target-x="522.81" target-y="457.33"></path><path d="M 522.81 553.00 L 663.81 471.08 C 662.76 475.69 661.61 480.14 660.35 484.42 L 519.35 566.34 C 520.61 562.05 521.76 557.60 522.81 553.00" fill="#999999" fill-rule="nonzero" group-id="1,2,9,14,18" node-id="828" stroke="none" target-height="95.26004" target-width="144.46002" target-x="519.35" target-y="471.08"></path><path d="M 519.35 566.32 L 660.35 484.40 C 659.02 488.99 657.56 493.39 655.99 497.60 L 515.00 579.52 C 516.56 575.30 518.01 570.90 519.35 566.32" fill="#949494" fill-rule="nonzero" group-id="1,2,9,14,18" node-id="830" stroke="none" target-height="95.120026" target-width="145.34998" target-x="515" target-y="484.4"></path><path d="M 515.00 579.52 L 656.00 497.60 C 654.25 502.33 652.36 506.83 650.32 511.10 L 509.31 593.00 C 511.31 588.74 513.21 584.24 515.00 579.51" fill="#8f8f8f" fill-rule="nonzero" group-id="1,2,9,14,18" node-id="832" stroke="none" target-height="95.399994" target-width="146.69" target-x="509.31" target-y="497.6"></path><path d="M 509.31 593.00 L 650.31 511.09 C 647.92 516.14 645.22 521.04 642.22 525.76 L 501.22 607.68 C 504.22 602.96 506.92 598.06 509.31 593.00" fill="#8a8a8a" fill-rule="nonzero" group-id="1,2,9,14,18" node-id="834" stroke="none" target-height="96.59" target-width="149.09" target-x="501.22" target-y="511.09"></path><path d="M 501.22 607.69 L 642.22 525.77 C 633.22 539.82 622.40 550.50 609.89 557.77 L 468.89 639.69 C 481.40 632.42 492.25 621.69 501.22 607.69" fill="#858585" fill-rule="nonzero" group-id="1,2,9,14,18" node-id="836" stroke="none" target-height="113.91998" target-width="173.32996" target-x="468.89" target-y="525.77"></path><path d="M 595.75 566.00 C 634.38 543.56 657.20 488.55 657.45 402.60 C 657.90 242.17 579.64 102.60 465.62 36.75 C 411.89 5.69 366.00 0.00 332.41 19.51 L 346.50 11.32 C 380.08 -8.19 426.00 -2.50 479.72 28.52 C 593.73 94.35 672.00 233.94 671.54 394.37 C 671.30 480.32 648.48 535.37 609.85 557.77 L 595.75 566.00" fill="url(#未命名的渐变_29)" fill-rule="nonzero" group-id="1,2,9,14" node-id="839" stroke="none" target-height="574.19" target-width="339.59" target-x="332.41" target-y="-8.19"></path><path d="M 581.66 574.16 C 620.29 551.71 643.11 496.70 643.35 410.75 C 643.80 250.32 565.54 110.75 451.52 44.91 C 397.80 13.91 351.89 8.19 318.31 27.71 L 332.41 19.51 C 366.00 0.00 411.89 5.69 465.62 36.71 C 579.62 102.54 657.90 242.13 657.45 402.56 C 657.20 488.51 634.38 543.56 595.75 565.96 L 581.66 574.16" fill="#ffffff" fill-rule="nonzero" group-id="1,2,9,14" node-id="841" stroke="none" target-height="574.16" target-width="339.59003" target-x="318.31" target-y="0"></path><path d="M 567.56 582.35 C 606.19 559.90 629.01 504.89 629.26 418.94 C 629.71 258.51 551.45 118.94 437.43 53.10 C 383.70 22.10 337.79 16.39 304.22 35.90 L 318.31 27.71 C 351.89 8.19 397.80 13.89 451.52 44.91 C 565.52 110.73 643.80 250.32 643.35 410.75 C 643.11 496.70 620.29 551.75 581.66 574.16 L 567.56 582.35" fill="url(#未命名的渐变_29-2)" fill-rule="nonzero" group-id="1,2,9,14" node-id="843" stroke="none" target-height="574.16" target-width="339.58" target-x="304.22" target-y="8.19"></path><path d="M 553.46 590.54 C 592.09 568.09 614.91 513.08 615.16 427.13 C 615.61 266.71 537.35 127.13 423.33 61.29 C 369.60 30.29 323.69 24.58 290.12 44.09 L 304.22 35.90 C 337.79 16.39 383.70 22.08 437.43 53.10 C 551.43 118.92 629.71 258.51 629.26 418.94 C 629.01 504.89 606.19 559.94 567.56 582.35 L 553.46 590.54" fill="#ffffff" fill-rule="nonzero" group-id="1,2,9,14" node-id="845" stroke="none" target-height="574.14996" target-width="339.59003" target-x="290.12" target-y="16.39"></path><path d="M 539.37 598.73 C 578.00 576.28 600.82 521.27 601.06 435.32 C 601.52 274.90 523.25 135.32 409.24 69.48 C 355.51 38.48 309.60 32.77 276.02 52.28 L 290.12 44.09 C 323.69 24.58 369.60 30.27 423.33 61.29 C 537.33 127.12 615.61 266.71 615.16 427.13 C 614.91 513.13 592.09 568.13 553.46 590.54 L 539.37 598.73" fill="url(#未命名的渐变_29-3)" fill-rule="nonzero" group-id="1,2,9,14" node-id="847" stroke="none" target-height="574.14996" target-width="339.59" target-x="276.02" target-y="24.58"></path><path d="M 525.27 606.92 C 563.91 584.47 586.73 529.46 586.97 443.51 C 587.42 283.09 509.16 143.51 395.14 77.67 C 341.41 46.67 295.51 40.96 261.93 60.47 L 276.00 52.28 C 309.58 32.77 355.49 38.46 409.22 69.48 C 523.22 135.31 601.50 274.90 601.04 435.32 C 600.80 521.27 577.98 576.32 539.35 598.73 L 525.25 606.92" fill="#ffffff" fill-rule="nonzero" group-id="1,2,9,14" node-id="849" stroke="none" target-height="574.14996" target-width="339.57" target-x="261.93" target-y="32.77"></path><path d="M 511.18 615.12 C 549.81 592.67 572.63 537.66 572.87 451.71 C 573.33 291.28 495.06 151.71 381.05 85.86 C 327.32 54.86 281.41 49.15 247.83 68.66 L 261.93 60.47 C 295.51 41.00 341.41 46.65 395.14 77.67 C 509.16 143.50 587.42 283.09 587.00 443.51 C 586.76 529.51 563.94 584.51 525.30 606.92 L 511.21 615.12" fill="url(#未命名的渐变_29-4)" fill-rule="nonzero" group-id="1,2,9,14" node-id="851" stroke="none" target-height="574.12" target-width="339.58997" target-x="247.83" target-y="41"></path><path d="M 497.08 623.31 C 535.71 600.86 558.53 545.85 558.78 459.90 C 559.23 299.47 481.00 159.88 367.00 94.05 C 313.27 63.05 267.36 57.34 233.79 76.86 L 247.88 68.66 C 281.46 49.15 327.37 54.84 381.10 85.86 C 495.10 151.69 573.38 291.28 572.92 451.71 C 572.68 537.66 549.86 592.71 511.23 615.12 L 497.13 623.31" fill="#ffffff" fill-rule="nonzero" group-id="1,2,9,14" node-id="853" stroke="none" target-height="574.16" target-width="339.59003" target-x="233.79" target-y="49.15"></path><path d="M 483.00 631.50 C 521.64 609.05 544.46 554.04 544.70 468.09 C 545.15 307.66 466.89 168.09 352.87 102.25 C 299.14 71.25 253.24 65.54 219.66 85.05 L 233.76 76.86 C 267.31 57.34 313.22 63.00 367.00 94.05 C 481.00 159.88 559.23 299.47 558.78 459.90 C 558.53 545.90 535.71 600.90 497.08 623.31 L 483.00 631.50" fill="url(#未命名的渐变_29-5)" fill-rule="nonzero" group-id="1,2,9,14" node-id="855" stroke="none" target-height="574.16" target-width="339.56998" target-x="219.66" target-y="57.34"></path><path d="M 468.89 639.69 C 507.52 617.24 530.34 562.23 530.58 476.28 C 531.04 315.86 452.78 176.28 338.76 110.44 C 285.03 79.44 239.12 73.73 205.55 93.24 L 219.64 85.05 C 253.22 65.54 299.12 71.23 352.85 102.25 C 466.85 168.07 545.13 307.66 544.68 468.09 C 544.44 554.04 521.62 609.09 482.98 631.50 L 468.89 639.69" fill="#ffffff" fill-rule="nonzero" group-id="1,2,9,14" node-id="857" stroke="none" target-height="574.15" target-width="339.58002" target-x="205.55" target-y="65.54"></path></g><path d="M 533.23 774.42 L 548.15 856.00 C 533.58 855.62 507.39 847.19 475.97 829.00 C 388.13 778.35 327.21 689.00 297.75 597.00 C 205.90 523.88 145.08 395.00 145.48 254.00 C 145.94 92.91 224.74 44.67 338.76 110.50 C 452.78 176.33 531.00 315.86 530.58 476.28 C 530.20 611.31 474.10 670.00 388.51 646.00 C 408.18 694.85 447.12 732.73 486.09 755.23 C 504.71 766.00 521.00 772.00 533.23 774.42 Z M 337.53 542.92 C 401.53 579.86 442.43 536.53 442.74 425.57 C 443.05 319.28 402.50 232.28 338.52 195.34 C 274.54 158.40 233.62 198.34 233.32 304.66 C 233.00 415.62 273.54 506.00 337.53 542.92" fill="url(#未命名的渐变_7)" fill-rule="nonzero" group-id="1,2" node-id="861" stroke="none" target-height="811.33" target-width="403.07" target-x="145.08" target-y="44.67"></path></g><g node-id="904"><path d="M 412.63 48.28 L 412.56 73.55 L 388.55 87.50 L 388.62 62.23 L 412.63 48.28 Z" fill="#ffffff" fill-rule="nonzero" group-id="1,3" node-id="866" stroke="none" target-height="39.22" target-width="24.080017" target-x="388.55" target-y="48.28"></path><path d="M 388.62 62.23 L 388.55 87.50 L 364.38 73.55 L 364.46 48.28 L 388.62 62.23 Z" fill="#cccccc" fill-rule="nonzero" group-id="1,3" node-id="868" stroke="none" target-height="39.22" target-width="24.23999" target-x="364.38" target-y="48.28"></path><path d="M 412.63 48.28 L 388.62 62.23 L 364.46 48.28 L 388.46 34.33 L 412.63 48.28 Z" fill="#e6e6e6" fill-rule="nonzero" group-id="1,3" node-id="870" stroke="none" target-height="27.899998" target-width="48.170013" target-x="364.46" target-y="34.33"></path></g><g node-id="905"><path d="M 555.47 726.69 L 555.40 751.96 L 531.39 765.91 L 531.46 740.64 L 555.47 726.69 Z" fill="#fcee21" fill-rule="nonzero" group-id="1,4" node-id="875" stroke="none" target-height="39.21997" target-width="24.079956" target-x="531.39" target-y="726.69"></path><path d="M 531.46 740.64 L 531.39 765.91 L 507.23 751.96 L 507.30 726.69 L 531.46 740.64 Z" fill="#f7931e" fill-rule="nonzero" group-id="1,4" node-id="877" stroke="none" target-height="39.21997" target-width="24.230011" target-x="507.23" target-y="726.69"></path><path d="M 555.47 726.69 L 531.46 740.64 L 507.30 726.69 L 531.31 712.73 L 555.47 726.69 Z" fill="#fbb03b" fill-rule="nonzero" group-id="1,4" node-id="879" stroke="none" target-height="27.910034" target-width="48.169983" target-x="507.3" target-y="712.73"></path></g><path d="M 346.69 349.90 C 346.69 349.90 344.19 363.17 342.19 364.50 C 340.19 365.83 351.77 368.09 351.65 365.75 C 351.53 363.41 351.11 346.15 351.11 346.15 Z" fill="#ebbbb7" fill-rule="nonzero" group-id="1" node-id="882" stroke="none" target-height="21.940002" target-width="11.579987" target-x="340.19" target-y="346.15"></path><path d="M 358.29 342.62 C 358.29 342.62 360.29 356.30 356.40 359.75 C 352.51 363.20 344.49 350.29 344.49 350.29 Z" fill="#ffccc7" fill-rule="nonzero" group-id="1" node-id="884" stroke="none" target-height="20.580017" target-width="15.800018" target-x="344.49" target-y="342.62"></path><path d="M 358.84 346.29 C 358.84 346.29 369.63 334.83 357.17 334.72 C 344.71 334.61 343.94 342.28 343.61 342.72 C 343.28 343.16 343.49 351.39 343.61 351.84 C 343.73 352.29 356.23 348.90 358.84 346.29 Z" fill="#2b304f" fill-rule="nonzero" group-id="1" node-id="886" stroke="none" target-height="17.680023" target-width="26.350006" target-x="343.28" target-y="334.61"></path><path d="M 376.64 494.55 L 376.64 493.71 L 371.30 492.71 L 358.80 414.92 L 330.26 416.13 C 330.26 416.13 328.76 439.32 330.26 443.33 C 331.76 447.34 335.10 478.20 327.92 495.88 C 327.10 497.11 326.48 498.46 326.09 499.88 L 326.09 501.72 L 336.43 501.72 L 331.61 497.21 L 332.15 492.71 C 332.15 492.71 340.94 474.86 342.27 456.17 C 343.60 437.48 345.61 430.00 345.61 430.00 L 346.94 430.67 L 358.83 470.00 L 369.83 499.20 Z" fill="#2b304f" fill-rule="nonzero" group-id="1" node-id="888" stroke="none" target-height="86.79999" target-width="50.55002" target-x="326.09" target-y="414.92"></path><path d="M 358.80 416.00 C 359.29 415.33 353.30 364.45 353.30 364.45 L 342.00 363.25 L 337.82 366.76 L 330.31 417.30 Z" fill="#fcee21" fill-rule="nonzero" group-id="1" node-id="890" stroke="none" target-height="54.049988" target-width="28.980011" target-x="330.31" target-y="363.25"></path><path d="M 352.17 366.76 L 363.17 382.66 C 363.17 382.66 366.40 385.22 369.95 383.99 C 373.33 382.60 376.60 380.97 379.74 379.10 L 383.63 379.65 L 369.00 390.28 C 369.00 390.28 360.44 397.45 354.54 385.77 C 348.64 374.09 352.17 366.76 352.17 366.76 Z" fill="#fcee21" fill-rule="nonzero" group-id="1" node-id="892" stroke="none" target-height="30.690002" target-width="34.98999" target-x="348.64" target-y="366.76"></path><path d="M 328.70 410.88 L 331.43 407.68 C 331.43 407.68 332.18 410.96 333.85 412.13 C 335.52 413.30 335.60 417.80 335.60 417.80 C 335.60 417.80 334.33 420.01 332.68 418.64 C 331.44 417.53 330.32 416.30 329.34 414.97 Z" fill="#ffccc7" fill-rule="nonzero" group-id="1" node-id="894" stroke="none" target-height="12.330017" target-width="6.899994" target-x="328.7" target-y="407.68"></path><path d="M 338.39 366.24 L 327.59 382.32 C 327.59 382.32 320.69 398.45 328.70 412.13 L 331.58 408.41 C 331.58 408.41 329.07 396.80 331.58 392.41 C 334.09 388.02 336.46 384.61 336.46 384.61 Z" fill="#fcee21" fill-rule="nonzero" group-id="1" node-id="896" stroke="none" target-height="45.890015" target-width="17.700012" target-x="320.69" target-y="366.24"></path><path d="M 384.70 367.75 L 378.75 378.21 L 379.75 379.32 L 386.98 368.92 L 384.70 367.75 Z" fill="#2b304f" fill-rule="nonzero" group-id="1" node-id="898" stroke="none" target-height="11.570007" target-width="8.230011" target-x="378.75" target-y="367.75"></path><path d="M 385.31 371.54 L 385.31 378.76 L 381.74 381.03 L 379.22 379.41 L 385.31 371.54 Z" fill="#ffccc7" fill-rule="nonzero" group-id="1" node-id="900" stroke="none" target-height="9.48999" target-width="6.0899963" target-x="379.22" target-y="371.54"></path></g></svg>