<?xml version="1.0" standalone="no"?><!DOCTYPE svg PUBLIC "-//W3C//DTD SVG 1.1//EN" "http://www.w3.org/Graphics/SVG/1.1/DTD/svg11.dtd"><svg height="626" node-id="1" sillyvg="true" template-height="626" template-width="680" version="1.1" viewBox="0 0 680 626" width="680" xmlns="http://www.w3.org/2000/svg" xmlns:xlink="http://www.w3.org/1999/xlink"><defs node-id="86"><linearGradient gradientUnits="userSpaceOnUse" id="未命名的渐变_25" node-id="5" spreadMethod="pad" x1="171.82" x2="424.99" y1="358.75" y2="358.75"><stop offset="0" stop-color="#fcbd60"></stop><stop offset="1" stop-color="#ff2a9d"></stop></linearGradient><linearGradient gradientTransform="matrix(0.98738619 0.1583304 -0.1583304 0.98738619 16.04 -10.31)" gradientUnits="userSpaceOnUse" id="未命名的渐变_25-2" node-id="8" spreadMethod="pad" x1="16.48" x2="322.29" y1="339.88" y2="339.88"><stop offset="0" stop-color="#fcbd60"></stop><stop offset="1" stop-color="#ff2a9d"></stop></linearGradient><linearGradient gradientUnits="userSpaceOnUse" id="未命名的渐变_22" node-id="9" spreadMethod="pad" x1="41.48" x2="321.99" y1="461.9" y2="461.9"><stop offset="0" stop-color="#ffe496"></stop><stop offset="1" stop-color="#ff446f"></stop></linearGradient><linearGradient gradientUnits="userSpaceOnUse" id="未命名的渐变_22-2" node-id="12" spreadMethod="pad" x1="166.44" x2="510.88" y1="324.26" y2="324.26"><stop offset="0" stop-color="#ffe496"></stop><stop offset="1" stop-color="#ff446f"></stop></linearGradient><linearGradient gradientUnits="userSpaceOnUse" id="未命名的渐变_25-3" node-id="13" spreadMethod="pad" x1="165.23" x2="548.98" y1="463.48" y2="463.48"><stop offset="0" stop-color="#fcbd60"></stop><stop offset="1" stop-color="#ff2a9d"></stop></linearGradient><linearGradient gradientUnits="userSpaceOnUse" id="未命名的渐变_7" node-id="18" spreadMethod="pad" x1="244.2" x2="156.7" y1="354.09" y2="354.09"><stop offset="0" stop-color="#f5222d"></stop><stop offset="1" stop-color="#cf1322"></stop></linearGradient><linearGradient gradientUnits="userSpaceOnUse" id="未命名的渐变_7-2" node-id="21" spreadMethod="pad" x1="173.96" x2="218.96" y1="575.41" y2="575.41"><stop offset="0" stop-color="#f5222d"></stop><stop offset="1" stop-color="#cf1322"></stop></linearGradient><clipPath id="clip-path" node-id="14"><path d="M 244.20 131.63 L 385.16 49.71 L 383.76 544.35 L 242.80 626.27 L 244.20 131.63 Z" fill="#000000" fill-rule="nonzero" node-id="131" stroke="none" target-height="576.56" target-width="142.36" target-x="242.8" target-y="49.71"></path></clipPath><clipPath id="clip-path-2" node-id="16"><path d="M 158.10 81.92 L 299.06 0.00 L 385.16 49.71 L 244.20 131.63 L 158.10 81.92 Z" fill="#000000" fill-rule="nonzero" node-id="135" stroke="none" target-height="131.63" target-width="227.06" target-x="158.1" target-y="0"></path></clipPath></defs><g node-id="272"><path d="M 425.00 233.13 C 425.00 227.84 420.43 223.55 414.79 223.55 C 409.15 223.55 404.58 227.84 404.58 233.13 C 404.71 237.92 408.30 241.91 413.05 242.55 C 407.00 295.37 379.63 321.44 357.18 334.07 C 347.68 339.36 337.51 343.35 326.95 345.91 C 326.80 344.91 325.85 343.74 324.28 342.67 C 377.77 311.67 383.75 249.78 384.21 229.30 C 389.83 229.30 394.37 225.00 394.37 219.72 C 394.37 214.44 389.80 210.14 384.16 210.14 C 378.52 210.14 373.96 214.43 373.96 219.72 C 374.08 224.42 377.53 228.37 382.18 229.11 C 381.75 249.21 375.94 311.11 322.34 341.54 C 319.63 340.22 316.73 339.34 313.74 338.92 C 344.31 305.86 350.21 241.35 351.28 223.48 C 356.14 222.95 359.74 218.71 359.48 213.82 C 359.21 208.94 355.17 205.11 350.28 205.11 C 345.39 205.11 341.35 208.94 341.08 213.82 C 340.82 218.71 344.42 222.95 349.28 223.48 C 348.22 241.48 342.28 306.48 311.28 338.70 C 310.42 338.63 309.54 338.58 308.64 338.58 C 307.92 338.58 307.22 338.58 306.52 338.65 L 296.97 229.30 C 302.33 229.01 306.60 224.87 306.60 219.77 C 306.60 214.48 302.03 210.19 296.39 210.19 C 290.75 210.19 286.18 214.48 286.18 219.77 C 286.32 224.66 290.05 228.70 294.92 229.21 L 304.49 338.84 C 302.55 339.07 300.64 339.48 298.77 340.05 C 269.47 325.58 260.77 263.80 258.39 238.86 C 263.65 238.47 267.81 234.39 267.81 229.35 C 267.81 224.06 263.24 219.77 257.60 219.77 C 251.96 219.77 247.39 224.06 247.39 229.35 C 247.53 234.30 251.36 238.37 256.29 238.81 C 258.49 263.53 266.86 324.53 296.29 340.95 C 294.74 341.57 293.28 342.42 291.98 343.47 C 239.88 329.62 225.56 273.57 221.98 252.09 C 225.98 251.27 228.88 247.80 228.98 243.72 C 229.21 239.95 227.12 236.43 223.71 234.82 C 220.29 233.22 216.25 233.86 213.50 236.45 C 210.75 239.03 209.85 243.03 211.25 246.54 C 212.64 250.05 216.03 252.35 219.80 252.35 L 219.92 252.35 C 223.56 274.00 238.00 330.51 290.58 345.00 C 290.37 345.36 290.25 345.76 290.24 346.17 C 290.35 347.12 290.90 347.96 291.73 348.44 C 242.36 349.65 215.93 326.58 202.32 306.44 C 194.28 294.28 188.55 280.74 185.42 266.50 C 188.30 265.09 190.14 262.18 190.19 258.98 C 190.42 255.21 188.34 251.69 184.92 250.08 C 181.51 248.48 177.46 249.12 174.71 251.70 C 171.96 254.29 171.07 258.29 172.45 261.79 C 173.84 265.30 177.23 267.61 181.00 267.61 C 181.85 267.60 182.69 267.48 183.50 267.24 C 186.69 281.56 192.47 295.17 200.56 307.41 C 214.10 327.49 240.05 350.41 287.97 350.41 C 290.43 350.41 292.97 350.32 295.56 350.19 C 299.61 351.35 303.81 351.92 308.02 351.89 C 320.86 479.09 292.50 506.75 292.20 507.00 L 294.32 509.08 L 296.41 511.18 C 297.69 510.06 327.32 482.43 314.14 351.67 C 319.61 351.13 323.96 349.81 325.89 348.13 C 337.17 345.53 348.02 341.37 358.14 335.75 C 381.04 322.90 408.95 296.37 415.08 242.68 C 420.57 242.54 425.00 238.33 425.00 233.13 Z" fill="url(#未命名的渐变_25)" fill-rule="nonzero" group-id="1" node-id="141" stroke="none" target-height="306.06555" target-width="253.9349" target-x="171.0651" target-y="205.11446"></path><path d="M 196.77 431.35 C 199.77 425.98 244.77 331.80 167.60 384.26 C 167.60 384.26 142.91 407.72 145.96 462.52 C 145.47 489.62 84.68 433.90 131.88 363.36 C 179.08 292.82 119.10 208.11 90.78 240.73 C 62.46 273.35 84.46 350.41 90.66 374.63 C 96.86 398.85 81.29 429.51 62.27 395.63 C 43.25 361.75 33.75 296.20 50.79 232.77 C 67.83 169.34 43.32 119.08 33.24 117.56 C 23.16 116.04 12.11 120.21 7.91 144.81 C 7.91 144.81 -62.85 523.81 218.91 585.50 C 222.85 586.36 226.17 582.59 224.51 579.12 C 219.81 569.33 219.06 558.10 222.42 547.77 C 231.62 518.10 242.99 512.05 257.35 500.63 C 271.71 489.21 252.93 441.74 225.35 482.22 C 197.77 522.70 201.54 536.87 175.98 529.14 C 150.42 521.41 193.83 436.72 196.81 431.35 C 199.79 425.98 246.48 334.00 167.60 384.26" fill="url(#未命名的渐变_25-2)" fill-rule="nonzero" group-id="1" node-id="143" stroke="none" target-height="470.31998" target-width="334.56" target-x="-62.85" target-y="116.04"></path><path d="M 223.69 500.09 C 222.33 502.27 219.72 503.32 217.23 502.68 C 214.68 501.96 212.13 499.57 212.13 492.86 C 212.13 481.01 223.27 386.95 225.88 365.14 C 226.28 361.70 226.08 358.21 225.29 354.83 C 222.67 343.70 215.05 321.92 197.84 339.55 C 177.78 360.09 191.92 467.76 195.17 490.55 C 195.40 492.44 194.83 494.33 193.58 495.77 C 192.34 497.20 190.55 498.05 188.65 498.09 C 184.79 498.23 179.17 496.70 171.29 490.95 C 155.87 479.69 128.94 429.29 120.69 413.38 C 118.01 408.14 113.74 403.88 108.49 401.22 C 102.02 398.00 93.65 397.22 87.58 408.55 C 81.51 419.88 77.37 429.63 95.75 448.79 C 110.52 464.20 144.75 483.29 152.92 504.37 C 161.09 525.45 132.50 513.95 132.50 513.95 C 132.50 513.95 57.00 466.00 44.71 483.28 C 38.58 491.90 42.15 499.57 47.26 505.08 C 52.39 510.41 59.08 513.97 66.36 515.26 C 82.95 518.49 122.44 527.63 130.46 542.68 C 142.01 564.37 185.58 600.18 222.34 588.68 C 259.10 577.18 226.42 544.60 269.34 519.68 C 312.26 494.76 351.00 441.11 291.79 456.44 C 246.78 468.09 228.47 492.44 223.69 500.09 Z" fill="url(#未命名的渐变_22)" fill-rule="nonzero" group-id="1" node-id="145" stroke="none" target-height="278.25998" target-width="312.41998" target-x="38.58" target-y="321.92"></path><path d="M 341.56 526.29 C 341.56 526.29 526.16 369.63 609.71 191.68 C 612.06 186.61 615.56 182.16 619.94 178.68 C 637.47 164.86 681.62 138.30 680.15 222.88 C 678.17 235.62 662.39 399.09 341.56 526.29 Z" fill="#f5222d" fill-rule="nonzero" group-id="1" node-id="147" stroke="none" target-height="387.99" target-width="340.06" target-x="341.56" target-y="138.3"></path><path d="M 249.46 405.28 C 247.19 398.46 215.33 280.22 290.38 355.28 C 290.38 355.28 313.11 387.10 299.47 450.75 C 294.92 482.57 372.21 428.02 333.57 337.10 C 294.93 246.18 376.75 157.52 401.76 200.71 C 426.77 243.90 388.12 330.28 376.76 357.55 C 365.40 384.82 376.76 423.47 404.04 387.10 C 431.32 350.73 454.04 275.72 447.23 198.44 C 440.42 121.16 476.77 66.59 488.14 66.59 C 499.51 66.59 510.87 73.41 510.87 102.96 C 510.87 102.96 517.51 559.28 196.23 581.96 C 194.15 582.11 192.17 581.07 191.11 579.28 C 190.05 577.48 190.10 575.25 191.23 573.50 C 198.26 562.77 201.17 549.86 199.42 537.16 C 194.88 500.79 183.51 491.70 169.87 475.78 C 156.23 459.86 185.79 407.59 208.52 459.87 C 231.25 512.15 224.46 528.00 254.00 523.48 C 283.54 518.96 251.73 412.10 249.45 405.28 C 247.17 398.46 213.08 282.53 290.37 355.28" fill="url(#未命名的渐变_22-2)" fill-rule="nonzero" group-id="1" node-id="149" stroke="none" target-height="515.51855" target-width="361.28003" target-x="156.23" target-y="66.59"></path><path d="M 381.79 564.22 C 381.79 564.22 424.98 539.22 465.89 543.76 C 506.80 548.30 568.18 525.58 543.18 500.58 C 518.71 476.11 452.89 484.29 426.65 510.21 C 425.28 511.67 423.10 512.04 421.32 511.11 C 419.87 510.26 419.27 508.56 422.71 505.11 C 429.52 498.29 497.71 455.11 449.98 430.11 C 407.83 408.03 383.41 483.43 378.27 501.37 C 377.52 504.25 374.82 506.19 371.85 505.97 C 369.29 505.69 367.02 503.97 368.15 498.30 C 371.30 482.54 381.79 446.02 393.15 425.56 C 401.15 411.24 393.15 352.83 363.60 364.19 C 334.05 375.55 320.41 430.11 320.41 464.19 C 320.41 477.82 309.04 455.09 309.04 455.09 C 309.04 455.09 270.40 348.26 252.21 386.90 C 234.02 425.54 263.44 491.32 281.76 509.65 C 288.58 516.47 270.40 511.92 270.40 511.92 C 270.40 511.92 177.20 489.19 165.84 530.11 C 154.48 571.03 302.22 521.01 365.84 564.20 Z" fill="url(#未命名的渐变_25-3)" fill-rule="nonzero" group-id="1" node-id="151" stroke="none" target-height="222.77002" target-width="413.7" target-x="154.48" target-y="348.26"></path><g node-id="273"><path d="M 244.20 131.63 L 385.16 49.71 L 383.76 544.35 L 242.80 626.27 L 244.20 131.63 Z" fill="#c5c5c5" fill-rule="nonzero" group-id="1,2" node-id="155" stroke="none" target-height="576.56" target-width="142.36" target-x="242.8" target-y="49.71"></path><g node-id="276"><g clip-path="url(#clip-path)" group-id="1,2,5" node-id="159"><path d="M 383.76 544.35 L 385.16 49.71 L 371.06 57.90 L 369.66 552.54 L 383.76 544.35" fill="#ff4d4f" fill-rule="nonzero" group-id="1,2,5,7" node-id="161" stroke="none" target-height="502.83" target-width="15.5" target-x="369.66" target-y="49.71"></path><path d="M 369.66 552.54 L 371.06 57.90 L 356.97 66.09 L 355.56 560.74 L 369.66 552.54" fill="#ffffff" fill-rule="nonzero" group-id="1,2,5,7" node-id="163" stroke="none" target-height="502.84" target-width="15.5" target-x="355.56" target-y="57.9"></path><path d="M 355.56 560.74 L 356.97 66.09 L 342.87 74.29 L 341.47 568.93 L 355.56 560.74" fill="#ff4d4f" fill-rule="nonzero" group-id="1,2,5,7" node-id="165" stroke="none" target-height="502.84" target-width="15.5" target-x="341.47" target-y="66.09"></path><path d="M 341.47 568.93 L 342.87 74.29 L 328.77 82.48 L 327.37 577.12 L 341.47 568.93" fill="#ffffff" fill-rule="nonzero" group-id="1,2,5,7" node-id="167" stroke="none" target-height="502.83" target-width="15.5" target-x="327.37" target-y="74.29"></path><path d="M 327.37 577.12 L 328.77 82.48 L 314.68 90.67 L 313.28 585.31 L 327.37 577.12" fill="#ff4d4f" fill-rule="nonzero" group-id="1,2,5,7" node-id="169" stroke="none" target-height="502.83" target-width="15.48999" target-x="313.28" target-y="82.48"></path><path d="M 313.28 585.31 L 314.68 90.67 L 300.58 98.86 L 299.18 593.50 L 313.28 585.31" fill="#ffffff" fill-rule="nonzero" group-id="1,2,5,7" node-id="171" stroke="none" target-height="502.83002" target-width="15.5" target-x="299.18" target-y="90.67"></path><path d="M 299.18 593.50 L 300.58 98.86 L 286.49 107.05 L 285.08 601.69 L 299.18 593.50" fill="#ff4d4f" fill-rule="nonzero" group-id="1,2,5,7" node-id="173" stroke="none" target-height="502.83002" target-width="15.5" target-x="285.08" target-y="98.86"></path><path d="M 285.08 601.69 L 286.49 107.05 L 272.39 115.24 L 270.99 609.88 L 285.08 601.69" fill="#ffffff" fill-rule="nonzero" group-id="1,2,5,7" node-id="175" stroke="none" target-height="502.83002" target-width="15.5" target-x="270.99" target-y="107.05"></path><path d="M 270.99 609.88 L 272.39 115.24 L 258.30 123.44 L 256.89 618.08 L 270.99 609.88" fill="#ff4d4f" fill-rule="nonzero" group-id="1,2,5,7" node-id="177" stroke="none" target-height="502.84003" target-width="15.5" target-x="256.89" target-y="115.24"></path><path d="M 256.89 618.08 L 258.30 123.44 L 244.20 131.63 L 242.80 626.27 L 256.89 618.08" fill="#ffffff" fill-rule="nonzero" group-id="1,2,5,7" node-id="179" stroke="none" target-height="502.83002" target-width="15.499985" target-x="242.8" target-y="123.44"></path></g></g><path d="M 158.10 81.92 L 299.06 0.00 L 385.16 49.71 L 244.20 131.63 L 158.10 81.92 Z" fill="#dcdcdc" fill-rule="nonzero" group-id="1,2" node-id="183" stroke="none" target-height="131.63" target-width="227.06" target-x="158.1" target-y="0"></path><g clip-path="url(#clip-path-2)" group-id="1,2,6" node-id="187"><path d="M 385.16 49.71 L 299.06 0.00 L 284.97 8.19 L 371.06 57.90 L 385.16 49.71" fill="#cf1322" fill-rule="nonzero" group-id="1,2,6,8" node-id="189" stroke="none" target-height="57.9" target-width="100.19" target-x="284.97" target-y="0"></path><path d="M 371.06 57.90 L 284.97 8.19 L 270.87 16.38 L 356.96 66.09 L 371.06 57.90" fill="#ffccc7" fill-rule="nonzero" group-id="1,2,6,8" node-id="191" stroke="none" target-height="57.899998" target-width="100.19" target-x="270.87" target-y="8.19"></path><path d="M 356.96 66.09 L 270.87 16.38 L 256.77 24.57 L 342.87 74.28 L 356.96 66.09" fill="#cf1322" fill-rule="nonzero" group-id="1,2,6,8" node-id="193" stroke="none" target-height="57.9" target-width="100.19" target-x="256.77" target-y="16.38"></path><path d="M 342.87 74.28 L 256.77 24.57 L 242.68 32.77 L 328.77 82.47 L 342.87 74.28" fill="#ffccc7" fill-rule="nonzero" group-id="1,2,6,8" node-id="195" stroke="none" target-height="57.9" target-width="100.19" target-x="242.68" target-y="24.57"></path><path d="M 328.77 82.47 L 242.68 32.77 L 228.58 40.96 L 314.68 90.67 L 328.77 82.47" fill="#cf1322" fill-rule="nonzero" group-id="1,2,6,8" node-id="197" stroke="none" target-height="57.899998" target-width="100.18999" target-x="228.58" target-y="32.77"></path><path d="M 314.68 90.67 L 228.58 40.96 L 214.49 49.15 L 300.58 98.86 L 314.68 90.67" fill="#ffccc7" fill-rule="nonzero" group-id="1,2,6,8" node-id="199" stroke="none" target-height="57.9" target-width="100.18999" target-x="214.49" target-y="40.96"></path><path d="M 300.58 98.86 L 214.49 49.15 L 200.39 57.34 L 286.49 107.05 L 300.58 98.86" fill="#cf1322" fill-rule="nonzero" group-id="1,2,6,8" node-id="201" stroke="none" target-height="57.9" target-width="100.18999" target-x="200.39" target-y="49.15"></path><path d="M 286.49 107.05 L 200.39 57.34 L 186.30 65.53 L 272.39 115.24 L 286.49 107.05" fill="#ffccc7" fill-rule="nonzero" group-id="1,2,6,8" node-id="203" stroke="none" target-height="57.899998" target-width="100.18999" target-x="186.3" target-y="57.34"></path><path d="M 272.39 115.24 L 186.30 65.53 L 172.20 73.73 L 258.29 123.43 L 272.39 115.24" fill="#cf1322" fill-rule="nonzero" group-id="1,2,6,8" node-id="205" stroke="none" target-height="57.9" target-width="100.19002" target-x="172.2" target-y="65.53"></path><path d="M 258.29 123.43 L 172.20 73.73 L 158.10 81.92 L 244.20 131.62 L 258.29 123.43" fill="#ffccc7" fill-rule="nonzero" group-id="1,2,6,8" node-id="207" stroke="none" target-height="57.88999" target-width="100.19" target-x="158.1" target-y="73.73"></path></g><path d="M 244.20 131.63 L 242.80 626.27 L 156.70 576.56 L 158.10 81.92 L 244.20 131.63 Z" fill="url(#未命名的渐变_7)" fill-rule="nonzero" group-id="1,2" node-id="211" stroke="none" target-height="544.35004" target-width="87.5" target-x="156.7" target-y="81.92"></path></g><path d="M 315.22 26.45 C 315.22 26.45 312.15 26.65 314.32 22.29 C 316.49 17.93 317.79 16.45 316.80 12.39 C 315.81 8.33 319.28 1.50 323.53 2.59 C 327.78 3.68 331.35 8.13 331.35 10.01 C 331.35 11.89 332.74 20.51 329.27 24.07 C 325.80 27.63 315.22 26.45 315.22 26.45 Z" fill="#2b304f" fill-rule="nonzero" group-id="1" node-id="214" stroke="none" target-height="26.13" target-width="20.589996" target-x="312.15" target-y="1.5"></path><path d="M 312.94 34.67 C 312.94 34.67 314.03 20.67 320.66 18.13 C 326.80 18.13 330.61 19.27 333.98 33.63 C 315.00 35.90 312.94 34.67 312.94 34.67 Z" fill="#da4147" fill-rule="nonzero" group-id="1" node-id="216" stroke="none" target-height="17.770002" target-width="21.040009" target-x="312.94" target-y="18.13"></path><path d="M 311.02 33.11 L 335.05 33.11 L 332.87 48.56 L 323.04 50.54 L 312.94 48.95 L 311.02 33.11 Z" fill="#fcee21" fill-rule="nonzero" group-id="1" node-id="218" stroke="none" target-height="17.43" target-width="24.029999" target-x="311.02" target-y="33.11"></path><path d="M 320.76 10.56 C 320.76 10.56 317.64 10.11 319.57 12.93 C 321.50 15.75 321.99 16.22 321.70 18.13 C 321.30 20.76 324.18 23.03 325.36 20.13 C 325.51 17.21 325.96 16.13 326.30 15.63 C 327.15 14.64 328.05 13.69 329.00 12.79 C 329.00 12.79 329.62 9.64 327.66 11.35 C 326.65 12.26 322.49 14.12 320.76 10.56 Z" fill="#ffccc7" fill-rule="nonzero" group-id="1" node-id="220" stroke="none" target-height="13.39" target-width="11.97998" target-x="317.64" target-y="9.64"></path><path d="M 333.06 39.91 L 333.60 39.91 C 334.27 39.91 334.82 40.46 334.82 41.13 L 334.82 42.64 C 334.82 43.49 334.13 44.18 333.28 44.18 L 333.06 44.18 C 332.41 44.17 331.87 43.65 331.85 43.00 L 331.85 41.13 C 331.85 40.46 332.40 39.91 333.07 39.91 Z" fill="#ffccc7" fill-rule="nonzero" group-id="1" node-id="222" stroke="none" target-height="4.2700005" target-width="2.9700012" target-x="331.85" target-y="39.91"></path><path d="M 312.32 43.57 L 312.10 43.57 L 311.50 43.45 L 311.01 43.12 L 310.68 42.63 L 310.56 42.03 L 310.56 40.52 L 310.66 40.04 L 310.92 39.66 L 311.30 39.40 L 311.78 39.30 L 312.32 39.30 L 312.80 39.40 L 313.18 39.66 L 313.44 40.04 L 313.54 40.52 L 313.54 42.36 L 313.44 42.84 L 313.18 43.22 L 312.80 43.48 L 312.32 43.58 Z" fill="#ffccc7" fill-rule="nonzero" group-id="1,3" node-id="226" stroke="none" target-height="4.279999" target-width="2.980011" target-x="310.55997" target-y="39.3"></path><path d="M 313.93 47.70 L 302.44 45.26 C 302.44 45.26 295.78 46.05 299.08 50.87 C 303.57 53.87 318.68 63.54 318.68 63.54 L 327.68 59.84 C 327.68 59.84 344.68 48.76 344.68 48.56 C 344.68 48.36 348.68 41.56 341.38 42.04 C 341.38 41.96 327.98 47.57 327.98 47.57 Z" fill="#2c3154" fill-rule="nonzero" group-id="1" node-id="229" stroke="none" target-height="21.98" target-width="52.899994" target-x="295.78" target-y="41.56"></path><path d="M 318.88 63.85 C 318.88 63.85 318.58 61.85 319.82 61.72 C 321.06 61.59 325.56 59.20 325.56 59.20 C 325.56 59.20 327.24 59.05 326.35 61.52 C 325.99 62.54 325.54 63.53 325.00 64.47 C 324.50 65.32 323.45 65.67 322.54 65.31 Z" fill="#ffa34e" fill-rule="nonzero" group-id="1" node-id="231" stroke="none" target-height="6.6237144" target-width="8.660004" target-x="318.58" target-y="59.05"></path><path d="M 311.31 58.62 C 311.31 58.62 308.24 61.25 309.62 62.04 C 311.00 62.83 316.26 61.74 316.26 61.74 Z" fill="#ffa34e" fill-rule="nonzero" group-id="1" node-id="233" stroke="none" target-height="4.210003" target-width="8.02002" target-x="308.24" target-y="58.62"></path><path d="M 266.92 69.28 L 266.85 94.55 L 242.84 108.50 L 242.91 83.23 L 266.92 69.28 Z" fill="#fcee21" fill-rule="nonzero" group-id="1,4" node-id="237" stroke="none" target-height="39.22" target-width="24.080017" target-x="242.84" target-y="69.28"></path><path d="M 242.91 83.23 L 242.84 108.50 L 218.67 94.55 L 218.75 69.28 L 242.91 83.23 Z" fill="#f7931e" fill-rule="nonzero" group-id="1,4" node-id="239" stroke="none" target-height="39.22" target-width="24.240005" target-x="218.67" target-y="69.28"></path><path d="M 266.92 69.28 L 242.91 83.23 L 218.75 69.28 L 242.75 55.33 L 266.92 69.28 Z" fill="#fbb03b" fill-rule="nonzero" group-id="1,4" node-id="241" stroke="none" target-height="27.900002" target-width="48.170013" target-x="218.75" target-y="55.33"></path><path d="M 186.96 150.91 L 168.96 139.91 L 168.96 105.91 L 186.96 116.91 L 186.96 150.91 Z" fill="#fcee21" fill-rule="nonzero" group-id="1" node-id="244" stroke="none" target-height="45" target-width="18" target-x="168.96" target-y="105.91"></path><path d="M 223.96 170.91 L 205.96 159.91 L 205.96 125.91 L 223.96 136.91 L 223.96 170.91 Z" fill="#fcee21" fill-rule="nonzero" group-id="1" node-id="246" stroke="none" target-height="45" target-width="18" target-x="205.96" target-y="125.91"></path><path d="M 186.96 218.91 L 168.96 207.91 L 168.96 173.91 L 186.96 184.91 L 186.96 218.91 Z" fill="#fcee21" fill-rule="nonzero" group-id="1" node-id="248" stroke="none" target-height="45" target-width="18" target-x="168.96" target-y="173.91"></path><path d="M 223.96 238.91 L 205.96 227.91 L 205.96 193.91 L 223.96 204.91 L 223.96 238.91 Z" fill="#fcee21" fill-rule="nonzero" group-id="1" node-id="250" stroke="none" target-height="45" target-width="18" target-x="205.96" target-y="193.91"></path><path d="M 186.96 286.91 L 168.96 275.91 L 168.96 241.91 L 186.96 252.91 L 186.96 286.91 Z" fill="#fcee21" fill-rule="nonzero" group-id="1" node-id="252" stroke="none" target-height="45" target-width="18" target-x="168.96" target-y="241.91"></path><path d="M 223.96 306.91 L 205.96 295.91 L 205.96 261.91 L 223.96 272.91 L 223.96 306.91 Z" fill="#fcee21" fill-rule="nonzero" group-id="1" node-id="254" stroke="none" target-height="45" target-width="18" target-x="205.96" target-y="261.91"></path><path d="M 186.96 354.91 L 168.96 343.91 L 168.96 309.91 L 186.96 320.91 L 186.96 354.91 Z" fill="#fcee21" fill-rule="nonzero" group-id="1" node-id="256" stroke="none" target-height="45" target-width="18" target-x="168.96" target-y="309.91"></path><path d="M 223.96 374.91 L 205.96 363.91 L 205.96 329.91 L 223.96 340.91 L 223.96 374.91 Z" fill="#fcee21" fill-rule="nonzero" group-id="1" node-id="258" stroke="none" target-height="45" target-width="18" target-x="205.96" target-y="329.91"></path><path d="M 186.96 422.91 L 168.96 411.91 L 168.96 377.91 L 186.96 388.91 L 186.96 422.91 Z" fill="#fcee21" fill-rule="nonzero" group-id="1" node-id="260" stroke="none" target-height="45" target-width="18" target-x="168.96" target-y="377.91"></path><path d="M 223.96 442.91 L 205.96 431.91 L 205.96 397.91 L 223.96 408.91 L 223.96 442.91 Z" fill="#fcee21" fill-rule="nonzero" group-id="1" node-id="262" stroke="none" target-height="45" target-width="18" target-x="205.96" target-y="397.91"></path><path d="M 186.96 490.91 L 168.96 479.91 L 168.96 445.91 L 186.96 456.91 L 186.96 490.91 Z" fill="#fcee21" fill-rule="nonzero" group-id="1" node-id="264" stroke="none" target-height="45" target-width="18" target-x="168.96" target-y="445.91"></path><path d="M 223.96 510.91 L 205.96 499.91 L 205.96 465.91 L 223.96 476.91 L 223.96 510.91 Z" fill="#fcee21" fill-rule="nonzero" group-id="1" node-id="266" stroke="none" target-height="45" target-width="18" target-x="205.96" target-y="465.91"></path><path d="M 218.96 612.91 L 173.96 586.26 L 173.96 537.91 L 218.96 564.55 L 218.96 612.91 Z" fill="url(#未命名的渐变_7-2)" fill-rule="nonzero" group-id="1" node-id="268" stroke="none" target-height="75" target-width="45" target-x="173.96" target-y="537.91"></path><path d="M 173.96 586.26 L 173.96 537.91 L 218.96 564.55 L 173.96 586.26 Z" fill="#ff4d4f" fill-rule="nonzero" group-id="1" node-id="270" stroke="none" target-height="48.350037" target-width="45" target-x="173.96" target-y="537.91"></path></g></svg>