<?xml version="1.0" standalone="no"?><!DOCTYPE svg PUBLIC "-//W3C//DTD SVG 1.1//EN" "http://www.w3.org/Graphics/SVG/1.1/DTD/svg11.dtd"><svg height="741" node-id="1" sillyvg="true" template-height="741" template-width="790" version="1.1" viewBox="0 0 790 741" width="790" xmlns="http://www.w3.org/2000/svg" xmlns:xlink="http://www.w3.org/1999/xlink"><defs node-id="246"><linearGradient gradientUnits="userSpaceOnUse" id="未命名的渐变_25" node-id="5" spreadMethod="pad" x1="243.16" x2="594.11" y1="270.14" y2="270.14"><stop offset="0" stop-color="#fcbd60"></stop><stop offset="1" stop-color="#ff2a9d"></stop></linearGradient><linearGradient gradientUnits="userSpaceOnUse" id="未命名的渐变_25-2" node-id="8" spreadMethod="pad" x1="0" x2="428.86" y1="320.83" y2="320.83"><stop offset="0" stop-color="#fcbd60"></stop><stop offset="1" stop-color="#ff2a9d"></stop></linearGradient><linearGradient gradientUnits="userSpaceOnUse" id="未命名的渐变_22" node-id="9" spreadMethod="pad" x1="170.14" x2="558.99" y1="454.5" y2="454.5"><stop offset="0" stop-color="#ffe496"></stop><stop offset="1" stop-color="#ff446f"></stop></linearGradient><linearGradient gradientUnits="userSpaceOnUse" id="未命名的渐变_22-2" node-id="12" spreadMethod="pad" x1="387.98" x2="657.44" y1="451.02" y2="451.02"><stop offset="0" stop-color="#ffe496"></stop><stop offset="1" stop-color="#ff446f"></stop></linearGradient><linearGradient gradientUnits="userSpaceOnUse" id="未命名的渐变_25-3" node-id="13" spreadMethod="pad" x1="332.32" x2="632.54" y1="546.02" y2="546.02"><stop offset="0" stop-color="#fcbd60"></stop><stop offset="1" stop-color="#ff2a9d"></stop></linearGradient><linearGradient gradientUnits="userSpaceOnUse" id="未命名的渐变_15" node-id="18" spreadMethod="pad" x1="362.29" x2="573.39" y1="394.49" y2="394.49"><stop offset="0" stop-color="#ffccc7"></stop><stop offset="1" stop-color="#ffffff"></stop></linearGradient><linearGradient gradientUnits="userSpaceOnUse" id="未命名的渐变_15-2" node-id="21" spreadMethod="pad" x1="334.1" x2="545.2" y1="410.88" y2="410.88"><stop offset="0" stop-color="#ffccc7"></stop><stop offset="1" stop-color="#ffffff"></stop></linearGradient><linearGradient gradientUnits="userSpaceOnUse" id="未命名的渐变_15-3" node-id="22" spreadMethod="pad" x1="305.91" x2="517.01" y1="427.26" y2="427.26"><stop offset="0" stop-color="#ffccc7"></stop><stop offset="1" stop-color="#ffffff"></stop></linearGradient><linearGradient gradientUnits="userSpaceOnUse" id="未命名的渐变_15-4" node-id="23" spreadMethod="pad" x1="277.72" x2="488.81" y1="443.64" y2="443.64"><stop offset="0" stop-color="#ffccc7"></stop><stop offset="1" stop-color="#ffffff"></stop></linearGradient><linearGradient gradientUnits="userSpaceOnUse" id="未命名的渐变_15-5" node-id="24" spreadMethod="pad" x1="249.53" x2="460.62" y1="460.03" y2="460.03"><stop offset="0" stop-color="#ffccc7"></stop><stop offset="1" stop-color="#ffffff"></stop></linearGradient><linearGradient gradientUnits="userSpaceOnUse" id="未命名的渐变_15-6" node-id="29" spreadMethod="pad" x1="337.33" x2="489.38" y1="120.04" y2="120.04"><stop offset="0" stop-color="#ffccc7"></stop><stop offset="1" stop-color="#ffffff"></stop></linearGradient><linearGradient gradientUnits="userSpaceOnUse" id="未命名的渐变_15-7" node-id="30" spreadMethod="pad" x1="309.14" x2="461.19" y1="136.45" y2="136.45"><stop offset="0" stop-color="#ffccc7"></stop><stop offset="1" stop-color="#ffffff"></stop></linearGradient><linearGradient gradientUnits="userSpaceOnUse" id="未命名的渐变_15-8" node-id="31" spreadMethod="pad" x1="280.95" x2="433" y1="152.83" y2="152.83"><stop offset="0" stop-color="#ffccc7"></stop><stop offset="1" stop-color="#ffffff"></stop></linearGradient><linearGradient gradientUnits="userSpaceOnUse" id="未命名的渐变_15-9" node-id="32" spreadMethod="pad" x1="252.76" x2="404.8" y1="169.21" y2="169.21"><stop offset="0" stop-color="#ffccc7"></stop><stop offset="1" stop-color="#ffffff"></stop></linearGradient><linearGradient gradientUnits="userSpaceOnUse" id="未命名的渐变_15-10" node-id="33" spreadMethod="pad" x1="224.57" x2="376.61" y1="185.6" y2="185.6"><stop offset="0" stop-color="#ffccc7"></stop><stop offset="1" stop-color="#ffffff"></stop></linearGradient><linearGradient gradientUnits="userSpaceOnUse" id="未命名的渐变_17" node-id="38" spreadMethod="pad" x1="489.38" x2="629.53" y1="193.88" y2="193.88"><stop offset="0" stop-color="#cf1322"></stop><stop offset="1" stop-color="#ff4d4f"></stop></linearGradient><linearGradient gradientUnits="userSpaceOnUse" id="未命名的渐变_17-2" node-id="41" spreadMethod="pad" x1="461.19" x2="601.34" y1="210.26" y2="210.26"><stop offset="0" stop-color="#cf1322"></stop><stop offset="1" stop-color="#ff4d4f"></stop></linearGradient><linearGradient gradientUnits="userSpaceOnUse" id="未命名的渐变_17-3" node-id="42" spreadMethod="pad" x1="433" x2="573.15" y1="226.64" y2="226.64"><stop offset="0" stop-color="#cf1322"></stop><stop offset="1" stop-color="#ff4d4f"></stop></linearGradient><linearGradient gradientUnits="userSpaceOnUse" id="未命名的渐变_17-4" node-id="43" spreadMethod="pad" x1="404.81" x2="544.96" y1="243.03" y2="243.03"><stop offset="0" stop-color="#cf1322"></stop><stop offset="1" stop-color="#ff4d4f"></stop></linearGradient><linearGradient gradientUnits="userSpaceOnUse" id="未命名的渐变_17-5" node-id="44" spreadMethod="pad" x1="376.62" x2="516.77" y1="259.41" y2="259.41"><stop offset="0" stop-color="#cf1322"></stop><stop offset="1" stop-color="#ff4d4f"></stop></linearGradient><linearGradient gradientUnits="userSpaceOnUse" id="未命名的渐变_7" node-id="45" spreadMethod="pad" x1="495.65" x2="161.68" y1="458.28" y2="458.28"><stop offset="0" stop-color="#f5222d"></stop><stop offset="1" stop-color="#cf1322"></stop></linearGradient><clipPath id="clip-path" node-id="14"><path d="M 626.57 646.36 L 485.57 728.28 C 489.03 726.25 492.37 724.02 495.57 721.59 L 636.57 639.67 C 633.38 642.10 630.04 644.34 626.57 646.36 Z" fill="#000000" fill-rule="nonzero" node-id="375" stroke="none" target-height="88.61005" target-width="151" target-x="485.57" target-y="639.67"></path></clipPath><clipPath id="clip-path-2" node-id="16"><path d="M 290.57 282.00 L 431.57 200.08 C 406.32 214.75 390.70 252.30 390.57 312.14 C 390.26 419.76 434.29 510.14 502.35 549.42 C 536.97 569.42 564.90 567.61 587.57 554.42 L 446.57 636.34 C 423.90 649.51 395.97 651.34 361.35 631.34 C 293.25 592.00 249.22 501.65 249.53 394.00 C 249.70 334.19 265.32 296.64 290.57 282.00 Z" fill="#000000" fill-rule="nonzero" node-id="379" stroke="none" target-height="451.26" target-width="338.35" target-x="249.22" target-y="200.08"></path></clipPath><clipPath id="clip-path-3" node-id="25"><path d="M 450.45 633.89 L 591.41 551.98 L 636.61 639.67 L 495.65 721.59 L 450.45 633.89 Z" fill="#000000" fill-rule="nonzero" node-id="383" stroke="none" target-height="169.61005" target-width="186.15997" target-x="450.45" target-y="551.98"></path></clipPath><clipPath id="clip-path-4" node-id="27"><path d="M 224.57 188.49 L 365.57 106.57 C 401.83 85.50 450.64 91.06 503.57 121.57 L 362.57 203.49 C 309.64 173.00 260.83 167.42 224.57 188.49 Z" fill="#000000" fill-rule="nonzero" node-id="387" stroke="none" target-height="117.990005" target-width="279" target-x="224.57" target-y="85.5"></path></clipPath><clipPath id="clip-path-5" node-id="34"><path d="M 488.58 339.89 L 629.54 257.97 L 583.98 294.61 L 443.02 376.53 L 488.58 339.89 Z" fill="#000000" fill-rule="nonzero" node-id="391" stroke="none" target-height="118.56" target-width="186.51999" target-x="443.02" target-y="257.97"></path></clipPath><clipPath id="clip-path-6" node-id="36"><path d="M 362.52 203.51 L 503.52 121.59 C 558.16 153.16 601.70 208.43 629.54 258.00 L 488.54 339.92 C 460.75 290.35 417.20 235.08 362.52 203.51 Z" fill="#000000" fill-rule="nonzero" node-id="395" stroke="none" target-height="218.33002" target-width="267.02" target-x="362.52" target-y="121.59"></path></clipPath></defs><g node-id="812"><path d="M 594.11 84.63 C 594.13 77.12 588.29 70.91 580.80 70.46 C 573.31 70.02 566.77 75.50 565.90 82.96 C 565.04 90.41 570.15 97.25 577.54 98.53 C 569.16 176.53 531.22 215.05 500.09 233.70 C 487.02 241.47 472.91 247.36 458.19 251.18 C 457.98 249.66 456.66 247.98 454.49 246.40 C 528.64 200.57 536.93 109.21 537.57 79.00 C 545.11 78.96 551.30 73.02 551.64 65.49 C 551.98 57.96 546.36 51.48 538.85 50.76 C 531.35 50.05 524.60 55.34 523.50 62.80 C 522.41 70.26 527.35 77.26 534.75 78.73 C 534.16 108.40 526.10 199.73 451.80 244.73 C 448.06 242.80 444.04 241.50 439.88 240.87 C 482.26 192.04 490.44 96.77 491.88 70.37 C 498.59 69.76 503.65 64.02 503.41 57.29 C 503.18 50.56 497.73 45.19 491.00 45.04 C 484.27 44.90 478.60 50.04 478.08 56.75 C 477.56 63.47 482.38 69.42 489.05 70.31 C 487.57 96.84 479.31 192.90 436.42 240.46 C 435.22 240.37 434.00 240.30 432.75 240.30 C 431.75 240.30 430.75 240.30 429.82 240.40 L 416.61 78.88 C 424.12 78.44 429.97 72.18 429.91 64.65 C 429.84 57.13 423.89 50.97 416.37 50.66 C 408.85 50.34 402.40 55.97 401.71 63.47 C 401.01 70.96 406.31 77.69 413.76 78.76 L 427.00 240.67 C 424.30 241.01 421.64 241.61 419.06 242.46 C 378.44 221.08 366.35 129.84 363.06 93.01 C 370.59 92.44 376.34 86.07 376.16 78.53 C 375.98 70.98 369.92 64.90 362.37 64.70 C 354.83 64.49 348.45 70.23 347.85 77.75 C 347.26 85.28 352.66 91.95 360.14 92.93 C 363.20 129.44 374.79 219.52 415.61 243.78 C 413.43 244.70 411.40 245.96 409.61 247.51 C 337.38 227.05 317.54 144.27 312.54 112.51 C 319.00 110.86 323.06 104.47 321.80 97.93 C 320.55 91.38 314.41 86.95 307.80 87.81 C 301.19 88.66 296.40 94.52 296.86 101.17 C 297.32 107.82 302.88 112.96 309.54 112.90 L 309.71 112.90 C 314.76 144.96 334.80 228.43 407.65 249.90 C 407.36 250.43 407.20 251.02 407.18 251.62 C 407.31 253.00 408.08 254.24 409.26 254.97 C 340.82 256.76 304.18 222.69 285.32 192.97 C 271.11 170.55 264.65 147.31 261.89 133.97 C 267.44 130.84 269.80 124.08 267.39 118.18 C 264.99 112.28 258.58 109.09 252.42 110.73 C 246.27 112.37 242.29 118.33 243.14 124.64 C 243.99 130.95 249.40 135.65 255.77 135.60 C 256.94 135.58 258.11 135.40 259.23 135.06 C 262.10 148.70 268.67 171.93 282.87 194.38 C 301.64 224.04 337.62 257.92 404.04 257.92 C 407.45 257.92 410.98 257.80 414.56 257.61 C 420.21 259.32 426.09 260.15 432.00 260.09 C 449.81 447.87 410.49 488.71 410.08 489.09 L 413.01 492.16 L 415.91 495.26 C 417.69 493.60 458.75 452.80 440.49 259.69 C 448.07 258.89 454.10 256.94 456.78 254.46 C 472.50 250.59 487.56 244.43 501.48 236.17 C 533.23 217.17 571.92 178.02 580.41 98.71 C 588.03 98.48 594.09 92.25 594.11 84.63 Z" fill="url(#未命名的渐变_25)" fill-rule="nonzero" group-id="1" node-id="401" stroke="none" target-height="450.35788" target-width="351.8406" target-x="242.29141" target-y="44.902138"></path><path d="M 325.49 421.70 C 328.32 413.21 367.99 266.00 274.55 359.44 C 274.55 359.44 246.24 399.06 263.22 478.31 C 268.88 517.93 172.66 450.01 220.77 336.80 C 268.88 223.59 167.00 113.21 135.86 167.00 C 104.72 220.79 152.86 328.33 167.00 362.29 C 181.14 396.25 167.00 444.37 133.00 399.08 C 99.00 353.79 70.77 260.38 79.26 164.15 C 87.75 67.92 42.47 0.00 28.32 0.00 C 14.17 0.00 0.00 8.49 0.00 45.28 C 0.00 45.28 -8.27 613.45 391.76 641.64 C 394.35 641.83 396.82 640.54 398.15 638.31 C 399.47 636.08 399.41 633.29 398.00 631.11 C 389.26 617.75 385.63 601.68 387.80 585.86 C 393.46 540.57 407.62 529.25 424.60 509.44 C 441.58 489.63 404.79 424.53 376.48 489.63 C 348.17 554.73 356.67 574.54 319.88 568.88 C 283.09 563.22 322.71 430.19 325.54 421.70 C 328.37 413.21 370.82 268.87 274.60 359.44" fill="url(#未命名的渐变_25-2)" fill-rule="nonzero" group-id="1" node-id="403" stroke="none" target-height="641.8344" target-width="449.84998" target-x="-8.27" target-y="0"></path><path d="M 422.73 510.90 C 420.97 514.09 417.25 515.67 413.73 514.73 C 410.19 513.67 406.65 510.13 406.65 500.22 C 406.65 482.73 422.10 343.82 425.71 311.59 C 426.28 306.51 426.00 301.37 424.89 296.38 C 421.26 279.94 410.70 247.77 386.84 273.80 C 359.03 304.14 378.64 463.15 383.15 496.80 C 383.55 499.49 382.80 502.23 381.09 504.35 C 379.38 506.46 376.87 507.77 374.15 507.95 C 368.80 508.15 361.00 505.89 350.09 497.40 C 328.71 480.77 291.38 406.33 279.93 382.83 C 276.33 375.21 270.40 368.92 263.00 364.87 C 254.00 360.12 242.43 358.87 234.00 375.69 C 225.51 392.69 219.84 406.82 245.32 435.13 C 265.80 457.88 313.24 486.07 324.56 517.20 C 335.88 548.33 296.26 531.35 296.26 531.35 C 296.26 531.35 191.60 460.60 174.62 486.07 C 166.13 498.81 171.08 510.13 178.16 518.26 C 185.11 526.02 194.41 531.28 204.63 533.26 C 227.63 538.03 282.38 551.53 293.49 573.76 C 309.49 605.76 369.91 658.66 420.85 641.68 C 471.79 624.70 426.51 576.59 485.95 539.80 C 545.39 503.01 599.16 423.80 517.08 446.40 C 454.74 463.64 429.36 499.60 422.73 510.90 Z" fill="url(#未命名的渐变_22)" fill-rule="nonzero" group-id="1" node-id="405" stroke="none" target-height="410.88995" target-width="433.02997" target-x="166.13" target-y="247.77"></path><path d="M 525.00 609.07 C 525.00 609.07 669.40 486.52 734.76 347.30 C 736.60 343.34 739.34 339.87 742.76 337.15 C 756.48 326.34 791.02 305.56 789.87 371.73 C 788.32 381.67 776.00 509.56 525.00 609.07 Z" fill="#f5222d" fill-rule="nonzero" group-id="1" node-id="407" stroke="none" target-height="303.51" target-width="266.02002" target-x="525" target-y="305.56"></path><path d="M 452.93 514.40 C 451.15 509.07 426.23 416.57 484.93 475.28 C 484.93 475.28 502.71 500.18 492.04 549.97 C 488.48 574.86 548.95 532.19 518.71 461.05 C 488.47 389.91 552.50 320.57 572.06 354.36 C 591.62 388.15 561.39 455.72 552.50 477.06 C 543.61 498.40 552.50 528.63 573.84 500.18 C 595.18 471.73 613.00 413.00 607.64 352.58 C 602.28 292.16 630.76 249.44 639.64 249.44 C 648.52 249.44 657.42 254.77 657.42 277.89 C 657.42 277.89 662.62 634.89 411.27 652.59 C 409.66 652.69 408.13 651.87 407.32 650.48 C 406.50 649.09 406.53 647.36 407.40 646.00 C 412.89 637.61 415.17 627.51 413.81 617.57 C 410.25 589.12 401.36 582.01 390.69 569.57 C 380.02 557.13 403.14 516.22 420.92 557.12 C 438.70 598.02 433.37 610.47 456.48 606.91 C 479.59 603.35 454.71 519.78 452.93 514.44 C 451.15 509.10 424.48 418.44 484.93 475.32" fill="url(#未命名的渐变_22-2)" fill-rule="nonzero" group-id="1" node-id="409" stroke="none" target-height="403.24524" target-width="282.6" target-x="380.02" target-y="249.44"></path><path d="M 501.74 624.83 C 501.74 624.83 535.53 605.27 567.54 608.83 C 599.55 612.39 647.56 594.60 628.00 575.00 C 608.86 555.86 557.37 562.26 536.84 582.54 C 535.76 583.68 534.06 583.97 532.67 583.24 C 531.54 582.58 531.07 581.24 533.75 578.55 C 539.09 573.22 592.44 539.43 555.09 519.87 C 522.09 502.60 503.01 561.58 498.99 575.62 C 498.41 577.87 496.31 579.38 493.99 579.22 C 491.99 579.00 490.22 577.67 491.10 573.22 C 493.57 560.89 501.77 532.32 510.67 516.31 C 516.89 505.11 510.67 459.41 487.55 468.31 C 464.43 477.21 453.76 519.88 453.76 546.56 C 453.76 557.23 444.87 539.44 444.87 539.44 C 444.87 539.44 414.64 455.86 400.41 486.09 C 386.18 516.32 409.19 567.78 423.53 582.09 C 428.86 587.43 414.64 583.87 414.64 583.87 C 414.64 583.87 341.73 566.09 332.84 598.10 C 323.95 630.11 439.50 591.00 489.30 624.83 Z" fill="url(#未命名的渐变_25-3)" fill-rule="nonzero" group-id="1" node-id="411" stroke="none" target-height="174.25" target-width="323.61" target-x="323.95" target-y="455.86"></path><g node-id="813"><g node-id="817"><g clip-path="url(#clip-path)" group-id="1,2,6" node-id="417"><path d="M 495.65 721.59 L 636.65 639.67 C 633.46 642.10 630.12 644.34 626.65 646.36 L 485.65 728.28 C 489.11 726.25 492.45 724.02 495.65 721.59" fill="#565656" fill-rule="nonzero" group-id="1,2,6,12,18" node-id="421" stroke="none" target-height="88.61005" target-width="151.00003" target-x="485.65" target-y="639.67"></path><path d="M 612.48 654.56 C 615.54 652.63 619.57 649.97 622.48 647.86 L 636.57 639.67 C 633.38 642.10 630.04 644.34 626.57 646.36 L 612.48 654.56" fill="#cf1322" fill-rule="nonzero" group-id="1,2,6,12" node-id="424" stroke="none" target-height="14.890015" target-width="24.090027" target-x="612.48" target-y="639.67"></path><path d="M 598.38 662.75 C 601.84 660.72 605.18 658.49 608.38 656.06 L 622.48 647.86 C 619.48 649.95 615.48 652.65 612.48 654.56 L 598.38 662.75" fill="#ffffff" fill-rule="nonzero" group-id="1,2,6,12" node-id="426" stroke="none" target-height="14.890015" target-width="24.099976" target-x="598.38" target-y="647.86"></path><path d="M 584.28 670.94 C 587.74 668.91 591.08 666.68 594.28 664.25 L 608.37 656.06 C 605.17 658.49 601.83 660.72 598.37 662.75 L 584.27 670.94" fill="#cf1322" fill-rule="nonzero" group-id="1,2,6,12" node-id="428" stroke="none" target-height="14.880005" target-width="24.099976" target-x="584.27" target-y="656.06"></path><path d="M 570.19 679.13 C 573.66 677.11 577.00 674.87 580.19 672.44 L 594.29 664.25 C 591.09 666.68 587.75 668.91 584.29 670.94 L 570.20 679.13" fill="#ffffff" fill-rule="nonzero" group-id="1,2,6,12" node-id="430" stroke="none" target-height="14.880005" target-width="24.099976" target-x="570.19" target-y="664.25"></path><path d="M 556.09 687.32 C 559.56 685.30 562.90 683.06 566.09 680.63 L 580.19 672.44 C 577.00 674.87 573.66 677.11 570.19 679.13 L 556.09 687.32" fill="#cf1322" fill-rule="nonzero" group-id="1,2,6,12" node-id="432" stroke="none" target-height="14.880005" target-width="24.099976" target-x="556.09" target-y="672.44"></path><path d="M 542.00 695.51 C 545.47 693.49 548.81 691.25 552.00 688.82 L 566.09 680.63 C 562.90 683.06 559.56 685.30 556.09 687.32 L 542.00 695.51" fill="#ffffff" fill-rule="nonzero" group-id="1,2,6,12" node-id="434" stroke="none" target-height="14.880005" target-width="24.090027" target-x="542" target-y="680.63"></path><path d="M 527.90 703.71 C 531.36 701.68 534.70 699.44 537.90 697.01 L 552.00 688.82 C 548.81 691.25 545.47 693.49 542.00 695.51 L 527.90 703.71" fill="#cf1322" fill-rule="nonzero" group-id="1,2,6,12" node-id="436" stroke="none" target-height="14.890015" target-width="24.099976" target-x="527.9" target-y="688.82"></path><path d="M 513.80 711.90 C 516.87 709.97 520.90 707.31 523.80 705.21 L 537.89 697.01 C 534.69 699.44 531.35 701.68 527.89 703.71 L 513.79 711.90" fill="#ffffff" fill-rule="nonzero" group-id="1,2,6,12" node-id="438" stroke="none" target-height="14.890015" target-width="24.100037" target-x="513.79" target-y="697.01"></path><path d="M 499.71 720.09 C 503.17 718.06 506.51 715.83 509.71 713.40 L 523.81 705.21 C 520.81 707.29 516.81 709.99 513.81 711.90 L 499.72 720.09" fill="#cf1322" fill-rule="nonzero" group-id="1,2,6,12" node-id="440" stroke="none" target-height="14.880005" target-width="24.100006" target-x="499.71" target-y="705.21"></path><path d="M 485.61 728.28 C 489.08 726.26 492.42 724.02 495.61 721.59 L 509.70 713.40 C 506.50 715.83 503.16 718.06 499.70 720.09 L 485.60 728.28" fill="#ffffff" fill-rule="nonzero" group-id="1,2,6,12" node-id="442" stroke="none" target-height="14.880005" target-width="24.100006" target-x="485.6" target-y="713.4"></path></g></g><g node-id="818"><g clip-path="url(#clip-path-2)" group-id="1,2,7" node-id="448"><path d="M 290.57 282.00 L 431.57 200.08 C 423.57 204.72 416.57 211.65 410.68 220.85 L 269.68 302.77 C 275.56 293.57 282.58 286.64 290.57 282.00" fill="#565656" fill-rule="nonzero" group-id="1,2,7,13,19" node-id="452" stroke="none" target-height="102.68999" target-width="161.89001" target-x="269.68" target-y="200.08"></path><path d="M 269.68 302.74 L 410.68 220.82 C 408.68 223.98 406.87 227.26 405.26 230.64 L 264.26 312.56 C 265.87 309.18 267.68 305.90 269.68 302.74" fill="#5a5a5a" fill-rule="nonzero" group-id="1,2,7,13,19" node-id="454" stroke="none" target-height="91.73999" target-width="146.41998" target-x="264.26" target-y="220.82"></path><path d="M 264.26 312.56 L 405.26 230.64 C 403.88 233.54 402.59 236.60 401.38 239.83 L 260.38 321.75 C 261.59 318.52 262.88 315.45 264.26 312.56" fill="#5d5d5d" fill-rule="nonzero" group-id="1,2,7,13,19" node-id="456" stroke="none" target-height="91.11" target-width="144.88" target-x="260.38" target-y="230.64"></path><path d="M 260.38 321.75 L 401.38 239.83 C 400.30 242.74 399.30 245.78 398.38 248.95 L 257.38 330.87 C 258.31 327.69 259.31 324.65 260.38 321.75" fill="#606060" fill-rule="nonzero" group-id="1,2,7,13,19" node-id="458" stroke="none" target-height="91.03999" target-width="144" target-x="257.38" target-y="239.83"></path><path d="M 257.37 330.87 L 398.37 248.95 C 397.50 251.95 396.70 255.02 395.96 258.24 L 255.00 340.15 C 255.74 336.94 256.54 333.84 257.41 330.87" fill="#646464" fill-rule="nonzero" group-id="1,2,7,13,19" node-id="460" stroke="none" target-height="91.2" target-width="143.37" target-x="255" target-y="248.95"></path><path d="M 255.00 340.15 L 396.00 258.24 C 395.30 261.31 394.67 264.50 394.09 267.79 L 253.06 349.71 C 253.63 346.41 254.26 343.23 254.96 340.15" fill="#676767" fill-rule="nonzero" group-id="1,2,7,13,19" node-id="462" stroke="none" target-height="91.47" target-width="142.94" target-x="253.06" target-y="258.24"></path><path d="M 253.06 349.71 L 394.06 267.79 C 393.51 271.02 393.01 274.34 392.58 277.79 L 251.58 359.71 C 252.01 356.28 252.51 352.94 253.07 349.71" fill="#6a6a6a" fill-rule="nonzero" group-id="1,2,7,13,19" node-id="464" stroke="none" target-height="91.91998" target-width="142.48" target-x="251.58" target-y="267.79"></path><path d="M 251.57 359.69 L 392.57 277.77 C 392.15 281.19 391.78 284.70 391.49 288.32 L 250.49 370.24 C 250.78 366.62 251.15 363.10 251.57 359.69" fill="#6e6e6e" fill-rule="nonzero" group-id="1,2,7,13,19" node-id="466" stroke="none" target-height="92.47" target-width="142.08" target-x="250.49" target-y="277.77"></path><path d="M 250.49 370.24 L 391.49 288.32 C 391.19 291.94 390.96 295.67 390.80 299.50 L 249.80 381.41 C 249.96 377.59 250.19 373.86 250.49 370.24" fill="#717171" fill-rule="nonzero" group-id="1,2,7,13,19" node-id="468" stroke="none" target-height="93.09" target-width="141.68999" target-x="249.8" target-y="288.32"></path><path d="M 249.80 381.41 L 390.80 299.50 C 390.64 303.36 390.55 307.33 390.53 311.40 L 249.53 393.31 C 249.53 389.24 249.62 385.28 249.80 381.41" fill="#747474" fill-rule="nonzero" group-id="1,2,7,13,19" node-id="470" stroke="none" target-height="93.81" target-width="141.26999" target-x="249.53" target-y="299.5"></path><path d="M 249.53 393.31 L 390.53 311.40 L 390.53 312.11 C 390.53 316.36 390.59 320.58 390.70 324.76 L 249.70 406.68 C 249.57 402.49 249.52 398.27 249.53 394.03 L 249.53 393.31" fill="#787878" fill-rule="nonzero" group-id="1,2,7,13,19" node-id="472" stroke="none" target-height="95.28" target-width="141.18335" target-x="249.51666" target-y="311.4"></path><path d="M 249.70 406.68 L 390.70 324.76 C 390.82 329.00 391.01 333.20 391.28 337.37 L 250.28 419.28 C 250.02 415.11 249.83 410.91 249.70 406.68" fill="#7b7b7b" fill-rule="nonzero" group-id="1,2,7,13,19" node-id="474" stroke="none" target-height="94.51999" target-width="141.58" target-x="249.7" target-y="324.76"></path><path d="M 250.28 419.28 L 391.28 337.37 C 391.53 341.37 391.85 345.32 392.22 349.23 L 251.22 431.14 C 250.84 427.22 250.53 423.27 250.28 419.28" fill="#7e7e7e" fill-rule="nonzero" group-id="1,2,7,13,19" node-id="476" stroke="none" target-height="93.77002" target-width="141.94" target-x="250.28" target-y="337.37"></path><path d="M 251.22 431.14 L 392.22 349.23 C 392.58 353.00 392.99 356.74 393.46 360.46 L 252.46 442.37 C 251.99 438.66 251.57 434.92 251.22 431.14" fill="#818181" fill-rule="nonzero" group-id="1,2,7,13,19" node-id="478" stroke="none" target-height="93.139984" target-width="142.23999" target-x="251.22" target-y="349.23"></path><path d="M 252.46 442.37 L 393.46 360.46 C 393.91 364.00 394.41 367.52 394.96 371.01 L 254.00 452.93 C 253.45 449.44 252.95 445.92 252.50 442.37" fill="#858585" fill-rule="nonzero" group-id="1,2,7,13,19" node-id="480" stroke="none" target-height="92.47" target-width="142.49998" target-x="252.46" target-y="360.46"></path><path d="M 254.00 452.93 L 395.00 371.01 C 395.53 374.39 396.10 377.74 396.73 381.07 L 255.69 463.00 C 255.07 459.67 254.49 456.32 253.96 452.95" fill="#888888" fill-rule="nonzero" group-id="1,2,7,13,19" node-id="482" stroke="none" target-height="91.98999" target-width="142.77" target-x="253.96" target-y="371.01"></path><path d="M 255.69 463.00 L 396.69 381.09 C 397.30 384.33 397.97 387.55 398.69 390.74 L 257.69 472.66 C 257.00 469.47 256.34 466.25 255.69 463.00" fill="#8b8b8b" fill-rule="nonzero" group-id="1,2,7,13,19" node-id="484" stroke="none" target-height="91.57001" target-width="143" target-x="255.69" target-y="381.09"></path><path d="M 257.65 472.64 L 398.65 390.72 C 399.32 393.78 400.02 396.82 400.77 399.83 L 259.77 481.75 C 259.02 478.75 258.32 475.70 257.65 472.64" fill="#8f8f8f" fill-rule="nonzero" group-id="1,2,7,13,19" node-id="486" stroke="none" target-height="91.03" target-width="143.12" target-x="257.65" target-y="390.72"></path><path d="M 259.77 481.75 L 400.77 399.83 C 401.48 402.72 402.24 405.59 403.02 408.43 L 262.00 490.35 C 261.22 487.51 260.47 484.64 259.75 481.75" fill="#929292" fill-rule="nonzero" group-id="1,2,7,13,19" node-id="488" stroke="none" target-height="90.52002" target-width="143.26999" target-x="259.75" target-y="399.83"></path><path d="M 262.00 490.35 L 403.00 408.43 C 403.77 411.20 404.57 413.94 405.40 416.66 L 264.40 498.57 C 263.57 495.86 262.77 493.11 262.00 490.35" fill="#959595" fill-rule="nonzero" group-id="1,2,7,13,19" node-id="490" stroke="none" target-height="90.140015" target-width="143.4" target-x="262" target-y="408.43"></path><path d="M 264.42 498.57 L 405.42 416.66 C 406.18 419.14 406.97 421.60 407.79 424.04 L 266.79 506.00 C 265.97 503.56 265.18 501.10 264.42 498.61" fill="#999999" fill-rule="nonzero" group-id="1,2,7,13,19" node-id="492" stroke="none" target-height="89.34" target-width="143.37" target-x="264.42" target-y="416.66"></path><path d="M 266.79 506.00 L 407.79 424.08 C 408.59 426.48 409.42 428.87 410.28 431.23 L 269.28 513.14 C 268.42 510.78 267.59 508.40 266.79 506.00" fill="#9c9c9c" fill-rule="nonzero" group-id="1,2,7,13,19" node-id="494" stroke="none" target-height="89.06003" target-width="143.48999" target-x="266.79" target-y="424.08"></path><path d="M 269.28 513.10 L 410.28 431.19 C 411.04 433.30 411.83 435.40 412.64 437.48 L 271.64 519.40 C 270.83 517.32 270.05 515.22 269.28 513.10" fill="#9f9f9f" fill-rule="nonzero" group-id="1,2,7,13,19" node-id="496" stroke="none" target-height="88.21002" target-width="143.36002" target-x="269.28" target-y="431.19"></path><path d="M 271.64 519.40 L 412.64 437.48 C 413.45 439.57 414.28 441.63 415.13 443.67 L 274.13 525.59 C 273.28 523.59 272.45 521.48 271.64 519.40" fill="#a3a3a3" fill-rule="nonzero" group-id="1,2,7,13,19" node-id="498" stroke="none" target-height="88.110016" target-width="143.48999" target-x="271.64" target-y="437.48"></path><path d="M 274.13 525.59 L 415.13 443.67 C 415.93 445.60 416.75 447.50 417.58 449.39 L 276.58 531.31 C 275.75 529.42 274.94 527.51 274.13 525.59" fill="#a6a6a6" fill-rule="nonzero" group-id="1,2,7,13,19" node-id="500" stroke="none" target-height="87.639984" target-width="143.44998" target-x="274.13" target-y="443.67"></path><path d="M 276.58 531.31 L 417.58 449.39 C 418.41 451.28 419.26 453.15 420.13 455.00 L 279.13 536.91 C 278.26 535.06 277.41 533.20 276.58 531.31" fill="#b1b1b1" fill-rule="nonzero" group-id="1,2,7,13,19" node-id="502" stroke="none" target-height="87.51996" target-width="143.55002" target-x="276.58" target-y="449.39"></path><path d="M 279.13 536.91 L 420.13 455.00 C 421.13 457.00 422.06 459.00 423.05 461.00 L 282.05 543.00 C 281.05 541.00 280.05 539.00 279.13 537.00" fill="#b5b5b5" fill-rule="nonzero" group-id="1,2,7,13,19" node-id="504" stroke="none" target-height="88" target-width="143.91998" target-x="279.13" target-y="455"></path><path d="M 282.05 543.00 L 423.00 461.00 C 424.00 463.05 425.07 465.08 426.14 467.08 L 285.19 549.00 C 284.12 547.00 283.08 545.00 282.05 542.92" fill="#b8b8b8" fill-rule="nonzero" group-id="1,2,7,13,19" node-id="506" stroke="none" target-height="88" target-width="144.09003" target-x="282.05" target-y="461"></path><path d="M 285.19 549.00 L 426.19 467.08 C 428.01 470.51 429.89 473.86 431.84 477.15 L 290.84 559.06 C 288.90 555.78 287.02 552.43 285.19 549.00" fill="#bbbbbb" fill-rule="nonzero" group-id="1,2,7,13,19" node-id="508" stroke="none" target-height="91.98001" target-width="146.65" target-x="285.19" target-y="467.08"></path><path d="M 290.84 559.09 L 431.84 477.18 C 434.01 480.83 436.26 484.39 438.57 487.88 L 297.57 569.80 C 295.25 566.32 293.01 562.75 290.84 559.09" fill="#bebebe" fill-rule="nonzero" group-id="1,2,7,13,19" node-id="510" stroke="none" target-height="92.619995" target-width="147.73001" target-x="290.84" target-y="477.18"></path><path d="M 297.57 569.80 L 438.57 487.88 C 440.57 490.88 442.62 493.82 444.72 496.69 L 303.72 578.60 C 301.62 575.74 299.56 572.80 297.57 569.80" fill="#bbbbbb" fill-rule="nonzero" group-id="1,2,7,13,19" node-id="512" stroke="none" target-height="90.71997" target-width="147.15" target-x="297.57" target-y="487.88"></path><path d="M 303.72 578.60 L 444.72 496.69 C 446.17 498.69 447.63 500.58 449.13 502.48 L 308.13 584.39 C 306.64 582.50 305.17 580.57 303.72 578.60" fill="#b8b8b8" fill-rule="nonzero" group-id="1,2,7,13,19" node-id="514" stroke="none" target-height="87.70001" target-width="145.41" target-x="303.72" target-y="496.69"></path><path d="M 308.13 584.39 L 449.13 502.48 C 450.32 503.99 451.53 505.48 452.76 506.96 L 311.76 588.88 C 310.53 587.41 309.32 585.91 308.13 584.39" fill="#b5b5b5" fill-rule="nonzero" group-id="1,2,7,13,19" node-id="516" stroke="none" target-height="86.399994" target-width="144.63" target-x="308.13" target-y="502.48"></path><path d="M 311.76 588.88 L 452.76 506.96 C 453.98 508.43 455.22 509.88 456.47 511.31 L 315.47 593.23 C 314.22 591.80 312.99 590.35 311.76 588.88" fill="#b1b1b1" fill-rule="nonzero" group-id="1,2,7,13,19" node-id="518" stroke="none" target-height="86.26999" target-width="144.70999" target-x="311.76" target-y="506.96"></path><path d="M 315.47 593.23 L 456.47 511.31 C 457.72 512.73 458.97 514.12 460.25 515.49 L 319.25 597.41 C 317.98 596.04 316.72 594.64 315.47 593.23" fill="#a6a6a6" fill-rule="nonzero" group-id="1,2,7,13,19" node-id="520" stroke="none" target-height="86.099976" target-width="144.78" target-x="315.47" target-y="511.31"></path><path d="M 319.25 597.41 L 460.25 515.49 C 461.52 516.87 462.81 518.20 464.11 519.49 L 323.11 601.41 C 321.78 600.08 320.49 598.73 319.25 597.36" fill="#a3a3a3" fill-rule="nonzero" group-id="1,2,7,13,19" node-id="522" stroke="none" target-height="85.91998" target-width="144.85999" target-x="319.25" target-y="515.49"></path><path d="M 323.11 601.46 L 464.11 519.54 C 465.50 520.96 466.90 522.35 468.33 523.71 L 327.33 605.62 C 325.91 604.29 324.50 602.90 323.11 601.46" fill="#9f9f9f" fill-rule="nonzero" group-id="1,2,7,13,19" node-id="524" stroke="none" target-height="86.08002" target-width="145.22" target-x="323.11" target-y="519.54"></path><path d="M 327.33 605.62 L 468.33 523.71 C 469.76 525.08 471.20 526.42 472.67 527.71 L 331.67 609.63 C 330.20 608.31 328.76 606.96 327.33 605.63" fill="#9c9c9c" fill-rule="nonzero" group-id="1,2,7,13,19" node-id="526" stroke="none" target-height="85.91998" target-width="145.34003" target-x="327.33" target-y="523.71"></path><path d="M 331.67 609.66 L 472.67 527.74 C 474.16 529.07 475.67 530.41 477.20 531.74 L 336.20 613.66 C 334.67 612.37 333.16 611.04 331.67 609.66" fill="#999999" fill-rule="nonzero" group-id="1,2,7,13,19" node-id="528" stroke="none" target-height="85.91998" target-width="145.53" target-x="331.67" target-y="527.74"></path><path d="M 336.20 613.61 L 477.20 531.69 C 478.73 532.99 480.28 534.25 481.85 535.49 L 340.85 617.41 C 339.28 616.17 337.73 614.91 336.20 613.61" fill="#959595" fill-rule="nonzero" group-id="1,2,7,13,19" node-id="530" stroke="none" target-height="85.71997" target-width="145.65" target-x="336.2" target-y="531.69"></path><path d="M 340.85 617.41 L 481.85 535.49 C 483.40 536.71 484.97 537.91 486.56 539.08 L 345.56 621.00 C 343.97 619.84 342.40 618.64 340.85 617.42" fill="#929292" fill-rule="nonzero" group-id="1,2,7,13,19" node-id="532" stroke="none" target-height="85.51001" target-width="145.70999" target-x="340.85" target-y="535.49"></path><path d="M 345.56 621.00 L 486.56 539.09 C 488.14 540.25 489.73 541.38 491.35 542.49 L 350.35 624.41 C 348.73 623.30 347.14 622.17 345.56 621.00" fill="#8f8f8f" fill-rule="nonzero" group-id="1,2,7,13,19" node-id="534" stroke="none" target-height="85.31995" target-width="145.79001" target-x="345.56" target-y="539.09"></path><path d="M 350.35 624.40 L 491.35 542.48 C 492.95 543.58 494.57 544.65 496.21 545.69 L 355.21 627.61 C 353.57 626.57 351.95 625.50 350.35 624.40" fill="#8b8b8b" fill-rule="nonzero" group-id="1,2,7,13,19" node-id="536" stroke="none" target-height="85.130005" target-width="145.85999" target-x="350.35" target-y="542.48"></path><path d="M 355.21 627.61 L 496.21 545.69 C 497.84 546.73 499.48 547.73 501.15 548.69 L 360.15 630.60 C 358.49 629.62 356.84 628.62 355.21 627.60" fill="#888888" fill-rule="nonzero" group-id="1,2,7,13,19" node-id="538" stroke="none" target-height="84.90997" target-width="145.94" target-x="355.21" target-y="545.69"></path><path d="M 360.15 630.63 L 501.15 548.72 L 502.31 549.39 C 503.50 550.08 504.69 550.75 505.88 551.39 L 364.88 633.30 C 363.70 632.66 362.50 632.00 361.31 631.30 L 360.15 630.63" fill="#858585" fill-rule="nonzero" group-id="1,2,7,13,19" node-id="540" stroke="none" target-height="84.58002" target-width="145.73001" target-x="360.15" target-y="548.72"></path><path d="M 364.88 633.30 L 505.88 551.39 C 507.40 552.21 508.91 552.99 510.40 553.73 L 369.40 635.65 C 367.91 634.91 366.41 634.13 364.88 633.30" fill="#818181" fill-rule="nonzero" group-id="1,2,7,13,19" node-id="542" stroke="none" target-height="84.26001" target-width="145.51999" target-x="364.88" target-y="551.39"></path><path d="M 369.40 635.65 L 510.40 553.73 C 511.88 554.46 513.35 555.16 514.81 555.81 L 373.81 637.72 C 372.35 637.05 370.88 636.36 369.40 635.65" fill="#7e7e7e" fill-rule="nonzero" group-id="1,2,7,13,19" node-id="544" stroke="none" target-height="83.98999" target-width="145.41" target-x="369.4" target-y="553.73"></path><path d="M 373.81 637.72 L 514.81 555.81 C 516.27 556.48 517.71 557.09 519.14 557.65 L 378.14 639.56 C 376.71 638.99 375.27 638.38 373.81 637.72" fill="#7b7b7b" fill-rule="nonzero" group-id="1,2,7,13,19" node-id="546" stroke="none" target-height="83.75" target-width="145.33002" target-x="373.81" target-y="555.81"></path><path d="M 378.14 639.56 L 519.14 557.65 C 520.59 558.22 522.02 558.76 523.44 559.26 L 382.44 641.18 C 381.02 640.68 379.59 640.18 378.14 639.56" fill="#787878" fill-rule="nonzero" group-id="1,2,7,13,19" node-id="548" stroke="none" target-height="83.52997" target-width="145.29999" target-x="378.14" target-y="557.65"></path><path d="M 382.44 641.18 L 523.44 559.26 C 524.90 559.78 526.34 560.26 527.77 560.68 L 386.77 642.60 C 385.34 642.16 383.90 641.69 382.44 641.18" fill="#747474" fill-rule="nonzero" group-id="1,2,7,13,19" node-id="550" stroke="none" target-height="83.339966" target-width="145.33002" target-x="382.44" target-y="559.26"></path><path d="M 386.77 642.60 L 527.77 560.68 C 529.25 561.13 530.71 561.53 532.16 561.89 L 391.16 643.81 C 389.71 643.45 388.25 643.04 386.77 642.60" fill="#717171" fill-rule="nonzero" group-id="1,2,7,13,19" node-id="552" stroke="none" target-height="83.130005" target-width="145.38998" target-x="386.77" target-y="560.68"></path><path d="M 391.16 643.81 L 532.16 561.89 C 533.68 562.27 535.16 562.61 536.67 562.89 L 395.67 644.80 C 394.18 644.51 392.67 644.18 391.16 643.80" fill="#6e6e6e" fill-rule="nonzero" group-id="1,2,7,13,19" node-id="554" stroke="none" target-height="82.90997" target-width="145.50998" target-x="391.16" target-y="561.89"></path><path d="M 395.67 644.81 L 536.67 562.90 C 538.25 563.20 539.82 563.46 541.36 563.67 L 400.36 645.59 C 398.82 645.38 397.25 645.12 395.67 644.81" fill="#6a6a6a" fill-rule="nonzero" group-id="1,2,7,13,19" node-id="556" stroke="none" target-height="82.69" target-width="145.68997" target-x="395.67" target-y="562.9"></path><path d="M 400.36 645.59 L 541.36 563.67 C 543.04 563.90 544.70 564.07 546.36 564.18 L 405.36 646.10 C 403.73 645.98 402.07 645.81 400.36 645.59" fill="#676767" fill-rule="nonzero" group-id="1,2,7,13,19" node-id="558" stroke="none" target-height="82.42999" target-width="146" target-x="400.36" target-y="563.67"></path><path d="M 405.33 646.10 L 546.33 564.18 C 548.14 564.31 549.93 564.37 551.70 564.36 L 410.70 646.28 C 408.93 646.28 407.15 646.22 405.33 646.10" fill="#646464" fill-rule="nonzero" group-id="1,2,7,13,19" node-id="560" stroke="none" target-height="82.10004" target-width="146.37003" target-x="405.33" target-y="564.18"></path><path d="M 410.70 646.28 L 551.70 564.36 C 553.76 564.36 555.80 564.26 557.80 564.08 L 416.80 646.00 C 414.80 646.18 412.77 646.28 410.70 646.29" fill="#606060" fill-rule="nonzero" group-id="1,2,7,13,19" node-id="562" stroke="none" target-height="82.20996" target-width="147.09998" target-x="410.7" target-y="564.08"></path><path d="M 416.80 646.00 L 557.80 564.09 C 560.19 563.88 562.56 563.55 564.91 563.09 L 423.91 645.00 C 421.56 645.45 419.19 645.79 416.80 646.00" fill="#5d5d5d" fill-rule="nonzero" group-id="1,2,7,13,19" node-id="564" stroke="none" target-height="82.90997" target-width="148.10999" target-x="416.8" target-y="563.09"></path><path d="M 423.91 645.00 L 564.91 563.08 C 568.15 562.44 571.35 561.57 574.47 560.47 L 433.47 642.39 C 430.35 643.49 427.15 644.36 423.91 645.00" fill="#5a5a5a" fill-rule="nonzero" group-id="1,2,7,13,19" node-id="566" stroke="none" target-height="84.53003" target-width="150.55997" target-x="423.91" target-y="560.47"></path><path d="M 433.47 642.37 L 574.47 560.45 C 579.01 558.85 583.38 556.83 587.53 554.40 L 446.53 636.32 C 442.38 638.73 438.00 640.74 433.47 642.32" fill="#565656" fill-rule="nonzero" group-id="1,2,7,13,19" node-id="568" stroke="none" target-height="87.96997" target-width="154.06003" target-x="433.47" target-y="554.4"></path><path d="M 573.39 562.59 C 550.72 575.77 522.80 577.59 488.17 557.59 C 420.11 518.29 376.09 427.93 376.39 320.31 C 376.56 260.47 392.18 222.93 417.39 208.25 L 431.49 200.06 C 406.24 214.73 390.62 252.28 390.49 312.12 C 390.18 419.74 434.20 510.12 502.26 549.40 C 536.89 569.40 564.82 567.59 587.48 554.40 L 573.39 562.59" fill="#cf1322" fill-rule="nonzero" group-id="1,2,7,13" node-id="571" stroke="none" target-height="377.53003" target-width="211.38998" target-x="376.09" target-y="200.06"></path><path d="M 559.29 570.79 C 536.62 583.96 508.70 585.79 474.07 565.79 C 406.00 526.48 362.00 436.11 362.29 328.50 C 362.46 268.65 378.08 231.11 403.29 216.44 L 417.39 208.24 C 392.14 222.92 376.52 260.46 376.39 320.30 C 376.09 427.92 420.11 518.30 488.17 557.58 C 522.80 577.58 550.72 575.77 573.39 562.58 L 559.29 570.78" fill="url(#未命名的渐变_15)" fill-rule="nonzero" group-id="1,2,7,13" node-id="573" stroke="none" target-height="377.55" target-width="211.39001" target-x="362" target-y="208.24"></path><path d="M 545.20 579.00 C 522.53 592.17 494.60 594.00 459.98 574.00 C 391.92 534.67 347.89 444.30 348.20 336.69 C 348.37 276.85 363.99 239.30 389.20 224.63 L 403.29 216.44 C 378.04 231.11 362.42 268.65 362.29 328.50 C 361.99 436.11 406.01 526.50 474.07 565.77 C 508.70 585.77 536.62 583.96 559.29 570.77 L 545.20 579.00" fill="#cf1322" fill-rule="nonzero" group-id="1,2,7,13" node-id="575" stroke="none" target-height="377.56" target-width="211.39996" target-x="347.89" target-y="216.44"></path><path d="M 531.10 587.17 C 508.43 600.34 480.51 602.17 445.88 582.17 C 377.82 542.86 333.80 452.50 334.10 344.88 C 334.27 285.04 349.89 247.49 375.10 232.82 L 389.20 224.63 C 363.95 239.30 348.33 276.85 348.20 336.69 C 347.89 444.30 391.92 534.67 460.00 574.00 C 494.62 594.00 522.55 592.19 545.22 579.00 L 531.12 587.19" fill="url(#未命名的渐变_15-2)" fill-rule="nonzero" group-id="1,2,7,13" node-id="577" stroke="none" target-height="377.53998" target-width="211.41998" target-x="333.8" target-y="224.63"></path><path d="M 517.00 595.36 C 494.33 608.53 466.40 610.36 431.78 590.36 C 363.73 551.05 319.70 460.69 320.00 353.07 C 320.17 293.23 335.79 255.68 361.00 241.01 L 375.09 232.82 C 349.84 247.49 334.22 285.04 334.09 344.88 C 333.79 452.50 377.81 542.88 445.87 582.16 C 480.50 602.16 508.42 600.34 531.09 587.16 L 517.00 595.36" fill="#cf1322" fill-rule="nonzero" group-id="1,2,7,13" node-id="579" stroke="none" target-height="377.53998" target-width="211.39001" target-x="319.7" target-y="232.82"></path><path d="M 502.91 603.55 C 480.24 616.72 452.32 618.55 417.69 598.55 C 349.63 559.25 305.61 468.89 305.91 361.27 C 306.08 301.43 321.70 263.88 346.91 249.21 L 361.01 241.02 C 335.76 255.69 320.14 293.24 320.01 353.08 C 319.70 460.70 363.73 551.08 431.79 590.36 C 466.41 610.36 494.34 608.54 517.01 595.36 L 502.91 603.55" fill="url(#未命名的渐变_15-3)" fill-rule="nonzero" group-id="1,2,7,13" node-id="581" stroke="none" target-height="377.52997" target-width="211.40002" target-x="305.61" target-y="241.02"></path><path d="M 488.81 611.74 C 466.15 624.92 438.22 626.74 403.59 606.74 C 335.53 567.44 291.51 477.08 291.81 369.46 C 291.98 309.62 307.61 272.08 332.81 257.40 L 347.00 249.20 C 321.75 263.87 306.13 301.42 306.00 361.26 C 305.70 468.88 349.72 559.26 417.78 598.54 C 452.41 618.54 480.33 616.72 503.00 603.54 L 488.90 611.73" fill="#cf1322" fill-rule="nonzero" group-id="1,2,7,13" node-id="583" stroke="none" target-height="377.53998" target-width="211.48999" target-x="291.51" target-y="249.2"></path><path d="M 474.72 619.93 C 452.05 633.11 424.12 634.93 389.50 614.93 C 321.44 575.64 277.42 485.27 277.72 377.65 C 277.89 317.81 293.51 280.27 318.72 265.59 L 332.81 257.40 C 307.57 272.08 291.94 309.62 291.81 369.46 C 291.51 477.08 335.53 567.46 403.59 606.74 C 438.22 626.74 466.15 624.93 488.81 611.74 L 474.72 619.93" fill="url(#未命名的渐变_15-4)" fill-rule="nonzero" group-id="1,2,7,13" node-id="585" stroke="none" target-height="377.53" target-width="211.38998" target-x="277.42" target-y="257.4"></path><path d="M 460.62 628.13 C 437.95 641.30 410.03 643.13 375.40 623.13 C 307.34 583.84 263.32 493.48 263.62 385.86 C 263.79 326.02 279.41 288.47 304.62 273.80 L 318.72 265.60 C 293.47 280.28 277.85 317.82 277.72 377.66 C 277.42 485.28 321.44 575.66 389.50 614.94 C 424.12 634.94 452.05 633.13 474.72 619.94 L 460.62 628.14" fill="#cf1322" fill-rule="nonzero" group-id="1,2,7,13" node-id="587" stroke="none" target-height="377.53" target-width="211.4" target-x="263.32" target-y="265.6"></path><path d="M 446.53 636.32 C 423.86 649.49 395.93 651.32 361.31 631.32 C 293.25 592.00 249.22 501.65 249.53 394.00 C 249.70 334.16 265.32 296.61 290.53 281.94 L 304.62 273.75 C 279.37 288.42 263.75 325.97 263.62 385.81 C 263.32 493.43 307.34 583.81 375.40 623.08 C 410.03 643.08 437.95 641.27 460.62 628.08 L 446.53 636.27" fill="url(#未命名的渐变_15-5)" fill-rule="nonzero" group-id="1,2,7,13" node-id="589" stroke="none" target-height="377.57" target-width="211.4" target-x="249.22" target-y="273.75"></path></g></g><path d="M 450.45 633.89 L 591.41 551.98 L 636.61 639.67 L 495.65 721.59 L 450.45 633.89 Z" fill="#a3a3a3" fill-rule="nonzero" group-id="1,2" node-id="593" stroke="none" target-height="169.61005" target-width="186.15997" target-x="450.45" target-y="551.98"></path><g clip-path="url(#clip-path-3)" group-id="1,2,8" node-id="597"><path d="M 636.61 639.67 L 591.41 551.98 L 577.31 560.17 L 622.51 647.86 L 636.61 639.67" fill="#ff4d4f" fill-rule="nonzero" group-id="1,2,8,14" node-id="599" stroke="none" target-height="95.880005" target-width="59.299988" target-x="577.31" target-y="551.98"></path><path d="M 622.51 647.86 L 577.31 560.17 L 563.21 568.36 L 608.41 656.05 L 622.51 647.86" fill="#ffffff" fill-rule="nonzero" group-id="1,2,8,14" node-id="601" stroke="none" target-height="95.880005" target-width="59.299988" target-x="563.21" target-y="560.17"></path><path d="M 608.41 656.05 L 563.21 568.36 L 549.12 576.55 L 594.32 664.24 L 608.41 656.05" fill="#ff4d4f" fill-rule="nonzero" group-id="1,2,8,14" node-id="603" stroke="none" target-height="95.880005" target-width="59.289978" target-x="549.12" target-y="568.36"></path><path d="M 594.32 664.24 L 549.12 576.55 L 535.02 584.75 L 580.22 672.44 L 594.32 664.24" fill="#ffffff" fill-rule="nonzero" group-id="1,2,8,14" node-id="605" stroke="none" target-height="95.890015" target-width="59.299988" target-x="535.02" target-y="576.55"></path><path d="M 580.22 672.44 L 535.02 584.75 L 520.93 592.94 L 566.13 680.63 L 580.22 672.44" fill="#ff4d4f" fill-rule="nonzero" group-id="1,2,8,14" node-id="607" stroke="none" target-height="95.880005" target-width="59.289978" target-x="520.93" target-y="584.75"></path><path d="M 566.13 680.63 L 520.93 592.94 L 506.83 601.13 L 552.03 688.82 L 566.13 680.63" fill="#ffffff" fill-rule="nonzero" group-id="1,2,8,14" node-id="609" stroke="none" target-height="95.880005" target-width="59.30002" target-x="506.83" target-y="592.94"></path><path d="M 552.03 688.82 L 506.83 601.13 L 492.74 609.32 L 537.94 697.01 L 552.03 688.82" fill="#ff4d4f" fill-rule="nonzero" group-id="1,2,8,14" node-id="611" stroke="none" target-height="95.880005" target-width="59.29004" target-x="492.74" target-y="601.13"></path><path d="M 537.94 697.01 L 492.74 609.32 L 478.64 617.51 L 523.84 705.20 L 537.94 697.01" fill="#ffffff" fill-rule="nonzero" group-id="1,2,8,14" node-id="613" stroke="none" target-height="95.880005" target-width="59.299988" target-x="478.64" target-y="609.32"></path><path d="M 523.84 705.20 L 478.64 617.51 L 464.54 625.70 L 509.74 713.39 L 523.84 705.20" fill="#ff4d4f" fill-rule="nonzero" group-id="1,2,8,14" node-id="615" stroke="none" target-height="95.880005" target-width="59.30002" target-x="464.54" target-y="617.51"></path><path d="M 509.74 713.39 L 464.54 625.70 L 450.45 633.89 L 495.65 721.59 L 509.74 713.39" fill="#ffffff" fill-rule="nonzero" group-id="1,2,8,14" node-id="617" stroke="none" target-height="95.890015" target-width="59.289978" target-x="450.45" target-y="625.7"></path></g><g clip-path="url(#clip-path-4)" group-id="1,2,9" node-id="623"><path d="M 224.57 188.49 L 365.57 106.57 C 370.34 103.78 375.36 101.43 380.57 99.57 L 239.57 181.49 C 234.36 183.35 229.34 185.70 224.57 188.49" fill="#565656" fill-rule="nonzero" group-id="1,2,9,15,20" node-id="627" stroke="none" target-height="88.920006" target-width="156" target-x="224.57" target-y="99.57"></path><path d="M 239.60 181.52 L 380.60 99.60 C 384.86 98.09 389.22 96.88 393.65 96.00 L 252.65 177.91 C 248.21 178.80 243.83 180.01 239.56 181.53" fill="#5a5a5a" fill-rule="nonzero" group-id="1,2,9,15,20" node-id="629" stroke="none" target-height="85.53" target-width="154.09" target-x="239.56" target-y="96"></path><path d="M 252.69 177.90 L 393.65 96.00 C 397.20 95.28 400.78 94.76 404.38 94.44 L 263.38 176.35 C 259.78 176.68 256.20 177.20 252.65 177.91" fill="#5d5d5d" fill-rule="nonzero" group-id="1,2,9,15,20" node-id="631" stroke="none" target-height="83.47" target-width="151.73001" target-x="252.65" target-y="94.44"></path><path d="M 263.42 176.34 L 404.42 94.43 C 407.61 94.13 410.86 93.98 414.16 93.96 L 273.16 175.88 C 269.86 175.88 266.61 176.05 263.42 176.34" fill="#606060" fill-rule="nonzero" group-id="1,2,9,15,20" node-id="633" stroke="none" target-height="82.38" target-width="150.73999" target-x="263.42" target-y="93.96"></path><path d="M 273.16 175.88 L 414.12 94.00 C 417.04 94.00 420.00 94.10 422.99 94.30 L 282.00 176.17 C 279.01 175.97 276.06 175.87 273.13 175.88" fill="#646464" fill-rule="nonzero" group-id="1,2,9,15,20" node-id="635" stroke="none" target-height="82.17" target-width="149.85999" target-x="273.13" target-y="94"></path><path d="M 282.00 176.17 L 423.00 94.26 C 425.81 94.45 428.64 94.74 431.51 95.13 L 290.54 177.00 C 287.68 176.62 284.84 176.33 282.03 176.13" fill="#676767" fill-rule="nonzero" group-id="1,2,9,15,20" node-id="637" stroke="none" target-height="82.74" target-width="149.51001" target-x="282" target-y="94.26"></path><path d="M 290.54 177.00 L 431.54 95.09 C 434.30 95.46 437.09 95.92 439.90 96.47 L 298.90 178.38 C 296.09 177.83 293.30 177.37 290.54 177.00" fill="#6a6a6a" fill-rule="nonzero" group-id="1,2,9,15,20" node-id="639" stroke="none" target-height="83.29001" target-width="149.35999" target-x="290.54" target-y="95.09"></path><path d="M 298.90 178.42 L 439.90 96.51 C 442.56 97.02 445.24 97.62 447.90 98.29 L 306.90 180.21 C 304.20 179.53 301.52 178.94 298.90 178.42" fill="#6e6e6e" fill-rule="nonzero" group-id="1,2,9,15,20" node-id="641" stroke="none" target-height="83.700005" target-width="149" target-x="298.9" target-y="96.51"></path><path d="M 306.94 180.21 L 447.94 98.29 C 450.61 98.96 453.31 99.70 456.04 100.53 L 315.00 182.45 C 312.28 181.62 309.58 180.88 306.90 180.21" fill="#717171" fill-rule="nonzero" group-id="1,2,9,15,20" node-id="643" stroke="none" target-height="84.159996" target-width="149.14001" target-x="306.9" target-y="98.29"></path><path d="M 315.00 182.45 L 456.00 100.53 C 458.64 101.33 461.29 102.20 464.00 103.14 L 323.00 185.05 C 320.32 184.11 317.67 183.24 315.00 182.45" fill="#747474" fill-rule="nonzero" group-id="1,2,9,15,20" node-id="645" stroke="none" target-height="84.520004" target-width="149" target-x="315" target-y="100.53"></path><path d="M 323.00 185.05 L 464.00 103.14 C 466.67 104.08 469.35 105.08 472.06 106.14 L 331.06 188.06 C 328.36 186.98 325.67 185.96 323.00 185.06" fill="#787878" fill-rule="nonzero" group-id="1,2,9,15,20" node-id="647" stroke="none" target-height="84.92" target-width="149.06" target-x="323" target-y="103.14"></path><path d="M 331.07 188.09 L 472.07 106.17 C 474.77 107.25 477.48 108.40 480.20 109.62 L 339.20 191.54 C 336.48 190.32 333.77 189.17 331.07 188.09" fill="#7b7b7b" fill-rule="nonzero" group-id="1,2,9,15,20" node-id="649" stroke="none" target-height="85.369995" target-width="149.13" target-x="331.07" target-y="106.17"></path><path d="M 339.20 191.54 L 480.20 109.62 C 482.94 110.85 485.68 112.14 488.45 113.51 L 347.45 195.43 C 344.69 194.06 341.94 192.76 339.20 191.54" fill="#7e7e7e" fill-rule="nonzero" group-id="1,2,9,15,20" node-id="651" stroke="none" target-height="85.80999" target-width="149.25" target-x="339.2" target-y="109.62"></path><path d="M 347.45 195.43 L 488.45 113.51 C 491.26 114.90 494.09 116.36 496.94 117.91 L 355.94 199.82 C 353.09 198.28 350.26 196.82 347.45 195.43" fill="#818181" fill-rule="nonzero" group-id="1,2,9,15,20" node-id="653" stroke="none" target-height="86.310005" target-width="149.48999" target-x="347.45" target-y="113.51"></path><path d="M 355.94 199.82 L 496.94 117.91 C 499.12 119.09 501.32 120.32 503.52 121.59 L 362.52 203.51 C 360.32 202.24 358.12 201.01 355.94 199.82" fill="#858585" fill-rule="nonzero" group-id="1,2,9,15,20" node-id="655" stroke="none" target-height="85.59999" target-width="147.57999" target-x="355.94" target-y="117.91"></path><path d="M 489.38 129.78 C 449.69 108.62 403.02 88.26 351.43 114.78 L 365.52 106.59 C 401.79 85.52 450.60 91.08 503.52 121.59 L 489.43 129.78" fill="#cf1322" fill-rule="nonzero" group-id="1,2,9,15" node-id="658" stroke="none" target-height="44.260002" target-width="152.09" target-x="351.43" target-y="85.52"></path><path d="M 475.28 138.00 C 422.41 107.48 373.59 101.91 337.33 123.00 L 351.43 114.80 C 386.43 97.72 423.23 93.73 489.43 129.80 L 475.28 138.00" fill="url(#未命名的渐变_15-6)" fill-rule="nonzero" group-id="1,2,9,15" node-id="660" stroke="none" target-height="44.269997" target-width="152.1" target-x="337.33" target-y="93.73"></path><path d="M 461.19 146.16 C 408.31 115.64 359.50 110.07 323.24 131.16 L 337.33 123.00 C 373.59 101.92 422.41 107.49 475.33 138.00 L 461.24 146.19" fill="#cf1322" fill-rule="nonzero" group-id="1,2,9,15" node-id="662" stroke="none" target-height="44.270004" target-width="152.09" target-x="323.24" target-y="101.92"></path><path d="M 447.09 154.36 C 394.22 123.83 345.40 118.27 309.14 139.36 L 323.24 131.17 C 359.50 110.09 408.31 115.66 461.24 146.17 L 447.14 154.37" fill="url(#未命名的渐变_15-7)" fill-rule="nonzero" group-id="1,2,9,15" node-id="664" stroke="none" target-height="44.28" target-width="152.09998" target-x="309.14" target-y="110.09"></path><path d="M 433.00 162.55 C 380.12 132.02 331.31 126.46 295.05 147.55 L 309.14 139.36 C 345.40 118.29 394.22 123.85 447.14 154.36 L 433.00 162.55" fill="#cf1322" fill-rule="nonzero" group-id="1,2,9,15" node-id="666" stroke="none" target-height="44.260002" target-width="152.09003" target-x="295.05" target-y="118.29"></path><path d="M 418.90 170.74 C 366.00 140.21 317.21 134.65 281.00 155.72 L 295.10 147.53 C 331.36 126.46 380.17 132.02 433.10 162.53 L 419.00 170.72" fill="url(#未命名的渐变_15-8)" fill-rule="nonzero" group-id="1,2,9,15" node-id="668" stroke="none" target-height="44.280006" target-width="152.1" target-x="281" target-y="126.46"></path><path d="M 404.80 178.93 C 351.93 148.41 303.12 142.84 266.85 163.93 L 280.95 155.74 C 317.21 134.67 366.03 140.23 418.95 170.74 L 404.85 178.93" fill="#cf1322" fill-rule="nonzero" group-id="1,2,9,15" node-id="670" stroke="none" target-height="44.259995" target-width="152.1" target-x="266.85" target-y="134.67"></path><path d="M 390.71 187.12 C 351.00 166.00 304.35 145.60 252.76 172.11 L 266.85 163.91 C 303.12 142.84 351.93 148.41 404.85 178.91 L 390.76 187.10" fill="url(#未命名的渐变_15-9)" fill-rule="nonzero" group-id="1,2,9,15" node-id="672" stroke="none" target-height="44.28" target-width="152.09001" target-x="252.76" target-y="142.84"></path><path d="M 376.61 195.31 C 323.74 164.79 274.92 159.22 238.61 180.31 L 252.71 172.12 C 287.71 155.03 324.51 151.04 390.71 187.12 L 376.61 195.31" fill="#cf1322" fill-rule="nonzero" group-id="1,2,9,15" node-id="674" stroke="none" target-height="44.270004" target-width="152.09999" target-x="238.61" target-y="151.04"></path><path d="M 362.52 203.51 C 309.64 172.98 260.83 167.42 224.57 188.51 L 238.66 180.32 C 274.92 159.24 323.74 164.81 376.66 195.32 L 362.57 203.52" fill="url(#未命名的渐变_15-10)" fill-rule="nonzero" group-id="1,2,9,15" node-id="676" stroke="none" target-height="44.28" target-width="152.09" target-x="224.57" target-y="159.24"></path></g><path d="M 488.58 339.89 L 629.54 257.97 L 583.98 294.61 L 443.02 376.53 L 488.58 339.89 Z" fill="#535353" fill-rule="nonzero" group-id="1,2" node-id="680" stroke="none" target-height="118.56" target-width="186.51999" target-x="443.02" target-y="257.97"></path><g clip-path="url(#clip-path-5)" group-id="1,2,10" node-id="684"><path d="M 583.98 294.61 L 629.53 257.97 L 615.44 266.16 L 569.89 302.80 L 583.98 294.61" fill="#cf1322" fill-rule="nonzero" group-id="1,2,10,16" node-id="686" stroke="none" target-height="44.829987" target-width="59.640015" target-x="569.89" target-y="257.97"></path><path d="M 569.89 302.80 L 615.44 266.16 L 601.34 274.36 L 555.79 310.99 L 569.89 302.80" fill="#ffffff" fill-rule="nonzero" group-id="1,2,10,16" node-id="688" stroke="none" target-height="44.829987" target-width="59.650024" target-x="555.79" target-y="266.16"></path><path d="M 555.79 310.99 L 601.34 274.36 L 587.25 282.55 L 541.70 319.19 L 555.79 310.99" fill="#cf1322" fill-rule="nonzero" group-id="1,2,10,16" node-id="690" stroke="none" target-height="44.830017" target-width="59.640015" target-x="541.7" target-y="274.36"></path><path d="M 541.70 319.19 L 587.25 282.55 L 573.15 290.74 L 527.60 327.38 L 541.70 319.19" fill="#ffffff" fill-rule="nonzero" group-id="1,2,10,16" node-id="692" stroke="none" target-height="44.830017" target-width="59.650024" target-x="527.6" target-y="282.55"></path><path d="M 527.60 327.38 L 573.15 290.74 L 559.06 298.93 L 513.50 335.57 L 527.60 327.38" fill="#cf1322" fill-rule="nonzero" group-id="1,2,10,16" node-id="694" stroke="none" target-height="44.830017" target-width="59.650024" target-x="513.5" target-y="290.74"></path><path d="M 513.50 335.57 L 559.06 298.93 L 544.96 307.12 L 499.41 343.76 L 513.50 335.57" fill="#ffffff" fill-rule="nonzero" group-id="1,2,10,16" node-id="696" stroke="none" target-height="44.830017" target-width="59.649994" target-x="499.41" target-y="298.93"></path><path d="M 499.41 343.76 L 544.96 307.12 L 530.86 315.31 L 485.31 351.95 L 499.41 343.76" fill="#cf1322" fill-rule="nonzero" group-id="1,2,10,16" node-id="698" stroke="none" target-height="44.830017" target-width="59.650024" target-x="485.31" target-y="307.12"></path><path d="M 485.31 351.95 L 530.86 315.31 L 516.77 323.50 L 471.22 360.14 L 485.31 351.95" fill="#ffffff" fill-rule="nonzero" group-id="1,2,10,16" node-id="700" stroke="none" target-height="44.830017" target-width="59.639984" target-x="471.22" target-y="315.31"></path><path d="M 471.22 360.14 L 516.77 323.50 L 502.67 331.70 L 457.12 368.34 L 471.22 360.14" fill="#cf1322" fill-rule="nonzero" group-id="1,2,10,16" node-id="702" stroke="none" target-height="44.839996" target-width="59.650024" target-x="457.12" target-y="323.5"></path><path d="M 457.12 368.34 L 502.67 331.70 L 488.58 339.89 L 443.02 376.53 L 457.12 368.34" fill="#ffffff" fill-rule="nonzero" group-id="1,2,10,16" node-id="704" stroke="none" target-height="44.829987" target-width="59.650024" target-x="443.02" target-y="331.7"></path></g><g clip-path="url(#clip-path-6)" group-id="1,2,11" node-id="710"><path d="M 362.52 203.51 L 503.52 121.59 L 505.16 122.59 L 364.16 204.50 L 362.52 203.50" fill="#858585" fill-rule="nonzero" group-id="1,2,11,17,21" node-id="714" stroke="none" target-height="82.91" target-width="142.64001" target-x="362.52" target-y="121.59"></path><path d="M 364.16 204.46 L 505.16 122.55 C 507.53 123.94 509.87 125.37 512.16 126.86 L 371.21 208.78 C 368.88 207.30 366.55 205.86 364.21 204.46" fill="#888888" fill-rule="nonzero" group-id="1,2,11,17,21" node-id="716" stroke="none" target-height="86.229996" target-width="147.99997" target-x="364.16" target-y="122.55"></path><path d="M 371.21 208.78 L 512.21 126.86 C 514.60 128.38 516.96 129.94 519.30 131.54 L 378.30 213.46 C 375.96 211.85 373.60 210.29 371.22 208.78" fill="#8b8b8b" fill-rule="nonzero" group-id="1,2,11,17,21" node-id="718" stroke="none" target-height="86.600006" target-width="148.09" target-x="371.21" target-y="126.86"></path><path d="M 378.29 213.46 L 519.29 131.54 C 521.72 133.21 524.13 134.93 526.52 136.68 L 385.52 218.59 C 383.13 216.84 380.72 215.12 378.29 213.46" fill="#8f8f8f" fill-rule="nonzero" group-id="1,2,11,17,21" node-id="720" stroke="none" target-height="87.05" target-width="148.23001" target-x="378.29" target-y="131.54"></path><path d="M 385.52 218.59 L 526.52 136.68 C 529.00 138.50 531.45 140.37 533.88 142.29 L 392.88 224.20 C 390.45 222.29 388.00 220.42 385.52 218.59" fill="#929292" fill-rule="nonzero" group-id="1,2,11,17,21" node-id="722" stroke="none" target-height="87.520004" target-width="148.36002" target-x="385.52" target-y="136.68"></path><path d="M 392.88 224.20 L 533.88 142.29 C 536.40 144.29 538.89 146.32 541.35 148.39 L 400.35 230.31 C 397.89 228.23 395.40 226.19 392.88 224.20" fill="#959595" fill-rule="nonzero" group-id="1,2,11,17,21" node-id="724" stroke="none" target-height="88.020004" target-width="148.46997" target-x="392.88" target-y="142.29"></path><path d="M 400.35 230.31 L 541.35 148.39 C 543.90 150.54 546.42 152.73 548.89 154.96 L 407.89 236.88 C 405.41 234.65 402.89 232.45 400.35 230.31" fill="#999999" fill-rule="nonzero" group-id="1,2,11,17,21" node-id="726" stroke="none" target-height="88.490005" target-width="148.54001" target-x="400.35" target-y="148.39"></path><path d="M 407.89 236.88 L 548.89 154.96 C 551.42 157.24 553.91 159.57 556.37 161.96 L 415.37 243.87 C 412.91 241.51 410.42 239.18 407.89 236.87" fill="#9c9c9c" fill-rule="nonzero" group-id="1,2,11,17,21" node-id="728" stroke="none" target-height="88.90999" target-width="148.47998" target-x="407.89" target-y="154.96"></path><path d="M 415.37 243.84 L 556.37 161.93 C 558.85 164.30 561.29 166.71 563.68 169.15 L 422.68 251.07 C 420.28 248.62 417.84 246.21 415.37 243.84" fill="#9f9f9f" fill-rule="nonzero" group-id="1,2,11,17,21" node-id="730" stroke="none" target-height="89.140015" target-width="148.31" target-x="415.37" target-y="161.93"></path><path d="M 422.68 251.07 L 563.68 169.15 C 566.07 171.59 568.42 174.06 570.73 176.55 L 429.73 258.46 C 427.42 255.97 425.07 253.51 422.68 251.07" fill="#a3a3a3" fill-rule="nonzero" group-id="1,2,11,17,21" node-id="732" stroke="none" target-height="89.31" target-width="148.04999" target-x="422.68" target-y="169.15"></path><path d="M 429.73 258.46 L 570.73 176.55 C 573.07 179.06 575.37 181.60 577.62 184.18 L 436.62 266.10 C 434.36 263.53 432.06 260.98 429.73 258.46" fill="#a6a6a6" fill-rule="nonzero" group-id="1,2,11,17,21" node-id="734" stroke="none" target-height="89.55" target-width="147.88998" target-x="429.73" target-y="176.55"></path><path d="M 436.62 266.10 L 577.62 184.18 C 579.92 186.80 582.18 189.45 584.40 192.12 L 443.40 274.00 C 441.18 271.33 438.92 268.69 436.62 266.07" fill="#b1b1b1" fill-rule="nonzero" group-id="1,2,11,17,21" node-id="736" stroke="none" target-height="89.82001" target-width="147.78003" target-x="436.62" target-y="184.18"></path><path d="M 443.40 274.00 L 584.40 192.09 C 586.77 194.93 589.10 197.79 591.40 200.68 L 450.40 282.60 C 448.13 279.71 445.79 276.85 443.40 274.00" fill="#b5b5b5" fill-rule="nonzero" group-id="1,2,11,17,21" node-id="738" stroke="none" target-height="90.51001" target-width="148.00003" target-x="443.4" target-y="192.09"></path><path d="M 450.36 282.63 L 591.36 200.71 C 593.98 204.05 596.55 207.41 599.04 210.78 L 458.05 292.70 C 455.55 289.32 452.99 285.96 450.36 282.63" fill="#b8b8b8" fill-rule="nonzero" group-id="1,2,11,17,21" node-id="740" stroke="none" target-height="91.990005" target-width="148.68" target-x="450.36" target-y="200.71"></path><path d="M 458.05 292.70 L 599.05 210.78 C 602.73 215.75 606.27 220.75 609.66 225.78 L 468.66 307.70 C 465.27 302.69 461.74 297.69 458.06 292.70" fill="#bbbbbb" fill-rule="nonzero" group-id="1,2,11,17,21" node-id="742" stroke="none" target-height="96.92001" target-width="151.60999" target-x="458.05" target-y="210.78"></path><path d="M 468.65 307.67 L 609.65 225.75 C 615.53 234.42 620.98 243.11 625.97 251.67 L 485.00 333.58 C 480.00 325.03 474.56 316.34 468.68 307.67" fill="#bebebe" fill-rule="nonzero" group-id="1,2,11,17,21" node-id="744" stroke="none" target-height="107.82999" target-width="157.31998" target-x="468.65" target-y="225.75"></path><path d="M 485.00 333.58 L 626.00 251.67 C 627.23 253.78 628.44 255.88 629.61 257.97 L 488.61 339.89 C 487.43 337.80 486.23 335.69 485.00 333.58" fill="#bbbbbb" fill-rule="nonzero" group-id="1,2,11,17,21" node-id="746" stroke="none" target-height="88.22002" target-width="144.60999" target-x="485" target-y="251.67"></path><path d="M 629.53 258.00 C 601.70 208.46 558.16 153.19 503.53 121.62 L 489.43 129.81 C 544.12 161.39 587.66 216.65 615.49 266.19 L 629.53 258.00" fill="url(#未命名的渐变_17)" fill-rule="nonzero" group-id="1,2,11,17" node-id="749" stroke="none" target-height="144.57" target-width="140.10004" target-x="489.43" target-y="121.62"></path><path d="M 615.44 266.16 C 587.61 216.62 544.07 161.36 489.38 129.78 L 475.29 138.00 C 529.97 169.57 573.51 224.83 601.34 274.37 L 615.44 266.18" fill="#ffffff" fill-rule="nonzero" group-id="1,2,11,17" node-id="751" stroke="none" target-height="144.59" target-width="140.15" target-x="475.29" target-y="129.78"></path><path d="M 601.34 274.35 C 573.51 224.81 530.00 169.55 475.29 138.00 L 461.19 146.19 C 515.88 177.76 559.42 233.03 587.25 282.57 L 601.34 274.37" fill="url(#未命名的渐变_17-2)" fill-rule="nonzero" group-id="1,2,11,17" node-id="753" stroke="none" target-height="144.57" target-width="140.15002" target-x="461.19" target-y="138"></path><path d="M 587.25 282.55 C 559.42 233.00 515.88 177.74 461.19 146.17 L 447.09 154.36 C 501.78 185.93 545.32 241.20 573.15 290.74 L 587.25 282.55" fill="#ffffff" fill-rule="nonzero" group-id="1,2,11,17" node-id="755" stroke="none" target-height="144.56999" target-width="140.16" target-x="447.09" target-y="146.17"></path><path d="M 573.15 290.74 C 545.32 241.20 501.78 185.93 447.09 154.36 L 433.00 162.55 C 487.68 194.12 531.22 249.39 559.06 298.93 L 573.15 290.74" fill="url(#未命名的渐变_17-3)" fill-rule="nonzero" group-id="1,2,11,17" node-id="757" stroke="none" target-height="144.56999" target-width="140.15002" target-x="433" target-y="154.36"></path><path d="M 559.06 298.93 C 531.22 249.39 487.68 194.12 433.00 162.55 L 418.91 170.74 C 473.59 202.31 517.13 257.58 544.96 307.12 L 559.06 298.93" fill="#ffffff" fill-rule="nonzero" group-id="1,2,11,17" node-id="759" stroke="none" target-height="144.56999" target-width="140.15" target-x="418.91" target-y="162.55"></path><path d="M 545.00 307.12 C 517.17 257.58 473.63 202.31 419.00 170.74 L 404.90 178.93 C 459.58 210.51 503.12 265.77 530.95 315.31 L 545.05 307.12" fill="url(#未命名的渐变_17-4)" fill-rule="nonzero" group-id="1,2,11,17" node-id="761" stroke="none" target-height="144.56999" target-width="140.15" target-x="404.9" target-y="170.74"></path><path d="M 530.86 315.31 C 503.03 265.77 459.49 210.51 404.86 178.93 L 390.76 187.12 C 445.40 218.70 488.94 274.00 516.77 323.50 L 530.86 315.31" fill="#ffffff" fill-rule="nonzero" group-id="1,2,11,17" node-id="763" stroke="none" target-height="144.57" target-width="140.09998" target-x="390.76" target-y="178.93"></path><path d="M 516.77 323.50 C 488.94 274.00 445.40 218.70 390.71 187.12 L 376.62 195.32 C 431.30 226.89 474.84 282.16 502.67 331.70 L 516.77 323.50" fill="url(#未命名的渐变_17-5)" fill-rule="nonzero" group-id="1,2,11,17" node-id="765" stroke="none" target-height="144.58002" target-width="140.15002" target-x="376.62" target-y="187.12"></path><path d="M 502.67 331.70 C 474.84 282.16 431.30 226.89 376.67 195.32 L 362.57 203.51 C 417.25 235.08 460.80 290.35 488.63 339.89 L 502.72 331.70" fill="#ffffff" fill-rule="nonzero" group-id="1,2,11,17" node-id="767" stroke="none" target-height="144.57" target-width="140.15" target-x="362.57" target-y="195.32"></path></g><path d="M 362.52 203.51 C 417.20 235.08 460.75 290.35 488.58 339.89 L 443.00 376.53 C 421.55 340.04 396.58 308.21 364.00 289.41 C 298.84 251.79 249.80 287.74 249.50 394.03 C 249.19 501.65 293.22 592.03 361.28 631.30 C 397.92 652.46 427.07 649.21 450.42 633.89 L 495.62 721.59 C 460.00 748.59 413.97 747.42 358.13 715.18 C 249.35 652.38 161.13 511.76 161.65 346.66 C 162.14 183.55 253.74 140.70 362.52 203.51 Z" fill="url(#未命名的渐变_7)" fill-rule="nonzero" group-id="1,2" node-id="771" stroke="none" target-height="607.89" target-width="334.49" target-x="161.13" target-y="140.7"></path></g><path d="M 403.10 536.55 C 403.10 536.55 396.10 537.00 401.10 527.09 C 406.10 517.18 408.99 513.80 406.73 504.56 C 404.47 495.32 412.36 479.79 422.05 482.26 C 431.74 484.73 439.85 494.88 439.85 499.16 C 439.85 503.44 443.00 523.04 435.12 531.16 C 427.24 539.28 403.10 536.55 403.10 536.55 Z" fill="#2b304f" fill-rule="nonzero" group-id="1" node-id="774" stroke="none" target-height="59.49002" target-width="46.899994" target-x="396.1" target-y="479.79"></path><path d="M 397.92 555.25 C 397.92 555.25 400.40 523.37 415.49 517.63 C 429.49 517.63 438.13 520.22 445.79 552.88 C 402.54 558.07 397.92 555.25 397.92 555.25 Z" fill="#da4147" fill-rule="nonzero" group-id="1" node-id="776" stroke="none" target-height="40.440002" target-width="47.869995" target-x="397.92" target-y="517.63"></path><path d="M 393.56 551.72 L 448.23 551.72 L 443.27 586.86 L 420.89 591.37 L 397.92 587.76 L 393.56 551.72 Z" fill="#fcee21" fill-rule="nonzero" group-id="1" node-id="778" stroke="none" target-height="39.650024" target-width="54.670013" target-x="393.56" target-y="551.72"></path><path d="M 415.71 500.40 C 415.71 500.40 408.62 499.40 413.01 505.80 C 417.40 512.20 418.51 513.29 417.85 517.63 C 416.95 523.63 423.49 528.78 426.19 522.14 C 426.53 515.49 427.54 513.14 428.33 511.89 C 429.12 510.64 434.52 505.47 434.52 505.47 C 434.52 505.47 435.93 498.31 431.52 502.20 C 429.12 504.26 419.66 508.51 415.71 500.40 Z" fill="#ffccc7" fill-rule="nonzero" group-id="1" node-id="780" stroke="none" target-height="30.470032" target-width="27.309998" target-x="408.62" target-y="498.31"></path><path d="M 442.16 567.19 L 446.49 567.19 C 447.16 567.19 447.71 567.74 447.71 568.41 L 447.71 575.34 C 447.71 576.19 447.02 576.88 446.17 576.88 L 442.17 576.88 C 441.50 576.88 440.95 576.33 440.95 575.66 L 440.95 568.40 C 440.95 567.73 441.50 567.18 442.17 567.18 Z" fill="#ffccc7" fill-rule="nonzero" group-id="1" node-id="782" stroke="none" target-height="9.700012" target-width="6.7599792" target-x="440.95" target-y="567.18"></path><path d="M 398.05 575.52 L 394.05 575.52 L 393.45 575.40 L 392.96 575.07 L 392.63 574.58 L 392.51 573.98 L 392.51 567.05 L 392.61 566.57 L 392.87 566.19 L 393.25 565.93 L 393.73 565.83 L 398.06 565.83 L 398.54 565.93 L 398.92 566.19 L 399.18 566.57 L 399.28 567.05 L 399.28 574.31 L 399.18 574.78 L 398.92 575.17 L 398.52 575.43 L 398.05 575.52 Z" fill="#ffccc7" fill-rule="nonzero" group-id="1,3" node-id="786" stroke="none" target-height="9.690002" target-width="6.769989" target-x="392.51004" target-y="565.82996"></path><path d="M 400.17 584.91 L 374.00 579.35 C 374.00 579.35 358.83 581.16 366.34 592.12 C 376.59 598.88 411.00 621.00 411.00 621.00 L 431.43 612.59 C 431.43 612.59 470.02 587.36 470.17 586.91 C 470.32 586.46 479.31 571.00 462.64 572.00 C 462.64 571.81 432.16 584.58 432.16 584.58 Z" fill="#2c3154" fill-rule="nonzero" group-id="1" node-id="789" stroke="none" target-height="50" target-width="120.48001" target-x="358.83" target-y="571"></path><path d="M 411.43 621.66 C 411.43 621.66 410.76 617.15 413.57 616.82 C 416.38 616.49 426.64 611.07 426.64 611.07 C 426.64 611.07 430.47 610.73 428.44 616.37 C 427.58 618.69 426.53 620.94 425.28 623.08 C 424.14 625.02 421.75 625.83 419.67 624.99 Z" fill="#ffa34e" fill-rule="nonzero" group-id="1" node-id="791" stroke="none" target-height="15.104492" target-width="19.709991" target-x="410.76" target-y="610.73"></path><path d="M 394.20 609.77 C 394.20 609.77 387.20 615.77 390.37 617.54 C 393.54 619.31 405.46 616.86 405.46 616.86 Z" fill="#ffa34e" fill-rule="nonzero" group-id="1" node-id="793" stroke="none" target-height="9.539978" target-width="18.25998" target-x="387.2" target-y="609.77"></path><path d="M 435.49 136.10 L 435.41 161.37 L 411.40 175.32 L 411.48 150.05 L 435.49 136.10 Z" fill="#ffffff" fill-rule="nonzero" group-id="1,4" node-id="797" stroke="none" target-height="39.22" target-width="24.089996" target-x="411.4" target-y="136.1"></path><path d="M 411.48 150.05 L 411.40 175.32 L 387.24 161.37 L 387.31 136.10 L 411.48 150.05 Z" fill="#cccccc" fill-rule="nonzero" group-id="1,4" node-id="799" stroke="none" target-height="39.22" target-width="24.24002" target-x="387.24" target-y="136.1"></path><path d="M 435.49 136.10 L 411.48 150.05 L 387.31 136.10 L 411.32 122.15 L 435.49 136.10 Z" fill="#e6e6e6" fill-rule="nonzero" group-id="1,4" node-id="801" stroke="none" target-height="27.900002" target-width="48.179993" target-x="387.31" target-y="122.15"></path><path d="M 519.77 163.25 L 519.70 188.51 L 495.69 202.47 L 495.76 177.20 L 519.77 163.25 Z" fill="#fcee21" fill-rule="nonzero" group-id="1,5" node-id="806" stroke="none" target-height="39.22" target-width="24.080017" target-x="495.69" target-y="163.25"></path><path d="M 495.76 177.20 L 495.69 202.47 L 471.52 188.51 L 471.60 163.25 L 495.76 177.20 Z" fill="#f7931e" fill-rule="nonzero" group-id="1,5" node-id="808" stroke="none" target-height="39.22" target-width="24.24002" target-x="471.52" target-y="163.25"></path><path d="M 519.77 163.25 L 495.76 177.20 L 471.60 163.25 L 495.61 149.29 L 519.77 163.25 Z" fill="#fbb03b" fill-rule="nonzero" group-id="1,5" node-id="810" stroke="none" target-height="27.910004" target-width="48.170013" target-x="471.6" target-y="149.29"></path></g></svg>