<?xml version="1.0" standalone="no"?><!DOCTYPE svg PUBLIC "-//W3C//DTD SVG 1.1//EN" "http://www.w3.org/Graphics/SVG/1.1/DTD/svg11.dtd"><svg height="1024" node-id="1" sillyvg="true" template-height="1024" template-width="1024" version="1.1" viewBox="0 0 1024 1024" width="1024" xmlns="http://www.w3.org/2000/svg" xmlns:xlink="http://www.w3.org/1999/xlink"><defs node-id="44"></defs><path d="M 711.84 344.36 C 711.22 234.44 621.92 145.67 512.00 145.71 C 401.63 145.71 312.15 235.19 312.15 345.57 L 462.15 345.57 L 462.15 345.29 C 462.15 344.78 462.15 343.73 462.21 343.13 C 462.61 334.57 465.23 326.25 469.80 319.00 C 469.80 318.98 469.80 318.97 469.80 318.95 C 469.92 318.74 470.07 318.53 470.19 318.32 L 482.76 305.15 C 482.76 305.15 482.76 305.15 482.76 305.15 C 483.57 304.58 484.38 304.01 485.23 303.47 C 500.51 293.76 519.85 293.11 535.76 301.75 C 551.66 310.40 561.63 326.99 561.79 345.09 C 561.81 345.14 561.81 345.19 561.79 345.24 C 561.80 345.35 561.80 345.46 561.79 345.57 L 711.79 345.57 L 711.79 344.73 C 711.82 344.61 711.83 344.48 711.84 344.36 Z M 403.00 274.00 L 404.59 274.90 L 406.24 270.90 C 406.58 271.29 406.98 271.63 407.42 271.90 C 407.91 272.18 408.45 272.36 409.01 272.44 L 407.42 276.56 L 409.06 277.49 L 405.89 284.98 L 405.25 286.49 C 403.45 284.54 401.39 282.62 400.84 283.34 C 400.43 283.87 400.30 285.34 400.51 287.14 L 400.51 287.14 C 400.51 287.14 400.51 287.14 400.51 287.20 C 400.50 287.24 400.50 287.27 400.51 287.31 C 400.56 287.88 400.65 288.44 400.78 288.99 L 400.78 288.99 C 400.94 290.40 400.97 292.25 400.27 293.07 C 400.24 293.12 400.21 293.15 400.16 293.18 L 397.16 284.18 C 397.49 284.65 397.83 285.18 398.16 285.70 L 400.24 280.63 Z" fill="#02c3ff" fill-rule="nonzero" node-id="46" stroke="#262d33" stroke-linecap="butt" stroke-width="4.5" target-height="199.90025" target-width="399.69003" target-x="312.15" target-y="145.66975"></path><path d="M 752.91 635.12 C 752.91 768.17 645.05 876.00 512.00 876.00 C 378.95 876.00 271.09 768.17 271.09 635.12 L 421.09 635.12 C 421.09 671.90 443.24 705.05 477.21 719.13 C 511.19 733.20 550.30 725.42 576.30 699.42 C 602.30 673.42 610.08 634.31 596.01 600.33 C 581.93 566.36 548.78 544.21 512.00 544.21 C 577.38 544.27 638.65 512.30 676.00 458.63 C 725.12 504.16 753.00 568.14 752.91 635.12 Z" fill="#0078ff" fill-rule="nonzero" node-id="48" stroke="none" target-height="417.37" target-width="481.91068" target-x="271.09" target-y="458.63"></path><path d="M 512.00 878.29 C 377.92 878.29 268.84 769.21 268.84 635.13 C 268.84 633.89 269.85 632.88 271.09 632.88 L 421.09 632.88 C 422.33 632.88 423.34 633.89 423.34 635.13 C 423.34 670.99 444.94 703.33 478.08 717.05 C 511.21 730.78 549.35 723.19 574.71 697.83 C 600.07 672.46 607.66 634.32 593.93 601.19 C 580.20 568.06 547.86 546.46 512.00 546.46 C 510.76 546.46 509.75 545.45 509.75 544.21 C 509.75 542.97 510.76 541.96 512.00 541.96 C 576.61 541.92 637.13 510.33 674.12 457.35 C 674.49 456.82 675.08 456.47 675.72 456.40 C 676.37 456.33 677.01 456.55 677.49 456.99 C 726.94 503.05 755.07 567.55 755.16 635.13 C 755.16 769.21 646.08 878.29 512.00 878.29 Z M 273.35 637.38 C 274.55 768.00 381.15 873.79 512.00 873.79 C 643.60 873.79 750.66 766.72 750.66 635.13 C 750.58 569.68 723.71 507.13 676.31 462.00 C 643.20 508.15 592.23 538.26 535.83 545.00 C 582.28 557.30 611.75 602.92 603.88 650.32 C 596.02 697.72 553.39 731.37 505.45 728.01 C 457.52 724.64 420.00 685.38 418.83 637.34 Z" fill="#262d33" fill-rule="nonzero" node-id="50" stroke="none" target-height="421.95978" target-width="486.31998" target-x="268.84" target-y="456.3302"></path><path d="M 711.85 344.35 C 711.85 428.37 659.31 503.41 580.36 532.15 C 501.41 560.89 412.92 537.18 358.91 472.82 L 473.81 376.40 C 487.28 392.45 509.34 398.36 529.03 391.21 C 548.72 384.05 561.84 365.35 561.86 344.40 Z" fill="#02c3ff" fill-rule="nonzero" node-id="52" stroke="none" target-height="216.53726" target-width="352.94174" target-x="358.91" target-y="344.35"></path><path d="M 512.00 546.46 C 452.25 546.51 395.55 520.08 357.18 474.27 C 356.79 473.81 356.61 473.22 356.66 472.63 C 356.71 472.03 357.00 471.48 357.46 471.10 L 472.37 374.67 C 472.83 374.29 473.42 374.11 474.01 374.16 C 474.60 374.21 475.15 374.50 475.54 374.95 C 488.40 390.28 509.48 395.93 528.29 389.09 C 547.09 382.25 559.61 364.37 559.61 344.36 C 559.61 343.12 560.62 342.11 561.86 342.11 L 711.86 342.11 C 713.10 342.11 714.11 343.12 714.11 344.36 C 714.12 397.96 692.82 449.37 654.92 487.28 C 617.01 525.18 565.60 546.47 512.00 546.46 Z M 362.09 473.09 C 415.67 535.50 502.30 558.19 579.59 530.06 C 656.88 501.93 708.66 428.86 709.59 346.61 L 564.06 346.61 C 563.14 367.67 549.63 386.11 529.82 393.31 C 510.01 400.52 487.81 395.09 473.57 379.54 Z" fill="#262d33" fill-rule="nonzero" node-id="54" stroke="none" target-height="216.08038" target-width="357.50867" target-x="356.60663" target-y="342.11"></path><path d="M 329.96 605.78 C 329.96 621.98 316.83 635.11 300.63 635.11 C 284.43 635.11 271.30 621.98 271.30 605.78 C 271.30 589.58 284.43 576.45 300.63 576.45 C 316.83 576.45 329.96 589.58 329.96 605.78 Z" fill="#fe7236" fill-rule="nonzero" node-id="56" stroke="none" target-height="58.659973" target-width="58.660004" target-x="271.3" target-y="576.45"></path><path d="M 300.63 637.36 C 283.19 637.36 269.05 623.22 269.05 605.78 C 269.05 588.34 283.19 574.20 300.63 574.20 C 318.07 574.20 332.21 588.34 332.21 605.78 C 332.19 623.21 318.06 637.34 300.63 637.36 Z M 300.63 578.70 C 285.67 578.70 273.55 590.82 273.55 605.78 C 273.55 620.74 285.67 632.86 300.63 632.86 C 315.59 632.86 327.71 620.74 327.71 605.78 C 327.69 590.83 315.58 578.72 300.63 578.70 Z" fill="#262d33" fill-rule="nonzero" node-id="58" stroke="none" target-height="63.159973" target-width="63.160004" target-x="269.05" target-y="574.2"></path><path d="M 488.00 324.76 C 486.00 337.76 468.26 358.15 468.26 358.15 C 467.96 358.27 467.67 358.43 467.42 358.63 C 466.42 359.36 464.81 361.19 463.77 365.53 C 463.10 368.85 462.76 372.22 462.77 375.61 C 462.53 386.61 454.51 383.32 453.89 372.26 C 453.28 360.97 452.50 358.63 462.02 345.38 C 474.89 327.47 473.08 324.19 473.08 324.19 L 463.40 308.86 L 460.06 317.77 C 458.78 321.12 457.80 324.59 457.16 328.12 C 456.07 334.42 451.54 346.69 432.94 344.12 C 424.33 342.94 417.20 341.94 411.55 341.12 C 404.88 340.13 400.30 339.44 397.79 339.05 L 394.79 345.37 L 372.19 345.37 C 376.66 334.27 380.31 325.31 381.63 322.37 C 382.32 320.94 383.45 319.77 384.85 319.04 C 386.12 316.12 388.15 313.60 390.72 311.73 C 392.07 311.12 393.53 310.78 395.01 310.73 C 397.06 310.52 399.64 310.45 402.43 310.45 C 407.50 310.45 413.31 310.72 418.14 311.00 C 423.94 311.35 428.31 311.72 428.31 311.72 C 428.73 308.30 429.38 304.91 430.23 301.57 C 434.82 283.79 443.23 282.79 444.04 282.43 C 444.85 282.07 444.04 278.83 444.04 278.83 C 434.71 273.83 441.51 262.60 441.51 262.60 C 443.31 265.85 446.74 261.26 446.74 261.26 C 446.74 261.26 446.91 268.73 454.45 268.73 C 456.45 268.73 455.10 273.13 454.45 273.52 C 453.80 273.91 454.45 280.79 454.45 280.79 C 454.45 280.79 467.23 285.58 471.00 288.79 C 473.00 290.52 478.17 296.79 482.34 304.33 C 486.06 311.00 489.00 318.61 488.00 324.76 Z" fill="#fbf5f0" fill-rule="nonzero" node-id="60" stroke="none" target-height="125.349976" target-width="116.81" target-x="372.19" target-y="261.26"></path><path d="M 459.45 383.90 C 455.82 383.90 452.81 378.95 452.45 372.35 L 452.34 370.44 C 451.77 360.69 451.58 357.44 460.86 344.51 C 471.35 329.90 471.74 325.51 471.72 324.76 L 463.80 312.21 L 461.51 318.29 C 460.26 321.56 459.32 324.93 458.69 328.37 C 457.63 334.48 452.97 348.37 432.78 345.58 C 424.17 344.39 417.02 343.37 411.38 342.58 C 405.59 341.72 401.38 341.08 398.72 340.67 L 396.18 346.00 C 395.93 346.52 395.41 346.86 394.83 346.86 L 372.19 346.86 C 371.69 346.86 371.23 346.61 370.95 346.20 C 370.67 345.78 370.62 345.26 370.80 344.79 C 375.98 331.93 379.08 324.38 380.26 321.71 C 380.99 320.13 382.19 318.82 383.69 317.94 C 385.07 314.94 387.21 312.35 389.90 310.43 C 391.46 309.66 393.16 309.24 394.90 309.20 C 396.81 309.00 399.29 308.91 402.46 308.91 C 406.71 308.91 411.88 309.09 418.26 309.46 C 422.07 309.69 425.26 309.93 427.05 310.07 C 427.47 307.07 428.05 304.09 428.81 301.15 C 430.81 293.40 434.89 283.69 443.01 281.15 C 442.98 280.69 442.90 280.24 442.79 279.79 C 440.46 278.49 438.74 276.30 438.03 273.73 C 436.49 268.09 440.10 262.04 440.25 261.79 C 440.55 261.35 441.04 261.08 441.57 261.07 C 442.10 261.08 442.59 261.37 442.85 261.84 C 443.01 262.12 443.14 262.23 443.18 262.23 C 444.15 261.85 444.98 261.19 445.57 260.33 C 445.96 259.82 446.62 259.61 447.23 259.80 C 447.82 260.01 448.22 260.57 448.23 261.20 C 448.23 261.81 448.59 267.20 454.44 267.20 C 455.58 267.19 456.58 267.97 456.84 269.08 C 457.16 270.92 456.75 272.81 455.70 274.35 C 455.62 276.13 455.68 277.92 455.86 279.70 C 458.86 280.86 468.60 284.75 471.97 287.70 C 474.25 289.70 479.57 296.33 483.64 303.64 C 486.90 309.51 490.57 317.99 489.51 325.07 L 489.51 325.07 C 487.51 338.37 470.16 358.38 469.42 359.22 C 469.24 359.43 469.01 359.58 468.75 359.66 L 468.75 359.66 C 468.61 359.74 468.47 359.83 468.34 359.93 C 467.75 360.37 466.24 361.86 465.26 365.93 C 464.62 369.14 464.30 372.41 464.31 375.69 C 464.15 383.28 460.59 383.93 459.50 383.95 Z M 463.45 307.36 C 463.97 307.36 464.45 307.62 464.72 308.06 L 474.40 323.39 C 475.12 324.70 475.40 329.39 463.29 346.26 C 454.64 358.26 454.79 360.83 455.29 370.26 L 455.40 372.17 C 455.72 377.91 458.17 380.89 459.40 380.89 L 459.40 380.89 C 460.08 380.89 461.18 379.42 461.26 375.56 C 461.23 372.07 461.57 368.58 462.26 365.16 C 463.36 360.54 465.15 358.40 466.46 357.42 C 466.72 357.23 466.99 357.05 467.28 356.90 C 469.28 354.57 484.69 336.21 486.45 324.52 C 487.39 318.28 483.96 310.46 480.93 305.00 C 476.76 297.50 471.61 291.34 469.93 289.86 C 467.02 287.34 457.33 283.40 453.85 282.10 C 453.30 281.91 452.91 281.42 452.85 280.84 C 452.17 273.77 452.69 272.71 453.37 272.25 C 453.68 271.58 453.86 270.86 453.89 270.12 C 450.15 270.16 446.82 267.75 445.69 264.18 C 444.88 264.83 443.88 265.18 442.84 265.18 C 442.50 265.16 442.16 265.08 441.84 264.95 C 441.02 266.83 439.98 270.03 440.77 272.90 C 441.35 274.89 442.75 276.54 444.63 277.42 C 444.97 277.61 445.23 277.92 445.34 278.30 C 445.98 280.30 446.34 282.91 444.52 283.72 C 444.40 283.77 444.23 283.82 444.00 283.89 C 437.00 285.89 433.38 294.77 431.55 301.89 C 430.71 305.18 430.09 308.52 429.67 311.89 C 429.56 312.68 428.85 313.26 428.05 313.19 C 428.05 313.19 423.64 312.81 417.92 312.47 C 411.60 312.10 406.49 311.92 402.30 311.92 C 399.23 311.92 396.85 312.01 395.03 312.19 C 392.37 312.45 391.57 312.84 391.39 312.96 C 389.06 314.67 387.23 316.97 386.09 319.62 C 385.96 319.90 385.75 320.14 385.48 320.29 C 384.35 320.87 383.44 321.79 382.87 322.92 C 381.77 325.43 378.96 332.28 374.29 343.87 L 393.75 343.87 L 396.36 338.40 C 396.65 337.80 397.29 337.46 397.95 337.57 C 400.43 337.96 405.02 338.65 411.69 339.64 C 417.32 340.46 424.46 341.48 433.06 342.64 C 450.06 344.98 454.47 334.41 455.61 327.89 C 456.28 324.26 457.28 320.71 458.61 317.27 L 461.96 308.36 C 462.15 307.82 462.64 307.43 463.21 307.36 Z M 488.00 324.76 L 488.00 324.76 Z M 455.38 274.57 C 455.32 274.62 455.26 274.67 455.19 274.71 C 455.27 274.67 455.35 274.63 455.42 274.57 Z" fill="#262d33" fill-rule="nonzero" node-id="62" stroke="none" target-height="124.33954" target-width="119.95224" target-x="370.61777" target-y="259.61047"></path><path d="M 463.46 310.36 C 462.94 310.36 462.46 310.10 462.19 309.66 L 457.12 301.66 C 456.79 301.21 456.74 300.61 456.99 300.11 C 457.24 299.61 457.75 299.29 458.30 299.28 C 458.86 299.27 459.38 299.57 459.65 300.06 L 464.72 308.06 C 464.94 308.39 465.01 308.80 464.92 309.19 C 464.83 309.58 464.59 309.91 464.25 310.12 C 464.02 310.28 463.74 310.36 463.46 310.36 Z" fill="#262d33" fill-rule="nonzero" node-id="64" stroke="none" target-height="11.095856" target-width="8.270325" target-x="456.7399" target-y="299.26645"></path><path d="M 482.34 304.28 C 478.17 296.78 472.98 290.47 471.00 288.74 C 467.23 285.49 454.45 280.74 454.45 280.74 C 454.45 280.74 453.79 273.84 454.45 273.47 C 455.11 273.10 456.45 268.68 454.45 268.68 C 446.91 268.68 446.74 261.21 446.74 261.21 C 446.74 261.21 443.31 265.80 441.51 262.55 C 439.71 259.30 445.11 256.23 445.11 256.23 C 445.11 256.23 451.83 253.55 458.05 259.49 C 464.27 265.43 465.58 278.64 467.23 281.13 C 468.88 283.62 482.13 287.25 483.45 293.00 C 484.53 297.73 484.05 301.58 482.34 304.28 Z" fill="#fe7236" fill-rule="nonzero" node-id="66" stroke="none" target-height="50.729996" target-width="44.820007" target-x="439.71" target-y="253.55"></path><path d="M 482.34 305.78 L 482.34 305.78 C 481.78 305.79 481.27 305.49 481.00 305.00 C 476.83 297.50 471.68 291.34 470.00 289.86 C 467.09 287.34 457.40 283.40 453.92 282.10 C 453.37 281.91 452.98 281.42 452.92 280.84 C 452.24 273.77 452.76 272.71 453.44 272.25 C 453.75 271.58 453.93 270.86 453.96 270.12 C 450.22 270.16 446.89 267.75 445.76 264.18 C 444.95 264.83 443.95 265.18 442.91 265.18 C 441.71 265.07 440.66 264.33 440.16 263.24 C 438.16 259.65 441.84 256.31 444.33 254.90 C 444.39 254.86 444.45 254.83 444.51 254.81 C 444.82 254.69 452.21 251.81 459.05 258.37 C 463.62 262.72 465.66 270.54 467.05 275.71 C 467.38 277.27 467.85 278.80 468.47 280.27 C 468.86 280.85 471.36 282.09 473.18 282.99 C 477.96 285.35 483.90 288.29 484.90 292.63 C 486.04 297.63 485.59 301.95 483.60 305.09 C 483.32 305.52 482.85 305.78 482.34 305.78 Z M 455.87 279.64 C 458.87 280.80 468.61 284.69 471.98 287.64 C 473.98 289.39 478.35 294.75 482.14 300.99 C 482.70 298.46 482.65 295.83 481.99 293.32 C 481.31 290.32 475.85 287.67 471.86 285.70 C 468.63 284.10 466.76 283.14 465.98 281.94 C 465.32 280.94 464.83 279.08 464.16 276.49 C 462.89 271.65 460.97 264.32 457.02 260.56 C 451.94 255.71 446.59 257.29 445.76 257.56 C 445.17 257.93 441.88 260.09 442.82 261.79 C 442.98 262.07 443.11 262.18 443.15 262.18 L 443.15 262.18 C 444.11 261.81 444.94 261.14 445.51 260.28 C 445.90 259.77 446.56 259.56 447.17 259.75 C 447.76 259.96 448.16 260.52 448.17 261.15 C 448.17 261.76 448.53 267.15 454.38 267.15 C 455.52 267.14 456.52 267.92 456.78 269.03 C 457.10 270.87 456.69 272.76 455.64 274.30 C 455.59 276.08 455.66 277.87 455.87 279.64 Z M 455.42 274.57 C 455.36 274.62 455.30 274.67 455.23 274.71 C 455.30 274.67 455.36 274.62 455.42 274.57 Z" fill="#262d33" fill-rule="nonzero" node-id="68" stroke="none" target-height="53.978912" target-width="47.880005" target-x="438.16" target-y="251.81"></path><path d="M 430.23 301.47 C 429.38 304.81 428.74 308.21 428.31 311.63 C 428.31 311.63 423.95 311.25 418.14 310.91 L 400.56 297.51 L 402.32 293.40 L 402.32 293.40 C 401.65 292.00 401.15 290.52 400.82 289.00 L 400.82 289.00 C 400.69 288.45 400.60 287.89 400.55 287.32 C 400.54 287.28 400.54 287.25 400.55 287.21 C 400.55 287.21 400.55 287.21 400.55 287.15 L 400.55 287.15 C 400.34 285.32 400.47 283.88 400.88 283.35 C 401.43 282.63 403.49 284.55 405.29 286.50 L 405.93 284.99 C 413.69 290.76 424.07 298.25 430.23 301.47 Z" fill="#fbf5f0" fill-rule="nonzero" node-id="70" stroke="none" target-height="29" target-width="29.890015" target-x="400.34" target-y="282.63"></path><path d="M 428.31 313.13 L 428.18 313.13 C 428.18 313.13 423.77 312.76 418.05 312.42 C 417.75 312.40 417.47 312.29 417.23 312.11 L 399.65 298.72 C 399.11 298.30 398.91 297.56 399.18 296.93 L 400.68 293.43 C 400.11 292.11 399.66 290.74 399.35 289.33 L 399.35 289.14 C 399.25 288.64 399.15 288.07 399.09 287.50 C 399.08 287.40 399.08 287.30 399.09 287.20 C 398.91 285.60 398.88 283.48 399.73 282.39 C 400.07 281.94 400.60 281.67 401.16 281.65 C 402.03 281.65 402.99 282.02 404.91 283.88 C 405.10 283.69 405.33 283.56 405.58 283.49 C 406.03 283.37 406.50 283.46 406.87 283.74 C 414.52 289.47 424.92 296.98 431.00 300.15 C 431.62 300.48 431.93 301.19 431.75 301.87 C 430.92 305.16 430.29 308.50 429.87 311.87 C 429.75 312.63 429.08 313.17 428.31 313.13 Z M 418.69 309.44 C 422.30 309.66 425.34 309.89 427.02 310.02 C 427.43 307.20 427.92 304.59 428.49 302.24 C 422.59 298.96 413.64 292.56 406.49 287.24 C 406.26 287.59 405.90 287.83 405.49 287.90 C 404.99 287.99 404.48 287.82 404.14 287.44 C 403.44 286.66 402.69 285.93 401.90 285.24 C 401.89 285.77 401.92 286.31 401.98 286.84 C 401.98 286.88 401.98 286.93 401.98 286.97 C 401.99 287.02 401.99 287.08 401.98 287.13 C 402.03 287.63 402.12 288.14 402.23 288.63 C 402.23 288.63 402.23 288.72 402.23 288.77 C 402.53 290.13 402.99 291.46 403.59 292.72 C 403.69 292.92 403.74 293.14 403.74 293.37 C 403.74 293.58 403.70 293.78 403.62 293.97 L 402.32 296.97 Z" fill="#262d33" fill-rule="nonzero" node-id="72" stroke="none" target-height="31.520386" target-width="33.049805" target-x="398.88" target-y="281.65"></path><path d="M 400.29 280.67 L 398.21 285.74 C 397.83 285.20 397.49 284.69 397.21 284.22 C 395.30 281.43 394.21 279.59 394.04 278.31 C 393.80 276.39 395.69 277.07 395.69 277.07 C 395.69 277.07 397.44 278.48 400.29 280.67 Z" fill="#fbf5f0" fill-rule="nonzero" node-id="74" stroke="none" target-height="9.349976" target-width="6.4900208" target-x="393.8" target-y="276.39"></path><path d="M 398.21 287.24 C 397.72 287.24 397.26 287.00 396.98 286.59 L 396.58 286.02 C 396.35 285.69 396.14 285.38 395.93 285.09 C 393.93 282.09 392.71 280.09 392.50 278.51 C 392.30 277.57 392.63 276.60 393.36 275.98 C 394.18 275.42 395.22 275.30 396.15 275.66 C 396.30 275.71 396.44 275.79 396.57 275.89 C 396.57 275.89 398.37 277.30 401.21 279.48 C 401.75 279.89 401.94 280.61 401.68 281.24 L 399.59 286.31 C 399.39 286.82 398.92 287.18 398.37 287.23 Z M 395.79 279.08 C 396.39 280.31 397.09 281.49 397.87 282.61 L 398.47 281.16 C 397.35 280.29 396.43 279.59 395.79 279.08 Z M 395.47 277.96 Z" fill="#262d33" fill-rule="nonzero" node-id="76" stroke="none" target-height="11.942078" target-width="9.640076" target-x="392.29822" target-y="275.2979"></path><path d="M 397.85 340.49 L 397.60 340.49 L 395.43 340.15 C 394.60 340.03 394.02 339.27 394.14 338.44 C 394.26 337.61 395.02 337.03 395.85 337.15 L 398.08 337.50 C 398.91 337.56 399.53 338.29 399.46 339.12 C 399.40 339.94 398.68 340.56 397.85 340.50 Z" fill="#262d33" fill-rule="nonzero" node-id="78" stroke="none" target-height="3.52948" target-width="5.504486" target-x="394.02402" target-y="337.03403"></path><path d="M 402.32 293.39 L 402.32 293.39 L 400.56 297.50 L 395.00 310.64 L 389.32 307.52 L 395.38 292.67 C 395.38 293.93 396.07 295.09 397.19 295.67 C 397.75 295.99 398.36 296.20 398.99 296.31 C 398.99 296.31 400.75 295.85 400.19 293.18 C 400.24 293.15 400.27 293.12 400.30 293.07 C 401.00 292.25 400.97 290.40 400.81 288.99 C 401.14 290.51 401.65 291.99 402.32 293.39 Z" fill="#0078ff" fill-rule="nonzero" node-id="80" stroke="none" target-height="21.650024" target-width="13" target-x="389.32" target-y="288.99"></path><path d="M 395.00 312.14 C 394.75 312.14 394.50 312.08 394.28 311.95 L 388.60 308.83 C 387.93 308.47 387.64 307.66 387.93 306.95 L 394.00 292.10 C 394.27 291.44 394.97 291.06 395.67 291.19 C 396.37 291.32 396.88 291.93 396.89 292.65 C 396.87 293.39 397.29 294.06 397.96 294.37 C 398.20 294.51 398.46 294.63 398.73 294.71 C 398.85 294.31 398.85 293.89 398.73 293.49 C 398.63 292.97 398.80 292.44 399.18 292.08 C 399.49 291.14 399.54 290.14 399.33 289.17 C 399.24 288.38 399.78 287.65 400.57 287.51 C 401.35 287.40 402.10 287.90 402.28 288.67 C 402.59 290.07 403.06 291.44 403.67 292.74 C 403.77 292.94 403.82 293.16 403.82 293.39 L 403.82 293.39 C 403.82 293.59 403.78 293.79 403.70 293.98 L 396.39 311.21 C 396.23 311.61 395.90 311.91 395.50 312.05 C 395.34 312.11 395.17 312.14 395.00 312.14 Z M 391.21 306.85 L 394.27 308.52 L 398.80 297.80 L 398.80 297.80 C 397.97 297.67 397.18 297.39 396.45 296.97 C 396.12 296.78 395.81 296.56 395.52 296.31 Z" fill="#262d33" fill-rule="nonzero" node-id="82" stroke="none" target-height="24.7471" target-width="16.183075" target-x="387.63864" target-y="287.39523"></path><path d="M 396.12 289.84 C 395.67 290.72 395.41 291.68 395.38 292.67" fill="#fbf5f0" fill-rule="nonzero" node-id="84" stroke="none" target-height="2.830017" target-width="0.73999023" target-x="395.38" target-y="289.84"></path><path d="M 395.38 294.17 C 394.55 294.17 393.88 293.50 393.88 292.67 C 393.91 291.46 394.21 290.28 394.76 289.20 C 395.11 288.45 396.00 288.12 396.75 288.48 C 397.51 288.83 397.83 289.72 397.48 290.47 C 397.12 291.15 396.92 291.90 396.88 292.67 C 396.88 293.50 396.21 294.17 395.38 294.17 Z" fill="#262d33" fill-rule="nonzero" node-id="86" stroke="none" target-height="6.0457153" target-width="3.9506836" target-x="393.88" target-y="288.1243"></path><path d="M 397.15 284.23 C 396.58 284.71 395.80 285.83 395.95 288.23 C 396.01 288.91 396.14 289.58 396.36 290.23 C 397.21 292.75 399.18 294.11 400.20 293.12" fill="#fbf5f0" fill-rule="nonzero" node-id="88" stroke="none" target-height="9.879974" target-width="4.4000244" target-x="395.8" target-y="284.23"></path><path d="M 399.40 295.00 C 399.16 295.00 398.93 294.98 398.70 294.92 C 397.15 294.54 395.70 292.92 394.94 290.77 C 394.68 290.00 394.52 289.21 394.46 288.40 C 394.27 285.40 395.30 283.83 396.19 283.08 C 396.59 282.70 397.18 282.57 397.70 282.75 C 398.23 282.93 398.62 283.38 398.70 283.93 C 398.79 284.48 398.57 285.04 398.12 285.37 C 397.93 285.53 397.33 286.20 397.45 288.18 C 397.49 288.73 397.60 289.28 397.78 289.80 C 398.01 290.68 398.56 291.45 399.31 291.97 C 399.95 291.49 400.84 291.60 401.35 292.21 C 401.87 292.81 401.82 293.71 401.24 294.26 C 400.75 294.74 400.09 295.01 399.40 295.00 Z M 399.40 292.00 L 399.40 292.00 Z" fill="#262d33" fill-rule="nonzero" node-id="90" stroke="none" target-height="12.438385" target-width="7.5964966" target-x="394.27" target-y="282.56885"></path><path d="M 400.82 290.45 C 400.05 290.45 399.40 289.87 399.32 289.10 C 399.27 288.62 399.20 288.14 399.10 287.67 L 400.55 287.27 L 402.00 287.00 C 402.13 287.60 402.23 288.22 402.29 288.83 C 402.33 289.23 402.21 289.62 401.96 289.93 C 401.70 290.24 401.34 290.43 400.94 290.47 Z" fill="#262d33" fill-rule="nonzero" node-id="92" stroke="none" target-height="3.4700012" target-width="3.229004" target-x="399.1" target-y="287"></path><path d="M 405.25 286.45 C 406.81 288.14 408.16 289.84 408.16 289.84" fill="#fbf5f0" fill-rule="nonzero" node-id="94" stroke="none" target-height="3.3899841" target-width="2.9100037" target-x="405.25" target-y="286.45"></path><path d="M 408.17 291.34 C 407.71 291.34 407.28 291.13 406.99 290.77 C 406.99 290.77 405.65 289.10 404.15 287.46 C 403.71 286.84 403.80 285.99 404.36 285.47 C 404.93 284.96 405.79 284.96 406.36 285.46 C 407.94 287.18 409.28 288.86 409.36 288.93 C 409.71 289.38 409.78 290.00 409.53 290.51 C 409.28 291.03 408.76 291.36 408.19 291.37 Z" fill="#262d33" fill-rule="nonzero" node-id="96" stroke="none" target-height="6.4136963" target-width="6.074402" target-x="403.70578" target-y="284.9563"></path><path d="M 404.16 296.32 C 403.42 295.43 402.80 294.45 402.31 293.41" fill="#fbf5f0" fill-rule="nonzero" node-id="98" stroke="none" target-height="2.9100037" target-width="1.8500061" target-x="402.31" target-y="293.41"></path><path d="M 404.16 297.82 C 403.72 297.82 403.30 297.63 403.01 297.29 C 402.19 296.30 401.51 295.21 400.96 294.05 C 400.60 293.30 400.92 292.41 401.67 292.05 C 402.42 291.69 403.31 292.01 403.67 292.76 C 404.10 293.69 404.65 294.56 405.30 295.35 C 405.68 295.80 405.76 296.42 405.52 296.95 C 405.27 297.48 404.74 297.82 404.16 297.82 Z" fill="#262d33" fill-rule="nonzero" node-id="100" stroke="none" target-height="6.1265564" target-width="5.158539" target-x="400.6038" target-y="291.6938"></path><path d="M 409.07 277.44 L 405.90 284.93 L 405.26 286.44 C 403.46 284.49 401.40 282.57 400.85 283.29 C 400.44 283.82 400.31 285.29 400.52 287.09 L 400.52 287.09 C 400.52 287.09 400.52 287.09 400.52 287.15 C 400.51 287.19 400.51 287.22 400.52 287.26 C 400.57 287.83 400.66 288.39 400.79 288.94 L 400.79 288.94 C 400.95 290.35 400.98 292.20 400.28 293.02 C 400.25 293.07 400.22 293.10 400.17 293.13 L 397.17 284.13 C 397.50 284.60 397.84 285.13 398.17 285.65 L 400.25 280.58 L 403.00 274.00 L 404.59 274.90 L 406.24 270.90 C 406.58 271.29 406.98 271.63 407.42 271.90 C 407.91 272.18 408.45 272.36 409.01 272.44 L 407.42 276.56 Z" fill="#0078ff" fill-rule="nonzero" node-id="102" stroke="none" target-height="22.230011" target-width="11.899994" target-x="397.17" target-y="270.9"></path><path d="M 400.20 294.68 C 400.04 294.68 399.88 294.65 399.72 294.60 C 399.28 294.45 398.93 294.10 398.78 293.66 L 395.78 284.66 C 395.54 283.96 395.85 283.18 396.51 282.84 C 396.92 282.63 397.40 282.63 397.81 282.84 L 401.66 273.41 C 401.82 273.01 402.15 272.70 402.56 272.56 C 402.97 272.42 403.41 272.46 403.79 272.67 L 403.90 272.73 L 404.90 270.31 C 405.09 269.84 405.51 269.50 406.01 269.41 C 406.51 269.32 407.02 269.48 407.37 269.84 C 407.61 270.11 407.89 270.33 408.20 270.51 C 408.52 270.70 408.89 270.83 409.26 270.88 C 409.71 270.94 410.10 271.21 410.34 271.59 C 410.57 271.98 410.62 272.45 410.46 272.88 L 409.34 275.80 L 409.85 276.09 C 410.51 276.47 410.78 277.28 410.49 277.98 L 406.68 286.98 C 406.48 287.45 406.06 287.78 405.56 287.87 C 405.06 287.96 404.55 287.78 404.20 287.41 C 403.50 286.63 402.75 285.90 401.96 285.21 C 401.95 285.74 401.98 286.28 402.04 286.81 C 402.04 286.85 402.04 286.90 402.04 286.94 C 402.05 286.99 402.05 287.05 402.04 287.10 C 402.09 287.60 402.18 288.11 402.29 288.60 C 402.30 288.70 402.30 288.80 402.29 288.90 C 402.57 291.23 402.29 292.99 401.42 294.00 L 401.42 294.00 C 401.30 294.14 401.16 294.26 401.01 294.37 C 400.78 294.55 400.49 294.66 400.20 294.68 Z M 401.51 281.68 C 402.25 281.79 403.20 282.31 404.76 283.80 L 407.17 278.11 L 406.69 277.84 C 406.04 277.48 405.75 276.70 406.00 276.00 L 407.00 273.37 L 406.85 273.29 L 405.93 275.50 C 405.77 275.90 405.44 276.20 405.03 276.34 C 404.63 276.48 404.18 276.44 403.81 276.23 L 403.70 276.17 Z" fill="#262d33" fill-rule="nonzero" node-id="104" stroke="none" target-height="25.35965" target-width="15.244415" target-x="395.5382" target-y="269.32034"></path><path d="M 425.39 229.00 C 420.53 226.23 412.58 233.58 407.61 245.41 C 403.10 256.20 402.61 267.00 406.25 270.93 L 406.25 270.93 C 406.59 271.32 406.99 271.66 407.43 271.93 C 407.92 272.21 408.46 272.39 409.02 272.47 C 413.88 273.14 420.74 266.14 425.19 255.52 C 430.14 243.59 430.23 231.74 425.39 229.00 Z M 422.09 253.69 C 418.23 262.89 412.58 268.89 409.44 267.09 C 406.30 265.29 406.88 256.38 410.72 247.20 C 414.56 238.02 420.23 232.00 423.38 233.80 C 426.53 235.60 425.94 244.46 422.09 253.65 Z" fill="#0078ff" fill-rule="nonzero" node-id="106" stroke="#262d33" stroke-linecap="round" stroke-width="3" target-height="46.91002" target-width="27.620026" target-x="402.61" target-y="226.23"></path><path d="M 422.08 253.66 C 418.23 262.85 412.57 268.85 409.44 267.05 C 406.31 265.25 406.87 256.34 410.71 247.16 C 414.55 237.98 420.22 231.97 423.37 233.77 C 426.52 235.57 425.94 244.46 422.08 253.66 Z" fill="#02c3ff" fill-rule="nonzero" node-id="108" stroke="none" target-height="36.880005" target-width="20.209991" target-x="406.31" target-y="231.97"></path><path d="M 410.67 268.87 C 409.97 268.88 409.28 268.70 408.67 268.35 C 404.18 265.79 405.60 255.46 409.31 246.58 C 412.44 239.11 416.84 233.48 420.51 232.23 C 421.68 231.77 423.00 231.86 424.10 232.46 C 428.58 235.04 427.16 245.37 423.45 254.24 L 423.45 254.24 C 420.31 261.71 415.91 267.35 412.25 268.59 C 411.74 268.77 411.21 268.86 410.67 268.87 Z M 422.14 235.00 C 421.92 235.01 421.70 235.05 421.49 235.12 C 419.20 235.90 415.28 240.20 412.10 247.79 C 408.16 257.20 408.33 264.74 410.18 265.79 C 410.53 265.97 410.95 265.97 411.30 265.79 C 413.60 265.01 417.51 260.72 420.70 253.12 L 420.70 253.12 C 424.64 243.71 424.47 236.12 422.63 235.12 C 422.48 235.03 422.31 234.99 422.14 235.00 Z" fill="#262d33" fill-rule="nonzero" node-id="110" stroke="none" target-height="37.103928" target-width="24.399994" target-x="404.18" target-y="231.77425"></path><path d="M 384.85 318.94 C 394.60 313.22 420.21 316.24 420.21 316.24" fill="#fbf5f0" fill-rule="nonzero" node-id="112" stroke="none" target-height="5.720001" target-width="35.359985" target-x="384.85" target-y="313.22"></path><path d="M 384.86 320.44 C 384.18 320.45 383.57 320.00 383.39 319.34 C 383.21 318.68 383.50 317.98 384.09 317.64 C 394.16 311.74 419.32 314.64 420.39 314.75 C 420.78 314.80 421.14 315.00 421.39 315.31 C 421.64 315.62 421.75 316.02 421.70 316.41 C 421.60 317.23 420.85 317.82 420.03 317.73 C 419.78 317.73 394.81 314.84 385.61 320.23 C 385.38 320.36 385.12 320.44 384.86 320.44 Z" fill="#262d33" fill-rule="nonzero" node-id="114" stroke="none" target-height="8.710022" target-width="38.537323" target-x="383.21054" target-y="311.74"></path><path d="M 412.88 346.80 C 412.22 346.80 411.64 346.37 411.45 345.74 L 410.16 341.49 C 409.92 340.70 410.36 339.86 411.15 339.62 C 411.95 339.37 412.79 339.82 413.03 340.61 L 414.32 344.87 C 414.56 345.66 414.11 346.50 413.32 346.74 C 413.18 346.78 413.03 346.80 412.88 346.80 Z" fill="#262d33" fill-rule="nonzero" node-id="116" stroke="none" target-height="7.432831" target-width="4.6429443" target-x="409.917" target-y="339.372"></path><path d="M 467.55 370.34 C 466.78 370.27 464.41 369.23 463.81 365.53 C 464.81 361.19 466.48 359.36 467.46 358.63 C 467.12 360.58 467.24 362.59 467.82 364.49 C 468.81 367.18 468.66 370.43 467.55 370.34 Z" fill="#fbf5f0" fill-rule="nonzero" node-id="118" stroke="none" target-height="11.799988" target-width="5" target-x="463.81" target-y="358.63"></path><path d="M 467.59 371.84 L 467.40 371.84 C 465.73 371.68 463.01 369.93 462.33 365.78 C 462.29 365.58 462.29 365.39 462.33 365.19 C 463.44 360.56 465.23 358.42 466.54 357.44 C 467.04 357.07 467.71 357.04 468.23 357.37 C 468.75 357.70 469.02 358.31 468.91 358.92 C 468.62 360.61 468.73 362.34 469.21 363.99 C 470.05 366.28 470.35 369.52 469.21 370.99 C 468.84 371.52 468.24 371.83 467.59 371.84 Z M 465.35 365.57 C 465.50 366.71 466.08 367.75 466.97 368.47 C 467.01 367.29 466.81 366.12 466.41 365.01 C 466.23 364.52 466.09 364.01 466.00 363.49 C 465.74 364.17 465.53 364.86 465.35 365.57 Z" fill="#262d33" fill-rule="nonzero" node-id="120" stroke="none" target-height="14.796295" target-width="8.055023" target-x="462.29498" target-y="357.0437"></path></svg>