<?xml version="1.0" standalone="no"?><!DOCTYPE svg PUBLIC "-//W3C//DTD SVG 1.1//EN" "http://www.w3.org/Graphics/SVG/1.1/DTD/svg11.dtd"><svg height="1024" node-id="1" sillyvg="true" template-height="1024" template-width="1024" version="1.1" viewBox="0 0 1024 1024" width="1024" xmlns="http://www.w3.org/2000/svg" xmlns:xlink="http://www.w3.org/1999/xlink"><defs node-id="46"></defs><path d="M 423.65 690.95 L 244.69 690.95 L 244.69 512.00 L 423.65 690.95 Z" fill="#02c3ff" fill-rule="nonzero" node-id="48" stroke="#262d33" stroke-linecap="butt" stroke-width="4.5" target-height="178.95001" target-width="178.95999" target-x="244.69" target-y="512"></path><path d="M 244.69 333.04 L 423.65 333.04 L 423.65 512.00 L 244.69 512.00 Z" fill="#02c3ff" fill-rule="nonzero" node-id="50" stroke="#262d33" stroke-linecap="butt" stroke-width="4.5" target-height="178.95999" target-width="178.95999" target-x="244.69" target-y="333.04"></path><path d="M 334.16 154.09 L 423.65 154.09 L 423.65 333.04 L 334.16 333.04 Z" fill="#02c3ff" fill-rule="nonzero" node-id="52" stroke="#262d33" stroke-linecap="butt" stroke-width="4.5" target-height="178.95001" target-width="89.48999" target-x="334.16" target-y="154.09"></path><path d="M 244.69 154.09 L 334.16 154.09 L 334.16 333.04 L 244.69 333.04 Z" fill="#02c3ff" fill-rule="nonzero" node-id="54" stroke="#262d33" stroke-linecap="butt" stroke-width="4.5" target-height="178.95001" target-width="89.47" target-x="244.69" target-y="154.09"></path><path d="M 602.60 154.09 L 781.56 154.09 L 781.56 333.05 L 602.60 333.05 Z" fill="#02c3ff" fill-rule="nonzero" node-id="56" stroke="#262d33" stroke-linecap="butt" stroke-width="4.5" target-height="178.95999" target-width="178.96002" target-x="602.6" target-y="154.09"></path><path d="M 602.60 333.04 L 781.56 333.04 L 781.56 512.00 L 602.60 512.00 Z" fill="#02c3ff" fill-rule="nonzero" node-id="58" stroke="#262d33" stroke-linecap="butt" stroke-width="4.5" target-height="178.95999" target-width="178.96002" target-x="602.6" target-y="333.04"></path><path d="M 453.47 512.00 C 453.47 520.23 446.79 526.91 438.56 526.91 C 430.33 526.91 423.65 520.23 423.65 512.00 L 423.65 691.00 L 602.65 691.00 L 602.65 512.00 C 602.65 520.23 595.97 526.91 587.74 526.91 C 579.51 526.91 572.83 520.23 572.83 512.00 C 572.62 520.09 566.00 526.53 557.91 526.53 C 549.83 526.53 543.21 520.09 543.00 512.00 C 543.00 520.23 536.32 526.91 528.09 526.91 C 519.86 526.91 513.18 520.23 513.18 512.00 C 512.97 520.09 506.35 526.53 498.26 526.53 C 490.18 526.53 483.56 520.09 483.35 512.00 C 483.14 520.09 476.52 526.53 468.44 526.53 C 460.35 526.53 453.73 520.09 453.52 512.00 Z" fill="#0078ff" fill-rule="nonzero" node-id="60" stroke="#262d33" stroke-linecap="butt" stroke-width="4.5" target-height="179" target-width="179.00003" target-x="423.65" target-y="512"></path><path d="M 602.60 512.00 L 781.56 512.00 L 781.56 690.96 L 602.60 690.96 Z" fill="#02c3ff" fill-rule="nonzero" node-id="62" stroke="#262d33" stroke-linecap="butt" stroke-width="4.5" target-height="178.96002" target-width="178.96002" target-x="602.6" target-y="512"></path><path d="M 602.60 690.96 L 781.56 690.96 L 781.56 869.92 L 602.60 869.92 Z" fill="#02c3ff" fill-rule="nonzero" node-id="64" stroke="#262d33" stroke-linecap="butt" stroke-width="4.5" target-height="178.95996" target-width="178.96002" target-x="602.6" target-y="690.96"></path><path d="M 602.60 693.21 L 423.60 693.21 C 422.39 693.18 421.42 692.21 421.40 691.00 L 421.40 512.00 L 425.90 512.00 L 425.90 688.71 L 600.35 688.71 L 600.35 512.00 L 604.85 512.00 L 604.85 691.00 C 604.83 692.23 603.83 693.21 602.60 693.21 Z" fill="#262d33" fill-rule="nonzero" node-id="66" stroke="none" target-height="181.2102" target-width="183.44998" target-x="421.4" target-y="512"></path><path d="M 736.82 288.30 L 647.34 288.30 L 647.34 198.82 L 736.82 288.30 Z" fill="#fe7236" fill-rule="nonzero" node-id="68" stroke="none" target-height="89.47998" target-width="89.47998" target-x="647.34" target-y="198.82"></path><path d="M 736.82 290.55 L 647.34 290.55 C 646.10 290.55 645.09 289.54 645.09 288.30 L 645.09 198.82 C 645.09 197.91 645.64 197.09 646.48 196.74 C 647.32 196.40 648.29 196.59 648.93 197.23 L 738.41 286.71 C 739.05 287.35 739.24 288.32 738.90 289.16 C 738.55 290.00 737.73 290.55 736.82 290.55 Z M 649.59 286.05 L 731.39 286.05 L 649.59 204.26 Z" fill="#262d33" fill-rule="nonzero" node-id="70" stroke="none" target-height="94.15477" target-width="94.154724" target-x="645.09" target-y="196.39522"></path><path d="M 692.08 556.74 L 692.08 556.74 C 716.79 556.74 736.82 576.77 736.82 601.48 L 736.82 601.48 C 736.82 626.19 716.79 646.22 692.08 646.22 L 692.08 646.22 C 667.37 646.22 647.34 626.19 647.34 601.48 L 647.34 601.48 C 647.34 576.77 667.37 556.74 692.08 556.74 Z" fill="#ffa836" fill-rule="nonzero" node-id="72" stroke="none" target-height="89.47998" target-width="89.47998" target-x="647.34" target-y="556.74"></path><path d="M 692.08 648.47 C 666.12 648.47 645.08 627.43 645.08 601.47 C 645.08 575.51 666.12 554.47 692.08 554.47 C 718.04 554.47 739.08 575.51 739.08 601.47 C 739.08 627.43 718.04 648.47 692.08 648.47 Z M 692.08 558.99 C 668.61 558.99 649.59 578.01 649.59 601.48 C 649.59 624.95 668.61 643.97 692.08 643.97 C 715.55 643.97 734.57 624.95 734.57 601.48 C 734.54 578.03 715.53 559.03 692.08 559.00 Z" fill="#262d33" fill-rule="nonzero" node-id="74" stroke="none" target-height="94" target-width="94" target-x="645.08" target-y="554.47"></path><path d="M 423.65 512.00 L 423.65 690.95 L 244.69 512.00 L 423.65 512.00 Z" fill="#0078ff" fill-rule="nonzero" node-id="76" stroke="none" target-height="178.95001" target-width="178.95999" target-x="244.69" target-y="512"></path><path d="M 423.65 693.20 C 423.05 693.20 422.48 692.96 422.06 692.54 L 243.06 513.59 C 242.41 512.95 242.22 511.98 242.57 511.14 C 242.92 510.30 243.74 509.75 244.65 509.75 L 423.65 509.75 C 424.89 509.75 425.90 510.76 425.90 512.00 L 425.90 691.00 C 425.90 691.91 425.35 692.73 424.51 693.08 C 424.23 693.17 423.94 693.21 423.65 693.20 Z M 250.12 514.20 L 421.40 685.52 L 421.40 514.25 Z" fill="#262d33" fill-rule="nonzero" node-id="78" stroke="none" target-height="183.46472" target-width="183.68245" target-x="242.21754" target-y="509.75"></path><path d="M 518.07 415.10 C 518.07 415.10 516.63 420.47 513.95 415.10 C 513.33 413.89 512.39 411.41 511.19 408.17 C 510.38 406.01 509.45 403.52 508.43 400.82 C 504.21 389.69 498.09 375.31 492.17 367.96 C 496.82 379.18 502.49 396.10 504.02 414.68 C 504.02 414.68 506.09 429.37 502.77 424.00 C 501.83 422.47 499.29 417.34 495.99 410.59 L 495.99 410.59 C 495.06 408.70 494.09 406.68 493.05 404.59 C 484.94 387.97 474.21 366.19 469.89 360.94 C 463.07 352.67 455.61 342.94 451.49 338.39 C 447.37 333.84 437.00 329.50 436.17 303.44 C 435.56 284.09 435.86 267.25 436.05 259.85 C 436.17 254.81 438.26 250.01 441.87 246.49 C 445.02 243.49 449.87 240.43 457.23 238.67 C 459.02 238.25 460.83 237.91 462.65 237.67 C 470.31 236.67 476.31 235.74 480.93 234.93 C 485.41 234.24 489.85 233.28 494.22 232.08 L 494.22 248.41 C 494.22 248.41 486.80 253.00 473.00 258.46 C 471.12 265.15 470.07 272.05 469.89 279.00 C 469.89 306.09 470.72 309.00 472.37 311.26 C 473.30 312.54 478.46 316.18 483.65 320.74 C 478.88 322.80 479.04 328.60 479.04 328.60 C 480.44 331.11 481.52 331.06 484.47 331.05 C 487.42 331.04 486.47 334.32 486.47 334.32 C 486.47 334.32 485.55 336.49 490.05 335.25 C 494.55 334.01 496.26 341.61 496.26 341.61 C 496.92 341.79 497.58 341.93 498.26 342.01 C 506.52 360.52 521.42 397.88 518.07 415.10 Z" fill="#fbf5f0" fill-rule="nonzero" node-id="80" stroke="none" target-height="197.29" target-width="85.859985" target-x="435.56" target-y="232.08"></path><path d="M 503.94 426.68 C 502.67 426.68 501.81 425.29 501.50 424.78 C 500.56 423.27 498.37 418.86 494.65 411.24 C 494.63 411.20 494.61 411.16 494.59 411.12 L 493.32 408.52 L 491.71 405.22 C 485.22 391.94 473.16 367.22 468.71 361.86 C 465.97 358.54 463.16 355.02 460.44 351.63 C 456.51 346.71 452.80 342.07 450.36 339.37 C 449.64 338.63 448.89 337.92 448.10 337.25 C 443.03 332.78 435.37 326.03 434.65 303.46 C 434.05 284.46 434.32 267.93 434.53 259.78 C 434.65 254.34 436.90 249.17 440.81 245.38 C 444.81 241.52 450.22 238.76 456.87 237.18 C 458.70 236.75 460.56 236.42 462.43 236.18 C 469.32 235.28 475.43 234.36 480.65 233.45 C 485.06 232.75 489.44 231.82 493.75 230.65 C 494.21 230.50 494.71 230.58 495.09 230.87 C 495.47 231.15 495.70 231.60 495.70 232.08 L 495.70 248.41 C 495.70 248.93 495.44 249.41 495.00 249.68 C 494.70 249.87 487.55 254.29 474.24 259.59 C 472.50 265.92 471.55 272.44 471.39 279.00 C 471.39 305.44 472.22 308.50 473.58 310.38 C 474.88 311.64 476.27 312.82 477.73 313.90 C 479.73 315.48 482.17 317.45 484.64 319.61 C 485.02 319.95 485.21 320.47 485.13 320.97 C 485.04 321.48 484.71 321.91 484.24 322.12 C 481.04 323.50 480.61 327.07 480.55 328.21 C 481.35 329.56 481.78 329.56 484.33 329.55 L 484.33 329.55 C 485.48 329.47 486.60 329.95 487.33 330.84 C 487.97 331.81 488.20 332.99 487.97 334.12 C 488.52 334.06 489.05 333.95 489.58 333.80 C 490.88 333.42 492.28 333.61 493.44 334.32 C 495.74 335.70 496.93 338.79 497.44 340.32 C 497.77 340.39 498.09 340.44 498.44 340.48 C 498.96 340.54 499.42 340.88 499.63 341.36 C 506.81 357.45 523.12 396.88 519.53 415.36 C 519.53 415.39 519.53 415.43 519.53 415.46 C 519.33 416.23 518.53 418.74 516.47 418.95 C 514.41 419.16 513.04 416.59 512.62 415.74 C 511.99 414.50 511.07 412.11 509.79 408.66 L 509.20 407.10 C 508.54 405.33 507.82 403.39 507.03 401.32 C 504.83 395.50 502.03 388.64 499.03 382.42 C 502.36 392.85 504.54 403.62 505.52 414.53 C 507.09 425.63 505.52 426.20 504.58 426.53 C 504.38 426.62 504.16 426.67 503.94 426.68 Z M 497.40 410.00 C 499.61 414.53 501.82 419.00 503.15 421.54 C 503.06 419.30 502.85 417.07 502.53 414.85 C 501.00 396.26 495.30 379.39 490.78 368.49 C 490.48 367.80 490.74 366.99 491.39 366.60 C 492.04 366.21 492.88 366.37 493.34 366.97 C 499.41 374.51 505.66 389.23 509.83 400.25 L 512.00 406.03 L 512.59 407.61 C 513.80 410.86 514.72 413.26 515.29 414.38 C 515.52 414.88 515.81 415.34 516.15 415.77 C 516.34 415.44 516.50 415.09 516.61 414.72 C 520.01 396.92 503.08 356.53 497.23 343.34 C 496.77 343.25 496.31 343.15 495.85 343.02 C 495.35 342.88 494.95 342.50 494.80 342.00 C 494.57 341.00 493.55 337.90 491.96 336.94 C 491.51 336.66 490.96 336.59 490.45 336.75 C 488.86 337.19 486.61 337.62 485.45 336.30 C 484.90 335.64 484.74 334.73 485.04 333.92 C 485.16 333.53 485.16 333.10 485.04 332.71 C 484.88 332.62 484.70 332.59 484.52 332.61 L 484.52 332.61 C 481.52 332.61 479.58 332.61 477.77 329.39 C 477.65 329.18 477.59 328.94 477.58 328.70 C 477.58 328.46 477.48 323.49 481.14 320.58 C 479.26 318.99 477.43 317.58 475.89 316.30 C 473.13 314.10 471.78 313.01 471.20 312.20 C 469.33 309.62 468.43 307.14 468.43 279.06 C 468.60 271.98 469.66 264.95 471.59 258.13 C 471.71 257.67 472.05 257.30 472.49 257.13 C 479.47 254.46 486.24 251.27 492.76 247.61 L 492.76 234.00 C 490.76 234.50 487.12 235.33 481.23 236.36 C 475.99 237.28 469.82 238.21 462.88 239.12 C 461.11 239.36 459.35 239.70 457.62 240.12 C 451.51 241.57 446.57 244.12 442.95 247.56 C 439.61 250.80 437.69 255.23 437.59 259.88 C 437.38 268.00 437.11 284.44 437.71 303.38 C 438.39 324.66 445.46 330.90 450.15 335.02 C 451.06 335.83 451.92 336.59 452.64 337.37 C 455.14 340.14 458.88 344.82 462.85 349.77 C 465.56 353.16 468.36 356.67 471.09 359.97 C 475.38 365.19 485.39 385.39 494.44 403.92 L 496.06 407.22 L 497.38 409.93 Z M 518.07 415.06 L 518.07 415.06 Z M 487.86 334.85 L 487.86 334.85 Z" fill="#262d33" fill-rule="nonzero" node-id="82" stroke="none" target-height="196.17972" target-width="89.07001" target-x="434.05" target-y="230.50027"></path><path d="M 493.05 208.48 C 493.05 208.48 486.90 220.00 480.93 234.91 C 476.31 235.72 470.31 236.65 462.65 237.65 C 460.83 237.89 459.02 238.23 457.23 238.65 L 457.23 238.65 L 479.23 196.92 Z" fill="#fbf5f0" fill-rule="nonzero" node-id="84" stroke="none" target-height="41.729996" target-width="35.819977" target-x="457.23" target-y="196.92"></path><path d="M 457.23 240.14 C 456.83 240.14 456.45 239.99 456.17 239.70 C 455.88 239.42 455.73 239.04 455.73 238.64 C 455.73 238.39 455.79 238.15 455.91 237.93 L 477.91 196.20 C 478.11 195.80 478.48 195.52 478.91 195.42 C 479.35 195.34 479.81 195.45 480.16 195.74 L 494.00 207.32 C 494.54 207.78 494.69 208.55 494.36 209.18 C 494.30 209.30 488.17 220.82 482.30 235.46 C 482.11 235.94 481.68 236.29 481.17 236.38 C 475.93 237.30 469.76 238.23 462.82 239.14 C 461.05 239.38 459.29 239.72 457.56 240.14 C 457.45 240.15 457.34 240.15 457.23 240.14 Z M 479.66 199.24 L 460.00 236.53 C 460.79 236.39 461.60 236.27 462.42 236.16 C 468.96 235.31 474.80 234.43 479.82 233.57 C 484.62 221.72 489.51 212.01 491.13 208.85 Z" fill="#262d33" fill-rule="nonzero" node-id="86" stroke="none" target-height="44.81784" target-width="38.961" target-x="455.72733" target-y="195.33575"></path><path d="M 492.17 368.00 L 492.17 368.00" fill="#fbf5f0" fill-rule="nonzero" node-id="88" stroke="none" target-height="0" target-width="0" target-x="492.17" target-y="368"></path><path d="M 492.17 369.46 C 491.77 369.46 491.38 369.30 491.10 369.01 C 490.81 368.73 490.65 368.34 490.65 367.94 C 490.65 367.11 491.32 366.44 492.15 366.44 C 492.99 366.45 493.66 367.12 493.67 367.96 C 493.67 368.79 493.00 369.46 492.17 369.46 Z" fill="#262d33" fill-rule="nonzero" node-id="90" stroke="none" target-height="3.019989" target-width="3.0219727" target-x="490.64804" target-y="366.44"></path><path d="M 456.54 285.00 L 456.09 267.00 C 456.06 265.39 457.10 263.96 458.63 263.48 C 464.00 261.78 468.80 260.06 473.00 258.41" fill="#fbf5f0" fill-rule="nonzero" node-id="92" stroke="none" target-height="26.589996" target-width="16.935394" target-x="456.0646" target-y="258.41"></path><path d="M 456.54 286.51 C 456.13 286.52 455.74 286.37 455.45 286.08 C 455.16 285.80 455.00 285.41 455.00 285.00 L 454.55 267.00 C 454.51 264.72 455.97 262.69 458.14 262.00 C 463.06 260.45 467.86 258.76 472.41 257.00 C 473.17 256.72 474.02 257.10 474.32 257.86 C 474.62 258.62 474.26 259.47 473.51 259.79 C 468.90 261.60 464.03 263.32 459.04 264.90 C 458.15 265.19 457.54 266.02 457.55 266.96 L 458.00 284.96 C 458.01 285.36 457.86 285.74 457.59 286.03 C 457.32 286.32 456.94 286.49 456.54 286.50 Z" fill="#262d33" fill-rule="nonzero" node-id="94" stroke="none" target-height="29.799744" target-width="20.105347" target-x="454.51276" target-y="256.7211"></path><path d="M 492.17 368.00 L 492.17 368.00 C 490.25 363.26 488.07 358.64 485.63 354.14" fill="#fbf5f0" fill-rule="nonzero" node-id="96" stroke="none" target-height="13.859985" target-width="6.5400085" target-x="485.63" target-y="354.14"></path><path d="M 492.17 369.46 C 491.77 369.46 491.38 369.30 491.10 369.01 C 490.96 368.87 490.84 368.70 490.77 368.51 C 488.87 363.83 486.71 359.26 484.31 354.82 C 483.90 354.10 484.15 353.18 484.87 352.77 C 485.60 352.37 486.51 352.62 486.92 353.34 C 489.37 357.85 491.56 362.50 493.49 367.25 C 493.61 367.47 493.67 367.71 493.67 367.96 C 493.67 368.79 493.00 369.46 492.17 369.46 Z" fill="#262d33" fill-rule="nonzero" node-id="98" stroke="none" target-height="17.095673" target-width="9.768707" target-x="483.9013" target-y="352.3663"></path><path d="M 498.27 342.00 C 497.59 341.92 496.93 341.78 496.27 341.60 C 496.27 341.60 494.56 334.01 490.06 335.24 C 485.56 336.47 486.48 334.31 486.48 334.31 C 486.48 334.31 487.42 331.02 484.48 331.04 C 481.54 331.06 480.48 331.10 479.05 328.59 C 479.05 328.59 478.89 322.79 483.66 320.73 C 485.46 319.95 487.96 319.73 491.46 320.51 C 504.18 323.51 500.46 333.23 503.25 336.95 C 505.68 340.22 502.79 342.53 498.27 342.00 Z" fill="#0078ff" fill-rule="nonzero" node-id="100" stroke="none" target-height="22.799988" target-width="26.789978" target-x="478.89" target-y="319.73"></path><path d="M 499.47 343.59 C 499.01 343.59 498.55 343.56 498.10 343.51 L 498.10 343.51 C 497.34 343.42 496.59 343.27 495.86 343.06 C 495.34 342.92 494.94 342.52 494.80 342.00 C 494.57 341.00 493.55 337.90 491.96 336.94 C 491.51 336.66 490.96 336.59 490.45 336.75 C 488.86 337.19 486.61 337.62 485.45 336.30 C 484.90 335.64 484.74 334.73 485.04 333.92 C 485.16 333.53 485.16 333.10 485.04 332.71 C 485.04 332.71 484.89 332.60 484.51 332.61 C 481.51 332.61 479.57 332.61 477.76 329.39 C 477.64 329.18 477.58 328.94 477.57 328.70 C 477.57 328.43 477.44 321.85 483.08 319.42 C 485.41 318.42 488.35 318.31 491.82 319.11 C 501.73 321.42 502.72 327.90 503.38 332.18 C 503.46 333.55 503.83 334.89 504.47 336.11 C 506.23 338.45 505.66 340.25 505.17 341.11 C 504.22 342.67 502.11 343.59 499.47 343.59 Z M 498.47 340.53 C 500.66 340.77 502.19 340.23 502.56 339.53 C 502.86 339.02 502.38 338.24 502.07 337.83 C 501.01 336.41 500.72 334.54 500.42 332.55 C 499.76 328.24 499.07 323.79 491.14 321.95 C 488.31 321.29 486.00 321.34 484.27 322.09 C 481.07 323.47 480.64 327.04 480.58 328.18 C 481.38 329.53 481.81 329.53 484.36 329.52 L 484.36 329.52 C 485.51 329.44 486.63 329.92 487.36 330.81 C 488.00 331.78 488.23 332.96 488.00 334.09 C 488.55 334.03 489.08 333.92 489.61 333.77 C 490.91 333.39 492.31 333.58 493.47 334.29 C 495.77 335.67 496.96 338.76 497.47 340.29 C 497.81 340.44 498.13 340.49 498.44 340.53 Z M 487.89 334.89 L 487.89 334.89 Z" fill="#262d33" fill-rule="nonzero" node-id="102" stroke="none" target-height="25.279999" target-width="28.790009" target-x="477.44" target-y="318.31"></path><path d="M 476.87 337.28 C 476.87 337.28 480.44 356.68 497.65 342.09" fill="#fbf5f0" fill-rule="nonzero" node-id="104" stroke="none" target-height="19.399994" target-width="20.779999" target-x="476.87" target-y="337.28"></path><path d="M 486.39 349.00 C 485.33 349.00 484.29 348.82 483.29 348.47 C 477.07 346.25 475.46 337.88 475.39 337.52 C 475.24 336.71 475.78 335.92 476.59 335.77 C 477.40 335.62 478.19 336.16 478.34 336.97 C 478.34 337.04 479.71 343.97 484.34 345.65 C 487.52 346.78 491.68 345.18 496.71 340.92 C 497.34 340.38 498.29 340.46 498.83 341.09 C 499.36 341.73 499.28 342.67 498.65 343.21 C 494.08 347.09 490.00 349.00 486.39 349.00 Z" fill="#262d33" fill-rule="nonzero" node-id="106" stroke="none" target-height="13.384033" target-width="24.12259" target-x="475.23813" target-y="335.61813"></path><path d="M 511.19 408.17 C 510.81 410.36 510.19 412.67 509.13 412.67 C 507.13 412.67 508.40 401.12 508.43 400.82 C 509.45 403.52 510.38 406.00 511.19 408.17 Z" fill="#fbf5f0" fill-rule="nonzero" node-id="108" stroke="none" target-height="11.850006" target-width="4.0599976" target-x="507.13" target-y="400.82"></path><path d="M 509.13 414.17 C 508.54 414.17 507.99 413.91 507.60 413.47 C 506.40 412.14 506.18 407.84 506.93 400.70 C 507.00 400.01 507.54 399.45 508.23 399.35 C 508.92 399.24 509.59 399.64 509.83 400.29 L 512.00 406.07 L 512.59 407.65 C 512.69 407.89 512.71 408.16 512.67 408.42 C 512.18 411.27 511.38 414.17 509.13 414.17 Z M 509.51 407.97 C 509.51 408.30 509.51 408.61 509.51 408.90 C 509.51 408.72 509.59 408.52 509.63 408.31 Z" fill="#262d33" fill-rule="nonzero" node-id="110" stroke="none" target-height="14.925446" target-width="6.5341187" target-x="506.18" target-y="399.24457"></path><path d="M 496.00 410.57 L 496.00 410.57 C 495.69 413.00 495.00 416.06 493.81 416.06 C 492.00 416.06 492.87 406.44 493.06 404.54 C 494.09 406.66 495.06 408.68 496.00 410.57 Z" fill="#fbf5f0" fill-rule="nonzero" node-id="112" stroke="none" target-height="11.519989" target-width="4" target-x="492" target-y="404.54"></path><path d="M 493.80 417.58 C 493.22 417.57 492.66 417.32 492.28 416.88 C 491.09 415.56 490.85 411.36 491.56 404.40 C 491.63 403.73 492.13 403.19 492.79 403.07 C 493.45 402.95 494.11 403.29 494.40 403.89 C 494.95 405.02 495.49 406.13 496.02 407.20 L 497.34 409.91 C 497.44 410.12 497.49 410.34 497.49 410.57 L 497.49 410.57 C 497.49 410.63 497.49 410.70 497.49 410.76 C 496.87 415.48 495.74 417.58 493.80 417.58 Z M 494.18 410.28 C 494.18 411.04 494.18 411.72 494.18 412.28 C 494.27 411.86 494.35 411.36 494.44 410.78 Z" fill="#262d33" fill-rule="nonzero" node-id="114" stroke="none" target-height="14.625732" target-width="6.6447144" target-x="490.85" target-y="402.95425"></path><path d="M 438.56 561.20 C 434.00 561.19 429.64 559.38 426.42 556.15 C 423.20 552.93 421.39 548.56 421.40 544.00 C 421.40 542.76 422.41 541.75 423.65 541.75 C 424.89 541.75 425.90 542.76 425.90 544.00 C 425.90 550.99 431.57 556.66 438.56 556.66 C 445.55 556.66 451.22 550.99 451.22 544.00 C 451.22 542.76 452.23 541.75 453.47 541.75 C 454.71 541.75 455.72 542.76 455.72 544.00 C 455.73 548.56 453.92 552.93 450.70 556.15 C 447.48 559.38 443.12 561.19 438.56 561.20 Z" fill="#262d33" fill-rule="nonzero" node-id="116" stroke="none" target-height="19.450012" target-width="34.330627" target-x="421.39468" target-y="541.75"></path><path d="M 468.39 561.20 C 458.90 561.19 451.21 553.49 451.22 544.00 C 451.22 542.76 452.23 541.75 453.47 541.75 C 454.71 541.75 455.72 542.76 455.72 544.00 C 455.59 548.61 457.98 552.93 461.95 555.27 C 465.92 557.61 470.85 557.61 474.82 555.27 C 478.79 552.93 481.18 548.61 481.05 544.00 C 481.05 542.76 482.06 541.75 483.30 541.75 C 484.54 541.75 485.55 542.76 485.55 544.00 C 485.56 548.56 483.75 552.93 480.53 556.15 C 477.31 559.38 472.95 561.19 468.39 561.20 Z" fill="#262d33" fill-rule="nonzero" node-id="118" stroke="none" target-height="19.450012" target-width="34.34082" target-x="451.21448" target-y="541.75"></path><path d="M 498.21 561.20 C 493.65 561.19 489.29 559.38 486.07 556.15 C 482.85 552.93 481.04 548.56 481.05 544.00 C 481.05 542.76 482.06 541.75 483.30 541.75 C 484.54 541.75 485.55 542.76 485.55 544.00 C 485.42 548.61 487.81 552.93 491.78 555.27 C 495.75 557.61 500.68 557.61 504.65 555.27 C 508.62 552.93 511.01 548.61 510.88 544.00 C 510.88 542.76 511.89 541.75 513.13 541.75 C 514.37 541.75 515.38 542.76 515.38 544.00 C 515.39 553.49 507.70 561.19 498.21 561.20 Z" fill="#262d33" fill-rule="nonzero" node-id="120" stroke="none" target-height="19.450012" target-width="34.34082" target-x="481.04468" target-y="541.75"></path><path d="M 528.00 561.20 C 518.53 561.17 510.87 553.47 510.88 544.00 C 510.88 542.76 511.89 541.75 513.13 541.75 C 514.37 541.75 515.38 542.76 515.38 544.00 C 515.38 550.99 521.05 556.66 528.04 556.66 C 535.03 556.66 540.70 550.99 540.70 544.00 C 540.70 542.76 541.71 541.75 542.95 541.75 C 544.19 541.75 545.20 542.76 545.20 544.00 C 545.21 548.56 543.39 552.94 540.17 556.17 C 536.94 559.39 532.56 561.21 528.00 561.20 Z" fill="#262d33" fill-rule="nonzero" node-id="122" stroke="none" target-height="19.455322" target-width="34.336395" target-x="510.86893" target-y="541.75"></path><path d="M 557.86 561.20 C 553.30 561.19 548.94 559.38 545.72 556.15 C 542.50 552.93 540.69 548.56 540.70 544.00 C 540.70 542.76 541.71 541.75 542.95 541.75 C 544.19 541.75 545.20 542.76 545.20 544.00 C 545.07 548.61 547.46 552.93 551.43 555.27 C 555.40 557.61 560.33 557.61 564.30 555.27 C 568.27 552.93 570.66 548.61 570.53 544.00 C 570.53 542.76 571.54 541.75 572.78 541.75 C 574.02 541.75 575.03 542.76 575.03 544.00 C 575.04 553.49 567.35 561.19 557.86 561.20 Z" fill="#262d33" fill-rule="nonzero" node-id="124" stroke="none" target-height="19.450012" target-width="34.34082" target-x="540.6947" target-y="541.75"></path><path d="M 587.69 561.20 C 583.13 561.19 578.77 559.38 575.55 556.15 C 572.33 552.93 570.52 548.56 570.53 544.00 C 570.53 542.76 571.54 541.75 572.78 541.75 C 574.02 541.75 575.03 542.76 575.03 544.00 C 575.03 550.99 580.70 556.66 587.69 556.66 C 594.68 556.66 600.35 550.99 600.35 544.00 C 600.35 542.76 601.36 541.75 602.60 541.75 C 603.84 541.75 604.85 542.76 604.85 544.00 C 604.86 548.56 603.05 552.93 599.83 556.15 C 596.61 559.38 592.25 561.19 587.69 561.20 Z" fill="#262d33" fill-rule="nonzero" node-id="126" stroke="none" target-height="19.450012" target-width="34.330566" target-x="570.5247" target-y="541.75"></path></svg>