<?xml version="1.0" standalone="no"?><!DOCTYPE svg PUBLIC "-//W3C//DTD SVG 1.1//EN" "http://www.w3.org/Graphics/SVG/1.1/DTD/svg11.dtd"><svg height="1024" node-id="1" sillyvg="true" template-height="1024" template-width="1024" version="1.1" viewBox="0 0 1024 1024" width="1024" xmlns="http://www.w3.org/2000/svg" xmlns:xlink="http://www.w3.org/1999/xlink"><defs node-id="35"></defs><path d="M 416.96 145.50 L 564.22 145.50 L 564.22 292.76 L 416.96 292.76 Z" fill="#02c3ff" fill-rule="nonzero" node-id="37" stroke="none" target-height="147.26001" target-width="147.25998" target-x="416.96" target-y="145.5"></path><path d="M 564.22 295.00 L 417.00 295.00 C 415.76 295.00 414.75 293.99 414.75 292.75 L 414.75 145.50 C 414.75 144.26 415.76 143.25 417.00 143.25 L 564.22 143.25 C 565.46 143.25 566.47 144.26 566.47 145.50 L 566.47 292.76 C 566.46 294.00 565.46 295.00 564.22 295.00 Z M 419.22 290.50 L 562.00 290.50 L 562.00 147.75 L 419.21 147.75 Z" fill="#262d33" fill-rule="nonzero" node-id="39" stroke="none" target-height="151.75" target-width="151.71997" target-x="414.75" target-y="143.25"></path><path d="M 564.22 145.50 L 711.48 145.50 L 711.48 292.76 L 564.22 292.76 Z" fill="#02c3ff" fill-rule="nonzero" node-id="41" stroke="none" target-height="147.26001" target-width="147.26001" target-x="564.22" target-y="145.5"></path><path d="M 711.49 295.00 L 564.22 295.00 C 562.98 295.00 561.97 293.99 561.97 292.75 L 561.97 145.50 C 561.97 144.26 562.98 143.25 564.22 143.25 L 711.49 143.25 C 712.73 143.25 713.74 144.26 713.74 145.50 L 713.74 292.76 C 713.73 294.00 712.73 295.00 711.49 295.00 Z M 566.49 290.50 L 709.24 290.50 L 709.24 147.75 L 566.47 147.75 Z" fill="#262d33" fill-rule="nonzero" node-id="43" stroke="none" target-height="151.75" target-width="151.77002" target-x="561.97" target-y="143.25"></path><path d="M 596.49 177.77 L 596.49 177.77 C 642.18 177.77 679.22 214.81 679.22 260.50 L 679.22 260.50 L 679.22 260.50 L 596.49 260.50 L 596.49 260.50 L 596.49 177.77 L 596.49 177.77 Z" fill="#ffa836" fill-rule="nonzero" node-id="45" stroke="none" target-height="82.729996" target-width="82.72998" target-x="596.49" target-y="177.77"></path><path d="M 679.22 262.75 L 596.49 262.75 C 595.25 262.75 594.24 261.74 594.24 260.50 L 594.24 177.77 C 594.24 176.53 595.25 175.52 596.49 175.52 C 643.42 175.56 681.45 213.59 681.49 260.52 C 681.48 261.12 681.24 261.69 680.82 262.11 C 680.39 262.52 679.82 262.76 679.22 262.75 Z M 598.74 258.25 L 676.94 258.25 C 675.70 215.59 641.40 181.29 598.74 180.05 Z" fill="#262d33" fill-rule="nonzero" node-id="47" stroke="none" target-height="87.23534" target-width="87.25" target-x="594.24" target-y="175.52"></path><path d="M 738.39 542.70 L 601.00 594.53 C 586.03 554.86 547.96 528.70 505.56 528.95 C 463.17 529.19 425.40 555.79 410.89 595.63 L 272.89 545.39 L 269.77 544.26 L 269.77 145.50 L 417.00 145.50 L 417.00 398.61 C 445.45 387.67 475.67 382.07 506.15 382.11 C 612.34 382.11 703.00 448.85 738.39 542.70 Z" fill="#02c3ff" fill-rule="nonzero" node-id="49" stroke="none" target-height="450.13" target-width="468.62003" target-x="269.77" target-y="145.5"></path><path d="M 410.85 597.88 C 410.59 597.88 410.33 597.84 410.08 597.75 L 268.93 546.37 C 268.04 546.05 267.45 545.21 267.45 544.26 L 267.45 145.50 C 267.45 144.26 268.46 143.25 269.70 143.25 L 417.00 143.25 C 418.24 143.25 419.25 144.26 419.25 145.50 L 419.25 395.35 C 548.41 347.67 691.85 413.11 740.50 541.91 C 740.71 542.47 740.69 543.09 740.44 543.63 C 740.19 544.17 739.74 544.59 739.18 544.81 L 601.75 596.64 C 600.59 597.07 599.29 596.49 598.85 595.33 C 584.19 556.58 546.98 531.03 505.55 531.27 C 464.12 531.51 427.21 557.48 413.00 596.40 C 412.68 597.31 411.81 597.90 410.85 597.88 Z M 272.00 542.68 L 273.64 543.28 L 409.58 592.76 C 425.00 553.14 463.04 526.96 505.55 526.71 C 548.07 526.46 586.42 552.20 602.29 591.64 L 735.53 541.39 C 686.43 414.99 544.36 352.09 417.77 400.71 C 417.08 400.97 416.30 400.88 415.69 400.46 C 415.08 400.04 414.71 399.35 414.71 398.61 L 414.71 147.75 L 272.00 147.75 Z" fill="#262d33" fill-rule="nonzero" node-id="51" stroke="none" target-height="454.65143" target-width="473.26215" target-x="267.4488" target-y="143.25"></path><path d="M 311.07 515.29 L 311.07 186.87 L 375.60 186.87 L 375.60 458.87 L 431.83 437.21 C 524.07 401.80 628.48 436.49 681.18 520.07 L 619.34 543.39 C 592.14 507.98 549.94 487.33 505.29 487.59 C 460.64 487.85 418.68 508.99 391.89 544.71 Z" fill="#0078ff" fill-rule="nonzero" node-id="53" stroke="none" target-height="357.84003" target-width="370.11" target-x="311.07" target-y="186.87"></path><path d="M 391.89 547.00 C 391.63 547.00 391.37 546.96 391.12 546.87 L 310.30 517.40 C 309.41 517.08 308.82 516.24 308.82 515.29 L 308.82 186.87 C 308.82 185.63 309.83 184.62 311.07 184.62 L 375.60 184.62 C 376.84 184.62 377.85 185.63 377.85 186.87 L 377.85 455.59 L 431.00 435.11 C 524.25 399.32 629.79 434.39 683.07 518.87 C 683.43 519.44 683.51 520.14 683.30 520.78 C 683.08 521.42 682.59 521.93 681.96 522.17 L 620.11 545.49 C 619.19 545.84 618.14 545.55 617.54 544.76 C 590.77 509.91 549.23 489.59 505.28 489.84 C 461.33 490.10 420.04 510.90 393.67 546.06 C 393.26 546.64 392.60 546.99 391.89 547.00 Z M 313.32 513.76 L 391.10 542.00 C 418.61 506.34 461.06 485.41 506.10 485.31 C 550.57 485.32 592.59 505.73 620.10 540.67 L 677.80 518.91 C 625.09 437.86 522.91 404.67 432.64 439.28 L 376.41 461.00 C 375.71 461.26 374.93 461.17 374.32 460.75 C 373.70 460.34 373.33 459.64 373.32 458.90 L 373.32 189.12 L 313.32 189.12 Z" fill="#262d33" fill-rule="nonzero" node-id="55" stroke="none" target-height="362.38147" target-width="374.69275" target-x="308.8188" target-y="184.62"></path><path d="M 754.30 630.31 C 754.33 659.27 749.29 688.01 739.39 715.22 C 704.71 810.48 613.39 878.50 506.11 878.50 C 399.87 878.50 309.23 811.76 273.82 717.91 L 411.25 666.08 C 431.01 718.48 489.50 744.94 541.90 725.18 C 594.30 705.42 620.76 646.93 601.00 594.53 L 738.39 542.70 C 748.94 570.70 754.33 600.39 754.30 630.31 Z" fill="#02c3ff" fill-rule="nonzero" node-id="57" stroke="none" target-height="335.8" target-width="480.51447" target-x="273.82" target-y="542.7"></path><path d="M 506.11 880.75 C 401.89 880.77 308.54 816.25 271.72 718.75 C 271.49 718.20 271.49 717.58 271.72 717.03 C 271.97 716.47 272.43 716.02 273.00 715.80 L 410.46 664.00 C 411.62 663.57 412.92 664.15 413.36 665.31 C 432.68 716.53 489.86 742.40 541.08 723.08 C 592.30 703.76 618.17 646.58 598.85 595.36 C 598.64 594.80 598.66 594.18 598.90 593.64 C 599.15 593.09 599.60 592.67 600.16 592.46 L 737.60 540.60 C 738.16 540.39 738.78 540.40 739.32 540.65 C 739.87 540.90 740.29 541.35 740.50 541.91 C 769.51 618.86 758.90 705.14 712.12 772.77 C 665.34 840.40 588.34 880.75 506.11 880.75 Z M 276.73 719.22 C 325.18 845.59 466.61 909.09 593.24 861.33 C 719.87 813.57 784.14 672.49 737.07 545.60 L 603.83 595.85 C 622.34 648.92 595.16 707.08 542.58 726.92 C 489.99 746.77 431.17 721.07 410.00 669.00 Z" fill="#262d33" fill-rule="nonzero" node-id="59" stroke="none" target-height="368.7035" target-width="512.64966" target-x="271.49" target-y="540.38635"></path><path d="M 496.00 590.92 L 493.61 591.69 C 493.61 591.69 502.12 599.85 495.61 603.75 C 495.61 603.75 492.24 604.38 491.14 602.89 C 491.14 602.89 493.36 598.24 490.27 598.05 C 489.53 597.92 488.78 598.17 488.27 598.73 C 487.77 599.29 487.59 600.07 487.80 600.79 C 487.80 600.79 486.48 604.27 480.63 599.19 C 479.86 598.88 479.20 598.35 478.72 597.67 C 478.06 596.67 478.00 595.06 480.31 592.84 C 482.85 590.25 486.44 588.97 490.05 589.38 C 490.05 589.38 485.35 582.22 492.37 580.80 C 499.39 579.38 502.91 587.37 496.00 590.92 Z" fill="#ffa836" fill-rule="nonzero" node-id="61" stroke="none" target-height="25" target-width="24.910004" target-x="478" target-y="579.38"></path><path d="M 494.00 605.39 C 492.46 605.52 490.94 604.92 489.90 603.78 C 489.57 603.34 489.52 602.75 489.76 602.25 C 490.20 601.43 490.40 600.49 490.34 599.56 C 490.28 599.57 490.21 599.57 490.15 599.56 C 489.67 599.56 489.41 599.62 489.34 599.70 C 489.23 599.95 489.19 600.24 489.24 600.51 C 489.29 600.79 489.27 601.07 489.17 601.34 C 488.74 602.34 487.86 603.08 486.80 603.34 C 484.90 603.81 482.61 602.88 479.80 600.47 C 478.84 600.04 478.02 599.35 477.43 598.47 C 476.70 597.34 475.96 594.94 479.25 591.77 C 481.50 589.54 484.45 588.16 487.60 587.85 C 486.89 586.21 486.81 584.36 487.39 582.66 C 487.89 581.47 489.09 579.94 492.05 579.34 C 496.72 578.34 499.89 580.91 500.86 583.66 C 501.83 586.41 500.86 590.09 496.65 592.27 L 496.43 592.36 L 496.26 592.36 C 497.82 594.28 499.84 597.41 499.50 600.45 C 499.25 602.38 498.08 604.08 496.36 604.99 C 496.21 605.09 496.04 605.15 495.87 605.18 C 495.25 605.31 494.63 605.38 494.00 605.39 Z M 493.00 602.29 C 493.69 602.40 494.39 602.40 495.08 602.29 C 495.89 601.85 496.43 601.05 496.55 600.14 C 496.84 597.51 493.78 593.91 492.55 592.75 C 492.17 592.38 492.01 591.84 492.13 591.33 C 492.25 590.82 492.63 590.40 493.13 590.24 L 495.40 589.51 C 498.10 588.07 498.54 586.05 498.04 584.63 C 497.54 583.21 495.57 581.63 492.66 582.25 C 491.32 582.52 490.48 583.03 490.17 583.78 C 489.54 585.28 490.80 587.78 491.29 588.54 C 491.62 589.04 491.61 589.70 491.28 590.19 C 490.94 590.69 490.34 590.94 489.75 590.83 C 486.62 590.51 483.52 591.64 481.34 593.91 C 480.42 594.79 479.44 596.01 479.98 596.84 C 480.28 597.25 480.69 597.57 481.16 597.77 C 481.32 597.83 481.47 597.93 481.60 598.04 C 484.43 600.49 485.73 600.48 486.05 600.42 C 486.12 600.41 486.18 600.38 486.24 600.35 C 486.19 599.39 486.49 598.44 487.10 597.69 C 487.94 596.80 489.15 596.37 490.36 596.53 C 491.44 596.53 492.43 597.09 493.00 598.00 C 493.58 599.37 493.58 600.92 493.00 602.29 Z M 496.00 590.92 L 496.00 590.92 Z" fill="#262d33" fill-rule="nonzero" node-id="63" stroke="none" target-height="27.176636" target-width="25.869995" target-x="475.96" target-y="578.34"></path><path d="M 575.83 702.39 C 570.20 709.80 560.35 715.54 543.34 724.59 L 543.34 724.59 C 543.20 724.66 543.06 724.71 542.92 724.75 C 531.20 729.33 518.72 731.67 506.13 731.65 C 501.19 731.47 496.58 729.15 493.48 725.31 C 493.45 725.29 493.43 725.25 493.41 725.22 C 491.86 723.36 488.25 719.22 489.49 709.06 C 490.66 698.59 493.63 688.39 498.27 678.93 C 496.38 679.96 494.41 680.84 492.37 681.55 L 480.15 685.90 C 476.98 687.03 477.21 688.47 476.47 693.67 L 471.16 725.46 C 465.00 723.20 459.08 720.34 453.48 716.92 L 451.82 685.00 C 451.49 680.88 452.02 677.32 455.38 675.42 L 489.64 655.83 L 484.16 638.00 C 460.16 654.12 444.58 652.37 437.32 654.00 C 429.61 655.76 424.13 653.25 426.98 650.79 C 429.83 648.33 460.57 639.54 465.98 636.90 C 471.39 634.26 487.87 616.19 489.59 615.00 C 491.31 613.81 487.87 610.16 487.87 610.16 C 479.20 613.29 478.76 597.72 478.76 597.72 C 479.24 598.40 479.90 598.93 480.67 599.24 C 486.52 604.32 487.84 600.84 487.84 600.84 C 487.63 600.12 487.81 599.34 488.31 598.78 C 488.82 598.22 489.57 597.97 490.31 598.10 C 493.40 598.29 491.18 602.94 491.18 602.94 C 492.28 604.43 495.65 603.80 495.65 603.80 L 497.75 611.30 C 503.11 611.84 504.75 615.54 514.45 641.45 C 523.36 664.67 517.81 686.51 513.97 697.01 C 512.89 699.93 511.32 706.08 514.09 707.49 C 517.99 709.49 526.44 707.23 533.71 704.36 C 546.80 698.77 556.31 691.70 563.44 686.90 Z" fill="#fbf5f0" fill-rule="nonzero" node-id="65" stroke="none" target-height="133.94714" target-width="151.70001" target-x="424.13" target-y="597.72"></path><path d="M 506.11 733.15 C 500.73 732.96 495.70 730.45 492.31 726.27 L 492.23 726.17 L 492.23 726.17 C 490.51 724.10 486.68 719.50 487.98 708.87 C 489.04 699.65 491.44 690.62 495.10 682.09 C 494.38 682.39 493.63 682.68 492.86 682.95 L 480.63 687.31 C 478.76 687.97 478.63 688.31 478.17 692.13 C 478.10 692.66 478.03 693.24 477.94 693.87 L 472.62 725.70 C 472.54 726.12 472.27 726.49 471.90 726.70 C 471.51 726.93 471.04 726.97 470.62 726.82 C 464.37 724.52 458.36 721.62 452.68 718.15 C 452.28 717.90 452.03 717.47 452.00 717.00 L 450.36 685.08 C 450.06 681.31 450.28 676.61 454.68 674.08 L 487.89 655.08 L 483.36 640.26 C 464.76 652.33 451.14 653.78 442.91 654.66 C 441.16 654.81 439.42 655.05 437.69 655.38 C 431.78 656.72 426.34 655.81 425.05 653.25 C 424.46 651.94 424.88 650.40 426.05 649.57 C 427.78 648.09 435.71 645.45 448.55 641.29 C 455.70 638.96 463.10 636.56 465.34 635.47 C 468.82 633.77 477.98 624.47 483.45 618.86 C 486.45 615.86 487.87 614.38 488.58 613.86 C 488.30 613.13 487.90 612.45 487.38 611.86 C 485.65 612.33 483.79 612.02 482.30 611.02 C 477.70 607.88 477.30 598.78 477.30 597.75 C 477.29 597.08 477.72 596.47 478.37 596.28 C 479.02 596.09 479.71 596.35 480.07 596.92 C 480.38 597.32 480.78 597.64 481.25 597.83 C 481.41 597.89 481.56 597.99 481.69 598.10 C 484.69 600.68 485.95 600.52 486.18 600.47 L 486.33 600.41 C 486.28 599.45 486.58 598.50 487.19 597.75 C 488.03 596.86 489.24 596.43 490.45 596.59 C 491.48 596.61 492.44 597.13 493.00 598.00 C 493.58 599.37 493.58 600.90 493.00 602.27 C 493.78 602.40 494.57 602.40 495.35 602.27 C 496.11 602.13 496.86 602.59 497.07 603.34 L 498.90 609.90 C 504.49 610.95 506.61 616.21 515.82 640.90 C 524.82 664.38 519.39 686.44 515.35 697.50 C 513.84 701.58 513.56 705.50 514.74 706.14 C 517.56 707.57 524.43 706.38 533.13 702.94 C 544.23 698.21 552.67 692.41 559.45 687.76 C 560.54 687.02 561.57 686.30 562.57 685.63 C 563.22 685.21 564.08 685.34 564.57 685.94 L 577.00 701.45 C 577.42 701.99 577.42 702.75 577.00 703.29 C 571.00 711.22 560.00 717.40 544.00 725.91 L 543.77 726.01 C 543.61 726.08 543.45 726.14 543.29 726.19 C 531.44 730.81 518.83 733.17 506.11 733.15 Z M 494.60 724.34 C 497.45 727.85 501.66 729.97 506.18 730.15 C 518.56 730.17 530.82 727.86 542.35 723.36 C 542.56 723.29 542.63 723.25 542.71 723.22 L 542.71 723.22 C 557.71 715.22 568.07 709.42 573.87 702.41 L 563.10 688.87 L 561.10 690.20 C 554.20 694.93 545.63 700.82 534.22 705.69 C 527.27 708.43 518.05 711.18 513.33 708.78 C 509.11 706.63 511.61 698.78 512.48 696.44 C 516.38 685.78 521.63 664.51 512.97 641.94 C 503.24 615.94 501.80 613.17 497.52 612.74 C 496.90 612.68 496.39 612.25 496.23 611.65 L 494.47 605.38 C 493.06 605.44 490.98 605.25 489.89 603.78 C 489.56 603.34 489.51 602.75 489.75 602.25 C 490.19 601.43 490.39 600.49 490.33 599.56 C 490.27 599.57 490.20 599.57 490.14 599.56 C 489.66 599.56 489.41 599.62 489.34 599.70 C 489.21 599.96 489.17 600.25 489.23 600.53 C 489.28 600.80 489.26 601.08 489.16 601.34 C 488.73 602.34 487.85 603.08 486.79 603.34 C 485.07 603.77 483.02 603.04 480.55 601.10 C 481.02 603.89 482.00 607.22 483.89 608.50 C 484.91 609.13 486.19 609.21 487.28 608.70 C 487.84 608.49 488.47 608.64 488.88 609.08 C 489.54 609.78 491.69 612.23 491.48 614.30 C 491.40 615.06 491.00 615.75 490.37 616.18 C 489.91 616.51 487.66 618.80 485.49 621.01 C 477.59 629.01 470.20 636.42 466.56 638.20 C 464.13 639.39 456.96 641.72 449.37 644.20 C 440.90 646.95 429.30 650.71 427.91 651.90 L 427.73 652.07 C 428.43 652.73 431.78 653.68 436.93 652.51 C 438.77 652.15 440.63 651.89 442.50 651.73 C 450.71 650.86 464.44 649.40 483.27 636.73 C 483.67 636.47 484.16 636.40 484.61 636.56 C 485.07 636.72 485.42 637.10 485.55 637.56 L 491.02 655.44 C 491.23 656.11 490.94 656.83 490.33 657.18 L 456.07 676.77 C 453.72 678.10 452.91 680.47 453.27 684.93 L 454.86 716.10 C 459.65 718.97 464.66 721.43 469.86 723.46 L 474.86 693.46 L 475.09 691.80 C 475.59 687.95 475.86 685.80 479.51 684.53 L 491.74 680.18 C 493.69 679.49 495.59 678.65 497.41 677.66 C 497.99 677.33 498.71 677.42 499.19 677.89 C 499.67 678.35 499.79 679.07 499.48 679.66 C 494.98 688.96 492.11 698.97 491.00 709.24 C 489.86 718.59 493.00 722.35 494.49 724.15 L 494.59 724.27 L 494.59 724.27 L 494.65 724.33 C 494.71 724.41 494.76 724.49 494.81 724.58 C 494.75 724.49 494.68 724.41 494.60 724.34 Z" fill="#262d33" fill-rule="nonzero" node-id="67" stroke="none" target-height="137.08575" target-width="152.96344" target-x="424.4605" target-y="596.0871"></path><path d="M 506.11 731.65 C 513.03 732.00 528.45 730.53 542.90 724.76" fill="#fbf5f0" fill-rule="nonzero" node-id="69" stroke="none" target-height="7.23999" target-width="36.79004" target-x="506.11" target-y="724.76"></path><path d="M 508.10 733.20 C 507.33 733.20 506.63 733.20 506.03 733.15 C 505.20 733.11 504.56 732.40 504.61 731.58 C 504.65 730.75 505.35 730.11 506.18 730.15 C 513.04 730.50 528.32 728.97 542.35 723.37 C 542.85 723.13 543.45 723.19 543.90 723.52 C 544.35 723.86 544.57 724.42 544.48 724.97 C 544.38 725.52 543.99 725.98 543.46 726.15 C 532.19 730.58 520.21 732.97 508.10 733.20 Z" fill="#262d33" fill-rule="nonzero" node-id="71" stroke="none" target-height="10.071533" target-width="40.005524" target-x="504.56357" target-y="723.1285"></path><path d="M 488.61 634.81 C 487.09 635.92 485.61 636.97 484.16 637.94" fill="#fbf5f0" fill-rule="nonzero" node-id="73" stroke="none" target-height="3.130005" target-width="4.4499817" target-x="484.16" target-y="634.81"></path><path d="M 484.16 639.44 C 483.50 639.44 482.92 639.01 482.73 638.38 C 482.54 637.75 482.78 637.07 483.32 636.70 C 484.77 635.70 486.25 634.70 487.72 633.60 C 488.38 633.19 489.24 633.36 489.71 633.99 C 490.17 634.61 490.08 635.48 489.50 636.00 C 487.99 637.11 486.50 638.18 484.99 639.18 C 484.75 639.35 484.46 639.44 484.16 639.44 Z" fill="#262d33" fill-rule="nonzero" node-id="75" stroke="none" target-height="6.245117" target-width="7.632782" target-x="482.53717" target-y="633.1949"></path><path d="M 506.07 658.57 C 506.07 658.57 513.21 670.65 498.25 678.93" fill="#fbf5f0" fill-rule="nonzero" node-id="77" stroke="none" target-height="20.359985" target-width="14.960022" target-x="498.25" target-y="658.57"></path><path d="M 498.25 680.43 C 497.57 680.43 496.97 679.97 496.80 679.31 C 496.63 678.65 496.92 677.95 497.52 677.62 C 502.07 675.11 504.88 672.00 505.87 668.40 C 506.62 665.34 506.23 662.12 504.78 659.33 C 504.42 658.62 504.67 657.76 505.35 657.36 C 506.04 656.95 506.92 657.15 507.36 657.81 C 509.23 661.28 509.74 665.33 508.77 669.15 C 507.57 673.58 504.27 677.32 498.97 680.25 C 498.75 680.37 498.50 680.43 498.25 680.43 Z" fill="#262d33" fill-rule="nonzero" node-id="79" stroke="none" target-height="23.47644" target-width="13.109039" target-x="496.62717" target-y="656.95355"></path><path d="M 356.05 680.00 C 355.34 680.01 354.73 679.52 354.57 678.83 C 354.41 678.14 354.76 677.44 355.40 677.14 C 360.33 674.80 363.94 674.46 366.40 676.14 C 366.78 676.38 367.11 676.68 367.40 677.02 C 367.95 677.64 367.89 678.60 367.27 679.15 C 366.65 679.70 365.69 679.64 365.14 679.02 C 365.03 678.89 364.90 678.77 364.75 678.68 C 363.22 677.68 360.43 678.11 356.64 679.91 C 356.45 679.98 356.25 680.01 356.05 680.00 Z M 382.85 660.00 C 382.62 660.00 382.39 659.95 382.18 659.84 C 382.03 659.84 378.12 658.56 373.68 657.55 C 373.13 657.45 372.68 657.07 372.51 656.54 C 372.34 656.01 372.47 655.43 372.86 655.03 C 373.24 654.63 373.82 654.48 374.35 654.63 C 377.45 655.32 380.51 656.16 383.52 657.16 C 384.14 657.47 384.47 658.17 384.31 658.84 C 384.15 659.52 383.54 660.00 382.85 660.00 Z" fill="#262d33" fill-rule="nonzero" node-id="81" stroke="none" target-height="25.532043" target-width="30.052032" target-x="354.4132" target-y="654.4778"></path><path d="M 405.32 667.20 L 399.91 669.28 L 375.29 678.73 C 374.21 679.15 373.00 679.11 371.95 678.60 C 370.90 678.10 370.10 677.18 369.77 676.06 C 369.56 675.38 369.47 674.67 369.50 673.96 C 368.94 675.62 367.81 677.04 366.32 677.96 C 367.08 678.84 367.49 679.95 367.49 681.11 L 367.43 681.73 L 342.16 691.43 L 341.81 690.70 C 340.31 687.38 339.45 683.81 339.25 680.17 C 338.65 672.61 341.98 665.28 348.07 660.76 C 354.11 656.02 361.85 654.02 369.43 655.24 C 370.90 655.45 372.43 655.76 374.02 656.11 C 378.08 657.01 381.91 658.11 382.85 658.45 C 382.89 658.60 382.94 658.75 383.00 658.90 C 384.02 661.51 386.03 663.61 388.60 664.73 C 391.16 665.86 394.07 665.92 396.68 664.90 L 396.73 664.90 C 398.23 664.32 399.58 663.40 400.67 662.22 C 401.76 662.14 402.85 662.43 403.75 663.04 C 406.24 665.14 405.32 667.20 405.32 667.20 Z" fill="#fe7236" fill-rule="nonzero" node-id="83" stroke="none" target-height="37.411804" target-width="67.59079" target-x="338.6492" target-y="654.0182"></path><path d="M 342.16 693.00 C 341.58 693.00 341.05 692.67 340.80 692.14 L 340.45 691.40 C 338.87 687.91 337.96 684.15 337.75 680.32 C 337.11 672.27 340.67 664.46 347.15 659.64 C 353.50 654.64 361.67 652.53 369.65 653.83 C 370.98 654.01 372.52 654.31 374.34 654.71 C 378.34 655.60 382.18 656.71 383.34 657.09 C 383.86 657.26 384.24 657.69 384.34 658.23 C 384.37 658.29 384.39 658.35 384.41 658.41 C 385.56 661.33 388.12 663.46 391.21 664.04 C 394.29 664.63 397.46 663.58 399.59 661.28 C 399.87 660.97 400.27 660.80 400.69 660.80 C 402.12 660.72 403.53 661.13 404.69 661.97 C 407.34 664.18 407.18 666.71 406.69 667.86 C 406.53 668.22 406.23 668.50 405.86 668.65 L 375.86 680.18 C 374.38 680.76 372.73 680.69 371.31 679.99 C 370.33 679.53 369.51 678.78 368.95 677.85 C 368.77 678.04 368.58 678.23 368.39 678.40 C 368.81 679.27 369.02 680.22 369.02 681.19 L 368.95 681.94 C 368.90 682.51 368.53 682.99 368.00 683.20 L 342.72 692.90 C 342.54 692.97 342.35 693.00 342.16 693.00 Z M 365.00 656.42 C 359.19 656.43 353.55 658.39 349.00 662.00 C 343.32 666.23 340.21 673.08 340.76 680.14 C 340.95 683.39 341.69 686.59 342.95 689.59 L 365.95 680.74 C 365.88 680.11 365.62 679.52 365.20 679.04 C 364.88 678.70 364.74 678.24 364.82 677.78 C 364.89 677.33 365.17 676.93 365.58 676.71 C 366.75 675.95 367.63 674.81 368.07 673.49 C 368.32 672.79 369.05 672.37 369.79 672.52 C 370.52 672.68 371.03 673.34 370.98 674.09 C 370.96 674.62 371.02 675.15 371.18 675.66 C 371.39 676.38 371.89 676.97 372.57 677.28 C 373.24 677.62 374.03 677.65 374.73 677.37 L 404.00 666.11 C 403.88 665.35 403.45 664.67 402.81 664.23 C 402.37 663.93 401.84 663.77 401.30 663.77 C 400.15 664.88 398.79 665.75 397.30 666.33 C 394.31 667.50 390.99 667.43 388.05 666.16 C 385.17 664.91 382.90 662.58 381.72 659.68 C 380.17 659.22 376.98 658.31 373.72 657.59 C 371.97 657.20 370.51 656.92 369.24 656.74 C 367.84 656.53 366.42 656.42 365.00 656.42 Z M 405.31 667.20 L 405.31 667.20 Z M 405.31 667.20 L 405.31 667.20 Z" fill="#262d33" fill-rule="nonzero" node-id="85" stroke="none" target-height="40.476563" target-width="70.225464" target-x="337.11453" target-y="652.5282"></path><path d="M 406.39 650.65 L 402.59 659.32 C 402.12 660.40 401.47 661.39 400.67 662.25 C 399.58 663.43 398.23 664.35 396.73 664.93 L 396.68 664.93 C 394.07 665.95 391.16 665.89 388.60 664.76 C 386.03 663.64 384.02 661.54 383.00 658.93 C 382.94 658.78 382.89 658.63 382.85 658.48 C 381.98 655.98 382.09 653.24 383.15 650.81 L 386.89 642.35 L 389.62 648.19 C 393.86 647.28 398.19 649.23 400.33 653.00 Z" fill="#fe7236" fill-rule="nonzero" node-id="87" stroke="none" target-height="23.599182" target-width="24.4086" target-x="381.9814" target-y="642.35"></path><path d="M 392.84 667.16 C 391.18 667.16 389.54 666.82 388.02 666.16 C 385.07 664.88 382.76 662.47 381.61 659.47 C 381.53 659.28 381.46 659.08 381.41 658.88 C 380.44 656.04 380.57 652.94 381.78 650.20 L 385.51 641.74 C 385.75 641.20 386.28 640.85 386.87 640.84 C 387.45 640.86 387.98 641.19 388.24 641.71 L 390.50 646.53 C 394.56 646.10 398.53 647.87 400.92 651.18 L 405.84 649.26 C 406.41 649.03 407.06 649.16 407.48 649.61 C 407.90 650.05 408.02 650.70 407.76 651.26 L 403.96 659.94 C 403.43 661.17 402.69 662.30 401.77 663.28 C 400.52 664.63 398.98 665.68 397.27 666.34 C 395.86 666.89 394.35 667.16 392.84 667.16 Z M 386.93 646.00 L 384.52 651.44 C 383.61 653.52 383.52 655.87 384.27 658.01 C 384.29 658.08 384.31 658.14 384.32 658.21 C 384.35 658.27 384.37 658.33 384.39 658.39 C 385.54 661.31 388.10 663.44 391.19 664.02 C 394.27 664.61 397.44 663.56 399.57 661.26 C 400.26 660.52 400.81 659.67 401.22 658.75 L 403.56 653.40 L 400.87 654.40 C 400.18 654.67 399.39 654.39 399.02 653.74 C 397.21 650.53 393.53 648.86 389.93 649.62 C 389.25 649.77 388.55 649.43 388.26 648.79 Z" fill="#262d33" fill-rule="nonzero" node-id="89" stroke="none" target-height="26.324036" target-width="27.576385" target-x="380.43896" target-y="640.84"></path><path d="M 366.15 679.57 C 365.60 679.57 365.10 679.29 364.82 678.82 C 364.62 678.49 364.56 678.09 364.66 677.71 C 364.75 677.34 365.00 677.02 365.33 676.82 L 365.46 676.74 C 366.18 676.31 367.10 676.52 367.56 677.22 C 367.98 677.90 367.78 678.79 367.10 679.22 L 366.90 679.34 C 366.67 679.48 366.42 679.56 366.15 679.57 Z M 369.50 675.46 C 369.34 675.46 369.17 675.44 369.02 675.38 C 368.64 675.25 368.33 674.98 368.15 674.63 C 367.98 674.27 367.95 673.86 368.08 673.48 C 368.26 672.95 368.39 672.41 368.46 671.86 C 368.46 671.84 368.46 671.83 368.46 671.81 C 368.50 671.48 368.52 671.14 368.52 670.81 C 368.52 670.37 368.48 669.93 368.40 669.49 C 367.92 667.06 365.99 665.17 363.55 664.74 C 362.38 664.53 361.18 664.56 360.03 664.83 C 359.24 665.05 358.42 664.61 358.17 663.83 C 357.91 663.07 358.29 662.24 359.04 661.95 C 360.69 661.49 362.43 661.41 364.11 661.74 C 367.44 662.35 370.14 664.77 371.11 668.01 C 371.71 667.48 372.36 667.00 373.04 666.58 C 373.74 666.14 374.67 666.35 375.11 667.05 C 375.55 667.75 375.34 668.68 374.64 669.12 C 373.28 669.88 372.16 671.01 371.41 672.37 C 371.31 673.05 371.14 673.72 370.92 674.37 C 370.74 675.01 370.16 675.45 369.50 675.46 Z" fill="#262d33" fill-rule="nonzero" node-id="91" stroke="none" target-height="18.16095" target-width="17.646118" target-x="357.9057" target-y="661.41394"></path><path d="M 340.46 688.64 C 340.32 688.64 340.18 688.62 340.05 688.58 C 339.68 688.48 339.33 688.29 339.05 688.03 L 337.80 686.80 C 336.11 685.13 334.57 683.31 333.20 681.36 C 329.53 676.15 328.11 669.69 329.27 663.42 C 330.40 657.08 334.04 651.47 339.36 647.84 C 339.80 647.52 340.38 647.46 340.88 647.69 C 341.38 647.92 341.71 648.40 341.75 648.95 C 341.78 649.49 341.52 650.01 341.06 650.31 C 336.40 653.50 333.23 658.44 332.25 664.00 C 331.24 669.48 332.48 675.13 335.69 679.69 C 336.95 681.48 338.37 683.15 339.93 684.69 L 341.05 685.79 C 341.71 686.07 342.07 686.77 341.93 687.47 C 341.79 688.17 341.17 688.67 340.46 688.67 Z" fill="#262d33" fill-rule="nonzero" node-id="93" stroke="none" target-height="41.214172" target-width="13.960297" target-x="328.11444" target-y="647.45685"></path></svg>