<?xml version="1.0" standalone="no"?><!DOCTYPE svg PUBLIC "-//W3C//DTD SVG 1.1//EN" "http://www.w3.org/Graphics/SVG/1.1/DTD/svg11.dtd"><svg height="1024" node-id="1" sillyvg="true" template-height="1024" template-width="1024" version="1.1" viewBox="0 0 1024 1024" width="1024" xmlns="http://www.w3.org/2000/svg" xmlns:xlink="http://www.w3.org/1999/xlink"><defs node-id="35"></defs><path d="M 430.33 616.46 C 431.25 613.60 432.33 610.79 433.56 608.05 L 430.48 616.52 Z" fill="#02c3ff" fill-rule="nonzero" node-id="37" stroke="none" target-height="8.470032" target-width="3.230011" target-x="430.33" target-y="608.05"></path><path d="M 430.48 618.77 C 430.20 618.77 429.93 618.72 429.67 618.62 L 429.52 618.62 C 428.41 618.19 427.82 616.97 428.19 615.83 C 429.14 612.89 430.24 610.00 431.50 607.18 C 431.98 606.05 433.28 605.51 434.42 605.97 C 435.56 606.43 436.11 607.72 435.67 608.87 L 432.59 617.34 C 432.38 617.91 431.96 618.37 431.41 618.62 C 431.11 618.73 430.80 618.78 430.48 618.77 Z" fill="#262d33" fill-rule="nonzero" node-id="39" stroke="none" target-height="13.272095" target-width="8.290253" target-x="427.82336" target-y="605.5109"></path><path d="M 581.71 201.00 L 504.00 414.57 C 412.07 417.74 333.92 475.16 300.57 555.82 L 447.47 152.15 Z" fill="#02c3ff" fill-rule="nonzero" node-id="41" stroke="none" target-height="403.67" target-width="281.14" target-x="300.57" target-y="152.15"></path><path d="M 300.55 558.07 C 299.82 558.07 299.13 557.72 298.71 557.12 C 298.29 556.52 298.19 555.76 298.44 555.07 L 445.36 151.38 C 445.56 150.82 445.98 150.36 446.52 150.11 C 447.06 149.86 447.68 149.83 448.24 150.04 L 582.47 198.89 C 583.63 199.32 584.24 200.60 583.82 201.77 L 506.09 415.34 C 505.78 416.19 504.99 416.77 504.09 416.82 C 415.36 420.01 336.63 474.66 302.63 556.68 C 302.28 557.52 301.46 558.07 300.55 558.07 Z M 448.82 155.00 L 315.17 522.24 C 355.47 456.81 425.61 415.65 502.38 412.38 L 578.82 202.38 Z" fill="#262d33" fill-rule="nonzero" node-id="43" stroke="none" target-height="408.23898" target-width="286.04376" target-x="298.19226" target-y="149.83408"></path><path d="M 571.74 227.87 L 531.79 227.87 L 463.63 419.56 L 503.98 414.57 L 571.74 227.87 Z" fill="#fe7236" fill-rule="nonzero" node-id="45" stroke="none" target-height="191.69" target-width="108.109985" target-x="463.63" target-y="227.87"></path><path d="M 463.62 421.81 C 462.89 421.81 462.20 421.46 461.78 420.86 C 461.36 420.26 461.26 419.50 461.51 418.81 L 529.67 227.12 C 529.99 226.22 530.84 225.62 531.79 225.62 L 571.73 225.62 C 572.46 225.62 573.14 225.98 573.57 226.57 C 573.99 227.17 574.09 227.93 573.85 228.62 L 506.09 415.32 C 505.80 416.12 505.09 416.68 504.25 416.79 L 463.90 421.79 Z M 533.38 230.12 L 467.00 416.88 L 502.36 412.51 L 568.55 230.12 Z" fill="#262d33" fill-rule="nonzero" node-id="47" stroke="none" target-height="196.19095" target-width="112.831116" target-x="461.26227" target-y="225.62"></path><path d="M 512.60 731.86 C 484.21 731.84 457.55 718.25 440.85 695.29 C 424.16 672.34 419.45 642.78 428.19 615.77 C 429.14 612.83 430.24 609.95 431.50 607.13 C 449.45 566.69 494.45 545.66 536.99 557.82 C 579.53 569.98 606.61 611.63 600.47 655.45 C 594.33 699.26 556.85 731.86 512.60 731.86 Z M 512.60 558.92 C 479.31 558.93 449.15 578.52 435.60 608.92 C 434.41 611.59 433.36 614.33 432.46 617.11 C 421.20 651.81 433.56 689.83 463.08 711.26 C 492.61 732.70 532.58 732.70 562.09 711.25 C 591.61 689.80 603.96 651.79 592.68 617.08 C 581.41 582.38 549.08 558.89 512.59 558.88 Z" fill="#262d33" fill-rule="nonzero" node-id="49" stroke="none" target-height="187.04932" target-width="187.15729" target-x="419.45386" target-y="545.655"></path><path d="M 512.00 414.43 C 509.33 414.43 506.67 414.48 504.00 414.57 C 412.07 417.74 333.92 475.16 300.57 555.82 C 289.14 583.51 283.27 613.18 283.31 643.14 C 283.31 769.45 385.71 871.85 512.02 871.85 C 638.33 871.85 740.73 769.45 740.73 643.14 C 740.73 516.83 638.31 414.43 512.00 414.43 Z M 512.60 729.61 C 484.93 729.59 458.94 716.35 442.67 693.97 C 426.40 671.59 421.81 642.78 430.33 616.46 C 431.25 613.60 432.33 610.79 433.56 608.05 C 451.06 568.64 494.92 548.14 536.38 560.01 C 577.84 571.87 604.22 612.46 598.22 655.17 C 592.22 697.87 555.68 729.62 512.56 729.61 Z" fill="#02c3ff" fill-rule="nonzero" node-id="51" stroke="none" target-height="457.41998" target-width="457.45712" target-x="283.27286" target-y="414.43"></path><path d="M 512.00 874.10 C 384.65 874.10 281.00 770.49 281.00 643.10 C 280.91 518.65 379.52 416.55 503.90 412.32 C 506.59 412.23 509.31 412.18 512.00 412.18 C 639.35 412.18 743.00 515.79 743.00 643.18 C 743.00 770.57 639.35 874.10 512.00 874.10 Z M 512.00 416.68 C 509.37 416.68 506.69 416.73 504.06 416.82 C 382.11 420.99 285.44 521.12 285.54 643.14 C 285.54 768.00 387.13 869.60 512.00 869.60 C 636.87 869.60 738.46 768.00 738.46 643.14 C 738.46 518.28 636.87 416.68 512.00 416.68 Z M 512.60 731.86 C 484.21 731.84 457.55 718.25 440.85 695.29 C 424.16 672.34 419.45 642.78 428.19 615.77 C 429.14 612.83 430.24 609.95 431.50 607.13 C 449.45 566.69 494.45 545.66 536.99 557.82 C 579.53 569.98 606.61 611.63 600.47 655.45 C 594.33 699.26 556.85 731.86 512.60 731.86 Z M 512.60 558.92 C 479.31 558.93 449.15 578.52 435.60 608.92 C 434.41 611.59 433.36 614.33 432.46 617.11 C 421.20 651.81 433.56 689.83 463.08 711.26 C 492.61 732.70 532.58 732.70 562.09 711.25 C 591.61 689.80 603.96 651.79 592.68 617.08 C 581.41 582.38 549.08 558.89 512.59 558.88 Z" fill="#262d33" fill-rule="nonzero" node-id="53" stroke="none" target-height="461.91998" target-width="462.08823" target-x="280.91177" target-y="412.18"></path><path d="M 512.00 414.43 C 509.33 414.43 506.67 414.48 504.00 414.57 C 412.07 417.74 333.92 475.16 300.57 555.82 C 289.14 583.51 283.27 613.18 283.31 643.14 C 283.31 769.45 385.71 871.85 512.02 871.85 C 638.33 871.85 740.73 769.45 740.73 643.14 C 740.73 516.83 638.31 414.43 512.00 414.43 Z M 512.60 729.61 C 484.93 729.59 458.94 716.35 442.67 693.97 C 426.40 671.59 421.81 642.78 430.33 616.46 C 431.25 613.60 432.33 610.79 433.56 608.05 C 451.06 568.64 494.92 548.14 536.38 560.01 C 577.84 571.87 604.22 612.46 598.22 655.17 C 592.22 697.87 555.68 729.62 512.56 729.61 Z" fill="#02c3ff" fill-rule="nonzero" node-id="55" stroke="none" target-height="457.41998" target-width="457.45712" target-x="283.27286" target-y="414.43"></path><path d="M 512.00 874.10 C 384.65 874.10 281.00 770.49 281.00 643.10 C 280.91 518.65 379.52 416.55 503.90 412.32 C 506.59 412.23 509.31 412.18 512.00 412.18 C 639.35 412.18 743.00 515.79 743.00 643.18 C 743.00 770.57 639.35 874.10 512.00 874.10 Z M 512.00 416.68 C 509.37 416.68 506.69 416.73 504.06 416.82 C 382.11 420.99 285.44 521.12 285.54 643.14 C 285.54 768.00 387.13 869.60 512.00 869.60 C 636.87 869.60 738.46 768.00 738.46 643.14 C 738.46 518.28 636.87 416.68 512.00 416.68 Z M 512.60 731.86 C 484.21 731.84 457.55 718.25 440.85 695.29 C 424.16 672.34 419.45 642.78 428.19 615.77 C 429.14 612.83 430.24 609.95 431.50 607.13 C 449.45 566.69 494.45 545.66 536.99 557.82 C 579.53 569.98 606.61 611.63 600.47 655.45 C 594.33 699.26 556.85 731.86 512.60 731.86 Z M 512.60 558.92 C 479.31 558.93 449.15 578.52 435.60 608.92 C 434.41 611.59 433.36 614.33 432.46 617.11 C 421.20 651.81 433.56 689.83 463.08 711.26 C 492.61 732.70 532.58 732.70 562.09 711.25 C 591.61 689.80 603.96 651.79 592.68 617.08 C 581.41 582.38 549.08 558.89 512.59 558.88 Z" fill="#262d33" fill-rule="nonzero" node-id="57" stroke="none" target-height="461.91998" target-width="462.08823" target-x="280.91177" target-y="412.18"></path><path d="M 617.17 278.81 C 614.68 283.74 614.10 285.08 608.29 285.21 C 608.29 285.21 610.47 289.98 607.63 292.95 L 607.20 293.36 C 604.62 295.31 603.06 289.85 603.06 289.85 C 604.08 288.48 604.47 286.74 604.15 285.06 C 603.60 282.27 600.00 284.75 600.30 287.70 C 600.48 289.58 595.30 289.02 592.17 287.70 C 590.35 286.93 589.17 285.93 590.22 284.98 C 590.22 284.98 592.96 275.34 603.22 278.31 C 603.22 278.31 602.22 274.14 608.09 273.00 C 613.96 271.86 613.09 273.22 615.09 272.31 C 617.09 271.40 619.68 273.87 617.17 278.81 Z" fill="#0078ff" fill-rule="nonzero" node-id="59" stroke="none" target-height="23.910004" target-width="30.51001" target-x="589.17" target-y="271.4"></path><path d="M 606.07 295.27 C 605.76 295.27 605.45 295.22 605.16 295.12 C 602.89 294.36 601.81 290.94 601.61 290.26 C 601.47 289.78 601.58 289.27 601.90 288.89 C 602.60 287.91 602.89 286.68 602.70 285.49 C 602.08 285.99 601.74 286.76 601.79 287.55 C 601.87 288.39 601.49 289.20 600.79 289.67 C 598.87 291.10 594.14 290.17 591.55 289.10 C 589.55 288.28 588.55 287.31 588.34 286.10 C 588.22 285.42 588.40 284.72 588.85 284.19 C 589.82 281.40 591.74 279.03 594.28 277.51 C 596.56 276.29 599.20 275.91 601.73 276.42 C 601.87 275.77 602.12 275.15 602.49 274.60 C 603.74 272.89 605.64 271.76 607.75 271.50 C 609.60 271.02 611.52 270.88 613.42 271.09 C 613.76 271.16 614.12 271.10 614.42 270.92 C 615.78 270.30 617.39 270.62 618.42 271.70 C 620.02 273.38 620.01 276.28 618.42 279.44 L 618.31 279.66 C 616.13 283.98 615.09 286.04 610.21 286.55 C 610.67 288.55 610.85 291.62 608.63 293.95 C 608.46 294.12 608.28 294.28 608.10 294.43 C 607.53 294.92 606.82 295.22 606.07 295.27 Z M 604.71 290.06 C 604.95 290.92 605.44 291.69 606.11 292.28 C 606.11 292.28 606.18 292.28 606.29 292.16 C 606.40 292.04 606.44 292.02 606.57 291.88 C 608.63 289.73 606.94 285.88 606.92 285.83 C 606.71 285.37 606.75 284.84 607.02 284.41 C 607.28 283.99 607.75 283.72 608.25 283.71 C 613.07 283.60 613.37 283.00 615.72 278.35 L 615.83 278.13 L 615.83 278.13 C 617.10 275.63 616.75 274.24 616.35 273.81 C 616.19 273.63 615.94 273.59 615.73 273.69 C 614.92 274.11 614.00 274.26 613.10 274.10 C 611.51 273.95 609.91 274.08 608.37 274.49 C 607.09 274.62 605.90 275.25 605.07 276.23 C 604.72 276.75 604.58 277.39 604.67 278.01 C 604.78 278.52 604.61 279.06 604.22 279.42 C 603.84 279.78 603.30 279.91 602.79 279.77 C 600.50 278.95 597.97 279.10 595.79 280.17 C 593.84 281.37 592.38 283.23 591.68 285.41 C 591.65 285.51 591.61 285.60 591.57 285.69 C 591.94 285.95 592.34 286.17 592.77 286.33 C 594.66 287.13 596.72 287.48 598.77 287.33 C 598.77 284.81 600.70 282.63 602.54 282.33 C 603.27 282.22 604.01 282.42 604.59 282.87 C 605.17 283.33 605.54 284.00 605.61 284.73 C 605.97 286.56 605.65 288.45 604.71 290.06 Z" fill="#262d33" fill-rule="nonzero" node-id="61" stroke="none" target-height="24.966766" target-width="31.803345" target-x="588.2167" target-y="270.30322"></path><path d="M 600.49 328.89 C 600.19 328.53 597.49 325.31 594.15 321.63 C 594.76 318.78 595.20 315.89 595.47 312.98 C 597.54 320.00 600.33 328.38 600.49 328.89 Z" fill="#fbf5f0" fill-rule="nonzero" node-id="63" stroke="none" target-height="15.910004" target-width="6.339966" target-x="594.15" target-y="312.98"></path><path d="M 600.49 330.39 C 600.05 330.39 599.62 330.19 599.34 329.85 C 598.84 329.25 596.15 326.08 593.03 322.64 C 592.71 322.27 592.58 321.78 592.68 321.30 C 593.28 318.51 593.71 315.68 593.97 312.83 C 594.04 312.12 594.61 311.55 595.32 311.48 C 596.04 311.40 596.71 311.85 596.91 312.55 C 598.11 316.66 599.74 321.83 601.75 327.93 L 601.92 328.43 C 602.14 329.12 601.84 329.86 601.21 330.21 C 600.99 330.33 600.74 330.39 600.49 330.39 Z M 595.77 321.19 C 596.11 321.57 596.45 321.94 596.77 322.31 C 596.51 321.50 596.26 320.71 596.02 319.94 C 595.94 320.36 595.86 320.78 595.77 321.19 Z" fill="#262d33" fill-rule="nonzero" node-id="65" stroke="none" target-height="18.986725" target-width="9.558838" target-x="592.5795" target-y="311.4033"></path><path d="M 600.51 330.42 C 599.94 330.42 599.41 330.10 599.16 329.58 C 598.86 329.00 598.97 328.29 599.43 327.83 C 599.71 327.55 600.09 327.39 600.49 327.39 C 600.89 327.39 601.27 327.55 601.55 327.83 C 601.84 328.12 602.00 328.51 602.01 328.92 C 602.01 329.75 601.34 330.42 600.51 330.42 Z" fill="#330f0f" fill-rule="nonzero" node-id="67" stroke="none" target-height="3.0364075" target-width="3.1473389" target-x="598.8627" target-y="327.38715"></path><path d="M 605.84 349.27 C 604.33 349.22 602.86 348.81 601.55 348.07 C 600.59 347.56 599.66 346.98 598.78 346.34 C 598.15 345.85 598.02 344.94 598.48 344.29 C 598.95 343.64 599.85 343.46 600.52 343.90 C 601.29 344.45 602.10 344.96 602.94 345.41 C 605.77 346.89 607.05 346.06 607.47 345.79 C 613.31 342.01 611.87 318.87 611.40 311.27 C 611.35 310.44 611.98 309.73 612.80 309.67 C 613.63 309.62 614.35 310.25 614.40 311.08 C 615.40 327.15 615.55 344.14 609.12 348.31 C 608.14 348.94 607.00 349.27 605.84 349.27 Z" fill="#330f0f" fill-rule="nonzero" node-id="69" stroke="none" target-height="39.65219" target-width="17.530945" target-x="598.01904" target-y="309.62253"></path><path d="M 598.06 343.86 C 595.39 345.86 590.89 347.48 583.72 345.62 C 569.67 341.99 566.20 311.85 566.20 311.85 C 566.70 311.37 567.22 310.93 567.78 310.52 L 571.02 318.36 L 575.37 317.16 C 575.28 316.62 575.23 316.08 575.20 315.54 C 575.20 315.02 575.20 314.64 575.41 314.49 C 575.94 314.07 576.84 314.42 577.93 316.49 C 578.29 317.17 578.60 317.88 578.86 318.60 C 580.35 322.49 579.57 334.44 587.37 332.93 C 587.93 332.82 588.47 332.60 588.94 332.28 C 591.33 336.61 594.41 340.52 598.06 343.86 Z" fill="#fbf5f0" fill-rule="nonzero" node-id="71" stroke="none" target-height="36.960022" target-width="31.859985" target-x="566.2" target-y="310.52"></path><path d="M 589.65 347.93 C 587.52 347.91 585.40 347.62 583.34 347.07 C 568.46 343.22 564.86 313.29 564.71 312.02 C 564.66 311.57 564.82 311.11 565.14 310.79 C 565.69 310.26 566.27 309.76 566.88 309.31 C 567.25 309.04 567.73 308.95 568.17 309.07 C 568.62 309.19 568.99 309.51 569.17 309.94 L 571.91 316.56 L 573.74 316.06 C 573.74 315.89 573.74 315.74 573.74 315.59 C 573.63 314.76 573.91 313.93 574.49 313.34 C 575.01 312.91 575.69 312.74 576.35 312.88 C 577.41 313.10 578.35 314.04 579.29 315.75 C 579.68 316.49 580.01 317.26 580.29 318.05 C 580.73 319.46 581.04 320.92 581.21 322.39 C 581.72 325.62 582.35 329.62 584.32 331.01 C 585.15 331.53 586.16 331.68 587.10 331.42 C 587.46 331.35 587.80 331.20 588.10 331.00 C 588.44 330.77 588.87 330.69 589.27 330.79 C 589.69 330.87 590.05 331.13 590.27 331.50 C 592.56 335.70 595.54 339.49 599.07 342.72 C 599.41 343.02 599.60 343.46 599.59 343.91 C 599.57 344.36 599.35 344.78 598.99 345.06 C 596.28 347.03 593.00 348.04 589.65 347.93 Z M 568.35 315.83 C 569.85 324.00 574.19 341.61 584.10 344.16 C 588.65 345.34 592.58 345.16 595.60 343.63 C 592.80 340.80 590.36 337.63 588.34 334.19 C 588.11 334.27 587.88 334.33 587.64 334.37 C 585.90 334.79 584.06 334.46 582.58 333.46 C 579.58 331.35 578.82 326.64 578.23 322.86 C 578.08 321.59 577.82 320.34 577.46 319.11 C 577.27 318.58 577.05 318.07 576.81 317.56 C 576.68 318.06 576.30 318.45 575.81 318.61 L 571.46 319.81 C 570.73 320.01 569.97 319.63 569.68 318.93 Z" fill="#262d33" fill-rule="nonzero" node-id="73" stroke="none" target-height="39.085724" target-width="34.937744" target-x="564.66144" target-y="308.9507"></path><path d="M 575.93 321.45 C 575.24 321.45 574.64 320.98 574.48 320.31 C 574.48 320.25 574.12 318.84 573.89 317.40 C 573.76 316.57 574.32 315.79 575.15 315.66 C 575.98 315.53 576.76 316.09 576.89 316.92 C 577.10 318.24 577.43 319.58 577.43 319.59 C 577.63 320.39 577.14 321.20 576.34 321.41 C 576.21 321.44 576.07 321.45 575.93 321.45 Z" fill="#262d33" fill-rule="nonzero" node-id="75" stroke="none" target-height="5.926819" target-width="3.8683472" target-x="573.75745" target-y="315.52747"></path><path d="M 682.12 388.17 C 682.12 388.17 653.47 389.24 630.73 388.49 C 626.22 388.35 621.73 388.14 619.03 384.49 L 610.75 372.31 L 601.27 378.91 C 600.16 379.88 599.38 381.17 599.04 382.61 L 588.27 427.22 L 573.76 422.87 C 573.76 422.87 578.95 389.87 581.65 376.21 C 583.90 364.78 595.81 349.70 599.65 345.08 C 599.11 344.69 598.59 344.26 598.06 343.82 C 594.41 340.47 591.33 336.55 588.94 332.21 C 586.63 328.18 584.68 323.95 583.12 319.57 C 583.12 319.57 577.63 308.48 582.24 310.49 C 584.74 311.57 589.95 316.93 594.15 321.59 C 597.48 325.27 600.15 328.49 600.49 328.85 C 600.33 328.34 597.49 319.99 595.49 312.94 L 595.49 312.94 C 594.89 310.94 594.35 308.94 593.96 307.37 C 592.15 300.08 598.96 296.18 598.96 296.18 C 592.49 297.18 592.01 291.04 592.21 287.68 C 595.36 288.98 600.52 289.54 600.34 287.68 C 600.04 284.73 603.64 282.25 604.19 285.04 C 604.51 286.72 604.12 288.46 603.10 289.83 C 603.10 289.83 604.66 295.29 607.24 293.34 C 610.83 293.87 614.11 295.69 616.46 298.45 C 626.28 310.06 634.18 323.17 639.86 337.27 C 642.86 344.79 645.16 357.70 636.23 365.53 C 623.44 376.75 678.01 373.53 678.01 373.53 Z" fill="#fbf5f0" fill-rule="nonzero" node-id="77" stroke="none" target-height="144.97" target-width="108.359985" target-x="573.76" target-y="282.25"></path><path d="M 588.27 428.76 C 588.12 428.76 587.97 428.74 587.83 428.70 L 573.33 424.35 C 572.61 424.13 572.16 423.42 572.28 422.68 C 572.33 422.35 577.50 389.49 580.18 375.96 C 582.34 364.96 592.99 350.96 597.52 345.36 L 597.14 345.04 C 593.33 341.60 590.12 337.54 587.64 333.04 C 585.30 328.95 583.32 324.66 581.73 320.22 C 578.94 314.57 578.23 310.97 579.61 309.52 C 580.04 309.06 581.04 308.41 582.84 309.20 C 585.11 310.20 589.29 314.04 595.26 320.67 C 595.78 321.24 596.26 321.80 596.77 322.35 C 595.77 319.08 594.83 316.16 594.08 313.63 C 594.05 313.57 594.03 313.50 594.01 313.44 C 593.30 311.04 592.81 309.25 592.46 307.81 C 591.55 304.14 592.55 300.26 595.13 297.49 C 594.39 297.24 593.71 296.85 593.13 296.33 C 590.76 294.19 590.46 290.44 590.62 287.67 C 590.64 287.18 590.90 286.74 591.32 286.48 C 591.73 286.22 592.24 286.18 592.69 286.37 C 594.58 287.17 596.64 287.51 598.69 287.37 C 598.69 284.85 600.62 282.67 602.46 282.37 C 603.19 282.26 603.93 282.46 604.51 282.91 C 605.09 283.37 605.46 284.04 605.53 284.77 C 605.88 286.59 605.55 288.47 604.62 290.06 C 604.86 290.92 605.35 291.69 606.02 292.28 C 606.02 292.28 606.09 292.28 606.20 292.16 C 606.53 291.91 606.94 291.81 607.35 291.88 C 611.31 292.47 614.91 294.48 617.50 297.53 L 618.00 298.13 C 627.67 309.71 635.47 322.74 641.12 336.73 C 644.91 346.17 645.84 359.00 637.12 366.68 C 635.89 367.75 635.60 368.48 635.72 368.77 C 636.83 371.48 653.23 373.52 677.82 372.08 C 678.52 372.05 679.15 372.50 679.35 373.17 L 683.50 387.76 C 683.63 388.20 683.54 388.68 683.27 389.05 C 683.00 389.42 682.58 389.65 682.12 389.67 C 681.83 389.67 653.12 390.73 630.62 389.98 C 626.32 389.86 620.96 389.70 617.77 385.42 L 610.30 374.42 L 602.14 380.11 C 601.29 380.87 600.69 381.87 600.43 382.98 L 589.66 427.59 C 589.57 427.99 589.31 428.34 588.95 428.54 C 588.74 428.67 588.51 428.74 588.27 428.76 Z M 575.45 421.85 L 587.18 425.37 L 597.58 382.30 C 597.99 380.56 598.94 379.00 600.28 377.82 L 600.41 377.72 L 609.89 371.12 C 610.22 370.89 610.63 370.80 611.02 370.87 C 611.43 370.93 611.79 371.16 612.02 371.50 L 620.30 383.68 C 622.42 386.52 625.99 386.84 630.81 386.99 C 649.88 387.62 673.40 386.99 680.18 386.74 L 676.88 375.14 C 665.88 375.74 635.82 376.71 633.03 369.91 C 632.32 368.18 633.03 366.33 635.23 364.42 C 642.81 357.78 641.86 346.34 638.46 337.85 C 632.93 324.15 625.29 311.40 615.82 300.06 L 615.28 299.41 C 613.29 297.07 610.55 295.48 607.52 294.93 C 606.80 295.31 605.96 295.37 605.19 295.12 C 602.92 294.36 601.84 290.94 601.64 290.26 C 601.50 289.78 601.61 289.27 601.93 288.89 C 602.63 287.91 602.92 286.68 602.73 285.49 C 602.11 285.99 601.77 286.76 601.82 287.55 C 601.90 288.39 601.52 289.20 600.82 289.67 C 599.34 290.77 596.20 290.47 593.65 289.79 C 593.75 291.36 594.12 293.10 595.18 294.06 C 596.17 294.82 597.46 295.07 598.66 294.74 C 599.38 294.62 600.08 295.03 600.33 295.71 C 600.57 296.40 600.29 297.16 599.66 297.52 C 599.43 297.66 593.86 300.98 595.38 307.05 C 595.71 308.41 596.17 310.10 596.83 312.36 C 596.83 312.42 596.83 312.49 596.91 312.55 C 598.11 316.66 599.74 321.83 601.75 327.93 L 601.92 328.43 C 602.14 329.11 601.84 329.86 601.22 330.20 C 600.59 330.55 599.80 330.40 599.34 329.85 C 598.84 329.25 596.15 326.08 593.03 322.64 C 587.86 316.89 583.85 313.07 581.92 312.04 C 582.47 314.44 583.33 316.76 584.46 318.94 C 584.49 319.00 584.52 319.06 584.54 319.13 C 586.07 323.41 587.98 327.55 590.24 331.50 C 592.53 335.70 595.51 339.49 599.04 342.72 C 599.54 343.14 600.04 343.54 600.53 343.90 C 600.86 344.14 601.08 344.50 601.14 344.90 C 601.19 345.31 601.07 345.73 600.80 346.05 C 597.21 350.37 585.32 365.34 583.12 376.51 C 580.76 388.49 576.44 415.61 575.45 421.85 Z" fill="#262d33" fill-rule="nonzero" node-id="79" stroke="none" target-height="146.49753" target-width="111.46338" target-x="572.16327" target-y="282.26248"></path><path d="M 610.75 373.85 C 610.09 373.85 609.51 373.42 609.31 372.79 C 609.12 372.16 609.35 371.48 609.90 371.11 L 625.33 360.40 C 626.16 359.66 627.03 358.96 627.93 358.31 C 629.16 357.41 631.93 354.44 631.00 346.26 C 630.91 345.43 631.51 344.69 632.34 344.60 C 633.16 344.50 633.91 345.10 634.00 345.93 C 635.10 355.67 631.37 359.53 629.71 360.73 C 628.87 361.35 628.05 362.01 627.28 362.73 L 627.14 362.84 L 611.63 373.61 C 611.37 373.78 611.06 373.86 610.75 373.85 Z M 626.26 361.58 L 626.26 361.58 Z" fill="#262d33" fill-rule="nonzero" node-id="81" stroke="none" target-height="29.358765" target-width="25.984009" target-x="609.11597" target-y="344.50388"></path><path d="M 577.93 316.46 C 576.84 314.46 575.93 314.07 575.41 314.46 C 575.23 314.61 575.19 314.99 575.20 315.51 C 575.23 316.05 575.28 316.59 575.37 317.13 L 571.02 318.33 L 567.78 310.49 L 565.54 305.09 L 573.69 302.64 Z" fill="#ffa836" fill-rule="nonzero" node-id="83" stroke="none" target-height="15.689972" target-width="12.390015" target-x="565.54" target-y="302.64"></path><path d="M 571.00 319.86 C 570.39 319.86 569.84 319.50 569.61 318.93 L 564.13 305.69 C 563.98 305.29 564.00 304.85 564.19 304.47 C 564.38 304.09 564.72 303.80 565.13 303.69 L 573.27 301.24 C 574.06 301.01 574.89 301.46 575.14 302.24 L 579.36 316.00 C 577.93 316.50 576.68 317.40 575.76 318.59 L 571.41 319.79 C 571.28 319.83 571.14 319.85 571.00 319.86 Z M 567.54 306.07 L 571.88 316.56 L 573.71 316.06 C 573.71 315.89 573.71 315.74 573.71 315.59 C 573.60 314.76 573.88 313.93 574.46 313.34 C 574.70 313.14 574.98 313.00 575.28 312.91 L 572.70 304.54 Z" fill="#262d33" fill-rule="nonzero" node-id="85" stroke="none" target-height="18.852112" target-width="15.383972" target-x="563.976" target-y="301.01166"></path><path d="M 530.35 321.63 C 530.35 324.08 528.36 326.07 525.91 326.07 C 523.46 326.07 521.47 324.08 521.47 321.63 C 521.47 319.18 523.46 317.19 525.91 317.19 C 528.36 317.19 530.35 319.18 530.35 321.63 Z" fill="#02c3ff" fill-rule="nonzero" node-id="87" stroke="none" target-height="8.880005" target-width="8.880005" target-x="521.47" target-y="317.19"></path><path d="M 525.91 328.32 C 523.20 328.32 520.76 326.70 519.72 324.20 C 518.68 321.70 519.25 318.82 521.17 316.90 C 523.08 314.99 525.96 314.41 528.46 315.45 C 530.96 316.48 532.59 318.92 532.59 321.63 C 532.58 325.32 529.60 328.31 525.91 328.32 Z M 525.91 319.44 C 525.02 319.44 524.22 319.97 523.88 320.78 C 523.54 321.60 523.72 322.55 524.35 323.17 C 524.97 323.80 525.92 323.99 526.74 323.65 C 527.56 323.32 528.09 322.52 528.09 321.63 C 528.09 320.42 527.12 319.45 525.91 319.44 Z" fill="#262d33" fill-rule="nonzero" node-id="89" stroke="none" target-height="13.910645" target-width="13.906555" target-x="518.6835" target-y="314.4134"></path><path d="M 641.85 773.00 C 607.45 807.50 560.72 826.88 512.00 826.85 C 410.69 826.85 328.28 744.44 328.28 643.14 C 328.21 594.41 347.58 547.66 382.10 513.26 L 419.34 550.49 C 394.83 575.09 381.08 608.41 381.12 643.14 C 381.12 715.64 440.12 774.60 512.60 774.60 C 547.32 774.63 580.63 760.87 605.21 736.35 Z" fill="#0078ff" fill-rule="nonzero" node-id="91" stroke="none" target-height="313.6231" target-width="313.63898" target-x="328.211" target-y="513.26"></path><path d="M 512.00 829.10 C 409.45 829.10 326.00 745.68 326.00 643.10 C 325.93 593.77 345.54 546.45 380.48 511.62 C 381.36 510.75 382.78 510.75 383.66 511.62 L 420.90 548.85 C 421.78 549.73 421.78 551.15 420.90 552.03 C 409.79 563.17 400.83 576.26 394.45 590.64 C 392.60 594.78 390.98 599.01 389.58 603.32 C 385.43 616.17 383.32 629.59 383.33 643.10 C 383.33 714.35 441.33 772.31 512.55 772.31 C 546.67 772.38 579.42 758.85 603.55 734.72 C 604.43 733.84 605.85 733.84 606.73 734.72 L 643.36 771.35 C 644.24 772.23 644.24 773.65 643.36 774.53 C 608.61 809.52 561.31 829.17 512.00 829.10 Z M 382.11 516.44 C 348.99 550.29 330.47 595.78 330.54 643.14 C 330.54 743.20 411.94 824.60 512.01 824.60 C 559.36 824.71 604.86 806.17 638.65 773.00 L 605.20 739.51 C 580.37 763.53 547.15 776.93 512.60 776.85 C 438.87 776.85 378.88 716.85 378.88 643.14 C 378.87 629.17 381.06 615.29 385.35 602.00 C 386.78 597.54 388.45 593.15 390.35 588.87 C 396.65 574.68 405.37 561.70 416.14 550.52 Z" fill="#262d33" fill-rule="nonzero" node-id="93" stroke="none" target-height="318.41943" target-width="318.30518" target-x="325.9322" target-y="510.7481"></path></svg>