<?xml version="1.0" standalone="no"?><!DOCTYPE svg PUBLIC "-//W3C//DTD SVG 1.1//EN" "http://www.w3.org/Graphics/SVG/1.1/DTD/svg11.dtd"><svg height="1024" node-id="1" sillyvg="true" template-height="1024" template-width="1024" version="1.1" viewBox="0 0 1024 1024" width="1024" xmlns="http://www.w3.org/2000/svg" xmlns:xlink="http://www.w3.org/1999/xlink"><defs node-id="42"></defs><path d="M 430.35 222.97 L 593.66 222.97 L 593.66 386.28 L 430.35 386.28 Z" fill="#02c3ff" fill-rule="nonzero" node-id="44" stroke="none" target-height="163.31" target-width="163.30997" target-x="430.35" target-y="222.97"></path><path d="M 593.66 388.53 L 430.35 388.53 C 429.11 388.53 428.10 387.52 428.10 386.28 L 428.10 223.00 C 428.10 221.76 429.11 220.75 430.35 220.75 L 593.66 220.75 C 594.90 220.75 595.91 221.76 595.91 223.00 L 595.91 386.28 C 595.91 387.52 594.90 388.53 593.66 388.53 Z M 432.60 384.00 L 591.41 384.00 L 591.41 225.22 L 432.60 225.22 Z" fill="#262d33" fill-rule="nonzero" node-id="46" stroke="none" target-height="167.78" target-width="167.80997" target-x="428.1" target-y="220.75"></path><path d="M 593.66 222.97 L 756.97 222.97 L 756.97 386.28 L 593.66 386.28 Z" fill="#02c3ff" fill-rule="nonzero" node-id="48" stroke="none" target-height="163.31" target-width="163.31" target-x="593.66" target-y="222.97"></path><path d="M 757.00 388.53 L 593.66 388.53 C 592.42 388.53 591.41 387.52 591.41 386.28 L 591.41 223.00 C 591.41 221.76 592.42 220.75 593.66 220.75 L 757.00 220.75 C 758.24 220.75 759.25 221.76 759.25 223.00 L 759.25 386.28 C 759.25 387.52 758.24 388.53 757.00 388.53 Z M 595.91 384.00 L 754.72 384.00 L 754.72 225.22 L 595.91 225.22 Z" fill="#262d33" fill-rule="nonzero" node-id="50" stroke="none" target-height="167.78" target-width="167.84003" target-x="591.41" target-y="220.75"></path><path d="M 593.66 386.28 L 756.97 386.28 L 756.97 549.59 L 593.66 549.59 Z" fill="#02c3ff" fill-rule="nonzero" node-id="52" stroke="none" target-height="163.31003" target-width="163.31" target-x="593.66" target-y="386.28"></path><path d="M 757.00 551.84 L 593.66 551.84 C 592.42 551.84 591.41 550.83 591.41 549.59 L 591.41 386.28 C 591.41 385.04 592.42 384.03 593.66 384.03 L 757.00 384.03 C 758.24 384.03 759.25 385.04 759.25 386.28 L 759.25 549.59 C 759.25 550.83 758.24 551.84 757.00 551.84 Z M 595.94 547.34 L 754.72 547.34 L 754.72 388.53 L 595.91 388.53 Z" fill="#262d33" fill-rule="nonzero" node-id="54" stroke="none" target-height="167.81003" target-width="167.84003" target-x="591.41" target-y="384.03"></path><path d="M 430.35 386.28 L 267.00 386.28 L 267.00 223.00 C 267.02 313.20 340.15 386.30 430.35 386.28 Z" fill="#02c3ff" fill-rule="nonzero" node-id="56" stroke="none" target-height="163.29657" target-width="163.35" target-x="267" target-y="223"></path><path d="M 430.35 388.53 L 267.00 388.53 C 265.76 388.53 264.75 387.52 264.75 386.28 L 264.75 223.00 C 264.75 221.76 265.76 220.75 267.00 220.75 C 268.24 220.75 269.25 221.76 269.25 223.00 C 269.25 311.81 341.51 384.06 430.32 384.06 C 431.56 384.06 432.57 385.07 432.57 386.31 C 432.57 387.55 431.56 388.56 430.32 388.56 Z M 269.28 384.00 L 391.93 384.00 C 331.27 369.40 283.90 322.05 269.28 261.39 Z" fill="#262d33" fill-rule="nonzero" node-id="58" stroke="none" target-height="167.81" target-width="167.82" target-x="264.75" target-y="220.75"></path><path d="M 757.00 712.90 L 757.00 876.21 L 593.66 876.21 L 593.66 712.90 L 611.45 712.90 L 611.45 793.72 C 611.45 828.99 640.04 857.58 675.31 857.58 C 710.58 857.58 739.17 828.99 739.17 793.72 L 739.17 712.90 Z" fill="#02c3ff" fill-rule="nonzero" node-id="60" stroke="none" target-height="163.31" target-width="163.34003" target-x="593.66" target-y="712.9"></path><path d="M 757.00 878.46 L 593.66 878.46 C 592.42 878.46 591.41 877.45 591.41 876.21 L 591.41 712.90 C 591.41 711.66 592.42 710.65 593.66 710.65 L 611.45 710.65 C 612.69 710.65 613.70 711.66 613.70 712.90 L 613.70 793.72 C 613.70 827.75 641.28 855.33 675.31 855.33 C 709.34 855.33 736.92 827.75 736.92 793.72 L 736.92 712.90 C 736.92 711.66 737.93 710.65 739.17 710.65 L 757.00 710.65 C 758.24 710.65 759.25 711.66 759.25 712.90 L 759.25 876.21 C 759.25 877.45 758.24 878.46 757.00 878.46 Z M 595.91 874.00 L 754.71 874.00 L 754.71 715.15 L 741.42 715.15 L 741.42 793.72 C 741.42 830.23 711.82 859.83 675.31 859.83 C 638.80 859.83 609.20 830.23 609.20 793.72 L 609.20 715.15 L 595.91 715.15 Z" fill="#262d33" fill-rule="nonzero" node-id="62" stroke="none" target-height="167.81" target-width="167.84003" target-x="591.41" target-y="710.65"></path><path d="M 739.17 712.90 L 739.17 793.72 C 739.17 828.99 710.58 857.58 675.31 857.58 C 640.04 857.58 611.45 828.99 611.45 793.72 L 611.45 712.90 L 644.12 712.90 L 644.12 793.72 C 644.12 810.95 658.09 824.92 675.32 824.92 C 692.55 824.92 706.52 810.95 706.52 793.72 L 706.52 712.90 Z" fill="#fe7236" fill-rule="nonzero" node-id="64" stroke="none" target-height="144.68" target-width="127.71997" target-x="611.45" target-y="712.9"></path><path d="M 675.32 859.83 C 638.82 859.79 609.24 830.22 609.20 793.72 L 609.20 712.90 C 609.20 711.66 610.21 710.65 611.45 710.65 L 644.12 710.65 C 645.36 710.65 646.37 711.66 646.37 712.90 L 646.37 793.72 C 645.74 804.47 651.11 814.68 660.33 820.25 C 669.55 825.81 681.09 825.81 690.31 820.25 C 699.53 814.68 704.90 804.47 704.27 793.72 L 704.27 712.90 C 704.27 711.66 705.28 710.65 706.52 710.65 L 739.17 710.65 C 740.41 710.65 741.42 711.66 741.42 712.90 L 741.42 793.72 C 741.42 811.25 734.46 828.07 722.06 840.47 C 709.67 852.86 692.85 859.83 675.32 859.83 Z M 613.70 715.15 L 613.70 793.72 C 613.70 827.75 641.28 855.33 675.31 855.33 C 709.34 855.33 736.92 827.75 736.92 793.72 L 736.92 715.15 L 708.77 715.15 L 708.77 793.72 C 708.77 812.19 693.79 827.17 675.32 827.17 C 656.85 827.17 641.87 812.19 641.87 793.72 L 641.87 715.15 Z" fill="#262d33" fill-rule="nonzero" node-id="66" stroke="none" target-height="149.18" target-width="132.22266" target-x="609.2" target-y="710.65"></path><path d="M 757.00 549.58 L 757.00 712.90 L 739.17 712.90 L 739.17 632.08 C 739.17 596.81 710.58 568.22 675.31 568.22 C 640.04 568.22 611.45 596.81 611.45 632.08 L 611.45 712.90 L 593.66 712.90 L 593.66 549.58 Z" fill="#02c3ff" fill-rule="nonzero" node-id="68" stroke="none" target-height="163.32" target-width="163.34003" target-x="593.66" target-y="549.58"></path><path d="M 757.00 715.15 L 739.17 715.15 C 737.93 715.15 736.92 714.14 736.92 712.90 L 736.92 632.08 C 736.92 598.05 709.34 570.47 675.31 570.47 C 641.28 570.47 613.70 598.05 613.70 632.08 L 613.70 712.90 C 613.70 714.14 612.69 715.15 611.45 715.15 L 593.66 715.15 C 593.06 715.15 592.49 714.92 592.07 714.49 C 591.64 714.07 591.41 713.50 591.41 712.90 L 591.41 549.58 C 591.41 548.34 592.42 547.33 593.66 547.33 L 757.00 547.33 C 758.24 547.33 759.25 548.34 759.25 549.58 L 759.25 712.90 C 759.25 714.14 758.24 715.15 757.00 715.15 Z M 741.46 710.65 L 754.75 710.65 L 754.75 551.83 L 595.91 551.83 L 595.91 710.65 L 609.20 710.65 L 609.20 632.08 C 609.20 595.57 638.80 565.97 675.31 565.97 C 711.82 565.97 741.42 595.57 741.42 632.08 Z" fill="#262d33" fill-rule="nonzero" node-id="70" stroke="none" target-height="167.82263" target-width="167.84265" target-x="591.40735" target-y="547.33"></path><path d="M 739.17 632.08 L 739.17 712.90 L 706.52 712.90 L 706.52 793.72 C 706.52 810.95 692.55 824.92 675.32 824.92 C 658.09 824.92 644.12 810.95 644.12 793.72 L 644.12 712.90 L 611.45 712.90 L 611.45 632.08 C 611.45 596.81 640.04 568.22 675.31 568.22 C 710.58 568.22 739.17 596.81 739.17 632.08 Z" fill="#0078ff" fill-rule="nonzero" node-id="72" stroke="none" target-height="256.7" target-width="127.71997" target-x="611.45" target-y="568.22"></path><path d="M 675.32 827.17 C 656.85 827.15 641.89 812.19 641.87 793.72 L 641.87 715.15 L 611.45 715.15 C 610.21 715.15 609.20 714.14 609.20 712.90 L 609.20 632.08 C 609.20 595.57 638.80 565.97 675.31 565.97 C 711.82 565.97 741.42 595.57 741.42 632.08 L 741.42 712.90 C 741.42 713.50 741.19 714.07 740.76 714.49 C 740.34 714.92 739.77 715.15 739.17 715.15 L 708.77 715.15 L 708.77 793.72 C 708.75 812.18 693.78 827.15 675.32 827.17 Z M 613.70 710.65 L 644.12 710.65 C 645.36 710.65 646.37 711.66 646.37 712.90 L 646.37 793.72 C 645.74 804.47 651.11 814.68 660.33 820.25 C 669.55 825.81 681.09 825.81 690.31 820.25 C 699.53 814.68 704.90 804.47 704.27 793.72 L 704.27 712.90 C 704.27 711.66 705.28 710.65 706.52 710.65 L 736.92 710.65 L 736.92 632.08 C 736.92 598.05 709.34 570.47 675.31 570.47 C 641.28 570.47 613.70 598.05 613.70 632.08 Z" fill="#262d33" fill-rule="nonzero" node-id="74" stroke="none" target-height="261.2" target-width="132.22266" target-x="609.2" target-y="565.97"></path><path d="M 430.35 223.00 L 430.35 386.28 C 340.15 386.30 267.02 313.20 267.00 223.00 Z" fill="#ffa836" fill-rule="nonzero" node-id="76" stroke="none" target-height="163.29657" target-width="163.35" target-x="267" target-y="223"></path><path d="M 430.35 388.53 C 339.06 388.53 264.78 314.26 264.78 222.97 C 264.78 221.73 265.79 220.72 267.03 220.72 L 430.35 220.72 C 430.95 220.72 431.53 220.96 431.95 221.39 C 432.37 221.82 432.61 222.40 432.60 223.00 L 432.60 386.28 C 432.60 387.52 431.59 388.53 430.35 388.53 Z M 269.35 225.22 C 270.55 312.22 341.13 382.81 428.15 384.01 L 428.15 225.22 Z" fill="#262d33" fill-rule="nonzero" node-id="78" stroke="none" target-height="167.81006" target-width="167.82803" target-x="264.78" target-y="220.71994"></path><path d="M 756.97 222.97 L 593.66 386.28" fill="#02c3ff" fill-rule="nonzero" node-id="80" stroke="none" target-height="163.31" target-width="163.31" target-x="593.66" target-y="222.97"></path><g node-id="119"><path d="M 592.06 384.68 L 755.37 221.37 L 758.55 224.56 L 595.25 387.86 Z" fill="#262d33" fill-rule="nonzero" group-id="1" node-id="84" stroke="none" target-height="166.48828" target-width="166.48828" target-x="592.0646" target-y="221.37488"></path></g><path d="M 482.94 222.00 L 480.06 209.74 L 476.06 192.84 L 475.81 191.77 L 432.00 191.77 L 437.00 208.59 C 438.22 208.27 439.47 208.11 440.73 208.11 C 443.19 208.09 445.60 208.82 447.63 210.21 C 452.75 213.67 444.44 216.36 439.70 217.54 L 441.27 222.73 L 483.08 222.73 Z M 457.13 211.42 C 454.50 211.21 452.33 209.29 451.79 206.71 C 451.23 204.12 452.72 202.00 455.10 202.00 C 457.73 202.21 459.90 204.13 460.44 206.71 C 461.00 209.34 459.53 211.45 457.13 211.45 Z" fill="#0078ff" fill-rule="nonzero" node-id="87" stroke="#262d33" stroke-linecap="butt" stroke-width="3" target-height="30.959991" target-width="51.079987" target-x="432" target-y="191.77"></path><path d="M 439.73 217.54 C 438.03 217.96 436.79 218.20 436.79 218.20 C 436.79 218.20 434.01 217.80 433.16 214.09 C 432.63 211.82 433.94 209.53 436.16 208.83 C 436.43 208.75 436.72 208.66 437.02 208.59 C 438.24 208.27 439.49 208.11 440.75 208.11 C 443.21 208.09 445.62 208.82 447.65 210.21 C 452.78 213.67 444.47 216.36 439.73 217.54 Z" fill="#fbf5f0" fill-rule="nonzero" node-id="89" stroke="none" target-height="10.114105" target-width="20.145844" target-x="432.63416" target-y="208.08589"></path><path d="M 436.79 219.70 L 436.57 219.70 C 436.42 219.70 432.77 219.09 431.70 214.44 C 431.03 211.43 432.76 208.40 435.70 207.44 L 436.02 207.34 L 436.64 207.17 C 437.98 206.83 439.36 206.65 440.74 206.65 C 443.51 206.62 446.21 207.44 448.50 209.00 C 450.66 210.46 450.90 211.95 450.72 212.94 C 450.45 214.48 449.05 216.79 440.09 219.03 L 440.09 219.03 C 438.35 219.46 437.09 219.71 437.09 219.71 Z M 439.73 217.54 L 439.73 217.54 Z M 440.73 209.61 C 439.60 209.61 438.47 209.76 437.37 210.04 L 436.85 210.19 L 436.54 210.27 C 435.10 210.77 434.26 212.26 434.59 213.75 C 434.75 215.04 435.59 216.16 436.79 216.67 C 437.26 216.57 438.19 216.37 439.34 216.09 C 446.05 214.41 447.69 212.81 447.74 212.39 C 447.74 212.39 447.67 212.05 446.79 211.45 C 445.01 210.24 442.91 209.60 440.76 209.61 Z" fill="#262d33" fill-rule="nonzero" node-id="91" stroke="none" target-height="13.089645" target-width="19.866486" target-x="431.0335" target-y="206.62036"></path><path d="M 512.54 168.82 C 511.53 170.62 509.50 171.59 507.47 171.24 C 507.47 171.24 507.81 174.52 505.40 175.05 L 504.68 175.15 C 502.07 175.42 497.61 174.69 497.61 172.80 C 497.61 170.73 497.85 168.66 496.86 168.25 C 495.87 167.84 494.86 164.85 495.14 163.35 C 495.42 161.85 490.59 162.60 488.97 159.78 C 487.49 157.17 482.69 173.78 491.79 176.64 C 491.00 176.97 490.17 177.18 489.32 177.28 C 487.21 177.66 485.18 176.28 484.77 174.18 C 484.83 173.37 484.37 172.51 481.14 170.26 C 477.91 168.01 480.39 163.47 480.39 163.47 C 481.13 162.93 481.49 162.01 481.32 161.11 C 480.98 159.67 480.32 156.55 482.01 153.85 C 483.70 151.15 488.81 151.44 488.81 151.44 L 488.97 150.85 C 488.97 150.85 489.84 144.64 498.83 148.09 C 498.83 148.09 500.90 146.70 504.83 148.95 C 508.76 151.20 508.12 153.10 508.12 153.10 C 508.12 153.10 511.06 153.45 511.91 155.35 C 512.76 157.25 512.60 161.40 511.91 162.43 C 512.00 162.43 514.34 165.72 512.54 168.82 Z" fill="#fe7236" fill-rule="nonzero" node-id="93" stroke="none" target-height="33.02487" target-width="36.430023" target-x="477.91" target-y="144.64"></path><path d="M 488.63 178.84 C 487.25 178.85 485.93 178.33 484.92 177.39 C 483.94 176.56 483.34 175.36 483.28 174.07 C 483.28 173.97 482.96 173.36 480.28 171.49 C 476.86 169.11 478.00 164.73 479.08 162.75 C 479.18 162.55 479.33 162.38 479.52 162.25 C 479.76 162.06 479.89 161.76 479.86 161.46 C 479.57 160.22 478.66 156.46 480.74 153.07 C 482.29 150.53 485.74 150.07 487.65 149.94 C 488.10 148.49 489.06 147.25 490.36 146.47 C 492.45 145.24 495.28 145.24 498.77 146.47 C 499.92 146.06 502.25 145.73 505.61 147.63 C 508.33 149.17 509.28 150.73 509.61 151.87 C 511.21 152.23 512.58 153.28 513.35 154.73 C 514.20 157.17 514.31 159.80 513.66 162.30 C 514.99 164.52 515.07 167.27 513.87 169.56 L 513.87 169.56 C 512.85 171.38 511.01 172.58 508.93 172.77 C 508.78 174.57 507.50 176.07 505.75 176.50 C 505.47 176.56 505.18 176.60 504.89 176.63 C 502.89 176.84 498.97 176.56 497.15 174.93 C 496.52 174.39 496.16 173.61 496.15 172.79 C 496.15 172.43 496.15 172.08 496.15 171.73 C 496.19 170.99 496.16 170.25 496.07 169.51 C 494.57 168.64 493.60 165.75 493.62 163.82 L 492.87 163.62 C 491.38 163.35 489.98 162.73 488.77 161.82 C 487.82 164.65 487.66 167.68 488.29 170.60 C 488.69 172.75 490.22 174.51 492.29 175.20 C 492.88 175.39 493.30 175.93 493.33 176.55 C 493.36 177.17 493.01 177.75 492.44 178.00 C 491.52 178.38 490.56 178.64 489.57 178.76 C 489.26 178.81 488.95 178.84 488.63 178.84 Z M 486.26 173.73 C 486.28 173.92 486.28 174.10 486.26 174.29 C 486.53 174.84 486.96 175.28 487.50 175.57 C 487.01 175.01 486.59 174.39 486.26 173.73 Z M 499.11 172.73 C 499.60 173.27 502.20 173.93 504.52 173.73 C 504.71 173.71 504.91 173.69 505.10 173.65 C 506.10 173.43 505.98 171.48 505.97 171.46 C 505.93 170.99 506.11 170.52 506.46 170.20 C 506.82 169.88 507.30 169.75 507.77 169.84 C 509.17 170.07 510.56 169.39 511.24 168.15 L 511.24 168.15 C 512.54 165.92 510.76 163.42 510.74 163.39 C 510.39 162.87 510.39 162.20 510.74 161.68 C 511.22 159.83 511.18 157.89 510.63 156.06 C 510.24 155.20 508.68 154.75 508.02 154.67 C 507.57 154.62 507.16 154.36 506.92 153.97 C 506.71 153.62 506.64 153.21 506.74 152.81 C 506.74 152.50 506.28 151.53 504.17 150.33 C 501.17 148.64 499.72 149.41 499.66 149.45 C 499.26 149.68 498.77 149.73 498.33 149.57 C 495.52 148.49 493.33 148.34 491.96 149.12 C 491.21 149.55 490.68 150.28 490.50 151.12 L 490.50 151.30 L 490.33 151.89 C 490.13 152.56 489.50 153.01 488.80 152.98 C 487.70 152.92 484.34 153.10 483.37 154.68 C 481.95 156.99 482.64 159.86 482.86 160.80 C 483.16 162.14 482.71 163.54 481.68 164.46 C 481.31 165.25 480.30 167.83 482.08 169.07 C 483.43 169.91 484.64 170.96 485.67 172.16 C 485.11 170.38 484.88 168.51 484.97 166.64 C 485.04 164.64 485.78 158.70 488.24 158.09 C 489.09 157.90 489.96 158.31 490.36 159.09 C 490.93 160.09 492.36 160.45 493.65 160.77 C 494.94 161.09 497.09 161.62 496.65 163.68 C 496.62 164.84 496.94 165.99 497.58 166.96 C 499.25 167.73 499.21 169.82 499.17 171.85 C 499.12 172.09 499.11 172.40 499.11 172.70 Z M 496.29 169.67 Z M 497.58 166.98 Z M 493.66 163.10 Z M 487.66 160.56 Z M 506.66 152.79 Z M 506.66 152.63 Z M 506.66 152.63 Z M 506.66 152.63 L 506.66 152.63 Z" fill="#262d33" fill-rule="nonzero" node-id="95" stroke="none" target-height="33.6071" target-width="38.210144" target-x="476.86" target-y="145.24"></path><path d="M 495.26 184.20 C 495.14 184.21 495.01 184.21 494.89 184.20 C 494.09 183.99 493.60 183.18 493.80 182.38 C 494.59 179.28 494.07 178.51 494.06 178.51 C 493.43 177.97 493.36 177.02 493.89 176.39 C 494.43 175.77 495.38 175.69 496.01 176.23 C 497.37 177.37 497.59 179.62 496.71 183.12 C 496.53 183.77 495.93 184.21 495.26 184.20 Z" fill="#330f0f" fill-rule="nonzero" node-id="97" stroke="none" target-height="8.523056" target-width="4.2334595" target-x="493.35654" target-y="175.69153"></path><path d="M 529.19 222.00 L 482.94 222.00 L 480.06 209.74 L 476.06 192.84 C 481.48 188.71 486.23 182.84 487.81 181.23 C 489.39 179.62 493.04 178.05 495.01 177.30 C 494.80 177.11 494.52 177.02 494.24 177.03 C 493.40 177.00 492.56 176.86 491.75 176.61 C 482.65 173.71 487.45 157.14 488.93 159.75 C 490.55 162.57 495.38 161.83 495.10 163.32 C 494.82 164.81 495.85 167.82 496.82 168.22 C 497.79 168.62 497.57 170.70 497.57 172.77 C 497.57 174.66 502.03 175.39 504.64 175.12 L 504.89 176.05 C 504.89 176.05 515.95 176.05 518.60 178.41 C 519.80 179.49 520.60 179.46 521.60 180.51 C 522.60 181.56 523.74 183.69 525.60 189.10 C 525.97 190.20 526.36 191.43 526.80 192.81 C 529.65 202.03 532.06 210.93 533.49 216.42 C 533.84 217.75 533.55 219.17 532.71 220.26 C 531.86 221.35 530.57 221.99 529.19 222.00 Z" fill="#fbf5f0" fill-rule="nonzero" node-id="99" stroke="none" target-height="64.86" target-width="57.77588" target-x="476.06" target-y="157.14"></path><path d="M 529.19 223.53 L 482.94 223.53 C 482.24 223.53 481.64 223.05 481.48 222.37 L 474.64 193.21 C 474.51 192.63 474.72 192.03 475.19 191.67 C 478.88 188.70 482.29 185.38 485.36 181.77 C 485.95 181.10 486.43 180.57 486.77 180.22 C 487.85 179.20 489.09 178.36 490.43 177.72 C 486.72 176.09 484.71 172.09 484.89 166.60 C 484.96 164.60 485.70 158.66 488.16 158.05 C 489.01 157.86 489.88 158.27 490.28 159.05 C 490.85 160.05 492.28 160.41 493.57 160.73 C 494.86 161.05 497.01 161.58 496.57 163.64 C 496.54 164.80 496.86 165.95 497.50 166.92 C 499.17 167.69 499.13 169.78 499.09 171.81 C 499.09 172.10 499.09 172.41 499.09 172.71 C 499.58 173.25 502.18 173.91 504.50 173.71 C 505.17 173.64 505.80 174.03 506.05 174.65 C 509.31 174.71 517.05 175.11 519.62 177.37 C 519.99 177.70 520.41 177.97 520.85 178.19 C 521.56 178.53 522.20 179.00 522.74 179.57 C 524.08 180.99 525.32 183.64 527.02 188.71 C 527.40 189.80 527.79 191.04 528.23 192.44 C 531.29 202.33 533.75 211.52 534.94 216.12 C 535.39 217.90 534.99 219.80 533.87 221.25 C 532.74 222.71 531.01 223.56 529.17 223.58 Z M 484.13 220.53 L 529.19 220.53 C 530.10 220.52 530.96 220.09 531.52 219.37 C 532.08 218.64 532.28 217.71 532.06 216.82 C 530.87 212.25 528.42 203.11 525.39 193.28 C 524.96 191.92 524.57 190.70 524.20 189.62 C 522.71 185.17 521.55 182.62 520.57 181.57 C 520.25 181.24 519.88 180.97 519.46 180.78 C 518.80 180.46 518.19 180.04 517.64 179.55 C 516.11 178.20 509.29 177.55 504.93 177.55 C 504.35 177.55 503.82 177.21 503.57 176.68 L 503.57 176.68 C 501.47 176.68 498.62 176.24 497.13 174.91 C 496.50 174.37 496.14 173.59 496.13 172.77 C 496.13 172.41 496.13 172.06 496.13 171.71 C 496.17 170.97 496.14 170.23 496.05 169.49 C 494.55 168.62 493.58 165.73 493.60 163.80 L 492.85 163.60 C 491.36 163.33 489.96 162.71 488.75 161.80 C 487.80 164.63 487.64 167.66 488.27 170.58 C 488.67 172.73 490.20 174.49 492.27 175.18 C 492.92 175.38 493.59 175.50 494.27 175.53 C 494.89 175.53 495.49 175.74 495.97 176.13 C 496.39 176.47 496.59 177.00 496.51 177.53 C 496.43 178.06 496.07 178.51 495.56 178.70 C 492.35 179.93 489.92 181.23 488.90 182.27 C 488.59 182.60 488.14 183.11 487.57 183.74 C 484.58 187.24 481.29 190.48 477.76 193.43 Z M 494.46 178.53 Z M 496.29 169.62 Z M 493.66 163.05 Z M 487.66 160.51 Z" fill="#262d33" fill-rule="nonzero" node-id="101" stroke="none" target-height="65.72046" target-width="60.8797" target-x="474.50806" target-y="157.85954"></path><path d="M 480.06 211.27 C 479.23 211.30 478.53 210.66 478.50 209.83 C 478.47 209.00 479.11 208.30 479.94 208.27 L 509.36 205.77 C 509.83 205.79 510.29 205.58 510.57 205.20 C 510.86 204.82 510.94 204.33 510.79 203.88 L 507.19 193.00 C 507.01 192.25 507.42 191.50 508.15 191.24 C 508.87 190.98 509.67 191.31 510.00 192.00 L 513.60 202.92 C 514.04 204.26 513.82 205.72 513.01 206.87 C 512.20 208.02 510.90 208.72 509.49 208.75 L 480.15 211.24 Z" fill="#262d33" fill-rule="nonzero" node-id="103" stroke="none" target-height="20.321304" target-width="35.57373" target-x="478.46686" target-y="190.98183"></path><path d="M 623.55 154.00 L 596.13 217.56 C 594.95 220.29 592.26 222.06 589.29 222.06 L 529.19 222.06 C 530.57 222.06 531.87 221.42 532.72 220.33 C 533.56 219.24 533.86 217.82 533.51 216.48 C 532.08 210.99 529.67 202.09 526.82 192.87 C 526.38 191.49 525.99 190.26 525.62 189.16 C 529.18 191.32 533.20 192.59 537.35 192.87 C 545.43 193.33 557.00 197.01 564.02 198.63 C 564.81 198.81 565.55 198.97 566.21 199.09 C 569.85 199.75 573.50 200.26 576.02 200.59 C 578.02 200.85 579.96 199.86 580.94 198.10 L 583.94 192.67 L 609.39 147.00 Z" fill="#fbf5f0" fill-rule="nonzero" node-id="105" stroke="none" target-height="75.0609" target-width="97.92999" target-x="525.62" target-y="147"></path><path d="M 589.29 223.53 L 529.19 223.53 C 528.36 223.53 527.69 222.86 527.69 222.03 C 527.69 221.20 528.36 220.53 529.19 220.53 C 530.10 220.52 530.96 220.09 531.52 219.37 C 532.08 218.64 532.28 217.71 532.06 216.82 C 530.87 212.25 528.42 203.11 525.39 193.28 C 524.96 191.92 524.57 190.70 524.20 189.62 C 524.00 189.02 524.19 188.37 524.68 187.97 C 525.17 187.58 525.85 187.53 526.39 187.85 C 529.73 189.87 533.50 191.06 537.39 191.34 C 543.39 191.69 551.39 193.79 557.79 195.48 C 560.18 196.11 562.43 196.70 564.31 197.14 C 565.08 197.31 565.80 197.47 566.44 197.59 C 569.26 198.10 572.54 198.59 576.17 199.08 C 577.56 199.25 578.91 198.56 579.59 197.34 L 608.04 146.34 C 608.43 145.63 609.32 145.36 610.04 145.73 L 624.20 152.66 C 624.92 153.01 625.24 153.86 624.92 154.60 L 597.50 218.15 C 596.07 221.41 592.85 223.52 589.29 223.53 Z M 534.37 220.53 L 589.29 220.53 C 591.67 220.52 593.81 219.11 594.76 216.93 L 621.61 154.69 L 610.00 149.00 L 582.25 198.80 C 580.98 201.10 578.43 202.39 575.83 202.05 C 572.14 201.57 568.83 201.05 565.94 200.54 C 565.26 200.42 564.50 200.25 563.69 200.06 C 561.75 199.62 559.47 199.01 557.07 198.38 C 550.80 196.72 543.00 194.67 537.26 194.38 C 534.12 194.19 531.04 193.43 528.17 192.16 C 528.19 192.25 528.22 192.34 528.25 192.43 C 531.31 202.32 533.77 211.51 534.96 216.11 C 535.35 217.60 535.14 219.19 534.37 220.53 Z" fill="#262d33" fill-rule="nonzero" node-id="107" stroke="none" target-height="78.17139" target-width="101.24371" target-x="523.9977" target-y="145.35861"></path><path d="M 584.00 192.64 L 581.00 198.07 C 580.02 199.83 578.08 200.82 576.08 200.56 C 573.56 200.23 569.91 199.72 566.27 199.06 C 565.61 198.94 564.87 198.78 564.08 198.60 C 558.74 185.89 549.15 152.07 549.15 152.07 L 567.65 147.07 C 567.65 147.07 578.82 181.86 584.00 192.64 Z" fill="#fbf5f0" fill-rule="nonzero" node-id="109" stroke="none" target-height="53.746216" target-width="34.849976" target-x="549.15" target-y="147.07"></path><path d="M 576.65 202.10 C 576.38 202.12 576.10 202.12 575.83 202.10 C 572.14 201.62 568.83 201.10 565.94 200.59 C 565.26 200.47 564.50 200.30 563.69 200.11 C 563.21 200.01 562.82 199.68 562.63 199.23 C 557.32 186.58 548.04 153.91 547.63 152.53 C 547.52 152.14 547.57 151.73 547.77 151.38 C 547.97 151.03 548.29 150.78 548.68 150.67 L 567.17 145.67 C 567.95 145.46 568.76 145.90 569.00 146.67 C 569.11 147.02 580.26 181.52 585.30 192.09 C 585.52 192.52 585.52 193.03 585.30 193.46 L 582.30 198.89 C 581.14 200.91 578.98 202.14 576.65 202.10 Z M 565.11 197.31 L 566.48 197.59 C 569.30 198.10 572.58 198.59 576.21 199.08 C 577.60 199.25 578.95 198.56 579.63 197.34 L 582.28 192.58 C 577.58 182.32 568.71 155.33 566.60 148.87 L 551.00 153.12 C 552.81 159.59 560.45 185.90 565.11 197.31 Z" fill="#262d33" fill-rule="nonzero" node-id="111" stroke="none" target-height="56.6857" target-width="37.99823" target-x="547.5225" target-y="145.45543"></path><path d="M 494.20 210.07 C 493.64 210.07 493.12 209.75 492.87 209.25 C 490.83 204.96 489.30 200.44 488.32 195.79 C 488.15 194.98 488.68 194.19 489.49 194.02 C 490.30 193.85 491.09 194.38 491.26 195.19 C 492.20 199.57 493.63 203.83 495.53 207.88 C 495.90 208.61 495.61 209.50 494.89 209.88 C 494.68 210.00 494.44 210.06 494.20 210.07 Z" fill="#262d33" fill-rule="nonzero" node-id="113" stroke="none" target-height="16.215698" target-width="7.7423706" target-x="488.15433" target-y="193.85431"></path><path d="M 457.13 211.45 C 454.50 211.24 452.33 209.32 451.79 206.74 C 451.23 204.15 452.72 202.03 455.10 202.03 C 457.73 202.24 459.90 204.16 460.44 206.74 C 461.00 209.34 459.53 211.45 457.13 211.45 Z" fill="#ffa836" fill-rule="nonzero" node-id="115" stroke="none" target-height="9.419998" target-width="9.769989" target-x="451.23" target-y="202.03"></path><path d="M 457.13 213.00 C 453.80 212.79 451.01 210.39 450.32 207.12 C 449.91 205.46 450.28 203.70 451.32 202.34 C 452.25 201.20 453.64 200.56 455.11 200.58 C 458.45 200.78 461.25 203.20 461.92 206.48 C 462.32 208.13 461.96 209.88 460.92 211.23 C 460.00 212.37 458.60 213.02 457.13 213.00 Z M 455.13 203.58 C 454.57 203.56 454.03 203.80 453.67 204.23 C 453.22 204.89 453.08 205.71 453.28 206.48 C 453.68 208.37 455.24 209.79 457.16 210.00 C 457.73 210.03 458.27 209.79 458.63 209.35 C 459.08 208.70 459.22 207.88 459.01 207.12 C 458.64 205.19 457.05 203.73 455.10 203.53 Z" fill="#262d33" fill-rule="nonzero" node-id="117" stroke="none" target-height="12.467789" target-width="12.409424" target-x="449.91495" target-y="200.55563"></path></svg>