<?xml version="1.0" standalone="no"?><!DOCTYPE svg PUBLIC "-//W3C//DTD SVG 1.1//EN" "http://www.w3.org/Graphics/SVG/1.1/DTD/svg11.dtd"><svg height="1024" node-id="1" sillyvg="true" template-height="1024" template-width="1024" version="1.1" viewBox="0 0 1024 1024" width="1024" xmlns="http://www.w3.org/2000/svg" xmlns:xlink="http://www.w3.org/1999/xlink"><defs node-id="57"></defs><path d="M 512.00 729.70 C 477.86 729.72 446.49 710.92 430.41 680.80 L 434.41 678.68 C 454.72 716.66 499.53 734.37 540.31 720.52 C 581.09 706.67 605.86 665.34 598.84 622.84 C 591.82 580.35 555.07 549.18 512.00 549.19 C 507.45 549.18 502.91 549.51 498.41 550.19 C 456.11 556.69 424.67 592.75 424.00 635.54 L 419.50 635.45 C 420.46 584.60 462.29 544.07 513.14 544.71 C 564.00 545.35 604.80 586.92 604.48 637.77 C 604.17 688.63 562.86 729.69 512.00 729.70 Z" fill="#330f0f" fill-rule="nonzero" node-id="59" stroke="none" target-height="190.29669" target-width="186.35986" target-x="419.5" target-y="544.06885"></path><path d="M 512.00 149.74 C 402.43 149.74 313.61 238.56 313.61 348.13 C 313.55 389.53 326.49 429.90 350.61 463.54 C 441.58 378.96 582.41 378.96 673.38 463.54 C 697.50 429.90 710.45 389.53 710.38 348.13 C 710.39 238.56 621.57 149.74 512.00 149.74 Z M 512.00 397.62 C 491.98 397.62 473.93 385.56 466.27 367.06 C 458.61 348.56 462.84 327.27 477.00 313.11 C 491.16 298.96 512.45 294.73 530.95 302.39 C 549.45 310.06 561.50 328.11 561.50 348.13 C 561.50 361.26 556.28 373.85 547.00 383.13 C 537.72 392.41 525.13 397.62 512.00 397.62 Z" fill="#02c3ff" fill-rule="nonzero" node-id="61" stroke="none" target-height="313.8" target-width="396.9001" target-x="313.5453" target-y="149.74"></path><path d="M 350.62 465.79 L 350.39 465.79 C 349.75 465.72 349.17 465.38 348.79 464.86 C 324.36 430.85 311.26 390.01 311.36 348.14 C 311.36 237.50 401.36 147.50 512.00 147.50 C 622.64 147.50 712.64 237.50 712.64 348.14 C 712.74 390.01 699.64 430.85 675.22 464.86 C 674.84 465.39 674.26 465.72 673.61 465.79 C 672.97 465.85 672.33 465.64 671.85 465.20 C 581.74 381.44 442.26 381.44 352.15 465.20 C 351.73 465.58 351.19 465.79 350.62 465.79 Z M 512.00 152.00 C 403.85 152.00 315.86 240.00 315.86 348.14 C 315.77 388.20 328.03 427.31 350.98 460.14 C 391.67 423.01 443.97 401.13 498.98 398.21 C 473.77 391.67 457.36 367.41 460.66 341.58 C 463.95 315.74 485.94 296.39 511.98 296.39 C 538.02 296.39 560.01 315.74 563.30 341.58 C 566.60 367.41 550.19 391.67 524.98 398.21 C 579.99 401.13 632.29 423.01 672.98 460.14 C 695.92 427.30 708.18 388.20 708.09 348.14 C 708.14 240.00 620.15 152.00 512.00 152.00 Z M 512.00 300.89 C 492.89 300.89 475.66 312.40 468.34 330.05 C 461.02 347.71 465.06 368.03 478.58 381.55 C 492.09 395.06 512.41 399.11 530.07 391.79 C 547.73 384.48 559.24 367.25 559.24 348.14 C 559.22 322.06 538.08 300.91 512.00 300.88 Z" fill="#262d33" fill-rule="nonzero" node-id="63" stroke="none" target-height="318.35468" target-width="401.4719" target-x="311.26346" target-y="147.5"></path><path d="M 512.00 149.74 C 402.43 149.74 313.61 238.56 313.61 348.13 C 313.55 389.53 326.49 429.90 350.61 463.54 C 441.58 378.96 582.41 378.96 673.38 463.54 C 697.50 429.90 710.45 389.53 710.38 348.13 C 710.39 238.56 621.57 149.74 512.00 149.74 Z M 512.00 397.62 C 491.98 397.62 473.93 385.56 466.27 367.06 C 458.61 348.56 462.84 327.27 477.00 313.11 C 491.16 298.96 512.45 294.73 530.95 302.39 C 549.45 310.06 561.50 328.11 561.50 348.13 C 561.50 361.26 556.28 373.85 547.00 383.13 C 537.72 392.41 525.13 397.62 512.00 397.62 Z" fill="#02c3ff" fill-rule="nonzero" node-id="65" stroke="none" target-height="313.8" target-width="396.9001" target-x="313.5453" target-y="149.74"></path><path d="M 350.62 465.79 L 350.39 465.79 C 349.75 465.72 349.17 465.38 348.79 464.86 C 324.36 430.85 311.26 390.01 311.36 348.14 C 311.36 237.50 401.36 147.50 512.00 147.50 C 622.64 147.50 712.64 237.50 712.64 348.14 C 712.74 390.01 699.64 430.85 675.22 464.86 C 674.84 465.39 674.26 465.72 673.61 465.79 C 672.97 465.85 672.33 465.64 671.85 465.20 C 581.74 381.44 442.26 381.44 352.15 465.20 C 351.73 465.58 351.19 465.79 350.62 465.79 Z M 512.00 152.00 C 403.85 152.00 315.86 240.00 315.86 348.14 C 315.77 388.20 328.03 427.31 350.98 460.14 C 391.67 423.01 443.97 401.13 498.98 398.21 C 473.77 391.67 457.36 367.41 460.66 341.58 C 463.95 315.74 485.94 296.39 511.98 296.39 C 538.02 296.39 560.01 315.74 563.30 341.58 C 566.60 367.41 550.19 391.67 524.98 398.21 C 579.99 401.13 632.29 423.01 672.98 460.14 C 695.92 427.30 708.18 388.20 708.09 348.14 C 708.14 240.00 620.15 152.00 512.00 152.00 Z M 512.00 300.89 C 492.89 300.89 475.66 312.40 468.34 330.05 C 461.02 347.71 465.06 368.03 478.58 381.55 C 492.09 395.06 512.41 399.11 530.07 391.79 C 547.73 384.48 559.24 367.25 559.24 348.14 C 559.22 322.06 538.08 300.91 512.00 300.88 Z" fill="#262d33" fill-rule="nonzero" node-id="67" stroke="none" target-height="318.35468" target-width="401.4719" target-x="311.26346" target-y="147.5"></path><path d="M 657.89 395.72 C 640.84 385.39 622.74 376.91 603.89 370.42 C 613.10 332.36 597.88 292.56 565.62 270.36 C 533.36 248.16 490.74 248.16 458.48 270.36 C 426.22 292.56 411.00 332.36 420.21 370.42 C 401.35 376.91 383.23 385.39 366.16 395.72 C 361.17 380.35 358.64 364.29 358.66 348.13 C 358.66 263.55 427.47 194.74 512.05 194.74 C 596.63 194.74 665.44 263.55 665.44 348.13 C 665.45 364.29 662.90 380.35 657.89 395.72 Z" fill="#ffa836" fill-rule="nonzero" node-id="69" stroke="none" target-height="200.98" target-width="306.8086" target-x="358.64014" target-y="194.74"></path><path d="M 657.89 398.00 C 657.48 398.00 657.07 397.89 656.72 397.68 C 639.79 387.43 621.82 379.02 603.11 372.58 C 602.01 372.20 601.38 371.05 601.65 369.92 C 610.65 332.76 595.79 293.91 564.29 272.23 C 532.80 250.56 491.20 250.56 459.71 272.23 C 428.21 293.91 413.35 332.76 422.35 369.92 C 422.62 371.05 421.99 372.19 420.89 372.57 C 402.18 379.01 384.21 387.43 367.28 397.68 C 366.69 398.03 365.97 398.10 365.33 397.86 C 364.69 397.62 364.19 397.10 363.97 396.45 C 358.91 380.85 356.34 364.56 356.36 348.16 C 356.36 262.34 426.18 192.52 512.00 192.52 C 597.82 192.52 667.64 262.34 667.64 348.16 C 667.65 364.55 665.07 380.84 660.00 396.42 C 659.78 397.07 659.28 397.59 658.64 397.83 C 658.40 397.93 658.15 397.99 657.89 398.00 Z M 606.49 369.00 C 623.92 375.14 640.70 382.96 656.60 392.37 C 660.95 378.04 663.16 363.15 663.14 348.17 C 663.14 264.79 595.34 197.00 512.00 197.00 C 428.66 197.00 360.86 264.80 360.86 348.14 C 360.84 363.12 363.05 378.01 367.40 392.34 C 383.30 382.94 400.08 375.13 417.51 369.00 C 409.04 330.34 424.98 290.41 457.75 268.21 C 490.52 246.01 533.50 246.01 566.27 268.21 C 599.04 290.41 614.98 330.34 606.51 369.00 Z" fill="#262d33" fill-rule="nonzero" node-id="71" stroke="none" target-height="205.5803" target-width="311.30997" target-x="356.3386" target-y="192.52"></path><path d="M 673.38 463.54 C 604.30 399.34 503.74 382.20 417.29 419.87 C 330.83 457.55 274.93 542.89 274.93 637.19 C 274.93 768.12 381.07 874.26 512.00 874.26 C 642.93 874.26 749.07 768.12 749.07 637.19 C 749.15 571.29 721.72 508.34 673.38 463.54 Z M 512.00 727.60 C 462.07 727.60 421.59 687.12 421.59 637.19 C 421.59 587.26 462.07 546.78 512.00 546.78 C 561.93 546.78 602.41 587.26 602.41 637.19 C 602.41 687.12 561.93 727.60 512.00 727.60 Z" fill="#02c3ff" fill-rule="nonzero" node-id="73" stroke="none" target-height="492.06195" target-width="474.22162" target-x="274.93" target-y="382.19806"></path><path d="M 512.00 876.51 C 380.00 876.51 272.68 769.15 272.68 637.19 C 272.68 505.02 379.83 397.87 512.00 397.87 C 644.17 397.87 751.32 505.02 751.32 637.19 C 751.32 769.15 644.00 876.51 512.00 876.51 Z M 512.00 402.37 C 382.32 402.38 277.19 507.51 277.18 637.19 C 277.18 766.67 382.52 872.00 512.00 872.00 C 641.48 872.00 746.82 766.67 746.82 637.19 C 746.72 571.94 719.56 509.66 671.82 465.19 L 671.82 465.19 C 628.43 424.75 571.31 402.30 512.00 402.37 Z M 512.00 729.85 C 460.83 729.85 419.34 688.36 419.34 637.19 C 419.34 586.02 460.83 544.53 512.00 544.53 C 563.17 544.53 604.66 586.02 604.66 637.19 C 604.60 688.34 563.15 729.79 512.00 729.85 Z M 512.00 549.00 C 463.31 549.00 423.84 588.47 423.84 637.16 C 423.84 685.85 463.31 725.32 512.00 725.32 C 560.69 725.32 600.16 685.85 600.16 637.16 C 600.10 588.49 560.67 549.06 512.00 549.00 Z" fill="#262d33" fill-rule="nonzero" node-id="75" stroke="none" target-height="478.64" target-width="478.64" target-x="272.68" target-y="397.87"></path><path d="M 673.38 463.54 C 604.30 399.34 503.74 382.20 417.29 419.87 C 330.83 457.55 274.93 542.89 274.93 637.19 C 274.93 768.12 381.07 874.26 512.00 874.26 C 642.93 874.26 749.07 768.12 749.07 637.19 C 749.15 571.29 721.72 508.34 673.38 463.54 Z M 512.00 727.60 C 462.07 727.60 421.59 687.12 421.59 637.19 C 421.59 587.26 462.07 546.78 512.00 546.78 C 561.93 546.78 602.41 587.26 602.41 637.19 C 602.41 687.12 561.93 727.60 512.00 727.60 Z" fill="#02c3ff" fill-rule="nonzero" node-id="77" stroke="none" target-height="492.06195" target-width="474.22162" target-x="274.93" target-y="382.19806"></path><path d="M 512.00 876.51 C 380.00 876.51 272.68 769.15 272.68 637.19 C 272.68 505.02 379.83 397.87 512.00 397.87 C 644.17 397.87 751.32 505.02 751.32 637.19 C 751.32 769.15 644.00 876.51 512.00 876.51 Z M 512.00 402.37 C 382.32 402.38 277.19 507.51 277.18 637.19 C 277.18 766.67 382.52 872.00 512.00 872.00 C 641.48 872.00 746.82 766.67 746.82 637.19 C 746.72 571.94 719.56 509.66 671.82 465.19 L 671.82 465.19 C 628.43 424.75 571.31 402.30 512.00 402.37 Z M 512.00 729.85 C 460.83 729.85 419.34 688.36 419.34 637.19 C 419.34 586.02 460.83 544.53 512.00 544.53 C 563.17 544.53 604.66 586.02 604.66 637.19 C 604.60 688.34 563.15 729.79 512.00 729.85 Z M 512.00 549.00 C 463.31 549.00 423.84 588.47 423.84 637.16 C 423.84 685.85 463.31 725.32 512.00 725.32 C 560.69 725.32 600.16 685.85 600.16 637.16 C 600.10 588.49 560.67 549.06 512.00 549.00 Z" fill="#262d33" fill-rule="nonzero" node-id="79" stroke="none" target-height="478.64" target-width="478.64" target-x="272.68" target-y="397.87"></path><path d="M 457.68 596.50 L 450.61 605.68" fill="#fbf5f0" fill-rule="nonzero" node-id="81" stroke="none" target-height="9.179993" target-width="7.0700073" target-x="450.61" target-y="596.5"></path><path d="M 450.61 607.18 C 450.04 607.18 449.51 606.86 449.26 606.34 C 449.01 605.83 449.07 605.21 449.42 604.76 C 451.81 601.66 454.18 598.58 456.50 595.59 C 457.02 594.99 457.92 594.91 458.55 595.39 C 459.17 595.88 459.31 596.76 458.87 597.42 L 451.80 606.59 C 451.52 606.96 451.08 607.18 450.61 607.18 Z" fill="#262d33" fill-rule="nonzero" node-id="83" stroke="none" target-height="12.275452" target-width="10.309235" target-x="449.00552" target-y="594.90656"></path><path d="M 462.27 590.56 C 476.71 571.86 497.68 548.40 498.08 548.01" fill="#fbf5f0" fill-rule="nonzero" node-id="85" stroke="none" target-height="42.549988" target-width="35.809998" target-x="462.27" target-y="548.01"></path><path d="M 462.27 592.06 C 461.94 592.06 461.62 591.95 461.36 591.75 C 461.04 591.51 460.84 591.15 460.79 590.75 C 460.74 590.36 460.84 589.96 461.09 589.64 C 475.27 571.26 496.44 547.51 497.02 546.94 C 497.61 546.39 498.53 546.41 499.10 546.99 C 499.67 547.56 499.68 548.48 499.13 549.07 C 498.18 550.07 477.57 573.20 463.46 591.47 C 463.18 591.84 462.74 592.06 462.27 592.06 Z" fill="#262d33" fill-rule="nonzero" node-id="87" stroke="none" target-height="45.670593" target-width="38.94821" target-x="460.7356" target-y="546.3918"></path><path d="M 437.52 622.65 L 427.00 636.32" fill="#fbf5f0" fill-rule="nonzero" node-id="89" stroke="none" target-height="13.669983" target-width="10.519989" target-x="427" target-y="622.65"></path><path d="M 427.00 637.82 C 426.43 637.82 425.90 637.50 425.65 636.98 C 425.40 636.47 425.46 635.85 425.81 635.40 L 436.34 621.74 C 436.85 621.08 437.79 620.96 438.44 621.47 C 439.10 621.97 439.23 622.91 438.72 623.57 L 428.19 637.23 C 427.91 637.60 427.47 637.82 427.00 637.82 Z" fill="#262d33" fill-rule="nonzero" node-id="91" stroke="none" target-height="16.862366" target-width="13.829803" target-x="425.39554" target-y="620.95966"></path><path d="M 554.78 558.29 L 504.06 625.45" fill="#fbf5f0" fill-rule="nonzero" node-id="93" stroke="none" target-height="67.160034" target-width="50.72003" target-x="504.06" target-y="558.29"></path><path d="M 504.06 627.00 C 503.73 627.00 503.42 626.89 503.16 626.69 C 502.50 626.19 502.36 625.25 502.86 624.59 L 553.58 557.44 C 553.88 556.97 554.43 556.70 554.99 556.76 C 555.55 556.81 556.03 557.18 556.24 557.70 C 556.44 558.22 556.34 558.82 555.97 559.24 L 505.26 626.40 C 504.97 626.78 504.53 627.00 504.06 627.00 Z" fill="#262d33" fill-rule="nonzero" node-id="95" stroke="none" target-height="70.29596" target-width="54.079437" target-x="502.36295" target-y="556.70496"></path><path d="M 504.86 599.08 L 504.75 599.08 C 504.35 599.08 502.67 599.42 498.75 601.50 C 494.08 603.91 491.67 601.50 491.67 601.50 C 489.90 605.41 485.52 604.20 485.52 604.20 C 485.52 604.20 481.80 603.63 482.16 607.92 C 482.52 612.21 486.82 612.67 486.82 612.67 C 486.27 613.41 484.41 614.53 472.66 614.91 C 460.91 615.29 457.39 602.56 457.39 602.56 C 457.10 600.54 457.21 598.48 457.72 596.50 C 458.33 593.94 460.00 591.76 462.31 590.50 C 463.46 589.92 464.69 589.52 465.96 589.33 C 476.58 587.66 477.70 596.78 482.35 598.84 C 487.00 600.90 487.57 597.84 487.57 597.84 C 490.74 591.47 498.37 593.59 498.37 593.59 C 498.37 593.59 503.59 592.10 506.19 594.89 C 508.79 597.68 504.86 599.08 504.86 599.08 Z" fill="#ffa836" fill-rule="nonzero" node-id="97" stroke="none" target-height="27.630005" target-width="51.690674" target-x="457.09933" target-y="587.66"></path><path d="M 472.11 616.42 C 459.80 616.42 455.94 603.11 455.91 602.97 C 455.54 600.69 455.65 598.35 456.23 596.11 C 456.95 593.16 458.89 590.66 461.57 589.23 C 462.86 588.58 464.24 588.13 465.67 587.91 C 473.61 586.67 477.02 591.01 479.51 594.19 C 480.69 595.69 481.70 596.99 482.92 597.52 C 484.70 598.31 485.47 598.12 485.72 598.00 C 485.89 597.92 486.02 597.78 486.07 597.60 C 486.10 597.49 486.14 597.38 486.19 597.27 C 489.01 591.59 495.19 591.39 498.34 592.13 C 499.77 591.80 504.51 591.01 507.25 593.96 C 508.27 594.86 508.72 596.23 508.45 597.56 C 507.94 599.56 505.60 600.41 505.33 600.50 C 505.23 600.53 505.12 600.56 505.01 600.57 L 504.92 600.57 C 504.76 600.57 503.27 600.80 499.40 602.82 C 496.06 604.56 493.60 604.16 492.13 603.54 C 490.42 605.52 487.73 606.35 485.20 605.67 C 484.77 605.64 484.35 605.75 484.00 606.00 C 483.64 606.52 483.51 607.17 483.63 607.79 C 483.79 609.57 485.19 610.98 486.96 611.18 C 487.50 611.24 487.96 611.58 488.18 612.07 C 488.39 612.57 488.32 613.14 488.00 613.57 C 487.08 614.79 485.15 616.01 472.69 616.40 Z M 468.39 590.68 C 467.64 590.68 466.89 590.75 466.15 590.87 C 465.04 591.03 463.97 591.37 462.97 591.87 C 461.03 592.91 459.63 594.73 459.13 596.87 C 458.68 598.63 458.57 600.47 458.83 602.27 C 458.93 602.59 462.09 613.38 472.12 613.38 L 472.57 613.38 C 476.04 613.33 479.51 613.05 482.95 612.55 C 481.58 611.43 480.73 609.78 480.62 608.01 C 480.37 606.47 480.86 604.90 481.94 603.78 C 482.98 602.89 484.35 602.49 485.70 602.68 L 485.88 602.68 C 486.19 602.76 489.07 603.43 490.26 600.81 C 490.46 600.36 490.87 600.04 491.36 599.95 C 491.85 599.86 492.35 600.02 492.69 600.37 C 492.69 600.37 494.47 601.92 498.02 600.09 C 501.76 598.14 503.66 597.64 504.49 597.53 C 504.98 597.33 505.49 596.96 505.54 596.74 C 505.54 596.68 505.54 596.40 505.05 595.92 C 503.45 594.20 499.95 594.70 498.74 595.04 C 498.47 595.11 498.20 595.11 497.93 595.04 C 497.67 594.97 491.54 593.38 488.93 598.40 C 488.64 599.33 487.99 600.11 487.13 600.57 C 485.75 601.30 483.92 601.17 481.69 600.19 C 479.79 599.35 478.50 597.70 477.14 595.96 C 475.00 593.30 473.00 590.68 468.39 590.68 Z" fill="#262d33" fill-rule="nonzero" node-id="99" stroke="none" target-height="29.75" target-width="53.185486" target-x="455.53732" target-y="586.67"></path><path d="M 495.86 619.52 C 496.14 619.67 499.56 622.36 504.06 625.45 L 471.32 668.81 L 465.57 659.81 L 457.19 659.81 L 399.00 665.81 L 397.46 666.74 L 353.22 693.56 L 342.42 675.68 L 386.49 651.44 C 364.49 646.53 338.00 641.36 338.00 641.36 L 344.00 623.26 L 427.00 636.32 L 440.46 638.49 C 438.04 633.71 437.79 627.20 437.88 623.49 L 437.88 623.49 C 437.76 623.25 437.64 622.98 437.53 622.70 C 436.90 620.94 436.81 618.57 437.82 618.11 C 438.28 617.92 438.79 617.83 439.29 617.87 C 439.06 616.02 439.21 614.21 439.95 613.77 C 440.39 613.51 440.90 613.40 441.40 613.46 C 441.19 611.46 441.40 609.60 442.27 609.12 C 442.88 608.80 443.58 608.68 444.27 608.78 C 444.35 608.52 444.46 608.27 444.59 608.03 C 444.77 607.64 445.02 607.27 445.31 606.95 C 445.48 606.75 445.66 606.56 445.85 606.38 C 445.88 605.21 446.70 604.21 447.85 603.96 C 448.78 603.77 449.85 604.35 450.59 605.72 C 451.42 607.37 451.82 609.20 451.75 611.04 C 451.75 612.69 451.45 614.33 450.85 615.87 C 449.91 618.35 450.20 621.13 451.63 623.37 C 452.45 624.72 453.76 625.69 455.29 626.10 C 457.90 626.91 460.79 624.74 470.20 620.36 C 479.61 615.98 486.59 616.72 486.59 616.72 C 487.99 615.42 486.77 612.72 486.77 612.72 C 486.77 612.72 482.48 612.26 482.11 607.97 C 481.74 603.68 485.47 604.25 485.47 604.25 C 485.47 604.25 489.85 605.46 491.62 601.55 C 491.62 601.55 494.03 603.96 498.70 601.55 C 502.70 599.47 504.34 599.18 504.70 599.13 C 506.37 603.47 508.54 612.97 498.10 617.69 C 497.35 617.86 496.58 617.97 495.81 618.03 C 495.12 618.00 495.21 619.19 495.86 619.52 Z" fill="#fbf5f0" fill-rule="nonzero" node-id="101" stroke="none" target-height="94.42999" target-width="170.54001" target-x="338" target-y="599.13"></path><path d="M 353.22 695.00 C 352.70 694.99 352.22 694.71 351.94 694.27 L 341.14 676.39 C 340.93 676.04 340.86 675.62 340.97 675.22 C 341.08 674.83 341.34 674.49 341.70 674.30 L 382.28 652.00 C 361.42 647.42 337.96 642.84 337.71 642.79 C 337.29 642.71 336.92 642.45 336.70 642.08 C 336.48 641.71 336.44 641.26 336.57 640.85 L 342.57 622.79 C 342.81 622.10 343.50 621.68 344.22 621.79 L 427.22 634.86 L 438.00 636.59 C 436.76 632.43 436.19 628.11 436.33 623.77 C 436.24 623.58 436.16 623.38 436.08 623.17 C 435.34 621.11 435.02 617.69 437.15 616.70 C 437.31 616.63 437.48 616.57 437.65 616.52 C 437.65 614.86 437.92 613.16 439.14 612.44 C 439.34 612.32 439.56 612.22 439.78 612.14 C 439.78 610.36 440.13 608.53 441.51 607.77 C 442.05 607.47 442.65 607.28 443.26 607.23 C 443.49 606.74 443.80 606.29 444.17 605.89 L 444.42 605.61 C 444.72 604.03 445.93 602.79 447.50 602.45 C 449.15 602.11 450.83 603.06 451.88 604.94 C 452.82 606.80 453.28 608.86 453.23 610.94 C 453.24 612.78 452.90 614.61 452.23 616.32 C 451.46 618.35 451.70 620.63 452.86 622.46 C 453.50 623.51 454.53 624.27 455.72 624.58 C 457.06 625.00 459.04 624.02 463.35 621.89 C 465.04 621.06 467.07 620.06 469.54 618.89 C 474.58 616.42 480.12 615.12 485.73 615.07 C 485.76 614.68 485.72 614.29 485.61 613.91 C 482.84 613.22 480.83 610.83 480.61 607.98 C 480.36 606.44 480.85 604.87 481.93 603.75 C 482.97 602.86 484.34 602.46 485.69 602.65 L 485.87 602.65 C 486.18 602.73 489.06 603.40 490.25 600.78 C 490.45 600.33 490.86 600.01 491.35 599.92 C 491.84 599.83 492.34 599.99 492.68 600.34 C 492.68 600.34 494.46 601.89 498.01 600.06 C 501.90 598.06 503.79 597.58 504.57 597.49 C 505.25 597.42 505.89 597.81 506.14 598.44 C 507.83 602.83 510.48 613.61 498.76 618.90 C 498.67 618.94 498.57 618.98 498.47 619.00 L 497.97 619.10 C 499.35 620.10 501.91 622.04 504.90 624.10 C 505.24 624.33 505.46 624.69 505.53 625.10 C 505.59 625.50 505.49 625.91 505.25 626.24 L 472.50 669.60 C 472.22 670.00 471.74 670.23 471.25 670.20 C 470.76 670.18 470.31 669.92 470.04 669.51 L 464.74 661.20 L 457.25 661.20 L 399.48 667.11 L 398.22 667.87 L 354.00 694.80 C 353.76 694.93 353.49 695.00 353.22 695.00 Z M 344.51 676.18 L 353.73 691.43 L 398.23 664.43 C 398.42 664.32 398.63 664.25 398.85 664.22 L 457.00 658.32 L 465.54 658.32 C 466.05 658.32 466.53 658.58 466.81 659.01 L 471.39 666.19 L 501.89 625.80 C 499.41 624.06 497.34 622.51 496.14 621.62 L 495.08 620.83 C 494.10 620.25 493.62 619.10 493.90 618.00 C 494.11 617.07 494.95 616.43 495.90 616.45 C 496.51 616.40 497.12 616.31 497.72 616.17 C 505.83 612.43 505.28 605.41 503.83 600.83 C 502.32 601.38 500.85 602.05 499.44 602.83 C 496.10 604.57 493.64 604.17 492.17 603.55 C 490.46 605.53 487.77 606.36 485.24 605.68 C 484.80 605.63 484.36 605.75 484.00 606.00 C 483.64 606.52 483.51 607.17 483.63 607.79 C 483.80 609.57 485.19 610.99 486.97 611.18 C 487.49 611.25 487.95 611.57 488.17 612.05 C 488.34 612.43 489.76 615.79 487.65 617.77 C 487.33 618.07 486.90 618.21 486.46 618.17 C 486.40 618.17 479.72 617.54 470.86 621.67 C 468.41 622.81 466.40 623.80 464.73 624.67 C 459.67 627.17 457.37 628.31 454.87 627.53 C 453.01 627.01 451.41 625.81 450.39 624.18 C 448.71 621.54 448.37 618.27 449.47 615.34 C 450.01 613.97 450.29 612.52 450.28 611.05 C 450.32 609.46 449.98 607.89 449.28 606.46 C 448.81 605.63 448.33 605.38 448.14 605.46 C 447.80 605.54 447.41 605.73 447.32 606.57 C 447.28 606.93 447.11 607.27 446.84 607.51 C 446.69 607.65 446.55 607.80 446.42 607.95 C 446.22 608.17 446.06 608.41 445.93 608.68 C 445.82 608.88 445.74 609.09 445.67 609.30 C 445.44 609.97 444.77 610.38 444.07 610.30 C 443.69 610.24 443.31 610.30 442.97 610.47 C 442.75 611.41 442.72 612.38 442.86 613.34 C 442.91 613.79 442.76 614.23 442.44 614.55 C 442.12 614.87 441.68 615.03 441.23 614.99 C 441.09 614.96 440.96 614.96 440.82 614.99 C 440.62 615.87 440.59 616.79 440.75 617.68 C 440.81 618.12 440.66 618.57 440.35 618.90 C 440.05 619.22 439.61 619.39 439.16 619.36 C 438.97 619.33 438.78 619.33 438.59 619.36 C 438.47 620.30 438.58 621.25 438.91 622.14 C 438.99 622.36 439.08 622.57 439.19 622.77 C 439.29 622.98 439.35 623.21 439.35 623.44 C 439.26 626.89 439.47 633.26 441.76 637.81 C 442.02 638.31 441.97 638.91 441.64 639.37 C 441.30 639.82 440.75 640.05 440.19 639.97 L 426.73 637.79 L 345.00 624.94 L 340.00 640.17 C 346.17 641.39 368.26 645.78 386.87 649.93 C 387.48 650.06 387.94 650.56 388.03 651.18 C 388.12 651.80 387.82 652.41 387.27 652.71 Z M 440.88 614.84 Z" fill="#262d33" fill-rule="nonzero" node-id="103" stroke="none" target-height="97.579895" target-width="174.04416" target-x="336.43585" target-y="597.42285"></path><path d="M 496.61 642.28 C 497.30 643.46 498.19 644.51 499.25 645.38" fill="#fbf5f0" fill-rule="nonzero" node-id="105" stroke="none" target-height="3.0999756" target-width="2.6400146" target-x="496.61" target-y="642.28"></path><path d="M 499.25 646.88 C 498.86 646.88 498.48 646.73 498.20 646.45 C 497.06 645.49 496.09 644.35 495.33 643.07 C 494.89 642.37 495.11 641.44 495.81 641.00 C 496.51 640.56 497.44 640.78 497.88 641.48 C 498.51 642.56 499.32 643.52 500.29 644.31 C 500.72 644.73 500.86 645.37 500.64 645.92 C 500.42 646.48 499.89 646.86 499.29 646.88 Z" fill="#262d33" fill-rule="nonzero" node-id="107" stroke="none" target-height="6.320923" target-width="5.9642334" target-x="494.89093" target-y="640.5609"></path><path d="M 386.51 652.90 L 386.51 652.90 C 385.68 652.89 385.02 652.22 385.02 651.39 C 385.02 650.57 385.70 649.90 386.52 649.90 C 387.35 649.90 388.02 650.57 388.02 651.40 C 388.02 651.80 387.86 652.19 387.57 652.47 C 387.28 652.75 386.89 652.91 386.49 652.90 Z" fill="#262d33" fill-rule="nonzero" node-id="109" stroke="none" target-height="3.0098877" target-width="3.0037231" target-x="385.01636" target-y="649.8982"></path><path d="M 440.45 638.50 L 449.67 640.00 C 449.87 640.02 450.06 640.07 450.24 640.15 C 450.83 640.40 453.09 640.76 457.91 635.15" fill="#fbf5f0" fill-rule="nonzero" node-id="111" stroke="none" target-height="5.6099854" target-width="17.459991" target-x="440.45" target-y="635.15"></path><path d="M 450.91 641.78 C 450.47 641.78 450.04 641.69 449.64 641.52 L 449.45 641.52 L 440.21 640.02 C 439.38 639.89 438.82 639.11 438.95 638.28 C 439.08 637.45 439.86 636.89 440.69 637.02 L 449.91 638.52 C 450.22 638.57 450.53 638.65 450.82 638.77 C 450.82 638.77 452.59 639.05 456.77 634.18 C 457.03 633.88 457.40 633.69 457.79 633.66 C 458.19 633.63 458.58 633.76 458.88 634.02 C 459.51 634.56 459.59 635.51 459.05 636.14 C 455.24 640.56 452.63 641.78 450.91 641.78 Z" fill="#262d33" fill-rule="nonzero" node-id="113" stroke="none" target-height="8.149658" target-width="20.767578" target-x="438.81744" target-y="633.6304"></path><path d="M 448.00 612.68 C 448.06 613.98 447.55 615.24 446.60 616.13 C 446.41 616.30 446.14 616.35 445.91 616.25 C 445.08 615.66 444.51 614.78 444.31 613.79 C 443.80 612.17 443.77 610.43 444.23 608.79" fill="#fbf5f0" fill-rule="nonzero" node-id="115" stroke="none" target-height="7.55542" target-width="4.28891" target-x="443.7697" target-y="608.79"></path><path d="M 446.19 617.80 C 445.93 617.80 445.67 617.75 445.43 617.66 C 444.02 617.11 443.25 615.29 442.92 614.25 C 442.29 612.30 442.27 610.21 442.85 608.25 C 442.96 607.86 443.23 607.54 443.58 607.35 C 443.94 607.16 444.36 607.13 444.74 607.25 C 445.12 607.37 445.44 607.63 445.63 607.99 C 445.82 608.34 445.86 608.76 445.74 609.14 C 445.36 610.51 445.39 611.95 445.82 613.30 C 445.93 613.64 446.07 613.98 446.23 614.30 C 446.48 613.83 446.60 613.29 446.58 612.76 C 446.53 611.94 447.14 611.23 447.96 611.16 C 448.78 611.09 449.50 611.69 449.57 612.51 C 449.67 614.28 448.98 616.00 447.68 617.21 C 447.27 617.58 446.74 617.79 446.19 617.80 Z" fill="#262d33" fill-rule="nonzero" node-id="117" stroke="none" target-height="10.674255" target-width="7.4037476" target-x="442.26938" target-y="607.12573"></path><path d="M 444.59 608.80 C 444.49 608.77 444.38 608.75 444.27 608.74" fill="#fbf5f0" fill-rule="nonzero" node-id="119" stroke="none" target-height="0.05999756" target-width="0.32000732" target-x="444.27" target-y="608.74"></path><path d="M 444.59 610.29 C 444.46 610.31 444.32 610.31 444.19 610.29 C 443.35 610.17 442.76 609.41 442.86 608.57 C 442.90 608.18 443.10 607.83 443.41 607.59 C 443.72 607.35 444.11 607.24 444.50 607.30 L 444.99 607.40 C 445.70 607.61 446.16 608.31 446.06 609.04 C 445.96 609.78 445.33 610.33 444.59 610.34 Z" fill="#262d33" fill-rule="nonzero" node-id="121" stroke="none" target-height="3.0966187" target-width="3.3919067" target-x="442.76498" target-y="607.2434"></path><path d="M 441.39 613.42 L 441.44 613.82 C 441.56 614.84 441.80 615.85 442.16 616.82 C 442.65 618.11 443.31 619.01 444.03 618.95 C 445.38 618.85 445.82 617.51 445.95 616.48" fill="#fbf5f0" fill-rule="nonzero" node-id="123" stroke="none" target-height="5.590027" target-width="4.5599976" target-x="441.39" target-y="613.42"></path><path d="M 444.00 620.42 C 443.00 620.42 441.77 619.85 440.81 617.33 C 440.41 616.26 440.14 615.14 440.00 614.00 L 439.95 613.58 C 439.85 612.75 440.45 612.00 441.27 611.91 C 442.10 611.81 442.85 612.40 442.95 613.23 L 443.00 613.65 C 443.11 614.54 443.32 615.41 443.63 616.25 C 443.77 616.62 443.95 616.98 444.17 617.31 C 444.38 616.99 444.50 616.62 444.53 616.24 C 444.64 615.41 445.40 614.83 446.23 614.94 C 447.05 615.04 447.64 615.80 447.53 616.63 C 447.11 619.84 445.09 620.34 444.24 620.41 Z M 444.00 617.42 L 444.00 617.42 Z" fill="#262d33" fill-rule="nonzero" node-id="125" stroke="none" target-height="8.611633" target-width="7.7843323" target-x="439.85336" target-y="611.80835"></path><path d="M 441.44 614.91 L 441.39 614.91 C 440.56 614.91 439.89 614.24 439.89 613.41 C 439.89 612.58 440.56 611.91 441.39 611.91 C 442.22 611.91 442.90 612.58 442.91 613.41 C 442.92 613.81 442.77 614.19 442.49 614.47 C 442.21 614.75 441.84 614.91 441.44 614.91 Z" fill="#262d33" fill-rule="nonzero" node-id="127" stroke="none" target-height="3.000183" target-width="3.0280457" target-x="439.89" target-y="611.9099"></path><path d="M 442.92 619.00 C 442.92 619.00 443.15 622.06 441.36 622.21 C 440.69 622.21 440.09 621.21 439.68 619.81 C 439.50 619.15 439.36 618.49 439.28 617.81" fill="#fbf5f0" fill-rule="nonzero" node-id="129" stroke="none" target-height="4.4000244" target-width="3.869995" target-x="439.28" target-y="617.81"></path><path d="M 441.33 623.73 C 440.33 623.73 439.07 623.09 438.24 620.25 C 438.03 619.52 437.88 618.77 437.79 618.02 C 437.74 617.63 437.84 617.23 438.08 616.91 C 438.33 616.60 438.69 616.39 439.08 616.34 C 439.90 616.24 440.65 616.81 440.77 617.63 C 440.84 618.23 440.95 618.83 441.12 619.41 C 441.19 619.66 441.28 619.91 441.38 620.16 C 441.43 619.83 441.44 619.49 441.43 619.16 C 441.37 618.33 441.99 617.61 442.82 617.55 C 443.65 617.49 444.37 618.11 444.43 618.94 C 444.59 621.20 443.75 623.56 441.50 623.75 Z" fill="#262d33" fill-rule="nonzero" node-id="131" stroke="none" target-height="7.5110474" target-width="6.8538513" target-x="437.73615" target-y="616.23895"></path><path d="M 440.79 622.13 C 440.79 622.13 441.02 624.46 439.23 624.58 C 438.71 624.58 438.23 624.14 437.87 623.47" fill="#fbf5f0" fill-rule="nonzero" node-id="133" stroke="none" target-height="2.4500122" target-width="3.149994" target-x="437.87" target-y="622.13"></path><path d="M 439.19 626.08 C 438.02 626.02 436.99 625.28 436.56 624.19 C 436.26 623.72 436.25 623.12 436.53 622.64 C 436.80 622.15 437.33 621.87 437.88 621.89 C 438.44 621.91 438.94 622.24 439.18 622.74 C 439.20 622.78 439.22 622.82 439.25 622.85 C 439.29 622.66 439.31 622.46 439.30 622.26 C 439.23 621.43 439.84 620.70 440.67 620.63 C 441.49 620.55 442.23 621.16 442.30 621.99 C 442.40 623.06 442.10 624.13 441.46 624.99 C 440.92 625.60 440.16 625.96 439.35 625.99 Z M 439.48 623.15 Z" fill="#262d33" fill-rule="nonzero" node-id="135" stroke="none" target-height="5.529602" target-width="6.1553345" target-x="436.24753" target-y="620.5504"></path><path d="M 445.85 606.34 C 445.77 607.07 445.82 607.82 446.00 608.53 C 446.15 609.25 446.37 609.95 446.64 610.63 L 446.70 610.75 C 447.17 611.67 447.34 612.73 447.17 613.75" fill="#fbf5f0" fill-rule="nonzero" node-id="137" stroke="none" target-height="7.409973" target-width="1.569458" target-x="445.7676" target-y="606.34"></path><path d="M 447.17 615.29 C 447.05 615.30 446.93 615.30 446.81 615.29 C 446.01 615.09 445.51 614.28 445.71 613.47 C 445.80 612.78 445.67 612.08 445.35 611.47 L 445.23 611.21 C 444.94 610.46 444.70 609.69 444.53 608.91 C 444.31 608.03 444.26 607.12 444.36 606.22 C 444.40 605.82 444.61 605.46 444.92 605.22 C 445.24 604.97 445.64 604.87 446.03 604.92 C 446.43 604.97 446.79 605.17 447.03 605.48 C 447.28 605.80 447.39 606.19 447.34 606.59 C 447.28 607.15 447.33 607.71 447.46 608.26 C 447.60 608.90 447.80 609.54 448.04 610.15 C 448.68 611.41 448.88 612.84 448.62 614.22 C 448.43 614.86 447.84 615.30 447.17 615.29 Z" fill="#262d33" fill-rule="nonzero" node-id="139" stroke="none" target-height="10.438416" target-width="4.626526" target-x="444.25528" target-y="604.86633"></path><path d="M 478.28 679.73 L 405.00 679.73 L 401.52 673.50 L 400.14 671.18 L 397.46 666.70 L 399.00 665.76 L 457.19 659.81 L 465.57 659.81 L 471.32 668.81 L 472.77 671.09 L 478.28 679.73 Z" fill="#0078ff" fill-rule="nonzero" node-id="141" stroke="none" target-height="19.919983" target-width="80.82001" target-x="397.46" target-y="659.81"></path><path d="M 478.28 681.23 L 405.00 681.23 C 404.46 681.23 403.95 680.94 403.69 680.46 L 398.85 671.94 L 396.17 667.47 C 395.96 667.13 395.90 666.72 396.00 666.33 C 396.09 665.95 396.34 665.62 396.68 665.41 L 398.23 664.48 C 398.42 664.37 398.63 664.30 398.85 664.27 L 457.00 658.32 L 465.54 658.32 C 466.05 658.32 466.53 658.58 466.81 659.01 L 479.51 678.93 C 479.79 679.40 479.79 679.99 479.51 680.46 C 479.26 680.91 478.80 681.20 478.28 681.23 Z M 405.88 678.23 L 475.54 678.23 L 464.75 661.31 L 457.26 661.31 L 399.52 667.22 L 402.81 672.74 Z" fill="#262d33" fill-rule="nonzero" node-id="143" stroke="none" target-height="22.909973" target-width="83.8916" target-x="395.90247" target-y="658.32"></path><path d="M 386.49 651.39 L 386.51 651.39 L 397.43 645.38 L 452.88 644.71" fill="#fbf5f0" fill-rule="nonzero" node-id="145" stroke="none" target-height="6.6799927" target-width="66.390015" target-x="386.49" target-y="644.71"></path><path d="M 386.51 652.90 C 385.79 652.91 385.17 652.41 385.02 651.71 C 384.87 651.01 385.24 650.30 385.90 650.02 L 396.70 644.07 C 396.92 643.95 397.16 643.88 397.41 643.88 L 452.86 643.21 C 453.69 643.21 454.36 643.88 454.36 644.71 C 454.36 645.54 453.69 646.21 452.86 646.21 L 397.78 646.88 L 387.19 652.71 C 386.98 652.83 386.75 652.89 386.51 652.90 Z" fill="#262d33" fill-rule="nonzero" node-id="147" stroke="none" target-height="9.700745" target-width="69.488525" target-x="384.87146" target-y="643.21"></path><path d="M 554.10 630.34 C 550.56 636.91 541.23 652.13 529.58 654.65 C 517.93 657.17 505.70 651.71 499.25 645.38 C 493.35 653.03 479.25 670.73 474.12 671.17 C 473.67 671.19 473.22 671.16 472.77 671.09 L 471.32 668.81 L 504.06 625.45 C 509.78 629.38 517.23 633.95 522.24 634.79 C 531.18 636.28 535.16 630.18 535.16 630.18 C 535.16 630.18 552.66 611.81 561.16 611.18 C 567.16 610.72 561.92 618.99 558.35 623.87 C 559.54 623.39 560.70 622.82 561.80 622.16 C 563.46 621.07 562.67 626.12 554.10 630.34 Z" fill="#fbf5f0" fill-rule="nonzero" node-id="149" stroke="none" target-height="60.46997" target-width="95.839966" target-x="471.32" target-y="610.72"></path><path d="M 473.87 672.68 C 473.44 672.67 473.01 672.64 472.59 672.58 C 472.15 672.53 471.75 672.28 471.51 671.90 L 470.05 669.62 C 469.72 669.09 469.74 668.41 470.12 667.91 L 502.86 624.54 C 503.35 623.90 504.25 623.76 504.91 624.21 C 512.66 629.53 518.73 632.68 522.49 633.31 C 530.29 634.62 533.76 629.57 533.91 629.36 C 533.95 629.28 534.01 629.21 534.07 629.15 C 535.90 627.23 552.23 610.34 561.00 609.70 C 563.34 609.51 564.42 610.50 564.90 611.35 C 565.57 612.57 565.90 614.81 562.39 620.54 C 562.62 620.56 562.85 620.63 563.05 620.75 C 563.68 621.12 564.04 621.81 563.99 622.54 C 563.93 624.73 561.15 628.43 555.20 631.46 C 551.44 638.34 541.92 653.52 529.89 656.12 C 518.32 658.62 506.34 653.62 499.43 647.59 C 486.78 663.88 478.31 672.31 474.25 672.66 Z M 473.65 669.68 L 474.00 669.68 C 476.33 669.48 484.00 662.77 498.10 644.48 C 498.36 644.14 498.75 643.92 499.18 643.89 C 499.61 643.87 500.03 644.03 500.34 644.32 C 506.42 650.32 518.07 655.61 529.34 653.19 C 540.40 650.80 549.47 635.92 552.86 629.63 C 553.01 629.36 553.24 629.14 553.52 629.00 C 555.58 628.04 557.47 626.76 559.12 625.21 L 558.97 625.27 C 558.35 625.54 557.63 625.36 557.21 624.83 C 556.80 624.29 556.80 623.55 557.21 623.01 C 562.36 616.01 562.69 613.22 562.39 612.81 C 562.39 612.81 562.18 612.64 561.39 612.70 C 554.97 613.17 541.33 626.09 536.49 631.15 C 535.80 632.15 531.32 637.81 522.17 636.28 C 518.17 635.60 512.17 632.65 504.57 627.50 L 473.31 668.89 Z" fill="#262d33" fill-rule="nonzero" node-id="151" stroke="none" target-height="63.169983" target-width="96.183136" target-x="469.7169" target-y="609.51"></path><path d="M 701.17 670.55 C 693.27 715.00 670.02 755.27 635.48 784.34 L 599.00 740.87 C 623.40 720.43 639.82 692.05 645.37 660.71 Z" fill="#0078ff" fill-rule="nonzero" node-id="153" stroke="none" target-height="123.630005" target-width="102.16998" target-x="599" target-y="660.71"></path><path d="M 635.48 786.59 L 635.29 786.59 C 634.69 786.54 634.14 786.26 633.76 785.80 L 597.28 742.33 C 596.48 741.38 596.60 739.96 597.55 739.16 C 621.53 719.05 637.67 691.14 643.15 660.33 C 643.37 659.11 644.54 658.29 645.76 658.51 L 701.56 668.35 C 702.15 668.45 702.67 668.78 703.01 669.27 C 703.35 669.76 703.48 670.36 703.38 670.95 C 696.94 707.85 679.91 742.08 654.38 769.48 C 648.91 775.36 643.10 780.90 636.96 786.08 C 636.54 786.42 636.02 786.60 635.48 786.59 Z M 602.16 741.14 L 635.75 781.14 C 641.12 776.50 646.23 771.58 651.06 766.38 C 675.48 740.18 691.95 707.58 698.55 672.38 L 647.18 663.32 C 641.28 693.56 625.43 720.95 602.16 741.14 Z" fill="#262d33" fill-rule="nonzero" node-id="155" stroke="none" target-height="128.30988" target-width="107.00519" target-x="596.4794" target-y="658.2919"></path><path d="M 577.76 817.84 C 535.26 833.13 488.76 833.08 446.30 817.69 L 465.68 764.44 C 495.60 775.32 528.40 775.32 558.32 764.44 Z" fill="#fe7236" fill-rule="nonzero" node-id="157" stroke="none" target-height="68.69116" target-width="131.46002" target-x="446.3" target-y="764.44"></path><path d="M 512.00 831.52 C 489.33 831.55 466.83 827.58 445.53 819.80 C 444.97 819.60 444.51 819.18 444.26 818.64 C 444.01 818.10 443.98 817.48 444.19 816.92 L 463.57 763.67 C 463.77 763.11 464.19 762.65 464.73 762.40 C 465.27 762.15 465.89 762.12 466.45 762.32 C 495.87 773.03 528.13 773.03 557.55 762.32 C 558.72 761.90 560.01 762.50 560.44 763.67 L 579.88 817.07 C 580.08 817.63 580.05 818.25 579.80 818.79 C 579.55 819.33 579.09 819.75 578.53 819.95 C 557.20 827.66 534.68 831.57 512.00 831.52 Z M 449.19 816.34 C 469.37 823.43 490.61 827.04 512.00 827.00 C 533.40 827.04 554.65 823.48 574.87 816.46 L 557.00 767.31 C 527.86 777.36 496.20 777.36 467.06 767.31 Z" fill="#262d33" fill-rule="nonzero" node-id="159" stroke="none" target-height="69.66974" target-width="136.0951" target-x="443.98407" target-y="761.9033"></path></svg>