<?xml version="1.0" standalone="no"?><!DOCTYPE svg PUBLIC "-//W3C//DTD SVG 1.1//EN" "http://www.w3.org/Graphics/SVG/1.1/DTD/svg11.dtd"><svg height="1024" node-id="1" sillyvg="true" template-height="1024" template-width="1024" version="1.1" viewBox="0 0 1024 1024" width="1024" xmlns="http://www.w3.org/2000/svg" xmlns:xlink="http://www.w3.org/1999/xlink"><defs node-id="30"></defs><path d="M 723.58 467.00 L 576.58 870.92 L 442.26 822.00 L 520.00 608.36 C 612.00 605.19 690.22 547.72 723.58 467.00 Z" fill="#02c3ff" fill-rule="nonzero" node-id="32" stroke="none" target-height="403.91998" target-width="281.32" target-x="442.26" target-y="467"></path><path d="M 576.56 873.17 C 576.30 873.17 576.04 873.13 575.79 873.04 L 441.49 824.15 C 440.93 823.95 440.47 823.53 440.22 822.99 C 439.97 822.45 439.94 821.83 440.14 821.27 L 517.91 607.59 C 518.22 606.74 519.01 606.16 519.91 606.11 C 608.70 602.91 687.46 548.20 721.46 466.11 C 721.94 465.01 723.21 464.48 724.34 464.92 C 725.46 465.35 726.04 466.60 725.65 467.74 L 578.65 871.66 C 578.33 872.55 577.50 873.15 576.56 873.17 Z M 445.14 820.70 L 575.22 868.00 L 709.00 500.62 C 668.67 566.10 598.47 607.29 521.63 610.55 Z" fill="#262d33" fill-rule="nonzero" node-id="34" stroke="none" target-height="408.68924" target-width="286.09775" target-x="439.94083" target-y="464.48074"></path><path d="M 723.58 467.00 L 576.58 870.92 L 442.26 822.00 L 520.00 608.36 C 612.00 605.19 690.22 547.72 723.58 467.00 Z" fill="#02c3ff" fill-rule="nonzero" node-id="36" stroke="none" target-height="403.91998" target-width="281.32" target-x="442.26" target-y="467"></path><path d="M 576.56 873.17 C 576.30 873.17 576.04 873.13 575.79 873.04 L 441.49 824.15 C 440.93 823.95 440.47 823.53 440.22 822.99 C 439.97 822.45 439.94 821.83 440.14 821.27 L 517.91 607.59 C 518.22 606.74 519.01 606.16 519.91 606.11 C 608.70 602.91 687.46 548.20 721.46 466.11 C 721.94 465.01 723.21 464.48 724.34 464.92 C 725.46 465.35 726.04 466.60 725.65 467.74 L 578.65 871.66 C 578.33 872.55 577.50 873.15 576.56 873.17 Z M 445.14 820.70 L 575.22 868.00 L 709.00 500.62 C 668.67 566.10 598.47 607.29 521.63 610.55 Z" fill="#262d33" fill-rule="nonzero" node-id="38" stroke="none" target-height="408.68924" target-width="286.09775" target-x="439.94083" target-y="464.48074"></path><path d="M 483.42 802.84 L 543.14 638.77 C 576.44 634.82 608.65 624.46 638.00 608.24 L 557.37 829.76 Z" fill="#0078ff" fill-rule="nonzero" node-id="40" stroke="none" target-height="221.52002" target-width="154.57999" target-x="483.42" target-y="608.24"></path><path d="M 557.37 832.00 C 557.11 832.00 556.85 831.95 556.60 831.86 L 482.60 804.95 C 481.44 804.52 480.84 803.24 481.26 802.07 L 541.00 638.00 C 541.29 637.20 542.01 636.64 542.85 636.54 C 575.85 632.64 607.78 622.36 636.85 606.27 C 637.67 605.82 638.69 605.93 639.40 606.54 C 640.11 607.14 640.37 608.13 640.06 609.01 L 559.48 830.53 C 559.28 831.09 558.86 831.55 558.32 831.80 C 558.02 831.93 557.70 832.00 557.37 832.00 Z M 486.31 801.50 L 556.00 826.87 L 633.86 613.00 C 606.08 627.56 575.91 636.98 544.78 640.82 Z" fill="#262d33" fill-rule="nonzero" node-id="42" stroke="none" target-height="226.18005" target-width="159.53543" target-x="480.83707" target-y="605.8229"></path><path d="M 512.00 150.83 C 385.63 150.83 283.18 253.29 283.18 379.67 C 283.18 477.62 344.71 561.18 431.18 593.84 C 438.21 554.98 472.09 526.74 511.58 526.84 C 551.08 526.94 584.82 555.34 591.65 594.24 C 681.39 560.99 740.91 475.37 740.83 379.67 C 740.83 253.29 638.38 150.83 512.00 150.83 Z M 593.72 406.35 C 592.80 409.21 591.73 412.01 590.51 414.75 C 571.52 457.60 521.85 477.52 478.52 459.66 C 435.19 441.79 413.98 392.65 430.72 348.87 C 447.45 305.09 496.02 282.62 540.22 298.20 C 584.42 313.79 608.15 361.76 593.72 406.35 Z" fill="#02c3ff" fill-rule="nonzero" node-id="44" stroke="#262d33" stroke-linecap="butt" stroke-width="4.5" target-height="443.40997" target-width="457.7348" target-x="283.18" target-y="150.83"></path><path d="M 591.67 594.24 C 568.70 602.78 544.49 607.55 520.00 608.36 C 517.33 608.45 514.66 608.51 512.00 608.51 C 484.41 608.54 457.05 603.57 431.23 593.84 L 431.23 593.84 C 438.26 554.98 472.14 526.74 511.63 526.84 C 551.13 526.94 584.87 555.34 591.70 594.24 Z" fill="#fe7236" fill-rule="nonzero" node-id="46" stroke="none" target-height="81.79578" target-width="160.47" target-x="431.23" target-y="526.744"></path><path d="M 512.00 610.76 C 484.16 610.81 456.54 605.81 430.48 596.00 C 430.09 595.87 429.74 595.64 429.48 595.32 C 429.05 594.81 428.87 594.14 428.99 593.48 C 436.21 553.54 471.03 524.53 511.62 524.64 C 552.20 524.74 586.87 553.93 593.89 593.90 C 594.07 594.97 593.47 596.01 592.46 596.39 C 569.27 605.01 544.84 609.82 520.11 610.65 C 517.00 610.71 514.46 610.76 512.00 610.76 Z M 433.78 592.39 C 458.83 601.60 485.31 606.29 512.00 606.26 C 514.42 606.26 517.00 606.26 520.00 606.11 C 543.61 605.32 566.94 600.83 589.15 592.79 C 581.74 555.84 549.33 529.22 511.64 529.13 C 473.96 529.03 441.42 555.48 433.81 592.39 Z" fill="#262d33" fill-rule="nonzero" node-id="48" stroke="none" target-height="86.27777" target-width="165.19519" target-x="428.8744" target-y="524.53436"></path><path d="M 414.45 645.41 C 414.31 649.22 411.73 649.32 411.73 649.32 C 404.73 645.77 402.96 649.46 402.96 649.46 C 402.96 649.46 404.56 655.11 400.71 656.25 C 400.01 656.46 399.26 656.48 398.55 656.31 C 395.55 655.67 393.18 652.04 393.85 648.72 C 394.33 646.35 396.21 644.51 398.59 644.09 C 398.59 644.09 397.69 641.58 401.28 638.64 C 404.87 635.70 409.28 642.44 409.28 642.44 C 409.28 642.44 414.60 641.60 414.45 645.41 Z" fill="#0078ff" fill-rule="nonzero" node-id="50" stroke="none" target-height="20.779663" target-width="21.420013" target-x="393.18" target-y="635.7"></path><path d="M 399.50 657.93 C 399.06 657.93 398.63 657.87 398.20 657.77 C 394.34 656.94 391.56 652.48 392.38 648.43 C 392.85 645.93 394.60 643.86 397.00 643.00 C 397.09 641.64 397.75 639.60 400.31 637.50 C 401.33 636.65 402.66 636.29 403.97 636.50 C 406.66 636.91 408.97 639.56 409.97 640.91 C 411.61 640.75 413.26 641.20 414.58 642.19 C 415.51 643.03 416.00 644.26 415.90 645.51 C 415.75 649.61 413.12 650.81 411.74 650.86 C 411.48 650.88 411.23 650.82 411.00 650.70 C 406.93 648.62 405.17 649.36 404.54 649.87 C 405.05 652.47 404.85 656.62 401.08 657.73 C 400.57 657.87 400.03 657.94 399.50 657.93 Z M 403.26 639.40 C 402.89 639.41 402.54 639.55 402.26 639.80 C 399.64 641.95 400.03 643.57 400.05 643.63 C 400.17 644.05 400.10 644.51 399.86 644.88 C 399.64 645.24 399.27 645.49 398.86 645.57 C 397.10 645.91 395.73 647.28 395.38 649.03 C 394.89 651.42 396.68 654.36 398.92 654.85 C 399.39 654.98 399.89 654.98 400.36 654.85 C 402.72 654.15 401.58 649.95 401.57 649.90 C 401.47 649.55 401.51 649.17 401.67 648.84 C 402.27 647.78 403.25 646.99 404.42 646.64 C 406.42 645.96 409.00 646.35 411.98 647.78 C 412.34 647.61 412.98 647.06 412.98 645.40 L 412.98 645.40 C 413.05 645.04 412.93 644.66 412.67 644.40 C 411.98 643.79 410.25 643.82 409.57 643.93 C 408.99 644.02 408.41 643.76 408.08 643.27 C 407.18 641.92 405.16 639.68 403.56 639.43 Z" fill="#262d33" fill-rule="nonzero" node-id="52" stroke="none" target-height="21.646362" target-width="24.436737" target-x="391.56" target-y="636.2899"></path><path d="M 411.73 650.77 C 411.34 650.78 410.96 650.63 410.68 650.36 C 410.39 650.09 410.23 649.71 410.23 649.32 L 410.23 649.22 C 410.23 648.39 410.90 647.72 411.73 647.72 C 412.56 647.72 413.23 648.39 413.23 649.22 C 413.24 650.06 412.57 650.75 411.73 650.77 Z" fill="#262d33" fill-rule="nonzero" node-id="54" stroke="none" target-height="3.060791" target-width="3.0057068" target-x="410.23" target-y="647.72"></path><path d="M 437.64 703.77 L 420.64 720.00 L 443.42 740.49 C 445.05 741.95 446.21 743.87 446.74 746.00 L 456.17 783.74 L 448.49 805.94 L 435.89 762.33 C 434.89 758.85 432.59 755.88 429.47 754.04 C 419.14 747.95 395.42 732.87 390.86 720.17 C 389.86 717.32 388.73 714.36 387.59 711.39 C 382.88 698.99 377.75 686.15 376.24 677.58 C 369.55 682.76 370.75 686.81 370.75 686.81 C 370.75 686.81 373.75 709.81 378.82 715.14 C 383.89 720.47 379.73 722.14 375.02 721.19 C 370.31 720.24 365.81 706.71 359.71 689.67 C 353.61 672.63 374.00 665.72 380.21 661.44 C 386.42 657.16 396.28 661.10 396.28 661.10 L 398.53 656.31 C 399.24 656.48 399.99 656.46 400.69 656.25 C 404.54 655.11 402.94 649.46 402.94 649.46 C 402.94 649.46 404.75 645.77 411.71 649.32 C 411.71 650.58 411.26 662.01 404.36 660.20 C 404.36 660.20 401.54 660.90 402.68 662.42 C 405.25 663.32 407.60 664.75 409.57 666.63 C 409.60 666.69 409.66 666.74 409.72 666.77 C 410.69 667.77 411.43 668.97 411.91 670.28 C 412.81 672.95 411.52 678.21 410.24 683.99 C 409.35 687.68 408.73 691.43 408.40 695.21 C 408.22 697.38 408.38 699.56 408.88 701.67 L 436.69 686.52 C 440.96 684.21 446.29 685.50 449.02 689.52 L 476.13 729.00 L 469.80 746.38 L 442.87 704.38 C 442.32 703.52 441.41 702.96 440.40 702.84 C 439.39 702.72 438.37 703.06 437.64 703.77 Z" fill="#fbf5f0" fill-rule="nonzero" node-id="56" stroke="none" target-height="160.16998" target-width="122.52002" target-x="353.61" target-y="645.77"></path><path d="M 448.51 807.44 L 448.51 807.44 C 447.86 807.42 447.29 806.98 447.11 806.35 L 434.51 762.75 C 433.62 759.63 431.56 756.97 428.77 755.33 C 416.07 747.85 394.07 733.39 389.51 720.68 C 388.51 717.84 387.39 714.89 386.25 711.93 L 384.65 707.72 C 380.92 697.97 377.09 687.94 375.34 680.39 C 371.73 683.92 372.25 686.39 372.26 686.39 L 372.26 686.59 C 373.06 692.85 376.02 710.00 379.92 714.08 C 382.46 716.73 383.25 718.98 382.26 720.78 C 381.03 723.02 377.57 723.21 374.74 722.63 C 369.74 721.63 366.11 711.98 359.55 693.63 L 358.32 690.17 C 352.83 674.85 366.87 667.17 375.26 662.60 C 376.93 661.68 378.38 660.89 379.38 660.20 C 384.81 656.46 392.45 658.26 395.51 659.20 L 397.19 655.63 C 397.50 654.99 398.21 654.65 398.90 654.81 C 399.36 654.94 399.84 654.94 400.30 654.81 C 402.65 654.11 401.53 649.91 401.51 649.87 C 401.41 649.51 401.45 649.13 401.61 648.80 C 402.21 647.74 403.19 646.95 404.36 646.60 C 406.51 645.89 409.22 646.35 412.42 647.99 C 412.93 648.25 413.25 648.78 413.23 649.36 C 413.18 651.36 412.75 658.09 409.17 660.77 C 408.06 661.61 406.68 662.00 405.30 661.87 C 407.28 662.80 409.09 664.05 410.66 665.58 L 410.66 665.58 C 410.72 665.63 410.78 665.68 410.83 665.74 C 411.94 666.88 412.80 668.25 413.35 669.74 C 414.35 672.62 413.25 677.43 412.01 683.01 L 411.73 684.26 C 410.85 687.88 410.25 691.55 409.91 695.26 C 409.82 696.62 409.85 697.98 409.99 699.33 L 435.99 685.17 C 440.92 682.46 447.11 683.94 450.28 688.59 L 477.36 728.10 C 477.64 728.50 477.70 729.00 477.54 729.46 L 471.21 746.85 C 471.02 747.39 470.53 747.78 469.96 747.85 C 469.39 747.91 468.84 747.64 468.53 747.17 L 441.61 705.17 C 441.30 704.69 440.79 704.36 440.22 704.30 C 439.65 704.23 439.08 704.42 438.67 704.82 L 422.86 720.00 L 444.45 739.41 C 446.30 741.07 447.61 743.25 448.21 745.67 L 457.65 783.41 C 457.73 783.69 457.73 783.98 457.65 784.26 L 449.97 806.46 C 449.74 807.07 449.16 807.46 448.51 807.44 Z M 376.26 676.08 C 376.44 676.08 376.63 676.12 376.80 676.18 C 377.29 676.37 377.64 676.80 377.73 677.32 C 379.05 684.78 383.30 695.90 387.41 706.65 L 389.01 710.86 C 390.16 713.86 391.25 716.80 392.29 719.66 C 396.70 731.93 420.29 746.88 430.29 752.75 C 433.74 754.78 436.29 758.07 437.39 761.92 L 448.64 801.00 L 454.64 783.69 L 445.31 746.38 C 444.86 744.54 443.86 742.89 442.45 741.63 L 419.66 721.14 C 419.35 720.86 419.17 720.47 419.17 720.05 C 419.16 719.63 419.33 719.23 419.63 718.94 L 436.63 702.71 L 436.63 702.71 C 437.69 701.69 439.15 701.20 440.62 701.38 C 442.08 701.56 443.38 702.38 444.17 703.62 L 469.42 743.00 L 474.42 729.19 L 447.80 690.33 C 445.50 686.95 441.01 685.87 437.43 687.84 L 409.61 703.00 C 409.21 703.22 408.72 703.24 408.30 703.06 C 407.88 702.88 407.57 702.51 407.45 702.07 C 406.90 699.80 406.73 697.46 406.92 695.13 C 407.26 691.27 407.89 687.44 408.80 683.68 L 409.08 682.42 C 410.08 677.71 411.21 672.85 410.51 670.77 C 410.13 669.72 409.53 668.75 408.76 667.94 C 408.64 667.84 408.53 667.73 408.44 667.61 C 406.65 665.95 404.54 664.67 402.24 663.86 C 401.95 663.76 401.69 663.58 401.50 663.33 C 400.95 662.67 400.79 661.76 401.07 660.95 C 401.59 659.46 403.46 658.89 404.02 658.75 C 404.26 658.69 404.52 658.69 404.76 658.75 C 405.64 659.06 406.62 658.92 407.37 658.37 C 409.26 656.96 410.00 652.96 410.19 650.24 C 406.73 648.69 405.19 649.35 404.59 649.83 C 405.10 652.43 404.90 656.58 401.13 657.69 C 400.58 657.84 400.02 657.92 399.45 657.93 L 397.66 661.74 C 397.32 662.46 396.48 662.78 395.74 662.49 C 395.65 662.49 386.54 658.92 381.08 662.68 C 379.95 663.46 378.44 664.28 376.69 665.24 C 368.69 669.63 356.52 676.24 361.14 689.17 L 362.38 692.64 C 367.22 706.19 371.78 718.99 375.38 719.72 C 377.96 720.24 379.47 719.72 379.68 719.36 C 379.79 719.16 379.68 718.14 377.79 716.18 C 372.57 710.72 369.69 689.88 369.33 687.09 C 369.11 686.09 368.55 681.68 375.33 676.40 C 375.59 676.19 375.92 676.08 376.26 676.08 Z M 410.21 665.35 Z M 410.21 665.35 L 410.21 665.35 Z M 410.21 665.35 Z" fill="#262d33" fill-rule="nonzero" node-id="58" stroke="none" target-height="161.56958" target-width="124.872986" target-x="352.83" target-y="645.89"></path><path d="M 384.52 672.77 C 381.59 674.06 378.82 675.67 376.26 677.58" fill="#fbf5f0" fill-rule="nonzero" node-id="60" stroke="none" target-height="4.8099976" target-width="8.259979" target-x="376.26" target-y="672.77"></path><path d="M 376.26 679.08 C 375.62 679.08 375.05 678.67 374.85 678.07 C 374.64 677.46 374.84 676.79 375.34 676.40 C 378.00 674.42 380.87 672.74 383.90 671.40 C 384.65 671.05 385.54 671.39 385.89 672.14 C 386.24 672.89 385.90 673.78 385.15 674.13 C 382.32 675.38 379.64 676.93 377.15 678.77 C 376.90 678.97 376.58 679.08 376.26 679.08 Z" fill="#262d33" fill-rule="nonzero" node-id="62" stroke="none" target-height="8.0252075" target-width="11.595154" target-x="374.64" target-y="671.0548"></path><path d="M 398.59 656.21 L 398.55 656.31" fill="#fbf5f0" fill-rule="nonzero" node-id="64" stroke="none" target-height="0.099975586" target-width="0.040008545" target-x="398.55" target-y="656.21"></path><path d="M 398.55 657.81 C 398.34 657.81 398.14 657.77 397.95 657.69 C 397.58 657.53 397.29 657.23 397.14 656.85 C 396.99 656.48 397.00 656.06 397.17 655.69 C 397.50 654.91 398.39 654.54 399.17 654.85 C 399.53 654.99 399.83 655.28 399.98 655.64 C 400.13 656.00 400.13 656.41 399.98 656.77 L 399.98 656.88 C 399.74 657.46 399.17 657.82 398.55 657.81 Z" fill="#262d33" fill-rule="nonzero" node-id="66" stroke="none" target-height="3.2855835" target-width="3.1390991" target-x="396.99188" target-y="654.5391"></path><path d="M 420.66 720.00 L 413.68 713.75" fill="#fbf5f0" fill-rule="nonzero" node-id="68" stroke="none" target-height="6.25" target-width="6.980011" target-x="413.68" target-y="713.75"></path><path d="M 420.66 721.50 C 420.29 721.50 419.93 721.37 419.66 721.12 L 412.66 714.86 C 412.10 714.30 412.07 713.39 412.60 712.80 C 413.14 712.21 414.04 712.13 414.66 712.63 L 421.66 718.89 C 422.12 719.31 422.27 719.96 422.05 720.54 C 421.83 721.11 421.28 721.50 420.66 721.50 Z" fill="#262d33" fill-rule="nonzero" node-id="70" stroke="none" target-height="9.372803" target-width="10.200165" target-x="412.0728" target-y="712.1316"></path><path d="M 461.64 653.81 C 461.18 655.09 460.56 656.31 459.81 657.44 C 459.81 657.44 453.67 669.24 430.24 678.23 C 423.74 680.68 417.05 682.60 410.24 683.99 C 411.52 678.21 412.81 672.99 411.91 670.28 C 411.43 668.97 410.69 667.77 409.72 666.77 L 409.57 666.63 C 409.51 666.32 410.77 665.63 423.97 665.46 C 440.86 665.30 449.71 655.02 457.24 652.01 C 461.82 650.18 462.24 651.86 461.64 653.81 Z" fill="#fbf5f0" fill-rule="nonzero" node-id="72" stroke="none" target-height="33.809998" target-width="52.72998" target-x="409.51" target-y="650.18"></path><path d="M 410.26 685.49 C 409.86 685.49 409.48 685.33 409.20 685.04 C 408.84 684.68 408.69 684.16 408.80 683.66 L 409.08 682.41 C 410.08 677.70 411.21 672.84 410.51 670.76 C 410.11 669.64 409.47 668.62 408.64 667.76 C 408.36 667.55 408.17 667.23 408.11 666.88 C 408.04 666.40 408.17 665.92 408.46 665.54 C 409.00 664.88 409.67 664.06 423.97 663.93 C 435.45 663.82 443.12 658.84 449.27 654.83 C 451.61 653.19 454.10 651.77 456.70 650.59 C 458.48 649.87 461.02 649.08 462.49 650.44 C 463.11 651.01 463.72 652.12 463.07 654.22 L 463.07 654.22 C 462.57 655.63 461.90 656.97 461.07 658.22 C 460.43 659.38 453.70 670.84 430.75 679.64 C 424.18 682.11 417.42 684.06 410.54 685.47 C 410.45 685.48 410.35 685.49 410.26 685.49 Z M 412.17 667.49 C 412.66 668.22 413.06 669.01 413.35 669.84 C 414.26 672.54 413.35 676.94 412.23 682.08 C 418.17 680.76 424.01 679.02 429.71 676.88 C 452.21 668.25 458.42 656.88 458.48 656.79 C 458.50 656.74 458.53 656.69 458.56 656.65 C 459.23 655.64 459.79 654.56 460.20 653.42 C 460.27 653.21 460.32 652.99 460.34 652.77 C 459.47 652.85 458.61 653.08 457.82 653.45 C 455.40 654.57 453.08 655.91 450.91 657.45 C 444.43 661.67 436.36 666.92 424.00 667.04 C 417.33 667.00 413.91 667.24 412.17 667.44 Z M 461.64 653.86 L 461.64 653.86 Z" fill="#262d33" fill-rule="nonzero" node-id="74" stroke="none" target-height="36.411377" target-width="55.676727" target-x="408.04327" target-y="649.08"></path><path d="M 375.86 797.53 C 375.64 797.53 375.42 797.48 375.22 797.39 C 374.86 797.22 374.58 796.91 374.45 796.54 C 374.32 796.16 374.34 795.75 374.51 795.39 C 374.58 795.24 381.51 780.39 373.66 762.15 C 365.31 742.72 373.29 721.54 373.66 720.65 C 373.98 719.91 374.82 719.55 375.57 719.84 C 376.33 720.13 376.72 720.96 376.46 721.72 C 376.38 721.93 368.57 742.72 376.46 760.96 C 384.84 780.46 377.57 796.03 377.25 796.68 C 377.00 797.22 376.45 797.55 375.86 797.53 Z" fill="#262d32" fill-rule="nonzero" node-id="76" stroke="none" target-height="77.996155" target-width="19.529999" target-x="365.31" target-y="719.554"></path><path d="M 380.38 718.53 C 379.74 718.53 379.16 718.12 378.95 717.52 C 378.75 716.91 378.95 716.23 379.46 715.84 L 460.60 652.70 L 460.71 652.61 L 519.11 607.18 C 519.76 606.74 520.65 606.88 521.13 607.50 C 521.61 608.12 521.54 609.01 520.95 609.54 L 462.66 654.90 L 462.55 654.99 L 381.30 718.21 C 381.04 718.41 380.71 718.53 380.38 718.53 Z" fill="#262d32" fill-rule="nonzero" node-id="78" stroke="none" target-height="111.79205" target-width="142.86807" target-x="378.7455" target-y="606.7409"></path></svg>