<?xml version="1.0" standalone="no"?><!DOCTYPE svg PUBLIC "-//W3C//DTD SVG 1.1//EN" "http://www.w3.org/Graphics/SVG/1.1/DTD/svg11.dtd"><svg height="1571" node-id="1" sillyvg="true" template-height="1571" template-width="1025" version="1.1" viewBox="0 0 1025 1571" width="1025" xmlns="http://www.w3.org/2000/svg" xmlns:xlink="http://www.w3.org/1999/xlink"><defs node-id="94"></defs><g node-id="96"><path d="M 220.36 889.37 L 235.59 902.41 L 251.12 914.90 L 266.94 926.85 L 283.07 938.27 L 299.50 949.18 L 316.25 959.56 L 333.31 969.43 L 350.71 978.80 L 368.45 987.66 L 386.54 996.01 L 404.98 1003.87" fill="none" group-id="1" id="路径" node-id="6" stroke="#e2e0d0" stroke-linecap="butt" stroke-width="1" target-height="114.5" target-width="184.62001" target-x="220.36" target-y="889.37"></path><path d="M 404.98 1003.87 L 375.71 1021.40" fill="none" group-id="1" id="路径" node-id="7" stroke="#a8a6a1" stroke-linecap="butt" stroke-width="1" target-height="17.53003" target-width="29.27002" target-x="375.71" target-y="1003.87"></path><path d="M 375.71 1021.40 L 295.67 1058.29" fill="none" group-id="1" id="路径" node-id="8" stroke="#ecebe0" stroke-linecap="butt" stroke-width="1" target-height="36.890015" target-width="80.03998" target-x="295.67" target-y="1021.4"></path><path d="M 295.67 1058.29 L 268.38 1070.34" fill="none" group-id="1" id="路径" node-id="9" stroke="#e2e0d0" stroke-linecap="butt" stroke-width="1" target-height="12.049927" target-width="27.290009" target-x="268.38" target-y="1058.29"></path><path d="M 268.38 1070.34 L 196.58 1104.03" fill="none" group-id="1" id="路径" node-id="10" stroke="#ecebe0" stroke-linecap="butt" stroke-width="1" target-height="33.690063" target-width="71.8" target-x="196.58" target-y="1070.34"></path><path d="M 196.58 1104.03 L 169.29 1116.08" fill="none" group-id="1" id="路径" node-id="11" stroke="#e2e0d0" stroke-linecap="butt" stroke-width="1" target-height="12.049927" target-width="27.290009" target-x="169.29" target-y="1104.03"></path><path d="M 169.29 1116.08 L 16.52 1188.80 L 15.44 1189.49 L 14.55 1190.42 L 13.90 1191.54 L 13.50 1192.84 L 13.38 1194.22 L 13.55 1195.62 L 13.99 1196.97 L 14.69 1198.25 L 47.93 1245.05" fill="none" group-id="1" id="路径" node-id="12" stroke="#ecebe0" stroke-linecap="butt" stroke-width="1" target-height="128.9701" target-width="155.90999" target-x="13.38" target-y="1116.08"></path><path d="M 47.93 1245.05 L 41.37 1253.54 L 35.44 1262.18 L 30.11 1271.00 L 25.37 1280.01 L 21.10 1289.29 L 17.31 1298.72 L 13.99 1308.31 L 11.12 1318.06 L 8.68 1327.94 L 6.59 1337.92 L 4.85 1348.02 L 3.47 1358.25 L 2.10 1371.94 L 1.16 1385.73 L 0.68 1399.61 L 0.57 1420.44 L 1.03 1441.17 L 1.85 1461.81 L 2.80 1481.97" fill="none" group-id="1" id="路径" node-id="13" stroke="#94afc3" stroke-linecap="butt" stroke-width="1" target-height="236.91992" target-width="47.36" target-x="0.57" target-y="1245.05"></path><path d="M 2.80 1481.97 L 1.52 1491.86 L 0.76 1501.65 L 0.50 1511.37 L 0.75 1521.03 L 1.49 1530.63 L 2.74 1540.20 L 4.50 1549.74 L 6.77 1559.27 L 7.59 1561.43 L 8.75 1563.28 L 10.28 1564.88 L 12.10 1566.15 L 14.11 1567.02 L 16.37 1567.50 L 35.59 1568.93 L 54.80 1569.88 L 73.98 1570.33 L 93.16 1570.28 L 112.33 1569.75 L 131.51 1568.73 L 150.70 1567.22 L 169.89 1565.22" fill="none" group-id="1" id="路径" node-id="14" stroke="#e2e0d0" stroke-linecap="butt" stroke-width="1" target-height="88.359985" target-width="169.39" target-x="0.5" target-y="1481.97"></path><path d="M 169.89 1565.22 L 268.99 1565.22" fill="none" group-id="1" id="路径" node-id="15" stroke="#ecebe0" stroke-linecap="butt" stroke-width="1" target-height="0" target-width="99.09999" target-x="169.89" target-y="1565.22"></path><path d="M 268.99 1565.22 L 272.91 1567.02 L 276.73 1568.28 L 280.50 1569.01 L 284.24 1569.26 L 287.98 1569.01 L 291.74 1568.28 L 295.57 1567.02 L 299.48 1565.22" fill="none" group-id="1" id="路径" node-id="16" stroke="#e2e0d0" stroke-linecap="butt" stroke-width="1" target-height="4.040039" target-width="30.49002" target-x="268.99" target-y="1565.22"></path><path d="M 299.48 1565.22 L 730.18 1565.22" fill="none" group-id="1" id="路径" node-id="17" stroke="#ecebe0" stroke-linecap="butt" stroke-width="1" target-height="0" target-width="430.69998" target-x="299.48" target-y="1565.22"></path><path d="M 730.18 1565.22 L 760.67 1565.22" fill="none" group-id="1" id="路径" node-id="18" stroke="#e2e0d0" stroke-linecap="butt" stroke-width="1" target-height="0" target-width="30.48999" target-x="730.18" target-y="1565.22"></path><path d="M 760.67 1565.22 L 871.66 1569.64" fill="none" group-id="1" id="路径" node-id="19" stroke="#ecebe0" stroke-linecap="butt" stroke-width="1" target-height="4.420044" target-width="110.98999" target-x="760.67" target-y="1565.22"></path><path d="M 871.66 1569.64 L 1015.12 1568.87 L 1017.16 1568.59 L 1018.97 1567.79 L 1020.51 1566.56 L 1021.70 1564.95 L 1022.47 1563.07 L 1022.74 1560.95 L 1023.05 1485.79" fill="none" group-id="1" id="路径" node-id="20" stroke="#e2e0d0" stroke-linecap="butt" stroke-width="1" target-height="83.849976" target-width="151.39001" target-x="871.66" target-y="1485.79"></path><path d="M 1023.05 1485.79 L 1024.14 1443.35 L 1024.47 1422.47 L 1024.38 1401.98 L 1023.97 1388.38 L 1023.17 1374.92 L 1021.98 1361.61 L 1020.30 1348.36 L 1018.03 1335.21 L 1015.17 1322.15 L 1012.59 1312.48 L 1009.57 1302.82 L 1006.09 1293.17 L 1002.14 1283.52 L 997.79 1274.14 L 992.85 1264.70 L 987.31 1255.22 L 981.12 1245.66" fill="none" group-id="1" id="路径" node-id="21" stroke="#94afc3" stroke-linecap="butt" stroke-width="1" target-height="240.13" target-width="43.349976" target-x="981.12" target-y="1245.66"></path><path d="M 981.12 1245.66 L 1011.92 1198.55 L 1012.56 1197.32 L 1012.92 1196.00 L 1012.98 1194.63 L 1012.74 1193.25 L 1012.20 1191.95 L 1011.41 1190.80 L 1010.39 1189.84 L 1009.17 1189.10 L 856.56 1116.08" fill="none" group-id="1" id="路径" node-id="22" stroke="#ecebe0" stroke-linecap="butt" stroke-width="1" target-height="129.58008" target-width="156.41998" target-x="856.56" target-y="1116.08"></path><path d="M 856.56 1116.08 L 836.90 1107.84" fill="none" group-id="1" id="路径" node-id="23" stroke="#e2e0d0" stroke-linecap="butt" stroke-width="1" target-height="8.23999" target-width="19.659973" target-x="836.9" target-y="1107.84"></path><path d="M 836.90 1107.84 L 760.67 1070.95" fill="none" group-id="1" id="路径" node-id="24" stroke="#ecebe0" stroke-linecap="butt" stroke-width="1" target-height="36.890015" target-width="76.23004" target-x="760.67" target-y="1070.95"></path><path d="M 760.67 1070.95 L 733.99 1058.29" fill="none" group-id="1" id="路径" node-id="25" stroke="#e2e0d0" stroke-linecap="butt" stroke-width="1" target-height="12.659912" target-width="26.679993" target-x="733.99" target-y="1058.29"></path><path d="M 733.99 1058.29 L 657.76 1025.21" fill="none" group-id="1" id="路径" node-id="26" stroke="#ecebe0" stroke-linecap="butt" stroke-width="1" target-height="33.08008" target-width="76.22998" target-x="657.76" target-y="1025.21"></path><path d="M 657.76 1025.21 L 629.86 1002.49" fill="none" group-id="1" id="路径" node-id="27" stroke="#a8a6a1" stroke-linecap="butt" stroke-width="1" target-height="22.71997" target-width="27.900024" target-x="629.86" target-y="1002.49"></path><path d="M 629.86 1002.49 L 645.58 996.47 L 660.64 990.08 L 675.07 983.32 L 688.88 976.20 L 702.10 968.73 L 714.75 960.91 L 726.84 952.75 L 738.41 944.23 L 749.45 935.37 L 760.00 926.15 L 770.06 916.58 L 779.64 906.65 L 788.75 896.34 L 797.41 885.66 L 805.63 874.59 L 813.40 863.12 L 820.73 851.24 L 827.62 838.94 L 834.08 826.19 L 840.10 812.99 L 845.56 799.82 L 850.84 785.96 L 855.95 771.38 L 860.86 756.05 L 865.34 740.81 L 869.61 725.03 L 873.64 708.70 L 877.44 691.80 L 881.96 669.28 L 886.02 646.11 L 889.59 622.28 L 892.61 598.36 L 895.10 574.12 L 897.06 549.53 L 898.47 524.91 L 899.32 500.27 L 899.61 475.61 L 899.32 450.96 L 898.44 426.61 L 896.97 402.56 L 895.46 384.50 L 893.61 366.80 L 891.42 349.44 L 888.91 332.43 L 885.98 315.35 L 882.70 298.81 L 879.10 282.78 L 875.17 267.26 L 870.74 251.70 L 865.97 236.84 L 860.89 222.65 L 855.50 209.10 L 851.78 200.98 L 847.43 192.93 L 842.42 184.95 L 836.73 177.01 L 830.31 169.10 L 823.13 161.23 L 815.14 153.38 L 806.29 145.56 L 796.54 137.75 L 785.82 129.97 L 774.09 122.20" fill="none" group-id="1" id="路径" node-id="28" stroke="#e2e0d0" stroke-linecap="butt" stroke-width="1" target-height="880.29" target-width="269.75" target-x="629.86" target-y="122.2"></path><path d="M 774.09 122.20 L 771.60 117.56 L 768.61 113.05 L 765.08 108.67 L 760.97 104.40 L 756.24 100.24 L 750.83 96.19 L 744.69 92.25 L 737.75 88.43 L 729.94 84.74 L 721.18 81.19 L 719.41 80.25 L 718.03 78.98 L 716.97 77.34 L 716.33 75.50 L 716.16 73.55 L 716.46 71.43 L 717.90 64.89 L 718.62 59.39 L 718.75 54.80 L 718.32 50.23 L 717.39 46.37 L 716.02 43.11 L 714.14 40.11 L 711.86 37.48 L 709.16 35.19 L 706.17 33.22 L 702.81 31.44 L 699.05 29.83 L 693.16 27.77 L 686.60 25.85 L 672.70 22.04 L 655.42 17.32 L 637.97 13.18 L 620.35 9.63 L 602.54 6.65 L 584.54 4.25 L 566.32 2.44 L 547.89 1.22 L 529.23 0.59 L 510.34 0.56 L 491.18 1.14 L 471.77 2.33 L 452.07 4.16 L 432.09 6.62 L 411.81 9.73 L 391.21 13.50 L 370.29 17.96 L 349.03 23.11 L 341.30 25.37 L 334.57 27.94 L 328.72 30.79 L 323.69 33.89 L 319.37 37.22 L 315.70 40.79 L 312.64 44.61 L 310.12 48.69 L 308.14 53.06 L 306.68 57.76 L 305.74 62.83 L 305.36 68.34 L 305.58 74.33 L 305.57 76.67 L 305.16 78.83 L 304.33 80.84 L 303.13 82.65 L 301.63 84.13 L 299.79 85.31 L 287.83 91.59 L 276.38 98.25 L 265.43 105.30 L 254.96 112.71 L 244.95 120.51 L 235.40 128.70 L 226.27 137.27 L 217.58 146.24 L 209.30 155.62 L 201.42 165.42 L 193.95 175.65 L 186.88 186.32 L 180.21 197.46 L 173.93 209.07 L 168.05 221.18 L 162.58 233.80 L 154.33 254.55 L 147.73 272.61 L 142.58 288.23 L 138.71 301.66 L 135.95 313.13 L 134.15 322.87 L 133.15 331.07 L 131.05 359.05 L 129.59 386.85 L 128.76 414.46 L 128.56 441.91 L 128.99 469.19 L 130.04 496.32 L 131.71 523.29 L 134.00 550.13 L 136.91 576.83 L 140.44 603.41 L 144.58 629.86 L 149.33 656.21 L 154.71 682.45 L 160.71 708.59 L 167.33 734.64 L 174.57 760.60 L 182.45 786.49 L 190.96 812.30 L 200.11 838.05 L 209.91 863.74 L 220.36 889.37" fill="none" group-id="1" id="路径" node-id="29" stroke="#ecebe0" stroke-linecap="butt" stroke-width="1" target-height="888.81" target-width="645.53" target-x="128.56" target-y="0.56"></path><path d="M 774.09 122.20 L 780.58 141.18 L 786.47 160.15 L 791.76 179.11 L 796.47 198.07 L 800.59 217.05 L 804.14 236.05 L 807.12 255.07 L 809.52 274.13 L 811.36 293.24 L 812.62 312.39 L 813.32 331.60 L 813.46 350.88 L 813.02 370.23 L 812.01 389.67 L 810.42 409.20 L 808.25 428.84 L 805.49 448.58 L 802.14 468.43" fill="none" group-id="1" id="路径" node-id="30" stroke="#ceccb1" stroke-linecap="butt" stroke-width="1" target-height="346.22998" target-width="39.369995" target-x="774.09" target-y="122.2"></path><path d="M 802.14 468.43 L 791.80 456.84 L 781.33 445.79 L 770.73 435.27 L 759.99 425.25 L 749.12 415.74 L 738.10 406.72 L 726.62 397.93 L 715.07 389.66 L 703.43 381.90 L 691.70 374.64 L 679.88 367.87 L 667.96 361.58 L 655.69 355.64 L 643.39 350.21 L 631.05 345.28 L 618.66 340.85 L 606.22 336.89 L 593.72 333.42 L 581.01 330.39 L 568.31 327.86 L 555.60 325.82 L 542.88 324.28 L 530.14 323.22 L 517.37 322.65 L 504.57 322.57 L 491.81 322.99 L 479.07 323.90 L 466.35 325.32 L 453.63 327.24 L 440.91 329.67 L 428.36 332.57 L 415.88 335.99 L 403.44 339.92 L 391.04 344.37 L 378.68 349.36 L 366.34 354.89 L 354.38 360.81 L 342.49 367.27 L 330.69 374.27 L 318.95 381.84 L 307.28 389.99 L 295.66 398.72 L 284.59 407.69 L 273.63 417.24 L 262.78 427.38 L 252.04 438.14 L 241.41 449.53 L 230.88 461.57 L 228.69 464.56 L 227.07 467.80 L 226.00 471.25 L 225.54 474.84 L 224.77 491.80 L 224.52 509.54 L 224.80 528.09 L 225.64 546.61 L 227.06 565.58 L 229.08 585.03 L 231.68 604.40 L 234.93 623.90 L 238.82 643.55 L 242.15 658.19 L 245.87 672.74 L 249.97 687.20 L 254.46 701.56 L 259.35 715.80 L 264.65 729.78 L 270.35 743.51 L 276.44 756.98 L 283.01 770.27 L 290.00 783.15 L 297.40 795.62 L 305.22 807.71 L 311.86 817.18 L 318.77 826.30 L 325.97 835.08 L 333.45 843.53 L 341.22 851.67 L 349.33 859.49 L 357.75 866.90 L 366.48 873.90 L 375.52 880.52 L 384.90 886.75 L 394.52 892.49 L 404.50 897.78 L 414.84 902.60 L 425.57 906.96 L 436.70 910.87" fill="none" group-id="1" id="路径" node-id="31" stroke="#809ba4" stroke-linecap="butt" stroke-width="1" target-height="588.3" target-width="577.62" target-x="224.52" target-y="322.57"></path><path d="M 436.70 910.87 L 437.66 913.50 L 438.22 916.14 L 438.41 918.81 L 438.22 921.54 L 437.59 923.48 L 436.43 925.19 L 434.83 926.59 L 432.81 927.67 L 430.55 928.33 L 428.01 928.55 L 411.83 928.02 L 395.87 926.90 L 380.10 925.18 L 364.52 922.89 L 349.11 920.00 L 333.87 916.54 L 318.78 912.49 L 303.82 907.85 L 289.00 902.61 L 274.29 896.78 L 259.70 890.33 L 245.21 883.27 L 242.84 882.31 L 240.51 881.73 L 238.18 881.52 L 235.85 881.69 L 233.68 882.22 L 231.64 883.12 L 220.36 889.37" fill="none" group-id="1" id="路径" node-id="32" stroke="#ceccb1" stroke-linecap="butt" stroke-width="1" target-height="47.02997" target-width="218.05" target-x="220.36" target-y="881.52"></path><path d="M 629.86 1002.49 L 609.47 1005.65 L 590.20 1008.21 L 572.02 1010.20 L 554.86 1011.66 L 538.69 1012.62 L 523.45 1013.12 L 509.11 1013.17 L 497.13 1012.82 L 481.46 1011.87 L 461.38 1010.17 L 436.16 1007.56 L 404.98 1003.87" fill="none" group-id="1" id="路径" node-id="33" stroke="#8a8772" stroke-linecap="butt" stroke-width="1" target-height="10.679993" target-width="224.87997" target-x="404.98" target-y="1002.49"></path><path d="M 436.70 910.87 L 449.83 914.02 L 462.51 916.60 L 474.75 918.65 L 486.56 920.18 L 497.97 921.22 L 509.00 921.78 L 520.44 921.90 L 531.50 921.57 L 542.19 920.81 L 552.54 919.62 L 562.56 918.03 L 572.27 916.03 L 584.01 913.01 L 595.32 909.47 L 606.22 905.41 L 616.74 900.84 L 626.90 895.76 L 636.84 890.12 L 646.43 884.05 L 655.70 877.53 L 664.66 870.55 L 673.31 863.11 L 681.59 855.31 L 689.59 847.13 L 697.30 838.57 L 704.74 829.61 L 711.89 820.25 L 720.31 808.24 L 728.32 795.76 L 735.90 782.78 L 743.08 769.30 L 749.73 755.60 L 755.97 741.56 L 761.82 727.17 L 767.26 712.41 L 772.24 697.53 L 776.83 682.46 L 781.04 667.20 L 784.84 651.74 L 788.26 636.19 L 791.30 620.62 L 793.96 605.03 L 796.25 589.42 L 798.76 568.52 L 800.63 547.92 L 801.88 527.60 L 802.54 507.25 L 802.62 487.53 L 802.14 468.43" fill="none" group-id="1" id="路径" node-id="34" stroke="#769094" stroke-linecap="butt" stroke-width="1" target-height="453.47003" target-width="365.91998" target-x="436.7" target-y="468.43"></path><path d="M 657.76 1025.21 L 647.23 1034.64 L 636.81 1043.18 L 626.50 1050.89 L 616.28 1057.80 L 606.16 1063.96 L 596.10 1069.38 L 586.12 1074.10 L 576.18 1078.16 L 566.29 1081.57 L 556.41 1084.35 L 546.54 1086.51 L 536.66 1088.08 L 526.75 1089.04 L 516.80 1089.42 L 506.79 1089.21 L 496.69 1088.39 L 486.50 1086.97 L 476.20 1084.93 L 465.76 1082.25 L 455.18 1078.90 L 444.42 1074.88 L 433.49 1070.14 L 422.35 1064.65 L 411.00 1058.39 L 399.42 1051.30 L 387.60 1043.35 L 384.39 1040.80 L 381.74 1038.09 L 379.61 1035.20 L 377.96 1032.12 L 376.75 1028.82 L 376.00 1025.26 L 375.71 1021.40" fill="none" group-id="1" id="路径" node-id="35" stroke="#949182" stroke-linecap="butt" stroke-width="1" target-height="68.02002" target-width="282.05002" target-x="375.71" target-y="1021.4"></path><path d="M 733.99 1058.29 L 729.43 1077.46 L 724.32 1096.27 L 718.65 1114.73 L 712.42 1132.86 L 705.63 1150.66 L 698.30 1168.14 L 690.40 1185.33 L 681.94 1202.21 L 672.92 1218.82 L 663.33 1235.14 L 653.16 1251.20 L 642.41 1267.00 L 631.06 1282.55 L 619.10 1297.84 L 606.53 1312.90 L 602.64 1316.96 L 598.48 1320.57 L 594.03 1323.75 L 589.27 1326.52 L 584.28 1328.84 L 579.13 1330.66 L 573.80 1332.01 L 568.27 1332.87 L 554.07 1334.05 L 539.41 1334.73 L 524.27 1334.90 L 508.63 1334.53 L 492.47 1333.62 L 475.77 1332.14 L 458.51 1330.07 L 440.66 1327.38 L 437.03 1326.50 L 433.62 1325.07 L 430.50 1323.12 L 427.70 1320.67 L 415.17 1307.37 L 403.28 1293.83 L 392.02 1280.06 L 381.38 1266.05 L 371.35 1251.80 L 361.92 1237.29 L 353.06 1222.52 L 344.79 1207.49 L 337.08 1192.17 L 329.94 1176.57 L 323.36 1160.67 L 317.35 1144.46 L 311.89 1127.92 L 306.98 1111.05 L 302.65 1093.83 L 298.87 1076.25 L 295.67 1058.29" fill="none" group-id="1" id="路径" node-id="36" stroke="#ceccb1" stroke-linecap="butt" stroke-width="1" target-height="276.61" target-width="438.31998" target-x="295.67" target-y="1058.29"></path><path d="M 760.67 1070.95 L 756.51 1088.99 L 751.85 1106.67 L 746.66 1124.00 L 740.98 1140.99 L 734.78 1157.66 L 728.08 1174.01 L 720.87 1190.05 L 713.15 1205.80 L 704.92 1221.26 L 696.17 1236.45 L 686.89 1251.36 L 677.09 1266.01 L 666.76 1280.41 L 655.87 1294.55 L 644.44 1308.45 L 632.44 1322.11 L 619.86 1335.54 L 606.69 1348.73 L 603.83 1351.09 L 600.65 1352.96 L 597.22 1354.32 L 593.58 1355.13 L 575.61 1357.21 L 557.64 1358.76 L 539.67 1359.80 L 521.69 1360.32 L 503.69 1360.32 L 485.66 1359.81 L 467.61 1358.77 L 449.51 1357.21 L 431.36 1355.13 L 427.72 1354.39 L 424.28 1353.08 L 421.11 1351.23 L 418.25 1348.88 L 405.12 1335.72 L 392.62 1322.32 L 380.71 1308.68 L 369.39 1294.79 L 358.64 1280.65 L 348.47 1266.26 L 338.84 1251.60 L 329.77 1236.67 L 321.24 1221.45 L 313.25 1205.95 L 305.79 1190.16 L 298.86 1174.05 L 292.45 1157.63 L 286.58 1140.88 L 281.23 1123.79 L 276.41 1106.34 L 272.13 1088.53 L 268.38 1070.34" fill="none" group-id="1" id="路径" node-id="37" stroke="#ceccb1" stroke-linecap="butt" stroke-width="1" target-height="289.97998" target-width="492.28998" target-x="268.38" target-y="1070.34"></path><path d="M 836.90 1107.84 L 828.98 1118.58 L 821.67 1129.54 L 814.95 1140.74 L 808.81 1152.19 L 803.24 1163.91 L 798.24 1175.90 L 793.80 1188.18 L 789.91 1200.76 L 786.60 1213.67 L 783.84 1226.91 L 783.76 1229.29 L 784.28 1232.77 L 785.28 1236.48 L 786.89 1240.94 L 801.38 1276.31 L 801.92 1278.11 L 802.19 1280.25 L 802.14 1282.76 L 801.51 1286.60 L 800.16 1290.94 L 790.39 1317.71 L 781.24 1344.61 L 772.71 1371.64 L 764.80 1398.82 L 757.50 1426.14 L 750.82 1453.62 L 744.74 1481.26 L 739.28 1509.07 L 734.42 1537.05 L 730.18 1565.22" fill="none" group-id="1" id="路径" node-id="38" stroke="#ceccb1" stroke-linecap="butt" stroke-width="1" target-height="457.38" target-width="106.72003" target-x="730.18" target-y="1107.84"></path><path d="M 299.48 1565.22 L 294.68 1537.21 L 289.37 1509.34 L 283.56 1481.62 L 277.24 1454.03 L 270.41 1426.58 L 263.07 1399.24 L 255.22 1372.04 L 246.86 1344.94 L 237.98 1317.97 L 228.59 1291.10 L 227.51 1287.24 L 227.08 1283.57 L 227.15 1281.14 L 227.50 1278.88 L 228.13 1276.77 L 244.90 1233.16 L 245.75 1230.62 L 246.27 1228.17 L 246.49 1225.81 L 246.41 1223.45 L 246.03 1221.29 L 245.36 1219.29 L 196.58 1104.03" fill="none" group-id="1" id="路径" node-id="39" stroke="#ceccb1" stroke-linecap="butt" stroke-width="1" target-height="461.18994" target-width="102.90001" target-x="196.58" target-y="1104.03"></path><path d="M 856.56 1116.08 L 838.53 1156.24 L 830.89 1173.65 L 824.87 1188.24 L 821.29 1197.77 L 818.54 1206.20 L 816.50 1213.63 L 815.29 1219.37 L 814.55 1224.65 L 814.25 1229.50 L 814.33 1233.97 L 814.87 1238.48 L 815.87 1242.77 L 817.33 1246.89 L 819.28 1250.85 L 821.61 1254.53 L 824.51 1258.25 L 828.03 1262.00 L 832.24 1265.81 L 838.13 1270.38 L 845.37 1275.24 L 854.14 1280.43 L 863.09 1285.24 L 873.62 1290.50 L 885.88 1296.26 L 905.07 1304.84 L 928.37 1314.88" fill="none" group-id="1" id="路径" node-id="40" stroke="#ceccb1" stroke-linecap="butt" stroke-width="1" target-height="198.80005" target-width="114.119995" target-x="814.25" target-y="1116.08"></path><path d="M 928.37 1314.88 L 909.92 1352.38" fill="none" group-id="1" id="路径" node-id="41" stroke="#769094" stroke-linecap="butt" stroke-width="1" target-height="37.5" target-width="18.450012" target-x="909.92" target-y="1314.88"></path><path d="M 909.92 1352.38 L 904.40 1345.48 L 898.64 1339.17 L 892.65 1333.43 L 886.43 1328.23 L 879.95 1323.55 L 873.21 1319.37 L 866.19 1315.68 L 858.88 1312.48 L 851.25 1309.75 L 843.28 1307.51 L 834.95 1305.76 L 826.23 1304.51 L 824.02 1304.52 L 821.99 1304.99 L 820.07 1305.92 L 818.39 1307.24 L 817.04 1308.89 L 816.01 1310.92 L 807.85 1333.41 L 800.32 1356.01 L 793.43 1378.71 L 787.16 1401.54 L 781.52 1424.48 L 776.49 1447.56 L 772.09 1470.78 L 768.31 1494.14 L 765.14 1517.67 L 762.59 1541.35 L 760.67 1565.22" fill="none" group-id="1" id="路径" node-id="42" stroke="#ceccb1" stroke-linecap="butt" stroke-width="1" target-height="260.70996" target-width="149.25" target-x="760.67" target-y="1304.51"></path><path d="M 268.99 1565.22 L 265.35 1539.66 L 261.20 1514.22 L 256.54 1488.89 L 251.37 1463.68 L 245.69 1438.57 L 239.49 1413.56 L 232.78 1388.64 L 225.55 1363.82 L 217.80 1339.08 L 209.53 1314.42 L 208.57 1312.32 L 207.28 1310.59 L 205.64 1309.17 L 203.74 1308.13 L 201.70 1307.54 L 199.47 1307.41 L 196.05 1307.92 L 191.21 1309.16 L 179.99 1312.87 L 167.10 1317.43 L 160.41 1319.69 L 153.85 1321.72 L 147.36 1323.45 L 141.52 1324.63 L 137.65 1325.13 L 134.31 1325.25 L 131.42 1325.05 L 128.66 1324.42 L 126.51 1323.35 L 124.85 1321.87 L 123.95 1320.51 L 123.34 1318.80 L 123.03 1316.66 L 123.09 1313.97 L 123.55 1311.97 L 124.41 1310.03 L 125.73 1308.10 L 127.34 1306.39 L 129.29 1304.84 L 131.63 1303.45 L 197.18 1269.60 L 202.24 1266.69 L 206.56 1263.62 L 210.22 1260.38 L 213.29 1256.98 L 215.81 1253.41 L 217.82 1249.64 L 219.34 1245.64 L 220.38 1241.40 L 220.93 1236.85 L 220.96 1231.97 L 220.44 1226.70 L 219.30 1220.99 L 217.49 1214.79 L 214.92 1208.04 L 211.52 1200.69 L 169.29 1116.08" fill="none" group-id="1" id="路径" node-id="43" stroke="#ceccb1" stroke-linecap="butt" stroke-width="1" target-height="449.14" target-width="145.95999" target-x="123.03" target-y="1116.08"></path><path d="M 1023.05 1485.79 L 1016.90 1482.81 L 1010.77 1480.53 L 1004.64 1478.90 L 998.48 1477.90 L 992.26 1477.52 L 985.95 1477.77 L 979.52 1478.65 L 972.94 1480.19 L 966.18 1482.43 L 963.07 1483.33 L 960.01 1483.73 L 956.96 1483.65 L 953.96 1483.11 L 951.13 1482.14 L 948.46 1480.74 L 946.03 1478.95 L 943.92 1476.78 L 942.09 1474.20 L 894.68 1394.31" fill="none" group-id="1" id="路径" node-id="44" stroke="#769094" stroke-linecap="butt" stroke-width="1" target-height="91.47998" target-width="128.37" target-x="894.68" target-y="1394.31"></path><path d="M 894.68 1394.31 L 909.92 1352.38" fill="none" group-id="1" id="路径" node-id="45" stroke="#809ba4" stroke-linecap="butt" stroke-width="1" target-height="41.930054" target-width="15.23999" target-x="894.68" target-y="1352.38"></path><path d="M 981.12 1245.66 L 973.05 1253.13 L 965.42 1260.91 L 958.22 1269.02 L 951.44 1277.47 L 945.07 1286.27 L 939.10 1295.43 L 933.54 1304.96 L 928.37 1314.88" fill="none" group-id="1" id="路径" node-id="46" stroke="#809ba4" stroke-linecap="butt" stroke-width="1" target-height="69.21997" target-width="52.75" target-x="928.37" target-y="1245.66"></path><path d="M 894.68 1394.31 L 889.05 1407.42 L 884.10 1420.54 L 879.80 1433.69 L 876.15 1446.88 L 873.14 1460.12 L 870.75 1473.43 L 868.99 1486.82 L 867.86 1500.30 L 867.35 1513.89 L 867.46 1527.61 L 868.21 1541.46 L 869.61 1555.46 L 871.66 1569.64" fill="none" group-id="1" id="路径" node-id="47" stroke="#ceccb1" stroke-linecap="butt" stroke-width="1" target-height="175.32996" target-width="27.330017" target-x="867.35" target-y="1394.31"></path><path d="M 169.89 1565.22 L 167.12 1544.63 L 163.75 1524.18 L 159.78 1503.84 L 155.21 1483.61 L 150.04 1463.48 L 144.26 1443.44 L 137.87 1423.49 L 130.87 1403.61" fill="none" group-id="1" id="路径" node-id="48" stroke="#ceccb1" stroke-linecap="butt" stroke-width="1" target-height="161.60999" target-width="39.020004" target-x="130.87" target-y="1403.61"></path><path d="M 130.87 1403.61 L 127.71 1389.96 L 124.02 1376.60 L 119.81 1363.50 L 115.08 1350.67 L 109.82 1338.08 L 104.02 1325.73 L 97.70 1313.60 L 90.83 1301.68 L 83.40 1289.97 L 75.42 1278.46 L 66.85 1267.14 L 57.69 1256.01 L 47.93 1245.05" fill="none" group-id="1" id="路径" node-id="49" stroke="#809ba4" stroke-linecap="butt" stroke-width="1" target-height="158.55994" target-width="82.939995" target-x="47.93" target-y="1245.05"></path><path d="M 130.87 1403.61 L 83.91 1469.01 L 82.32 1470.94 L 80.54 1472.56 L 78.57 1473.90 L 76.44 1474.94 L 74.21 1475.65 L 71.86 1476.03 L 2.80 1481.97" fill="none" group-id="1" id="路径" node-id="50" stroke="#769094" stroke-linecap="butt" stroke-width="1" target-height="78.359985" target-width="128.06999" target-x="2.8" target-y="1403.61"></path><path d="M 401.55 152.91 L 398.21 149.92 L 394.57 147.32 L 390.58 145.10 L 386.22 143.25 L 381.75 141.86 L 376.97 140.85 L 371.85 140.22 L 366.35 140.01 L 360.95 140.20 L 355.27 140.80 L 349.28 141.84 L 342.96 143.33 L 334.75 145.86 L 326.37 149.09 L 317.80 153.05 L 309.47 157.52 L 301.14 162.62 L 292.80 168.36 L 284.77 174.53 L 276.92 181.22 L 269.26 188.45 L 262.38 195.62 L 256.06 202.83 L 250.29 210.09 L 245.03 217.39 L 240.07 225.05 L 235.70 232.57 L 231.91 239.96 L 228.67 247.25 L 225.80 254.83 L 223.55 262.11 L 221.88 269.10 L 220.77 275.83 L 220.18 282.75 L 220.20 289.21 L 220.80 295.27 L 221.95 300.97 L 223.34 305.47 L 225.12 309.64 L 227.28 313.52 L 229.83 317.13 L 232.79 320.49 L 236.12 323.48 L 239.77 326.08 L 243.76 328.30 L 248.11 330.14 L 252.59 331.53 L 257.37 332.55 L 262.49 333.17 L 267.99 333.39 L 273.38 333.20 L 279.07 332.59 L 285.06 331.56 L 291.38 330.07 L 299.58 327.54 L 307.96 324.31 L 316.54 320.34 L 324.87 315.87 L 333.20 310.78 L 341.54 305.04 L 349.57 298.87 L 357.42 292.18 L 365.08 284.95 L 371.96 277.78 L 378.27 270.57 L 384.05 263.31 L 389.31 256.00 L 394.27 248.35 L 398.63 240.83 L 402.42 233.43 L 405.67 226.15 L 408.54 218.56 L 410.79 211.29 L 412.45 204.30 L 413.57 197.57 L 414.16 190.65 L 414.14 184.18 L 413.54 178.12 L 412.39 172.43 L 411.00 167.93 L 409.22 163.75 L 407.06 159.87 L 404.51 156.26 L 401.55 152.91" fill="none" group-id="1" id="路径" node-id="51" stroke="#e2e1d0" stroke-linecap="butt" stroke-width="1" target-height="193.38002" target-width="193.98001" target-x="220.18" target-y="140.01"></path><path d="M 360.47 440.84 L 353.01 441.92 L 345.69 442.82 L 338.46 443.72 L 331.70 444.72 L 325.20 446.06 L 319.48 447.78 L 315.88 449.29 L 312.72 451.10 L 309.95 453.22 L 308.13 455.05 L 306.55 457.15 L 305.20 459.55 L 304.09 462.28 L 303.34 465.05 L 302.86 468.24 L 302.67 471.94 L 302.84 476.21" fill="none" group-id="1" id="路径" node-id="52" stroke="#3c5665" stroke-linecap="butt" stroke-width="1" target-height="35.369995" target-width="57.799988" target-x="302.67" target-y="440.84"></path><path d="M 302.84 476.21 L 300.09 476.85 L 297.64 477.93 L 295.43 479.45 L 293.45 481.46 L 291.67 484.02 L 290.10 487.22 L 288.78 491.20 L 287.75 496.08 L 287.07 502.00 L 286.83 509.14 L 287.04 524.61 L 287.70 540.65 L 288.83 557.28 L 290.41 573.85 L 292.51 590.68 L 295.14 607.77 L 298.28 624.77 L 301.99 641.72 L 306.27 658.64 L 309.86 671.23 L 313.80 683.64 L 318.07 695.86 L 322.69 707.91 L 327.71 719.83 L 333.08 731.41 L 338.82 742.66 L 344.91 753.60 L 351.46 764.32 L 358.39 774.57 L 365.71 784.37 L 373.40 793.74 L 379.92 800.97 L 386.70 807.83 L 393.75 814.34 L 401.07 820.51 L 408.67 826.34 L 416.54 831.77 L 424.71 836.79 L 433.20 841.41 L 442.03 845.62 L 451.21 849.42 L 460.46 852.69 L 470.09 855.49 L 480.12 857.81 L 490.58 859.66 L 501.49 861.01 L 503.47 861.06 L 505.37 860.82 L 507.23 860.30 L 509.00 859.52 L 510.62 858.48 L 512.11 857.19 L 513.39 855.68 L 514.40 854.05 L 515.17 852.28 L 515.67 850.41 L 515.89 848.50 L 515.82 846.53 L 515.54 841.27 L 515.84 836.33 L 516.70 831.67 L 518.11 827.25 L 520.08 823.03 L 522.62 818.98 L 525.78 815.07 L 529.62 811.30 L 534.20 807.66 L 539.61 804.15" fill="none" group-id="1" id="路径" node-id="53" stroke="#2c6c9a" stroke-linecap="butt" stroke-width="1" target-height="384.85" target-width="252.78" target-x="286.83" target-y="476.21"></path><path d="M 539.61 804.15 L 554.38 797.70 L 565.84 792.12 L 574.50 787.31 L 580.85 783.20 L 585.33 779.69 L 588.33 776.69 L 590.17 774.14 L 591.14 771.93 L 591.43 769.97 L 591.14 768.16 L 590.25 766.41 L 588.65 764.65 L 586.12 762.87 L 582.38 761.06 L 577.10 759.26 L 569.88 757.52 L 560.28 755.91 L 547.82 754.50 L 531.98 753.38" fill="none" group-id="1" id="路径" node-id="54" stroke="#3879a9" stroke-linecap="butt" stroke-width="1" target-height="50.77002" target-width="59.450012" target-x="531.98" target-y="753.38"></path><path d="M 531.98 753.38 L 534.90 727.40 L 537.19 701.51 L 538.84 675.70 L 539.85 649.95 L 540.24 624.27 L 540.01 598.64 L 539.14 573.05 L 537.66 547.51 L 535.54 522.00 L 532.80 496.51 L 529.43 471.03 L 525.43 445.57 L 520.79 420.11 L 515.52 394.64 L 514.78 392.44 L 513.69 390.54 L 512.23 388.92 L 510.49 387.62 L 508.55 386.74 L 506.37 386.26 L 495.30 385.40 L 484.59 385.15 L 474.21 385.47 L 464.13 386.37 L 454.34 387.81 L 444.81 389.81 L 435.53 392.34 L 426.48 395.42 L 417.63 399.05 L 408.98 403.23 L 400.50 407.97 L 392.20 413.29 L 384.05 419.22 L 376.05 425.77 L 368.19 432.96 L 360.47 440.84" fill="none" group-id="1" id="路径" node-id="55" stroke="#2c6c9a" stroke-linecap="butt" stroke-width="1" target-height="368.23" target-width="179.76999" target-x="360.47" target-y="385.15"></path><path d="M 531.98 753.38 L 439.29 759.63 L 435.30 760.17 L 432.76 761.00 L 431.26 762.00 L 430.47 763.14 L 430.23 764.48 L 430.61 766.18 L 431.82 768.40 L 434.26 771.37 L 440.65 777.64 L 447.17 783.23 L 453.80 788.16 L 460.57 792.47 L 467.49 796.19 L 474.57 799.33 L 481.82 801.91 L 489.28 803.94 L 496.96 805.42 L 504.89 806.34 L 513.09 806.69 L 521.59 806.46 L 530.42 805.62 L 539.61 804.15" fill="none" group-id="1" id="路径" node-id="56" stroke="#3c86bd" stroke-linecap="butt" stroke-width="1" target-height="53.309998" target-width="109.379974" target-x="430.23" target-y="753.38"></path><path d="M 302.84 476.21 L 313.53 474.59 L 324.85 473.42 L 336.82 472.72 L 349.50 472.53 L 362.92 472.86 L 377.11 473.76 L 392.13 475.25 L 408.01 477.37 L 424.80 480.17 L 429.85 480.81 L 433.98 480.86 L 437.35 480.42 L 440.10 479.58 L 442.33 478.40 L 444.13 476.87 L 445.56 474.98 L 446.63 472.66 L 447.33 469.84 L 447.61 466.39 L 447.37 462.18 L 446.86 459.99 L 445.96 457.98 L 444.65 456.11 L 443.01 454.49 L 441.09 453.17 L 438.83 452.12 L 427.80 448.63 L 416.74 445.77 L 405.64 443.54 L 394.47 441.94 L 383.24 440.95 L 371.91 440.58 L 360.47 440.84" fill="none" group-id="1" id="路径" node-id="57" stroke="#406379" stroke-linecap="butt" stroke-width="1" target-height="40.28" target-width="144.76999" target-x="302.84" target-y="440.58"></path><path d="M 607.60 476.97 L 614.61 474.19 L 621.15 472.05 L 627.26 470.50 L 633.48 469.38 L 639.47 468.72 L 645.26 468.49 L 651.06 468.63 L 656.86 469.08 L 662.66 469.86 L 671.39 471.46 L 680.55 473.55 L 699.99 478.50 L 702.76 479.04 L 705.37 479.26 L 707.85 479.20 L 710.30 478.84 L 712.49 478.19 L 714.47 477.28 L 717.37 475.48 L 719.48 473.78 L 720.97 472.17 L 721.93 470.62 L 722.61 468.86 L 722.88 467.15 L 722.80 465.46 L 722.34 463.76 L 721.30 461.61 L 719.83 459.49 L 717.86 457.39 L 714.48 454.62 L 710.65 452.21 L 706.62 450.25 L 702.89 448.92 L 692.25 446.18 L 681.67 444.06 L 671.12 442.54 L 660.59 441.62 L 650.07 441.30 L 639.53 441.56 L 628.96 442.41 L 618.35 443.87 L 607.68 445.93 L 596.93 448.61 L 593.64 449.77 L 590.55 451.23 L 587.66 453.01 L 584.99 455.10 L 582.76 457.30 L 580.94 459.62 L 579.52 462.17 L 578.72 464.63 L 578.48 467.07 L 578.70 468.85 L 579.32 470.57 L 580.39 472.27 L 581.97 473.97 L 583.73 475.32 L 586.09 476.61 L 589.17 477.83 L 593.12 478.95 L 595.21 479.30 L 597.48 479.38 L 599.95 479.18 L 603.65 478.40 L 607.60 476.97" fill="none" group-id="1" id="路径" node-id="58" stroke="#3c5665" stroke-linecap="butt" stroke-width="1" target-height="38.080017" target-width="144.40002" target-x="578.48" target-y="441.3"></path><path d="M 596.78 570.43 L 592.11 579.32 L 589.00 586.36 L 587.12 591.87 L 586.21 596.11 L 586.03 599.34 L 586.40 601.79 L 587.21 603.65 L 588.41 605.05 L 590.06 606.07 L 592.29 606.71 L 595.27 606.89 L 599.23 606.46 L 604.43 605.21 L 611.15 602.90 L 619.72 599.23 L 630.47 593.91" fill="none" group-id="1" id="路径" node-id="59" stroke="#3879a9" stroke-linecap="butt" stroke-width="1" target-height="36.460022" target-width="44.43994" target-x="586.03" target-y="570.43"></path><path d="M 630.47 593.91 L 634.33 597.94 L 638.09 601.11 L 641.77 603.52 L 645.39 605.24 L 648.98 606.36 L 652.58 606.90 L 656.24 606.88 L 660.00 606.29 L 663.89 605.09 L 667.97 603.22 L 672.26 600.59 L 676.82 597.11" fill="none" group-id="1" id="路径" node-id="60" stroke="#3c5665" stroke-linecap="butt" stroke-width="1" target-height="12.990051" target-width="46.350037" target-x="630.47" target-y="593.91"></path><path d="M 676.82 597.11 L 681.82 597.80 L 685.93 597.83 L 689.29 597.33 L 692.03 596.37 L 694.29 594.99 L 696.12 593.19 L 697.58 590.93 L 698.67 588.10 L 699.34 584.58 L 699.52 580.22 L 699.08 574.85" fill="none" group-id="1" id="路径" node-id="61" stroke="#3879a9" stroke-linecap="butt" stroke-width="1" target-height="22.980042" target-width="22.700012" target-x="676.82" target-y="574.85"></path><path d="M 699.08 574.85 L 702.55 572.08 L 705.28 569.30 L 707.37 566.49 L 708.88 563.65 L 709.87 560.74 L 710.36 557.73 L 710.36 554.57 L 709.98 552.52 L 709.16 550.54 L 707.86 548.59 L 706.22 546.89 L 704.23 545.37 L 701.82 544.05 L 697.95 542.63 L 691.87 541.01 L 685.11 539.62 L 676.86 538.30 L 668.20 537.24 L 658.76 536.42 L 649.19 535.95 L 639.58 535.88 L 630.09 536.27 L 621.29 537.16 L 615.54 538.11 L 610.42 539.32 L 605.88 540.76 L 602.54 542.15 L 599.70 543.69 L 597.32 545.36 L 595.34 547.17 L 593.68 549.27 L 592.52 551.56 L 591.84 554.08 L 591.64 556.90 L 591.95 559.62 L 592.82 562.73 L 594.38 566.30 L 596.78 570.43" fill="none" group-id="1" id="路径" node-id="62" stroke="#3c5665" stroke-linecap="butt" stroke-width="1" target-height="38.96997" target-width="118.71997" target-x="591.64" target-y="535.88"></path><path d="M 699.08 574.85 L 693.78 572.92 L 689.51 571.92 L 686.08 571.66 L 683.33 571.99 L 681.11 572.80 L 679.29 574.06 L 677.82 575.82 L 676.67 578.17 L 675.89 581.26 L 675.56 585.30 L 675.81 590.49 L 676.82 597.11" fill="none" group-id="1" id="路径" node-id="63" stroke="#4c7088" stroke-linecap="butt" stroke-width="1" target-height="25.450012" target-width="23.52002" target-x="675.56" target-y="571.66"></path><path d="M 630.47 593.91 L 629.94 588.73 L 628.97 584.37 L 627.62 580.73 L 625.92 577.69 L 623.90 575.18 L 621.53 573.12 L 618.79 571.49 L 615.60 570.27 L 611.91 569.50 L 607.61 569.21 L 602.60 569.49 L 596.78 570.43" fill="none" group-id="1" id="路径" node-id="64" stroke="#4c7088" stroke-linecap="butt" stroke-width="1" target-height="24.699951" target-width="33.68994" target-x="596.78" target-y="569.21"></path><path d="M 352.08 579.73 L 352.80 586.10 L 353.94 591.34 L 355.42 595.62 L 357.20 599.08 L 359.24 601.85 L 361.53 604.03 L 364.11 605.68 L 367.02 606.84 L 370.32 607.50 L 374.09 607.62 L 378.44 607.13 L 383.46 605.92 L 389.27 603.85 L 395.99 600.77 L 397.77 599.61 L 399.20 598.13 L 400.33 596.31 L 401.07 594.30 L 401.41 592.14 L 401.33 589.79 L 400.88 584.91 L 401.02 580.99 L 401.62 577.88 L 402.60 575.41 L 403.92 573.47 L 405.59 571.96 L 407.65 570.85 L 410.19 570.13 L 413.32 569.85 L 417.18 570.12 L 421.67 570.43 L 425.43 570.18 L 427.82 569.69 L 429.72 569.00 L 431.21 568.14 L 434.37 565.50 L 436.55 563.20 L 437.96 561.18 L 438.75 559.40 L 439.13 557.43 L 439.01 555.62 L 438.40 553.89 L 437.26 552.19 L 435.27 550.25 L 432.51 548.32 L 428.83 546.41 L 424.99 544.84 L 420.59 543.34 L 415.55 541.92 L 407.84 540.15 L 399.52 538.61 L 391.09 537.36 L 382.82 536.36 L 374.71 535.58 L 367.54 535.05 L 355.79 534.55 L 351.46 534.59 L 349.64 534.75 L 345.85 535.67 L 341.33 537.21 L 336.76 539.16 L 332.06 541.55 L 327.53 544.24 L 323.41 547.12 L 319.72 550.27 L 316.94 553.32 L 315.47 555.52 L 314.59 557.57 L 314.21 559.49 L 314.28 560.92 L 314.71 562.29 L 315.52 563.65 L 316.80 565.03 L 318.82 566.47 L 321.87 567.90 L 326.26 569.29 L 330.74 570.24 L 336.61 571.05 L 344.15 571.65 L 346.22 572.04 L 348.02 572.86 L 349.60 574.13 L 350.84 575.73 L 351.67 577.58 L 352.08 579.73" fill="none" group-id="1" id="路径" node-id="65" stroke="#406379" stroke-linecap="butt" stroke-width="1" target-height="73.07001" target-width="124.92001" target-x="314.21" target-y="534.55"></path><path d="M 593.56 1412.02 L 593.32 1409.48 L 592.68 1407.17 L 591.65 1405.02 L 590.26 1403.08 L 588.60 1401.43 L 586.65 1400.06 L 584.50 1399.04 L 582.18 1398.42 L 579.64 1398.19 L 443.96 1398.66 L 441.23 1398.94 L 438.65 1399.74 L 436.27 1401.02 L 434.16 1402.76 L 432.43 1404.89 L 431.17 1407.27 L 430.39 1409.86 L 430.13 1412.59 L 430.15 1418.07 L 430.40 1420.61 L 431.04 1422.92 L 432.07 1425.07 L 433.45 1427.01 L 435.11 1428.66 L 437.06 1430.03 L 439.22 1431.05 L 441.54 1431.67 L 444.07 1431.90 L 579.76 1431.43 L 582.48 1431.15 L 585.06 1430.35 L 587.44 1429.07 L 589.56 1427.33 L 591.28 1425.20 L 592.55 1422.82 L 593.32 1420.23 L 593.58 1417.50 L 593.56 1412.02" fill="none" group-id="1" id="路径" node-id="66" stroke="#d88f91" stroke-linecap="butt" stroke-width="1" target-height="33.710083" target-width="163.45001" target-x="430.13" target-y="1398.19"></path><path d="M 774.09 122.20 L 780.58 141.18 L 786.47 160.15 L 791.76 179.11 L 796.47 198.07 L 800.59 217.05 L 804.14 236.05 L 807.12 255.07 L 809.52 274.13 L 811.36 293.24 L 812.62 312.39 L 813.32 331.60 L 813.46 350.88 L 813.02 370.23 L 812.01 389.67 L 810.42 409.20 L 808.25 428.84 L 805.49 448.58 L 802.14 468.43 L 791.80 456.84 L 781.33 445.79 L 770.73 435.27 L 759.99 425.25 L 749.12 415.74 L 738.10 406.72 L 726.62 397.93 L 715.07 389.66 L 703.43 381.90 L 691.70 374.64 L 679.88 367.87 L 667.96 361.58 L 655.69 355.64 L 643.39 350.21 L 631.05 345.28 L 618.66 340.85 L 606.22 336.89 L 593.72 333.42 L 581.01 330.39 L 568.31 327.86 L 555.60 325.82 L 542.88 324.28 L 530.14 323.22 L 517.37 322.65 L 504.57 322.57 L 491.81 322.99 L 479.07 323.90 L 466.35 325.32 L 453.63 327.24 L 440.91 329.67 L 428.36 332.57 L 415.88 335.99 L 403.44 339.92 L 391.04 344.37 L 378.68 349.36 L 366.34 354.89 L 354.38 360.81 L 342.49 367.27 L 330.69 374.27 L 318.95 381.84 L 307.28 389.99 L 295.66 398.72 L 284.59 407.69 L 273.63 417.24 L 262.78 427.38 L 252.04 438.14 L 241.41 449.53 L 230.88 461.57 L 228.69 464.56 L 227.07 467.80 L 226.00 471.25 L 225.54 474.84 L 224.77 491.80 L 224.52 509.54 L 224.80 528.09 L 225.64 546.61 L 227.06 565.58 L 229.08 585.03 L 231.68 604.40 L 234.93 623.90 L 238.82 643.55 L 242.15 658.19 L 245.87 672.74 L 249.97 687.20 L 254.46 701.56 L 259.35 715.80 L 264.65 729.78 L 270.35 743.51 L 276.44 756.98 L 283.01 770.27 L 290.00 783.15 L 297.40 795.62 L 305.22 807.71 L 311.86 817.18 L 318.77 826.30 L 325.97 835.08 L 333.45 843.53 L 341.22 851.67 L 349.33 859.49 L 357.75 866.90 L 366.48 873.90 L 375.52 880.52 L 384.90 886.75 L 394.52 892.49 L 404.50 897.78 L 414.84 902.60 L 425.57 906.96 L 436.70 910.87 L 437.66 913.50 L 438.22 916.14 L 438.41 918.81 L 438.22 921.54 L 437.59 923.48 L 436.43 925.19 L 434.83 926.59 L 432.81 927.67 L 430.55 928.33 L 428.01 928.55 L 411.83 928.02 L 395.87 926.90 L 380.10 925.19 L 364.52 922.89 L 349.11 920.00 L 333.87 916.54 L 318.78 912.49 L 303.82 907.85 L 289.00 902.61 L 274.29 896.78 L 259.70 890.33 L 245.21 883.27 L 242.84 882.31 L 240.51 881.73 L 238.18 881.52 L 235.85 881.69 L 233.68 882.22 L 231.64 883.12 L 220.36 889.37 L 209.91 863.74 L 200.11 838.05 L 190.96 812.30 L 182.45 786.49 L 174.57 760.60 L 167.33 734.64 L 160.71 708.59 L 154.71 682.45 L 149.33 656.21 L 144.58 629.86 L 140.44 603.41 L 136.91 576.83 L 134.00 550.13 L 131.71 523.29 L 130.04 496.32 L 128.99 469.19 L 128.56 441.91 L 128.76 414.46 L 129.59 386.85 L 131.05 359.05 L 133.15 331.07 L 134.15 322.87 L 135.95 313.13 L 138.71 301.66 L 142.58 288.23 L 147.73 272.61 L 154.33 254.55 L 162.58 233.80 L 168.05 221.18 L 173.93 209.07 L 180.21 197.46 L 186.88 186.32 L 193.95 175.65 L 201.42 165.42 L 209.30 155.62 L 217.58 146.24 L 226.27 137.27 L 235.40 128.70 L 244.95 120.51 L 254.96 112.71 L 265.43 105.30 L 276.38 98.25 L 287.83 91.59 L 299.79 85.31 L 301.63 84.13 L 303.13 82.65 L 304.33 80.84 L 305.16 78.83 L 305.57 76.67 L 305.58 74.33 L 305.36 68.34 L 305.74 62.83 L 306.68 57.76 L 308.14 53.06 L 310.12 48.69 L 312.64 44.61 L 315.70 40.79 L 319.37 37.22 L 323.69 33.89 L 328.72 30.79 L 334.57 27.94 L 341.30 25.37 L 349.03 23.11 L 370.29 17.96 L 391.21 13.50 L 411.81 9.73 L 432.09 6.62 L 452.07 4.16 L 471.77 2.33 L 491.18 1.14 L 510.34 0.56 L 529.24 0.59 L 547.89 1.22 L 566.32 2.44 L 584.54 4.25 L 602.54 6.65 L 620.35 9.63 L 637.97 13.18 L 655.42 17.32 L 672.70 22.04 L 686.60 25.85 L 693.16 27.77 L 699.05 29.83 L 702.81 31.44 L 706.17 33.22 L 709.16 35.19 L 711.86 37.48 L 714.14 40.11 L 716.02 43.11 L 717.39 46.37 L 718.32 50.23 L 718.75 54.80 L 718.62 59.39 L 717.90 64.89 L 716.46 71.43 L 716.16 73.55 L 716.33 75.50 L 716.97 77.34 L 718.03 78.98 L 719.41 80.25 L 721.18 81.19 L 729.94 84.74 L 737.75 88.43 L 744.69 92.25 L 750.83 96.19 L 756.24 100.24 L 760.97 104.40 L 765.08 108.67 L 768.61 113.05 L 771.60 117.56 L 774.09 122.20 Z M 401.55 152.91 L 398.21 149.92 L 394.57 147.32 L 390.58 145.10 L 386.22 143.25 L 381.75 141.86 L 376.97 140.85 L 371.85 140.22 L 366.35 140.01 L 360.95 140.20 L 355.27 140.80 L 349.28 141.84 L 342.96 143.33 L 334.75 145.86 L 326.37 149.09 L 317.80 153.05 L 309.47 157.52 L 301.14 162.62 L 292.80 168.36 L 284.77 174.53 L 276.92 181.22 L 269.26 188.45 L 262.38 195.62 L 256.06 202.83 L 250.29 210.09 L 245.03 217.39 L 240.07 225.05 L 235.70 232.57 L 231.91 239.96 L 228.67 247.25 L 225.80 254.83 L 223.55 262.11 L 221.88 269.10 L 220.77 275.83 L 220.18 282.75 L 220.20 289.21 L 220.80 295.27 L 221.95 300.97 L 223.34 305.47 L 225.12 309.64 L 227.28 313.52 L 229.83 317.13 L 232.79 320.49 L 236.12 323.48 L 239.77 326.08 L 243.76 328.30 L 248.11 330.14 L 252.59 331.53 L 257.37 332.55 L 262.49 333.17 L 267.99 333.39 L 273.38 333.20 L 279.07 332.59 L 285.06 331.56 L 291.38 330.07 L 299.58 327.54 L 307.96 324.31 L 316.54 320.34 L 324.87 315.87 L 333.20 310.78 L 341.54 305.04 L 349.57 298.87 L 357.42 292.18 L 365.08 284.95 L 371.96 277.78 L 378.27 270.57 L 384.05 263.31 L 389.31 256.00 L 394.27 248.35 L 398.63 240.83 L 402.42 233.43 L 405.67 226.15 L 408.54 218.56 L 410.79 211.29 L 412.45 204.30 L 413.57 197.57 L 414.16 190.65 L 414.14 184.18 L 413.54 178.12 L 412.39 172.43 L 411.00 167.93 L 409.22 163.75 L 407.06 159.87 L 404.51 156.26 L 401.55 152.91 L 401.55 152.91 Z" fill="#d8d6c1" fill-rule="nonzero" group-id="1" id="形状" node-id="67" stroke="none" target-height="927.99" target-width="684.9" target-x="128.56" target-y="0.56"></path><path d="M 774.09 122.20 L 785.82 129.97 L 796.54 137.75 L 806.29 145.56 L 815.14 153.38 L 823.13 161.23 L 830.31 169.10 L 836.73 177.01 L 842.42 184.95 L 847.43 192.93 L 851.78 200.98 L 855.50 209.10 L 860.89 222.65 L 865.97 236.84 L 870.74 251.70 L 875.17 267.26 L 879.10 282.78 L 882.70 298.81 L 885.98 315.35 L 888.91 332.43 L 891.42 349.44 L 893.61 366.80 L 895.46 384.50 L 896.97 402.56 L 898.44 426.61 L 899.32 450.96 L 899.61 475.61 L 899.32 500.27 L 898.47 524.91 L 897.06 549.53 L 895.10 574.12 L 892.61 598.36 L 889.59 622.28 L 886.02 646.11 L 881.96 669.28 L 877.44 691.80 L 873.64 708.70 L 869.61 725.03 L 865.34 740.81 L 860.86 756.05 L 855.95 771.38 L 850.84 785.96 L 845.56 799.82 L 840.10 812.99 L 834.08 826.19 L 827.62 838.94 L 820.73 851.24 L 813.40 863.12 L 805.63 874.59 L 797.41 885.66 L 788.75 896.34 L 779.64 906.65 L 770.06 916.58 L 760.00 926.15 L 749.45 935.37 L 738.41 944.23 L 726.84 952.75 L 714.75 960.91 L 702.10 968.73 L 688.88 976.20 L 675.07 983.32 L 660.64 990.08 L 645.58 996.47 L 629.86 1002.49 L 609.47 1005.65 L 590.20 1008.21 L 572.02 1010.20 L 554.86 1011.66 L 538.69 1012.62 L 523.45 1013.12 L 509.11 1013.17 L 497.13 1012.82 L 481.46 1011.87 L 461.38 1010.17 L 436.16 1007.56 L 404.98 1003.87 L 386.54 996.01 L 368.45 987.66 L 350.71 978.80 L 333.31 969.43 L 316.25 959.56 L 299.50 949.18 L 283.07 938.27 L 266.94 926.85 L 251.12 914.90 L 235.59 902.41 L 220.36 889.37 L 231.64 883.12 L 233.68 882.22 L 235.85 881.69 L 238.18 881.52 L 240.51 881.73 L 242.84 882.30 L 245.21 883.27 L 259.70 890.33 L 274.29 896.78 L 289.00 902.61 L 303.82 907.85 L 318.78 912.49 L 333.87 916.54 L 349.11 920.00 L 364.52 922.89 L 380.10 925.18 L 395.87 926.90 L 411.83 928.02 L 428.01 928.55 L 430.55 928.33 L 432.81 927.67 L 434.83 926.59 L 436.43 925.19 L 437.59 923.48 L 438.22 921.54 L 438.41 918.81 L 438.22 916.14 L 437.66 913.50 L 436.70 910.87 L 449.83 914.02 L 462.51 916.60 L 474.75 918.65 L 486.56 920.18 L 497.97 921.22 L 509.00 921.78 L 520.44 921.90 L 531.50 921.57 L 542.19 920.81 L 552.54 919.62 L 562.56 918.03 L 572.27 916.03 L 584.01 913.01 L 595.32 909.47 L 606.22 905.41 L 616.74 900.84 L 626.90 895.76 L 636.84 890.12 L 646.43 884.05 L 655.70 877.53 L 664.66 870.55 L 673.31 863.11 L 681.59 855.31 L 689.59 847.13 L 697.30 838.57 L 704.74 829.61 L 711.89 820.25 L 720.31 808.24 L 728.32 795.76 L 735.90 782.78 L 743.08 769.30 L 749.73 755.60 L 755.97 741.56 L 761.82 727.17 L 767.26 712.41 L 772.24 697.53 L 776.83 682.46 L 781.04 667.20 L 784.84 651.74 L 788.26 636.19 L 791.30 620.62 L 793.96 605.03 L 796.25 589.42 L 798.76 568.52 L 800.63 547.92 L 801.88 527.60 L 802.54 507.25 L 802.62 487.53 L 802.14 468.43 L 805.49 448.58 L 808.25 428.84 L 810.42 409.20 L 812.01 389.67 L 813.02 370.23 L 813.46 350.88 L 813.32 331.60 L 812.62 312.39 L 811.36 293.24 L 809.52 274.13 L 807.12 255.07 L 804.14 236.05 L 800.59 217.05 L 796.47 198.07 L 791.76 179.11 L 786.47 160.15 L 780.58 141.18 L 774.09 122.20 Z" fill="#c4c1a1" fill-rule="nonzero" group-id="1" id="路径" node-id="68" stroke="none" target-height="890.97" target-width="679.25" target-x="220.36" target-y="122.2"></path><path d="M 802.14 468.43 L 802.62 487.53 L 802.54 507.25 L 801.88 527.60 L 800.63 547.92 L 798.76 568.52 L 796.25 589.42 L 793.96 605.03 L 791.30 620.62 L 788.26 636.19 L 784.84 651.74 L 781.04 667.20 L 776.83 682.46 L 772.24 697.53 L 767.26 712.41 L 761.82 727.17 L 755.97 741.56 L 749.73 755.60 L 743.08 769.30 L 735.90 782.78 L 728.32 795.76 L 720.31 808.24 L 711.89 820.25 L 704.74 829.61 L 697.30 838.57 L 689.59 847.13 L 681.59 855.31 L 673.31 863.11 L 664.66 870.55 L 655.70 877.53 L 646.43 884.05 L 636.84 890.12 L 626.90 895.76 L 616.74 900.84 L 606.22 905.41 L 595.32 909.47 L 584.01 913.01 L 572.27 916.03 L 562.56 918.03 L 552.54 919.62 L 542.19 920.81 L 531.50 921.57 L 520.44 921.90 L 509.00 921.78 L 497.97 921.22 L 486.56 920.18 L 474.75 918.65 L 462.51 916.60 L 449.83 914.02 L 436.70 910.87 L 425.57 906.96 L 414.84 902.60 L 404.50 897.78 L 394.52 892.49 L 384.90 886.75 L 375.52 880.52 L 366.48 873.90 L 357.75 866.90 L 349.33 859.49 L 341.22 851.67 L 333.45 843.53 L 325.97 835.08 L 318.77 826.30 L 311.86 817.18 L 305.22 807.71 L 297.40 795.62 L 290.00 783.15 L 283.01 770.27 L 276.44 756.98 L 270.35 743.51 L 264.65 729.78 L 259.35 715.80 L 254.46 701.56 L 249.97 687.20 L 245.87 672.74 L 242.15 658.19 L 238.82 643.55 L 234.93 623.90 L 231.68 604.40 L 229.08 585.03 L 227.06 565.58 L 225.64 546.61 L 224.80 528.09 L 224.52 509.54 L 224.77 491.80 L 225.54 474.84 L 226.00 471.25 L 227.07 467.80 L 228.69 464.56 L 230.88 461.57 L 241.41 449.53 L 252.04 438.14 L 262.78 427.38 L 273.63 417.24 L 284.59 407.69 L 295.66 398.72 L 307.28 389.99 L 318.95 381.84 L 330.69 374.27 L 342.49 367.27 L 354.38 360.81 L 366.34 354.89 L 378.68 349.36 L 391.04 344.37 L 403.44 339.92 L 415.88 335.99 L 428.36 332.57 L 440.91 329.67 L 453.63 327.24 L 466.35 325.32 L 479.07 323.90 L 491.81 322.99 L 504.57 322.57 L 517.37 322.65 L 530.14 323.22 L 542.88 324.28 L 555.60 325.82 L 568.31 327.86 L 581.01 330.39 L 593.72 333.42 L 606.22 336.89 L 618.66 340.85 L 631.05 345.28 L 643.39 350.21 L 655.69 355.64 L 667.96 361.58 L 679.88 367.87 L 691.70 374.64 L 703.43 381.90 L 715.07 389.66 L 726.62 397.93 L 738.10 406.72 L 749.12 415.74 L 759.99 425.25 L 770.73 435.27 L 781.33 445.79 L 791.80 456.84 L 802.14 468.43 Z M 360.47 440.84 L 353.01 441.92 L 345.69 442.82 L 338.46 443.72 L 331.70 444.72 L 325.20 446.06 L 319.48 447.78 L 315.88 449.29 L 312.72 451.10 L 309.95 453.22 L 308.13 455.05 L 306.55 457.15 L 305.20 459.55 L 304.09 462.28 L 303.34 465.05 L 302.86 468.24 L 302.67 471.94 L 302.84 476.21 L 300.09 476.85 L 297.64 477.93 L 295.43 479.45 L 293.45 481.46 L 291.67 484.02 L 290.10 487.22 L 288.78 491.20 L 287.75 496.08 L 287.07 502.00 L 286.83 509.14 L 287.04 524.61 L 287.70 540.65 L 288.83 557.28 L 290.41 573.85 L 292.51 590.68 L 295.14 607.77 L 298.28 624.77 L 301.99 641.72 L 306.27 658.64 L 309.86 671.23 L 313.80 683.64 L 318.07 695.86 L 322.69 707.91 L 327.71 719.83 L 333.08 731.41 L 338.82 742.66 L 344.91 753.60 L 351.46 764.32 L 358.39 774.57 L 365.71 784.37 L 373.40 793.74 L 379.92 800.97 L 386.70 807.83 L 393.75 814.34 L 401.07 820.51 L 408.67 826.34 L 416.54 831.77 L 424.71 836.79 L 433.20 841.41 L 442.03 845.62 L 451.21 849.42 L 460.46 852.69 L 470.09 855.49 L 480.12 857.81 L 490.58 859.66 L 501.49 861.01 L 503.47 861.06 L 505.37 860.82 L 507.23 860.30 L 509.00 859.52 L 510.62 858.48 L 512.11 857.19 L 513.39 855.68 L 514.40 854.05 L 515.17 852.28 L 515.67 850.41 L 515.89 848.50 L 515.82 846.53 L 515.54 841.27 L 515.84 836.33 L 516.70 831.67 L 518.11 827.25 L 520.08 823.03 L 522.62 818.98 L 525.78 815.07 L 529.62 811.30 L 534.20 807.66 L 539.61 804.15 L 554.38 797.70 L 565.84 792.12 L 574.50 787.31 L 580.85 783.20 L 585.33 779.69 L 588.33 776.69 L 590.17 774.14 L 591.14 771.93 L 591.43 769.97 L 591.14 768.16 L 590.25 766.41 L 588.65 764.65 L 586.12 762.87 L 582.38 761.06 L 577.10 759.26 L 569.88 757.52 L 560.28 755.91 L 547.82 754.50 L 531.98 753.38 L 534.90 727.40 L 537.19 701.51 L 538.84 675.70 L 539.85 649.95 L 540.24 624.27 L 540.01 598.64 L 539.14 573.05 L 537.66 547.51 L 535.54 522.00 L 532.80 496.51 L 529.43 471.03 L 525.43 445.57 L 520.79 420.11 L 515.52 394.64 L 514.78 392.44 L 513.69 390.54 L 512.23 388.92 L 510.49 387.62 L 508.55 386.74 L 506.37 386.26 L 495.30 385.40 L 484.59 385.15 L 474.21 385.47 L 464.13 386.37 L 454.34 387.81 L 444.81 389.81 L 435.53 392.34 L 426.48 395.42 L 417.63 399.05 L 408.98 403.23 L 400.50 407.97 L 392.20 413.29 L 384.05 419.22 L 376.05 425.77 L 368.19 432.96 L 360.47 440.84 Z M 607.60 476.97 L 614.61 474.19 L 621.15 472.05 L 627.26 470.50 L 633.48 469.38 L 639.47 468.72 L 645.26 468.49 L 651.06 468.63 L 656.86 469.08 L 662.66 469.86 L 671.39 471.46 L 680.55 473.55 L 699.99 478.50 L 702.76 479.04 L 705.37 479.26 L 707.85 479.20 L 710.30 478.84 L 712.49 478.19 L 714.47 477.28 L 717.37 475.48 L 719.48 473.78 L 720.97 472.17 L 721.93 470.62 L 722.61 468.86 L 722.88 467.15 L 722.80 465.46 L 722.34 463.76 L 721.30 461.61 L 719.83 459.49 L 717.86 457.39 L 714.48 454.62 L 710.65 452.21 L 706.62 450.25 L 702.89 448.92 L 692.25 446.18 L 681.67 444.06 L 671.12 442.54 L 660.59 441.62 L 650.07 441.30 L 639.53 441.56 L 628.96 442.41 L 618.35 443.87 L 607.68 445.93 L 596.93 448.61 L 593.64 449.77 L 590.55 451.23 L 587.66 453.01 L 584.99 455.10 L 582.76 457.30 L 580.94 459.62 L 579.52 462.17 L 578.72 464.63 L 578.48 467.07 L 578.70 468.85 L 579.32 470.57 L 580.39 472.27 L 581.97 473.97 L 583.73 475.32 L 586.09 476.61 L 589.17 477.83 L 593.12 478.95 L 595.21 479.30 L 597.48 479.38 L 599.95 479.18 L 603.65 478.40 L 607.60 476.97 Z M 596.78 570.43 L 592.11 579.32 L 589.00 586.36 L 587.12 591.87 L 586.21 596.11 L 586.03 599.34 L 586.40 601.79 L 587.21 603.65 L 588.41 605.05 L 590.06 606.07 L 592.29 606.71 L 595.27 606.89 L 599.23 606.46 L 604.43 605.21 L 611.15 602.90 L 619.72 599.23 L 630.47 593.91 L 634.33 597.94 L 638.09 601.11 L 641.77 603.52 L 645.39 605.24 L 648.98 606.36 L 652.58 606.90 L 656.24 606.88 L 660.00 606.29 L 663.89 605.09 L 667.97 603.22 L 672.26 600.59 L 676.82 597.11 L 681.82 597.80 L 685.93 597.83 L 689.29 597.33 L 692.03 596.37 L 694.29 594.99 L 696.12 593.19 L 697.58 590.93 L 698.67 588.10 L 699.34 584.58 L 699.52 580.22 L 699.08 574.85 L 702.55 572.08 L 705.28 569.30 L 707.37 566.49 L 708.88 563.65 L 709.87 560.74 L 710.36 557.73 L 710.36 554.57 L 709.98 552.52 L 709.16 550.54 L 707.86 548.59 L 706.22 546.89 L 704.23 545.37 L 701.82 544.05 L 697.95 542.63 L 691.87 541.01 L 685.11 539.62 L 676.86 538.30 L 668.20 537.24 L 658.76 536.42 L 649.19 535.95 L 639.58 535.88 L 630.09 536.27 L 621.29 537.16 L 615.54 538.11 L 610.42 539.32 L 605.88 540.76 L 602.54 542.15 L 599.70 543.69 L 597.32 545.36 L 595.34 547.17 L 593.68 549.27 L 592.52 551.56 L 591.84 554.08 L 591.64 556.90 L 591.95 559.62 L 592.82 562.73 L 594.38 566.30 L 596.78 570.43 Z" fill="#285f86" fill-rule="nonzero" group-id="1" id="形状" node-id="69" stroke="none" target-height="599.33" target-width="578.1" target-x="224.52" target-y="322.57"></path><path d="M 629.86 1002.49 L 657.76 1025.21 L 647.23 1034.64 L 636.81 1043.18 L 626.50 1050.89 L 616.28 1057.80 L 606.16 1063.96 L 596.10 1069.38 L 586.12 1074.10 L 576.18 1078.16 L 566.29 1081.57 L 556.41 1084.35 L 546.54 1086.51 L 536.66 1088.08 L 526.75 1089.04 L 516.80 1089.42 L 506.79 1089.21 L 496.69 1088.39 L 486.50 1086.97 L 476.20 1084.93 L 465.76 1082.25 L 455.18 1078.90 L 444.42 1074.88 L 433.49 1070.14 L 422.35 1064.65 L 411.00 1058.39 L 399.42 1051.30 L 387.60 1043.35 L 384.39 1040.80 L 381.74 1038.09 L 379.61 1035.20 L 377.96 1032.12 L 376.75 1028.82 L 376.00 1025.26 L 375.71 1021.40 L 404.98 1003.87 L 436.16 1007.56 L 461.38 1010.17 L 481.46 1011.87 L 497.13 1012.82 L 509.11 1013.17 L 523.45 1013.12 L 538.69 1012.62 L 554.86 1011.66 L 572.02 1010.20 L 590.20 1008.21 L 609.47 1005.65 L 629.86 1002.49 Z" fill="#504c43" fill-rule="nonzero" group-id="1" id="路径" node-id="70" stroke="none" target-height="86.93005" target-width="282.05002" target-x="375.71" target-y="1002.49"></path><path d="M 375.71 1021.40 L 376.00 1025.26 L 376.75 1028.82 L 377.96 1032.12 L 379.61 1035.20 L 381.74 1038.09 L 384.39 1040.80 L 387.60 1043.35 L 399.42 1051.30 L 411.00 1058.39 L 422.35 1064.65 L 433.49 1070.14 L 444.42 1074.88 L 455.18 1078.90 L 465.76 1082.25 L 476.20 1084.93 L 486.50 1086.97 L 496.69 1088.39 L 506.79 1089.21 L 516.80 1089.42 L 526.75 1089.04 L 536.66 1088.08 L 546.54 1086.51 L 556.41 1084.35 L 566.29 1081.57 L 576.18 1078.16 L 586.12 1074.10 L 596.11 1069.38 L 606.16 1063.96 L 616.28 1057.80 L 626.50 1050.89 L 636.81 1043.18 L 647.23 1034.64 L 657.76 1025.21 L 733.99 1058.29 L 729.43 1077.46 L 724.32 1096.27 L 718.65 1114.73 L 712.42 1132.86 L 705.63 1150.66 L 698.30 1168.14 L 690.40 1185.33 L 681.94 1202.21 L 672.92 1218.82 L 663.33 1235.14 L 653.16 1251.20 L 642.41 1267.00 L 631.06 1282.55 L 619.10 1297.84 L 606.53 1312.90 L 602.64 1316.96 L 598.48 1320.57 L 594.03 1323.75 L 589.27 1326.52 L 584.28 1328.84 L 579.13 1330.66 L 573.80 1332.01 L 568.27 1332.87 L 554.07 1334.05 L 539.41 1334.73 L 524.27 1334.90 L 508.63 1334.53 L 492.47 1333.62 L 475.77 1332.14 L 458.51 1330.07 L 440.66 1327.38 L 437.03 1326.50 L 433.62 1325.07 L 430.50 1323.12 L 427.70 1320.67 L 415.17 1307.37 L 403.28 1293.83 L 392.02 1280.06 L 381.38 1266.05 L 371.35 1251.80 L 361.92 1237.29 L 353.06 1222.52 L 344.79 1207.49 L 337.08 1192.17 L 329.94 1176.57 L 323.36 1160.67 L 317.35 1144.46 L 311.89 1127.92 L 306.98 1111.05 L 302.65 1093.83 L 298.87 1076.25 L 295.67 1058.29 L 375.71 1021.40 Z" fill="#d8d6c1" fill-rule="nonzero" group-id="1" id="路径" node-id="71" stroke="none" target-height="313.5" target-width="438.31998" target-x="295.67" target-y="1021.4"></path><path d="M 295.67 1058.29 L 298.87 1076.25 L 302.65 1093.83 L 306.98 1111.05 L 311.89 1127.92 L 317.35 1144.46 L 323.36 1160.67 L 329.94 1176.57 L 337.08 1192.17 L 344.79 1207.49 L 353.06 1222.52 L 361.92 1237.29 L 371.35 1251.80 L 381.38 1266.05 L 392.02 1280.06 L 403.28 1293.83 L 415.17 1307.37 L 427.70 1320.67 L 430.50 1323.12 L 433.63 1325.07 L 437.03 1326.50 L 440.66 1327.38 L 458.51 1330.07 L 475.77 1332.14 L 492.47 1333.62 L 508.63 1334.53 L 524.27 1334.90 L 539.41 1334.73 L 554.07 1334.05 L 568.27 1332.87 L 573.80 1332.01 L 579.13 1330.66 L 584.28 1328.84 L 589.27 1326.52 L 594.03 1323.75 L 598.48 1320.57 L 602.64 1316.96 L 606.53 1312.90 L 619.10 1297.84 L 631.06 1282.55 L 642.41 1267.00 L 653.16 1251.20 L 663.33 1235.14 L 672.92 1218.82 L 681.94 1202.21 L 690.40 1185.33 L 698.30 1168.14 L 705.63 1150.66 L 712.42 1132.86 L 718.65 1114.73 L 724.32 1096.27 L 729.43 1077.46 L 733.99 1058.29 L 760.67 1070.95 L 756.51 1088.99 L 751.85 1106.67 L 746.66 1124.00 L 740.98 1140.99 L 734.78 1157.66 L 728.08 1174.01 L 720.87 1190.05 L 713.15 1205.80 L 704.92 1221.26 L 696.17 1236.45 L 686.89 1251.36 L 677.09 1266.01 L 666.76 1280.41 L 655.87 1294.55 L 644.44 1308.45 L 632.44 1322.11 L 619.86 1335.54 L 606.69 1348.73 L 603.83 1351.09 L 600.65 1352.96 L 597.22 1354.32 L 593.58 1355.13 L 575.61 1357.21 L 557.64 1358.76 L 539.67 1359.80 L 521.69 1360.32 L 503.69 1360.32 L 485.66 1359.81 L 467.61 1358.77 L 449.51 1357.21 L 431.36 1355.13 L 427.72 1354.39 L 424.28 1353.08 L 421.11 1351.23 L 418.25 1348.88 L 405.12 1335.72 L 392.62 1322.32 L 380.71 1308.68 L 369.39 1294.79 L 358.64 1280.65 L 348.47 1266.26 L 338.84 1251.60 L 329.77 1236.67 L 321.24 1221.45 L 313.25 1205.95 L 305.79 1190.16 L 298.86 1174.05 L 292.45 1157.63 L 286.58 1140.88 L 281.23 1123.79 L 276.41 1106.34 L 272.13 1088.53 L 268.38 1070.34 L 295.67 1058.29 Z" fill="#c4c1a1" fill-rule="nonzero" group-id="1" id="路径" node-id="72" stroke="none" target-height="302.0299" target-width="492.28998" target-x="268.38" target-y="1058.29"></path><path d="M 268.38 1070.34 L 272.13 1088.53 L 276.41 1106.34 L 281.23 1123.79 L 286.58 1140.88 L 292.45 1157.63 L 298.86 1174.05 L 305.79 1190.16 L 313.25 1205.96 L 321.24 1221.45 L 329.77 1236.67 L 338.85 1251.60 L 348.47 1266.26 L 358.64 1280.65 L 369.39 1294.79 L 380.71 1308.68 L 392.62 1322.32 L 405.12 1335.72 L 418.25 1348.88 L 421.11 1351.23 L 424.28 1353.08 L 427.72 1354.39 L 431.36 1355.13 L 449.51 1357.21 L 467.61 1358.77 L 485.66 1359.81 L 503.69 1360.32 L 521.69 1360.32 L 539.67 1359.80 L 557.64 1358.76 L 575.61 1357.21 L 593.58 1355.13 L 597.22 1354.32 L 600.65 1352.96 L 603.83 1351.09 L 606.69 1348.73 L 619.86 1335.54 L 632.44 1322.11 L 644.44 1308.45 L 655.87 1294.55 L 666.76 1280.41 L 677.09 1266.01 L 686.89 1251.36 L 696.17 1236.45 L 704.92 1221.26 L 713.15 1205.80 L 720.87 1190.05 L 728.08 1174.01 L 734.78 1157.66 L 740.98 1140.99 L 746.66 1124.00 L 751.85 1106.67 L 756.51 1088.99 L 760.67 1070.95 L 836.90 1107.84 L 828.98 1118.58 L 821.67 1129.54 L 814.95 1140.74 L 808.81 1152.19 L 803.24 1163.91 L 798.24 1175.90 L 793.80 1188.18 L 789.91 1200.76 L 786.60 1213.67 L 783.84 1226.91 L 783.76 1229.29 L 784.28 1232.77 L 785.28 1236.48 L 786.89 1240.94 L 801.38 1276.31 L 801.92 1278.11 L 802.19 1280.25 L 802.14 1282.76 L 801.51 1286.60 L 800.16 1290.94 L 790.39 1317.71 L 781.24 1344.61 L 772.71 1371.64 L 764.80 1398.82 L 757.50 1426.14 L 750.82 1453.62 L 744.74 1481.26 L 739.28 1509.07 L 734.42 1537.05 L 730.18 1565.22 L 299.48 1565.22 L 294.68 1537.21 L 289.37 1509.34 L 283.56 1481.62 L 277.24 1454.03 L 270.41 1426.58 L 263.07 1399.24 L 255.22 1372.04 L 246.86 1344.94 L 237.98 1317.97 L 228.59 1291.10 L 227.51 1287.24 L 227.08 1283.57 L 227.15 1281.14 L 227.50 1278.88 L 228.13 1276.77 L 244.90 1233.16 L 245.75 1230.62 L 246.27 1228.17 L 246.49 1225.81 L 246.41 1223.45 L 246.03 1221.29 L 245.36 1219.29 L 196.58 1104.03 L 268.38 1070.34 Z M 593.56 1412.02 L 593.32 1409.48 L 592.68 1407.17 L 591.65 1405.02 L 590.26 1403.08 L 588.60 1401.43 L 586.65 1400.06 L 584.50 1399.04 L 582.18 1398.42 L 579.64 1398.19 L 443.96 1398.66 L 441.23 1398.94 L 438.65 1399.74 L 436.27 1401.02 L 434.16 1402.76 L 432.43 1404.89 L 431.17 1407.27 L 430.39 1409.86 L 430.13 1412.59 L 430.15 1418.07 L 430.40 1420.61 L 431.04 1422.92 L 432.07 1425.07 L 433.45 1427.01 L 435.11 1428.66 L 437.06 1430.03 L 439.22 1431.05 L 441.54 1431.67 L 444.07 1431.90 L 579.76 1431.43 L 582.48 1431.15 L 585.06 1430.35 L 587.44 1429.07 L 589.56 1427.33 L 591.28 1425.20 L 592.55 1422.82 L 593.32 1420.23 L 593.58 1417.50 L 593.56 1412.02 Z" fill="#d8d6c1" fill-rule="nonzero" group-id="1" id="形状" node-id="73" stroke="none" target-height="494.88" target-width="640.32" target-x="196.58" target-y="1070.34"></path><path d="M 196.58 1104.03 L 245.36 1219.29 L 246.03 1221.29 L 246.41 1223.45 L 246.49 1225.81 L 246.27 1228.17 L 245.75 1230.62 L 244.90 1233.16 L 228.13 1276.77 L 227.50 1278.88 L 227.15 1281.14 L 227.08 1283.57 L 227.51 1287.24 L 228.59 1291.10 L 237.98 1317.97 L 246.86 1344.94 L 255.22 1372.04 L 263.07 1399.24 L 270.41 1426.58 L 277.24 1454.03 L 283.56 1481.62 L 289.37 1509.34 L 294.68 1537.21 L 299.48 1565.22 L 295.57 1567.02 L 291.74 1568.28 L 287.98 1569.01 L 284.24 1569.26 L 280.50 1569.01 L 276.73 1568.28 L 272.91 1567.02 L 268.99 1565.22 L 265.35 1539.66 L 261.20 1514.22 L 256.54 1488.89 L 251.37 1463.68 L 245.69 1438.57 L 239.49 1413.56 L 232.78 1388.64 L 225.55 1363.82 L 217.80 1339.08 L 209.53 1314.42 L 208.57 1312.32 L 207.28 1310.59 L 205.64 1309.17 L 203.74 1308.13 L 201.70 1307.54 L 199.47 1307.41 L 196.05 1307.92 L 191.21 1309.16 L 179.99 1312.87 L 167.10 1317.43 L 160.41 1319.69 L 153.85 1321.72 L 147.36 1323.45 L 141.52 1324.63 L 137.65 1325.13 L 134.31 1325.25 L 131.42 1325.05 L 128.66 1324.42 L 126.51 1323.35 L 124.85 1321.87 L 123.95 1320.51 L 123.34 1318.80 L 123.03 1316.66 L 123.09 1313.97 L 123.55 1311.97 L 124.41 1310.03 L 125.73 1308.10 L 127.34 1306.39 L 129.29 1304.84 L 131.63 1303.45 L 197.18 1269.60 L 202.24 1266.69 L 206.56 1263.62 L 210.22 1260.38 L 213.29 1256.98 L 215.81 1253.41 L 217.82 1249.64 L 219.34 1245.64 L 220.38 1241.40 L 220.93 1236.85 L 220.96 1231.97 L 220.44 1226.70 L 219.30 1220.99 L 217.49 1214.79 L 214.92 1208.04 L 211.52 1200.69 L 169.29 1116.08 L 196.58 1104.03 Z" fill="#c4c1a1" fill-rule="nonzero" group-id="1" id="路径" node-id="74" stroke="none" target-height="465.22998" target-width="176.45001" target-x="123.03" target-y="1104.03"></path><path d="M 836.90 1107.84 L 856.56 1116.08 L 838.53 1156.24 L 830.89 1173.65 L 824.87 1188.24 L 821.29 1197.77 L 818.54 1206.20 L 816.50 1213.63 L 815.29 1219.37 L 814.55 1224.65 L 814.25 1229.50 L 814.33 1233.97 L 814.87 1238.48 L 815.87 1242.77 L 817.33 1246.89 L 819.28 1250.85 L 821.61 1254.53 L 824.51 1258.25 L 828.03 1262.00 L 832.24 1265.81 L 838.13 1270.38 L 845.37 1275.24 L 854.14 1280.43 L 863.09 1285.24 L 873.62 1290.50 L 885.88 1296.26 L 905.07 1304.84 L 928.37 1314.88 L 909.92 1352.38 L 904.40 1345.48 L 898.64 1339.17 L 892.65 1333.43 L 886.43 1328.23 L 879.95 1323.55 L 873.21 1319.37 L 866.19 1315.68 L 858.88 1312.48 L 851.25 1309.75 L 843.28 1307.51 L 834.95 1305.76 L 826.23 1304.51 L 824.02 1304.52 L 821.99 1304.99 L 820.07 1305.92 L 818.39 1307.24 L 817.04 1308.89 L 816.01 1310.92 L 807.85 1333.41 L 800.32 1356.01 L 793.43 1378.71 L 787.16 1401.54 L 781.52 1424.48 L 776.49 1447.56 L 772.09 1470.78 L 768.31 1494.14 L 765.14 1517.67 L 762.59 1541.35 L 760.67 1565.22 L 730.18 1565.22 L 734.42 1537.05 L 739.28 1509.07 L 744.74 1481.26 L 750.82 1453.62 L 757.50 1426.14 L 764.80 1398.82 L 772.71 1371.64 L 781.24 1344.61 L 790.39 1317.71 L 800.16 1290.94 L 801.51 1286.60 L 802.14 1282.76 L 802.19 1280.25 L 801.92 1278.11 L 801.38 1276.31 L 786.89 1240.94 L 785.28 1236.48 L 784.28 1232.77 L 783.76 1229.29 L 783.84 1226.91 L 786.60 1213.67 L 789.91 1200.76 L 793.80 1188.18 L 798.24 1175.90 L 803.24 1163.91 L 808.81 1152.19 L 814.95 1140.74 L 821.67 1129.54 L 828.98 1118.58 L 836.90 1107.84 Z" fill="#c4c1a1" fill-rule="nonzero" group-id="1" id="路径" node-id="75" stroke="none" target-height="457.38" target-width="198.19" target-x="730.18" target-y="1107.84"></path><path d="M 169.29 1116.08 L 211.52 1200.69 L 214.92 1208.04 L 217.49 1214.79 L 219.30 1220.99 L 220.44 1226.70 L 220.96 1231.97 L 220.93 1236.85 L 220.38 1241.40 L 219.34 1245.64 L 217.82 1249.64 L 215.81 1253.41 L 213.29 1256.98 L 210.22 1260.38 L 206.56 1263.62 L 202.24 1266.69 L 197.18 1269.60 L 131.63 1303.45 L 129.29 1304.84 L 127.34 1306.40 L 125.73 1308.10 L 124.41 1310.03 L 123.55 1311.97 L 123.09 1313.97 L 123.03 1316.66 L 123.34 1318.80 L 123.95 1320.51 L 124.85 1321.87 L 126.51 1323.35 L 128.66 1324.42 L 131.42 1325.05 L 134.31 1325.25 L 137.65 1325.13 L 141.52 1324.63 L 147.36 1323.45 L 153.85 1321.72 L 160.41 1319.69 L 167.10 1317.43 L 179.99 1312.87 L 191.21 1309.16 L 196.05 1307.92 L 199.47 1307.41 L 201.70 1307.54 L 203.74 1308.13 L 205.64 1309.17 L 207.28 1310.59 L 208.57 1312.32 L 209.53 1314.42 L 217.80 1339.08 L 225.55 1363.82 L 232.78 1388.64 L 239.49 1413.56 L 245.69 1438.57 L 251.37 1463.68 L 256.54 1488.89 L 261.20 1514.22 L 265.35 1539.66 L 268.99 1565.22 L 169.89 1565.22 L 167.12 1544.63 L 163.75 1524.18 L 159.78 1503.84 L 155.21 1483.61 L 150.04 1463.48 L 144.26 1443.44 L 137.87 1423.49 L 130.87 1403.61 L 127.71 1389.96 L 124.02 1376.60 L 119.81 1363.50 L 115.08 1350.67 L 109.82 1338.08 L 104.02 1325.73 L 97.70 1313.60 L 90.83 1301.68 L 83.40 1289.97 L 75.42 1278.46 L 66.85 1267.14 L 57.69 1256.01 L 47.93 1245.05 L 14.69 1198.25 L 13.99 1196.97 L 13.55 1195.62 L 13.38 1194.22 L 13.50 1192.84 L 13.90 1191.54 L 14.55 1190.42 L 15.44 1189.49 L 16.52 1188.80 L 169.29 1116.08 Z" fill="#d8d6c1" fill-rule="nonzero" group-id="1" id="路径" node-id="76" stroke="none" target-height="449.14" target-width="255.60999" target-x="13.38" target-y="1116.08"></path><path d="M 856.56 1116.08 L 1009.17 1189.10 L 1010.39 1189.84 L 1011.41 1190.80 L 1012.20 1191.95 L 1012.74 1193.25 L 1012.98 1194.63 L 1012.92 1196.00 L 1012.56 1197.32 L 1011.92 1198.55 L 981.12 1245.66 L 973.05 1253.13 L 965.42 1260.91 L 958.22 1269.02 L 951.44 1277.47 L 945.07 1286.27 L 939.10 1295.43 L 933.54 1304.96 L 928.37 1314.88 L 905.07 1304.84 L 885.88 1296.26 L 873.62 1290.50 L 863.09 1285.24 L 854.14 1280.43 L 845.37 1275.24 L 838.13 1270.38 L 832.24 1265.81 L 828.03 1262.00 L 824.51 1258.25 L 821.61 1254.53 L 819.28 1250.85 L 817.33 1246.89 L 815.87 1242.77 L 814.87 1238.48 L 814.33 1233.97 L 814.25 1229.50 L 814.55 1224.65 L 815.29 1219.37 L 816.50 1213.63 L 818.54 1206.20 L 821.29 1197.77 L 824.87 1188.24 L 830.89 1173.65 L 838.53 1156.24 L 856.56 1116.08 Z" fill="#d8d6c1" fill-rule="nonzero" group-id="1" id="路径" node-id="77" stroke="none" target-height="198.80005" target-width="198.72998" target-x="814.25" target-y="1116.08"></path><path d="M 47.93 1245.05 L 57.69 1256.01 L 66.85 1267.14 L 75.42 1278.46 L 83.40 1289.97 L 90.83 1301.68 L 97.70 1313.60 L 104.02 1325.73 L 109.82 1338.08 L 115.08 1350.67 L 119.81 1363.50 L 124.02 1376.60 L 127.71 1389.96 L 130.87 1403.61 L 83.91 1469.01 L 82.32 1470.94 L 80.54 1472.56 L 78.57 1473.90 L 76.44 1474.94 L 74.21 1475.65 L 71.86 1476.03 L 2.80 1481.97 L 1.85 1461.81 L 1.03 1441.17 L 0.57 1420.44 L 0.68 1399.61 L 1.16 1385.73 L 2.10 1371.94 L 3.47 1358.25 L 4.85 1348.02 L 6.59 1337.92 L 8.68 1327.94 L 11.12 1318.06 L 13.99 1308.31 L 17.31 1298.72 L 21.10 1289.29 L 25.37 1280.01 L 30.11 1271.00 L 35.44 1262.18 L 41.37 1253.54 L 47.93 1245.05 Z" fill="#285f86" fill-rule="nonzero" group-id="1" id="路径" node-id="78" stroke="none" target-height="236.91992" target-width="130.29999" target-x="0.57" target-y="1245.05"></path><path d="M 981.12 1245.66 L 987.31 1255.22 L 992.85 1264.70 L 997.79 1274.14 L 1002.14 1283.52 L 1006.09 1293.17 L 1009.57 1302.82 L 1012.59 1312.48 L 1015.17 1322.15 L 1018.03 1335.21 L 1020.30 1348.36 L 1021.98 1361.61 L 1023.17 1374.92 L 1023.97 1388.38 L 1024.38 1401.98 L 1024.47 1422.47 L 1024.14 1443.35 L 1023.05 1485.79 L 1016.90 1482.81 L 1010.77 1480.53 L 1004.64 1478.90 L 998.48 1477.90 L 992.26 1477.52 L 985.95 1477.77 L 979.52 1478.65 L 972.94 1480.19 L 966.18 1482.43 L 963.07 1483.33 L 960.01 1483.73 L 956.96 1483.65 L 953.96 1483.11 L 951.13 1482.14 L 948.46 1480.74 L 946.03 1478.95 L 943.92 1476.78 L 942.09 1474.20 L 894.68 1394.31 L 909.92 1352.38 L 928.37 1314.88 L 933.54 1304.96 L 939.10 1295.43 L 945.07 1286.27 L 951.44 1277.47 L 958.22 1269.02 L 965.42 1260.91 L 973.05 1253.13 L 981.12 1245.66 Z" fill="#285f86" fill-rule="nonzero" group-id="1" id="路径" node-id="79" stroke="none" target-height="240.13" target-width="129.78998" target-x="894.68" target-y="1245.66"></path><path d="M 909.92 1352.38 L 894.68 1394.31 L 889.05 1407.42 L 884.10 1420.54 L 879.80 1433.69 L 876.15 1446.88 L 873.14 1460.12 L 870.75 1473.43 L 868.99 1486.82 L 867.86 1500.30 L 867.35 1513.89 L 867.46 1527.61 L 868.21 1541.46 L 869.61 1555.46 L 871.66 1569.64 L 760.67 1565.22 L 762.59 1541.35 L 765.14 1517.67 L 768.31 1494.14 L 772.09 1470.78 L 776.49 1447.56 L 781.52 1424.48 L 787.16 1401.54 L 793.43 1378.71 L 800.32 1356.01 L 807.85 1333.41 L 816.01 1310.92 L 817.04 1308.89 L 818.39 1307.24 L 820.07 1305.92 L 821.99 1304.99 L 824.02 1304.52 L 826.23 1304.51 L 834.95 1305.76 L 843.28 1307.51 L 851.25 1309.75 L 858.88 1312.48 L 866.19 1315.68 L 873.21 1319.37 L 879.95 1323.55 L 886.43 1328.23 L 892.65 1333.43 L 898.64 1339.17 L 904.40 1345.48 L 909.92 1352.38 Z" fill="#d8d6c1" fill-rule="nonzero" group-id="1" id="路径" node-id="80" stroke="none" target-height="265.13" target-width="149.25" target-x="760.67" target-y="1304.51"></path><path d="M 894.68 1394.31 L 942.09 1474.20 L 943.92 1476.78 L 946.03 1478.95 L 948.46 1480.74 L 951.13 1482.14 L 953.96 1483.11 L 956.96 1483.65 L 960.01 1483.73 L 963.07 1483.33 L 966.18 1482.43 L 972.94 1480.19 L 979.52 1478.65 L 985.95 1477.77 L 992.26 1477.52 L 998.48 1477.90 L 1004.64 1478.90 L 1010.77 1480.53 L 1016.90 1482.81 L 1023.05 1485.79 L 1022.74 1560.95 L 1022.47 1563.07 L 1021.70 1564.95 L 1020.51 1566.56 L 1018.97 1567.79 L 1017.16 1568.59 L 1015.12 1568.87 L 871.66 1569.64 L 869.61 1555.46 L 868.21 1541.46 L 867.46 1527.61 L 867.35 1513.89 L 867.86 1500.30 L 868.99 1486.82 L 870.75 1473.43 L 873.14 1460.12 L 876.15 1446.88 L 879.80 1433.69 L 884.10 1420.54 L 889.05 1407.42 L 894.68 1394.31 Z" fill="#c4c1a1" fill-rule="nonzero" group-id="1" id="路径" node-id="81" stroke="none" target-height="175.32996" target-width="155.70001" target-x="867.35" target-y="1394.31"></path><path d="M 130.87 1403.61 L 137.87 1423.49 L 144.26 1443.44 L 150.04 1463.48 L 155.21 1483.61 L 159.78 1503.84 L 163.75 1524.18 L 167.12 1544.63 L 169.89 1565.22 L 150.70 1567.22 L 131.51 1568.73 L 112.33 1569.75 L 93.16 1570.28 L 73.98 1570.33 L 54.80 1569.88 L 35.59 1568.94 L 16.37 1567.50 L 14.11 1567.02 L 12.10 1566.15 L 10.28 1564.88 L 8.75 1563.28 L 7.59 1561.43 L 6.77 1559.27 L 4.50 1549.74 L 2.74 1540.20 L 1.49 1530.63 L 0.75 1521.03 L 0.50 1511.37 L 0.76 1501.65 L 1.52 1491.86 L 2.80 1481.97 L 71.86 1476.03 L 74.21 1475.65 L 76.44 1474.94 L 78.57 1473.90 L 80.54 1472.56 L 82.32 1470.94 L 83.91 1469.01 L 130.87 1403.61 Z" fill="#c4c1a1" fill-rule="nonzero" group-id="1" id="路径" node-id="82" stroke="none" target-height="166.71997" target-width="169.39" target-x="0.5" target-y="1403.61"></path><g node-id="97"><path d="M 401.55 152.91 L 404.51 156.26 L 407.06 159.87 L 409.22 163.75 L 411.00 167.93 L 412.39 172.43 L 413.54 178.12 L 414.14 184.18 L 414.16 190.65 L 413.57 197.57 L 412.45 204.30 L 410.79 211.29 L 408.54 218.56 L 405.67 226.15 L 402.42 233.43 L 398.63 240.83 L 394.27 248.35 L 389.31 256.00 L 384.05 263.31 L 378.27 270.57 L 371.96 277.78 L 365.08 284.95 L 357.86 291.77 L 350.61 298.04 L 343.31 303.76 L 335.97 308.97 L 328.28 313.88 L 320.73 318.19 L 313.31 321.93 L 306.00 325.12 L 298.40 327.94 L 291.10 330.14 L 284.10 331.75 L 277.37 332.82 L 270.44 333.36 L 263.98 333.30 L 257.92 332.66 L 252.23 331.47 L 247.74 330.05 L 243.58 328.24 L 239.72 326.05 L 236.13 323.47 L 232.79 320.49 L 229.83 317.13 L 227.28 313.53 L 225.12 309.65 L 223.34 305.47 L 221.95 300.97 L 220.80 295.27 L 220.20 289.21 L 220.18 282.75 L 220.77 275.83 L 221.88 269.10 L 223.55 262.11 L 225.80 254.83 L 228.67 247.25 L 231.91 239.96 L 235.70 232.57 L 240.07 225.05 L 245.03 217.40 L 250.29 210.09 L 256.06 202.83 L 262.38 195.62 L 269.26 188.45 L 276.47 181.62 L 283.73 175.36 L 291.03 169.63 L 298.37 164.43 L 306.06 159.52 L 313.61 155.21 L 321.03 151.47 L 328.33 148.27 L 335.94 145.45 L 343.23 143.26 L 350.24 141.64 L 356.97 140.58 L 363.90 140.03 L 370.36 140.10 L 376.42 140.74 L 382.10 141.93 L 386.59 143.35 L 390.76 145.16 L 394.62 147.35 L 398.21 149.92 L 401.55 152.91 Z" fill="#ebebdf" fill-rule="nonzero" group-id="1,2" id="椭圆形" node-id="83" stroke="none" target-height="193.32999" target-width="193.98001" target-x="220.18" target-y="140.03"></path></g><path d="M 531.98 753.38 L 439.29 759.63 L 435.30 760.17 L 432.76 761.00 L 431.26 762.00 L 430.47 763.14 L 430.23 764.48 L 430.61 766.18 L 431.82 768.40 L 434.26 771.37 L 440.65 777.64 L 447.17 783.23 L 453.80 788.16 L 460.57 792.47 L 467.49 796.19 L 474.57 799.33 L 481.82 801.91 L 489.28 803.94 L 496.96 805.42 L 504.89 806.34 L 513.09 806.69 L 521.59 806.46 L 530.42 805.62 L 539.61 804.15 L 534.20 807.66 L 529.62 811.30 L 525.78 815.07 L 522.62 818.98 L 520.08 823.03 L 518.11 827.25 L 516.70 831.67 L 515.84 836.33 L 515.54 841.27 L 515.82 846.53 L 515.89 848.50 L 515.67 850.41 L 515.17 852.28 L 514.40 854.05 L 513.39 855.68 L 512.11 857.19 L 510.62 858.48 L 509.00 859.52 L 507.23 860.30 L 505.37 860.82 L 503.47 861.06 L 501.49 861.01 L 490.58 859.66 L 480.12 857.81 L 470.09 855.49 L 460.46 852.69 L 451.21 849.42 L 442.03 845.62 L 433.20 841.41 L 424.71 836.79 L 416.54 831.77 L 408.67 826.34 L 401.07 820.51 L 393.75 814.34 L 386.70 807.83 L 379.92 800.97 L 373.40 793.74 L 365.71 784.37 L 358.39 774.57 L 351.46 764.32 L 344.91 753.60 L 338.82 742.66 L 333.08 731.41 L 327.71 719.83 L 322.69 707.91 L 318.07 695.86 L 313.80 683.64 L 309.86 671.23 L 306.27 658.64 L 301.99 641.72 L 298.28 624.77 L 295.14 607.77 L 292.51 590.68 L 290.41 573.85 L 288.83 557.28 L 287.70 540.65 L 287.04 524.61 L 286.83 509.14 L 287.07 502.00 L 287.75 496.08 L 288.78 491.20 L 290.10 487.22 L 291.67 484.02 L 293.45 481.46 L 295.43 479.45 L 297.64 477.93 L 300.09 476.85 L 302.84 476.21 L 313.53 474.59 L 324.85 473.42 L 336.82 472.72 L 349.50 472.53 L 362.92 472.86 L 377.11 473.76 L 392.13 475.25 L 408.01 477.37 L 424.80 480.17 L 429.85 480.81 L 433.98 480.86 L 437.35 480.42 L 440.10 479.58 L 442.33 478.40 L 444.13 476.87 L 445.56 474.98 L 446.63 472.66 L 447.33 469.84 L 447.61 466.39 L 447.37 462.18 L 446.86 459.99 L 445.96 457.98 L 444.65 456.11 L 443.01 454.49 L 441.09 453.17 L 438.83 452.12 L 427.80 448.63 L 416.74 445.77 L 405.64 443.54 L 394.47 441.94 L 383.24 440.95 L 371.91 440.58 L 360.47 440.84 L 368.19 432.96 L 376.05 425.77 L 384.05 419.22 L 392.20 413.29 L 400.50 407.97 L 408.98 403.23 L 417.63 399.05 L 426.48 395.42 L 435.53 392.34 L 444.81 389.81 L 454.34 387.81 L 464.13 386.37 L 474.21 385.47 L 484.59 385.15 L 495.30 385.40 L 506.37 386.26 L 508.55 386.74 L 510.49 387.62 L 512.23 388.92 L 513.69 390.54 L 514.78 392.44 L 515.52 394.64 L 520.79 420.11 L 525.43 445.57 L 529.43 471.03 L 532.80 496.51 L 535.54 522.00 L 537.66 547.51 L 539.14 573.05 L 540.01 598.64 L 540.24 624.27 L 539.85 649.95 L 538.84 675.70 L 537.19 701.51 L 534.90 727.40 L 531.98 753.38 Z M 352.08 579.73 L 352.80 586.10 L 353.94 591.34 L 355.42 595.62 L 357.20 599.08 L 359.24 601.85 L 361.53 604.03 L 364.11 605.68 L 367.02 606.84 L 370.32 607.50 L 374.09 607.62 L 378.44 607.13 L 383.46 605.92 L 389.27 603.85 L 395.99 600.77 L 397.77 599.61 L 399.20 598.13 L 400.33 596.31 L 401.07 594.30 L 401.41 592.14 L 401.33 589.79 L 400.88 584.91 L 401.02 580.99 L 401.62 577.88 L 402.60 575.41 L 403.92 573.47 L 405.59 571.96 L 407.65 570.85 L 410.19 570.13 L 413.32 569.85 L 417.18 570.12 L 421.67 570.43 L 425.43 570.18 L 427.82 569.69 L 429.72 569.00 L 431.21 568.14 L 434.37 565.50 L 436.55 563.20 L 437.96 561.18 L 438.75 559.40 L 439.13 557.43 L 439.01 555.62 L 438.40 553.89 L 437.26 552.19 L 435.27 550.25 L 432.51 548.32 L 428.83 546.41 L 424.99 544.84 L 420.59 543.34 L 415.55 541.92 L 407.84 540.15 L 399.52 538.61 L 391.09 537.36 L 382.82 536.36 L 374.71 535.58 L 367.54 535.05 L 355.79 534.55 L 351.46 534.59 L 349.64 534.75 L 345.85 535.67 L 341.33 537.21 L 336.76 539.16 L 332.06 541.55 L 327.53 544.24 L 323.41 547.12 L 319.72 550.27 L 316.94 553.32 L 315.47 555.52 L 314.59 557.57 L 314.21 559.49 L 314.28 560.92 L 314.71 562.29 L 315.52 563.65 L 316.80 565.03 L 318.82 566.47 L 321.87 567.90 L 326.26 569.29 L 330.74 570.24 L 336.61 571.05 L 344.15 571.65 L 346.22 572.04 L 348.02 572.86 L 349.60 574.13 L 350.84 575.73 L 351.67 577.58 L 352.08 579.73 L 352.08 579.73 Z" fill="#3079ae" fill-rule="nonzero" group-id="1" id="形状" node-id="84" stroke="none" target-height="475.91" target-width="253.41" target-x="286.83" target-y="385.15"></path><path d="M 360.47 440.84 L 371.91 440.58 L 383.24 440.95 L 394.47 441.94 L 405.64 443.54 L 416.74 445.77 L 427.80 448.63 L 438.83 452.12 L 441.09 453.17 L 443.01 454.49 L 444.65 456.11 L 445.96 457.98 L 446.86 459.99 L 447.37 462.18 L 447.61 466.39 L 447.33 469.84 L 446.63 472.66 L 445.56 474.98 L 444.13 476.87 L 442.33 478.40 L 440.10 479.58 L 437.35 480.42 L 433.98 480.86 L 429.85 480.81 L 424.80 480.17 L 408.01 477.37 L 392.13 475.25 L 377.11 473.76 L 362.92 472.86 L 349.50 472.53 L 336.82 472.72 L 324.85 473.42 L 313.53 474.59 L 302.84 476.21 L 302.67 471.94 L 302.86 468.24 L 303.34 465.05 L 304.09 462.28 L 305.20 459.55 L 306.55 457.15 L 308.13 455.05 L 309.95 453.22 L 312.72 451.10 L 315.88 449.29 L 319.48 447.78 L 325.20 446.06 L 331.70 444.72 L 338.46 443.72 L 345.69 442.82 L 353.01 441.92 L 360.47 440.84 Z" fill="#504c43" fill-rule="nonzero" group-id="1" id="路径" node-id="85" stroke="none" target-height="40.28" target-width="144.93997" target-x="302.67" target-y="440.58"></path><path d="M 699.99 478.50 L 680.55 473.55 L 671.39 471.46 L 662.66 469.86 L 656.86 469.08 L 651.06 468.63 L 645.26 468.49 L 639.47 468.72 L 633.48 469.38 L 627.26 470.50 L 621.15 472.05 L 614.61 474.19 L 607.60 476.97 L 603.65 478.40 L 599.95 479.18 L 597.48 479.38 L 595.21 479.30 L 593.12 478.95 L 589.17 477.83 L 586.09 476.61 L 583.73 475.32 L 581.97 473.97 L 580.39 472.27 L 579.32 470.57 L 578.70 468.85 L 578.48 467.07 L 578.72 464.63 L 579.52 462.17 L 580.94 459.62 L 582.76 457.30 L 584.99 455.10 L 587.66 453.01 L 590.55 451.23 L 593.64 449.77 L 596.93 448.61 L 607.68 445.93 L 618.35 443.87 L 628.96 442.42 L 639.53 441.56 L 650.07 441.30 L 660.59 441.62 L 671.12 442.54 L 681.67 444.06 L 692.25 446.18 L 702.89 448.92 L 706.62 450.25 L 710.65 452.21 L 714.48 454.62 L 717.86 457.39 L 719.83 459.49 L 721.30 461.61 L 722.34 463.76 L 722.80 465.46 L 722.88 467.15 L 722.61 468.86 L 721.93 470.62 L 720.97 472.17 L 719.48 473.78 L 717.37 475.48 L 714.47 477.28 L 712.49 478.19 L 710.30 478.84 L 707.85 479.20 L 705.37 479.26 L 702.76 479.04 L 699.99 478.50 Z" fill="#504c43" fill-rule="nonzero" group-id="1" id="路径" node-id="86" stroke="none" target-height="38.080017" target-width="144.40002" target-x="578.48" target-y="441.3"></path><path d="M 699.08 574.85 L 693.78 572.92 L 689.51 571.92 L 686.08 571.66 L 683.33 571.99 L 681.11 572.80 L 679.29 574.06 L 677.82 575.82 L 676.67 578.17 L 675.89 581.26 L 675.56 585.30 L 675.81 590.49 L 676.82 597.11 L 672.26 600.59 L 667.97 603.22 L 663.89 605.09 L 660.00 606.29 L 656.24 606.88 L 652.58 606.90 L 648.98 606.36 L 645.39 605.24 L 641.77 603.52 L 638.09 601.11 L 634.33 597.94 L 630.47 593.91 L 629.94 588.73 L 628.97 584.37 L 627.62 580.73 L 625.92 577.69 L 623.90 575.18 L 621.53 573.12 L 618.79 571.49 L 615.60 570.27 L 611.91 569.50 L 607.61 569.21 L 602.60 569.49 L 596.78 570.43 L 594.38 566.30 L 592.82 562.73 L 591.95 559.62 L 591.64 556.90 L 591.84 554.08 L 592.52 551.56 L 593.68 549.27 L 595.34 547.17 L 597.32 545.36 L 599.70 543.69 L 602.54 542.15 L 605.88 540.76 L 610.42 539.32 L 615.54 538.11 L 621.29 537.16 L 630.09 536.27 L 639.58 535.88 L 649.19 535.95 L 658.76 536.42 L 668.20 537.24 L 676.86 538.30 L 685.11 539.62 L 691.87 541.01 L 697.95 542.63 L 701.82 544.05 L 704.23 545.37 L 706.22 546.89 L 707.86 548.59 L 709.16 550.54 L 709.98 552.52 L 710.36 554.57 L 710.36 557.73 L 709.87 560.74 L 708.88 563.65 L 707.37 566.49 L 705.28 569.30 L 702.55 572.08 L 699.08 574.85 Z" fill="#504c43" fill-rule="nonzero" group-id="1" id="路径" node-id="87" stroke="none" target-height="71.02002" target-width="118.71997" target-x="591.64" target-y="535.88"></path><path d="M 596.78 570.43 L 602.60 569.49 L 607.61 569.21 L 611.91 569.50 L 615.60 570.27 L 618.79 571.49 L 621.53 573.12 L 623.90 575.18 L 625.92 577.69 L 627.62 580.73 L 628.97 584.37 L 629.94 588.73 L 630.47 593.91 L 619.72 599.23 L 611.15 602.90 L 604.43 605.21 L 599.23 606.46 L 595.27 606.89 L 592.29 606.71 L 590.06 606.07 L 588.41 605.05 L 587.21 603.65 L 586.40 601.79 L 586.03 599.34 L 586.21 596.11 L 587.12 591.87 L 589.00 586.36 L 592.11 579.32 L 596.78 570.43 Z" fill="#4893cc" fill-rule="nonzero" group-id="1" id="路径" node-id="88" stroke="none" target-height="37.679993" target-width="44.43994" target-x="586.03" target-y="569.21"></path><path d="M 699.08 574.85 L 699.52 580.22 L 699.34 584.58 L 698.67 588.10 L 697.58 590.93 L 696.12 593.19 L 694.29 594.99 L 692.03 596.37 L 689.29 597.33 L 685.93 597.83 L 681.82 597.80 L 676.82 597.11 L 675.81 590.49 L 675.56 585.30 L 675.89 581.26 L 676.67 578.17 L 677.82 575.82 L 679.29 574.06 L 681.11 572.80 L 683.33 571.99 L 686.08 571.66 L 689.51 571.92 L 693.78 572.92 L 699.08 574.85 Z" fill="#4893cc" fill-rule="nonzero" group-id="1" id="路径" node-id="89" stroke="none" target-height="26.170044" target-width="23.960022" target-x="675.56" target-y="571.66"></path><path d="M 531.98 753.38 L 547.82 754.50 L 560.28 755.91 L 569.88 757.52 L 577.10 759.26 L 582.38 761.06 L 586.12 762.87 L 588.65 764.65 L 590.25 766.41 L 591.14 768.16 L 591.43 769.97 L 591.14 771.93 L 590.17 774.14 L 588.33 776.69 L 585.33 779.69 L 580.85 783.20 L 574.50 787.31 L 565.84 792.12 L 554.38 797.70 L 539.61 804.15 L 530.42 805.62 L 521.59 806.46 L 513.09 806.69 L 504.89 806.34 L 496.96 805.42 L 489.28 803.94 L 481.82 801.91 L 474.57 799.33 L 467.49 796.19 L 460.57 792.47 L 453.80 788.16 L 447.17 783.23 L 440.65 777.64 L 434.26 771.37 L 431.82 768.40 L 430.61 766.18 L 430.23 764.48 L 430.47 763.14 L 431.26 762.00 L 432.76 761.00 L 435.30 760.17 L 439.29 759.63 L 531.98 753.38 Z" fill="#4893cc" fill-rule="nonzero" group-id="1" id="路径" node-id="90" stroke="none" target-height="53.309998" target-width="161.19998" target-x="430.23" target-y="753.38"></path><path d="M 430.99 1398.71 L 592.61 1398.14 L 593.25 1398.41 L 593.52 1399.05 L 593.63 1430.47 L 593.37 1431.11 L 592.72 1431.38 L 431.11 1431.94 L 430.46 1431.68 L 430.20 1431.04 L 430.09 1399.62 L 430.35 1398.98 L 430.99 1398.71 Z" fill="#d84761" fill-rule="nonzero" group-id="1,3" id="矩形" node-id="91" stroke="none" target-height="33.799927" target-width="163.54001" target-x="430.09" target-y="1398.14"></path><path d="M 344.15 571.65 L 336.61 571.05 L 330.74 570.24 L 326.26 569.29 L 321.87 567.90 L 318.82 566.47 L 316.80 565.03 L 315.52 563.65 L 314.71 562.29 L 314.28 560.92 L 314.21 559.49 L 314.59 557.57 L 315.47 555.52 L 316.94 553.32 L 319.72 550.27 L 323.41 547.12 L 327.53 544.24 L 332.06 541.55 L 336.76 539.16 L 341.33 537.21 L 345.85 535.67 L 349.64 534.75 L 351.46 534.59 L 355.79 534.55 L 367.54 535.05 L 374.71 535.58 L 382.82 536.36 L 391.09 537.36 L 399.52 538.61 L 407.84 540.15 L 415.55 541.92 L 420.59 543.34 L 424.99 544.84 L 428.83 546.41 L 432.51 548.32 L 435.27 550.25 L 437.26 552.19 L 438.40 553.89 L 439.01 555.62 L 439.13 557.43 L 438.75 559.40 L 437.96 561.18 L 436.55 563.20 L 434.37 565.50 L 431.21 568.14 L 429.72 569.00 L 427.82 569.69 L 425.43 570.18 L 421.67 570.43 L 417.18 570.12 L 413.32 569.85 L 410.19 570.13 L 407.65 570.85 L 405.59 571.96 L 403.92 573.47 L 402.60 575.41 L 401.62 577.88 L 401.02 580.99 L 400.88 584.91 L 401.33 589.79 L 401.41 592.14 L 401.07 594.30 L 400.33 596.32 L 399.20 598.13 L 397.77 599.61 L 395.99 600.77 L 389.27 603.85 L 383.46 605.92 L 378.44 607.13 L 374.09 607.62 L 370.32 607.50 L 367.02 606.84 L 364.11 605.68 L 361.53 604.03 L 359.24 601.85 L 357.20 599.08 L 355.42 595.62 L 353.94 591.34 L 352.80 586.10 L 352.08 579.73 L 351.67 577.58 L 350.84 575.73 L 349.60 574.13 L 348.02 572.86 L 346.22 572.04 L 344.15 571.65 Z" fill="#504c43" fill-rule="nonzero" group-id="1" id="路径" node-id="92" stroke="none" target-height="73.07001" target-width="124.92001" target-x="314.21" target-y="534.55"></path></g></svg>