<?xml version="1.0" standalone="no"?><!DOCTYPE svg PUBLIC "-//W3C//DTD SVG 1.1//EN" "http://www.w3.org/Graphics/SVG/1.1/DTD/svg11.dtd"><svg t="1701402233817" class="icon" viewBox="0 0 1413 1024" version="1.1" xmlns="http://www.w3.org/2000/svg" p-id="1138" xmlns:xlink="http://www.w3.org/1999/xlink" width="275.9765625" height="200"><path d="M1369.607313 512.097505v316.892021a48.752619 48.752619 0 0 1-48.752619 48.752618h-146.257855a48.752619 48.752619 0 0 1-48.752619-39.002094 73.128928 73.128928 0 0 0-143.332698 0 48.752619 48.752619 0 0 1-48.752619 39.002094h-149.183013a48.752619 48.752619 0 0 1-48.752618-48.752618v-633.784041a48.752619 48.752619 0 0 1 48.752618-48.752619h292.515712a48.752619 48.752619 0 0 1 45.339935 30.71415l90.67987 226.699676 129.681966 64.840983a48.752619 48.752619 0 0 1 26.81394 43.38983z" fill="#FFA726" p-id="1139"></path><path d="M1052.715292 1024a170.634165 170.634165 0 1 0 0-341.26833 170.634165 170.634165 0 0 0 0 341.26833z" fill="#FB8C00" p-id="1140"></path><path d="M833.328509 48.947629v828.794515h-341.26833a48.752619 48.752619 0 0 1-48.752619-39.002094 73.128928 73.128928 0 0 0-146.257855 0 48.752619 48.752619 0 0 1-48.752619 39.002094h-195.010474a48.752619 48.752619 0 0 1-48.752618-48.752618v-780.041897a48.752619 48.752619 0 0 1 48.752618-48.752619h731.289278a48.752619 48.752619 0 0 1 48.752619 48.752619z" fill="#FFEB3B" p-id="1141"></path><path d="M833.328509 48.947629v341.26833h-828.794515v-341.26833a48.752619 48.752619 0 0 1 48.752618-48.752619h731.289278a48.752619 48.752619 0 0 1 48.752619 48.752619z" fill="#FDD835" p-id="1142"></path><path d="M370.178633 1024a170.634165 170.634165 0 1 0 0-341.26833 170.634165 170.634165 0 0 0 0 341.26833z" fill="#FB8C00" p-id="1143"></path></svg>