<?xml version="1.0" standalone="no"?><!DOCTYPE svg PUBLIC "-//W3C//DTD SVG 1.1//EN" "http://www.w3.org/Graphics/SVG/1.1/DTD/svg11.dtd"><svg height="500" node-id="1" sillyvg="true" template-height="500" template-width="500" version="1.1" viewBox="0 0 500 500" width="500" xmlns="http://www.w3.org/2000/svg" xmlns:xlink="http://www.w3.org/1999/xlink"><defs node-id="129"><linearGradient gradientUnits="userSpaceOnUse" id="未命名的渐变_276" node-id="5" spreadMethod="pad" x1="44008.33" x2="43928.355" y1="-155554.3" y2="-155776.58"><stop offset="0" stop-color="#b7e0fe"></stop><stop offset="1" stop-color="#d0f1ff" stop-opacity="0.45"></stop></linearGradient><linearGradient gradientUnits="userSpaceOnUse" id="未命名的渐变_277" node-id="8" spreadMethod="pad" x1="-787.16" x2="-460.14" y1="-991.41" y2="-949.64"><stop offset="0" stop-color="#c3e8ff"></stop><stop offset="1" stop-color="#5cb3fc"></stop></linearGradient><linearGradient gradientUnits="userSpaceOnUse" id="未命名的渐变_289" node-id="11" spreadMethod="pad" x1="-650.63" x2="-559.06" y1="-1164.37" y2="-1117.31"><stop offset="0" stop-color="#fff9b0"></stop><stop offset="1" stop-color="#ffdc78"></stop></linearGradient><linearGradient gradientUnits="userSpaceOnUse" id="未命名的渐变_280" node-id="14" spreadMethod="pad" x1="-846.9478" x2="-846.9478" y1="-33945" y2="-33840.414"><stop offset="0" stop-color="#fff9e6"></stop><stop offset="1" stop-color="#c0d5e7"></stop></linearGradient><linearGradient gradientTransform="matrix(51.4 -6.93 -6.93 27.38 5006.24 2987.77)" gradientUnits="userSpaceOnUse" id="未命名的渐变_280-2" node-id="17" spreadMethod="pad" x1="-110.38" x2="-110.38" y1="-123.98" y2="-122.37"><stop offset="0" stop-color="#fff9e6"></stop><stop offset="1" stop-color="#c0d5e7"></stop></linearGradient><linearGradient gradientUnits="userSpaceOnUse" id="未命名的渐变_289-2" node-id="18" spreadMethod="pad" x1="-658.65" x2="-576.29" y1="-1143.88" y2="-1099.89"><stop offset="0" stop-color="#fff9b0"></stop><stop offset="1" stop-color="#ffdc78"></stop></linearGradient><linearGradient gradientUnits="userSpaceOnUse" id="未命名的渐变_305" node-id="19" spreadMethod="pad" x1="-2963.8386" x2="-2969.242" y1="-21700.844" y2="-21723.902"><stop offset="0" stop-color="#bc6f37"></stop><stop offset="1" stop-color="#e37b63"></stop></linearGradient><linearGradient gradientUnits="userSpaceOnUse" id="未命名的渐变_289-3" node-id="22" spreadMethod="pad" x1="773.9201" x2="781.07996" y1="-37709.867" y2="-37652.24"><stop offset="0" stop-color="#fff9b0"></stop><stop offset="1" stop-color="#ffdc78"></stop></linearGradient><linearGradient gradientUnits="userSpaceOnUse" id="未命名的渐变_305-2" node-id="23" spreadMethod="pad" x1="-523.8" x2="-579.78" y1="-1227.99" y2="-1264.59"><stop offset="0" stop-color="#bc6f37"></stop><stop offset="1" stop-color="#e37b63"></stop></linearGradient><linearGradient gradientUnits="userSpaceOnUse" id="未命名的渐变_305-3" node-id="24" spreadMethod="pad" x1="-1134.825" x2="-1150.438" y1="-6832.689" y2="-6856.5225"><stop offset="0" stop-color="#bc6f37"></stop><stop offset="1" stop-color="#e37b63"></stop></linearGradient><linearGradient gradientUnits="userSpaceOnUse" id="未命名的渐变_289-4" node-id="25" spreadMethod="pad" x1="-795.4758" x2="-794.3873" y1="-18468.602" y2="-18441.611"><stop offset="0" stop-color="#fff9b0"></stop><stop offset="1" stop-color="#ffdc78"></stop></linearGradient><linearGradient gradientUnits="userSpaceOnUse" id="未命名的渐变_305-4" node-id="26" spreadMethod="pad" x1="386.9166" x2="378.2462" y1="-56988.88" y2="-57044.164"><stop offset="0" stop-color="#bc6f37"></stop><stop offset="1" stop-color="#e37b63"></stop></linearGradient><linearGradient gradientUnits="userSpaceOnUse" id="未命名的渐变_305-5" node-id="27" spreadMethod="pad" x1="-2020.2023" x2="-2004.7092" y1="-6841.52" y2="-6855.99"><stop offset="0" stop-color="#bc6f37"></stop><stop offset="1" stop-color="#e37b63"></stop></linearGradient><linearGradient gradientUnits="userSpaceOnUse" id="未命名的渐变_289-5" node-id="28" spreadMethod="pad" x1="-806.3592" x2="-805.0704" y1="-17619.486" y2="-17593.848"><stop offset="0" stop-color="#fff9b0"></stop><stop offset="1" stop-color="#ffdc78"></stop></linearGradient><linearGradient gradientTransform="matrix(52.07 -1.86 -1.86 67 4146.6 43787)" gradientUnits="userSpaceOnUse" id="未命名的渐变_306" node-id="29" spreadMethod="pad" x1="-95.39" x2="-95.39" y1="-654.66" y2="-653.67"><stop offset="0" stop-color="#9a7a91"></stop><stop offset="1" stop-color="#614458"></stop></linearGradient><linearGradient gradientTransform="matrix(49.67 -2.16 -2.16 66.97 3804.16 43744.66)" gradientUnits="userSpaceOnUse" id="未命名的渐变_306-2" node-id="32" spreadMethod="pad" x1="-97.07" x2="-97.07" y1="-654.87" y2="-653.87"><stop offset="0" stop-color="#9a7a91"></stop><stop offset="1" stop-color="#614458"></stop></linearGradient><linearGradient gradientTransform="matrix(52.07 -1.86 -1.86 67 4120.13 43783.46)" gradientUnits="userSpaceOnUse" id="未命名的渐变_295" node-id="33" spreadMethod="pad" x1="-95.39" x2="-95.39" y1="-654.66" y2="-653.93"><stop offset="0" stop-color="#684f61"></stop><stop offset="1" stop-color="#372732"></stop></linearGradient><linearGradient gradientTransform="matrix(49.67 2.16 2.16 66.97 1447.4 30684.56)" gradientUnits="userSpaceOnUse" id="未命名的渐变_306-3" node-id="36" spreadMethod="pad" x1="-6.85" x2="-6.85" y1="-456.53" y2="-455.53"><stop offset="0" stop-color="#9a7a91"></stop><stop offset="1" stop-color="#614458"></stop></linearGradient><linearGradient gradientTransform="matrix(52.07 1.86 1.86 67 1265.6 30706.89)" gradientUnits="userSpaceOnUse" id="未命名的渐变_306-4" node-id="37" spreadMethod="pad" x1="-5.53" x2="-5.53" y1="-456.69" y2="-455.69"><stop offset="0" stop-color="#9a7a91"></stop><stop offset="1" stop-color="#614458"></stop></linearGradient><linearGradient gradientTransform="matrix(52.07 1.86 1.86 67 1239.06 30710.15)" gradientUnits="userSpaceOnUse" id="未命名的渐变_295-2" node-id="38" spreadMethod="pad" x1="-5.53" x2="-5.53" y1="-456.69" y2="-455.95"><stop offset="0" stop-color="#684f61"></stop><stop offset="1" stop-color="#372732"></stop></linearGradient><linearGradient gradientUnits="userSpaceOnUse" id="未命名的渐变_305-6" node-id="39" spreadMethod="pad" x1="5621.513" x2="5620.5415" y1="2965.7825" y2="2970.2373"><stop offset="0" stop-color="#bc6f37"></stop><stop offset="1" stop-color="#e37b63"></stop></linearGradient><linearGradient gradientUnits="userSpaceOnUse" id="未命名的渐变_305-7" node-id="40" spreadMethod="pad" x1="5621.4165" x2="5620.6387" y1="3372.9375" y2="3377.7002"><stop offset="0" stop-color="#bc6f37"></stop><stop offset="1" stop-color="#e37b63"></stop></linearGradient><linearGradient gradientUnits="userSpaceOnUse" id="未命名的渐变_305-8" node-id="41" spreadMethod="pad" x1="3219.5557" x2="3219.1992" y1="2558.142" y2="2562.1921"><stop offset="0" stop-color="#bc6f37"></stop><stop offset="1" stop-color="#e37b63"></stop></linearGradient><linearGradient gradientUnits="userSpaceOnUse" id="未命名的渐变_305-9" node-id="42" spreadMethod="pad" x1="2018.674" x2="2018.3823" y1="1336.5325" y2="1339.3108"><stop offset="0" stop-color="#bc6f37"></stop><stop offset="1" stop-color="#e37b63"></stop></linearGradient><linearGradient gradientUnits="userSpaceOnUse" id="未命名的渐变_305-10" node-id="43" spreadMethod="pad" x1="-2161.485" x2="-2162.457" y1="2972.2869" y2="2976.7417"><stop offset="0" stop-color="#bc6f37"></stop><stop offset="1" stop-color="#e37b63"></stop></linearGradient><linearGradient gradientUnits="userSpaceOnUse" id="未命名的渐变_305-11" node-id="44" spreadMethod="pad" x1="-2161.5823" x2="-2162.3599" y1="3380.2273" y2="3384.99"><stop offset="0" stop-color="#bc6f37"></stop><stop offset="1" stop-color="#e37b63"></stop></linearGradient><linearGradient gradientUnits="userSpaceOnUse" id="未命名的渐变_305-12" node-id="45" spreadMethod="pad" x1="-1969.2073" x2="-1969.5313" y1="2564.541" y2="2568.5103"><stop offset="0" stop-color="#bc6f37"></stop><stop offset="1" stop-color="#e37b63"></stop></linearGradient><linearGradient gradientUnits="userSpaceOnUse" id="未命名的渐变_305-13" node-id="46" spreadMethod="pad" x1="-1872.9469" x2="-1873.2384" y1="1340.9551" y2="1343.7334"><stop offset="0" stop-color="#bc6f37"></stop><stop offset="1" stop-color="#e37b63"></stop></linearGradient><linearGradient gradientUnits="userSpaceOnUse" id="未命名的渐变_305-14" node-id="47" spreadMethod="pad" x1="-54.566204" x2="-63.5026" y1="-7014.04" y2="-7017.175"><stop offset="0" stop-color="#bc6f37"></stop><stop offset="1" stop-color="#e37b63"></stop></linearGradient><linearGradient gradientUnits="userSpaceOnUse" id="未命名的渐变_305-15" node-id="48" spreadMethod="pad" x1="-492.864" x2="-505.34402" y1="-6438.8115" y2="-6464.6616"><stop offset="0" stop-color="#bc6f37"></stop><stop offset="1" stop-color="#e37b63"></stop></linearGradient><linearGradient gradientUnits="userSpaceOnUse" id="未命名的渐变_306-5" node-id="49" spreadMethod="pad" x1="-16246.5" x2="-16246.5" y1="-10633.92" y2="-10601.92"><stop offset="0" stop-color="#9a7a91"></stop><stop offset="1" stop-color="#614458"></stop></linearGradient></defs><g node-id="316"><g node-id="317"><path d="M 0.00 0.00 L 500.00 0.00 L 500.00 500.00 L 0.00 500.00 Z" fill="none" group-id="1,2" id="Rectangle" node-id="53" stroke="none" target-height="500" target-width="500" target-x="0" target-y="0"></path><g node-id="318"><path d="M 109.20 83.86 L 109.00 310.46 L 109.00 310.46 L 251.00 231.06 L 393.00 311.66 L 394.60 84.16 C 394.68 73.55 390.54 63.35 383.10 55.79 C 375.65 48.23 365.51 43.94 354.90 43.86 L 149.20 43.86 C 127.14 43.93 109.27 61.80 109.20 83.86 Z" fill="url(#未命名的渐变_276)" fill-rule="nonzero" group-id="1,2,3" id="Path-826" node-id="55" stroke="none" target-height="267.8" target-width="285.68" target-x="109" target-y="43.86"></path><path d="M 97.10 359.00 L 49.40 451.00 L 31.00 451.00 C 27.69 451.00 25.00 448.31 25.00 445.00 L 25.00 365.00 C 25.00 361.69 27.69 359.00 31.00 359.00 Z M 386.40 359.00 L 452.70 451.00 L 57.30 451.00 L 105.00 359.00 Z M 479.00 359.00 C 482.31 359.00 485.00 361.69 485.00 365.00 L 485.00 445.00 C 485.00 448.31 482.31 451.00 479.00 451.00 L 461.40 451.00 L 395.10 359.00 Z" fill="url(#未命名的渐变_277)" fill-rule="nonzero" group-id="1,2,3" id="Combined-Shape" node-id="56" stroke="none" target-height="92" target-width="460" target-x="25" target-y="359"></path><path d="M 372.00 401.96 C 372.00 406.38 320.29 409.96 256.50 409.96 C 192.71 409.96 141.00 406.38 141.00 401.96 C 141.00 397.54 192.71 393.96 256.50 393.96 C 320.29 393.96 372.00 397.54 372.00 401.96 Z" fill="#000000" fill-opacity="0.09" fill-rule="nonzero" group-id="1,2,3" id="Oval" node-id="57" stroke="none" target-height="16" target-width="231" target-x="141" target-y="393.96"></path><g node-id="319"><g node-id="321"><path d="M 230.64 281.79 C 230.64 281.79 251.74 315.89 254.84 316.19 C 258.74 316.59 314.14 325.89 314.14 325.89 C 314.14 325.89 319.44 327.99 323.84 326.99 C 327.34 326.19 333.64 317.19 330.34 315.49 C 320.74 310.49 270.64 281.79 270.64 281.79 Z" fill="#e8e7e7" fill-rule="nonzero" group-id="1,2,3,4,6" id="Path" node-id="60" stroke="none" target-height="46.19998" target-width="103.000015" target-x="230.64" target-y="281.79"></path><path d="M 312.64 309.29 L 320.14 309.89 C 315.84 314.99 312.74 319.59 311.04 323.79 L 310.44 325.29 C 307.94 324.89 304.34 324.29 300.24 323.59 Z" fill="#372732" fill-opacity="0.3" fill-rule="nonzero" group-id="1,2,3,4,6" id="Combined-Shape-2" node-id="61" stroke="none" target-height="16" target-width="19.900024" target-x="300.24" target-y="309.29"></path><path d="M 307.44 324.79 C 292.64 322.29 261.14 317.29 258.04 316.99 C 254.94 316.69 230.64 281.79 230.64 281.79 L 270.64 281.79 C 270.64 281.79 302.34 299.99 320.14 309.89 C 313.14 313.69 309.34 318.29 307.44 324.79 Z" fill="url(#未命名的渐变_289)" fill-rule="nonzero" group-id="1,2,3,4,6" id="Path-2" node-id="62" stroke="none" target-height="43" target-width="89.500015" target-x="230.64" target-y="281.79"></path><path d="M 315.34 307.29 C 317.04 308.19 318.64 309.09 320.14 309.99 C 313.14 313.79 309.34 318.39 307.44 324.89 C 306.34 324.69 305.04 324.49 303.74 324.29 C 304.97 320.33 306.86 316.61 309.34 313.29 C 311.06 311.02 313.07 309.01 315.34 307.29 Z" fill="#544f53" fill-rule="nonzero" group-id="1,2,3,4,6" id="Path-3" node-id="63" stroke="none" target-height="17.600006" target-width="16.400024" target-x="303.74" target-y="307.29"></path><path d="M 313.84 325.89 C 316.04 321.89 322.24 312.49 329.54 315.09 C 329.80 315.24 330.06 315.38 330.34 315.49 C 336.24 318.49 333.14 386.79 332.84 389.89 C 332.54 393.19 329.64 398.39 329.34 389.19 C 329.24 384.89 328.64 380.69 326.34 372.79 C 323.14 361.89 315.94 349.39 314.44 343.39 C 312.94 337.39 314.14 325.89 314.14 325.89 Z" fill="#e8e7e7" fill-rule="nonzero" group-id="1,2,3,4,6" id="Path-4" node-id="64" stroke="none" target-height="85.900024" target-width="23.299988" target-x="312.94" target-y="312.49"></path><path d="M 333.34 329.89 C 334.84 352.39 333.14 387.69 332.84 389.99 C 332.54 393.29 329.64 398.49 329.34 389.29 C 329.24 384.99 328.64 380.79 326.34 372.89 C 323.14 361.99 315.94 349.49 314.44 343.49 C 313.79 340.30 313.55 337.04 313.74 333.79 C 317.03 334.17 320.35 334.21 323.64 333.89 C 327.17 333.44 330.52 332.06 333.34 329.89 Z" fill="url(#未命名的渐变_280)" fill-rule="nonzero" group-id="1,2,3,4,6" id="Path-5" node-id="65" stroke="none" target-height="68.599976" target-width="21.290009" target-x="313.55" target-y="329.89"></path><g node-id="324"><path d="M 334.17 386.21 C 334.27 388.41 334.27 389.81 334.37 390.21 C 335.17 392.41 345.87 398.21 350.77 400.01 C 355.67 401.81 354.37 404.21 348.27 405.31 C 342.17 406.41 339.07 404.31 335.17 402.71 C 331.27 401.11 329.47 401.41 328.27 400.71 C 327.47 400.21 328.87 397.41 328.67 390.51 C 328.66 389.27 328.56 388.03 328.37 386.81 C 330.17 385.91 332.23 385.70 334.17 386.21 Z" fill="#372732" fill-rule="nonzero" group-id="1,2,3,4,6,9" id="Path-6" node-id="67" stroke="none" target-height="20.709991" target-width="28.200012" target-x="327.47" target-y="385.7"></path></g><g node-id="325"><path d="M 209.89 347.30 C 211.89 346.44 218.13 339.82 224.41 345.48 C 226.33 347.10 227.21 349.65 226.71 352.11 C 225.83 353.94 224.62 355.60 223.15 357.00 C 212.15 366.89 165.56 385.89 165.56 385.89 C 165.56 385.89 160.08 385.89 165.88 381.66 C 170.03 378.59 177.34 369.17 186.73 359.41 C 192.41 353.54 200.13 349.51 209.89 347.30 Z" fill="#e8e7e7" fill-rule="nonzero" group-id="1,2,3,4,6,10" id="Path-7" node-id="69" stroke="none" target-height="46.070007" target-width="67.130005" target-x="160.08" target-y="339.82"></path><path d="M 201.75 349.79 C 202.75 352.74 203.43 355.66 205.59 358.70 C 207.13 360.98 210.14 362.56 212.79 363.92 C 195.15 373.82 165.56 385.92 165.56 385.92 C 165.56 385.92 160.08 385.92 165.88 381.69 C 170.03 378.62 177.34 369.20 186.73 359.44 C 191.03 355.24 196.14 351.96 201.75 349.79 Z" fill="url(#未命名的渐变_280-2)" fill-rule="nonzero" group-id="1,2,3,4,6,10" id="Path-8" node-id="70" stroke="none" target-height="36.130005" target-width="52.70999" target-x="160.08" target-y="349.79"></path><path d="M 168.45 378.90 C 168.58 380.92 169.61 382.78 171.26 383.95 C 169.57 384.68 167.92 385.50 166.32 386.41 C 166.32 386.41 168.46 398.26 168.91 398.76 C 169.36 399.26 171.40 399.96 172.12 402.25 C 172.84 404.54 171.89 404.07 166.28 404.02 C 163.18 404.02 162.91 402.65 161.68 398.84 C 160.70 395.97 159.50 393.17 158.10 390.48 C 157.17 388.55 156.61 387.25 157.65 385.73 C 158.41 384.73 160.22 384.11 162.05 383.21 C 163.57 382.70 166.23 380.64 168.45 378.90 Z" fill="#372732" fill-rule="nonzero" group-id="1,2,3,4,6,10" id="Path-9" node-id="71" stroke="none" target-height="25.640015" target-width="16.229996" target-x="156.61" target-y="378.9"></path></g><path d="M 255.64 316.29 C 253.44 315.89 251.34 315.79 250.14 317.89 C 247.94 321.89 236.44 350.99 224.44 357.09 C 211.24 363.79 211.74 346.19 213.34 341.79 C 214.94 337.39 230.64 281.69 230.64 281.69 L 268.54 281.69 Z" fill="#e8e7e7" fill-rule="nonzero" group-id="1,2,3,4,6" id="Path-10" node-id="72" stroke="none" target-height="82.100006" target-width="57.300003" target-x="211.24" target-y="281.69"></path><path d="M 212.94 343.09 L 233.74 348.19 C 232.33 350.12 230.76 351.93 229.04 353.59 C 228.23 353.47 227.43 353.30 226.64 353.09 C 220.73 351.97 215.63 348.26 212.74 342.99 L 212.84 343.09 C 212.94 343.19 212.94 343.09 212.94 343.09 Z" fill="#372732" fill-opacity="0.3" fill-rule="nonzero" group-id="1,2,3,4,6" id="Combined-Shape-3" node-id="73" stroke="none" target-height="10.600006" target-width="21" target-x="212.74" target-y="342.99"></path><path d="M 268.64 281.79 C 264.94 295.59 261.34 307.29 257.94 316.99 C 256.14 316.79 254.34 316.89 253.34 318.79 C 251.64 321.99 241.94 340.59 231.94 351.09 C 225.01 350.37 218.41 347.77 212.84 343.59 C 212.94 343.02 213.07 342.45 213.24 341.89 C 214.84 337.49 230.54 281.79 230.54 281.79 Z" fill="url(#未命名的渐变_289-2)" fill-rule="nonzero" group-id="1,2,3,4,6" id="Combined-Shape-4" node-id="74" stroke="none" target-height="69.29999" target-width="55.80002" target-x="212.84" target-y="281.79"></path><path d="M 266.34 313.09 C 275.64 313.99 287.94 317.59 303.14 324.09 C 286.84 321.39 258.34 316.89 255.54 316.59 L 255.44 316.59 C 256.14 313.69 259.84 312.49 266.34 313.09 Z" fill="#372732" fill-opacity="0.3" fill-rule="nonzero" group-id="1,2,3,4,6" id="Combined-Shape-5" node-id="75" stroke="none" target-height="11.600006" target-width="47.700012" target-x="255.44" target-y="312.49"></path><path d="M 224.44 345.39 C 227.79 346.52 231.24 347.33 234.74 347.79 C 233.84 348.89 232.94 349.99 232.04 350.99 C 225.11 350.27 218.51 347.67 212.94 343.49 C 213.04 342.92 213.17 342.35 213.34 341.79 C 213.44 341.49 213.64 340.89 213.84 340.19 C 217.22 342.21 220.77 343.95 224.44 345.39 Z" fill="#544f53" fill-rule="nonzero" group-id="1,2,3,4,6" id="Combined-Shape-6" node-id="76" stroke="none" target-height="10.799988" target-width="21.800003" target-x="212.94" target-y="340.19"></path><path d="M 238.24 221.49 C 238.24 221.49 246.84 217.49 243.94 204.99 C 243.44 202.69 241.54 196.59 242.54 191.49 C 243.34 186.79 246.94 182.19 253.34 182.49 C 261.24 182.79 265.24 188.39 263.64 197.19 C 262.14 205.59 259.94 209.49 256.74 209.19 C 255.97 209.13 255.21 209.13 254.44 209.19 C 254.44 209.19 254.74 216.39 257.84 218.39 C 259.71 219.54 261.65 220.57 263.64 221.49 L 251.24 228.69 Z" fill="url(#未命名的渐变_305)" fill-rule="nonzero" group-id="1,2,3,4,6,11" id="Path-11" node-id="78" stroke="none" target-height="46.5" target-width="26.999985" target-x="238.24" target-y="182.19"></path><path d="M 262.44 220.79 L 262.44 222.09 L 251.24 228.59 L 239.74 222.29 L 240.74 219.99 C 244.72 221.95 249.30 222.31 253.54 220.99 C 255.84 220.29 257.74 219.69 259.34 219.09 C 260.33 219.73 261.37 220.29 262.44 220.79 Z" fill="#372732" fill-opacity="0.3" fill-rule="nonzero" group-id="1,2,3,4,6,11" id="Combined-Shape-7" node-id="79" stroke="none" target-height="9.5" target-width="22.699997" target-x="239.74" target-y="219.09"></path><path d="M 263.84 191.39 C 263.54 191.39 263.34 190.19 259.64 189.99 C 256.24 189.89 249.74 190.99 249.64 194.69 C 249.54 198.39 250.24 199.19 249.04 199.09 C 248.44 199.09 248.74 195.39 246.14 194.69 C 243.54 193.99 244.44 197.49 245.24 199.39 C 246.34 202.09 243.44 203.89 243.44 203.89 C 242.28 200.27 241.41 196.55 240.84 192.79 C 240.54 188.99 242.24 185.79 245.14 183.19 C 248.54 180.19 256.74 182.09 261.64 181.59 C 266.54 181.09 264.14 191.39 263.84 191.39 Z" fill="#4d2d43" fill-rule="nonzero" group-id="1,2,3,4,6,11" id="Path-12" node-id="80" stroke="none" target-height="23.699997" target-width="26.000015" target-x="240.54" target-y="180.19"></path><path d="M 229.44 286.69 C 235.14 292.99 244.04 295.99 256.24 295.39 C 268.44 294.79 276.54 292.29 280.84 287.69 L 274.34 283.99 Z" fill="#372732" fill-opacity="0.3" fill-rule="nonzero" group-id="1,2,3,4,6" id="Path-151" node-id="81" stroke="none" target-height="12" target-width="51.399994" target-x="229.44" target-y="283.99"></path><path d="M 232.14 222.29 C 234.94 222.59 240.04 219.69 240.04 219.69 C 240.04 219.69 246.04 225.49 251.74 224.19 C 257.44 222.89 259.74 219.49 259.74 219.49 L 266.04 220.49 C 274.34 222.39 279.04 228.59 281.04 237.89 C 281.04 237.89 268.84 264.19 270.44 273.39 C 272.04 282.59 275.14 284.69 275.14 284.69 C 275.14 284.69 262.84 291.19 250.04 291.49 C 237.24 291.79 228.84 286.49 228.84 286.49 C 230.67 280.84 230.71 274.76 228.94 269.09 C 226.04 259.29 216.04 236.89 216.04 236.89 C 216.44 230.49 228.24 221.89 232.14 222.29 Z" fill="url(#未命名的渐变_289-3)" fill-rule="nonzero" group-id="1,2,3,4,6" id="Path-13" node-id="82" stroke="none" target-height="72.3" target-width="65.000015" target-x="216.04" target-y="219.49"></path><path d="M 298.94 124.19 C 297.94 125.19 299.24 128.29 301.04 129.79 C 302.84 131.29 303.94 131.39 303.04 134.09 C 302.14 136.79 282.54 175.99 281.84 183.49 C 281.14 190.99 281.04 191.29 279.44 195.59 C 277.84 199.89 271.14 216.69 267.74 220.59 C 260.54 228.89 274.94 250.49 280.84 236.79 C 285.84 225.09 291.74 206.59 295.64 197.99 C 299.54 189.39 299.84 187.79 301.24 179.89 C 302.64 171.99 309.64 136.59 311.94 133.59 C 314.24 130.59 316.24 123.59 316.24 123.59 L 302.34 122.09 L 302.94 127.49 C 302.94 127.39 299.84 123.29 298.94 124.19 Z" fill="url(#未命名的渐变_305-2)" fill-rule="nonzero" group-id="1,2,3,4,6" id="Path-14" node-id="83" stroke="none" target-height="128.40001" target-width="55.69998" target-x="260.54" target-y="122.09"></path><path d="M 273.24 211.39 L 285.14 225.89 C 284.24 228.29 283.34 230.69 282.44 232.89 L 273.24 236.19 L 271.84 213.29 C 272.04 212.79 272.34 212.29 272.54 211.79 Z" fill="#372732" fill-opacity="0.3" fill-rule="nonzero" group-id="1,2,3,4,6" id="Combined-Shape-8" node-id="84" stroke="none" target-height="24.800003" target-width="13.300018" target-x="271.84" target-y="211.39"></path><path d="M 306.14 118.19 C 307.55 118.07 308.96 118.17 310.34 118.49 C 312.15 119.11 313.87 119.99 315.44 121.09 L 313.94 128.79 L 303.44 128.79 L 304.64 119.59 C 304.77 118.84 305.38 118.27 306.14 118.19 Z" fill="url(#未命名的渐变_305-3)" fill-rule="nonzero" group-id="1,2,3,4,6" id="Rectangle-2" node-id="85" stroke="none" target-height="10.719994" target-width="12" target-x="303.44" target-y="118.07"></path><path d="M 272.44 210.39 C 273.04 211.59 273.34 219.39 284.04 228.19 C 285.14 229.09 279.54 241.49 279.54 241.49 C 269.84 251.39 257.14 230.59 264.74 220.99 C 268.14 219.69 269.94 216.09 272.44 210.39 Z" fill="url(#未命名的渐变_289-4)" fill-rule="nonzero" group-id="1,2,3,4,6" id="Path-15" node-id="86" stroke="none" target-height="41" target-width="28" target-x="257.14" target-y="210.39"></path><path d="M 277.34 228.29 C 279.12 231.25 280.38 234.50 281.04 237.89 C 281.04 237.89 268.84 264.19 270.44 273.39 C 272.04 282.59 275.14 284.69 275.14 284.69 C 272.35 286.06 269.48 287.27 266.54 288.29 C 264.04 280.39 262.94 268.99 266.94 253.49 C 269.44 243.39 273.94 239.29 277.34 228.29 Z" fill="#544f53" fill-rule="nonzero" group-id="1,2,3,4,6" id="Path-16" node-id="87" stroke="none" target-height="60.000015" target-width="18.100006" target-x="262.94" target-y="228.29"></path><path d="M 186.34 135.09 C 186.34 135.09 191.94 128.59 194.14 127.29 C 196.34 125.99 194.54 123.99 191.84 125.19 C 190.13 125.98 188.57 127.06 187.24 128.39 L 186.44 123.69 L 172.44 125.69 C 172.44 125.69 176.74 132.89 177.84 134.79 C 178.94 136.69 187.44 169.89 188.94 178.29 C 190.44 186.69 196.24 193.49 199.04 197.29 C 201.84 201.09 207.84 222.69 215.04 231.99 C 222.24 241.29 226.64 218.19 226.64 218.19 L 212.34 190.00 C 212.34 190.00 210.34 179.90 207.54 175.00 C 204.74 170.10 194.84 155.20 191.24 146.90 C 187.64 138.60 186.34 135.09 186.34 135.09 Z" fill="url(#未命名的渐变_305-4)" fill-rule="nonzero" group-id="1,2,3,4,6" id="Path-17" node-id="88" stroke="none" target-height="117.59999" target-width="54.199997" target-x="172.44" target-y="123.69"></path><path d="M 222.74 210.69 C 223.24 211.69 223.74 212.69 224.24 213.59 L 225.74 221.99 C 224.14 228.09 220.34 239.09 214.94 232.09 C 213.75 230.45 212.65 228.75 211.64 226.99 Z" fill="#372732" fill-opacity="0.3" fill-rule="nonzero" group-id="1,2,3,4,6" id="Combined-Shape-9" node-id="89" stroke="none" target-height="28.399994" target-width="14.100006" target-x="211.64" target-y="210.69"></path><path d="M 184.14 119.09 C 182.73 118.97 181.32 119.07 179.94 119.39 C 178.13 120.01 176.41 120.89 174.84 121.99 L 176.34 129.69 L 186.84 129.69 L 185.64 120.49 C 185.51 119.74 184.90 119.17 184.14 119.09 Z" fill="url(#未命名的渐变_305-5)" fill-rule="nonzero" group-id="1,2,3,4,6" id="Rectangle-3" node-id="90" stroke="none" target-height="10.720001" target-width="12" target-x="174.84" target-y="118.97"></path><path d="M 212.74 228.59 C 216.74 224.99 221.74 219.49 223.54 211.39 C 223.54 211.39 228.54 220.69 232.34 222.29 C 236.14 223.89 233.74 238.39 228.24 241.99 C 217.24 249.00 212.74 228.59 212.74 228.59 Z" fill="url(#未命名的渐变_289-5)" fill-rule="nonzero" group-id="1,2,3,4,6" id="Path-18" node-id="91" stroke="none" target-height="37.61" target-width="23.399994" target-x="212.74" target-y="211.39"></path><path d="M 221.00 228.59 C 226.80 243.19 234.70 253.09 237.40 263.29 C 239.90 272.89 237.30 287.89 236.70 289.69 C 234.50 289.69 228.80 286.59 228.80 286.59 C 230.63 280.94 230.67 274.86 228.90 269.19 C 226.00 259.39 216.00 237.00 216.00 237.00 C 216.14 234.19 218.34 231.19 221.00 228.59 Z" fill="#544f53" fill-rule="nonzero" group-id="1,2,3,4,6" id="Path-19" node-id="92" stroke="none" target-height="61.100006" target-width="23.899994" target-x="216" target-y="228.59"></path></g><g node-id="322"><g node-id="327"><path d="M 401.53 101.00 C 415.72 102.74 425.41 119.00 423.14 137.51 C 420.87 156.02 407.53 169.44 393.34 167.70 C 379.15 165.96 369.46 149.70 371.73 131.19 C 374.00 112.68 387.34 99.29 401.53 101.00 Z" fill="url(#未命名的渐变_306)" fill-rule="nonzero" group-id="1,2,3,4,7,12" id="Oval-2" node-id="95" stroke="none" target-height="70.15" target-width="55.950012" target-x="369.46" target-y="99.29"></path><path d="M 373.48 97.28 L 401.67 100.75 C 413.21 102.20 421.41 112.71 420.00 124.26 L 417.00 149.17 C 416.32 154.73 413.46 159.78 409.05 163.23 C 404.63 166.67 399.04 168.22 393.48 167.54 L 365.30 164.08 L 365.30 164.08 Z" fill="url(#未命名的渐变_306-2)" fill-rule="nonzero" group-id="1,2,3,4,7,12" id="Rectangle-4" node-id="96" stroke="none" target-height="70.94" target-width="56.110016" target-x="365.3" target-y="97.28"></path><path d="M 375.07 97.48 C 389.26 99.22 398.95 115.48 396.68 133.99 C 394.41 152.50 381.07 165.92 366.88 164.18 C 352.69 162.44 343.00 146.13 345.26 127.67 C 347.52 109.21 360.87 95.74 375.07 97.48 Z" fill="url(#未命名的渐变_295)" fill-rule="nonzero" group-id="1,2,3,4,7,12" id="Oval-3" node-id="97" stroke="none" target-height="70.18" target-width="55.950012" target-x="343" target-y="95.74"></path><path d="M 392.08 99.27 C 405.57 100.92 414.56 118.85 412.16 135.89 C 409.73 153.22 397.26 167.81 383.86 166.16 C 383.40 166.06 383.10 165.63 383.15 165.17 C 383.21 164.70 383.61 164.36 384.08 164.38 C 396.29 165.88 408.08 152.11 410.38 135.67 C 412.66 119.53 404.26 102.58 391.86 101.05 C 391.52 101.04 391.22 100.83 391.08 100.52 C 390.93 100.22 390.98 99.85 391.19 99.59 C 391.40 99.32 391.75 99.20 392.08 99.27 Z" fill="#30232c" fill-rule="nonzero" group-id="1,2,3,4,7,12" id="Path-20" node-id="98" stroke="none" target-height="68.61" target-width="31.459991" target-x="383.1" target-y="99.2"></path><g node-id="331"><path d="M 370.63 125.66 L 371.99 126.08 L 373.14 126.88 L 374.10 128.12 L 374.75 129.57 L 375.07 131.23 L 375.05 133.15 L 374.61 135.01 L 373.89 136.55 L 372.91 137.80 L 371.68 138.77 L 370.38 139.27 L 368.95 139.35 L 367.58 138.93 L 366.44 138.13 L 365.47 136.89 L 364.83 135.43 L 364.50 133.77 L 364.53 131.86 L 364.97 129.99 L 365.68 128.46 L 366.66 127.20 L 367.90 126.24 L 369.20 125.74 L 370.63 125.66 Z" fill="#614458" fill-rule="nonzero" group-id="1,2,3,4,7,12,16" id="Oval-4" node-id="99" stroke="none" target-height="13.690002" target-width="10.570007" target-x="364.5" target-y="125.66"></path></g></g><path d="M 369.80 129.70 C 291.46 114.50 210.94 114.50 132.60 129.70 C 131.08 130.00 130.10 131.48 130.40 133.00 C 130.70 134.52 132.18 135.50 133.70 135.20 C 211.32 120.23 291.09 120.27 368.70 135.30 C 370.22 135.59 371.68 134.61 372.00 133.10 C 372.29 131.56 371.32 130.06 369.80 129.70 Z" fill="#372732" fill-rule="nonzero" group-id="1,2,3,4,7" id="Path-146" node-id="100" stroke="none" target-height="21.089996" target-width="242.19" target-x="130.1" target-y="114.5"></path><path d="M 96.37 100.94 L 124.55 97.48 C 130.11 96.80 135.70 98.35 140.12 101.79 C 144.53 105.24 147.39 110.29 148.07 115.85 L 151.13 140.76 C 152.55 152.32 144.32 162.85 132.76 164.27 L 104.57 167.74 L 104.57 167.74 Z" fill="url(#未命名的渐变_306-3)" fill-rule="nonzero" group-id="1,2,3,4,7,13" id="Rectangle-5" node-id="102" stroke="none" target-height="70.94" target-width="56.18" target-x="96.37" target-y="96.8"></path><path d="M 124.55 97.48 C 138.75 95.73 152.09 109.21 154.36 127.67 C 156.63 146.13 146.94 162.43 132.74 164.17 C 118.54 165.91 105.21 152.44 102.94 133.98 C 100.67 115.52 110.26 99.23 124.55 97.48 Z" fill="url(#未命名的渐变_306-4)" fill-rule="nonzero" group-id="1,2,3,4,7,13" id="Oval-5" node-id="103" stroke="none" target-height="70.18" target-width="55.960007" target-x="100.67" target-y="95.73"></path><path d="M 123.12 164.55 C 136.83 162.16 143.03 143.77 140.64 128.35 C 138.25 112.93 125.37 97.58 111.76 100.00" fill="none" group-id="1,2,3,4,7,13" id="Path-21" node-id="104" stroke="#372732" stroke-linecap="round" stroke-width="1.79" target-height="66.97" target-width="31.269997" target-x="111.76" target-y="97.58"></path><path d="M 98.00 100.74 C 112.20 99.00 125.54 112.47 127.80 130.93 C 130.06 149.39 120.39 165.70 106.19 167.44 C 91.99 169.18 78.66 155.71 76.39 137.25 C 74.12 118.79 83.76 102.48 98.00 100.74 Z" fill="url(#未命名的渐变_295-2)" fill-rule="nonzero" group-id="1,2,3,4,7,13" id="Oval-6" node-id="105" stroke="none" target-height="70.17999" target-width="55.939995" target-x="74.12" target-y="99"></path><path d="M 109.33 133.23 L 109.38 135.97 L 108.90 138.42 L 107.94 140.62 L 106.60 142.35 L 105.49 143.25 L 104.27 143.86 L 102.91 144.19 L 101.52 144.20 L 100.18 143.90 L 98.89 143.30 L 97.18 141.95 L 95.71 140.04 L 94.65 137.78 L 94.04 135.11 L 93.99 132.37 L 94.46 129.92 L 95.43 127.71 L 96.76 125.99 L 97.87 125.09 L 99.10 124.48 L 100.45 124.14 L 101.85 124.14 L 103.18 124.44 L 104.48 125.04 L 106.19 126.39 L 107.66 128.30 L 108.71 130.56 L 109.33 133.23 Z" fill="#614458" fill-rule="nonzero" group-id="1,2,3,4,7,13,17" id="Oval-7" node-id="106" stroke="none" target-height="20.059998" target-width="15.389999" target-x="93.99" target-y="124.14"></path><path d="M 109.52 133.29 L 109.56 135.46 L 109.20 137.40 L 108.45 139.14 L 107.41 140.51 L 106.08 141.49 L 104.54 141.96 L 102.92 141.87 L 101.40 141.25 L 100.06 140.17 L 98.91 138.66 L 98.09 136.87 L 97.61 134.75 L 97.56 132.58 L 97.93 130.64 L 98.68 128.90 L 99.71 127.53 L 101.04 126.56 L 102.59 126.08 L 104.20 126.17 L 105.72 126.79 L 107.06 127.87 L 108.21 129.38 L 109.03 131.17 L 109.52 133.29 Z" fill="#372732" fill-rule="nonzero" group-id="1,2,3,4,7,13,18" id="Oval-8" node-id="107" stroke="none" target-height="15.880005" target-width="12" target-x="97.56" target-y="126.08"></path><path d="M 186.52 126.39 C 184.82 126.49 181.92 119.29 182.22 118.19 C 182.52 117.09 184.12 117.49 184.92 118.39 C 185.52 119.09 188.12 126.29 186.52 126.39 Z" fill="url(#未命名的渐变_305-6)" fill-rule="nonzero" group-id="1,2,3,4,7,14" id="Path-22" node-id="109" stroke="none" target-height="9.400002" target-width="6.199997" target-x="181.92" target-y="117.09"></path><path d="M 183.12 127.39 C 181.52 127.49 178.62 119.69 178.82 118.49 C 179.02 117.29 180.82 117.79 181.62 118.69 C 182.22 119.39 184.82 127.29 183.12 127.39 Z" fill="url(#未命名的渐变_305-7)" fill-rule="nonzero" group-id="1,2,3,4,7,14" id="Path-23" node-id="110" stroke="none" target-height="10.199997" target-width="6.200012" target-x="178.62" target-y="117.29"></path><path d="M 179.22 127.19 C 177.92 127.29 176.42 120.79 176.52 119.69 C 176.62 118.59 178.02 119.09 178.72 119.89 C 179.22 120.49 180.42 127.09 179.22 127.19 Z" fill="url(#未命名的渐变_305-8)" fill-rule="nonzero" group-id="1,2,3,4,7,14" id="Path-24" node-id="111" stroke="none" target-height="8.700005" target-width="4" target-x="176.42" target-y="118.59"></path><path d="M 176.12 126.29 C 175.02 126.39 174.22 121.79 174.32 121.09 C 174.42 120.39 175.62 120.69 176.22 121.19 C 176.62 121.69 177.22 126.29 176.12 126.29 Z" fill="url(#未命名的渐变_305-9)" fill-rule="nonzero" group-id="1,2,3,4,7,14" id="Path-25" node-id="112" stroke="none" target-height="6" target-width="3" target-x="174.22" target-y="120.39"></path><path d="M 303.93 125.58 C 305.63 125.68 308.53 118.48 308.23 117.38 C 307.93 116.28 306.33 116.68 305.53 117.58 C 304.93 118.28 302.33 125.48 303.93 125.58 Z" fill="url(#未命名的渐变_305-10)" fill-rule="nonzero" group-id="1,2,3,4,7,15" id="Path-26" node-id="114" stroke="none" target-height="9.400002" target-width="6.200012" target-x="302.33" target-y="116.28"></path><path d="M 307.33 126.58 C 308.93 126.68 311.83 118.88 311.63 117.68 C 311.43 116.48 309.63 116.88 308.83 117.88 C 308.23 118.58 305.63 126.48 307.33 126.58 Z" fill="url(#未命名的渐变_305-11)" fill-rule="nonzero" group-id="1,2,3,4,7,15" id="Path-27" node-id="115" stroke="none" target-height="10.199997" target-width="6.1999817" target-x="305.63" target-y="116.48"></path><path d="M 311.23 126.38 C 312.53 126.48 314.03 119.98 313.93 118.88 C 313.83 117.78 312.43 118.28 311.73 119.08 C 311.23 119.68 310.00 126.28 311.23 126.38 Z" fill="url(#未命名的渐变_305-12)" fill-rule="nonzero" group-id="1,2,3,4,7,15" id="Path-28" node-id="116" stroke="none" target-height="8.700005" target-width="4.029999" target-x="310" target-y="117.78"></path><path d="M 314.33 125.48 C 315.43 125.58 316.23 120.98 316.13 120.28 C 316.03 119.58 314.83 119.88 314.23 120.38 C 313.83 120.88 313.23 125.48 314.33 125.48 Z" fill="url(#未命名的渐变_305-13)" fill-rule="nonzero" group-id="1,2,3,4,7,15" id="Path-29" node-id="117" stroke="none" target-height="6" target-width="3" target-x="313.23" target-y="119.58"></path><path d="M 192.90 124.20 C 195.60 123.00 197.40 125.00 195.20 126.30 C 193.00 127.60 187.40 134.10 187.40 134.10 C 187.41 134.18 187.44 134.25 187.50 134.30 C 183.90 134.40 182.30 132.40 182.80 130.20 C 183.10 128.70 185.00 127.70 188.40 127.40 L 188.40 127.40 C 189.68 126.05 191.21 124.97 192.90 124.20 Z" fill="url(#未命名的渐变_305-14)" fill-rule="nonzero" group-id="1,2,3,4,7" id="Combined-Shape-10" node-id="118" stroke="none" target-height="11.399994" target-width="15.099991" target-x="182.3" target-y="123"></path><path d="M 307.70 130.30 C 307.30 131.30 305.80 132.20 303.40 132.90 C 303.60 131.30 302.60 131.00 301.10 129.80 C 299.30 128.30 297.60 124.60 298.60 123.60 C 299.40 122.80 302.60 127.00 302.90 127.40 L 302.90 127.40 C 307.00 127.40 308.50 128.30 307.70 130.30 Z" fill="url(#未命名的渐变_305-15)" fill-rule="nonzero" group-id="1,2,3,4,7" id="Combined-Shape-11" node-id="119" stroke="none" target-height="10.099991" target-width="10.899994" target-x="297.6" target-y="122.8"></path></g></g><path d="M 463.00 376.96 C 463.00 381.93 444.42 385.96 421.50 385.96 C 398.58 385.96 380.00 381.93 380.00 376.96 C 380.00 371.99 398.58 367.96 421.50 367.96 C 444.42 367.96 463.00 371.99 463.00 376.96 Z" fill="#000000" fill-opacity="0.09" fill-rule="nonzero" group-id="1,2,3" id="Oval-9" node-id="120" stroke="none" target-height="18" target-width="83" target-x="380" target-y="367.96"></path><path d="M 455.00 374.50 C 455.00 378.64 438.21 382.00 417.50 382.00 C 396.79 382.00 380.00 378.64 380.00 374.50 C 380.00 370.36 396.79 367.00 417.50 367.00 C 438.21 367.00 455.00 370.36 455.00 374.50 Z" fill="#614458" fill-rule="nonzero" group-id="1,2,3,5,8" id="Oval-10" node-id="123" stroke="none" target-height="15" target-width="75" target-x="380" target-y="367"></path><path d="M 380.00 342.00 L 455.00 342.00 L 455.00 374.00 L 380.00 374.00 L 380.00 342.00 Z" fill="url(#未命名的渐变_306-5)" fill-rule="nonzero" group-id="1,2,3,5,8" id="Rectangle-6" node-id="124" stroke="none" target-height="32" target-width="75" target-x="380" target-y="342"></path><path d="M 455.00 342.50 C 455.00 346.64 438.21 350.00 417.50 350.00 C 396.79 350.00 380.00 346.64 380.00 342.50 C 380.00 338.36 396.79 335.00 417.50 335.00 C 438.21 335.00 455.00 338.36 455.00 342.50 Z" fill="#533d4c" fill-rule="nonzero" group-id="1,2,3,5,8" id="Oval-11" node-id="125" stroke="none" target-height="15" target-width="75" target-x="380" target-y="335"></path><path d="M 430.00 342.50 C 430.00 343.88 424.63 345.00 418.00 345.00 C 411.37 345.00 406.00 343.88 406.00 342.50 C 406.00 341.12 411.37 340.00 418.00 340.00 C 424.63 340.00 430.00 341.12 430.00 342.50 Z" fill="#372732" fill-rule="nonzero" group-id="1,2,3,5,8" id="Oval-12" node-id="126" stroke="none" target-height="5" target-width="24" target-x="406" target-y="340"></path><path d="M 380.00 359.00 C 386.50 363.00 399.00 365.00 417.50 365.00 C 436.00 365.00 448.50 363.00 455.00 359.00" fill="none" group-id="1,2,3,5" id="Path-825" node-id="127" stroke="#372732" stroke-linecap="round" stroke-width="1.79" target-height="6" target-width="75" target-x="380" target-y="359"></path></g></g></g></svg>