<?xml version="1.0" standalone="no"?><!DOCTYPE svg PUBLIC "-//W3C//DTD SVG 1.1//EN" "http://www.w3.org/Graphics/SVG/1.1/DTD/svg11.dtd"><svg t="1701402253650" class="icon" viewBox="0 0 1024 1024" version="1.1" xmlns="http://www.w3.org/2000/svg" p-id="1732" xmlns:xlink="http://www.w3.org/1999/xlink" width="200" height="200"><path d="M349.386667 113.12a21.333333 21.333333 0 0 1-9.536 28.629333c-28.096 14.037333-93.728 79.466667-64.32 226.517334 6.261333 31.285333 29.152 61.866667 57.386666 87.829333 27.893333 25.653333 58.304 44.352 74.784 52.309333a21.333333 21.333333 0 0 1-18.549333 38.432c-20.096-9.706667-54.026667-30.741333-85.12-59.338666-30.730667-28.266667-61.450667-66.453333-70.336-110.858667-32.650667-163.285333 39.466667-249.248 87.072-273.056a21.333333 21.333333 0 0 1 28.618667 9.536z" fill="#DA844B" p-id="1733"></path><path d="M350.506667 117.898667a10.666667 10.666667 0 0 1-4.757334 14.304c-32.970667 16.490667-100.234667 87.04-70.005333 238.154666 6.912 34.56 31.765333 67.04 60.629333 93.589334 28.693333 26.389333 59.978667 45.674667 77.365334 54.08a10.666667 10.666667 0 1 1-9.28 19.2c-19.2-9.269333-52.245333-29.717333-82.528-57.578667-30.112-27.690667-58.88-63.978667-67.104-105.098667-31.850667-159.232 38.656-240.064 81.386666-261.418666a10.666667 10.666667 0 0 1 14.293334 4.768z" fill="#BD6B34" p-id="1734"></path><path d="M139.882667 410.773333a21.333333 21.333333 0 0 1 27.221333-13.013333c8.874667 3.125333 25.664 7.264 45.024 8.469333 19.445333 1.205333 39.744-0.661333 56.789333-7.968a21.333333 21.333333 0 1 1 16.810667 39.210667c-25.344 10.869333-52.981333 12.778667-76.234667 11.338667-23.349333-1.450667-44.032-6.389333-56.597333-10.826667a21.333333 21.333333 0 0 1-13.013333-27.210667zM358.773333 245.941333a21.333333 21.333333 0 0 1 14.784 26.293334c-4.981333 17.781333-15.904 43.989333-33.248 65.877333-17.248 21.76-43.744 42.592-79.381333 40.501333a21.333333 21.333333 0 1 1 2.506667-42.592c15.84 0.928 30.346667-7.893333 43.434666-24.416 13.002667-16.405333 21.76-37.12 25.6-50.88a21.333333 21.333333 0 0 1 26.304-14.784z" fill="#DA844B" p-id="1735"></path><path d="M159.754667 200.117333a21.333333 21.333333 0 0 1 24.981333 16.917334c2.741333 14.261333 9.962667 35.914667 22.058667 53.408 12.053333 17.450667 26.56 27.690667 44.032 27.690666a21.333333 21.333333 0 1 1 0 42.666667c-37.013333 0-62.88-22.56-79.146667-46.101333-16.234667-23.509333-25.28-51.061333-28.842667-69.6a21.333333 21.333333 0 0 1 16.917334-24.981334zM336.789333 189.866667a21.333333 21.333333 0 0 1 2.005334 30.112c-5.994667 6.848-16.298667 15.872-29.290667 22.88-13.013333 7.04-30.357333 12.906667-49.674667 10.762666a21.333333 21.333333 0 1 1 4.714667-42.410666c7.925333 0.885333 16.437333-1.429333 24.693333-5.888 8.266667-4.469333 14.613333-10.208 17.450667-13.44a21.333333 21.333333 0 0 1 30.101333-2.016z" fill="#DA844B" p-id="1736"></path><path d="M229.493333 127.146667a21.333333 21.333333 0 0 1 21.333334 21.333333c0 4.170667 0.608 11.733333 2.432 19.285333 1.962667 8.106667 4.586667 12.938667 6.464 14.826667a21.333333 21.333333 0 0 1-30.176 30.165333c-10.229333-10.24-15.178667-24.32-17.749334-34.944a131.306667 131.306667 0 0 1-3.626666-29.333333 21.333333 21.333333 0 0 1 21.333333-21.333333z" fill="#DA844B" p-id="1737"></path><path d="M278.314667 161.237333a10.666667 10.666667 0 0 1 4.448 14.410667c-11.818667 22.389333-37.365333 83.274667-30.144 162.72a10.666667 10.666667 0 0 1-21.237334 1.930667c-7.712-84.821333 19.456-149.888 32.522667-174.613334a10.666667 10.666667 0 0 1 14.410667-4.448z" fill="#FAA973" p-id="1738"></path><path d="M663.2 113.12a21.333333 21.333333 0 0 0 9.536 28.629333c28.096 14.037333 93.728 79.466667 64.32 226.517334-6.261333 31.285333-29.152 61.866667-57.386667 87.829333-27.893333 25.653333-58.304 44.352-74.784 52.309333a21.333333 21.333333 0 0 0 18.549334 38.432c20.096-9.706667 54.026667-30.741333 85.12-59.338666 30.730667-28.266667 61.450667-66.453333 70.336-110.858667 32.650667-163.285333-39.466667-249.248-87.072-273.056a21.333333 21.333333 0 0 0-28.618667 9.536z" fill="#DA844B" p-id="1739"></path><path d="M683.413333 117.898667a10.666667 10.666667 0 0 0 4.757334 14.304c32.970667 16.490667 100.234667 87.04 70.005333 238.154666-6.912 34.56-31.765333 67.04-60.618667 93.589334-28.693333 26.389333-59.989333 45.674667-77.376 54.08a10.666667 10.666667 0 0 0 9.28 19.2c19.2-9.269333 52.245333-29.717333 82.528-57.578667 30.122667-27.690667 58.88-63.978667 67.104-105.098667 31.850667-159.232-38.656-240.064-81.386666-261.418666a10.666667 10.666667 0 0 0-14.293334 4.768z" fill="#BD6B34" p-id="1740"></path><path d="M872.704 410.773333a21.333333 21.333333 0 0 0-27.221333-13.013333c-8.874667 3.125333-25.664 7.264-45.024 8.469333-19.445333 1.205333-39.744-0.661333-56.789334-7.968a21.333333 21.333333 0 0 0-16.810666 39.210667c25.344 10.869333 52.981333 12.778667 76.245333 11.338667 23.338667-1.450667 44.021333-6.4 56.586667-10.826667a21.333333 21.333333 0 0 0 13.013333-27.210667zM653.813333 245.941333a21.333333 21.333333 0 0 0-14.784 26.293334c4.981333 17.781333 15.904 43.989333 33.248 65.877333 17.248 21.76 43.744 42.592 79.381334 40.501333a21.333333 21.333333 0 0 0-2.506667-42.592c-15.84 0.928-30.346667-7.893333-43.434667-24.405333-13.002667-16.416-21.76-37.12-25.6-50.88a21.333333 21.333333 0 0 0-26.304-14.794667z" fill="#DA844B" p-id="1741"></path><path d="M852.832 200.117333a21.333333 21.333333 0 0 0-24.981333 16.917334c-2.741333 14.261333-9.962667 35.914667-22.048 53.408-12.053333 17.450667-26.56 27.690667-44.053334 27.690666a21.333333 21.333333 0 1 0 0 42.666667c37.013333 0 62.890667-22.56 79.146667-46.101333 16.245333-23.509333 25.290667-51.061333 28.853333-69.6a21.333333 21.333333 0 0 0-16.917333-24.981334zM675.797333 179.2a21.333333 21.333333 0 0 0-2.005333 30.112c5.994667 6.848 16.298667 15.872 29.290667 22.88 13.013333 7.04 30.357333 12.906667 49.674666 10.762667a21.333333 21.333333 0 0 0-4.714666-42.410667c-7.925333 0.885333-16.437333-1.429333-24.682667-5.888-8.277333-4.469333-14.624-10.208-17.461333-13.44a21.333333 21.333333 0 0 0-30.101334-2.016z" fill="#DA844B" p-id="1742"></path><path d="M772.426667 116.48a21.333333 21.333333 0 0 0-21.333334 21.333333c0 4.170667-0.597333 11.733333-2.432 19.285334-1.962667 8.106667-4.586667 12.938667-6.464 14.826666a21.333333 21.333333 0 1 0 30.176 30.165334c10.229333-10.24 15.178667-24.32 17.76-34.944 2.709333-11.2 3.626667-22.165333 3.626667-29.333334a21.333333 21.333333 0 0 0-21.333333-21.333333z" fill="#DA844B" p-id="1743"></path><path d="M186.496 523.84c81.749333-54.506667 170.304-17.664 204.373333 7.573333 30.272 24.213333 22.698667 50.453333 15.136 60.544-105.973333 30.282667-190.506667-32.8-219.52-68.117333z" fill="#944F21" p-id="1744"></path><path d="M403.882667 514.496l0.309333 0.245333c19.04 15.242667 28.16 32.949333 29.685333 50.389334 1.450667 16.618667-4.213333 30.826667-10.805333 39.626666l-4.309333 5.738667-6.901334 1.973333c-117.290667 33.514667-209.888-36.181333-241.856-75.093333l-14.954666-18.218667 19.605333-13.066666c92.544-61.696 191.424-19.594667 228.906667 8.170666l0.32 0.234667z m-217.386667 9.344c3.968 4.821333 8.96 10.176 14.933333 15.733333 37.6 35.093333 113.088 78.517333 204.576 52.384 7.573333-10.090667 15.136-36.330667-15.146666-60.554666-31.466667-23.306667-109.472-56.533333-185.632-18.453334a174.08 174.08 0 0 0-18.730667 10.88z" fill="#652E0A" p-id="1745"></path><path d="M614.154667 527.626667c84.778667-75.701333 199.328-31.541333 246.005333 0-6.304 13.866667-34.069333 46.933333-94.613333 68.117333-60.554667 21.194667-126.154667-1.258667-151.392-15.146667v-52.970666z" fill="#944F21" p-id="1746"></path><path d="M887.04 520.042667l-7.466667 16.405333c-9.312 20.490667-42.464 56.853333-106.986666 79.434667-34.698667 12.149333-70.133333 11.573333-99.626667 6.464-29.44-5.098667-54.389333-14.965333-69.088-23.04l-11.050667-6.08v-75.157334l7.125334-6.357333c48.106667-42.954667 104.629333-51.530667 154.090666-45.482667 48.96 6.005333 92.426667 26.389333 118.069334 43.712l14.933333 10.101334z m-36.864 22.357333c5.024-5.909333 8.288-11.04 9.984-14.784-46.677333-31.530667-161.226667-75.690667-246.005333 0v52.992c25.237333 13.866667 90.837333 36.330667 151.392 15.146667 41.856-14.656 68.032-34.976 82.293333-50.709334 0.821333-0.896 1.6-1.781333 2.336-2.645333z" fill="#652E0A" p-id="1747"></path><path d="M806.144 538.325333a10.666667 10.666667 0 0 0-10.197333-11.125333 409.877333 409.877333 0 0 0-68.842667 3.328c-25.813333 3.541333-53.696 10.368-71.626667 23.722667a10.666667 10.666667 0 0 0 12.736 17.109333c13.290667-9.898667 36.458667-16.213333 61.781334-19.690667a388.650667 388.650667 0 0 1 65.024-3.157333 10.666667 10.666667 0 0 0 11.125333-10.186667zM239.488 532.864a10.666667 10.666667 0 0 1 12.309333-8.714667 409.813333 409.813333 0 0 1 66.592 17.824c24.469333 8.917333 50.272 21.493333 64.981334 38.346667a10.666667 10.666667 0 1 1-16.074667 14.026667c-10.890667-12.48-32.192-23.573333-56.213333-32.32a388.682667 388.682667 0 0 0-62.890667-16.853334 10.666667 10.666667 0 0 1-8.704-12.309333z" fill="#BD6B34" p-id="1748"></path><path d="M527.104 425.44c-207.52 0-200.576 243.477333-170.304 314.122667 102.186667 15.146667 310.336 38.602667 325.482667 11.349333 18.922667-34.058667 79.466667-325.472-155.168-325.472z" fill="#B3642F" p-id="1749"></path><path d="M341.888 758.922667l-4.693333-10.954667c-8.885333-20.725333-15.296-51.882667-17.045334-86.208-1.76-34.613333 1.141333-74.133333 12.16-111.754667s30.485333-74.314667 62.538667-101.653333c32.362667-27.594667 75.914667-44.245333 132.266667-44.245333 63.434667 0 109.514667 19.882667 141.205333 52.544 31.178667 32.128 46.24 74.389333 52.554667 115.52 6.325333 41.237333 4.128 83.072-0.746667 116.586666a389.088 389.088 0 0 1-8.853333 43.914667c-3.093333 11.541333-6.645333 21.941333-10.346667 28.608-3.584 6.453333-8.981333 10.410667-13.333333 12.821333-4.458667 2.474667-9.344 4.16-14.016 5.397334-9.322667 2.453333-20.693333 3.84-32.896 4.565333-24.576 1.472-56.256 0.554667-89.888-1.642667-67.488-4.405333-145.696-14.133333-197.12-21.76l-11.786667-1.738666z m14.912-19.36c-30.272-70.645333-37.216-314.133333 170.304-314.133334 234.656 0 174.101333 291.424 155.178667 325.482667-15.146667 27.253333-223.296 3.786667-325.482667-11.349333z" fill="#7A3C12" p-id="1750"></path><path d="M354.816 734.581333c108.512 14.336 271.466667 29.653333 284.8 5.664 16.533333-29.781333 64.917333-256.32-80.053333-312.768 196.352 25.941333 140.714667 291.050667 122.72 323.434667-15.146667 27.253333-223.296 3.786667-325.482667-11.349333a111.690667 111.690667 0 0 1-1.984-4.981334z" fill="#A75822" p-id="1751"></path><path d="M454.133333 463.072a16 16 0 0 1-3.2 22.4c-15.253333 11.434667-51.050667 50.069333-61.888 106.229333a16 16 0 1 1-31.424-6.069333c12.629333-65.44 53.813333-110.538667 74.112-125.76a16 16 0 0 1 22.4 3.2z" fill="#CB7941" p-id="1752"></path><path d="M508.181333 569.258667c0 20.906667-13.546667 37.845333-30.272 37.845333s-30.282667-16.949333-30.282666-37.845333c0-20.906667 13.557333-37.845333 30.282666-37.845334s30.272 16.938667 30.272 37.845334zM606.581333 569.258667c0 20.906667-13.546667 37.845333-30.272 37.845333s-30.272-16.949333-30.272-37.845333c0-20.906667 13.546667-37.845333 30.272-37.845334s30.272 16.938667 30.272 37.845334z" fill="#6B310A" p-id="1753"></path><path d="M342.24 679.008c60.554667-57.525333 128.682667-23.968 155.168 0h105.973333c140.032-64.341333 177.877333 45.418667 105.973334 151.381333-71.914667 105.973333-234.645333 98.4-298.986667 64.341334-64.341333-34.058667-143.818667-143.818667-68.128-215.722667z" fill="#FFEFB9" p-id="1754"></path><path d="M497.408 679.008h105.973333c140.032-64.341333 177.877333 45.418667 105.973334 151.381333-71.914667 105.973333-234.645333 98.4-298.986667 64.341334-64.341333-34.058667-143.818667-143.818667-68.128-215.722667 60.554667-57.525333 128.682667-23.968 155.168 0z m101.386667-21.333333H505.173333c-16.213333-12.757333-40.736-26.026667-69.397333-30.325334-33.930667-5.098667-72.832 2.56-108.224 36.192-22.528 21.397333-34.133333 46.4-36.864 72.501334-2.677333 25.664 3.338667 51.04 13.674667 73.824 20.437333 45.056 59.733333 84.512 96.021333 103.722666 36.832 19.498667 98.197333 30.165333 159.242667 22.656 61.461333-7.552 126.826667-34.112 167.381333-93.866666 19.36-28.544 31.818667-58.016 36.8-85.6 4.96-27.370667 2.773333-54.368-9.28-76.234667-12.48-22.666667-34.24-37.365333-62.624-41.077333-26.453333-3.466667-57.781333 2.602667-93.109333 18.208z" fill="#CBB56B" p-id="1755"></path><path d="M371.306667 680.213333a10.666667 10.666667 0 0 1 0.469333 15.082667c-8.373333 8.917333-18.218667 27.328-17.845333 52.309333 0.373333 24.714667 10.805333 56.832 44.544 93.130667a10.666667 10.666667 0 1 1-15.616 14.528c-36.661333-39.434667-49.792-76.426667-50.261334-107.338667-0.458667-30.634667 11.552-54.368 23.626667-67.221333a10.666667 10.666667 0 0 1 15.072-0.48z" fill="#FFF7DD" p-id="1756"></path><path d="M402.517333 890.24c2.634667 1.621333 5.258667 3.114667 7.850667 4.490667 64.341333 34.058667 227.072 41.632 298.986667-64.341334 50.848-74.944 46.816-151.776-9.44-167.584 34.922667 27.594667 31.52 92.949333-11.893334 156.928-67.306667 99.2-214.229333 98.901333-285.504 70.506667z m80.992-221.898667a135.178667 135.178667 0 0 0-24.661333-12.778666c6.826667 4.202667 12.650667 8.64 17.226667 12.778666h7.434666z" fill="#F1DE9D" p-id="1757"></path><path d="M636.864 716.853333c0 52.256-50.837333 109.76-113.536 109.76-62.709333 0-113.546667-57.504-113.546667-109.76 0-52.256 50.837333-87.04 113.546667-87.04 62.698667 0 113.536 34.784 113.536 87.04z" fill="#D94A1D" p-id="1758"></path><path d="M618.826667 806.282667c-23.850667 24.266667-57.493333 41.664-95.498667 41.664-38.016 0-71.658667-17.397333-95.498667-41.664-23.68-24.085333-39.381333-56.672-39.381333-89.429334 0-33.813333 16.704-61.589333 41.888-80.256 24.853333-18.421333 57.92-28.128 92.992-28.128 35.072 0 68.138667 9.706667 92.981333 28.128 25.194667 18.666667 41.888 46.453333 41.888 80.256 0 32.757333-15.701333 65.344-39.370666 89.429334z m-95.498667 20.330666c62.698667 0 113.536-57.504 113.536-109.76 0-52.256-50.837333-87.04-113.536-87.04-62.709333 0-113.546667 34.784-113.546667 87.04s50.837333 109.76 113.546667 109.76z" fill="#953416" p-id="1759"></path><path d="M539.434667 678.634667c6.218667 22.528-9.888 46.645333-35.968 53.834666-26.090667 7.2-52.277333-5.226667-58.496-27.765333-6.229333-22.538667 9.877333-46.645333 35.968-53.845333 26.08-7.2 52.266667 5.226667 58.496 27.776z" fill="#EC683E" p-id="1760"></path><path d="M499.445333 662.613333a10.666667 10.666667 0 0 1-2.72 14.826667c-2.826667 1.952-9.728 7.36-14.197333 12.725333a10.666667 10.666667 0 0 1-16.384-13.653333c6.186667-7.456 14.848-14.133333 18.464-16.629333a10.666667 10.666667 0 0 1 14.837333 2.730666z" fill="#FFF8F8" p-id="1761"></path><path d="M472.202667 559.317333c0-5.493333-3.466667-9.941333-7.733334-9.941333-4.266667 0-7.722667 4.448-7.722666 9.941333 0 5.482667 3.456 9.941333 7.722666 9.941334 4.266667 0 7.733333-4.458667 7.733334-9.941334zM573.738667 557.728c0-5.493333-3.456-9.941333-7.722667-9.941333-4.266667 0-7.733333 4.448-7.733333 9.941333 0 5.493333 3.466667 9.941333 7.733333 9.941333 4.266667 0 7.722667-4.448 7.722667-9.941333z" fill="#F3BC96" p-id="1762"></path><path d="M683.338667 840c0 4.416-4.032 8-9.002667 8-4.970667 0-9.002667-3.584-9.002667-8s4.032-8 9.002667-8c4.970667 0 8.992 3.584 8.992 8zM642.773333 834.613333c0 4.416-4.021333 8-8.992 8-4.970667 0-9.002667-3.584-9.002666-8 0-4.426667 4.032-8 9.002666-8 4.970667 0 9.002667 3.573333 9.002667 8zM624.778667 882.346667c0 4.405333-4.021333 8-8.992 8-4.970667 0-9.002667-3.594667-9.002667-8 0-4.426667 4.032-8 9.002667-8 4.970667 0 8.992 3.573333 8.992 8zM681.088 777.258667c0 2.752-2.506667 4.981333-5.6 4.981333-3.093333 0-5.6-2.24-5.6-4.981333 0-2.752 2.506667-4.970667 5.6-4.970667 3.093333 0 5.6 2.218667 5.6 4.970667zM737.098667 731.2c0 2.752-2.506667 4.981333-5.589334 4.981333-3.093333 0-5.6-2.229333-5.6-4.970666 0-2.752 2.506667-4.981333 5.6-4.981334 3.093333 0 5.589333 2.24 5.589334 4.981334zM703.434667 752.554667c0 2.752-2.506667 4.981333-5.6 4.981333-3.093333 0-5.589333-2.229333-5.589334-4.981333 0-2.741333 2.506667-4.970667 5.589334-4.970667 3.093333 0 5.6 2.229333 5.6 4.970667zM621.376 857.536c0 2.741333-2.496 4.970667-5.589333 4.970667-3.093333 0-5.6-2.229333-5.6-4.970667 0-2.752 2.506667-4.981333 5.6-4.981333 3.093333 0 5.589333 2.24 5.589333 4.981333zM594.378667 893.194667c0 2.752-2.506667 4.981333-5.6 4.981333-3.093333 0-5.589333-2.229333-5.589334-4.981333 0-2.741333 2.506667-4.970667 5.589334-4.970667 3.093333 0 5.6 2.229333 5.6 4.970667zM703.434667 794.453333c0 4.416-4.032 8-9.002667 8-4.970667 0-8.992-3.584-8.992-8 0-4.426667 4.021333-8 8.992-8 4.970667 0 9.002667 3.573333 9.002667 8zM671.84 807.562667c0 6.005333-5.482667 10.88-12.256 10.88-6.762667 0-12.245333-4.874667-12.245333-10.88 0-6.016 5.482667-10.901333 12.245333-10.901334 6.773333 0 12.256 4.885333 12.256 10.901334zM731.509333 763.445333c0 6.016-5.493333 10.890667-12.266666 10.890667-6.752 0-12.245333-4.874667-12.245334-10.88 0-6.026667 5.482667-10.901333 12.256-10.901333 6.762667 0 12.256 4.874667 12.256 10.890666zM661.365333 863.445333c0 6.016-5.482667 10.890667-12.245333 10.890667-6.773333 0-12.256-4.874667-12.256-10.88 0-6.026667 5.482667-10.901333 12.256-10.901333 6.762667 0 12.245333 4.874667 12.245333 10.890666z" fill="#DEC674" p-id="1763"></path></svg>